<svg xmlns="http://www.w3.org/2000/svg" xmlns:xlink="http://www.w3.org/1999/xlink" width="3616" height="1587" fill="none"><style><![CDATA[.B{fill:#fff}.C{stroke-width:4}.D{stroke:#505050}.E{fill:#31478d}.F{stroke:#fff}.G{fill:#e4b612}.H{fill:#505050}.I{fill:#1377ed}.J{fill:#eb5757}]]></style><path d="M549.918 820.498H66c-5.523 0-10 4.477-10 10V1083.7a10 10 0 0 0 10 10h483.918c5.523 0 10-4.47 10-10V830.498a10 10 0 0 0-10-10z" class="I"/><path d="M182.587 938.687v5.292h-13.734v38.367h-6.11V943.98h-13.734v-5.292h33.58zm11.934 43.66h-5.86v-32.76h5.86v32.76zm-2.96-38.682c-1.05 0-1.953-.336-2.71-1.008-.714-.714-1.07-1.66-1.07-2.835s.357-2.1 1.07-2.772c.756-.714 1.66-1.07 2.71-1.07s1.932.357 2.646 1.07c.756.672 1.134 1.596 1.134 2.772s-.378 2.12-1.134 2.835c-.714.672-1.596 1.008-2.646 1.008zm45.734-4.977l-4.4 4.788-5.166 5.355-5.292 5.355-4.977 4.914c1.806 1.26 3.717 2.814 5.733 4.662l5.922 5.922 5.418 6.426c1.722 2.184 3.15 4.263 4.284 6.237h-7.182c-1.26-1.974-2.71-3.948-4.347-5.922-1.638-2.016-3.38-3.927-5.23-5.733a69.31 69.31 0 0 0-5.544-5.103c-1.848-1.554-3.654-2.877-5.418-3.97v20.727h-6.11v-43.66h6.11v19.278l4.85-4.662 5.23-5.292 4.85-5.04 3.906-4.284h7.37zm43.812 0l-4.6 12.852-4.22 11.15-4.158 10.143-4.158 9.513h-5.733l-4.22-9.513-4.158-10.143-4.284-11.15c-1.47-3.948-2.982-8.232-4.536-12.852h6.74l6.678 19.152c2.184 6.132 4.43 11.886 6.74 17.262 2.3-5.334 4.557-11.067 6.74-17.2l6.615-19.215h6.552zm27.9 39.438c2.394 0 4.158-.315 5.292-.945 1.176-.63 1.764-1.638 1.764-3.024 0-1.428-.567-2.562-1.7-3.402s-3.003-1.785-5.607-2.835l-3.654-1.512c-1.134-.546-2.12-1.176-2.96-1.9a8.11 8.11 0 0 1-2.016-2.583c-.504-1.008-.756-2.247-.756-3.717 0-2.898 1.07-5.187 3.213-6.867 2.142-1.722 5.06-2.583 8.757-2.583.924 0 1.848.063 2.772.19.924.084 1.785.2 2.583.378.798.126 1.49.273 2.08.44.63.168 1.113.315 1.45.44l-1.07 5.04c-.63-.336-1.617-.672-2.96-1.008-1.344-.378-2.96-.567-4.85-.567-1.638 0-3.066.336-4.284 1.008-1.218.63-1.827 1.638-1.827 3.024 0 .714.126 1.344.378 1.9.294.546.714 1.05 1.26 1.512.588.42 1.302.82 2.142 1.197s1.848.777 3.024 1.197c1.554.588 2.94 1.176 4.158 1.764 1.218.546 2.247 1.197 3.087 1.953a7.39 7.39 0 0 1 2.016 2.772c.462 1.05.693 2.352.693 3.906 0 3.024-1.134 5.313-3.402 6.867-2.226 1.554-5.418 2.33-9.576 2.33-2.898 0-5.166-.252-6.804-.756-1.638-.462-2.75-.82-3.34-1.07l1.07-5.04c.672.252 1.743.63 3.213 1.134s3.423.756 5.86.756zm18.666-12.096c0-2.898.42-5.418 1.26-7.56.84-2.184 1.953-4 3.34-5.418s2.982-2.5 4.788-3.213 3.654-1.07 5.544-1.07c4.4 0 7.79 1.386 10.143 4.158 2.352 2.73 3.528 6.91 3.528 12.537v1.008c0 .378-.02.735-.063 1.07h-22.428c.252 3.402 1.24 5.985 2.96 7.75s4.4 2.646 8.064 2.646c2.058 0 3.78-.168 5.166-.504 1.428-.378 2.5-.735 3.213-1.07l.82 4.914c-.714.378-1.974.777-3.78 1.197-1.764.42-3.78.63-6.048.63-2.856 0-5.334-.42-7.434-1.26-2.058-.882-3.76-2.08-5.103-3.59s-2.352-3.297-3.024-5.355c-.63-2.1-.945-4.39-.945-6.867zm22.49-3.213c.042-2.646-.63-4.81-2.016-6.49-1.344-1.722-3.213-2.583-5.607-2.583-1.344 0-2.54.273-3.59.82a8.11 8.11 0 0 0-2.583 2.016c-.714.84-1.28 1.806-1.7 2.898-.378 1.092-.63 2.205-.756 3.34h16.254zm26.624-13.923c.504 0 1.07.042 1.7.126a14.59 14.59 0 0 1 1.953.252 15.5 15.5 0 0 1 1.701.315c.546.084.945.168 1.197.252l-1.008 5.103c-.462-.168-1.24-.357-2.33-.567-1.05-.252-2.415-.378-4.095-.378-1.092 0-2.184.126-3.276.378l-2.08.44v27.53h-5.86v-31.374c1.386-.504 3.108-.966 5.166-1.386 2.058-.462 4.368-.693 6.93-.693zm39.137.693c-1.638 6.132-3.57 12.012-5.796 17.64-2.184 5.628-4.305 10.668-6.363 15.12h-5.292c-2.058-4.452-4.2-9.492-6.426-15.12-2.184-5.628-4.095-11.508-5.733-17.64h6.3c.504 2.058 1.092 4.263 1.764 6.615l2.205 6.93 2.394 6.615a137.54 137.54 0 0 0 2.268 5.733 137.54 137.54 0 0 0 2.268-5.733 201.21 201.21 0 0 0 2.331-6.615c.798-2.3 1.533-4.62 2.205-6.93.714-2.352 1.323-4.557 1.827-6.615h6.048zm3.357 16.443c0-2.898.42-5.418 1.26-7.56.84-2.184 1.953-4 3.34-5.418s2.982-2.5 4.788-3.213 3.654-1.07 5.544-1.07c4.4 0 7.79 1.386 10.143 4.158 2.352 2.73 3.528 6.91 3.528 12.537v1.008c0 .378-.02.735-.063 1.07h-22.428c.252 3.402 1.24 5.985 2.96 7.75s4.4 2.646 8.064 2.646c2.058 0 3.78-.168 5.166-.504 1.428-.378 2.5-.735 3.213-1.07l.82 4.914c-.714.378-1.974.777-3.78 1.197-1.764.42-3.78.63-6.048.63-2.856 0-5.334-.42-7.434-1.26-2.058-.882-3.76-2.08-5.103-3.59s-2.352-3.297-3.024-5.355c-.63-2.1-.945-4.39-.945-6.867zm22.49-3.213c.042-2.646-.63-4.81-2.016-6.49-1.344-1.722-3.213-2.583-5.607-2.583-1.344 0-2.54.273-3.59.82a8.11 8.11 0 0 0-2.583 2.016c-.714.84-1.28 1.806-1.7 2.898-.378 1.092-.63 2.205-.756 3.34h16.254zm26.623-13.923c.504 0 1.07.042 1.7.126a14.59 14.59 0 0 1 1.953.252 15.5 15.5 0 0 1 1.701.315c.546.084.945.168 1.197.252l-1.008 5.103c-.462-.168-1.24-.357-2.33-.567-1.05-.252-2.415-.378-4.095-.378-1.092 0-2.184.126-3.276.378l-2.08.44v27.53h-5.86v-31.374c1.386-.504 3.108-.966 5.166-1.386 2.058-.462 4.368-.693 6.93-.693z" class="B"/><path d="M547.918 1172H64c-5.523 0-10 4.48-10 10v253.2c0 5.52 4.477 10 10 10h483.918c5.523 0 10-4.48 10-10V1182c0-5.52-4.477-10-10-10z" class="I"/><path d="M179.587 1288.34v5.3h-13.734V1332h-6.11v-38.37h-13.734v-5.3h33.58zM191.52 1332h-5.86v-32.76h5.86V1332zm-2.96-38.68c-1.05 0-1.953-.34-2.71-1-.714-.7-1.07-1.66-1.07-2.84 0-1.17.357-2.1 1.07-2.77.756-.7 1.66-1.07 2.71-1.07s1.932.36 2.646 1.07c.756.67 1.134 1.6 1.134 2.77 0 1.18-.378 2.13-1.134 2.84-.714.67-1.596 1-2.646 1zm45.734-4.98l-4.4 4.8-5.166 5.35-5.292 5.36-4.977 4.9c1.806 1.26 3.717 2.82 5.733 4.66l5.922 5.93 5.418 6.42c1.722 2.2 3.15 4.27 4.284 6.24h-7.182c-1.26-1.97-2.71-3.95-4.347-5.92a67.8 67.8 0 0 0-5.229-5.74c-1.806-1.84-3.654-3.54-5.544-5.1-1.848-1.55-3.654-2.88-5.418-3.97V1332h-6.11v-43.66h6.11v19.28l4.85-4.66 5.23-5.3 4.85-5.04 3.906-4.28h7.37zm43.812 0l-4.6 12.85-4.22 11.15-4.158 10.15-4.158 9.5h-5.733l-4.22-9.5-4.158-10.15-4.284-11.15c-1.47-3.95-2.982-8.23-4.536-12.85h6.74l6.678 19.15c2.184 6.13 4.43 11.9 6.74 17.26 2.3-5.33 4.557-11.06 6.74-17.2l6.615-19.22h6.552zm27.9 39.44c2.394 0 4.158-.32 5.292-.95 1.176-.63 1.764-1.63 1.764-3.02 0-1.43-.567-2.56-1.7-3.4s-3.003-1.8-5.607-2.84l-3.654-1.5c-1.134-.55-2.12-1.18-2.96-1.9s-1.512-1.57-2.016-2.58-.756-2.25-.756-3.72c0-2.9 1.07-5.2 3.213-6.87 2.142-1.72 5.06-2.58 8.757-2.58.924 0 1.848.06 2.772.2.924.08 1.785.2 2.583.38.798.12 1.49.27 2.08.44.63.17 1.113.3 1.45.44l-1.07 5.04c-.63-.34-1.617-.67-2.96-1-1.344-.38-2.96-.57-4.85-.57-1.638 0-3.066.34-4.284 1-1.218.63-1.827 1.64-1.827 3.03 0 .7.126 1.34.378 1.9.294.54.714 1.05 1.26 1.5.588.42 1.302.82 2.142 1.2.84.37 1.848.77 3.024 1.2 1.554.6 2.94 1.18 4.158 1.77 1.218.54 2.247 1.2 3.087 1.95a7.43 7.43 0 0 1 2.016 2.77c.462 1.05.693 2.35.693 3.9 0 3.02-1.134 5.3-3.402 6.86-2.226 1.56-5.418 2.34-9.576 2.34-2.898 0-5.166-.26-6.804-.76-1.638-.46-2.75-.82-3.34-1.07l1.07-5.04c.672.25 1.743.63 3.213 1.13 1.47.5 3.423.76 5.86.76zm18.666-12.1c0-2.9.42-5.42 1.26-7.56.84-2.18 1.953-4 3.34-5.42 1.386-1.42 2.982-2.5 4.788-3.2 1.806-.7 3.654-1.07 5.544-1.07 4.4 0 7.79 1.4 10.143 4.16 2.352 2.73 3.528 6.9 3.528 12.54v1c0 .38-.02.74-.063 1.07h-22.428c.252 3.4 1.24 6 2.96 7.75 1.722 1.77 4.4 2.65 8.064 2.65 2.058 0 3.78-.17 5.166-.5 1.428-.38 2.5-.74 3.213-1.08l.82 4.92c-.714.38-1.974.78-3.78 1.2-1.764.42-3.78.63-6.048.63-2.856 0-5.334-.42-7.434-1.26-2.058-.9-3.76-2.08-5.103-3.6-1.344-1.5-2.352-3.3-3.024-5.35-.63-2.1-.945-4.4-.945-6.87zm22.49-3.2c.042-2.65-.63-4.8-2.016-6.5-1.344-1.72-3.213-2.58-5.607-2.58-1.344 0-2.54.27-3.59.82-1.008.5-1.87 1.17-2.583 2s-1.28 1.8-1.7 2.9a15.4 15.4 0 0 0-.756 3.34h16.254zm26.624-13.92c.504 0 1.07.04 1.7.12.672.04 1.323.13 1.953.25.63.1 1.197.2 1.7.32.546.08.945.17 1.197.25l-1.008 5.1c-.462-.16-1.24-.35-2.33-.56-1.05-.25-2.415-.38-4.095-.38-1.092 0-2.184.13-3.276.38l-2.08.44V1332h-5.86v-31.37c1.386-.5 3.108-.97 5.166-1.4 2.058-.46 4.368-.7 6.93-.7zm39.137.7c-1.638 6.13-3.57 12-5.796 17.64-2.184 5.63-4.305 10.67-6.363 15.12h-5.292c-2.058-4.45-4.2-9.5-6.426-15.12-2.184-5.63-4.095-11.5-5.733-17.64h6.3c.504 2.06 1.092 4.26 1.764 6.6l2.205 6.93 2.394 6.62c.798 2.14 1.554 4.05 2.268 5.73.714-1.68 1.47-3.6 2.268-5.73a198.31 198.31 0 0 0 2.331-6.62c.798-2.3 1.533-4.62 2.205-6.93.714-2.35 1.323-4.55 1.827-6.6h6.048zm3.357 16.44c0-2.9.42-5.42 1.26-7.56.84-2.18 1.953-4 3.34-5.42 1.386-1.42 2.982-2.5 4.788-3.2 1.806-.7 3.654-1.07 5.544-1.07 4.4 0 7.79 1.4 10.143 4.16 2.352 2.73 3.528 6.9 3.528 12.54v1c0 .38-.02.74-.063 1.07h-22.428c.252 3.4 1.24 6 2.96 7.75 1.722 1.77 4.4 2.65 8.064 2.65 2.058 0 3.78-.17 5.166-.5 1.428-.38 2.5-.74 3.213-1.08l.82 4.92c-.714.38-1.974.78-3.78 1.2-1.764.42-3.78.63-6.048.63-2.856 0-5.334-.42-7.434-1.26-2.058-.9-3.76-2.08-5.103-3.6-1.344-1.5-2.352-3.3-3.024-5.35-.63-2.1-.945-4.4-.945-6.87zm22.49-3.2c.042-2.65-.63-4.8-2.016-6.5-1.344-1.72-3.213-2.58-5.607-2.58-1.344 0-2.54.27-3.59.82-1.008.5-1.87 1.17-2.583 2s-1.28 1.8-1.7 2.9a15.4 15.4 0 0 0-.756 3.34h16.254zm26.623-13.92c.504 0 1.07.04 1.7.12.672.04 1.323.13 1.953.25.63.1 1.197.2 1.7.32.546.08.945.17 1.197.25l-1.008 5.1c-.462-.16-1.24-.35-2.33-.56-1.05-.25-2.415-.38-4.095-.38-1.092 0-2.184.13-3.276.38l-2.08.44V1332h-5.86v-31.37c1.386-.5 3.108-.97 5.166-1.4 2.058-.46 4.368-.7 6.93-.7z" class="B"/><path d="M553.918 471H70c-5.523 0-10 4.477-10 10v253.196c0 5.523 4.477 10 10 10h483.918a10 10 0 0 0 10-10V481a10 10 0 0 0-10-10z" class="I"/><path d="M182.587 584.34v5.292h-13.734V628h-6.11v-38.367h-13.734v-5.292h33.58zM194.52 628h-5.86v-32.76h5.86V628zm-2.96-38.682c-1.05 0-1.953-.336-2.71-1.008-.714-.714-1.07-1.66-1.07-2.835s.357-2.1 1.07-2.772c.756-.714 1.66-1.07 2.71-1.07s1.932.357 2.646 1.07c.756.672 1.134 1.596 1.134 2.772s-.378 2.12-1.134 2.835c-.714.672-1.596 1.008-2.646 1.008zm45.734-4.977l-4.4 4.788-5.166 5.355-5.292 5.355-4.977 4.914c1.806 1.26 3.717 2.814 5.733 4.662l5.922 5.922 5.418 6.426c1.722 2.184 3.15 4.263 4.284 6.237h-7.182c-1.26-1.974-2.71-3.948-4.347-5.922-1.638-2.016-3.38-3.927-5.23-5.733a69.31 69.31 0 0 0-5.544-5.103c-1.848-1.554-3.654-2.877-5.418-3.97V628h-6.11v-43.66h6.11v19.278l4.85-4.662 5.23-5.292 4.85-5.04 3.906-4.284h7.37zm43.812 0l-4.6 12.852-4.22 11.15-4.158 10.143L263.97 628h-5.733l-4.22-9.513-4.158-10.143-4.284-11.15c-1.47-3.948-2.982-8.232-4.536-12.852h6.74l6.678 19.152c2.184 6.132 4.43 11.886 6.74 17.262 2.3-5.334 4.557-11.067 6.74-17.2l6.615-19.215h6.552zm27.9 39.438c2.394 0 4.158-.315 5.292-.945 1.176-.63 1.764-1.638 1.764-3.024 0-1.428-.567-2.562-1.7-3.402s-3.003-1.785-5.607-2.835l-3.654-1.512c-1.134-.546-2.12-1.176-2.96-1.9a8.11 8.11 0 0 1-2.016-2.583c-.504-1.008-.756-2.247-.756-3.717 0-2.898 1.07-5.187 3.213-6.867 2.142-1.722 5.06-2.583 8.757-2.583.924 0 1.848.063 2.772.19.924.084 1.785.2 2.583.378.798.126 1.49.273 2.08.44.63.168 1.113.315 1.45.44l-1.07 5.04c-.63-.336-1.617-.672-2.96-1.008-1.344-.378-2.96-.567-4.85-.567-1.638 0-3.066.336-4.284 1.008-1.218.63-1.827 1.638-1.827 3.024 0 .714.126 1.344.378 1.9.294.546.714 1.05 1.26 1.512.588.42 1.302.82 2.142 1.197s1.848.777 3.024 1.197c1.554.588 2.94 1.176 4.158 1.764 1.218.546 2.247 1.197 3.087 1.953a7.39 7.39 0 0 1 2.016 2.772c.462 1.05.693 2.352.693 3.906 0 3.024-1.134 5.313-3.402 6.867-2.226 1.554-5.418 2.33-9.576 2.33-2.898 0-5.166-.252-6.804-.756-1.638-.462-2.75-.82-3.34-1.07l1.07-5.04c.672.252 1.743.63 3.213 1.134s3.423.756 5.86.756zm18.666-12.096c0-2.898.42-5.418 1.26-7.56.84-2.184 1.953-4 3.34-5.418s2.982-2.5 4.788-3.213 3.654-1.07 5.544-1.07c4.4 0 7.79 1.386 10.143 4.158 2.352 2.73 3.528 6.91 3.528 12.537v1.008c0 .378-.02.735-.063 1.07h-22.428c.252 3.402 1.24 5.985 2.96 7.75s4.4 2.646 8.064 2.646c2.058 0 3.78-.168 5.166-.504 1.428-.378 2.5-.735 3.213-1.07l.82 4.914c-.714.378-1.974.777-3.78 1.197-1.764.42-3.78.63-6.048.63-2.856 0-5.334-.42-7.434-1.26-2.058-.882-3.76-2.08-5.103-3.59s-2.352-3.297-3.024-5.355c-.63-2.1-.945-4.39-.945-6.867zm22.49-3.213c.042-2.646-.63-4.81-2.016-6.49-1.344-1.722-3.213-2.583-5.607-2.583-1.344 0-2.54.273-3.59.82a8.11 8.11 0 0 0-2.583 2.016c-.714.84-1.28 1.806-1.7 2.898-.378 1.092-.63 2.205-.756 3.34h16.254zm26.624-13.923c.504 0 1.07.042 1.7.126a14.59 14.59 0 0 1 1.953.252 15.5 15.5 0 0 1 1.701.315c.546.084.945.168 1.197.252l-1.008 5.103c-.462-.168-1.24-.357-2.33-.567-1.05-.252-2.415-.378-4.095-.378-1.092 0-2.184.126-3.276.378l-2.08.44V628h-5.86v-31.374c1.386-.504 3.108-.966 5.166-1.386 2.058-.462 4.368-.693 6.93-.693zm39.137.693c-1.638 6.132-3.57 12.012-5.796 17.64-2.184 5.628-4.305 10.668-6.363 15.12h-5.292c-2.058-4.452-4.2-9.492-6.426-15.12-2.184-5.628-4.095-11.508-5.733-17.64h6.3c.504 2.058 1.092 4.263 1.764 6.615l2.205 6.93 2.394 6.615a137.54 137.54 0 0 0 2.268 5.733 137.54 137.54 0 0 0 2.268-5.733 201.21 201.21 0 0 0 2.331-6.615c.798-2.3 1.533-4.62 2.205-6.93.714-2.352 1.323-4.557 1.827-6.615h6.048zm3.357 16.443c0-2.898.42-5.418 1.26-7.56.84-2.184 1.953-4 3.34-5.418s2.982-2.5 4.788-3.213 3.654-1.07 5.544-1.07c4.4 0 7.79 1.386 10.143 4.158 2.352 2.73 3.528 6.91 3.528 12.537v1.008c0 .378-.02.735-.063 1.07h-22.428c.252 3.402 1.24 5.985 2.96 7.75s4.4 2.646 8.064 2.646c2.058 0 3.78-.168 5.166-.504 1.428-.378 2.5-.735 3.213-1.07l.82 4.914c-.714.378-1.974.777-3.78 1.197-1.764.42-3.78.63-6.048.63-2.856 0-5.334-.42-7.434-1.26-2.058-.882-3.76-2.08-5.103-3.59s-2.352-3.297-3.024-5.355c-.63-2.1-.945-4.39-.945-6.867zm22.49-3.213c.042-2.646-.63-4.81-2.016-6.49-1.344-1.722-3.213-2.583-5.607-2.583-1.344 0-2.54.273-3.59.82a8.11 8.11 0 0 0-2.583 2.016c-.714.84-1.28 1.806-1.7 2.898-.378 1.092-.63 2.205-.756 3.34h16.254zm26.623-13.923c.504 0 1.07.042 1.7.126a14.59 14.59 0 0 1 1.953.252 15.5 15.5 0 0 1 1.701.315c.546.084.945.168 1.197.252l-1.008 5.103c-.462-.168-1.24-.357-2.33-.567-1.05-.252-2.415-.378-4.095-.378-1.092 0-2.184.126-3.276.378l-2.08.44V628h-5.86v-31.374c1.386-.504 3.108-.966 5.166-1.386 2.058-.462 4.368-.693 6.93-.693z" class="B"/><path d="M729.213 37.06H532.96c-5.523 0-10 4.477-10 10v145.542a10 10 0 0 0 10 10h196.252a10 10 0 0 0 10-10V47.06c0-5.523-4.477-10-10-10z" class="J"/><path d="M729.213 39.06H532.96a8 8 0 0 0-8 8v145.542a8 8 0 0 0 8 8h196.252a8 8 0 0 0 8-8V47.06a8 8 0 0 0-8-8z" class="C F"/><path d="M605.048 94.547c6.035 0 10.664 1.157 13.888 3.472 3.265 2.274 4.898 5.684 4.898 10.23 0 2.48-.455 4.61-1.364 6.386-.868 1.736-2.15 3.162-3.844 4.278-1.653 1.075-3.68 1.86-6.076 2.356s-5.105.744-8.122.744h-4.774v15.934h-6.014V95.6c1.695-.413 3.575-.682 5.642-.806 2.108-.165 4.03-.248 5.766-.248zm.496 5.27c-2.563 0-4.526.062-5.9.186v16.864h4.526c2.067 0 3.927-.124 5.58-.372 1.653-.29 3.038-.744 4.154-1.364 1.157-.66 2.046-1.55 2.666-2.666s.93-2.542.93-4.278c0-1.653-.33-3.017-.992-4.092a6.7 6.7 0 0 0-2.604-2.542c-1.075-.66-2.335-1.116-3.782-1.364s-2.976-.372-4.588-.372zm61.095 16.616c0 3.72-.58 6.965-1.736 9.734-1.158 2.728-2.8 5.002-4.898 6.82-2.108 1.778-4.63 3.12-7.564 4.03-2.935.868-6.16 1.302-9.672 1.302-1.736 0-3.658-.082-5.766-.248-2.067-.124-3.948-.392-5.642-.806V95.6c1.694-.413 3.575-.682 5.642-.806 2.108-.165 4.03-.248 5.766-.248 3.513 0 6.737.455 9.672 1.364 2.934.868 5.456 2.21 7.564 4.03 2.108 1.778 3.74 4.05 4.898 6.82 1.157 2.728 1.736 5.952 1.736 9.672zm-23.374 16.616c5.704 0 9.96-1.446 12.772-4.34 2.8-2.934 4.216-7.026 4.216-12.276s-1.406-9.32-4.216-12.214c-2.81-2.934-7.068-4.402-12.772-4.402-1.695 0-3.018.02-3.968.062-.9.04-1.55.083-1.922.124v32.86c.372.042 1.012.083 1.922.124.95.042 2.273.062 3.968.062z" class="B"/><path d="M771.57 72.357H575.317c-5.523 0-10 4.477-10 10V227.9a10 10 0 0 0 10 10H771.57a10 10 0 0 0 10-10V82.357c0-5.523-4.477-10-10-10z" class="J"/><path d="M771.57 74.357H575.317a8 8 0 0 0-8 8V227.9a8 8 0 0 0 8 8H771.57a8 8 0 0 0 8-8V82.357a8 8 0 0 0-8-8z" class="C F"/><path d="M647.404 129.843c6.035 0 10.664 1.157 13.888 3.472 3.265 2.273 4.898 5.683 4.898 10.23 0 2.48-.455 4.61-1.364 6.386-.868 1.736-2.15 3.162-3.844 4.278-1.653 1.075-3.68 1.86-6.076 2.356s-5.105.744-8.122.744H642v15.934h-6.014v-42.346c1.695-.413 3.575-.682 5.642-.806 2.108-.165 4.03-.248 5.766-.248zm.496 5.27c-2.563 0-4.526.062-5.9.186v16.864h4.526c2.067 0 3.927-.124 5.58-.372 1.653-.29 3.038-.744 4.154-1.364 1.157-.66 2.046-1.55 2.666-2.666s.93-2.542.93-4.278c0-1.653-.33-3.017-.992-4.092-.62-1.075-1.488-1.922-2.604-2.542-1.075-.66-2.335-1.116-3.782-1.364s-2.976-.372-4.588-.372zm61.095 16.616c0 3.72-.58 6.965-1.736 9.734-1.158 2.728-2.8 5-4.898 6.82-2.108 1.777-4.63 3.12-7.564 4.03-2.935.868-6.16 1.302-9.672 1.302-1.736 0-3.658-.083-5.766-.248-2.067-.124-3.948-.393-5.642-.806v-41.664c1.694-.413 3.575-.682 5.642-.806 2.108-.165 4.03-.248 5.766-.248 3.513 0 6.737.455 9.672 1.364 2.934.868 5.456 2.21 7.564 4.03 2.108 1.777 3.74 4.05 4.898 6.82 1.157 2.728 1.736 5.952 1.736 9.672zm-23.374 16.616c5.704 0 9.96-1.447 12.772-4.34 2.8-2.935 4.216-7.027 4.216-12.276s-1.406-9.32-4.216-12.214c-2.81-2.935-7.068-4.402-12.772-4.402-1.695 0-3.018.02-3.968.062-.9.04-1.55.083-1.922.124v32.86c.372.04 1.012.083 1.922.124.95.04 2.273.062 3.968.062z" class="B"/><path d="M813.924 107.654H617.672a10 10 0 0 0-10 10v145.542a10 10 0 0 0 10 10h196.252a10 10 0 0 0 10-10V117.654a10 10 0 0 0-10-10z" class="J"/><path d="M813.924 109.654H617.672a8 8 0 0 0-8 8v145.542a8 8 0 0 0 8 8h196.252a8 8 0 0 0 8-8V117.654a8 8 0 0 0-8-8z" class="C F"/><path d="M689.76 165.14c6.035 0 10.664 1.157 13.888 3.472 3.265 2.273 4.898 5.683 4.898 10.23 0 2.48-.455 4.61-1.364 6.386-.868 1.736-2.15 3.162-3.844 4.278-1.653 1.075-3.68 1.86-6.076 2.356s-5.105.744-8.122.744h-4.774v15.934h-6.014v-42.346c1.695-.413 3.575-.682 5.642-.806 2.108-.165 4.03-.248 5.766-.248zm.496 5.27c-2.563 0-4.526.062-5.9.186v16.864h4.526c2.067 0 3.927-.124 5.58-.372 1.653-.29 3.038-.744 4.154-1.364 1.157-.66 2.046-1.55 2.666-2.666s.93-2.542.93-4.278c0-1.653-.33-3.017-.992-4.092-.62-1.075-1.488-1.922-2.604-2.542-1.075-.66-2.335-1.116-3.782-1.364s-2.976-.372-4.588-.372zm61.095 16.616c0 3.72-.58 6.965-1.736 9.734-1.158 2.728-2.8 5-4.898 6.82-2.108 1.777-4.63 3.12-7.564 4.03-2.935.868-6.16 1.302-9.672 1.302-1.736 0-3.658-.083-5.766-.248-2.067-.124-3.948-.393-5.642-.806v-41.664c1.694-.413 3.575-.682 5.642-.806 2.108-.165 4.03-.248 5.766-.248 3.513 0 6.737.455 9.672 1.364 2.934.868 5.456 2.21 7.564 4.03 2.108 1.777 3.74 4.05 4.898 6.82 1.157 2.728 1.736 5.952 1.736 9.672zm-23.374 16.616c5.704 0 9.96-1.447 12.772-4.34 2.8-2.935 4.216-7.027 4.216-12.276s-1.406-9.32-4.216-12.214c-2.81-2.935-7.068-4.402-12.772-4.402-1.695 0-3.018.02-3.968.062-.9.04-1.55.083-1.922.124v32.86c.372.04 1.012.083 1.922.124.95.04 2.273.062 3.968.062z" class="B"/><use xlink:href="#B" class="G"/><path d="M1249.75 317.04v5.124h-13.3v37.15h-5.92v-37.15h-13.3v-5.124h32.5zm11.55 42.273h-5.67v-31.72h5.67v31.72zm-2.86-37.454c-1.02 0-1.9-.325-2.63-.976-.7-.7-1.03-1.606-1.03-2.745s.34-2.033 1.03-2.684a3.71 3.71 0 0 1 2.63-1.037 3.5 3.5 0 0 1 2.56 1.037c.73.65 1.1 1.545 1.1 2.684s-.37 2.054-1.1 2.745c-.7.65-1.55.976-2.56.976zm31.16 38.37c-2.96 0-5.67-.488-8.1-1.464s-4.53-2.4-6.28-4.27-3.1-4.168-4.1-6.893c-.93-2.765-1.4-5.917-1.4-9.455s.53-6.67 1.58-9.394c1.1-2.765 2.57-5.083 4.4-6.954a18.42 18.42 0 0 1 6.4-4.27c2.44-.976 5.04-1.464 7.8-1.464 1.75 0 3.3.122 4.7.366 1.42.244 2.64.53 3.66.854 1.05.325 1.9.65 2.56.976l1.34.732-1.7 4.88c-.36-.244-.9-.508-1.58-.793l-2.38-.854a17.62 17.62 0 0 0-2.87-.671 15.82 15.82 0 0 0-3.1-.305c-2.24 0-4.25.386-6.04 1.16a12.67 12.67 0 0 0-4.58 3.355c-1.26 1.464-2.23 3.253-2.92 5.368-.65 2.074-.98 4.412-.98 7.015 0 2.52.3 4.82.85 6.893.6 2.074 1.5 3.863 2.7 5.368a12.1 12.1 0 0 0 4.39 3.416c1.8.813 3.86 1.22 6.22 1.22 2.73 0 4.98-.285 6.77-.854s3.14-1.078 4.03-1.525l1.52 4.88c-.28.203-.8.468-1.52.793-.73.285-1.65.57-2.75.854s-2.37.53-3.84.732c-1.46.203-3.05.305-4.76.305zm54.36-22.082c0 3.66-.57 6.852-1.7 9.577-1.13 2.684-2.74 4.92-4.82 6.7-2.07 1.75-4.55 3.07-7.44 3.965-2.88.854-6.06 1.28-9.5 1.28-1.7 0-3.6-.08-5.68-.244-2.03-.122-3.88-.386-5.55-.793V317.65c1.67-.407 3.52-.67 5.55-.793l5.68-.244c3.45 0 6.63.447 9.5 1.342 2.9.854 5.37 2.176 7.44 3.965 2.08 1.75 3.7 3.985 4.82 6.7 1.14 2.684 1.7 5.856 1.7 9.516zm-23 16.348c5.62 0 9.8-1.423 12.57-4.27 2.77-2.887 4.15-6.913 4.15-12.078s-1.38-9.17-4.15-12.017c-2.76-2.887-6.95-4.33-12.57-4.33-1.66 0-2.96.02-3.9.06-.9.04-1.52.08-1.9.122v32.33c.37.04 1 .08 1.9.122.94.04 2.24.06 3.9.06zm49.96 5.734c-2.97 0-5.68-.488-8.12-1.464s-4.53-2.4-6.28-4.27-3.1-4.168-4.1-6.893c-.93-2.765-1.4-5.917-1.4-9.455s.53-6.67 1.6-9.394c1.1-2.765 2.56-5.083 4.4-6.954a18.42 18.42 0 0 1 6.4-4.27c2.44-.976 5.05-1.464 7.8-1.464 1.75 0 3.32.122 4.7.366 1.42.244 2.64.53 3.66.854 1.06.325 1.9.65 2.56.976s1.1.57 1.34.732l-1.7 4.88c-.37-.244-.9-.508-1.6-.793s-1.5-.57-2.38-.854c-.85-.285-1.8-.508-2.87-.67a15.77 15.77 0 0 0-3.11-.305c-2.23 0-4.25.386-6.04 1.16a12.55 12.55 0 0 0-4.57 3.355c-1.27 1.465-2.24 3.253-2.93 5.368-.65 2.074-.98 4.412-.98 7.015 0 2.52.3 4.82.86 6.893.6 2.074 1.5 3.863 2.68 5.368 1.18 1.464 2.65 2.603 4.4 3.416 1.8.813 3.87 1.22 6.23 1.22 2.72 0 4.98-.285 6.77-.854s3.13-1.078 4.02-1.525l1.53 4.88c-.3.203-.8.468-1.53.793-.73.285-1.64.57-2.74.854s-2.38.53-3.84.732c-1.47.203-3.05.305-4.76.305zm396.24-99.035H1484.8v95.3h282.37v-95.3z" class="B"/><path d="M1765.16 263.194H1486.8v91.3h278.37v-91.3z" class="C D"/><path d="M1797.16 292.96H1514.8v95.3h282.37v-95.3z" class="B"/><path d="M1795.16 294.96H1516.8v91.3h278.37v-91.3z" class="C D"/><path d="M1827.16 330.022H1544.8v95.3h282.37v-95.3z" class="B"/><path d="M1825.16 332.022H1546.8v91.3h278.37v-91.3z" class="C D"/><path d="M1633.13 357.327v4.284H1622v31.06h-4.95v-31.06h-11.1v-4.284h27.18zm11.6 31.926l2.96-.05c.88-.068 1.6-.17 2.2-.306v-7.905c-.34-.17-.9-.306-1.68-.408-.75-.136-1.67-.204-2.75-.204-.72 0-1.48.05-2.3.153-.78.102-1.5.323-2.2.663a4.35 4.35 0 0 0-1.63 1.326c-.45.544-.67 1.275-.67 2.193 0 1.7.55 2.9 1.63 3.57 1.1.646 2.57.97 4.44.97zm-.4-23.766c1.9 0 3.5.255 4.8.765 1.32.476 2.38 1.173 3.16 2.09.82.884 1.4 1.955 1.73 3.213.34 1.224.5 2.584.5 4.08v16.575l-1.73.306-2.45.306-3 .255-3.16.153c-1.5 0-2.87-.153-4.13-.46s-2.35-.782-3.26-1.428c-.92-.68-1.64-1.564-2.15-2.652s-.76-2.397-.76-3.927c0-1.462.3-2.72.87-3.774.6-1.054 1.42-1.904 2.44-2.55s2.2-1.122 3.57-1.428 2.8-.46 4.3-.46c.47 0 .97.034 1.48.102.5.034.98.102 1.42.204l1.23.204.7.153v-1.326a10.32 10.32 0 0 0-.25-2.295c-.17-.782-.48-1.462-.92-2.04-.44-.612-1.05-1.088-1.84-1.428-.74-.374-1.73-.56-2.95-.56-1.57 0-2.95.12-4.14.357-1.15.204-2.02.425-2.6.663l-.56-3.927c.6-.272 1.63-.527 3.06-.765 1.43-.272 2.98-.408 4.64-.408zm22.82 1.836c.58-.374 1.45-.765 2.6-1.173 1.2-.408 2.55-.612 4.08-.612 1.9 0 3.58.34 5.04 1.02 1.5.68 2.76 1.632 3.78 2.856s1.78 2.686 2.3 4.386c.55 1.7.82 3.57.82 5.6 0 2.142-.32 4.08-.97 5.814-.6 1.7-1.5 3.145-2.65 4.335-1.16 1.2-2.55 2.108-4.18 2.754-1.64.646-3.47.97-5.5.97-2.2 0-4.17-.153-5.87-.46l-4.18-.918V353.9l4.74-.816v14.23zm0 21.216c.48.136 1.14.272 2 .408.9.102 1.98.153 3.27.153 2.55 0 4.6-.833 6.12-2.5 1.53-1.7 2.3-4.097 2.3-7.19 0-1.36-.13-2.635-.4-3.825-.27-1.2-.7-2.2-1.32-3.06a6.04 6.04 0 0 0-2.4-2.04c-.95-.5-2.1-.765-3.47-.765-1.3 0-2.48.22-3.57.663-1.08.442-1.92.9-2.5 1.377v16.78zm33.25 4.64c-2.92-.068-5-.697-6.22-1.887-1.23-1.2-1.84-3.043-1.84-5.56V353.9l4.74-.816v31.875c0 .782.07 1.428.2 1.938.13.5.36.918.66 1.224.3.306.72.544 1.23.714.5.136 1.13.255 1.88.357l-.66 3.978zm4.5-13.72c0-2.346.34-4.386 1.02-6.12.68-1.768 1.58-3.23 2.7-4.386a10.99 10.99 0 0 1 3.88-2.601 12.11 12.11 0 0 1 4.49-.867c3.57 0 6.3 1.122 8.2 3.366 1.9 2.2 2.85 5.593 2.85 10.15v.816c0 .306-.01.595-.05.867h-18.15c.2 2.754 1 4.845 2.4 6.273 1.4 1.428 3.57 2.142 6.53 2.142 1.67 0 3.06-.136 4.18-.408 1.16-.306 2.03-.595 2.6-.867l.67 3.978c-.58.306-1.6.63-3.06.97-1.43.34-3.06.5-4.9.5-2.3 0-4.32-.34-6.02-1.02-1.66-.714-3.04-1.683-4.13-2.907s-1.9-2.67-2.45-4.335c-.5-1.7-.76-3.553-.76-5.56zm18.2-2.6c.03-2.142-.5-3.893-1.64-5.253-1.08-1.394-2.6-2.09-4.53-2.09-1.1 0-2.06.22-2.9.663a6.54 6.54 0 0 0-2.09 1.632c-.58.68-1.04 1.462-1.38 2.346-.3.884-.5 1.785-.6 2.703h13.16z" class="H"/><use xlink:href="#B" y="351.2" class="G"/><path d="M1249.75 668.24v5.124h-13.3v37.15h-5.92v-37.15h-13.3v-5.124h32.5zm11.55 42.273h-5.67v-31.72h5.67v31.72zm-2.86-37.454c-1.02 0-1.9-.325-2.63-.976-.7-.7-1.03-1.606-1.03-2.745s.34-2.033 1.03-2.684a3.71 3.71 0 0 1 2.63-1.037 3.5 3.5 0 0 1 2.56 1.037c.73.65 1.1 1.545 1.1 2.684s-.37 2.054-1.1 2.745c-.7.65-1.55.976-2.56.976zm31.16 38.37c-2.96 0-5.67-.488-8.1-1.464s-4.53-2.4-6.28-4.27-3.1-4.168-4.1-6.893c-.93-2.765-1.4-5.917-1.4-9.455s.53-6.67 1.58-9.394c1.1-2.765 2.57-5.083 4.4-6.954a18.42 18.42 0 0 1 6.4-4.27c2.44-.976 5.04-1.464 7.8-1.464 1.75 0 3.3.122 4.7.366 1.42.244 2.64.53 3.66.854 1.05.325 1.9.65 2.56.976l1.34.732-1.7 4.88c-.36-.244-.9-.508-1.58-.793l-2.38-.854a17.62 17.62 0 0 0-2.87-.671 15.82 15.82 0 0 0-3.1-.305c-2.24 0-4.25.386-6.04 1.16a12.67 12.67 0 0 0-4.58 3.355c-1.26 1.464-2.23 3.253-2.92 5.368-.65 2.074-.98 4.412-.98 7.015 0 2.52.3 4.82.85 6.893.6 2.074 1.5 3.863 2.7 5.368a12.1 12.1 0 0 0 4.39 3.416c1.8.813 3.86 1.22 6.22 1.22 2.73 0 4.98-.285 6.77-.854s3.14-1.078 4.03-1.525l1.52 4.88c-.28.203-.8.468-1.52.793-.73.285-1.65.57-2.75.854s-2.37.53-3.84.732c-1.46.203-3.05.305-4.76.305zm54.36-22.082c0 3.66-.57 6.852-1.7 9.577-1.13 2.684-2.74 4.92-4.82 6.7-2.07 1.75-4.55 3.07-7.44 3.965-2.88.854-6.06 1.28-9.5 1.28-1.7 0-3.6-.08-5.68-.244-2.03-.122-3.88-.386-5.55-.793V668.85c1.67-.407 3.52-.67 5.55-.793l5.68-.244c3.45 0 6.63.447 9.5 1.342 2.9.854 5.37 2.176 7.44 3.965 2.08 1.75 3.7 3.985 4.82 6.7 1.14 2.684 1.7 5.856 1.7 9.516zm-23 16.348c5.62 0 9.8-1.423 12.57-4.27 2.77-2.887 4.15-6.913 4.15-12.078s-1.38-9.17-4.15-12.017c-2.76-2.887-6.95-4.33-12.57-4.33-1.66 0-2.96.02-3.9.06-.9.04-1.52.08-1.9.122v32.33c.37.04 1 .08 1.9.122.94.04 2.24.06 3.9.06zm49.96 5.734c-2.97 0-5.68-.488-8.12-1.464s-4.53-2.4-6.28-4.27-3.1-4.168-4.1-6.893c-.93-2.765-1.4-5.917-1.4-9.455s.53-6.67 1.6-9.394c1.1-2.765 2.56-5.083 4.4-6.954a18.42 18.42 0 0 1 6.4-4.27c2.44-.976 5.05-1.464 7.8-1.464 1.75 0 3.32.122 4.7.366 1.42.244 2.64.53 3.66.854 1.06.325 1.9.65 2.56.976s1.1.57 1.34.732l-1.7 4.88c-.37-.244-.9-.508-1.6-.793s-1.5-.57-2.38-.854c-.85-.285-1.8-.508-2.87-.67a15.77 15.77 0 0 0-3.11-.305c-2.23 0-4.25.386-6.04 1.16a12.55 12.55 0 0 0-4.57 3.355c-1.27 1.465-2.24 3.253-2.93 5.368-.65 2.074-.98 4.412-.98 7.015 0 2.52.3 4.82.86 6.893.6 2.074 1.5 3.863 2.68 5.368 1.18 1.464 2.65 2.603 4.4 3.416 1.8.813 3.87 1.22 6.23 1.22 2.72 0 4.98-.285 6.77-.854s3.13-1.078 4.02-1.525l1.53 4.88c-.3.203-.8.468-1.53.793-.73.285-1.64.57-2.74.854s-2.38.53-3.84.732c-1.47.203-3.05.305-4.76.305zm396.24-99.036H1484.8v95.3h282.37v-95.3z" class="B"/><path d="M1765.16 614.393H1486.8v91.3h278.37v-91.3z" class="C D"/><path d="M1797.16 644.16H1514.8v95.3h282.37v-95.3z" class="B"/><path d="M1795.16 646.16H1516.8v91.3h278.37v-91.3z" class="C D"/><path d="M1827.16 681.22H1544.8v95.3h282.37v-95.3z" class="B"/><path d="M1825.16 683.22H1546.8v91.3h278.37v-91.3z" class="C D"/><path d="M1633.13 708.527v4.284H1622v31.06h-4.95v-31.06h-11.1v-4.284h27.18zm11.6 31.926l2.96-.05c.88-.068 1.6-.17 2.2-.306v-7.905c-.34-.17-.9-.306-1.68-.408-.75-.136-1.67-.204-2.75-.204-.72 0-1.48.05-2.3.153-.78.102-1.5.323-2.2.663a4.35 4.35 0 0 0-1.63 1.326c-.45.544-.67 1.275-.67 2.193 0 1.7.55 2.9 1.63 3.57 1.1.646 2.57.97 4.44.97zm-.4-23.766c1.9 0 3.5.255 4.8.765 1.32.476 2.38 1.173 3.16 2.09.82.884 1.4 1.955 1.73 3.213.34 1.224.5 2.584.5 4.08v16.575l-1.73.306-2.45.306-3 .255-3.16.153c-1.5 0-2.87-.153-4.13-.46s-2.35-.782-3.26-1.428c-.92-.68-1.64-1.564-2.15-2.652s-.76-2.397-.76-3.927c0-1.462.3-2.72.87-3.774.6-1.054 1.42-1.904 2.44-2.55s2.2-1.122 3.57-1.428 2.8-.46 4.3-.46c.47 0 .97.034 1.48.102.5.034.98.102 1.42.204l1.23.204.7.153v-1.326a10.32 10.32 0 0 0-.25-2.295c-.17-.782-.48-1.462-.92-2.04-.44-.612-1.05-1.088-1.84-1.428-.74-.374-1.73-.56-2.95-.56-1.57 0-2.95.12-4.14.357-1.15.204-2.02.425-2.6.663l-.56-3.927c.6-.272 1.63-.527 3.06-.765 1.43-.272 2.98-.408 4.64-.408zm22.82 1.836c.58-.374 1.45-.765 2.6-1.173 1.2-.408 2.55-.612 4.08-.612 1.9 0 3.58.34 5.04 1.02 1.5.68 2.76 1.632 3.78 2.856s1.78 2.686 2.3 4.386c.55 1.7.82 3.57.82 5.6 0 2.142-.32 4.08-.97 5.814-.6 1.7-1.5 3.145-2.65 4.335-1.16 1.2-2.55 2.108-4.18 2.754-1.64.646-3.47.97-5.5.97-2.2 0-4.17-.153-5.87-.46l-4.18-.918V705.1l4.74-.816v14.23zm0 21.216c.48.136 1.14.272 2 .408.9.102 1.98.153 3.27.153 2.55 0 4.6-.833 6.12-2.5 1.53-1.7 2.3-4.097 2.3-7.19 0-1.36-.13-2.635-.4-3.825-.27-1.2-.7-2.2-1.32-3.06a6.04 6.04 0 0 0-2.4-2.04c-.95-.5-2.1-.765-3.47-.765-1.3 0-2.48.22-3.57.663-1.08.442-1.92.9-2.5 1.377v16.78zm33.25 4.64c-2.92-.068-5-.697-6.22-1.887-1.23-1.2-1.84-3.043-1.84-5.56V705.1l4.74-.816v31.875c0 .782.07 1.428.2 1.938.13.5.36.918.66 1.224.3.306.72.544 1.23.714.5.136 1.13.255 1.88.357l-.66 3.978zm4.5-13.72c0-2.346.34-4.386 1.02-6.12.68-1.768 1.58-3.23 2.7-4.386a10.99 10.99 0 0 1 3.88-2.601 12.11 12.11 0 0 1 4.49-.867c3.57 0 6.3 1.122 8.2 3.366 1.9 2.2 2.85 5.593 2.85 10.15v.816c0 .306-.01.595-.05.867h-18.15c.2 2.754 1 4.845 2.4 6.273 1.4 1.428 3.57 2.142 6.53 2.142 1.67 0 3.06-.136 4.18-.408 1.16-.306 2.03-.595 2.6-.867l.67 3.978c-.58.306-1.6.63-3.06.97-1.43.34-3.06.5-4.9.5-2.3 0-4.32-.34-6.02-1.02-1.66-.714-3.04-1.683-4.13-2.907s-1.9-2.67-2.45-4.335c-.5-1.7-.76-3.553-.76-5.56zm18.2-2.6c.03-2.142-.5-3.893-1.64-5.253-1.08-1.394-2.6-2.09-4.53-2.09-1.1 0-2.06.22-2.9.663a6.54 6.54 0 0 0-2.09 1.632c-.58.68-1.04 1.462-1.38 2.346-.3.884-.5 1.785-.6 2.703h13.16z" class="H"/><path d="M1857.76 915.943h-685.93c-5.53 0-10 4.477-10 10v235.897a10 10 0 0 0 10 10h685.93c5.52 0 10-4.48 10-10V925.943c0-5.523-4.48-10-10-10z" class="G"/><path d="M1249.75 1019.44v5.12h-13.3v37.15h-5.92v-37.15h-13.3v-5.12h32.5zm11.55 42.27h-5.67V1030h5.67v31.72zm-2.86-37.45c-1.02 0-1.9-.33-2.63-.98-.7-.7-1.03-1.6-1.03-2.74s.34-2.03 1.03-2.7a3.71 3.71 0 0 1 2.63-1.03c1 0 1.87.34 2.56 1.03.73.66 1.1 1.55 1.1 2.7s-.37 2.05-1.1 2.74c-.7.65-1.55.98-2.56.98zm31.16 38.37c-2.96 0-5.67-.5-8.1-1.47a17.19 17.19 0 0 1-6.28-4.27c-1.75-1.87-3.1-4.16-4.1-6.9-.93-2.76-1.4-5.92-1.4-9.45 0-3.54.53-6.67 1.58-9.4 1.1-2.76 2.57-5.08 4.4-6.95a18.35 18.35 0 0 1 6.4-4.27c2.44-.98 5.04-1.47 7.8-1.47 1.75 0 3.3.13 4.7.37 1.42.24 2.64.53 3.66.85 1.05.33 1.9.66 2.56.98l1.34.73-1.7 4.88c-.36-.24-.9-.5-1.58-.8l-2.38-.85c-.86-.3-1.8-.5-2.87-.68-1.02-.2-2.05-.3-3.1-.3-2.24 0-4.25.4-6.04 1.16s-3.3 1.9-4.58 3.35c-1.26 1.47-2.23 3.26-2.92 5.37-.65 2.08-.98 4.4-.98 7.02 0 2.52.3 4.82.85 6.9.6 2.07 1.5 3.86 2.7 5.37 1.18 1.46 2.64 2.6 4.4 3.4 1.8.82 3.86 1.22 6.22 1.22 2.73 0 4.98-.28 6.77-.85s3.14-1.08 4.03-1.53l1.52 4.88c-.28.2-.8.47-1.52.8-.73.28-1.65.57-2.75.85-1.1.3-2.37.53-3.84.73-1.46.2-3.05.3-4.76.3zm54.36-22.08c0 3.66-.57 6.85-1.7 9.57-1.13 2.7-2.74 4.92-4.82 6.7-2.07 1.75-4.55 3.07-7.44 3.97-2.88.85-6.06 1.28-9.5 1.28-1.7 0-3.6-.08-5.68-.24-2.03-.13-3.88-.4-5.55-.8v-41c1.67-.4 3.52-.67 5.55-.8l5.68-.25c3.45 0 6.63.45 9.5 1.35 2.9.85 5.37 2.17 7.44 3.96 2.08 1.75 3.7 4 4.82 6.7 1.14 2.68 1.7 5.86 1.7 9.52zm-23 16.34c5.62 0 9.8-1.42 12.57-4.27 2.77-2.88 4.15-6.9 4.15-12.07s-1.38-9.17-4.15-12.02c-2.76-2.9-6.95-4.33-12.57-4.33-1.66 0-2.96.02-3.9.06-.9.04-1.52.08-1.9.12v32.33a34.6 34.6 0 0 0 1.9.12c.94.04 2.24.06 3.9.06zm49.96 5.74c-2.97 0-5.68-.5-8.12-1.47a17.19 17.19 0 0 1-6.28-4.27c-1.75-1.87-3.1-4.16-4.1-6.9-.93-2.76-1.4-5.92-1.4-9.45 0-3.54.53-6.67 1.6-9.4 1.1-2.76 2.56-5.08 4.4-6.95a18.35 18.35 0 0 1 6.4-4.27c2.44-.98 5.05-1.47 7.8-1.47 1.75 0 3.32.13 4.7.37 1.42.24 2.64.53 3.66.85 1.06.33 1.9.66 2.56.98.65.33 1.1.57 1.34.73l-1.7 4.88c-.37-.24-.9-.5-1.6-.8s-1.5-.57-2.38-.85c-.85-.3-1.8-.5-2.87-.68a16 16 0 0 0-3.11-.3c-2.23 0-4.25.4-6.04 1.16s-3.3 1.9-4.57 3.35c-1.26 1.47-2.24 3.26-2.93 5.37-.65 2.08-.98 4.4-.98 7.02 0 2.52.3 4.82.86 6.9.6 2.07 1.5 3.86 2.68 5.37a12.18 12.18 0 0 0 4.39 3.41c1.8.82 3.87 1.22 6.23 1.22 2.72 0 4.98-.28 6.77-.85s3.13-1.08 4.02-1.53l1.53 4.88c-.3.2-.8.47-1.53.8-.73.28-1.64.57-2.74.85-1.1.3-2.38.53-3.84.73-1.47.2-3.05.3-4.76.3zm396.24-99.037H1484.8v95.297h282.37v-95.297z" class="B"/><path d="M1765.16 965.593H1486.8v91.297h278.37v-91.297z" class="C D"/><path d="M1797.16 995.36H1514.8v95.3h282.37v-95.3z" class="B"/><path d="M1795.16 997.36H1516.8v91.3h278.37v-91.3z" class="C D"/><path d="M1827.16 1032.42H1544.8v95.3h282.37v-95.3z" class="B"/><path d="M1825.16 1034.42H1546.8v91.3h278.37v-91.3z" class="C D"/><path d="M1633.13 1059.73v4.28H1622v31.06h-4.95V1064h-11.1v-4.28h27.18zm11.6 31.92l2.96-.05c.88-.07 1.6-.17 2.2-.3v-7.9c-.34-.17-.9-.3-1.68-.4-.75-.13-1.67-.2-2.75-.2a18.98 18.98 0 0 0-2.3.15 6.79 6.79 0 0 0-2.19.66 4.38 4.38 0 0 0-1.63 1.33c-.45.54-.67 1.27-.67 2.2 0 1.7.55 2.9 1.63 3.57 1.1.65 2.57.97 4.44.97zm-.4-23.76c1.9 0 3.5.25 4.8.76 1.32.48 2.38 1.17 3.16 2.1.82.9 1.4 1.96 1.73 3.2.34 1.23.5 2.6.5 4.08v16.58l-1.73.3-2.45.3-3 .26-3.16.15c-1.5 0-2.87-.15-4.13-.46s-2.35-.78-3.26-1.43c-.92-.68-1.64-1.56-2.15-2.65s-.76-2.4-.76-3.93c0-1.46.3-2.72.87-3.77.6-1.05 1.42-1.9 2.44-2.55s2.2-1.12 3.57-1.43c1.36-.3 2.8-.46 4.3-.46.47 0 .97.04 1.48.1.5.04.98.1 1.42.2l1.23.2.7.16v-1.33a10.39 10.39 0 0 0-.25-2.3c-.17-.78-.48-1.46-.92-2.04-.44-.6-1.05-1.08-1.84-1.42-.74-.38-1.73-.56-2.95-.56-1.57 0-2.95.1-4.14.35-1.15.2-2.02.43-2.6.67l-.56-3.93c.6-.27 1.63-.53 3.06-.77 1.43-.27 2.98-.4 4.64-.4zm22.82 1.83c.58-.37 1.45-.76 2.6-1.17 1.2-.4 2.55-.6 4.08-.6 1.9 0 3.58.34 5.04 1.02 1.5.68 2.76 1.63 3.78 2.85 1.02 1.23 1.78 2.7 2.3 4.4.55 1.7.82 3.57.82 5.6 0 2.14-.32 4.08-.97 5.8-.6 1.7-1.5 3.15-2.65 4.34-1.16 1.2-2.55 2.1-4.18 2.75-1.64.65-3.47.97-5.5.97-2.2 0-4.17-.15-5.87-.46l-4.18-.92v-38l4.74-.82v14.23zm0 21.22c.48.13 1.14.27 2 .4.9.1 1.98.15 3.27.15 2.55 0 4.6-.83 6.12-2.5 1.53-1.7 2.3-4.1 2.3-7.2 0-1.36-.13-2.64-.4-3.83-.27-1.2-.7-2.2-1.32-3.06-.6-.88-1.4-1.56-2.4-2.04-.95-.5-2.1-.76-3.47-.76-1.3 0-2.48.22-3.57.66-1.08.44-1.92.9-2.5 1.38v16.78zm33.25 4.64c-2.92-.07-5-.7-6.22-1.9-1.23-1.2-1.84-3.04-1.84-5.56v-31.82l4.74-.82v31.88c0 .78.07 1.43.2 1.94a2.66 2.66 0 0 0 .66 1.22c.3.3.72.54 1.23.7.5.14 1.13.26 1.88.36l-.66 3.98zm4.5-13.72c0-2.35.34-4.4 1.02-6.12.68-1.77 1.58-3.23 2.7-4.4 1.12-1.15 2.42-2.02 3.88-2.6a12.06 12.06 0 0 1 4.49-.86c3.57 0 6.3 1.12 8.2 3.36 1.9 2.2 2.85 5.6 2.85 10.15v.82a5.94 5.94 0 0 1-.05.86h-18.15c.2 2.76 1 4.85 2.4 6.28 1.4 1.42 3.57 2.14 6.53 2.14 1.67 0 3.06-.14 4.18-.4 1.16-.3 2.03-.6 2.6-.87l.67 3.98c-.58.3-1.6.63-3.06.97-1.43.34-3.06.5-4.9.5-2.3 0-4.32-.34-6.02-1.02-1.66-.7-3.04-1.68-4.13-2.9-1.1-1.22-1.9-2.67-2.45-4.33-.5-1.7-.76-3.55-.76-5.56zm18.2-2.6c.03-2.14-.5-3.9-1.64-5.25-1.08-1.4-2.6-2.1-4.53-2.1-1.1 0-2.06.23-2.9.67-.82.4-1.5.95-2.1 1.63s-1.04 1.46-1.38 2.35c-.3.88-.5 1.78-.6 2.7h13.16z" class="H"/><path d="M1857.76 1267.14h-685.93a10 10 0 0 0-10 10v235.9a10 10 0 0 0 10 10h685.93c5.52 0 10-4.48 10-10v-235.9c0-5.52-4.48-10-10-10z" class="G"/><path d="M1250.58 1410.57c0 1.1-.37 2.08-1.1 2.9-.75.83-1.76 1.24-3.04 1.24s-2.3-.4-3.04-1.24-1.12-1.8-1.12-2.9a4.25 4.25 0 0 1 1.12-2.92c.74-.83 1.76-1.24 3.04-1.24s2.3.4 3.04 1.24a4.24 4.24 0 0 1 1.11 2.92zm20.65 0c0 1.1-.37 2.08-1.12 2.9-.74.83-1.76 1.24-3.04 1.24s-2.3-.4-3.03-1.24c-.75-.83-1.12-1.8-1.12-2.9 0-1.12.37-2.1 1.12-2.92.74-.83 1.75-1.24 3.03-1.24s2.3.4 3.04 1.24c.75.83 1.12 1.8 1.12 2.92zm20.64 0c0 1.1-.37 2.08-1.1 2.9-.75.83-1.76 1.24-3.04 1.24s-2.3-.4-3.04-1.24c-.74-.83-1.1-1.8-1.1-2.9a4.24 4.24 0 0 1 1.11-2.92c.75-.83 1.76-1.24 3.04-1.24s2.3.4 3.04 1.24a4.24 4.24 0 0 1 1.11 2.92z" class="B"/><path d="M1938.94 2H1097.7a8.01 8.01 0 0 0-8 8v1566.57c0 4.42 3.6 8 8 8h841.24a8 8 0 0 0 8-8V10a8 8 0 0 0-8-8z" stroke="#707070" stroke-dasharray="12 12" class="C"/><path d="M1196.36 45.566v5.208h-13.5v37.758h-6.02V50.774h-13.5v-5.208h33.04zm11.75 42.966h-5.77v-32.24h5.77v32.24zm-2.92-38.068c-1.03 0-1.92-.33-2.66-.992-.7-.703-1.06-1.633-1.06-2.8s.35-2.067 1.06-2.728a3.73 3.73 0 0 1 2.66-1.054 3.55 3.55 0 0 1 2.61 1.054c.74.66 1.1 1.57 1.1 2.728s-.37 2.087-1.1 2.8c-.7.66-1.57.992-2.6.992zm31.68 38.998c-3.02 0-5.77-.496-8.25-1.488s-4.6-2.44-6.38-4.34-3.16-4.237-4.16-7.006c-.95-2.81-1.42-6.014-1.42-9.6s.54-6.78 1.6-9.548c1.12-2.81 2.6-5.167 4.46-7.068s4.03-3.348 6.5-4.34 5.13-1.488 7.94-1.488c1.78 0 3.37.124 4.77.372 1.45.248 2.7.537 3.72.868 1.08.33 1.95.66 2.6.992l1.36.744-1.73 4.96c-.38-.248-.9-.517-1.62-.806l-2.4-.868c-.87-.29-1.84-.517-2.92-.682-1.03-.207-2.08-.3-3.16-.3-2.27 0-4.32.393-6.14 1.178s-3.37 1.922-4.65 3.4-2.27 3.307-2.97 5.456c-.66 2.108-1 4.485-1 7.13 0 2.563.3 4.898.87 7.006.62 2.108 1.53 3.927 2.73 5.456 1.2 1.488 2.7 2.645 4.46 3.472 1.82.827 3.93 1.24 6.33 1.24 2.77 0 5.06-.29 6.88-.868s3.18-1.095 4.1-1.55l1.55 4.96c-.3.207-.8.475-1.55.806-.74.29-1.67.58-2.8.868-1.1.29-2.42.537-3.9.744-1.5.207-3.1.3-4.84.3zm55.25-22.444c0 3.72-.58 6.965-1.74 9.734-1.15 2.728-2.8 5-4.9 6.82-2.1 1.777-4.63 3.12-7.57 4.03-2.93.868-6.16 1.302-9.67 1.302-1.74 0-3.66-.083-5.77-.248-2.06-.124-3.94-.393-5.64-.806V46.186c1.7-.413 3.58-.682 5.64-.806l5.77-.248c3.5 0 6.74.455 9.67 1.364 2.94.868 5.46 2.21 7.57 4.03 2.1 1.777 3.74 4.05 4.9 6.82 1.16 2.728 1.74 5.952 1.74 9.672zm-23.37 16.616c5.7 0 9.96-1.447 12.77-4.34 2.8-2.935 4.2-7.027 4.2-12.276s-1.4-9.32-4.2-12.214c-2.8-2.935-7.07-4.402-12.77-4.402-1.7 0-3.02.02-3.97.062-.9.04-1.55.083-1.92.124v32.86c.37.04 1 .083 1.92.124.95.04 2.27.062 3.97.062zm50.77 5.828c-3.02 0-5.77-.496-8.25-1.488s-4.6-2.44-6.4-4.34c-1.77-1.9-3.16-4.237-4.15-7.006-.95-2.81-1.43-6.014-1.43-9.6s.54-6.78 1.62-9.548c1.1-2.81 2.6-5.167 4.46-7.068s4.03-3.348 6.5-4.34 5.13-1.488 7.94-1.488c1.77 0 3.37.124 4.77.372 1.45.248 2.7.537 3.72.868 1.08.33 1.94.66 2.6.992.67.33 1.12.58 1.37.744l-1.74 4.96c-.37-.248-.9-.517-1.6-.806s-1.5-.58-2.42-.868c-.87-.29-1.84-.517-2.9-.682a16.08 16.08 0 0 0-3.16-.31c-2.28 0-4.32.393-6.14 1.178s-3.37 1.922-4.65 3.4-2.27 3.307-2.98 5.456c-.66 2.108-1 4.485-1 7.13 0 2.563.3 4.898.87 7.006.62 2.108 1.53 3.927 2.73 5.456a12.29 12.29 0 0 0 4.46 3.472c1.82.827 3.93 1.24 6.32 1.24 2.77 0 5.07-.29 6.9-.868s3.18-1.095 4.1-1.55l1.55 4.96c-.3.207-.8.475-1.55.806-.75.29-1.68.58-2.8.868-1.12.29-2.42.537-3.9.744s-3.1.3-4.83.3zm47.96-.186c-2.6 0-4.9-.413-6.88-1.24-1.95-.827-3.6-1.984-4.96-3.472-1.33-1.488-2.32-3.245-2.98-5.27-.66-2.067-1-4.34-1-6.82s.35-4.753 1.05-6.82c.75-2.067 1.78-3.844 3.1-5.332 1.32-1.53 2.94-2.707 4.84-3.534 1.94-.868 4.1-1.302 6.45-1.302a25.73 25.73 0 0 1 4.34.372 20 20 0 0 1 4.15 1.178l-1.3 4.898c-.87-.413-1.88-.744-3.04-.992-1.12-.248-2.3-.372-3.6-.372-3.22 0-5.7 1.013-7.44 3.038-1.7 2.025-2.54 4.98-2.54 8.866 0 1.736.2 3.327.56 4.774.4 1.447 1.03 2.687 1.86 3.72.87 1.033 1.96 1.84 3.3 2.418 1.32.537 2.93.806 4.83.806 1.53 0 2.92-.145 4.16-.434s2.2-.6 2.9-.93l.8 4.836c-.33.207-.8.413-1.43.62a20.63 20.63 0 0 1-2.11.434c-.78.165-1.63.29-2.54.372a18.03 18.03 0 0 1-2.54.186zm24.48-.124c-3.56-.083-6.08-.847-7.57-2.294-1.48-1.447-2.23-3.7-2.23-6.758V41.412l5.77-.992v38.75c0 .95.08 1.736.25 2.356.16.62.43 1.116.8 1.488s.87.66 1.5.868c.62.165 1.38.3 2.3.434l-.8 4.836zm32.95-1.55c-1.33.33-3.08.682-5.27 1.054-2.15.372-4.65.558-7.5.558-2.48 0-4.57-.35-6.27-1.054-1.7-.744-3.06-1.777-4.1-3.1s-1.78-2.873-2.23-4.65c-.46-1.82-.68-3.823-.68-6.014V56.292h5.76v16.864c0 3.927.62 6.737 1.86 8.432s3.33 2.542 6.27 2.542c.62 0 1.26-.02 1.92-.062l1.86-.124c.58-.083 1.1-.145 1.55-.186.5-.083.84-.165 1.05-.248V56.292h5.77v31.3zm17.43-3.224c2.36 0 4.1-.3 5.2-.93 1.16-.62 1.74-1.612 1.74-2.976 0-1.405-.56-2.52-1.68-3.348-1.1-.827-2.95-1.757-5.52-2.8l-3.6-1.488c-1.12-.537-2.1-1.157-2.92-1.86-.82-.703-1.48-1.55-1.98-2.542s-.74-2.21-.74-3.658c0-2.852 1.05-5.105 3.16-6.758 2.1-1.695 4.98-2.542 8.62-2.542a19.94 19.94 0 0 1 2.72.186c.9.083 1.76.207 2.55.372.78.124 1.46.27 2.04.434.62.165 1.1.3 1.43.434l-1.06 4.96c-.62-.33-1.6-.66-2.9-.992-1.32-.372-2.9-.558-4.77-.558-1.62 0-3.02.33-4.22.992-1.2.62-1.8 1.612-1.8 2.976 0 .703.13 1.323.37 1.86.3.537.7 1.033 1.24 1.488.58.413 1.3.806 2.1 1.178.83.372 1.82.765 2.98 1.178 1.53.58 2.9 1.157 4.1 1.736 1.2.537 2.2 1.178 3.04 1.922a7.19 7.19 0 0 1 1.98 2.728c.46 1.033.68 2.315.68 3.844 0 2.976-1.1 5.23-3.34 6.758-2.2 1.53-5.34 2.294-9.43 2.294-2.85 0-5.08-.248-6.7-.744-1.62-.455-2.7-.806-3.3-1.054l1.05-4.96c.67.248 1.72.62 3.17 1.116 1.44.496 3.37.744 5.76.744zm25.56-28.086h12.22v4.836h-12.22v14.88c0 1.612.13 2.955.38 4.03.24 1.033.62 1.86 1.1 2.48.5.58 1.12.992 1.86 1.24.75.248 1.6.372 2.6.372 1.73 0 3.12-.186 4.15-.558l2.23-.868 1.12 4.774c-.58.29-1.6.64-3.04 1.054-1.45.455-3.1.682-4.96.682-2.2 0-4-.27-5.46-.806-1.4-.58-2.54-1.426-3.4-2.542-.86-1.116-1.48-2.48-1.86-4.092-.33-1.653-.5-3.555-.5-5.704V47.302l5.76-.992v9.982zm17.15 16.182c0-2.852.42-5.332 1.24-7.44.83-2.15 1.92-3.927 3.3-5.332 1.36-1.405 2.93-2.46 4.7-3.162a14.75 14.75 0 0 1 5.46-1.054c4.34 0 7.66 1.364 9.98 4.092 2.3 2.687 3.47 6.8 3.47 12.338v.992c0 .372-.02.723-.06 1.054h-22.07c.24 3.348 1.22 5.9 2.9 7.626 1.7 1.736 4.34 2.604 7.94 2.604 2.02 0 3.72-.165 5.08-.496 1.4-.372 2.46-.723 3.16-1.054l.8 4.836c-.7.372-1.94.765-3.72 1.178-1.74.413-3.72.62-5.95.62-2.8 0-5.25-.413-7.32-1.24-2.02-.868-3.7-2.046-5.02-3.534s-2.32-3.245-2.98-5.27c-.62-2.067-.93-4.32-.93-6.758zm22.14-3.162c.04-2.604-.62-4.733-2-6.386-1.32-1.695-3.16-2.542-5.52-2.542-1.32 0-2.5.27-3.53.806-1 .496-1.84 1.157-2.54 1.984s-1.26 1.777-1.68 2.852c-.37 1.075-.62 2.17-.74 3.286h16zm26.2-13.702c.5 0 1.05.04 1.67.124.66.04 1.3.124 1.92.248.62.083 1.18.186 1.68.3.53.083.93.165 1.18.248l-1 5.022c-.45-.165-1.22-.35-2.3-.558-1.03-.248-2.38-.372-4.03-.372-1.08 0-2.15.124-3.22.372l-2.05.434v27.094h-5.77V57.656c1.37-.496 3.06-.95 5.1-1.364 2.02-.455 4.3-.682 6.82-.682z" class="H"/><path d="M3612.8 119.478h-494.4v337.79h494.4v-337.79z" stroke="#172d72" stroke-width="6"/><g fill="#172c72"><use xlink:href="#C"/><use xlink:href="#C" x="24.2"/><use xlink:href="#C" x="145.1" y="12.09"/><use xlink:href="#C" x="120.92" y="12.09"/><use xlink:href="#C" y="-96.727"/><use xlink:href="#C" x="24.2" y="-96.727"/><use xlink:href="#C" x="145.1" y="-84.636"/><use xlink:href="#C" x="120.92" y="-84.636"/><use xlink:href="#C" y="-193.453"/><use xlink:href="#C" x="24.2" y="-193.453"/><use xlink:href="#C" x="145.1" y="-181.363"/><use xlink:href="#C" x="120.92" y="-181.363"/><path d="M3533.7 680.075h-61.88l-24.18 12.1h-65.07v-24.182a18.18 18.18 0 0 0-5.32-12.818c-3.4-3.4-8-5.312-12.82-5.318h-169.27c-4.8.006-9.42 1.92-12.82 5.318a18.18 18.18 0 0 0-5.32 12.818v36.273c.01 4.808 1.92 9.417 5.32 12.817a18.16 18.16 0 0 0 12.82 5.319h6.04v24.182h-6.04c-4.8.006-9.42 1.92-12.82 5.318a18.18 18.18 0 0 0-5.32 12.818v36.273c.01 4.808 1.92 9.417 5.32 12.817a18.16 18.16 0 0 0 12.82 5.319h6.04V843.3h-6.04c-4.8.006-9.42 1.92-12.82 5.318a18.18 18.18 0 0 0-5.32 12.818V897.7c.01 4.808 1.92 9.417 5.32 12.817a18.16 18.16 0 0 0 12.82 5.319h169.27a18.16 18.16 0 0 0 12.82-5.319 18.22 18.22 0 0 0 5.32-12.817v-12.1h151.13a18.16 18.16 0 0 0 12.82-5.319 18.22 18.22 0 0 0 5.32-12.817V698.2a18.18 18.18 0 0 0-5.32-12.818c-3.4-3.4-8-5.312-12.82-5.318zm-344.6 24.18v-36.272c0-1.603.64-3.14 1.77-4.273a6.07 6.07 0 0 1 4.28-1.772h169.27a6.05 6.05 0 0 1 4.27 1.772c1.14 1.134 1.77 2.67 1.78 4.273v36.273c-.01 1.603-.64 3.14-1.78 4.272a6.05 6.05 0 0 1-4.27 1.773h-169.27a6.07 6.07 0 0 1-4.28-1.773c-1.13-1.133-1.77-2.67-1.77-4.273zm24.18 18.136h133v24.182h-133V722.39zm-24.18 78.592V764.7c0-1.603.64-3.14 1.77-4.273a6.07 6.07 0 0 1 4.28-1.772h169.27a6.05 6.05 0 0 1 4.27 1.772c1.14 1.134 1.77 2.67 1.78 4.273v36.273c-.01 1.603-.64 3.14-1.78 4.272a6.05 6.05 0 0 1-4.27 1.773h-169.27a6.07 6.07 0 0 1-4.28-1.773c-1.13-1.133-1.77-2.67-1.77-4.272zm24.18 18.136h133V843.3h-133v-24.18zm157.2 78.6c-.01 1.603-.64 3.14-1.78 4.272a6.05 6.05 0 0 1-4.27 1.773h-169.27a6.07 6.07 0 0 1-4.28-1.773c-1.13-1.133-1.77-2.67-1.77-4.272v-36.273c0-1.603.64-3.14 1.77-4.273a6.07 6.07 0 0 1 4.28-1.772h169.27a6.05 6.05 0 0 1 4.27 1.772c1.14 1.134 1.77 2.67 1.78 4.273v36.273zm163.22-24.182h-151.13v-12.1a18.18 18.18 0 0 0-5.32-12.818c-3.4-3.4-8-5.312-12.82-5.318h-6.04v-24.18h6.04a18.16 18.16 0 0 0 12.82-5.319 18.22 18.22 0 0 0 5.32-12.817V764.7a18.18 18.18 0 0 0-5.32-12.818c-3.4-3.4-8-5.312-12.82-5.318h-6.04v-24.182h6.04a18.16 18.16 0 0 0 12.82-5.319 18.22 18.22 0 0 0 5.32-12.817h67.92l24.18-12.1h59.03a6.07 6.07 0 0 1 4.28 1.772c1.13 1.134 1.77 2.67 1.77 4.273v30.227h-145.1v12.1h145.1v126.955a6.05 6.05 0 0 1-1.77 4.272 6.07 6.07 0 0 1-4.28 1.773zm-66.5-169.272h60.46v12.1h-60.46v-12.1zm-72.53 157.183h133V764.7h-133v96.728zm12.1-84.636h108.82v72.545h-108.82v-72.545zm12.08 12.1h84.64v12.1h-84.64v-12.1zm0 24.182h84.64v12.1h-84.64v-12.1z"/></g><path d="M3280.16 836.39c29.7 0 53.78-24.077 53.78-53.778s-24.08-53.778-53.78-53.778-53.78 24.077-53.78 53.778 24.08 53.778 53.78 53.778z" class="E"/><g fill-rule="evenodd"><path d="M3253.17 749.05a24.07 24.07 0 0 1 4.91 4.005c1.33-.14 3.67.552 6.32 2.097 6.72 3.953 11.88 10.092 14.62 17.39 1.2 2.803 1.76 4.028 4.15 5.12s7.57 4.548 7.73 7.443c.12 2.945-2.1.055-3.12-.523s-2.8-1.742-4.1.793c0 0 2.8 17.633 13.5 20.833-.1-1.872-.35-2.996.18-3.8s.37.003 1.22.683c1.3 1.608 5.24 2.112 5.23 3.606 0 0 4.64.1 6.33 1.093.64.32 1.33.498 2.04.525s1.42-.1 2.08-.37c.5-.246 1.4-.164.46.927-.95 1.14-4.5 3.034-8.72 2.753-2.37-.555-4.66-1.385-6.82-2.474-1.63.112-15.9-.844-24.96-11.84 0 0-.4 2.242-2.67-3.238-4.97-5.35-8.88-13.913-8.88-13.913-.9 1.85-1.55 3.807-1.96 5.823-.1 1.147-.95.637-1.7-1.186-2.23-6.205-.17-13.546-.17-13.546s-.4-1.2-1.08-3.05c-1.63-4.648-4.9-13.202-7.53-16.79-.14-.394-.16-.824-.05-1.23a1.98 1.98 0 0 1 .68-1.026 2.01 2.01 0 0 1 1.15-.436c.42-.02.83.1 1.18.318z" class="B"/><path d="M3262.76 758.38c1.4 1.532 2.77 3.288 2.93 4.438a5.69 5.69 0 0 0-.52-2.987 5.75 5.75 0 0 0-1.98-2.298c-.27-.207-.55-.392-.84-.554l-3.1-2.02 3.52 3.42z" fill="#3a58f0"/></g><path d="M3265.77 952.833l3.4 6.417 3.8 8.004 3.8 8.487 3.5 7.935 3.45-7.935 3.8-8.487 3.8-8.004 3.4-6.417h7.86c.42 3.496.8 7.222 1.17 11.178a452.32 452.32 0 0 1 .97 12.075l.83 12.42.7 12.144h-8.56l-.7-17.18c-.23-5.888-.6-11.592-1.1-17.112l-1.8 3.795-4.62 10.143-2.34 5.382-2.07 4.83-1.66 3.795h-6.5l-1.65-3.864-2.14-4.83-2.35-5.382-2.34-5.313-2.2-4.76a107.5 107.5 0 0 0-1.8-3.795 400.88 400.88 0 0 0-1.17 17.112l-.62 17.18h-8.56l.63-12.282.82-12.558 1.04-12.144 1.17-10.833h8.07zm79.62 11.73c-3.73 13.708-8.05 26.128-12.98 37.257-.92 2.07-1.86 3.84-2.82 5.32-.97 1.47-2.05 2.7-3.25 3.65-1.2.97-2.53 1.66-4 2.07-1.47.46-3.17.7-5.1.7a18.83 18.83 0 0 1-3.86-.41c-1.24-.28-2.18-.58-2.83-.9l1.52-6.7c1.66.64 3.3.96 4.9.96 2.16 0 3.84-.52 5.04-1.58 1.24-1 2.32-2.6 3.24-4.76-2.62-5.063-5.15-10.583-7.6-16.563-2.4-5.98-4.53-12.328-6.42-19.044h8.9a138.46 138.46 0 0 0 1.66 6.279l2.2 6.9c.78 2.3 1.6 4.6 2.48 6.9s1.75 4.44 2.62 6.417c1.47-4.094 2.85-8.44 4.14-13.04l3.52-13.455h8.63zm18.32 29.6c3.13 0 5.4-.53 6.83-1.587s2.14-2.553 2.14-4.485c0-1.15-.25-2.14-.76-2.967-.46-.828-1.15-1.564-2.07-2.208-.87-.7-1.95-1.31-3.24-1.863-1.3-.598-2.76-1.173-4.42-1.725a78.37 78.37 0 0 1-4.83-1.932 17.91 17.91 0 0 1-4.07-2.691c-1.15-1.058-2.1-2.323-2.83-3.795-.7-1.472-1.03-3.243-1.03-5.313 0-4.324 1.5-7.705 4.48-10.143 3-2.484 7.06-3.726 12.2-3.726 3 0 5.64.345 7.94 1.035 2.35.644 4.2 1.357 5.52 2.14l-2.7 7.038c-1.57-.874-3.3-1.54-5.18-2-1.84-.46-3.75-.7-5.72-.7-2.35 0-4.2.483-5.52 1.45-1.3.966-1.94 2.323-1.94 4.07 0 1.058.2 1.978.63 2.76.46.736 1.08 1.403 1.86 2a18.34 18.34 0 0 0 2.83 1.656c1.1.506 2.3.99 3.6 1.45 2.25.828 4.25 1.68 6 2.553 1.8.828 3.3 1.84 4.48 3.036 1.25 1.15 2.2 2.53 2.83 4.14.65 1.564.97 3.473.97 5.727 0 4.324-1.54 7.682-4.62 10.074-3.04 2.344-7.5 3.514-13.4 3.514-1.98 0-3.8-.13-5.45-.4-1.6-.23-3.06-.53-4.35-.9a35.2 35.2 0 0 1-3.24-1.1c-.92-.414-1.66-.782-2.2-1.104l2.55-7.107c1.25.7 2.92 1.38 5.04 2.07s4.67 1.035 7.66 1.035zm32.78-17.457c0 2.622.32 5.014.96 7.176.65 2.116 1.57 3.933 2.76 5.45a13.26 13.26 0 0 0 4.49 3.45c1.75.828 3.72 1.242 5.93 1.242 2.16 0 4.12-.414 5.87-1.242a12.42 12.42 0 0 0 4.41-3.45c1.25-1.518 2.2-3.335 2.83-5.45.65-2.162.97-4.554.97-7.176s-.32-4.99-.97-7.107c-.64-2.162-1.58-3.98-2.83-5.45-1.2-1.518-2.66-2.69-4.4-3.52s-3.7-1.242-5.87-1.242c-2.2 0-4.18.414-5.93 1.242s-3.24 2-4.5 3.52c-1.2 1.518-2.1 3.335-2.76 5.45-.64 2.116-.96 4.485-.96 7.107zm37.33 0c0 3.45-.44 6.555-1.3 9.315-.88 2.76-2.1 5.175-3.66 7.245-1.57 2.024-3.4 3.68-5.52 4.968-2.07 1.288-4.35 2.205-6.83 2.755.14.97.62 1.8 1.45 2.5.82.7 1.86 1.26 3.1 1.72 1.3.46 2.74.83 4.35 1.1a46.07 46.07 0 0 0 5.17.69l-1.93 6.55c-5.93-.46-10.65-1.6-14.14-3.45-3.5-1.8-5.73-4.67-6.7-8.62-2.85-.28-5.52-1-8-2.2a20.73 20.73 0 0 1-6.42-4.899c-1.84-2.07-3.3-4.577-4.34-7.52-1.06-2.944-1.6-6.325-1.6-10.143 0-4.094.62-7.682 1.86-10.764 1.24-3.128 2.92-5.75 5.04-7.866a21.22 21.22 0 0 1 7.45-4.761c2.8-1.058 5.77-1.587 8.9-1.587s6.1.53 8.9 1.587c2.8 1.058 5.25 2.645 7.32 4.76 2.1 2.116 3.8 4.738 5.03 7.866 1.25 3.082 1.87 6.67 1.87 10.764zm39.76 16.422v7.52h-30.23v-47.817h8.7v40.296h21.53z" class="E"/><path d="M2684.97 892.445h-328.84a67.86 67.86 0 0 1-47.34-19.263c-12.67-12.346-20.02-29.15-20.48-46.834s6-34.85 18-47.84a67.88 67.88 0 0 1 46.28-21.711l6.02-.317 2.28-5.584c5.1-12.53 13.82-23.264 25.03-30.84a68.36 68.36 0 0 1 37.94-11.713c7.1-.006 14.16 1.12 20.9 3.337l6.62 2.175 4.06-5.666a115.44 115.44 0 0 1 94.09-48.204h.02c54.24 0 101.33 38.24 113.2 90.415l2 8.76 8.86-1.504a67.87 67.87 0 0 1 27.86 1.08 67.94 67.94 0 0 1 25.08 12.19 68 68 0 0 1 18.06 21.242 67.98 67.98 0 0 1 7.99 26.71c.8 9.36-.37 18.784-3.42 27.672-3.04 8.887-7.9 17.047-14.25 23.962a67.82 67.82 0 0 1-49.97 21.931z" stroke="#31478d" stroke-width="19"/><path d="M2488 714.668l13.68 13.67c12.7-12.676 29.92-19.795 47.87-19.795a67.81 67.81 0 0 1 47.88 19.795l13.67-13.67c-16.34-16.3-38.47-25.454-61.55-25.454a87.18 87.18 0 0 0-61.55 25.454h0zm235.65 109.905c-.01-10.257-4.1-20.1-11.34-27.344s-17.1-11.332-27.35-11.342v19.343a19.35 19.35 0 0 1 13.68 5.666c3.63 3.627 5.67 8.547 5.67 13.677a19.34 19.34 0 0 1-5.67 13.678c-3.63 3.627-8.55 5.665-13.68 5.665v19.343a38.73 38.73 0 0 0 27.35-11.342c7.25-7.252 11.33-17.087 11.34-27.344h0zm-364.6-25.54v5.208h-13.52V842h-6v-37.758H2326v-5.208h33.05zM2370.78 842h-5.76v-32.24h5.76V842zm-2.9-38.068c-1.03 0-1.92-.33-2.67-.992-.7-.703-1.05-1.633-1.05-2.8s.35-2.067 1.05-2.728a3.77 3.77 0 0 1 2.67-1.054c1.03 0 1.9.35 2.6 1.054.75.66 1.12 1.57 1.12 2.728s-.37 2.087-1.12 2.8c-.7.66-1.57.992-2.6.992zm48.48 16.554c0 3.72-.58 6.965-1.74 9.734-1.16 2.728-2.8 5-4.9 6.82-2.1 1.777-4.63 3.12-7.56 4.03-2.93.868-6.16 1.302-9.67 1.302-1.74 0-3.66-.083-5.77-.248-2.06-.124-3.95-.393-5.64-.806v-41.664c1.7-.413 3.58-.682 5.64-.806l5.77-.248c3.5 0 6.74.455 9.67 1.364 2.93.868 5.46 2.2 7.56 4.03 2.1 1.777 3.74 4.05 4.9 6.82 1.16 2.728 1.74 5.952 1.74 9.672zm-23.38 16.616c5.7 0 9.97-1.447 12.78-4.34 2.8-2.935 4.2-7.027 4.2-12.276s-1.4-9.32-4.2-12.214c-2.8-2.935-7.07-4.402-12.78-4.402-1.7 0-3 .02-3.96.062-.9.04-1.55.083-1.93.124v32.86c.38.04 1.02.083 1.93.124a99.39 99.39 0 0 0 3.96.062zm43.9 5.27c-.86 0-1.82-.02-2.85-.062a76.39 76.39 0 0 1-3.04-.186 93.27 93.27 0 0 1-2.97-.3 23.26 23.26 0 0 1-2.73-.496v-41.664a23.26 23.26 0 0 1 2.73-.496 59.73 59.73 0 0 1 2.97-.3c1.04-.083 2.05-.145 3.04-.186s1.92-.062 2.8-.062c2.48 0 4.8.186 6.95.558 2.2.372 4.07 1.013 5.64 1.922 1.6.868 2.87 2.025 3.78 3.472s1.36 3.224 1.36 5.332c0 2.356-.55 4.3-1.67 5.828-1.12 1.488-2.6 2.604-4.46 3.348 2.52.744 4.52 1.922 6 3.534s2.23 3.885 2.23 6.82c0 4.3-1.6 7.543-4.77 9.734-3.14 2.15-8.15 3.224-15 3.224zm-5.64-20.398v15.128l1.6.124 1.86.124h2.55c1.77 0 3.45-.103 5.02-.3 1.6-.248 3-.66 4.2-1.24s2.15-1.385 2.86-2.418c.74-1.033 1.1-2.335 1.1-3.906 0-1.405-.27-2.583-.8-3.534-.54-.992-1.33-1.777-2.36-2.356-1-.58-2.2-.992-3.6-1.24s-2.97-.372-4.7-.372h-7.75zm0-4.836h6.33c1.48 0 2.9-.103 4.2-.3s2.46-.58 3.4-1.116c1-.537 1.76-1.24 2.3-2.108.57-.868.86-1.963.86-3.286 0-1.24-.3-2.273-.86-3.1-.58-.868-1.4-1.55-2.42-2.046-1-.537-2.17-.93-3.54-1.178-1.36-.248-2.8-.372-4.34-.372a80.48 80.48 0 0 0-3.59.062c-.87.04-1.66.103-2.36.186v13.268zm61.88 25.606c-2.6 0-4.9-.413-6.88-1.24-1.95-.827-3.6-1.984-4.96-3.472-1.33-1.488-2.32-3.245-2.98-5.27-.66-2.067-1-4.34-1-6.82s.35-4.753 1.05-6.82c.75-2.067 1.78-3.844 3.1-5.332 1.33-1.53 2.94-2.707 4.84-3.534 1.94-.868 4.1-1.302 6.45-1.302a25.73 25.73 0 0 1 4.34.372c1.44.248 2.83.64 4.15 1.178l-1.3 4.898c-.87-.413-1.88-.744-3.04-.992-1.12-.248-2.3-.372-3.6-.372-3.22 0-5.7 1.013-7.44 3.038-1.7 2.025-2.54 4.98-2.54 8.866 0 1.736.2 3.327.56 4.774.4 1.447 1.03 2.687 1.86 3.72.87 1.033 1.96 1.84 3.3 2.418 1.32.537 2.93.806 4.83.806 1.53 0 2.92-.145 4.16-.434s2.2-.6 2.9-.93l.8 4.836c-.33.207-.8.413-1.43.62a20.74 20.74 0 0 1-2.11.434 21.75 21.75 0 0 1-2.54.372 17.82 17.82 0 0 1-2.54.186zm24.48-.124c-3.56-.083-6.08-.847-7.56-2.294-1.5-1.447-2.24-3.7-2.24-6.758V794.88l5.77-.992v38.75c0 .95.08 1.736.25 2.356.16.62.43 1.116.8 1.488.38.372.87.66 1.5.868.62.165 1.4.3 2.3.434l-.8 4.836zm32.95-1.55c-1.32.33-3.08.682-5.27 1.054-2.15.372-4.65.558-7.5.558-2.48 0-4.57-.35-6.27-1.054-1.7-.744-3.05-1.777-4.1-3.1-1.03-1.323-1.77-2.873-2.23-4.65-.45-1.82-.68-3.823-.68-6.014V809.76h5.76v16.864c0 3.927.62 6.737 1.86 8.432s3.33 2.542 6.27 2.542c.62 0 1.26-.02 1.92-.062l1.86-.124a30.87 30.87 0 0 1 1.55-.186c.5-.083.85-.165 1.05-.248V809.76h5.77v31.3zm17.43-3.224c2.36 0 4.1-.3 5.2-.93 1.16-.62 1.74-1.612 1.74-2.976 0-1.405-.56-2.52-1.68-3.348-1.1-.827-2.95-1.757-5.5-2.8l-3.6-1.488c-1.12-.537-2.1-1.157-2.9-1.86-.83-.703-1.5-1.55-2-2.542s-.74-2.2-.74-3.658c0-2.852 1.05-5.105 3.16-6.758 2.1-1.695 4.98-2.542 8.62-2.542a20.31 20.31 0 0 1 2.73.186 22.63 22.63 0 0 1 2.54.372c.78.124 1.47.27 2.04.434.62.165 1.1.3 1.43.434l-1.05 4.96c-.62-.33-1.6-.66-2.92-.992-1.32-.372-2.9-.558-4.77-.558-1.6 0-3.02.33-4.22.992-1.2.62-1.8 1.612-1.8 2.976 0 .703.13 1.323.38 1.86.3.537.7 1.033 1.24 1.488.57.413 1.28.806 2.1 1.178.83.372 1.82.765 2.98 1.178 1.53.58 2.9 1.157 4.1 1.736 1.2.537 2.2 1.178 3.04 1.922.87.744 1.53 1.653 1.98 2.728.46 1.033.7 2.315.7 3.844 0 2.976-1.12 5.23-3.35 6.758-2.2 1.53-5.33 2.294-9.43 2.294-2.85 0-5.08-.248-6.7-.744-1.6-.455-2.7-.806-3.3-1.054l1.06-4.96c.66.248 1.7.62 3.16 1.116 1.44.496 3.37.744 5.76.744zm25.57-28.086h12.2v4.836h-12.2v14.88c0 1.612.12 2.955.37 4.03.25 1.033.62 1.86 1.1 2.48.5.58 1.12.992 1.86 1.24.75.248 1.62.372 2.6.372 1.73 0 3.12-.186 4.15-.558l2.23-.868 1.12 4.774c-.58.3-1.6.64-3.04 1.054-1.44.455-3.1.682-4.96.682-2.2 0-4-.27-5.45-.806-1.4-.58-2.55-1.426-3.4-2.542-.87-1.116-1.5-2.48-1.86-4.092-.33-1.653-.5-3.555-.5-5.704V800.77l5.77-.992v9.982zm17.14 16.182c0-2.852.42-5.332 1.24-7.44.83-2.15 1.93-3.927 3.3-5.332s2.93-2.46 4.7-3.162 3.6-1.054 5.46-1.054c4.34 0 7.67 1.364 9.98 4.092 2.3 2.687 3.47 6.8 3.47 12.338v.992a8.79 8.79 0 0 1-.06 1.054h-22.07c.25 3.348 1.22 5.9 2.9 7.626 1.7 1.736 4.34 2.604 7.94 2.604 2.02 0 3.72-.165 5.08-.496 1.4-.372 2.46-.723 3.16-1.054l.8 4.836c-.7.372-1.94.765-3.72 1.178-1.74.413-3.72.62-5.95.62-2.8 0-5.25-.413-7.32-1.24-2.02-.868-3.7-2.046-5.02-3.534s-2.3-3.245-2.98-5.27c-.62-2.067-.93-4.32-.93-6.758zm22.14-3.162c.04-2.604-.62-4.733-2-6.386-1.32-1.695-3.16-2.542-5.5-2.542-1.33 0-2.5.27-3.54.806-1 .496-1.84 1.157-2.54 1.984s-1.26 1.777-1.67 2.852c-.38 1.075-.62 2.17-.75 3.286h16zm26.2-13.702c.5 0 1.05.04 1.67.124a14.3 14.3 0 0 1 1.92.248c.62.083 1.18.186 1.68.3.54.083.93.165 1.18.248l-1 5.022c-.45-.165-1.2-.35-2.3-.558-1.03-.248-2.38-.372-4.03-.372a14.26 14.26 0 0 0-3.22.372l-2.05.434V842h-5.77v-30.876c1.37-.496 3.06-.95 5.1-1.364 2.02-.455 4.3-.682 6.82-.682z" class="E"/><path d="M2507.1 1115h-8.1c-48.6 0-88 39.4-88 88v75.04c0 48.6 39.4 88 88 88h8.1c48.6 0 88-39.4 88-88V1203c0-48.6-39.4-88-88-88z" class="B"/><path d="M2585.3 1104.78h-129l-55.1 55.1v195.93h184.1v-251.04zm-133.9 28.57V1155h-21.64l21.64-21.64zm117.16 205.73h-150.63v-167.36h50.2v-50.2h100.42v217.56z" class="E"/><path d="M2540.17 1143.48h-8.1c-48.6 0-88 39.4-88 88v75.04c0 48.6 39.4 88 88 88h8.1c48.6 0 88-39.4 88-88v-75.04c0-48.6-39.4-88-88-88z" class="B"/><path d="M2499.18 1143.48l-55.1 55.1v195.93h184.1v-251.04h-129zm-4.9 28.57v21.64h-21.64l21.64-21.64zm117.15 205.73H2460.8v-167.35h50.2v-50.2h100.4v217.56zm-133.9-150.62h117.16v16.74h-117.16v-16.74zm0 33.47h117.16v16.74h-117.16v-16.74zm0 33.47h117.16v16.73h-117.16v-16.73zm0 33.48h117.16v16.73h-117.16v-16.73zm50.2-133.88h66.95v16.74h-66.95v-16.74z" class="E"/><g fill="#707070"><path d="M285.33 101.472v40.45h157.246v-40.45H285.33z"/><path d="M428.418 169.678V76.856l46.4 46.4-46.4 46.4zM326 113h-40v122.174h40V113z"/><path d="M260 234.688h92.822L306.4 273 260 234.688zm650.078-133.216v40.45H1012.6v-40.45H910.078z"/><path d="M998.455 169.678V76.856l46.415 46.4-46.415 46.4zm-72.357-92.822v92.822l-46.4-46.4 46.4-46.4zM2017.77 316.78v40.45H2145v-40.45h-127.24z"/><path d="M2130.85 384.986v-92.822l46.4 46.4-46.4 46.4zm-113.08 387.118v40.45H2145v-40.45h-127.24z"/><path d="M2130.85 840.3v-92.822l46.4 46.4-46.4 46.4zM767 593.616v40.45h127.244v-40.45H767z"/><path d="M880.085 661.822V569l46.4 46.4-46.4 46.4zM767 935.616v40.45h127.244v-40.45H767z"/><path d="M880.085 1003.82V911l46.4 46.4-46.4 46.4zM767 1287.62v40.45h127.244v-40.45H767z"/><path d="M880.085 1355.82V1263l46.4 46.4-46.4 46.4zm1137.685-135.45v40.45H2145v-40.45h-127.24z"/><path d="M2130.85 1288.57v-92.82l46.4 46.4-46.4 46.4z"/></g><path d="M2695.4 1214.66h4.94V1250h-4.94v-35.34zm13.4 9.6c1.08-.28 2.53-.57 4.33-.87s3.88-.46 6.22-.46c2.1 0 3.86.3 5.26.92 1.4.57 2.5 1.4 3.3 2.5.85 1.05 1.45 2.32 1.8 3.82s.5 3.15.5 4.95v14.9h-4.75v-13.87c0-1.63-.12-3.03-.35-4.18-.2-1.16-.56-2.1-1.07-2.8s-1.2-1.22-2.04-1.53c-.85-.34-1.9-.5-3.17-.5l-1.58.05-1.58.15-1.32.16-.82.15v22.4h-4.74v-25.75zm40.8 26.36c-2.14 0-4.03-.34-5.66-1.02-1.6-.68-2.96-1.63-4.08-2.85-1.1-1.23-1.9-2.67-2.45-4.34-.55-1.7-.82-3.57-.82-5.6s.3-3.9.87-5.6c.6-1.7 1.46-3.16 2.55-4.4 1.1-1.25 2.4-2.22 3.98-2.9 1.6-.72 3.36-1.07 5.3-1.07 1.2 0 2.38.1 3.57.3 1.2.2 2.33.53 3.42.97l-1.07 4.03c-.72-.34-1.55-.6-2.5-.82-.92-.2-1.9-.3-2.96-.3-2.65 0-4.7.83-6.12 2.5-1.4 1.66-2.1 4.1-2.1 7.3 0 1.43.15 2.74.46 3.93.34 1.2.85 2.2 1.53 3.06.7.85 1.6 1.5 2.7 2 1.1.44 2.42.66 3.98.66 1.26 0 2.4-.12 3.42-.36s1.82-.5 2.4-.76l.67 3.98c-.28.17-.67.34-1.18.5a18.12 18.12 0 0 1-1.73.35 17.73 17.73 0 0 1-2.09.31 15.12 15.12 0 0 1-2.09.15zm21.97-27.7c.4 0 .87.03 1.38.1a11.56 11.56 0 0 1 1.58.2l1.38.26.96.2-.8 4.13c-.38-.13-1-.28-1.9-.45-.85-.2-1.95-.3-3.3-.3a11.5 11.5 0 0 0-2.66.31l-1.68.35v22.3h-4.74v-25.4c1.12-.4 2.5-.78 4.18-1.12 1.67-.37 3.54-.56 5.6-.56zm8.4 13.87c0-2.35.34-4.4 1.02-6.12.68-1.77 1.58-3.23 2.7-4.4 1.12-1.15 2.4-2.02 3.87-2.6 1.46-.57 2.96-.86 4.5-.86 3.57 0 6.3 1.12 8.2 3.36 1.9 2.2 2.86 5.6 2.86 10.15v.82c0 .3-.02.6-.05.86h-18.16c.2 2.76 1 4.85 2.4 6.28s3.57 2.14 6.52 2.14c1.67 0 3.06-.14 4.2-.4 1.15-.3 2.02-.6 2.6-.87l.66 3.98c-.58.3-1.6.63-3.06.97-1.43.34-3.06.5-4.9.5-2.3 0-4.3-.34-6-1.02-1.67-.7-3.05-1.68-4.13-2.9-1.1-1.22-1.9-2.66-2.45-4.33-.5-1.7-.77-3.55-.77-5.56zm18.2-2.6c.03-2.14-.5-3.9-1.63-5.25-1.1-1.4-2.6-2.1-4.54-2.1-1.1 0-2.06.22-2.9.66-.8.4-1.5.95-2.1 1.63s-1.04 1.46-1.38 2.35c-.3.88-.5 1.78-.6 2.7h13.16zm11.76-9.94c1.1-.28 2.52-.57 4.28-.87 1.8-.3 3.88-.46 6.23-.46 1.7 0 3.12.24 4.28.7 1.16.44 2.12 1.1 2.9 2 .23-.17.6-.4 1.12-.7.5-.3 1.14-.6 1.9-.87.74-.3 1.58-.56 2.5-.76.92-.24 1.9-.36 2.96-.36 2.04 0 3.7.3 5 .92 1.3.57 2.3 1.4 3 2.5.75 1.08 1.24 2.38 1.48 3.87.27 1.5.4 3.13.4 4.9v14.9h-4.75v-13.87c0-1.57-.08-2.9-.25-4.03-.14-1.12-.43-2.06-.87-2.8-.4-.74-.98-1.3-1.73-1.63-.72-.37-1.65-.56-2.8-.56-1.6 0-2.92.22-3.98.66-1.02.4-1.7.8-2.1 1.13.28.88.48 1.85.62 2.9a27.17 27.17 0 0 1 .2 3.32v14.9h-4.74v-13.87c0-1.57-.1-2.9-.26-4.03s-.47-2.06-.92-2.8c-.4-.74-.98-1.3-1.73-1.63-.7-.37-1.63-.56-2.75-.56a27.54 27.54 0 0 0-1.53.05c-.55.04-1.08.1-1.6.15-.47.04-.9.1-1.32.16l-.82.15v22.4h-4.74v-25.75zm42.45 12.54c0-2.35.34-4.4 1.02-6.12.68-1.77 1.58-3.23 2.7-4.4 1.12-1.15 2.42-2.02 3.88-2.6 1.46-.57 2.96-.86 4.5-.86 3.57 0 6.3 1.12 8.2 3.36 1.9 2.2 2.85 5.6 2.85 10.15v.82a5.94 5.94 0 0 1-.05.86h-18.15c.2 2.76 1 4.85 2.4 6.28s3.57 2.14 6.53 2.14c1.67 0 3.06-.14 4.18-.4 1.16-.3 2.03-.6 2.6-.87l.67 3.98c-.58.3-1.6.63-3.06.97-1.43.34-3.06.5-4.9.5-2.3 0-4.32-.34-6.02-1.02-1.66-.7-3.04-1.68-4.13-2.9-1.1-1.22-1.9-2.66-2.45-4.33-.5-1.7-.76-3.55-.76-5.56zm18.2-2.6c.03-2.14-.5-3.9-1.64-5.25-1.08-1.4-2.6-2.1-4.54-2.1-1.08 0-2.05.22-2.9.66-.82.4-1.52.95-2.1 1.63s-1.04 1.46-1.38 2.35c-.3.88-.5 1.78-.6 2.7h13.16zm11.76-9.94c1.08-.28 2.53-.57 4.33-.87s3.88-.46 6.22-.46c2.1 0 3.86.3 5.26.92 1.4.57 2.5 1.4 3.3 2.5.85 1.05 1.45 2.32 1.8 3.82s.5 3.15.5 4.95v14.9H2899v-13.87c0-1.63-.12-3.03-.35-4.18-.2-1.16-.57-2.1-1.08-2.8s-1.2-1.22-2.04-1.53c-.85-.34-1.9-.5-3.16-.5-.5 0-1.03.02-1.58.05a36.91 36.91 0 0 0-1.58.15c-.48.04-.92.1-1.33.16l-.8.15v22.4h-4.74v-25.75zm33.72-.77h10.04v3.98h-10.04v12.24c0 1.32.1 2.43.3 3.3.2.85.5 1.53.92 2.04a3.34 3.34 0 0 0 1.53 1.02c.6.2 1.33.3 2.14.3 1.43 0 2.57-.15 3.42-.46l1.84-.7.9 3.92c-.47.24-1.3.53-2.5.87-1.2.37-2.55.56-4.08.56-1.8 0-3.3-.22-4.5-.66-1.16-.48-2.1-1.18-2.8-2.1s-1.22-2.04-1.53-3.37c-.27-1.36-.4-2.92-.4-4.7v-23.67l4.75-.8v8.2zm25.06 23.1c1.12 0 2.1-.01 2.95-.05.9-.07 1.62-.17 2.2-.3v-7.9c-.34-.17-.9-.3-1.7-.4-.74-.13-1.66-.2-2.75-.2a18.82 18.82 0 0 0-2.29.15 6.7 6.7 0 0 0-2.2.66 4.46 4.46 0 0 0-1.63 1.33c-.44.54-.66 1.28-.66 2.2 0 1.7.54 2.9 1.63 3.57 1.1.65 2.57.97 4.44.97zm-.4-23.76c1.9 0 3.5.25 4.8.76 1.33.48 2.38 1.17 3.16 2.1.82.9 1.4 1.96 1.74 3.22.34 1.22.5 2.58.5 4.08v16.57l-1.74.3c-.7.1-1.53.2-2.44.3-.92.1-1.92.2-3 .26-1.06.1-2.1.15-3.16.15-1.5 0-2.88-.15-4.14-.46-1.25-.3-2.34-.78-3.26-1.43-.92-.68-1.63-1.56-2.14-2.65s-.77-2.4-.77-3.93c0-1.46.3-2.72.87-3.77.6-1.05 1.43-1.9 2.45-2.55s2.2-1.12 3.57-1.43a19.84 19.84 0 0 1 4.28-.46c.48 0 .97.04 1.48.1a8.8 8.8 0 0 1 1.43.2 39.58 39.58 0 0 1 1.22.2c.34.07.58.12.72.16v-1.33a10.24 10.24 0 0 0-.26-2.29c-.17-.8-.47-1.47-.92-2.04-.44-.62-1.05-1.1-1.83-1.43-.75-.38-1.74-.56-2.96-.56-1.56 0-2.94.12-4.13.35-1.16.2-2.02.43-2.6.67l-.56-3.93c.6-.27 1.63-.53 3.06-.77 1.43-.27 2.97-.4 4.64-.4zm26.03 27.7c-2.92-.07-5-.7-6.22-1.9s-1.84-3.04-1.84-5.56v-31.82l4.75-.82v31.88c0 .78.06 1.43.2 1.94s.36.9.66 1.22c.3.3.72.54 1.23.7.5.14 1.14.26 1.88.36l-.66 3.98zm-266.93 33.14c.58-.37 1.45-.76 2.6-1.17 1.2-.4 2.55-.6 4.08-.6 1.9 0 3.6.34 5.05 1.02 1.5.68 2.76 1.63 3.78 2.85 1.02 1.23 1.78 2.7 2.3 4.4.55 1.7.82 3.57.82 5.6 0 2.14-.32 4.08-.97 5.8-.6 1.7-1.5 3.15-2.65 4.34-1.16 1.2-2.55 2.1-4.18 2.75-1.64.65-3.47.97-5.5.97-2.2 0-4.17-.15-5.87-.46-1.7-.3-3.1-.6-4.18-.92v-38l4.74-.82v14.23zm0 21.22c.48.13 1.14.27 2 .4.9.1 1.97.15 3.27.15 2.55 0 4.6-.83 6.12-2.5 1.53-1.7 2.3-4.1 2.3-7.2 0-1.36-.13-2.64-.4-3.83-.27-1.2-.7-2.2-1.32-3.06a5.97 5.97 0 0 0-2.4-2.04c-.95-.5-2.1-.76-3.47-.76-1.3 0-2.48.22-3.57.66s-1.92.9-2.5 1.38v16.78zm34.27.7c1.12 0 2.1-.01 2.96-.05.88-.07 1.6-.17 2.2-.3v-7.9c-.34-.17-.9-.3-1.68-.4-.75-.13-1.67-.2-2.76-.2a18.82 18.82 0 0 0-2.29.15c-.78.1-1.52.32-2.2.66a4.46 4.46 0 0 0-1.63 1.33c-.44.54-.66 1.28-.66 2.2 0 1.7.54 2.9 1.63 3.57 1.1.65 2.57.97 4.44.97zm-.4-23.76c1.9 0 3.5.25 4.8.76 1.33.48 2.38 1.17 3.17 2.1.8.9 1.4 1.96 1.73 3.22.34 1.22.5 2.58.5 4.08v16.57l-1.73.3c-.72.1-1.53.2-2.45.3s-1.92.2-3 .26a33.26 33.26 0 0 1-3.16.15c-1.5 0-2.88-.15-4.13-.46-1.26-.3-2.35-.78-3.27-1.43-.92-.68-1.63-1.56-2.14-2.65s-.76-2.4-.76-3.93c0-1.46.28-2.72.86-3.77.6-1.05 1.43-1.9 2.45-2.55s2.2-1.12 3.57-1.43a19.84 19.84 0 0 1 4.28-.46c.48 0 .97.04 1.48.1a8.8 8.8 0 0 1 1.43.2 36.15 36.15 0 0 1 1.23.2 9.32 9.32 0 0 1 .7.16v-1.33a10.24 10.24 0 0 0-.26-2.29c-.17-.8-.47-1.47-.9-2.04-.45-.62-1.06-1.1-1.84-1.43-.75-.38-1.73-.56-2.96-.56-1.56 0-2.94.12-4.13.35-1.15.2-2.02.43-2.6.67l-.56-3.93c.6-.27 1.63-.53 3.06-.77 1.43-.27 2.97-.4 4.64-.4zm29.6 27.8c-2.14 0-4.03-.34-5.66-1.02-1.6-.68-2.96-1.63-4.08-2.85-1.1-1.23-1.9-2.67-2.45-4.34-.54-1.7-.8-3.57-.8-5.6s.3-3.9.87-5.6c.6-1.7 1.46-3.16 2.55-4.4 1.08-1.25 2.4-2.22 3.97-2.9 1.6-.72 3.37-1.07 5.3-1.07 1.2 0 2.38.1 3.57.3 1.2.2 2.33.53 3.4.97l-1.07 4.03c-.7-.34-1.54-.6-2.5-.82-.9-.2-1.9-.3-2.95-.3-2.66 0-4.7.83-6.12 2.5-1.4 1.66-2.1 4.1-2.1 7.3 0 1.43.15 2.74.45 3.93.34 1.2.85 2.2 1.53 3.06.72.85 1.62 1.5 2.7 2 1.1.44 2.4.66 3.98.66 1.25 0 2.4-.12 3.4-.36s1.82-.5 2.4-.76l.66 3.98c-.27.17-.66.34-1.17.5a18.78 18.78 0 0 1-1.73.35 17.91 17.91 0 0 1-2.1.31 15.01 15.01 0 0 1-2.09.15zm21.77-15.2a32.35 32.35 0 0 1 3.22 2.9c1.15 1.16 2.27 2.4 3.36 3.77a62.85 62.85 0 0 1 3.16 4.08 39.76 39.76 0 0 1 2.5 3.83h-5.56c-.7-1.2-1.54-2.4-2.5-3.62a40.64 40.64 0 0 0-2.9-3.57 38.86 38.86 0 0 0-3.11-3.16c-1.06-.96-2.06-1.75-3-2.4V1309h-4.75v-38.76l4.75-.82v24.18l2.7-2.7a81.82 81.82 0 0 0 2.9-3l2.7-2.9 2.2-2.5h5.56l-2.55 2.8-2.85 3.12-5.82 6zm38.17 13.82c-1.08.28-2.53.57-4.33.87-1.77.3-3.83.46-6.17.46-2.04 0-3.76-.3-5.15-.87-1.4-.6-2.52-1.46-3.37-2.55-.85-1.08-1.46-2.36-1.83-3.82-.38-1.5-.57-3.15-.57-4.95v-14.9h4.75v13.87c0 3.23.5 5.54 1.53 6.94 1.02 1.4 2.73 2.1 5.15 2.1.5 0 1.04-.02 1.58-.05l1.53-.1c.48-.07.9-.12 1.27-.16.4-.07.7-.13.87-.2v-22.4h4.74v25.75zm26.6-12.44c0-3.1-.77-5.47-2.3-7.14s-3.57-2.5-6.12-2.5c-1.43 0-2.55.05-3.36.15-.8.1-1.42.23-1.9.36v16.73c.58.48 1.4.93 2.5 1.38 1.1.44 2.28.66 3.57.66 1.36 0 2.5-.24 3.47-.7a6.69 6.69 0 0 0 2.39-2.04c.6-.9 1.06-1.9 1.33-3.06a17.3 17.3 0 0 0 .41-3.83zm4.94 0c0 2-.27 3.86-.8 5.56-.5 1.7-1.28 3.16-2.3 4.4-1.02 1.22-2.28 2.17-3.77 2.85-1.46.68-3.15 1.02-5.05 1.02-1.53 0-2.9-.2-4.08-.6-1.16-.4-2.02-.8-2.6-1.17v10.6h-4.74v-35.14c1.12-.28 2.5-.57 4.18-.87 1.7-.34 3.65-.5 5.86-.5 2.04 0 3.88.32 5.5.97 1.63.64 3.03 1.56 4.18 2.75 1.16 1.2 2.04 2.65 2.65 4.4.65 1.7.97 3.62.97 5.76zm58.8-515.1c0-3.085.45-5.807 1.35-8.164.94-2.357 2.18-4.316 3.74-5.876 1.6-1.595 3.44-2.8 5.52-3.588 2.1-.797 4.35-1.196 6.7-1.196 2.33 0 4.5.4 6.56 1.196 2.08.797 3.9 1.993 5.46 3.588 1.56 1.56 2.8 3.52 3.7 5.876.93 2.357 1.4 5.08 1.4 8.164s-.47 5.807-1.4 8.164c-.9 2.357-2.13 4.333-3.7 5.928a15.44 15.44 0 0 1-5.46 3.536c-2.05.797-4.23 1.196-6.56 1.196-2.35 0-4.6-.4-6.7-1.196a16.06 16.06 0 0 1-5.52-3.536c-1.56-1.595-2.8-3.57-3.74-5.928-.9-2.357-1.35-5.08-1.35-8.164zm5.3 0c0 2.184.28 4.177.83 5.98.56 1.768 1.34 3.276 2.34 4.524a11.01 11.01 0 0 0 3.75 2.912c1.5.66 3.15.988 5 .988s3.48-.33 4.94-.988a10.39 10.39 0 0 0 3.7-2.912c1.04-1.248 1.84-2.756 2.4-4.524.56-1.803.84-3.796.84-5.98s-.28-4.16-.84-5.928c-.55-1.803-1.35-3.328-2.4-4.576a9.86 9.86 0 0 0-3.69-2.86c-1.46-.693-3.1-1.04-4.94-1.04s-3.5.347-5 1.04a10.39 10.39 0 0 0-3.75 2.86c-1 1.248-1.78 2.773-2.34 4.576-.55 1.768-.83 3.744-.83 5.928zm54.25 2.964l2.08 2.756 2.66 3.744 2.65 4.264c.9 1.5 1.66 2.93 2.3 4.316h-5.52l-2.28-4.004-2.45-3.848-2.5-3.484-2.2-2.808-1.4.052h-5.93v14.092h-5.04V763.24c1.42-.347 3-.572 4.73-.676l4.83-.208c5.07 0 8.9.953 11.55 2.86 2.67 1.907 4 4.75 4 8.528 0 2.392-.64 4.437-1.92 6.136-1.25 1.7-3.1 2.964-5.57 3.796zm-7.64-16.9c-2.15 0-3.8.052-4.94.156v13.572h3.6c1.73 0 3.3-.087 4.68-.26s2.55-.503 3.48-.988c.97-.485 1.72-1.16 2.24-2.028.52-.9.78-2.08.78-3.536 0-1.352-.26-2.48-.78-3.38s-1.23-1.612-2.13-2.132c-.87-.52-1.9-.884-3.12-1.092-1.18-.208-2.45-.312-3.8-.312z" class="E"/><path d="M2323.47 458.284c-8.52-3.035-15.43-9.375-19.32-17.715-2.8-5.998-3.47-16.035-1.5-22.753 2.62-9.013 11.17-18.247 19.72-21.283l4.2-1.49v-13.51l-4.54-1.43c-9.06-2.857-18.54-10.885-23.4-19.82-6.15-11.305-6.15-27.882 0-39.187 4.87-8.933 14.35-16.962 23.4-19.82l4.54-1.43v-13.512l-4.2-1.49c-8.55-3.036-17.1-12.27-19.72-21.282-1.97-6.776-1.3-16.73 1.57-22.978 2.84-6.2 10-13.386 16.28-16.323 4.28-2.005 5.8-2.26 13.6-2.26s9.32.254 13.6 2.26c6.27 2.937 13.43 10.123 16.27 16.323 2.87 6.25 3.55 16.202 1.58 22.978-2.62 9.026-11.18 18.247-19.76 21.293l-4.23 1.502.48 13.19 4.4 1.12c5.87 1.497 10.06 3.723 15.75 8.355l4.73 3.855 3.45-1.913c1.9-1.052 4.7-2.696 6.24-3.653l2.8-1.74.13-8.77c.12-7.618.43-9.404 2.4-13.592 2.9-6.2 10.1-13.413 16.32-16.322 4.28-2.006 5.8-2.26 13.6-2.26 7.8 0 9.3.254 13.6 2.26 6.2 2.91 13.42 10.112 16.33 16.322 2 4.28 2.25 5.807 2.25 13.598s-.25 9.317-2.25 13.597c-2.9 6.2-10.12 13.413-16.33 16.323-4.28 2.005-5.8 2.26-13.6 2.26-9.9 0-14.02-1.347-20.6-6.735l-3.6-2.94-12.63 7.17.64 3.343c.84 4.335.84 17.51-.01 21.484l-.65 3.096 12.84 7.515 3.5-2.867c6.5-5.312 10.64-6.66 20.5-6.66 7.8 0 9.3.254 13.6 2.26 6.2 2.91 13.42 10.112 16.33 16.322 2 4.28 2.25 5.807 2.25 13.598s-.25 9.317-2.25 13.597c-2.9 6.2-10.12 13.413-16.33 16.323-4.28 2.005-5.8 2.26-13.6 2.26-7.8 0-9.32-.254-13.6-2.26-6.2-2.9-13.4-10.113-16.32-16.323-2.02-4.297-2.26-5.793-2.26-13.76v-8.938l-5.96-3.4c-3.28-1.865-6.2-3.39-6.5-3.39s-2.6 1.692-5.15 3.76c-5.57 4.54-9.8 6.77-15.63 8.26l-4.4 1.12-.48 13.19 4.23 1.502c8.58 3.047 17.14 12.267 19.76 21.294 1.97 6.776 1.3 16.728-1.58 22.977-2.86 6.245-10 13.402-16.27 16.283-6.45 2.97-17.7 3.53-24.2 1.208zm16.7-17.194c9.8-4.19 12.08-17.595 4.26-24.916-9.68-9.043-25.4-2.22-25.4 11.022 0 8.52 6.35 14.934 14.86 15.012 1.97.018 4.8-.485 6.27-1.118zm77.73-42.627c9.8-4.192 12.1-17.595 4.26-24.916-9.68-9.043-25.4-2.22-25.4 11.022 0 8.52 6.35 14.934 14.86 15.012 1.97.018 4.8-.485 6.27-1.118zm-74.15-35.355c5.52-1.882 12.12-8.486 14-14.01 3.15-9.263 1.1-18.434-5.65-25.182-9.57-9.565-23.98-9.565-33.54 0-6.75 6.748-8.8 15.92-5.65 25.182 1.8 5.284 8.5 12.14 13.66 13.958 4.97 1.754 12.1 1.775 17.17.05zm74.15-52.407c9.8-4.192 12.1-17.595 4.26-24.916-9.68-9.043-25.4-2.22-25.4 11.022 0 8.52 6.35 14.934 14.86 15.012 1.97.018 4.8-.485 6.27-1.118zm-77.73-42.627c9.8-4.192 12.08-17.595 4.26-24.916-9.68-9.044-25.4-2.22-25.4 11.02 0 8.52 6.35 14.935 14.86 15.013 1.97.018 4.8-.486 6.27-1.118zm214.35 131.466c-14.2-3.344-24.02-17.5-24.02-34.613 0-19.175 11.76-33.663 28.6-35.235 6.7-.626 13.03 1.087 18.9 5.118l4.24 2.912.25-3.114.26-3.114 15.46-.48v67.827l-15.46-.48-.26-2.717c-.14-1.494-.43-2.716-.63-2.716-.2 0-1.94 1.132-3.85 2.516-6.16 4.464-15.22 6.044-23.48 4.097zm16.2-14.25c8.04-2.693 12.74-10.2 12.7-20.324-.02-6.84-1.62-11.295-5.53-15.364-3.92-4.088-7.02-5.426-12.77-5.502-7.2-.096-12.3 3.108-15.8 9.933-4.9 9.578-2.62 22.688 4.94 28.453 4.77 3.642 10.85 4.678 16.45 2.804zm170.2 13.974c-12.08-3.248-21.5-15.8-22.86-30.438-1.47-15.88 5.92-30.38 18.68-36.62 3.98-1.95 5.85-2.334 11.48-2.356 7.78-.03 12.8 1.573 18.48 5.91l3.7 2.83v-7.574l15.46.48v66.866l-15.46.48v-6.766l-4.5 2.985c-7.83 5.2-16.1 6.592-25 4.204zm17.37-13.95c7.93-2.18 13.7-12.516 12.65-22.636-.82-7.848-4.36-13.816-9.86-16.622-7.1-3.622-14.38-2.748-20.1 2.4-4.8 4.325-6.7 9.01-6.7 16.595 0 15.017 10.58 23.942 24 20.253zM2472 340.72v-58.12h15.9v69.767l10.66-10.645 10.67-10.644h10.23c5.62 0 10.23.206 10.23.458s-6.4 6.74-14.22 14.418l-14.22 13.96 31.07 38.448-9.42.238c-5.17.13-9.86.065-10.4-.146s-5.9-6.605-11.88-14.208c-8.32-10.558-11.1-13.57-11.78-12.75-.52.628-1 6.425-1.12 13.97l-.23 12.897-15.47.48v-58.12zm143.5 57.502c-.3-.307-.56-12.155-.56-26.33v-25.77h-5v-15.045h5l.02-13.165c.03-23.56 2.06-30.112 10.75-34.65 3.7-1.93 5.52-2.335 10.52-2.335 3.32 0 7.23.413 8.68.918l2.63.917v16.4l-3.3-1.595c-3.35-1.617-8.06-2.08-9.74-.957-2.5 1.675-3.13 5.17-3.5 19.63l-.4 14.836h16.94v15.045h-16.72v52.657h-7.38c-4.06 0-7.63-.25-7.94-.557zm43.74-57.533v-58.1h15.88v69.767l21.34-21.29h10.23c5.62 0 10.22.302 10.22.672s-6.4 6.792-14.2 14.27l-14.2 13.598 15.46 19.13 15.46 19.58c0 .25-4.5.452-10 .452h-10l-11.07-14.16c-8.5-10.856-11.33-13.952-12.15-13.27-.8.653-1.07 4.392-1.07 14.16v13.27h-15.88v-58.1zm138.18 56.866c-2.78-1.208-5.28-4.975-5.28-7.956 0-8.49 9.95-12.924 16.14-7.19 4.7 4.36 3.4 12.763-2.33 15.163-3.54 1.48-5.1 1.476-8.53-.016zm8.64-2.062c3.16-1.925 4.27-5.695 2.75-9.346-1.02-2.484-4.52-4.92-7.06-4.92s-6.04 2.437-7.07 4.92c-3.08 7.447 4.4 13.598 11.38 9.346zm-7.24-6.326c0-5.78.66-6.484 4.24-4.568 1.9 1.024 2.15 4 .37 4.68-1.06.405-.98.855.47 2.9 2.04 2.862.54 3.317-1.78.54l-1.57-1.88-.03 1.88c-.01 1.034-.4 1.88-.86 1.88-.47 0-.84-2.37-.84-5.433zm3.77-2.1c0-.613-.48-1.27-1.05-1.463-.62-.207-1.04.386-1.04 1.463s.42 1.67 1.04 1.463c.57-.192 1.05-.85 1.05-1.463zm-303-83.896c0-1.546 9.4-19.833 9.9-19.255 1.4 1.62 8.72 18.764 8.23 19.255-.96.96-3.12-.462-3.93-2.59-.7-1.86-1.28-2.11-4.9-2.11-3.76 0-4.18.204-5.13 2.508-.64 1.528-1.66 2.507-2.6 2.507-.87 0-1.57-.14-1.57-.313zm11.67-8.254c-.05-1.778-2.2-5.08-2.75-4.203-.28.455-.9 1.822-1.35 3.038-.8 2.082-.7 2.2 1.64 2.2 1.45 0 2.48-.437 2.46-1.045zm10.06-1.045v-9.612l3.55.013c4.07.015 5 .473 6.42 3.197 1.46 2.77-.24 6.678-3.18 7.32-4.16.905-4.28 1.043-4.28 4.908 0 2.81-.33 3.787-1.26 3.787-1.04 0-1.25-1.625-1.25-9.612zm6.52-2.256c1.4-1.416 1.24-3.74-.32-4.34-2.86-1.097-3.7-.55-3.7 2.418 0 2.26.34 2.926 1.5 2.926.83 0 1.96-.452 2.5-1.003zm3.5 11.24c-.02-1.074 8.6-19.433 9.13-19.433.45 0 8.1 16.668 8.65 18.795.12.453-.46.953-1.27 1.1-1.04.2-1.76-.5-2.38-2.287-.84-2.4-1.18-2.573-4.98-2.573-3.68 0-4.2.242-5.37 2.508-1.15 2.23-3.74 3.517-3.78 1.88zm11.72-7.355c0-.252-.6-1.633-1.35-3.068-1.4-2.73-1.95-2.455-3.2 1.647-.5 1.667-.3 1.88 2 1.88 1.4 0 2.56-.207 2.56-.46zm12.62 6.925c-7.05-3.624-7.05-14.145 0-17.792 4.38-2.267 9.95-1.04 9.95 2.192 0 1.393-.27 1.527-1.62.806-2.5-1.347-6.36-1.022-8.5.717-1.47 1.193-1.95 2.426-1.95 5.01 0 5.676 3.72 8.117 9.78 6.4 1.8-.51 2.3-.366 2.3.668 0 2.796-6.03 4-9.95 1.988zm13.85.5c-.3-.306-.56-4.632-.56-9.612 0-8.498.1-9.055 1.67-9.055 1.4 0 1.67.557 1.67 3.344v3.343h8.36v-3.343c0-2.415.35-3.344 1.26-3.344 1.04 0 1.25 1.625 1.25 9.612s-.2 9.612-1.25 9.612c-.97 0-1.26-1.068-1.26-4.597V294.3h-8.36v4.597c0 3.274-.32 4.597-1.1 4.597-.6 0-1.37-.25-1.67-.557zm18.4 0c-.3-.306-.56-4.632-.56-9.612v-9.055h5.43c4.27 0 5.43.268 5.43 1.254 0 .93-.97 1.254-3.76 1.254-3.45 0-3.76.17-3.76 2.09s.3 2.1 3.76 2.1c3.2 0 3.76.248 3.76 1.672s-.55 1.67-3.76 1.67c-3.74 0-3.76.016-3.76 2.926s.02 2.925 3.76 2.925c3.2 0 3.76.248 3.76 1.672 0 1.48-.55 1.67-4.87 1.67-2.68 0-5.13-.25-5.43-.557z" fill="#000"/><path d="M2327.95 267.536c-4.9-2.2-8.54-7.925-8.57-13.52-.05-10.052 11.83-17.67 20.57-13.182 5.9 3.036 8.52 7.24 8.52 13.67 0 8.32-5.92 14.126-14.33 14.064-2.18-.016-4.96-.48-6.2-1.032h0zm.75 95.794c-6.35-1.526-14.25-9.673-16.12-16.618-2.8-10.446 2.9-22.368 13.15-27.407 5.43-2.67 14.14-2.596 19.38.166 4.77 2.5 8.96 6.706 11.42 11.44 2.62 5.06 2.8 13.928.4 19.177-2.08 4.526-7.6 10.004-12.02 11.966-3.98 1.758-11.68 2.365-16.2 1.276h0zm-.75 77.163c-7.27-3.834-10.38-11.67-7.43-18.736 3.63-8.684 14.25-11.874 21.9-6.576 8.75 6.058 7.83 20.4-1.6 24.97-3.9 1.9-9.65 2.043-12.87.343zm77.58-42.66c-8.64-4.042-11.17-15.283-5.07-22.53 5.27-6.27 15.23-7.003 21.4-1.58 4.4 3.85 5.7 12.17 2.8 17.827-3.33 6.543-12.3 9.484-19.15 6.28h0zm.02-87.74c-5.12-2.23-9.2-9.665-8.32-15.126 1.92-11.822 15.2-16.834 24.04-9.07 3.02 2.646 4.06 4.36 4.9 8.03 1.33 5.926-2.63 13.93-8.02 16.18-3.08 1.287-9.62 1.28-12.6-.013h0z" stroke-width=".893" class="B F"/><g fill="#707070"><path d="M2867.72 316.78v40.45h127.24v-40.45h-127.24z"/><path d="M2980.8 384.986v-92.822l46.4 46.41-46.4 46.41z"/></g><path d="M3269.48 217.657v4.284h-11.12V253h-4.95v-31.06h-11.1v-4.284h27.18zM3274.4 253v-38.76l4.74-.816V227c.88-.34 1.82-.595 2.8-.765 1.02-.204 2.02-.306 3-.306 2.1 0 3.86.306 5.26.918 1.4.578 2.5 1.41 3.3 2.5.85 1.054 1.45 2.33 1.8 3.825s.5 3.145.5 4.947V253h-4.75v-13.872c0-1.632-.1-3.026-.35-4.182-.2-1.156-.56-2.09-1.07-2.805s-1.2-1.224-2.04-1.53c-.85-.34-1.9-.5-3.17-.5-.5 0-1.03.034-1.58.102l-1.58.255-1.32.255-.82.255V253h-4.74zm33.88 0h-4.75v-26.52h4.75V253zm-2.4-31.314c-.85 0-1.58-.272-2.2-.816-.58-.578-.87-1.343-.87-2.295s.3-1.7.87-2.244a3.07 3.07 0 0 1 2.19-.867c.85 0 1.56.29 2.14.867.6.544.92 1.292.92 2.244s-.3 1.717-.92 2.295c-.58.544-1.3.816-2.14.816zm20.35 4.233c.4 0 .86.034 1.37.102a11.67 11.67 0 0 1 1.58.204l1.38.255c.44.068.77.136.97.204l-.82 4.13c-.37-.136-1-.29-1.88-.46-.85-.204-1.96-.306-3.32-.306-.88 0-1.77.102-2.65.306l-1.68.357V253h-4.75v-25.398c1.13-.408 2.52-.782 4.2-1.122 1.66-.374 3.53-.56 5.6-.56zm27 6.17c-.58-.476-1.4-.935-2.5-1.377s-2.28-.663-3.57-.663c-1.36 0-2.53.255-3.52.765a6.15 6.15 0 0 0-2.34 2.04c-.6.85-1.06 1.87-1.33 3.06s-.4 2.465-.4 3.825c0 3.094.77 5.49 2.3 7.19 1.53 1.666 3.57 2.5 6.12 2.5l3.2-.153 2.04-.408V232.1zm0-17.85l4.74-.816v38.81c-1.08.306-2.48.612-4.18.918s-3.65.46-5.86.46c-2.04 0-3.88-.323-5.5-.97s-3.03-1.564-4.18-2.754c-1.16-1.2-2.06-2.635-2.7-4.335-.6-1.734-.9-3.672-.9-5.814 0-2.04.25-3.9.76-5.6.55-1.7 1.33-3.162 2.35-4.386s2.26-2.176 3.72-2.856c1.5-.68 3.2-1.02 5.1-1.02 1.53 0 2.87.204 4.03.612 1.2.408 2.07.8 2.65 1.173V214.24zm10.14 21.267h12.6v4.437h-12.6v-4.437zm36.4 4.284c0-3.094-.77-5.474-2.3-7.14s-3.57-2.5-6.12-2.5l-3.36.153c-.78.102-1.4.22-1.9.357V247.4c.58.476 1.4.935 2.5 1.377s2.28.663 3.57.663c1.36 0 2.52-.238 3.47-.714a6.81 6.81 0 0 0 2.4-2.04c.6-.884 1.05-1.904 1.32-3.06.27-1.2.4-2.465.4-3.825zm4.95 0c0 2.006-.28 3.86-.82 5.56-.5 1.7-1.27 3.162-2.3 4.386s-2.28 2.176-3.78 2.856c-1.46.68-3.14 1.02-5.05 1.02-1.53 0-2.9-.204-4.08-.612-1.15-.408-2.02-.8-2.6-1.173v10.608h-4.74v-35.14l4.18-.867c1.7-.34 3.66-.5 5.87-.5 2.04 0 3.87.323 5.5.97 1.64.646 3.03 1.564 4.2 2.754 1.15 1.2 2.04 2.652 2.65 4.386.64 1.7.97 3.62.97 5.763zm15.65 9.792l2.95-.05c.9-.068 1.62-.17 2.2-.306v-7.905c-.34-.17-.9-.306-1.7-.408-.74-.136-1.66-.204-2.75-.204-.7 0-1.48.05-2.3.153-.8.102-1.52.323-2.2.663-.64.306-1.2.748-1.63 1.326-.44.544-.66 1.275-.66 2.193 0 1.7.54 2.9 1.63 3.57 1.1.646 2.57.97 4.44.97zm-.4-23.766c1.9 0 3.5.255 4.8.765 1.33.476 2.38 1.173 3.16 2.09.82.884 1.4 1.955 1.74 3.213.34 1.224.5 2.584.5 4.08v16.575l-1.74.306-2.44.306-3 .255-3.16.153c-1.5 0-2.88-.153-4.14-.46-1.25-.306-2.34-.782-3.26-1.428-.92-.68-1.63-1.564-2.14-2.652s-.77-2.397-.77-3.927c0-1.462.3-2.72.87-3.774.6-1.054 1.43-1.904 2.45-2.55s2.2-1.122 3.57-1.428a19.47 19.47 0 0 1 4.28-.459 11.16 11.16 0 0 1 1.48.102c.5.034 1 .102 1.43.204l1.22.204.72.153v-1.326c0-.782-.1-1.547-.26-2.295-.17-.782-.47-1.462-.92-2.04-.44-.612-1.05-1.088-1.83-1.428-.75-.374-1.74-.56-2.96-.56-1.56 0-2.94.12-4.13.357-1.16.204-2.02.425-2.6.663l-.56-3.927c.6-.272 1.63-.527 3.06-.765 1.43-.272 2.97-.408 4.64-.408zm27.87.102c.4 0 .87.034 1.38.102a11.88 11.88 0 0 1 1.58.204 12.06 12.06 0 0 1 1.37.255c.45.068.77.136.97.204l-.8 4.13c-.38-.136-1-.29-1.9-.46-.85-.204-1.96-.306-3.32-.306a11.81 11.81 0 0 0-2.65.306l-1.68.357V253h-4.74v-25.398c1.12-.408 2.5-.782 4.18-1.122 1.66-.374 3.53-.56 5.6-.56zm14.32.56h10.04v3.978h-10.04v12.24c0 1.326.1 2.43.3 3.315.2.85.5 1.53.92 2.04.4.476.92.816 1.53 1.02s1.33.306 2.14.306c1.43 0 2.57-.153 3.42-.46l1.83-.714.92 3.927c-.47.238-1.3.527-2.5.867-1.2.374-2.55.56-4.08.56-1.8 0-3.3-.22-4.48-.663-1.16-.476-2.1-1.173-2.8-2.09s-1.22-2.04-1.53-3.366c-.27-1.36-.4-2.924-.4-4.692v-23.664l4.75-.816v8.21zm12.97 31.467c.37.17.85.323 1.43.46.6.17 1.2.255 1.78.255 1.87 0 3.33-.425 4.4-1.275 1.05-.816 2-2.16 2.85-4.03-2.14-4.08-4.15-8.398-6.02-12.954-1.83-4.6-3.36-9.23-4.6-13.923h5.1a137.02 137.02 0 0 0 1.33 4.947c.54 1.768 1.14 3.587 1.8 5.457.64 1.87 1.34 3.74 2.1 5.6.74 1.87 1.53 3.672 2.34 5.406 1.3-3.57 2.42-7.106 3.37-10.608s1.85-7.106 2.7-10.812h4.9a213.09 213.09 0 0 1-4.08 14.433c-1.5 4.6-3.1 8.89-4.85 12.903-.68 1.53-1.4 2.84-2.14 3.927-.7 1.122-1.5 2.04-2.4 2.754-.88.714-1.88 1.24-3 1.58-1.08.34-2.32.5-3.72.5a7.16 7.16 0 0 1-1.17-.102c-.4-.034-.82-.102-1.23-.204a10.08 10.08 0 0 1-1.07-.255c-.3-.102-.52-.187-.66-.255l.87-3.825zM3240.6 291.1c-.58-.476-1.4-.935-2.5-1.377s-2.28-.663-3.57-.663c-1.36 0-2.53.255-3.52.765-.95.476-1.73 1.156-2.35 2.04-.6.85-1.05 1.87-1.32 3.06s-.4 2.465-.4 3.825c0 3.094.77 5.49 2.3 7.19 1.53 1.666 3.57 2.5 6.12 2.5 1.3 0 2.36-.05 3.2-.153.88-.136 1.56-.272 2.04-.408V291.1zm0-17.85l4.74-.816v38.81c-1.1.306-2.48.612-4.18.918s-3.66.46-5.87.46c-2.04 0-3.87-.323-5.5-.97-1.64-.646-3.03-1.564-4.2-2.754-1.15-1.2-2.05-2.635-2.7-4.335-.6-1.734-.92-3.672-.92-5.814 0-2.04.26-3.9.77-5.6.54-1.7 1.32-3.162 2.34-4.386s2.27-2.176 3.73-2.856c1.5-.68 3.2-1.02 5.1-1.02 1.53 0 2.87.204 4.03.612 1.2.408 2.07.8 2.65 1.173V273.24zm36.3 25.5c0 2.108-.3 4.012-.9 5.712-.62 1.7-1.48 3.162-2.6 4.386-1.08 1.224-2.4 2.176-3.92 2.856-1.53.646-3.2.97-5 .97s-3.47-.323-5-.97c-1.53-.68-2.85-1.632-3.98-2.856-1.08-1.224-1.93-2.686-2.55-4.386-.6-1.7-.9-3.604-.9-5.712 0-2.074.3-3.96.9-5.66.62-1.734 1.47-3.213 2.55-4.437 1.13-1.224 2.45-2.16 3.98-2.805 1.53-.68 3.2-1.02 5-1.02s3.47.34 5 1.02c1.53.646 2.84 1.58 3.92 2.805 1.13 1.224 2 2.703 2.6 4.437.6 1.7.9 3.587.9 5.66zm-4.94 0c0-2.992-.68-5.355-2.04-7.09-1.33-1.768-3.15-2.652-5.46-2.652s-4.15.884-5.5 2.652c-1.32 1.734-2 4.097-2 7.09s.67 5.372 2 7.14c1.36 1.734 3.2 2.6 5.5 2.6s4.13-.867 5.46-2.6c1.36-1.768 2.04-4.148 2.04-7.14zM3304.6 312c-.95-2.448-1.97-5.236-3.06-8.364-1.05-3.162-2.02-6.443-2.9-9.843a158.98 158.98 0 0 1-2.91 9.843c-1.05 3.128-2.06 5.916-3 8.364h-4.13c-1.56-3.502-3.1-7.497-4.6-11.985s-2.9-9.333-4.23-14.535h5.1c.34 1.598.75 3.332 1.22 5.202l1.48 5.6a154.77 154.77 0 0 0 1.68 5.406c.58 1.734 1.13 3.247 1.64 4.54.57-1.598 1.13-3.28 1.68-5.05a158.58 158.58 0 0 0 1.63-5.406l1.43-5.355c.47-1.768.88-3.417 1.22-4.947h3.93a115.36 115.36 0 0 0 1.12 4.947l1.43 5.355 1.58 5.406 1.73 5.05c.5-1.292 1.04-2.805 1.6-4.54.57-1.734 1.13-3.536 1.68-5.406l1.53-5.6c.47-1.87.88-3.604 1.22-5.202h4.9c-1.33 5.202-2.74 10.047-4.23 14.535-1.5 4.488-3.03 8.483-4.6 11.985h-4.14zm17.97-25.755c1.1-.272 2.54-.56 4.34-.867s3.87-.46 6.22-.46c2.1 0 3.86.306 5.25.918 1.4.578 2.5 1.41 3.32 2.5.85 1.054 1.44 2.33 1.78 3.825s.5 3.145.5 4.947V312h-4.74v-13.872c0-1.632-.12-3.026-.36-4.182-.2-1.156-.56-2.09-1.07-2.805s-1.2-1.224-2.04-1.53c-.85-.34-1.9-.5-3.16-.5a25.23 25.23 0 0 0-1.58.051 22.87 22.87 0 0 0-1.58.153 14.29 14.29 0 0 0-1.33.153l-.8.153V312h-4.75v-25.755zm35.46 22.338c1.94 0 3.37-.255 4.28-.765.96-.5 1.43-1.326 1.43-2.448a3.26 3.26 0 0 0-1.37-2.754c-.92-.68-2.44-1.445-4.54-2.295l-2.96-1.224c-.92-.442-1.72-.952-2.4-1.53a6.59 6.59 0 0 1-1.63-2.091c-.4-.816-.6-1.82-.6-3.01 0-2.346.86-4.2 2.6-5.56 1.73-1.394 4.1-2.09 7.1-2.09a16.53 16.53 0 0 1 2.24.153c.75.068 1.45.17 2.1.306.65.102 1.2.22 1.7.357.5.136.9.255 1.17.357l-.87 4.08c-.5-.272-1.3-.544-2.4-.816-1.08-.306-2.4-.46-3.92-.46-1.33 0-2.48.272-3.47.816-1 .5-1.48 1.326-1.48 2.448 0 .578.1 1.088.3 1.53.23.442.57.85 1.02 1.224.47.34 1.05.663 1.73.97s1.5.63 2.45.97c1.26.476 2.38.952 3.36 1.428 1 .442 1.82.97 2.5 1.58a6 6 0 0 1 1.64 2.244c.37.85.56 1.904.56 3.162 0 2.448-.92 4.3-2.76 5.56-1.8 1.258-4.38 1.887-7.75 1.887-2.35 0-4.18-.204-5.5-.612-1.32-.374-2.22-.663-2.7-.867l.87-4.08c.54.204 1.4.5 2.6.918s2.77.612 4.74.612zm21.03-23.103h10.04v3.978h-10.04v12.24c0 1.326.1 2.43.3 3.315.2.85.5 1.53.92 2.04.4.476.92.816 1.53 1.02s1.33.306 2.14.306c1.43 0 2.57-.153 3.42-.46l1.84-.714.9 3.927c-.47.238-1.3.527-2.5.867-1.2.374-2.55.56-4.08.56-1.8 0-3.3-.22-4.48-.663-1.16-.476-2.1-1.173-2.8-2.09-.7-.918-1.22-2.04-1.53-3.366-.27-1.36-.4-2.924-.4-4.692v-23.664l4.75-.816v8.21zm25.87-.56c.4 0 .87.034 1.38.102a11.88 11.88 0 0 1 1.58.204 12.7 12.7 0 0 1 1.38.255c.44.068.76.136.97.204l-.82 4.13c-.37-.136-1-.29-1.9-.46-.85-.204-1.95-.306-3.3-.306-.9 0-1.77.102-2.65.306l-1.7.357V312h-4.74v-25.398c1.12-.408 2.52-.782 4.18-1.122 1.67-.374 3.54-.56 5.6-.56zm8.4 13.872c0-2.346.34-4.386 1.02-6.12.68-1.768 1.58-3.23 2.7-4.386 1.12-1.156 2.4-2.023 3.87-2.6a12.11 12.11 0 0 1 4.49-.867c3.57 0 6.3 1.122 8.2 3.366 1.9 2.2 2.86 5.593 2.86 10.15v.816a7.88 7.88 0 0 1-.05.867h-18.16c.2 2.754 1 4.845 2.4 6.273 1.4 1.428 3.57 2.142 6.53 2.142 1.66 0 3.06-.136 4.18-.408 1.15-.306 2.02-.595 2.6-.867l.66 3.978c-.58.306-1.6.63-3.06.97-1.43.34-3.06.5-4.9.5-2.32 0-4.32-.34-6.02-1.02-1.67-.714-3.05-1.683-4.13-2.907-1.1-1.224-1.9-2.67-2.45-4.335-.5-1.7-.77-3.553-.77-5.56zm18.2-2.6c.03-2.142-.5-3.893-1.63-5.253-1.1-1.394-2.6-2.09-4.54-2.09-1.1 0-2.06.22-2.9.663a6.65 6.65 0 0 0-2.09 1.632c-.58.68-1.04 1.462-1.38 2.346-.3.884-.5 1.785-.6 2.703h13.16zm20.74 12.393a74.71 74.71 0 0 0 2.95-.051c.9-.068 1.62-.17 2.2-.306v-7.905c-.34-.17-.9-.306-1.7-.408-.74-.136-1.66-.204-2.75-.204-.7 0-1.48.05-2.3.153-.8.102-1.52.323-2.2.663-.64.306-1.2.748-1.63 1.326-.44.544-.66 1.275-.66 2.193 0 1.7.54 2.9 1.63 3.57 1.1.646 2.57.97 4.44.97zm-.4-23.766c1.9 0 3.5.255 4.8.765 1.33.476 2.38 1.173 3.16 2.09.82.884 1.4 1.955 1.74 3.213.34 1.224.5 2.584.5 4.08v16.575l-1.74.306c-.7.102-1.53.204-2.44.306a62.97 62.97 0 0 1-3.01.255 32.92 32.92 0 0 1-3.16.153c-1.5 0-2.88-.153-4.14-.46-1.25-.306-2.34-.782-3.26-1.428-.92-.68-1.63-1.564-2.14-2.652s-.77-2.397-.77-3.927c0-1.462.3-2.72.87-3.774.6-1.054 1.43-1.904 2.45-2.55s2.2-1.122 3.57-1.428a19.47 19.47 0 0 1 4.28-.459 11.16 11.16 0 0 1 1.48.102c.5.034 1 .102 1.43.204a21.94 21.94 0 0 1 1.22.204l.72.153v-1.326c0-.782-.1-1.547-.26-2.295-.17-.782-.47-1.462-.92-2.04-.44-.612-1.05-1.088-1.83-1.428-.75-.374-1.74-.56-2.96-.56-1.56 0-2.94.12-4.13.357-1.16.204-2.02.425-2.6.663l-.56-3.927c.6-.272 1.63-.527 3.06-.765 1.43-.272 2.97-.408 4.64-.408zm18.08 1.428c1.08-.272 2.5-.56 4.28-.867 1.8-.306 3.88-.46 6.22-.46 1.7 0 3.13.238 4.3.714a7.29 7.29 0 0 1 2.9 1.989c.24-.17.6-.408 1.12-.714s1.14-.595 1.9-.867c.75-.306 1.58-.56 2.5-.765.92-.238 1.9-.357 2.96-.357 2.04 0 3.7.306 5 .918 1.3.578 2.3 1.41 3 2.5.74 1.088 1.24 2.38 1.47 3.876.28 1.496.4 3.128.4 4.896V312h-4.74v-13.872c0-1.564-.1-2.907-.26-4.03-.13-1.122-.42-2.057-.86-2.805-.4-.748-1-1.292-1.74-1.632-.7-.374-1.65-.56-2.8-.56-1.6 0-2.93.22-3.98.663-1.02.408-1.72.782-2.1 1.122.27.884.48 1.853.6 2.907.14 1.054.2 2.16.2 3.315V312h-4.75v-13.872c0-1.564-.08-2.907-.25-4.03s-.48-2.057-.92-2.805a3.7 3.7 0 0 0-1.73-1.632c-.72-.374-1.64-.56-2.76-.56a24.91 24.91 0 0 0-1.53.051 22.87 22.87 0 0 0-1.58.153 14.29 14.29 0 0 0-1.33.153c-.4.068-.68.12-.8.153V312h-4.74v-25.755zm-179.22 71.546c0-3.094-.76-5.474-2.3-7.14s-3.57-2.5-6.12-2.5c-1.43 0-2.55.05-3.37.153-.78.102-1.4.22-1.9.357V365.4c.58.476 1.4.935 2.5 1.377s2.28.663 3.57.663c1.36 0 2.52-.238 3.47-.714 1-.5 1.8-1.2 2.4-2.04.6-.884 1.05-1.904 1.32-3.06.28-1.2.4-2.465.4-3.825zm4.95 0c0 2.006-.27 3.86-.82 5.56-.5 1.7-1.27 3.162-2.3 4.386s-2.28 2.176-3.78 2.856c-1.46.68-3.14 1.02-5.05 1.02-1.53 0-2.9-.204-4.08-.612-1.15-.408-2.02-.8-2.6-1.173v10.608h-4.74v-35.14c1.12-.272 2.52-.56 4.18-.867 1.7-.34 3.66-.5 5.87-.5 2.04 0 3.87.323 5.5.97 1.63.646 3.02 1.564 4.18 2.754 1.15 1.2 2.04 2.652 2.65 4.386.65 1.7.97 3.62.97 5.763zm14.63 13.72c-2.92-.068-5-.697-6.22-1.887-1.23-1.2-1.84-3.043-1.84-5.56V332.24l4.74-.816V363.3c0 .782.07 1.428.2 1.938.13.5.36.918.66 1.224.3.306.72.544 1.23.714.5.136 1.13.255 1.88.357l-.66 3.978zm14.96-3.927c1.13 0 2.1-.017 2.96-.05.9-.068 1.62-.17 2.2-.306v-7.905c-.34-.17-.9-.306-1.7-.408-.75-.136-1.66-.204-2.75-.204-.72 0-1.48.05-2.3.153-.78.102-1.5.323-2.2.663a4.35 4.35 0 0 0-1.63 1.326c-.44.544-.66 1.275-.66 2.193 0 1.7.54 2.9 1.63 3.57 1.1.646 2.56.97 4.43.97zm-.4-23.766c1.9 0 3.5.255 4.8.765 1.33.476 2.38 1.173 3.16 2.09.82.884 1.4 1.955 1.74 3.213.34 1.224.5 2.584.5 4.08v16.575l-1.74.306a77.77 77.77 0 0 1-2.45.306c-.9.102-1.92.187-3 .255-1.06.102-2.1.153-3.17.153-1.5 0-2.87-.153-4.13-.46s-2.34-.782-3.26-1.428c-.92-.68-1.63-1.564-2.14-2.652s-.77-2.397-.77-3.927c0-1.462.3-2.72.87-3.774.6-1.054 1.43-1.904 2.45-2.55s2.2-1.122 3.57-1.428 2.78-.46 4.28-.46a11.16 11.16 0 0 1 1.48.102c.5.034 1 .102 1.43.204.47.068.88.136 1.22.204l.72.153v-1.326c0-.782-.1-1.547-.26-2.295-.17-.782-.48-1.462-.92-2.04-.44-.612-1.05-1.088-1.83-1.428-.75-.374-1.74-.56-2.96-.56-1.57 0-2.94.12-4.13.357-1.16.204-2.03.425-2.6.663l-.56-3.927c.6-.272 1.63-.527 3.06-.765 1.42-.272 2.97-.408 4.64-.408zm22.5.663h10.05v3.978h-10.05v12.24c0 1.326.1 2.43.3 3.315.2.85.5 1.53.92 2.04a3.3 3.3 0 0 0 1.53 1.02c.6.204 1.32.306 2.14.306 1.43 0 2.56-.153 3.4-.46l1.84-.714.92 3.927c-.48.238-1.3.527-2.5.867-1.2.374-2.55.56-4.08.56-1.8 0-3.3-.22-4.5-.663-1.15-.476-2.1-1.173-2.8-2.09-.72-.918-1.23-2.04-1.53-3.366-.28-1.36-.4-2.924-.4-4.692v-23.664l4.74-.816v8.21zm26.44-13.056c1.4 0 2.58.102 3.57.306 1.02.204 1.73.39 2.14.56l-.87 4.08c-.4-.204-.98-.39-1.73-.56-.75-.204-1.67-.306-2.76-.306-2.2 0-3.75.612-4.64 1.836-.88 1.2-1.32 2.805-1.32 4.845v2.295h10.2v3.978h-10.2V371h-4.75v-28.917c0-3.4.84-6.018 2.5-7.854 1.67-1.87 4.3-2.805 7.86-2.805zm32.73 26.316c0 2.108-.3 4.012-.92 5.712s-1.48 3.162-2.6 4.386a11.39 11.39 0 0 1-3.93 2.856c-1.53.646-3.2.97-5 .97s-3.47-.323-5-.97c-1.53-.68-2.85-1.632-3.97-2.856-1.1-1.224-1.94-2.686-2.55-4.386-.62-1.7-.92-3.604-.92-5.712 0-2.074.3-3.96.92-5.66.6-1.734 1.46-3.213 2.55-4.437 1.12-1.224 2.44-2.16 3.97-2.805 1.53-.68 3.2-1.02 5-1.02s3.47.34 5 1.02c1.53.646 2.84 1.58 3.93 2.805 1.12 1.224 2 2.703 2.6 4.437.6 1.7.92 3.587.92 5.66zm-4.95 0c0-2.992-.68-5.355-2.04-7.09-1.33-1.768-3.15-2.652-5.46-2.652s-4.15.884-5.5 2.652c-1.32 1.734-2 4.097-2 7.09s.67 5.372 2 7.14c1.36 1.734 3.2 2.6 5.5 2.6s4.13-.867 5.46-2.6c1.36-1.768 2.04-4.148 2.04-7.14zm21.4-13.82c.4 0 .87.034 1.38.102a11.88 11.88 0 0 1 1.58.204 12.7 12.7 0 0 1 1.38.255c.44.068.76.136.96.204l-.8 4.13c-.38-.136-1-.29-1.9-.46-.85-.204-1.95-.306-3.3-.306a11.83 11.83 0 0 0-2.66.306l-1.68.357V371h-4.74v-25.398c1.12-.408 2.5-.782 4.18-1.122 1.67-.374 3.54-.56 5.6-.56zm9.88 1.326c1.1-.272 2.52-.56 4.3-.867 1.8-.306 3.87-.46 6.22-.46 1.7 0 3.13.238 4.28.714 1.16.442 2.13 1.105 2.9 1.99.24-.17.6-.408 1.12-.714s1.14-.595 1.9-.867c.75-.306 1.58-.56 2.5-.765.9-.238 1.9-.357 2.95-.357 2.04 0 3.7.306 5 .918 1.3.578 2.3 1.41 3 2.5.75 1.088 1.24 2.38 1.48 3.876.27 1.496.4 3.128.4 4.896V371h-4.74v-13.872c0-1.564-.1-2.907-.26-4.03-.14-1.122-.42-2.057-.87-2.805a3.61 3.61 0 0 0-1.73-1.632c-.7-.374-1.65-.56-2.8-.56-1.6 0-2.92.22-3.97.663-1.02.408-1.72.782-2.1 1.122.27.884.47 1.853.6 2.907.13 1.054.2 2.16.2 3.315V371h-4.74v-13.872c0-1.564-.1-2.907-.26-4.03s-.47-2.057-.9-2.805c-.4-.748-1-1.292-1.74-1.632-.7-.374-1.63-.56-2.75-.56a24.41 24.41 0 0 0-1.53.051 22.28 22.28 0 0 0-1.58.153 14.29 14.29 0 0 0-1.33.153 13.55 13.55 0 0 0-.82.153V371h-4.74v-25.755z" class="E"/><path d="M624.962 418.242H3.04V1495.76h621.923V418.242z" stroke="#1377ed" stroke-width="5" stroke-dasharray="15 15"/><defs ><path id="B" d="M1857.76 213.543h-685.93c-5.53 0-10 4.477-10 10v235.9c0 5.523 4.47 10 10 10h685.93c5.52 0 10-4.477 10-10v-235.9c0-5.523-4.48-10-10-10z"/><path id="C" d="M3201.2 867.483h12.1v12.09h-12.1v-12.09z"/></defs></svg>
