<?xml version="1.0" encoding="utf-8"?>
<svg xmlns:dc="http://purl.org/dc/elements/1.1/" xmlns:cc="http://creativecommons.org/ns#" xmlns:rdf="http://www.w3.org/1999/02/22-rdf-syntax-ns#" xmlns:svg="http://www.w3.org/2000/svg" xmlns:xlink="http://www.w3.org/1999/xlink" xmlns="http://www.w3.org/2000/svg" version="1.2" width="523" height="381.730876623" viewBox="0, 0, 523, 381.730876623">
   <defs>
      <marker orient="auto" refX="0.0" refY="0.0" id="86B51C2E_end_arrow" style="overflow:visible" markerUnits="userSpaceOnUse">
         <path style="fill:#000000;stroke:#000000;fill-rule:nonzero;stroke-linecap:square;stroke-linejoin:miter;stroke-width:0.5;stroke-miterlimit:10" d="M0,0 L-7.517540966287,2.736161146605 L-7.517540966287,-2.736161146605 z"/>
      </marker>
      <marker orient="auto" refX="0.0" refY="0.0" id="DDEB095E_start_arrow" style="overflow:visible" markerUnits="userSpaceOnUse">
         <path style="fill:#000000;stroke:#000000;fill-rule:nonzero;stroke-linecap:square;stroke-linejoin:miter;stroke-width:0.25;stroke-miterlimit:10" d="M0,0 L7.517540966287,-2.736161146605 L7.517540966287,2.736161146605 z"/>
      </marker>
      <marker orient="auto" refX="0.0" refY="0.0" id="DDEB095E_end_arrow" style="overflow:visible" markerUnits="userSpaceOnUse">
         <path style="fill:#000000;stroke:#000000;fill-rule:nonzero;stroke-linecap:square;stroke-linejoin:miter;stroke-width:0.25;stroke-miterlimit:10" d="M0,0 L-7.517540966287,2.736161146605 L-7.517540966287,-2.736161146605 z"/>
      </marker>
   </defs>
   <metadata>
      
   </metadata>
   <g style="fill:#000000;stroke:#000000;fill-rule:nonzero;stroke-linecap:square;stroke-linejoin:miter;stroke-width:1;stroke-miterlimit:10">
      <line style="fill:none" x1="108.5" y1="325" x2="234.5" y2="325"/>
      <line style="fill:none" x1="468.5" y1="145" x2="468.5" y2="217"/>
      <line style="fill:none;stroke-width:2;marker-end:url(#86B51C2E_end_arrow)" x1="54.5" y1="73" x2="54.5" y2="163"/>
      <path style="fill:#F7FFBF;stroke-width:2" id="Up Drum" d="M18.5,10 C18.5,14.5 36.5,19 54.5,19 C72.5,19 90.5,14.5 90.5,10 C90.5,5.5 72.5,1 54.5,1 C36.5,1 18.5,5.5 18.5,10 C18.5,28 18.5,46 18.5,64 C18.5,68.5 36.5,73 54.5,73 C72.5,73 90.5,68.5 90.5,64 C90.5,46 90.5,28 90.5,10"/>
      <g>
         <text style="stroke:none" x="54" y="29" font-family="Helvetica" font-size="12" font-weight="bold" font-style="normal"> </text>
         <text style="stroke:none" x="41.6630859375" y="40" font-family="Helvetica" font-size="12" font-weight="bold" font-style="normal">data </text>
         <text style="stroke:none" x="34.32421875" y="54" font-family="Helvetica" font-size="12" font-weight="bold" font-style="normal">source</text>
      </g>
      <rect style="fill:#BFE6FF;stroke-linecap:butt;stroke-width:2" x="18.5" y="163" width="108" height="36" rx="6.761756079604" ry="6.761756079604"/>
      <text style="stroke:none" x="33.6826171875" y="184" font-family="Helvetica" font-size="12" font-weight="bold" font-style="normal">tidb-lightning</text>
      <rect style="fill:#BFE6FF;stroke-linecap:butt;stroke-width:2" x="216.5" y="163" width="108" height="36" rx="6.761756079604" ry="6.761756079604"/>
      <text style="stroke:none" x="233.326171875" y="184" font-family="Helvetica" font-size="12" font-weight="bold" font-style="normal">tikv-importer</text>
      <rect style="fill:#BFCEFF;stroke-linecap:butt" x="18.5" y="307" width="90" height="36" rx="6.761756079604" ry="6.761756079604"/>
      <text style="stroke:none" x="35.33203125" y="328" font-family="Helvetica" font-size="12" font-weight="normal" font-style="normal">tikv-server</text>
      <rect style="fill:#BFFEFF;stroke-linecap:butt" x="162.5" y="19" width="72" height="36" rx="6.761756079604" ry="6.761756079604"/>
      <text style="stroke:none" x="169.658203125" y="40" font-family="Helvetica" font-size="12" font-weight="normal" font-style="normal">tidb-server</text>
      <rect style="fill:#BFFEFF;stroke-linecap:butt" x="252.5" y="19" width="72" height="36" rx="6.761756079604" ry="6.761756079604"/>
      <text style="stroke:none" x="259.658203125" y="40" font-family="Helvetica" font-size="12" font-weight="normal" font-style="normal">tidb-server</text>
      <rect style="fill:#FFEFBF;stroke-linecap:butt" x="432.5" y="109" width="72" height="36" rx="6.761756079604" ry="6.761756079604"/>
      <text style="stroke:none" x="442.658203125" y="130" font-family="Helvetica" font-size="12" font-weight="normal" font-style="normal">pd-server</text>
      <rect style="fill:#FFEFBF;stroke-linecap:butt" x="432.5" y="163" width="72" height="36" rx="6.761756079604" ry="6.761756079604"/>
      <text style="stroke:none" x="442.658203125" y="184" font-family="Helvetica" font-size="12" font-weight="normal" font-style="normal">pd-server</text>
      <rect style="fill:#FFEFBF;stroke-linecap:butt" x="432.5" y="217" width="72" height="36" rx="6.761756079604" ry="6.761756079604"/>
      <text style="stroke:none" x="442.658203125" y="238" font-family="Helvetica" font-size="12" font-weight="normal" font-style="normal">pd-server</text>
      <rect style="fill:#BFCEFF;stroke-linecap:butt" x="126.5" y="307" width="90" height="36" rx="6.761756079604" ry="6.761756079604"/>
      <text style="stroke:none" x="143.33203125" y="328" font-family="Helvetica" font-size="12" font-weight="normal" font-style="normal">tikv-server</text>
      <rect style="fill:#BFCEFF;stroke-linecap:butt" x="234.5" y="307" width="90" height="36" rx="6.761756079604" ry="6.761756079604"/>
      <text style="stroke:none" x="251.33203125" y="328" font-family="Helvetica" font-size="12" font-weight="normal" font-style="normal">tikv-server</text>
      <rect style="fill:none;stroke-dasharray:10,10" x="0.5" y="145" width="342" height="72"/>
      <rect style="fill:none;stroke-dasharray:10,10" x="0.5" y="289" width="342" height="72"/>
      <line style="fill:none;stroke-width:2;marker-end:url(#86B51C2E_end_arrow)" x1="126.5" y1="181" x2="216.5" y2="181"/>
      <path style="fill:#FFFFFF" id="Paper" d="M179.869973298,163 L157.2080922,163 L157.2080922,199 L187.4480922,199 L187.4480922,170.578118902 L179.869973298,163 L178.869973298,163 L179.369973298,163 L179.369973298,170.578118902 L186.9480922,170.578118902"/>
      <g>
         <text style="stroke:none" x="166.4921547" y="178" font-family="Helvetica" font-size="8" font-weight="normal" font-style="normal">KV </text>
         <text style="stroke:none" x="163.158170325" y="188" font-family="Helvetica" font-size="8" font-weight="normal" font-style="normal">pairs</text>
      </g>
      <path style="fill:#FFFFFF" id="Paper" d="M61.9776804448,91 L39.3157993472,91 L39.3157993472,127 L69.5557993472,127 L69.5557993472,98.5781189024 L61.9776804448,91 L60.9776804448,91 L61.4776804448,91 L61.4776804448,98.5781189024 L69.0557993472,98.5781189024"/>
      <g>
         <text style="stroke:none" x="46.0783774722" y="106" font-family="Helvetica" font-size="8" font-weight="normal" font-style="normal">SQL </text>
         <text style="stroke:none" x="43.9299399722" y="116" font-family="Helvetica" font-size="8" font-weight="normal" font-style="normal">dump</text>
      </g>
      <text style="stroke:none" x="5.5" y="230.730876623" font-family="Helvetica" font-size="12" font-weight="normal" font-style="italic">TiDB-Lightning Tool Set</text>
      <text style="stroke:none" x="275.5" y="87.1126700941" font-family="Helvetica" font-size="12" font-weight="normal" font-style="italic">TiDB Cluster</text>
      <text style="stroke:none" x="5.5" y="374.730876623" font-family="Helvetica" font-size="12" font-weight="normal" font-style="italic">TiKV Cluster</text>
      <text style="stroke:none" x="419.5" y="285.112670094" font-family="Helvetica" font-size="12" font-weight="normal" font-style="italic">PD Cluster</text>
      <line style="fill:none;stroke-width:2;marker-end:url(#86B51C2E_end_arrow)" x1="270.5" y1="199" x2="270.5" y2="307"/>
      <path style="fill:#FFFFFF" id="Paper" d="M277.977680445,229.368401306 L255.315799347,229.368401306 L255.315799347,274.008401306 L285.555799347,274.008401306 L285.555799347,236.946520208 L277.977680445,229.368401306 L276.977680445,229.368401306 L277.477680445,229.368401306 L277.477680445,236.946520208 L285.055799347,236.946520208"/>
      <g>
         <text kerning="-0.625" style="stroke:none" x="260.025643097" y="243.688401306" font-family="Helvetica" font-size="8" font-weight="normal" font-style="normal">Sorted</text>
         <text kerning="0" style="stroke:none" x="260.025643097" y="243.688401306" font-family="Helvetica" font-size="8" font-weight="normal" font-style="normal"> </text>
         <text kerning="0" style="stroke:none" x="264.599861847" y="253.688401306" font-family="Helvetica" font-size="8" font-weight="normal" font-style="normal">KV </text>
         <text kerning="0" style="stroke:none" x="261.265877472" y="263.688401306" font-family="Helvetica" font-size="8" font-weight="normal" font-style="normal">pairs</text>
      </g>
      <rect style="fill:none;stroke-dasharray:10,10" x="144.5" y="1" width="198" height="72"/>
      <rect style="fill:none;stroke-dasharray:10,10" x="414.5" y="91" width="108" height="180"/>
      <line style="fill:none;marker-start:url(#DDEB095E_start_arrow);marker-end:url(#DDEB095E_end_arrow)" x1="90.5" y1="163" x2="198.5" y2="55"/>
      <ellipse style="fill:#FFFFFF" cx="144.5" cy="109" rx="36" ry="18"/>
      <text style="stroke:none" x="119.099609375" y="111" font-family="Helvetica" font-size="8" font-weight="normal" font-style="normal">DDL, Analysis</text>
      <line style="fill:none" x1="234.5" y1="37" x2="252.5" y2="37"/>
      <line style="fill:none;marker-start:url(#DDEB095E_start_arrow)" x1="324.5" y1="181" x2="432.5" y2="181"/>
      <rect style="fill:#FFFFFF;stroke:#FFFFFF" x="360.5" y="163" width="36" height="36"/>
      <g>
         <text style="stroke:none" x="367.775390625" y="178" font-family="Helvetica" font-size="8" font-weight="normal" font-style="normal">meta-</text>
         <text style="stroke:none" x="370.21484375" y="188" font-family="Helvetica" font-size="8" font-weight="normal" font-style="normal">data</text>
      </g>
      <polyline style="fill:none;marker-start:url(#DDEB095E_start_arrow);marker-end:url(#DDEB095E_end_arrow)" points="324.5,37 468.5,37 468.5,109"/>
      <polyline style="fill:none;marker-start:url(#DDEB095E_start_arrow);marker-end:url(#DDEB095E_end_arrow)" points="324.5,325 468.5,325 468.5,253"/>
   </g>
</svg>
