<svg version="1.1" viewBox="0.0 0.0 600.0 371.0" fill="none" stroke="none" stroke-linecap="square" stroke-miterlimit="10" width="600" height="371" xmlns:xlink="http://www.w3.org/1999/xlink" xmlns="http://www.w3.org/2000/svg"><path fill="#ffffff" d="M0 0L600.0 0L600.0 371.0L0 371.0L0 0Z" fill-rule="nonzero"/><path stroke="#333333" stroke-width="1.0" stroke-linecap="butt" d="M45.5 304.5L581.5 304.5" fill-rule="nonzero"/><path stroke="#cccccc" stroke-width="1.0" stroke-linecap="butt" d="M45.5 263.5L581.5 263.5" fill-rule="nonzero"/><path stroke="#cccccc" stroke-width="1.0" stroke-linecap="butt" d="M45.5 223.5L581.5 223.5" fill-rule="nonzero"/><path stroke="#cccccc" stroke-width="1.0" stroke-linecap="butt" d="M45.5 183.5L581.5 183.5" fill-rule="nonzero"/><path stroke="#cccccc" stroke-width="1.0" stroke-linecap="butt" d="M45.5 142.5L581.5 142.5" fill-rule="nonzero"/><path stroke="#cccccc" stroke-width="1.0" stroke-linecap="butt" d="M45.5 102.5L581.5 102.5" fill-rule="nonzero"/><path stroke="#cccccc" stroke-width="1.0" stroke-linecap="butt" d="M45.5 62.5L581.5 62.5" fill-rule="nonzero"/><clipPath id="id_0"><path d="M45.55 62.416668L581.45 62.416668L581.45 304.08334L45.55 304.08334L45.55 62.416668Z" clip-rule="nonzero"/></clipPath><path stroke="#000000" stroke-width="0.0" stroke-linecap="butt" stroke-opacity="0.0" clip-path="url(#id_0)" d="M102.0 304.0L76.0 304.0L76.0 278.0C76.0 276.89542 76.89543 276.0 78.0 276.0L100.0 276.0C101.10457 276.0 102.0 276.89542 102.0 278.0Z" fill-rule="nonzero"/><path fill="#4285f4" clip-path="url(#id_0)" d="M102.0 304.0L76.0 304.0L76.0 278.0C76.0 276.89542 76.89543 276.0 78.0 276.0L100.0 276.0C101.10457 276.0 102.0 276.89542 102.0 278.0Z" fill-rule="nonzero"/><path stroke="#000000" stroke-width="0.0" stroke-linecap="butt" stroke-opacity="0.0" clip-path="url(#id_0)" d="M186.0 304.0L160.0 304.0L160.0 260.0C160.0 258.89542 160.89543 258.0 162.0 258.0L184.0 258.0C185.10457 258.0 186.0 258.89542 186.0 260.0Z" fill-rule="nonzero"/><path fill="#4285f4" clip-path="url(#id_0)" d="M186.0 304.0L160.0 304.0L160.0 260.0C160.0 258.89542 160.89543 258.0 162.0 258.0L184.0 258.0C185.10457 258.0 186.0 258.89542 186.0 260.0Z" fill-rule="nonzero"/><path stroke="#000000" stroke-width="0.0" stroke-linecap="butt" stroke-opacity="0.0" clip-path="url(#id_0)" d="M270.0 304.0L244.0 304.0L244.0 224.0C244.0 222.89543 244.89543 222.0 246.0 222.0L268.0 222.0C269.10458 222.0 270.0 222.89543 270.0 224.0Z" fill-rule="nonzero"/><path fill="#4285f4" clip-path="url(#id_0)" d="M270.0 304.0L244.0 304.0L244.0 224.0C244.0 222.89543 244.89543 222.0 246.0 222.0L268.0 222.0C269.10458 222.0 270.0 222.89543 270.0 224.0Z" fill-rule="nonzero"/><path stroke="#000000" stroke-width="0.0" stroke-linecap="butt" stroke-opacity="0.0" clip-path="url(#id_0)" d="M355.0 304.0L329.0 304.0L329.0 181.0C329.0 179.89543 329.89542 179.0 331.0 179.0L353.0 179.0C354.10458 179.0 355.0 179.89543 355.0 181.0Z" fill-rule="nonzero"/><path fill="#4285f4" clip-path="url(#id_0)" d="M355.0 304.0L329.0 304.0L329.0 181.0C329.0 179.89543 329.89542 179.0 331.0 179.0L353.0 179.0C354.10458 179.0 355.0 179.89543 355.0 181.0Z" fill-rule="nonzero"/><path stroke="#000000" stroke-width="0.0" stroke-linecap="butt" stroke-opacity="0.0" clip-path="url(#id_0)" d="M439.0 304.0L413.0 304.0L413.0 136.0C413.0 134.89543 413.89542 134.0 415.0 134.0L437.0 134.0C438.10458 134.0 439.0 134.89543 439.0 136.0Z" fill-rule="nonzero"/><path fill="#4285f4" clip-path="url(#id_0)" d="M439.0 304.0L413.0 304.0L413.0 136.0C413.0 134.89543 413.89542 134.0 415.0 134.0L437.0 134.0C438.10458 134.0 439.0 134.89543 439.0 136.0Z" fill-rule="nonzero"/><path stroke="#000000" stroke-width="0.0" stroke-linecap="butt" stroke-opacity="0.0" clip-path="url(#id_0)" d="M523.0 304.0L497.0 304.0L497.0 99.0C497.0 97.89543 497.89542 97.0 499.0 97.0L521.0 97.0C522.10455 97.0 523.0 97.89543 523.0 99.0Z" fill-rule="nonzero"/><path fill="#4285f4" clip-path="url(#id_0)" d="M523.0 304.0L497.0 304.0L497.0 99.0C497.0 97.89543 497.89542 97.0 499.0 97.0L521.0 97.0C522.10455 97.0 523.0 97.89543 523.0 99.0Z" fill-rule="nonzero"/><path stroke="#000000" stroke-width="0.0" stroke-linecap="butt" stroke-opacity="0.0" clip-path="url(#id_0)" d="M129.0 304.0L103.0 304.0L103.0 291.0C103.0 289.89542 103.89543 289.0 105.0 289.0L127.0 289.0C128.10457 289.0 129.0 289.89542 129.0 291.0Z" fill-rule="nonzero"/><path fill="#db4437" clip-path="url(#id_0)" d="M129.0 304.0L103.0 304.0L103.0 291.0C103.0 289.89542 103.89543 289.0 105.0 289.0L127.0 289.0C128.10457 289.0 129.0 289.89542 129.0 291.0Z" fill-rule="nonzero"/><path stroke="#000000" stroke-width="0.0" stroke-linecap="butt" stroke-opacity="0.0" clip-path="url(#id_0)" d="M213.0 304.0L187.0 304.0L187.0 284.0C187.0 282.89542 187.89543 282.0 189.0 282.0L211.0 282.0C212.10457 282.0 213.0 282.89542 213.0 284.0Z" fill-rule="nonzero"/><path fill="#db4437" clip-path="url(#id_0)" d="M213.0 304.0L187.0 304.0L187.0 284.0C187.0 282.89542 187.89543 282.0 189.0 282.0L211.0 282.0C212.10457 282.0 213.0 282.89542 213.0 284.0Z" fill-rule="nonzero"/><path stroke="#000000" stroke-width="0.0" stroke-linecap="butt" stroke-opacity="0.0" clip-path="url(#id_0)" d="M297.0 304.0L271.0 304.0L271.0 263.0C271.0 261.89542 271.89542 261.0 273.0 261.0L295.0 261.0C296.10458 261.0 297.0 261.89542 297.0 263.0Z" fill-rule="nonzero"/><path fill="#db4437" clip-path="url(#id_0)" d="M297.0 304.0L271.0 304.0L271.0 263.0C271.0 261.89542 271.89542 261.0 273.0 261.0L295.0 261.0C296.10458 261.0 297.0 261.89542 297.0 263.0Z" fill-rule="nonzero"/><path stroke="#000000" stroke-width="0.0" stroke-linecap="butt" stroke-opacity="0.0" clip-path="url(#id_0)" d="M382.0 304.0L356.0 304.0L356.0 241.0C356.0 239.89543 356.89542 239.0 358.0 239.0L380.0 239.0C381.10458 239.0 382.0 239.89543 382.0 241.0Z" fill-rule="nonzero"/><path fill="#db4437" clip-path="url(#id_0)" d="M382.0 304.0L356.0 304.0L356.0 241.0C356.0 239.89543 356.89542 239.0 358.0 239.0L380.0 239.0C381.10458 239.0 382.0 239.89543 382.0 241.0Z" fill-rule="nonzero"/><path stroke="#000000" stroke-width="0.0" stroke-linecap="butt" stroke-opacity="0.0" clip-path="url(#id_0)" d="M466.0 304.0L440.0 304.0L440.0 219.0C440.0 217.89543 440.89542 217.0 442.0 217.0L464.0 217.0C465.10458 217.0 466.0 217.89543 466.0 219.0Z" fill-rule="nonzero"/><path fill="#db4437" clip-path="url(#id_0)" d="M466.0 304.0L440.0 304.0L440.0 219.0C440.0 217.89543 440.89542 217.0 442.0 217.0L464.0 217.0C465.10458 217.0 466.0 217.89543 466.0 219.0Z" fill-rule="nonzero"/><path stroke="#000000" stroke-width="0.0" stroke-linecap="butt" stroke-opacity="0.0" clip-path="url(#id_0)" d="M550.0 304.0L524.0 304.0L524.0 196.0C524.0 194.89543 524.89545 194.0 526.0 194.0L548.0 194.0C549.10455 194.0 550.0 194.89543 550.0 196.0Z" fill-rule="nonzero"/><path fill="#db4437" clip-path="url(#id_0)" d="M550.0 304.0L524.0 304.0L524.0 196.0C524.0 194.89543 524.89545 194.0 526.0 194.0L548.0 194.0C549.10455 194.0 550.0 194.89543 550.0 196.0Z" fill-rule="nonzero"/><path fill="#757575" d="M38.6125 304.94272Q38.6125 306.84897 37.95625 307.78647Q37.315624 308.70834 35.925 308.70834Q34.565624 308.70834 33.909374 307.8021Q33.253124 306.89584 33.221874 305.08334L33.221874 303.64584Q33.221874 301.75522 33.8625 300.84897Q34.51875 299.9271 35.909374 299.9271Q37.284374 299.9271 37.940624 300.81772Q38.596874 301.69272 38.6125 303.53647L38.6125 304.94272ZM37.51875 303.45834Q37.51875 302.08334 37.128124 301.45834Q36.753124 300.81772 35.909374 300.81772Q35.08125 300.81772 34.690624 301.45834Q34.315624 302.08334 34.315624 303.38022L34.315624 305.1146Q34.315624 306.4896 34.70625 307.16147Q35.1125 307.81772 35.925 307.81772Q36.721874 307.81772 37.1125 307.19272Q37.503124 306.56772 37.51875 305.2396L37.51875 303.45834Z" fill-rule="nonzero"/><path fill="#757575" d="M38.846874 268.30554L33.253124 268.30554L33.253124 267.5243L36.20625 264.24304Q36.8625 263.49304 37.1125 263.03992Q37.3625 262.57117 37.3625 262.07117Q37.3625 261.3993 36.95625 260.97742Q36.565624 260.53992 35.878124 260.53992Q35.08125 260.53992 34.628124 261.00867Q34.175 261.4618 34.175 262.28992L33.096874 262.28992Q33.096874 261.10242 33.846874 260.38367Q34.6125 259.6493 35.878124 259.6493Q37.08125 259.6493 37.76875 260.2743Q38.45625 260.8993 38.45625 261.94617Q38.45625 263.19617 36.846874 264.94617L34.565624 267.41492L38.846874 267.41492L38.846874 268.30554Z" fill-rule="nonzero"/><path fill="#757575" d="M37.83125 225.1684L39.01875 225.1684L39.01875 226.0434L37.83125 226.0434L37.83125 228.02777L36.753124 228.02777L36.753124 226.0434L32.8625 226.0434L32.8625 225.40277L36.675 219.49652L37.83125 219.49652L37.83125 225.1684ZM34.096874 225.1684L36.753124 225.1684L36.753124 220.9809L36.6125 221.21527L34.096874 225.1684Z" fill-rule="nonzero"/><path fill="#757575" d="M37.51875 179.21875L37.51875 180.125L37.315624 180.125Q36.05 180.15625 35.3 180.89062Q34.55 181.60938 34.425 182.92188Q35.1125 182.15625 36.26875 182.15625Q37.378124 182.15625 38.05 182.9375Q38.721874 183.71875 38.721874 184.96875Q38.721874 186.28125 38.003124 187.07812Q37.284374 187.875 36.065624 187.875Q34.846874 187.875 34.08125 186.9375Q33.33125 185.98438 33.33125 184.5L33.33125 184.09375Q33.33125 181.73438 34.33125 180.48438Q35.33125 179.23438 37.315624 179.21875L37.51875 179.21875ZM36.096874 183.0625Q35.534374 183.0625 35.065624 183.39062Q34.596874 183.71875 34.409374 184.23438L34.409374 184.625Q34.409374 185.6875 34.878124 186.32812Q35.3625 186.96875 36.065624 186.96875Q36.8 186.96875 37.221874 186.4375Q37.64375 185.89062 37.64375 185.01562Q37.64375 184.14062 37.221874 183.60938Q36.8 183.0625 36.096874 183.0625Z" fill-rule="nonzero"/><path fill="#757575" d="M38.440624 141.15973Q38.440624 141.80035 38.096874 142.30035Q37.753124 142.80035 37.190624 143.0816Q37.846874 143.36285 38.2375 143.92535Q38.628124 144.47223 38.628124 145.17535Q38.628124 146.2691 37.878124 146.94098Q37.14375 147.59723 35.925 147.59723Q34.690624 147.59723 33.940624 146.94098Q33.20625 146.2691 33.20625 145.17535Q33.20625 144.47223 33.58125 143.92535Q33.95625 143.36285 34.628124 143.0816Q34.065624 142.80035 33.7375 142.30035Q33.409374 141.80035 33.409374 141.15973Q33.409374 140.0816 34.096874 139.4566Q34.784374 138.81598 35.925 138.81598Q37.05 138.81598 37.7375 139.4566Q38.440624 140.0816 38.440624 141.15973ZM37.55 145.1441Q37.55 144.42535 37.096874 143.98785Q36.64375 143.53473 35.909374 143.53473Q35.175 143.53473 34.721874 143.98785Q34.284374 144.42535 34.284374 145.15973Q34.284374 145.87848 34.721874 146.30035Q35.159374 146.7066 35.925 146.7066Q36.675 146.7066 37.1125 146.28473Q37.55 145.86285 37.55 145.1441ZM35.925 139.7066Q35.284374 139.7066 34.878124 140.11285Q34.4875 140.50348 34.4875 141.19098Q34.4875 141.8316 34.878124 142.23785Q35.26875 142.6441 35.909374 142.6441Q36.565624 142.6441 36.95625 142.23785Q37.346874 141.8316 37.346874 141.19098Q37.346874 140.53473 36.940624 140.12848Q36.534374 139.7066 35.925 139.7066Z" fill-rule="nonzero"/><path fill="#757575" d="M29.815624 107.19444L28.7375 107.19444L28.7375 99.97569L26.55 100.77257L26.55 99.78819L29.659374 98.61632L29.815624 98.61632L29.815624 107.19444ZM38.6125 103.55382Q38.6125 105.46007 37.95625 106.39757Q37.315624 107.31944 35.925 107.31944Q34.565624 107.31944 33.909374 106.41319Q33.253124 105.50694 33.221874 103.69444L33.221874 102.25694Q33.221874 100.36632 33.8625 99.46007Q34.51875 98.53819 35.909374 98.53819Q37.284374 98.53819 37.940624 99.42882Q38.596874 100.30382 38.6125 102.14757L38.6125 103.55382ZM37.51875 102.06944Q37.51875 100.69444 37.128124 100.06944Q36.753124 99.42882 35.909374 99.42882Q35.08125 99.42882 34.690624 100.06944Q34.315624 100.69444 34.315624 101.99132L34.315624 103.72569Q34.315624 105.10069 34.70625 105.77257Q35.1125 106.42882 35.925 106.42882Q36.721874 106.42882 37.1125 105.80382Q37.503124 105.17882 37.51875 103.85069L37.51875 102.06944Z" fill-rule="nonzero"/><path fill="#757575" d="M29.815624 66.916664L28.7375 66.916664L28.7375 59.697914L26.55 60.49479L26.55 59.510414L29.659374 58.33854L29.815624 58.33854L29.815624 66.916664ZM38.846874 66.916664L33.253124 66.916664L33.253124 66.135414L36.20625 62.854164Q36.8625 62.104164 37.1125 61.65104Q37.3625 61.18229 37.3625 60.68229Q37.3625 60.010414 36.95625 59.58854Q36.565624 59.15104 35.878124 59.15104Q35.08125 59.15104 34.628124 59.61979Q34.175 60.072914 34.175 60.90104L33.096874 60.90104Q33.096874 59.71354 33.846874 58.99479Q34.6125 58.260414 35.878124 58.260414Q37.08125 58.260414 37.76875 58.885414Q38.45625 59.510414 38.45625 60.55729Q38.45625 61.80729 36.846874 63.55729L34.565624 66.02604L38.846874 66.02604L38.846874 66.916664Z" fill-rule="nonzero"/><path fill="#757575" d="M96.28137 322.08334L95.20325 322.08334L95.20325 314.8646L93.01575 315.66147L93.01575 314.6771L96.12512 313.50522L96.28137 313.50522L96.28137 322.08334ZM100.21887 317.8021L100.65637 313.5521L105.03137 313.5521L105.03137 314.5521L101.57825 314.5521L101.31262 316.88022Q101.95325 316.50522 102.75012 316.50522Q103.90637 316.50522 104.59387 317.28647Q105.28137 318.0521 105.28137 319.3646Q105.28137 320.6771 104.56262 321.44272Q103.8595 322.20834 102.57825 322.20834Q101.45325 322.20834 100.7345 321.58334Q100.01575 320.94272 99.922 319.83334L100.93762 319.83334Q101.047 320.56772 101.46887 320.94272Q101.89075 321.31772 102.57825 321.31772Q103.32825 321.31772 103.76575 320.8021Q104.20325 320.28647 104.20325 319.38022Q104.20325 318.52084 103.7345 318.00522Q103.26575 317.4896 102.4845 317.4896Q101.78137 317.4896 101.37512 317.78647L101.09387 318.02084L100.21887 317.8021ZM112.07825 318.44272Q112.07825 320.34897 111.422 321.28647Q110.78137 322.20834 109.39075 322.20834Q108.03137 322.20834 107.37512 321.3021Q106.71887 320.39584 106.68762 318.58334L106.68762 317.14584Q106.68762 315.25522 107.32825 314.34897Q107.9845 313.4271 109.37512 313.4271Q110.75012 313.4271 111.40637 314.31772Q112.06262 315.19272 112.07825 317.03647L112.07825 318.44272ZM110.9845 316.95834Q110.9845 315.58334 110.59387 314.95834Q110.21887 314.31772 109.37512 314.31772Q108.547 314.31772 108.15637 314.95834Q107.78137 315.58334 107.78137 316.88022L107.78137 318.6146Q107.78137 319.9896 108.172 320.66147Q108.57825 321.31772 109.39075 321.31772Q110.18762 321.31772 110.57825 320.69272Q110.96887 320.06772 110.9845 318.7396L110.9845 316.95834Z" fill-rule="nonzero"/><path fill="#757575" d="M178.6907 317.28647L179.5032 317.28647Q180.28445 317.27084 180.72195 316.88022Q181.15945 316.4896 181.15945 315.81772Q181.15945 314.31772 179.65945 314.31772Q178.95633 314.31772 178.53445 314.72397Q178.1282 315.13022 178.1282 315.78647L177.03445 315.78647Q177.03445 314.77084 177.76883 314.09897Q178.51883 313.4271 179.65945 313.4271Q180.86258 313.4271 181.55008 314.06772Q182.23758 314.70834 182.23758 315.84897Q182.23758 316.41147 181.8782 316.9271Q181.51883 317.44272 180.89383 317.70834Q181.59695 317.9271 181.97195 318.44272Q182.36258 318.95834 182.36258 319.70834Q182.36258 320.84897 181.61258 321.53647Q180.86258 322.20834 179.65945 322.20834Q178.47195 322.20834 177.70633 321.5521Q176.95633 320.89584 176.95633 319.83334L178.05008 319.83334Q178.05008 320.50522 178.48758 320.91147Q178.92508 321.31772 179.67508 321.31772Q180.45633 321.31772 180.86258 320.91147Q181.28445 320.4896 181.28445 319.72397Q181.28445 318.9896 180.83133 318.59897Q180.3782 318.19272 179.5032 318.1771L178.6907 318.1771L178.6907 317.28647ZM189.47195 318.44272Q189.47195 320.34897 188.8157 321.28647Q188.17508 322.20834 186.78445 322.20834Q185.42508 322.20834 184.76883 321.3021Q184.11258 320.39584 184.08133 318.58334L184.08133 317.14584Q184.08133 315.25522 184.72195 314.34897Q185.3782 313.4271 186.76883 313.4271Q188.14383 313.4271 188.80008 314.31772Q189.45633 315.19272 189.47195 317.03647L189.47195 318.44272ZM188.3782 316.95834Q188.3782 315.58334 187.98758 314.95834Q187.61258 314.31772 186.76883 314.31772Q185.9407 314.31772 185.55008 314.95834Q185.17508 315.58334 185.17508 316.88022L185.17508 318.6146Q185.17508 319.9896 185.5657 320.66147Q185.97195 321.31772 186.78445 321.31772Q187.58133 321.31772 187.97195 320.69272Q188.36258 320.06772 188.3782 318.7396L188.3782 316.95834ZM196.47195 318.44272Q196.47195 320.34897 195.8157 321.28647Q195.17508 322.20834 193.78445 322.20834Q192.42508 322.20834 191.76883 321.3021Q191.11258 320.39584 191.08133 318.58334L191.08133 317.14584Q191.08133 315.25522 191.72195 314.34897Q192.3782 313.4271 193.76883 313.4271Q195.14383 313.4271 195.80008 314.31772Q196.45633 315.19272 196.47195 317.03647L196.47195 318.44272ZM195.3782 316.95834Q195.3782 315.58334 194.98758 314.95834Q194.61258 314.31772 193.76883 314.31772Q192.9407 314.31772 192.55008 314.95834Q192.17508 315.58334 192.17508 316.88022L192.17508 318.6146Q192.17508 319.9896 192.5657 320.66147Q192.97195 321.31772 193.78445 321.31772Q194.58133 321.31772 194.97195 320.69272Q195.36258 320.06772 195.3782 318.7396L195.3782 316.95834Z" fill-rule="nonzero"/><path fill="#757575" d="M265.7719 313.5521L265.7719 314.45834L265.5688 314.45834Q264.30316 314.4896 263.55316 315.22397Q262.80316 315.94272 262.67816 317.25522Q263.36566 316.4896 264.5219 316.4896Q265.6313 316.4896 266.30316 317.27084Q266.97504 318.0521 266.97504 319.3021Q266.97504 320.6146 266.2563 321.41147Q265.53754 322.20834 264.3188 322.20834Q263.10004 322.20834 262.3344 321.27084Q261.5844 320.31772 261.5844 318.83334L261.5844 318.4271Q261.5844 316.06772 262.5844 314.81772Q263.5844 313.56772 265.5688 313.5521L265.7719 313.5521ZM264.35004 317.39584Q263.78754 317.39584 263.3188 317.72397Q262.85004 318.0521 262.66254 318.56772L262.66254 318.95834Q262.66254 320.02084 263.1313 320.66147Q263.61566 321.3021 264.3188 321.3021Q265.05316 321.3021 265.47504 320.77084Q265.8969 320.22397 265.8969 319.34897Q265.8969 318.47397 265.47504 317.94272Q265.05316 317.39584 264.35004 317.39584ZM273.86566 318.44272Q273.86566 320.34897 273.2094 321.28647Q272.5688 322.20834 271.17816 322.20834Q269.8188 322.20834 269.16254 321.3021Q268.5063 320.39584 268.47504 318.58334L268.47504 317.14584Q268.47504 315.25522 269.11566 314.34897Q269.7719 313.4271 271.16254 313.4271Q272.53754 313.4271 273.1938 314.31772Q273.85004 315.19272 273.86566 317.03647L273.86566 318.44272ZM272.7719 316.95834Q272.7719 315.58334 272.3813 314.95834Q272.0063 314.31772 271.16254 314.31772Q270.3344 314.31772 269.9438 314.95834Q269.5688 315.58334 269.5688 316.88022L269.5688 318.6146Q269.5688 319.9896 269.9594 320.66147Q270.36566 321.31772 271.17816 321.31772Q271.97504 321.31772 272.36566 320.69272Q272.7563 320.06772 272.7719 318.7396L272.7719 316.95834ZM280.86566 318.44272Q280.86566 320.34897 280.2094 321.28647Q279.5688 322.20834 278.17816 322.20834Q276.8188 322.20834 276.16254 321.3021Q275.5063 320.39584 275.47504 318.58334L275.47504 317.14584Q275.47504 315.25522 276.11566 314.34897Q276.7719 313.4271 278.16254 313.4271Q279.53754 313.4271 280.1938 314.31772Q280.85004 315.19272 280.86566 317.03647L280.86566 318.44272ZM279.7719 316.95834Q279.7719 315.58334 279.3813 314.95834Q279.0063 314.31772 278.16254 314.31772Q277.3344 314.31772 276.9438 314.95834Q276.5688 315.58334 276.5688 316.88022L276.5688 318.6146Q276.5688 319.9896 276.9594 320.66147Q277.36566 321.31772 278.17816 321.31772Q278.97504 321.31772 279.36566 320.69272Q279.7563 320.06772 279.7719 318.7396L279.7719 316.95834Z" fill-rule="nonzero"/><path fill="#757575" d="M350.0562 318.33334Q349.7281 318.7396 349.2437 318.9896Q348.77496 319.22397 348.21246 319.22397Q347.4781 319.22397 346.9312 318.8646Q346.38434 318.50522 346.08746 317.84897Q345.7906 317.1771 345.7906 316.38022Q345.7906 315.53647 346.1031 314.84897Q346.4312 314.16147 347.02496 313.8021Q347.63434 313.4271 348.4312 313.4271Q349.69684 313.4271 350.4156 314.38022Q351.14996 315.33334 351.14996 316.95834L351.14996 317.27084Q351.14996 319.77084 350.1656 320.91147Q349.1812 322.0521 347.19684 322.08334L346.9781 322.08334L346.9781 321.1771L347.21246 321.1771Q348.5562 321.14584 349.27496 320.47397Q349.9937 319.8021 350.0562 318.33334ZM348.38434 318.33334Q348.9312 318.33334 349.38434 318.00522Q349.8531 317.66147 350.07184 317.1771L350.07184 316.7396Q350.07184 315.6771 349.6031 315.00522Q349.13434 314.33334 348.4312 314.33334Q347.71246 314.33334 347.27496 314.88022Q346.8531 315.4271 346.8531 316.33334Q346.8531 317.20834 347.25934 317.77084Q347.6812 318.33334 348.38434 318.33334ZM358.25934 318.44272Q358.25934 320.34897 357.6031 321.28647Q356.96246 322.20834 355.57184 322.20834Q354.21246 322.20834 353.5562 321.3021Q352.89996 320.39584 352.8687 318.58334L352.8687 317.14584Q352.8687 315.25522 353.50934 314.34897Q354.1656 313.4271 355.5562 313.4271Q356.9312 313.4271 357.58746 314.31772Q358.2437 315.19272 358.25934 317.03647L358.25934 318.44272ZM357.1656 316.95834Q357.1656 315.58334 356.77496 314.95834Q356.39996 314.31772 355.5562 314.31772Q354.7281 314.31772 354.33746 314.95834Q353.96246 315.58334 353.96246 316.88022L353.96246 318.6146Q353.96246 319.9896 354.3531 320.66147Q354.75934 321.31772 355.57184 321.31772Q356.3687 321.31772 356.75934 320.69272Q357.14996 320.06772 357.1656 318.7396L357.1656 316.95834ZM365.25934 318.44272Q365.25934 320.34897 364.6031 321.28647Q363.96246 322.20834 362.57184 322.20834Q361.21246 322.20834 360.5562 321.3021Q359.89996 320.39584 359.8687 318.58334L359.8687 317.14584Q359.8687 315.25522 360.50934 314.34897Q361.1656 313.4271 362.5562 313.4271Q363.9312 313.4271 364.58746 314.31772Q365.2437 315.19272 365.25934 317.03647L365.25934 318.44272ZM364.1656 316.95834Q364.1656 315.58334 363.77496 314.95834Q363.39996 314.31772 362.5562 314.31772Q361.7281 314.31772 361.33746 314.95834Q360.96246 315.58334 360.96246 316.88022L360.96246 318.6146Q360.96246 319.9896 361.3531 320.66147Q361.75934 321.31772 362.57184 321.31772Q363.3687 321.31772 363.75934 320.69272Q364.14996 320.06772 364.1656 318.7396L364.1656 316.95834Z" fill-rule="nonzero"/><path fill="#757575" d="M430.35617 322.08334L429.27805 322.08334L429.27805 314.8646L427.09055 315.66147L427.09055 314.6771L430.19992 313.50522L430.35617 313.50522L430.35617 322.08334ZM439.38742 322.08334L433.79367 322.08334L433.79367 321.3021L436.7468 318.02084Q437.40305 317.27084 437.65305 316.81772Q437.90305 316.34897 437.90305 315.84897Q437.90305 315.1771 437.4968 314.75522Q437.10617 314.31772 436.41867 314.31772Q435.6218 314.31772 435.16867 314.78647Q434.71555 315.2396 434.71555 316.06772L433.63742 316.06772Q433.63742 314.88022 434.38742 314.16147Q435.15305 313.4271 436.41867 313.4271Q437.6218 313.4271 438.3093 314.0521Q438.9968 314.6771 438.9968 315.72397Q438.9968 316.97397 437.38742 318.72397L435.10617 321.19272L439.38742 321.19272L439.38742 322.08334ZM446.15305 318.44272Q446.15305 320.34897 445.4968 321.28647Q444.85617 322.20834 443.46555 322.20834Q442.10617 322.20834 441.44992 321.3021Q440.79367 320.39584 440.76242 318.58334L440.76242 317.14584Q440.76242 315.25522 441.40305 314.34897Q442.0593 313.4271 443.44992 313.4271Q444.82492 313.4271 445.48117 314.31772Q446.13742 315.19272 446.15305 317.03647L446.15305 318.44272ZM445.0593 316.95834Q445.0593 315.58334 444.66867 314.95834Q444.29367 314.31772 443.44992 314.31772Q442.6218 314.31772 442.23117 314.95834Q441.85617 315.58334 441.85617 316.88022L441.85617 318.6146Q441.85617 319.9896 442.2468 320.66147Q442.65305 321.31772 443.46555 321.31772Q444.26242 321.31772 444.65305 320.69272Q445.04367 320.06772 445.0593 318.7396L445.0593 316.95834ZM453.15305 318.44272Q453.15305 320.34897 452.4968 321.28647Q451.85617 322.20834 450.46555 322.20834Q449.10617 322.20834 448.44992 321.3021Q447.79367 320.39584 447.76242 318.58334L447.76242 317.14584Q447.76242 315.25522 448.40305 314.34897Q449.0593 313.4271 450.44992 313.4271Q451.82492 313.4271 452.48117 314.31772Q453.13742 315.19272 453.15305 317.03647L453.15305 318.44272ZM452.0593 316.95834Q452.0593 315.58334 451.66867 314.95834Q451.29367 314.31772 450.44992 314.31772Q449.6218 314.31772 449.23117 314.95834Q448.85617 315.58334 448.85617 316.88022L448.85617 318.6146Q448.85617 319.9896 449.2468 320.66147Q449.65305 321.31772 450.46555 321.31772Q451.26242 321.31772 451.65305 320.69272Q452.04367 320.06772 452.0593 318.7396L452.0593 316.95834Z" fill-rule="nonzero"/><path fill="#757575" d="M514.7499 322.08334L513.67175 322.08334L513.67175 314.8646L511.48425 315.66147L511.48425 314.6771L514.5936 313.50522L514.7499 313.50522L514.7499 322.08334ZM518.6874 317.8021L519.1249 313.5521L523.4999 313.5521L523.4999 314.5521L520.04675 314.5521L519.7811 316.88022Q520.42175 316.50522 521.2186 316.50522Q522.3749 316.50522 523.0624 317.28647Q523.7499 318.0521 523.7499 319.3646Q523.7499 320.6771 523.0311 321.44272Q522.328 322.20834 521.04675 322.20834Q519.92175 322.20834 519.203 321.58334Q518.48425 320.94272 518.3905 319.83334L519.4061 319.83334Q519.5155 320.56772 519.9374 320.94272Q520.35925 321.31772 521.04675 321.31772Q521.79675 321.31772 522.23425 320.8021Q522.67175 320.28647 522.67175 319.38022Q522.67175 318.52084 522.203 318.00522Q521.73425 317.4896 520.953 317.4896Q520.2499 317.4896 519.8436 317.78647L519.5624 318.02084L518.6874 317.8021ZM530.54675 318.44272Q530.54675 320.34897 529.8905 321.28647Q529.2499 322.20834 527.85925 322.20834Q526.4999 322.20834 525.8436 321.3021Q525.1874 320.39584 525.1561 318.58334L525.1561 317.14584Q525.1561 315.25522 525.79675 314.34897Q526.453 313.4271 527.8436 313.4271Q529.2186 313.4271 529.8749 314.31772Q530.5311 315.19272 530.54675 317.03647L530.54675 318.44272ZM529.453 316.95834Q529.453 315.58334 529.0624 314.95834Q528.6874 314.31772 527.8436 314.31772Q527.0155 314.31772 526.6249 314.95834Q526.2499 315.58334 526.2499 316.88022L526.2499 318.6146Q526.2499 319.9896 526.6405 320.66147Q527.04675 321.31772 527.85925 321.31772Q528.6561 321.31772 529.04675 320.69272Q529.4374 320.06772 529.453 318.7396L529.453 316.95834ZM537.54675 318.44272Q537.54675 320.34897 536.8905 321.28647Q536.2499 322.20834 534.85925 322.20834Q533.4999 322.20834 532.8436 321.3021Q532.1874 320.39584 532.1561 318.58334L532.1561 317.14584Q532.1561 315.25522 532.79675 314.34897Q533.453 313.4271 534.8436 313.4271Q536.2186 313.4271 536.8749 314.31772Q537.5311 315.19272 537.54675 317.03647L537.54675 318.44272ZM536.453 316.95834Q536.453 315.58334 536.0624 314.95834Q535.6874 314.31772 534.8436 314.31772Q534.0155 314.31772 533.6249 314.95834Q533.2499 315.58334 533.2499 316.88022L533.2499 318.6146Q533.2499 319.9896 533.6405 320.66147Q534.04675 321.31772 534.85925 321.31772Q535.6561 321.31772 536.04675 320.69272Q536.4374 320.06772 536.453 318.7396L536.453 316.95834Z" fill-rule="nonzero"/><path fill="#4285f4" d="M189.5 339.95C189.5 339.3977 189.94771 338.95 190.5 338.95L200.5 338.95C201.05229 338.95 201.5 339.3977 201.5 339.95L201.5 349.95C201.5 350.5023 201.05229 350.95 200.5 350.95L190.5 350.95C189.94771 350.95 189.5 350.5023 189.5 349.95Z" fill-rule="nonzero"/><path fill="#757575" d="M211.34375 343.10626L211.375 343.90314Q212.10938 342.9969 213.28125 342.9969Q215.29688 342.9969 215.3125 345.2625L215.3125 349.45L214.21875 349.45L214.21875 345.2469Q214.21875 344.575 213.90625 344.2469Q213.60938 343.91876 212.95312 343.91876Q212.42188 343.91876 212.01562 344.2Q211.625 344.48126 211.40625 344.9344L211.40625 349.45L210.32812 349.45L210.32812 343.10626L211.34375 343.10626ZM220.76562 349.45L219.6875 349.45L219.6875 342.23126L217.5 343.02814L217.5 342.04376L220.60938 340.8719L220.76562 340.8719L220.76562 349.45ZM226.57812 346.2625L223.71875 346.2625L223.71875 345.3875L226.57812 345.3875L226.57812 346.2625ZM231.01562 347.7625Q231.01562 347.325 230.67188 347.09064Q230.34375 346.84064 229.51562 346.66876Q228.70312 346.4969 228.21875 346.2469Q227.73438 345.9969 227.5 345.66876Q227.28125 345.325 227.28125 344.85626Q227.28125 344.075 227.9375 343.54376Q228.59375 342.9969 229.625 342.9969Q230.70312 342.9969 231.35938 343.5594Q232.03125 344.10626 232.03125 344.96564L230.95312 344.96564Q230.95312 344.52814 230.5625 344.21564Q230.1875 343.8875 229.625 343.8875Q229.03125 343.8875 228.6875 344.15314Q228.35938 344.40314 228.35938 344.8094Q228.35938 345.2 228.67188 345.40314Q228.98438 345.60626 229.79688 345.79376Q230.60938 345.96564 231.10938 346.21564Q231.60938 346.46564 231.84375 346.825Q232.09375 347.1844 232.09375 347.6844Q232.09375 348.54376 231.40625 349.0594Q230.73438 349.575 229.65625 349.575Q228.89062 349.575 228.29688 349.3094Q227.71875 349.02814 227.39062 348.54376Q227.0625 348.0594 227.0625 347.4969L228.14062 347.4969Q228.17188 348.04376 228.57812 348.3719Q228.98438 348.6844 229.65625 348.6844Q230.26562 348.6844 230.64062 348.4344Q231.01562 348.1844 231.01562 347.7625ZM234.79688 341.575L234.79688 343.10626L235.96875 343.10626L235.96875 343.95L234.79688 343.95L234.79688 347.8719Q234.79688 348.2625 234.95312 348.45Q235.10938 348.6375 235.48438 348.6375Q235.67188 348.6375 236.0 348.575L236.0 349.45Q235.57812 349.575 235.17188 349.575Q234.45312 349.575 234.07812 349.1375Q233.70312 348.6844 233.70312 347.8719L233.70312 343.95L232.54688 343.95L232.54688 343.10626L233.70312 343.10626L233.70312 341.575L234.79688 341.575ZM241.23438 349.45Q241.14062 349.2625 241.07812 348.77814Q240.32812 349.575 239.28125 349.575Q238.34375 349.575 237.73438 349.04376Q237.14062 348.5125 237.14062 347.6844Q237.14062 346.7 237.89062 346.15314Q238.64062 345.60626 240.01562 345.60626L241.0625 345.60626L241.0625 345.10626Q241.0625 344.54376 240.71875 344.21564Q240.39062 343.8719 239.71875 343.8719Q239.14062 343.8719 238.75 344.16876Q238.35938 344.45 238.35938 344.8719L237.26562 344.8719Q237.26562 344.3875 237.59375 343.95Q237.9375 343.5125 238.51562 343.2625Q239.09375 342.9969 239.78125 342.9969Q240.89062 342.9969 241.5 343.54376Q242.125 344.09064 242.15625 345.04376L242.15625 347.96564Q242.15625 348.84064 242.375 349.35626L242.375 349.45L241.23438 349.45ZM239.4375 348.6219Q239.95312 348.6219 240.40625 348.35626Q240.85938 348.09064 241.0625 347.66876L241.0625 346.3719L240.21875 346.3719Q238.21875 346.3719 238.21875 347.54376Q238.21875 348.04376 238.5625 348.34064Q238.90625 348.6219 239.4375 348.6219ZM245.34375 343.10626L245.375 343.90314Q246.10938 342.9969 247.28125 342.9969Q249.29688 342.9969 249.3125 345.2625L249.3125 349.45L248.21875 349.45L248.21875 345.2469Q248.21875 344.575 247.90625 344.2469Q247.60938 343.91876 246.95312 343.91876Q246.42188 343.91876 246.01562 344.2Q245.625 344.48126 245.40625 344.9344L245.40625 349.45L244.32812 349.45L244.32812 343.10626L245.34375 343.10626ZM251.0625 346.23126Q251.0625 344.7625 251.75 343.8875Q252.4375 342.9969 253.5625 342.9969Q254.67188 342.9969 255.32812 343.7469L255.32812 340.45L256.40625 340.45L256.40625 349.45L255.40625 349.45L255.35938 348.7625Q254.70312 349.575 253.54688 349.575Q252.45312 349.575 251.75 348.66876Q251.0625 347.7625 251.0625 346.3094L251.0625 346.23126ZM252.14062 346.35626Q252.14062 347.4344 252.57812 348.04376Q253.03125 348.65314 253.8125 348.65314Q254.84375 348.65314 255.32812 347.71564L255.32812 344.8094Q254.84375 343.91876 253.82812 343.91876Q253.03125 343.91876 252.57812 344.52814Q252.14062 345.1375 252.14062 346.35626ZM262.23438 349.45Q262.14062 349.2625 262.07812 348.77814Q261.32812 349.575 260.28125 349.575Q259.34375 349.575 258.73438 349.04376Q258.14062 348.5125 258.14062 347.6844Q258.14062 346.7 258.89062 346.15314Q259.64062 345.60626 261.01562 345.60626L262.0625 345.60626L262.0625 345.10626Q262.0625 344.54376 261.71875 344.21564Q261.39062 343.8719 260.71875 343.8719Q260.14062 343.8719 259.75 344.16876Q259.35938 344.45 259.35938 344.8719L258.26562 344.8719Q258.26562 344.3875 258.59375 343.95Q258.9375 343.5125 259.51562 343.2625Q260.09375 342.9969 260.78125 342.9969Q261.89062 342.9969 262.5 343.54376Q263.125 344.09064 263.15625 345.04376L263.15625 347.96564Q263.15625 348.84064 263.375 349.35626L263.375 349.45L262.23438 349.45ZM260.4375 348.6219Q260.95312 348.6219 261.40625 348.35626Q261.85938 348.09064 262.0625 347.66876L262.0625 346.3719L261.21875 346.3719Q259.21875 346.3719 259.21875 347.54376Q259.21875 348.04376 259.5625 348.34064Q259.90625 348.6219 260.4375 348.6219ZM268.39062 344.075Q268.14062 344.04376 267.85938 344.04376Q266.78125 344.04376 266.40625 344.95L266.40625 349.45L265.32812 349.45L265.32812 343.10626L266.375 343.10626L266.39062 343.84064Q266.92188 342.9969 267.90625 342.9969Q268.21875 342.9969 268.39062 343.075L268.39062 344.075ZM269.0625 346.23126Q269.0625 344.7625 269.75 343.8875Q270.4375 342.9969 271.5625 342.9969Q272.67188 342.9969 273.32812 343.7469L273.32812 340.45L274.40625 340.45L274.40625 349.45L273.40625 349.45L273.35938 348.7625Q272.70312 349.575 271.54688 349.575Q270.45312 349.575 269.75 348.66876Q269.0625 347.7625 269.0625 346.3094L269.0625 346.23126ZM270.14062 346.35626Q270.14062 347.4344 270.57812 348.04376Q271.03125 348.65314 271.8125 348.65314Q272.84375 348.65314 273.32812 347.71564L273.32812 344.8094Q272.84375 343.91876 271.82812 343.91876Q271.03125 343.91876 270.57812 344.52814Q270.14062 345.1375 270.14062 346.35626ZM278.57812 346.2625L275.71875 346.2625L275.71875 345.3875L278.57812 345.3875L278.57812 346.2625ZM282.76562 349.45L281.6875 349.45L281.6875 342.23126L279.5 343.02814L279.5 342.04376L282.60938 340.8719L282.76562 340.8719L282.76562 349.45ZM290.46875 340.91876L290.46875 341.825L290.26562 341.825Q289.0 341.85626 288.25 342.59064Q287.5 343.3094 287.375 344.6219Q288.0625 343.85626 289.21875 343.85626Q290.32812 343.85626 291.0 344.6375Q291.67188 345.41876 291.67188 346.66876Q291.67188 347.98126 290.95312 348.77814Q290.23438 349.575 289.01562 349.575Q287.79688 349.575 287.03125 348.6375Q286.28125 347.6844 286.28125 346.2L286.28125 345.79376Q286.28125 343.4344 287.28125 342.1844Q288.28125 340.9344 290.26562 340.91876L290.46875 340.91876ZM289.04688 344.7625Q288.48438 344.7625 288.01562 345.09064Q287.54688 345.41876 287.35938 345.9344L287.35938 346.325Q287.35938 347.3875 287.82812 348.02814Q288.3125 348.66876 289.01562 348.66876Q289.75 348.66876 290.17188 348.1375Q290.59375 347.59064 290.59375 346.71564Q290.59375 345.84064 290.17188 345.3094Q289.75 344.7625 289.04688 344.7625Z" fill-rule="nonzero"/><path fill="#db4437" d="M308.5 339.95C308.5 339.3977 308.94772 338.95 309.5 338.95L319.5 338.95C320.05228 338.95 320.5 339.3977 320.5 339.95L320.5 349.95C320.5 350.5023 320.05228 350.95 319.5 350.95L309.5 350.95C308.94772 350.95 308.5 350.5023 308.5 349.95Z" fill-rule="nonzero"/><path fill="#757575" d="M331.85938 348.6844Q332.4375 348.6844 332.875 348.34064Q333.3125 347.98126 333.35938 347.45L334.39062 347.45Q334.35938 347.9969 334.0 348.4969Q333.65625 348.98126 333.07812 349.27814Q332.51562 349.575 331.85938 349.575Q330.5625 349.575 329.79688 348.71564Q329.04688 347.84064 329.04688 346.34064L329.04688 346.15314Q329.04688 345.23126 329.375 344.5125Q329.71875 343.79376 330.34375 343.40314Q330.98438 342.9969 331.85938 342.9969Q332.92188 342.9969 333.625 343.6375Q334.34375 344.2625 334.39062 345.29376L333.35938 345.29376Q333.3125 344.66876 332.89062 344.27814Q332.46875 343.8875 331.85938 343.8875Q331.03125 343.8875 330.57812 344.48126Q330.125 345.075 330.125 346.2L330.125 346.40314Q330.125 347.4969 330.57812 348.09064Q331.03125 348.6844 331.85938 348.6844ZM340.79688 349.45L335.20312 349.45L335.20312 348.66876L338.15625 345.3875Q338.8125 344.6375 339.0625 344.1844Q339.3125 343.71564 339.3125 343.21564Q339.3125 342.54376 338.90625 342.1219Q338.51562 341.6844 337.82812 341.6844Q337.03125 341.6844 336.57812 342.15314Q336.125 342.60626 336.125 343.4344L335.04688 343.4344Q335.04688 342.2469 335.79688 341.52814Q336.5625 340.79376 337.82812 340.79376Q339.03125 340.79376 339.71875 341.41876Q340.40625 342.04376 340.40625 343.09064Q340.40625 344.34064 338.79688 346.09064L336.51562 348.5594L340.79688 348.5594L340.79688 349.45ZM344.57812 346.2625L341.71875 346.2625L341.71875 345.3875L344.57812 345.3875L344.57812 346.2625ZM349.01562 347.7625Q349.01562 347.325 348.67188 347.09064Q348.34375 346.84064 347.51562 346.66876Q346.70312 346.4969 346.21875 346.2469Q345.73438 345.9969 345.5 345.66876Q345.28125 345.325 345.28125 344.85626Q345.28125 344.075 345.9375 343.54376Q346.59375 342.9969 347.625 342.9969Q348.70312 342.9969 349.35938 343.5594Q350.03125 344.10626 350.03125 344.96564L348.95312 344.96564Q348.95312 344.52814 348.5625 344.21564Q348.1875 343.8875 347.625 343.8875Q347.03125 343.8875 346.6875 344.15314Q346.35938 344.40314 346.35938 344.8094Q346.35938 345.2 346.67188 345.40314Q346.98438 345.60626 347.79688 345.79376Q348.60938 345.96564 349.10938 346.21564Q349.60938 346.46564 349.84375 346.825Q350.09375 347.1844 350.09375 347.6844Q350.09375 348.54376 349.40625 349.0594Q348.73438 349.575 347.65625 349.575Q346.89062 349.575 346.29688 349.3094Q345.71875 349.02814 345.39062 348.54376Q345.0625 348.0594 345.0625 347.4969L346.14062 347.4969Q346.17188 348.04376 346.57812 348.3719Q346.98438 348.6844 347.65625 348.6844Q348.26562 348.6844 348.64062 348.4344Q349.01562 348.1844 349.01562 347.7625ZM352.79688 341.575L352.79688 343.10626L353.96875 343.10626L353.96875 343.95L352.79688 343.95L352.79688 347.8719Q352.79688 348.2625 352.95312 348.45Q353.10938 348.6375 353.48438 348.6375Q353.67188 348.6375 354.0 348.575L354.0 349.45Q353.57812 349.575 353.17188 349.575Q352.45312 349.575 352.07812 349.1375Q351.70312 348.6844 351.70312 347.8719L351.70312 343.95L350.54688 343.95L350.54688 343.10626L351.70312 343.10626L351.70312 341.575L352.79688 341.575ZM359.23438 349.45Q359.14062 349.2625 359.07812 348.77814Q358.32812 349.575 357.28125 349.575Q356.34375 349.575 355.73438 349.04376Q355.14062 348.5125 355.14062 347.6844Q355.14062 346.7 355.89062 346.15314Q356.64062 345.60626 358.01562 345.60626L359.0625 345.60626L359.0625 345.10626Q359.0625 344.54376 358.71875 344.21564Q358.39062 343.8719 357.71875 343.8719Q357.14062 343.8719 356.75 344.16876Q356.35938 344.45 356.35938 344.8719L355.26562 344.8719Q355.26562 344.3875 355.59375 343.95Q355.9375 343.5125 356.51562 343.2625Q357.09375 342.9969 357.78125 342.9969Q358.89062 342.9969 359.5 343.54376Q360.125 344.09064 360.15625 345.04376L360.15625 347.96564Q360.15625 348.84064 360.375 349.35626L360.375 349.45L359.23438 349.45ZM357.4375 348.6219Q357.95312 348.6219 358.40625 348.35626Q358.85938 348.09064 359.0625 347.66876L359.0625 346.3719L358.21875 346.3719Q356.21875 346.3719 356.21875 347.54376Q356.21875 348.04376 356.5625 348.34064Q356.90625 348.6219 357.4375 348.6219ZM363.34375 343.10626L363.375 343.90314Q364.10938 342.9969 365.28125 342.9969Q367.29688 342.9969 367.3125 345.2625L367.3125 349.45L366.21875 349.45L366.21875 345.2469Q366.21875 344.575 365.90625 344.2469Q365.60938 343.91876 364.95312 343.91876Q364.42188 343.91876 364.01562 344.2Q363.625 344.48126 363.40625 344.9344L363.40625 349.45L362.32812 349.45L362.32812 343.10626L363.34375 343.10626ZM369.0625 346.23126Q369.0625 344.7625 369.75 343.8875Q370.4375 342.9969 371.5625 342.9969Q372.67188 342.9969 373.32812 343.7469L373.32812 340.45L374.40625 340.45L374.40625 349.45L373.40625 349.45L373.35938 348.7625Q372.70312 349.575 371.54688 349.575Q370.45312 349.575 369.75 348.66876Q369.0625 347.7625 369.0625 346.3094L369.0625 346.23126ZM370.14062 346.35626Q370.14062 347.4344 370.57812 348.04376Q371.03125 348.65314 371.8125 348.65314Q372.84375 348.65314 373.32812 347.71564L373.32812 344.8094Q372.84375 343.91876 371.82812 343.91876Q371.03125 343.91876 370.57812 344.52814Q370.14062 345.1375 370.14062 346.35626ZM380.23438 349.45Q380.14062 349.2625 380.07812 348.77814Q379.32812 349.575 378.28125 349.575Q377.34375 349.575 376.73438 349.04376Q376.14062 348.5125 376.14062 347.6844Q376.14062 346.7 376.89062 346.15314Q377.64062 345.60626 379.01562 345.60626L380.0625 345.60626L380.0625 345.10626Q380.0625 344.54376 379.71875 344.21564Q379.39062 343.8719 378.71875 343.8719Q378.14062 343.8719 377.75 344.16876Q377.35938 344.45 377.35938 344.8719L376.26562 344.8719Q376.26562 344.3875 376.59375 343.95Q376.9375 343.5125 377.51562 343.2625Q378.09375 342.9969 378.78125 342.9969Q379.89062 342.9969 380.5 343.54376Q381.125 344.09064 381.15625 345.04376L381.15625 347.96564Q381.15625 348.84064 381.375 349.35626L381.375 349.45L380.23438 349.45ZM378.4375 348.6219Q378.95312 348.6219 379.40625 348.35626Q379.85938 348.09064 380.0625 347.66876L380.0625 346.3719L379.21875 346.3719Q377.21875 346.3719 377.21875 347.54376Q377.21875 348.04376 377.5625 348.34064Q377.90625 348.6219 378.4375 348.6219ZM386.39062 344.075Q386.14062 344.04376 385.85938 344.04376Q384.78125 344.04376 384.40625 344.95L384.40625 349.45L383.32812 349.45L383.32812 343.10626L384.375 343.10626L384.39062 343.84064Q384.92188 342.9969 385.90625 342.9969Q386.21875 342.9969 386.39062 343.075L386.39062 344.075ZM387.0625 346.23126Q387.0625 344.7625 387.75 343.8875Q388.4375 342.9969 389.5625 342.9969Q390.67188 342.9969 391.32812 343.7469L391.32812 340.45L392.40625 340.45L392.40625 349.45L391.40625 349.45L391.35938 348.7625Q390.70312 349.575 389.54688 349.575Q388.45312 349.575 387.75 348.66876Q387.0625 347.7625 387.0625 346.3094L387.0625 346.23126ZM388.14062 346.35626Q388.14062 347.4344 388.57812 348.04376Q389.03125 348.65314 389.8125 348.65314Q390.84375 348.65314 391.32812 347.71564L391.32812 344.8094Q390.84375 343.91876 389.82812 343.91876Q389.03125 343.91876 388.57812 344.52814Q388.14062 345.1375 388.14062 346.35626ZM396.57812 346.2625L393.71875 346.2625L393.71875 345.3875L396.57812 345.3875L396.57812 346.2625ZM400.76562 349.45L399.6875 349.45L399.6875 342.23126L397.5 343.02814L397.5 342.04376L400.60938 340.8719L400.76562 340.8719L400.76562 349.45ZM408.46875 340.91876L408.46875 341.825L408.26562 341.825Q407.0 341.85626 406.25 342.59064Q405.5 343.3094 405.375 344.6219Q406.0625 343.85626 407.21875 343.85626Q408.32812 343.85626 409.0 344.6375Q409.67188 345.41876 409.67188 346.66876Q409.67188 347.98126 408.95312 348.77814Q408.23438 349.575 407.01562 349.575Q405.79688 349.575 405.03125 348.6375Q404.28125 347.6844 404.28125 346.2L404.28125 345.79376Q404.28125 343.4344 405.28125 342.1844Q406.28125 340.9344 408.26562 340.91876L408.46875 340.91876ZM407.04688 344.7625Q406.48438 344.7625 406.01562 345.09064Q405.54688 345.41876 405.35938 345.9344L405.35938 346.325Q405.35938 347.3875 405.82812 348.02814Q406.3125 348.66876 407.01562 348.66876Q407.75 348.66876 408.17188 348.1375Q408.59375 347.59064 408.59375 346.71564Q408.59375 345.84064 408.17188 345.3094Q407.75 344.7625 407.04688 344.7625Z" fill-rule="nonzero"/><path fill="#757575" d="M21.628124 26.9875L21.690624 28.315624Q22.89375 26.784374 24.846874 26.784374Q28.20625 26.784374 28.221874 30.565624L28.221874 37.55L26.425 37.55L26.425 30.55Q26.409374 29.409374 25.89375 28.8625Q25.39375 28.315624 24.3 28.315624Q23.425 28.315624 22.753124 28.784374Q22.096874 29.253124 21.721874 30.01875L21.721874 37.55L19.925 37.55L19.925 26.9875L21.628124 26.9875ZM36.675 37.55L34.846874 37.55L34.846874 25.503124L31.20625 26.846874L31.20625 25.20625L36.39375 23.26875L36.675 23.26875L36.675 37.55ZM45.675 32.253124L40.909374 32.253124L40.909374 30.76875L45.675 30.76875L45.675 32.253124ZM54.065624 34.753124Q54.065624 34.01875 53.51875 33.6125Q52.971874 33.20625 51.596874 32.909374Q50.221874 32.6125 49.409374 32.20625Q48.6125 31.8 48.221874 31.2375Q47.846874 30.659374 47.846874 29.878124Q47.846874 28.58125 48.940624 27.690624Q50.034374 26.784374 51.753124 26.784374Q53.55 26.784374 54.659374 27.721874Q55.784374 28.64375 55.784374 30.08125L53.95625 30.08125Q53.95625 29.346874 53.33125 28.815624Q52.70625 28.26875 51.753124 28.26875Q50.753124 28.26875 50.190624 28.70625Q49.64375 29.128124 49.64375 29.83125Q49.64375 30.471874 50.159374 30.815624Q50.675 31.14375 52.034374 31.45625Q53.39375 31.753124 54.221874 32.175Q55.065624 32.58125 55.471874 33.175Q55.878124 33.76875 55.878124 34.6125Q55.878124 36.034374 54.7375 36.89375Q53.6125 37.753124 51.8 37.753124Q50.534374 37.753124 49.55 37.3Q48.58125 36.846874 48.01875 36.05Q47.471874 35.2375 47.471874 34.3L49.284374 34.3Q49.33125 35.20625 50.003124 35.7375Q50.690624 36.26875 51.8 36.26875Q52.83125 36.26875 53.440624 35.8625Q54.065624 35.440624 54.065624 34.753124ZM60.3625 24.425L60.3625 26.9875L62.346874 26.9875L62.346874 28.378124L60.3625 28.378124L60.3625 34.925Q60.3625 35.565624 60.628124 35.89375Q60.89375 36.20625 61.534374 36.20625Q61.846874 36.20625 62.39375 36.08125L62.39375 37.55Q61.675 37.753124 61.003124 37.753124Q59.8 37.753124 59.175 37.01875Q58.565624 36.284374 58.565624 34.925L58.565624 28.378124L56.64375 28.378124L56.64375 26.9875L58.565624 26.9875L58.565624 24.425L60.3625 24.425ZM71.44063 37.55Q71.28438 37.2375 71.19063 36.440624Q69.925 37.753124 68.175 37.753124Q66.6125 37.753124 65.6125 36.8625Q64.6125 35.971874 64.6125 34.6125Q64.6125 32.971874 65.8625 32.065624Q67.12813 31.14375 69.39375 31.14375L71.15938 31.14375L71.15938 30.315624Q71.15938 29.3625 70.58125 28.8Q70.01875 28.2375 68.925 28.2375Q67.95625 28.2375 67.3 28.7375Q66.64375 29.221874 66.64375 29.909374L64.83125 29.909374Q64.83125 29.128124 65.39375 28.39375Q65.95625 27.64375 66.90938 27.221874Q67.87813 26.784374 69.03438 26.784374Q70.8625 26.784374 71.89375 27.70625Q72.925 28.6125 72.97188 30.221874L72.97188 35.08125Q72.97188 36.534374 73.33125 37.39375L73.33125 37.55L71.44063 37.55ZM68.44063 36.175Q69.3 36.175 70.05 35.7375Q70.81563 35.3 71.15938 34.596874L71.15938 32.425L69.7375 32.425Q66.425 32.425 66.425 34.3625Q66.425 35.221874 66.9875 35.70625Q67.55 36.175 68.44063 36.175ZM77.62813 26.9875L77.69063 28.315624Q78.89375 26.784374 80.84688 26.784374Q84.20625 26.784374 84.22188 30.565624L84.22188 37.55L82.425 37.55L82.425 30.55Q82.40938 29.409374 81.89375 28.8625Q81.39375 28.315624 80.3 28.315624Q79.425 28.315624 78.75313 28.784374Q78.09688 29.253124 77.72188 30.01875L77.72188 37.55L75.925 37.55L75.925 26.9875L77.62813 26.9875ZM86.47188 32.175Q86.47188 29.753124 87.62813 28.26875Q88.78438 26.784374 90.64375 26.784374Q92.50313 26.784374 93.58125 28.05L93.58125 22.55L95.39375 22.55L95.39375 37.55L93.7375 37.55L93.64375 36.409374Q92.56563 37.753124 90.62813 37.753124Q88.8 37.753124 87.62813 36.253124Q86.47188 34.7375 86.47188 32.315624L86.47188 32.175ZM88.28438 32.378124Q88.28438 34.175 89.01875 35.190624Q89.76875 36.20625 91.08125 36.20625Q92.8 36.20625 93.58125 34.675L93.58125 29.815624Q92.78438 28.315624 91.09688 28.315624Q89.76875 28.315624 89.01875 29.346874Q88.28438 30.378124 88.28438 32.378124ZM104.44063 37.55Q104.28438 37.2375 104.19063 36.440624Q102.925 37.753124 101.175 37.753124Q99.6125 37.753124 98.6125 36.8625Q97.6125 35.971874 97.6125 34.6125Q97.6125 32.971874 98.8625 32.065624Q100.12813 31.14375 102.39375 31.14375L104.15938 31.14375L104.15938 30.315624Q104.15938 29.3625 103.58125 28.8Q103.01875 28.2375 101.925 28.2375Q100.95625 28.2375 100.3 28.7375Q99.64375 29.221874 99.64375 29.909374L97.83125 29.909374Q97.83125 29.128124 98.39375 28.39375Q98.95625 27.64375 99.90938 27.221874Q100.87813 26.784374 102.03438 26.784374Q103.8625 26.784374 104.89375 27.70625Q105.925 28.6125 105.97188 30.221874L105.97188 35.08125Q105.97188 36.534374 106.33125 37.39375L106.33125 37.55L104.44063 37.55ZM101.44063 36.175Q102.3 36.175 103.05 35.7375Q103.81563 35.3 104.15938 34.596874L104.15938 32.425L102.7375 32.425Q99.425 32.425 99.425 34.3625Q99.425 35.221874 99.9875 35.70625Q100.55 36.175 101.44063 36.175ZM114.01875 28.596874Q113.6125 28.534374 113.14375 28.534374Q111.3625 28.534374 110.72188 30.05L110.72188 37.55L108.925 37.55L108.925 26.9875L110.675 26.9875L110.70625 28.20625Q111.59688 26.784374 113.22188 26.784374Q113.75313 26.784374 114.01875 26.925L114.01875 28.596874ZM115.47188 32.175Q115.47188 29.753124 116.62813 28.26875Q117.78438 26.784374 119.64375 26.784374Q121.50313 26.784374 122.58125 28.05L122.58125 22.55L124.39375 22.55L124.39375 37.55L122.7375 37.55L122.64375 36.409374Q121.56563 37.753124 119.62813 37.753124Q117.8 37.753124 116.62813 36.253124Q115.47188 34.7375 115.47188 32.315624L115.47188 32.175ZM117.28438 32.378124Q117.28438 34.175 118.01875 35.190624Q118.76875 36.20625 120.08125 36.20625Q121.8 36.20625 122.58125 34.675L122.58125 29.815624Q121.78438 28.315624 120.09688 28.315624Q118.76875 28.315624 118.01875 29.346874Q117.28438 30.378124 117.28438 32.378124ZM130.675 32.253124L125.90938 32.253124L125.90938 30.76875L130.675 30.76875L130.675 32.253124ZM138.675 37.55L136.84688 37.55L136.84688 25.503124L133.20625 26.846874L133.20625 25.20625L138.39375 23.26875L138.675 23.26875L138.675 37.55ZM150.81563 23.315624L150.81563 24.846874L150.4875 24.846874Q148.37813 24.89375 147.12813 26.1125Q145.87813 27.315624 145.69063 29.51875Q146.81563 28.221874 148.75313 28.221874Q150.6125 28.221874 151.72188 29.534374Q152.83125 30.846874 152.83125 32.909374Q152.83125 35.1125 151.62813 36.440624Q150.425 37.753124 148.425 37.753124Q146.37813 37.753124 145.1125 36.190624Q143.84688 34.6125 143.84688 32.14375L143.84688 31.440624Q143.84688 27.51875 145.51875 25.440624Q147.19063 23.3625 150.50313 23.315624L150.81563 23.315624ZM148.45625 29.721874Q147.51875 29.721874 146.7375 30.284374Q145.95625 30.846874 145.65938 31.675L145.65938 32.346874Q145.65938 34.096874 146.44063 35.175Q147.2375 36.253124 148.425 36.253124Q149.64375 36.253124 150.33125 35.3625Q151.03438 34.45625 151.03438 33.003124Q151.03438 31.534374 150.33125 30.628124Q149.62813 29.721874 148.45625 29.721874ZM163.40938 35.096874L166.01875 26.9875L167.8625 26.9875L164.08125 37.55L162.70625 37.55L158.87813 26.9875L160.72188 26.9875L163.40938 35.096874ZM176.06563 34.753124Q176.06563 34.01875 175.51875 33.6125Q174.97188 33.20625 173.59688 32.909374Q172.22188 32.6125 171.40938 32.20625Q170.6125 31.8 170.22188 31.2375Q169.84688 30.659374 169.84688 29.878124Q169.84688 28.58125 170.94063 27.690624Q172.03438 26.784374 173.75313 26.784374Q175.55 26.784374 176.65938 27.721874Q177.78438 28.64375 177.78438 30.08125L175.95625 30.08125Q175.95625 29.346874 175.33125 28.815624Q174.70625 28.26875 173.75313 28.26875Q172.75313 28.26875 172.19063 28.70625Q171.64375 29.128124 171.64375 29.83125Q171.64375 30.471874 172.15938 30.815624Q172.675 31.14375 174.03438 31.45625Q175.39375 31.753124 176.22188 32.175Q177.06563 32.58125 177.47188 33.175Q177.87813 33.76875 177.87813 34.6125Q177.87813 36.034374 176.7375 36.89375Q175.6125 37.753124 173.8 37.753124Q172.53438 37.753124 171.55 37.3Q170.58125 36.846874 170.01875 36.05Q169.47188 35.2375 169.47188 34.3L171.28438 34.3Q171.33125 35.20625 172.00313 35.7375Q172.69063 36.26875 173.8 36.26875Q174.83125 36.26875 175.44063 35.8625Q176.06563 35.440624 176.06563 34.753124ZM189.15938 36.26875Q190.12813 36.26875 190.84688 35.690624Q191.56563 35.096874 191.64375 34.221874L193.3625 34.221874Q193.3 35.128124 192.72188 35.95625Q192.15938 36.76875 191.19063 37.26875Q190.2375 37.753124 189.15938 37.753124Q187.00313 37.753124 185.72188 36.315624Q184.45625 34.8625 184.45625 32.3625L184.45625 32.065624Q184.45625 30.51875 185.01875 29.315624Q185.58125 28.1125 186.64375 27.45625Q187.70625 26.784374 189.14375 26.784374Q190.925 26.784374 192.09688 27.846874Q193.28438 28.909374 193.3625 30.6125L191.64375 30.6125Q191.56563 29.596874 190.8625 28.940624Q190.175 28.26875 189.14375 28.26875Q187.76875 28.26875 187.00313 29.26875Q186.25313 30.253124 186.25313 32.128124L186.25313 32.471874Q186.25313 34.3 187.00313 35.284374Q187.75313 36.26875 189.15938 36.26875ZM204.05 37.55L194.7375 37.55L194.7375 36.253124L199.65938 30.784374Q200.75313 29.534374 201.15938 28.76875Q201.58125 27.9875 201.58125 27.159374Q201.58125 26.05 200.90938 25.33125Q200.2375 24.6125 199.1125 24.6125Q197.75313 24.6125 197.00313 25.39375Q196.26875 26.159374 196.26875 27.51875L194.45625 27.51875Q194.45625 25.55 195.72188 24.346874Q196.9875 23.128124 199.1125 23.128124Q201.09688 23.128124 202.2375 24.175Q203.39375 25.221874 203.39375 26.940624Q203.39375 29.05 200.72188 31.940624L196.90938 36.08125L204.05 36.08125L204.05 37.55ZM209.675 32.253124L204.90938 32.253124L204.90938 30.76875L209.675 30.76875L209.675 32.253124ZM218.06563 34.753124Q218.06563 34.01875 217.51875 33.6125Q216.97188 33.20625 215.59688 32.909374Q214.22188 32.6125 213.40938 32.20625Q212.6125 31.8 212.22188 31.2375Q211.84688 30.659374 211.84688 29.878124Q211.84688 28.58125 212.94063 27.690624Q214.03438 26.784374 215.75313 26.784374Q217.55 26.784374 218.65938 27.721874Q219.78438 28.64375 219.78438 30.08125L217.95625 30.08125Q217.95625 29.346874 217.33125 28.815624Q216.70625 28.26875 215.75313 28.26875Q214.75313 28.26875 214.19063 28.70625Q213.64375 29.128124 213.64375 29.83125Q213.64375 30.471874 214.15938 30.815624Q214.675 31.14375 216.03438 31.45625Q217.39375 31.753124 218.22188 32.175Q219.06563 32.58125 219.47188 33.175Q219.87813 33.76875 219.87813 34.6125Q219.87813 36.034374 218.7375 36.89375Q217.6125 37.753124 215.8 37.753124Q214.53438 37.753124 213.55 37.3Q212.58125 36.846874 212.01875 36.05Q211.47188 35.2375 211.47188 34.3L213.28438 34.3Q213.33125 35.20625 214.00313 35.7375Q214.69063 36.26875 215.8 36.26875Q216.83125 36.26875 217.44063 35.8625Q218.06563 35.440624 218.06563 34.753124ZM224.3625 24.425L224.3625 26.9875L226.34688 26.9875L226.34688 28.378124L224.3625 28.378124L224.3625 34.925Q224.3625 35.565624 224.62813 35.89375Q224.89375 36.20625 225.53438 36.20625Q225.84688 36.20625 226.39375 36.08125L226.39375 37.55Q225.675 37.753124 225.00313 37.753124Q223.8 37.753124 223.175 37.01875Q222.56563 36.284374 222.56563 34.925L222.56563 28.378124L220.64375 28.378124L220.64375 26.9875L222.56563 26.9875L222.56563 24.425L224.3625 24.425ZM235.44063 37.55Q235.28438 37.2375 235.19063 36.440624Q233.925 37.753124 232.175 37.753124Q230.6125 37.753124 229.6125 36.8625Q228.6125 35.971874 228.6125 34.6125Q228.6125 32.971874 229.8625 32.065624Q231.12813 31.14375 233.39375 31.14375L235.15938 31.14375L235.15938 30.315624Q235.15938 29.3625 234.58125 28.8Q234.01875 28.2375 232.925 28.2375Q231.95625 28.2375 231.3 28.7375Q230.64375 29.221874 230.64375 29.909374L228.83125 29.909374Q228.83125 29.128124 229.39375 28.39375Q229.95625 27.64375 230.90938 27.221874Q231.87813 26.784374 233.03438 26.784374Q234.8625 26.784374 235.89375 27.70625Q236.925 28.6125 236.97188 30.221874L236.97188 35.08125Q236.97188 36.534374 237.33125 37.39375L237.33125 37.55L235.44063 37.55ZM232.44063 36.175Q233.3 36.175 234.05 35.7375Q234.81563 35.3 235.15938 34.596874L235.15938 32.425L233.7375 32.425Q230.425 32.425 230.425 34.3625Q230.425 35.221874 230.9875 35.70625Q231.55 36.175 232.44063 36.175ZM241.62813 26.9875L241.69063 28.315624Q242.89375 26.784374 244.84688 26.784374Q248.20625 26.784374 248.22188 30.565624L248.22188 37.55L246.425 37.55L246.425 30.55Q246.40938 29.409374 245.89375 28.8625Q245.39375 28.315624 244.3 28.315624Q243.425 28.315624 242.75313 28.784374Q242.09688 29.253124 241.72188 30.01875L241.72188 37.55L239.925 37.55L239.925 26.9875L241.62813 26.9875ZM250.47188 32.175Q250.47188 29.753124 251.62813 28.26875Q252.78438 26.784374 254.64375 26.784374Q256.5031 26.784374 257.58124 28.05L257.58124 22.55L259.39374 22.55L259.39374 37.55L257.7375 37.55L257.64374 36.409374Q256.5656 37.753124 254.62813 37.753124Q252.8 37.753124 251.62813 36.253124Q250.47188 34.7375 250.47188 32.315624L250.47188 32.175ZM252.28438 32.378124Q252.28438 34.175 253.01875 35.190624Q253.76875 36.20625 255.08125 36.20625Q256.8 36.20625 257.58124 34.675L257.58124 29.815624Q256.78436 28.315624 255.09688 28.315624Q253.76875 28.315624 253.01875 29.346874Q252.28438 30.378124 252.28438 32.378124ZM268.4406 37.55Q268.28436 37.2375 268.1906 36.440624Q266.925 37.753124 265.175 37.753124Q263.6125 37.753124 262.6125 36.8625Q261.6125 35.971874 261.6125 34.6125Q261.6125 32.971874 262.8625 32.065624Q264.1281 31.14375 266.39374 31.14375L268.15936 31.14375L268.15936 30.315624Q268.15936 29.3625 267.58124 28.8Q267.01874 28.2375 265.925 28.2375Q264.95624 28.2375 264.3 28.7375Q263.64374 29.221874 263.64374 29.909374L261.83124 29.909374Q261.83124 29.128124 262.39374 28.39375Q262.95624 27.64375 263.90936 27.221874Q264.8781 26.784374 266.03436 26.784374Q267.8625 26.784374 268.89374 27.70625Q269.925 28.6125 269.97186 30.221874L269.97186 35.08125Q269.97186 36.534374 270.33124 37.39375L270.33124 37.55L268.4406 37.55ZM265.4406 36.175Q266.3 36.175 267.05 35.7375Q267.8156 35.3 268.15936 34.596874L268.15936 32.425L266.7375 32.425Q263.425 32.425 263.425 34.3625Q263.425 35.221874 263.9875 35.70625Q264.55 36.175 265.4406 36.175ZM278.01874 28.596874Q277.6125 28.534374 277.14374 28.534374Q275.3625 28.534374 274.72186 30.05L274.72186 37.55L272.925 37.55L272.925 26.9875L274.675 26.9875L274.70624 28.20625Q275.59686 26.784374 277.22186 26.784374Q277.7531 26.784374 278.01874 26.925L278.01874 28.596874ZM279.47186 32.175Q279.47186 29.753124 280.6281 28.26875Q281.78436 26.784374 283.64374 26.784374Q285.5031 26.784374 286.58124 28.05L286.58124 22.55L288.39374 22.55L288.39374 37.55L286.7375 37.55L286.64374 36.409374Q285.5656 37.753124 283.6281 37.753124Q281.8 37.753124 280.6281 36.253124Q279.47186 34.7375 279.47186 32.315624L279.47186 32.175ZM281.28436 32.378124Q281.28436 34.175 282.01874 35.190624Q282.76874 36.20625 284.08124 36.20625Q285.8 36.20625 286.58124 34.675L286.58124 29.815624Q285.78436 28.315624 284.09686 28.315624Q282.76874 28.315624 282.01874 29.346874Q281.28436 30.378124 281.28436 32.378124ZM294.675 32.253124L289.90936 32.253124L289.90936 30.76875L294.675 30.76875L294.675 32.253124ZM302.675 37.55L300.84686 37.55L300.84686 25.503124L297.20624 26.846874L297.20624 25.20625L302.39374 23.26875L302.675 23.26875L302.675 37.55ZM314.8156 23.315624L314.8156 24.846874L314.4875 24.846874Q312.3781 24.89375 311.1281 26.1125Q309.8781 27.315624 309.6906 29.51875Q310.8156 28.221874 312.7531 28.221874Q314.6125 28.221874 315.72186 29.534374Q316.83124 30.846874 316.83124 32.909374Q316.83124 35.1125 315.6281 36.440624Q314.425 37.753124 312.425 37.753124Q310.3781 37.753124 309.1125 36.190624Q307.84686 34.6125 307.84686 32.14375L307.84686 31.440624Q307.84686 27.51875 309.51874 25.440624Q311.1906 23.3625 314.5031 23.315624L314.8156 23.315624ZM312.45624 29.721874Q311.51874 29.721874 310.7375 30.284374Q309.95624 30.846874 309.65936 31.675L309.65936 32.346874Q309.65936 34.096874 310.4406 35.175Q311.2375 36.253124 312.425 36.253124Q313.64374 36.253124 314.33124 35.3625Q315.03436 34.45625 315.03436 33.003124Q315.03436 31.534374 314.33124 30.628124Q313.6281 29.721874 312.45624 29.721874ZM327.675 32.253124L322.90936 32.253124L322.90936 30.76875L327.675 30.76875L327.675 32.253124ZM337.08124 36.01875L343.83124 36.01875L343.83124 37.55L335.20624 37.55L335.20624 23.33125L337.08124 23.33125L337.08124 36.01875ZM352.4406 37.55Q352.28436 37.2375 352.1906 36.440624Q350.925 37.753124 349.175 37.753124Q347.6125 37.753124 346.6125 36.8625Q345.6125 35.971874 345.6125 34.6125Q345.6125 32.971874 346.8625 32.065624Q348.1281 31.14375 350.39374 31.14375L352.15936 31.14375L352.15936 30.315624Q352.15936 29.3625 351.58124 28.8Q351.01874 28.2375 349.925 28.2375Q348.95624 28.2375 348.3 28.7375Q347.64374 29.221874 347.64374 29.909374L345.83124 29.909374Q345.83124 29.128124 346.39374 28.39375Q346.95624 27.64375 347.90936 27.221874Q348.8781 26.784374 350.03436 26.784374Q351.8625 26.784374 352.89374 27.70625Q353.925 28.6125 353.97186 30.221874L353.97186 35.08125Q353.97186 36.534374 354.33124 37.39375L354.33124 37.55L352.4406 37.55ZM349.4406 36.175Q350.3 36.175 351.05 35.7375Q351.8156 35.3 352.15936 34.596874L352.15936 32.425L350.7375 32.425Q347.425 32.425 347.425 34.3625Q347.425 35.221874 347.9875 35.70625Q348.55 36.175 349.4406 36.175ZM359.3625 24.425L359.3625 26.9875L361.34686 26.9875L361.34686 28.378124L359.3625 28.378124L359.3625 34.925Q359.3625 35.565624 359.6281 35.89375Q359.89374 36.20625 360.53436 36.20625Q360.84686 36.20625 361.39374 36.08125L361.39374 37.55Q360.675 37.753124 360.0031 37.753124Q358.8 37.753124 358.175 37.01875Q357.5656 36.284374 357.5656 34.925L357.5656 28.378124L355.64374 28.378124L355.64374 26.9875L357.5656 26.9875L357.5656 24.425L359.3625 24.425ZM368.3 37.753124Q366.15936 37.753124 364.8 36.346874Q363.45624 34.925 363.45624 32.565624L363.45624 32.221874Q363.45624 30.659374 364.05 29.425Q364.65936 28.190624 365.7375 27.4875Q366.8156 26.784374 368.08124 26.784374Q370.14374 26.784374 371.28436 28.14375Q372.425 29.503124 372.425 32.034374L372.425 32.784374L365.26874 32.784374Q365.3 34.346874 366.175 35.315624Q367.05 36.26875 368.39374 36.26875Q369.3625 36.26875 370.01874 35.878124Q370.6906 35.4875 371.1906 34.846874L372.28436 35.70625Q370.95624 37.753124 368.3 37.753124ZM368.08124 28.26875Q366.9875 28.26875 366.2375 29.065624Q365.5031 29.8625 365.33124 31.3L370.6125 31.3L370.6125 31.159374Q370.53436 29.784374 369.8625 29.034374Q369.20624 28.26875 368.08124 28.26875ZM376.6281 26.9875L376.6906 28.315624Q377.89374 26.784374 379.84686 26.784374Q383.20624 26.784374 383.22186 30.565624L383.22186 37.55L381.425 37.55L381.425 30.55Q381.40936 29.409374 380.89374 28.8625Q380.39374 28.315624 379.3 28.315624Q378.425 28.315624 377.7531 28.784374Q377.09686 29.253124 376.72186 30.01875L376.72186 37.55L374.925 37.55L374.925 26.9875L376.6281 26.9875ZM390.15936 36.26875Q391.1281 36.26875 391.84686 35.690624Q392.5656 35.096874 392.64374 34.221874L394.3625 34.221874Q394.3 35.128124 393.72186 35.95625Q393.15936 36.76875 392.1906 37.26875Q391.2375 37.753124 390.15936 37.753124Q388.0031 37.753124 386.72186 36.315624Q385.45624 34.8625 385.45624 32.3625L385.45624 32.065624Q385.45624 30.51875 386.01874 29.315624Q386.58124 28.1125 387.64374 27.45625Q388.70624 26.784374 390.14374 26.784374Q391.925 26.784374 393.09686 27.846874Q394.28436 28.909374 394.3625 30.6125L392.64374 30.6125Q392.5656 29.596874 391.8625 28.940624Q391.175 28.26875 390.14374 28.26875Q388.76874 28.26875 388.0031 29.26875Q387.2531 30.253124 387.2531 32.128124L387.2531 32.471874Q387.2531 34.3 388.0031 35.284374Q388.7531 36.26875 390.15936 36.26875ZM399.3781 34.909374L401.83124 26.9875L403.76874 26.9875L399.51874 39.175Q398.53436 41.815624 396.39374 41.815624L396.05 41.784374L395.3781 41.659374L395.3781 40.190624L395.8625 40.2375Q396.78436 40.2375 397.28436 39.8625Q397.8 39.4875 398.1281 38.503124L398.53436 37.425L394.76874 26.9875L396.7375 26.9875L399.3781 34.909374Z" fill-rule="nonzero"/></svg>