<svg version="1.1" viewBox="0.0 0.0 600.0 371.0" fill="none" stroke="none" stroke-linecap="square" stroke-miterlimit="10" width="600" height="371" xmlns:xlink="http://www.w3.org/1999/xlink" xmlns="http://www.w3.org/2000/svg"><path fill="#ffffff" d="M0 0L600.0 0L600.0 371.0L0 371.0L0 0Z" fill-rule="nonzero"/><path stroke="#333333" stroke-width="1.0" stroke-linecap="butt" d="M66.5 304.5L581.5 304.5" fill-rule="nonzero"/><path stroke="#cccccc" stroke-width="1.0" stroke-linecap="butt" d="M66.5 255.5L581.5 255.5" fill-rule="nonzero"/><path stroke="#cccccc" stroke-width="1.0" stroke-linecap="butt" d="M66.5 207.5L581.5 207.5" fill-rule="nonzero"/><path stroke="#cccccc" stroke-width="1.0" stroke-linecap="butt" d="M66.5 159.5L581.5 159.5" fill-rule="nonzero"/><path stroke="#cccccc" stroke-width="1.0" stroke-linecap="butt" d="M66.5 110.5L581.5 110.5" fill-rule="nonzero"/><path stroke="#cccccc" stroke-width="1.0" stroke-linecap="butt" d="M66.5 62.5L581.5 62.5" fill-rule="nonzero"/><clipPath id="id_0"><path d="M66.55 62.416668L581.45 62.416668L581.45 304.08334L66.55 304.08334L66.55 62.416668Z" clip-rule="nonzero"/></clipPath><path stroke="#000000" stroke-width="0.0" stroke-linecap="butt" stroke-opacity="0.0" clip-path="url(#id_0)" d="M120.0 304.0L95.0 304.0L95.0 208.0C95.0 206.89543 95.89543 206.0 97.0 206.0L118.0 206.0C119.10457 206.0 120.0 206.89543 120.0 208.0Z" fill-rule="nonzero"/><path fill="#4285f4" clip-path="url(#id_0)" d="M120.0 304.0L95.0 304.0L95.0 208.0C95.0 206.89543 95.89543 206.0 97.0 206.0L118.0 206.0C119.10457 206.0 120.0 206.89543 120.0 208.0Z" fill-rule="nonzero"/><path stroke="#000000" stroke-width="0.0" stroke-linecap="butt" stroke-opacity="0.0" clip-path="url(#id_0)" d="M201.0 304.0L176.0 304.0L176.0 175.0C176.0 173.89543 176.89543 173.0 178.0 173.0L199.0 173.0C200.10457 173.0 201.0 173.89543 201.0 175.0Z" fill-rule="nonzero"/><path fill="#4285f4" clip-path="url(#id_0)" d="M201.0 304.0L176.0 304.0L176.0 175.0C176.0 173.89543 176.89543 173.0 178.0 173.0L199.0 173.0C200.10457 173.0 201.0 173.89543 201.0 175.0Z" fill-rule="nonzero"/><path stroke="#000000" stroke-width="0.0" stroke-linecap="butt" stroke-opacity="0.0" clip-path="url(#id_0)" d="M282.0 304.0L257.0 304.0L257.0 167.0C257.0 165.89543 257.89542 165.0 259.0 165.0L280.0 165.0C281.10458 165.0 282.0 165.89543 282.0 167.0Z" fill-rule="nonzero"/><path fill="#4285f4" clip-path="url(#id_0)" d="M282.0 304.0L257.0 304.0L257.0 167.0C257.0 165.89543 257.89542 165.0 259.0 165.0L280.0 165.0C281.10458 165.0 282.0 165.89543 282.0 167.0Z" fill-rule="nonzero"/><path stroke="#000000" stroke-width="0.0" stroke-linecap="butt" stroke-opacity="0.0" clip-path="url(#id_0)" d="M364.0 304.0L339.0 304.0L339.0 163.0C339.0 161.89543 339.89542 161.0 341.0 161.0L362.0 161.0C363.10458 161.0 364.0 161.89543 364.0 163.0Z" fill-rule="nonzero"/><path fill="#4285f4" clip-path="url(#id_0)" d="M364.0 304.0L339.0 304.0L339.0 163.0C339.0 161.89543 339.89542 161.0 341.0 161.0L362.0 161.0C363.10458 161.0 364.0 161.89543 364.0 163.0Z" fill-rule="nonzero"/><path stroke="#000000" stroke-width="0.0" stroke-linecap="butt" stroke-opacity="0.0" clip-path="url(#id_0)" d="M445.0 304.0L420.0 304.0L420.0 164.0C420.0 162.89543 420.89542 162.0 422.0 162.0L443.0 162.0C444.10458 162.0 445.0 162.89543 445.0 164.0Z" fill-rule="nonzero"/><path fill="#4285f4" clip-path="url(#id_0)" d="M445.0 304.0L420.0 304.0L420.0 164.0C420.0 162.89543 420.89542 162.0 422.0 162.0L443.0 162.0C444.10458 162.0 445.0 162.89543 445.0 164.0Z" fill-rule="nonzero"/><path stroke="#000000" stroke-width="0.0" stroke-linecap="butt" stroke-opacity="0.0" clip-path="url(#id_0)" d="M526.0 304.0L501.0 304.0L501.0 162.0C501.0 160.89543 501.89542 160.0 503.0 160.0L524.0 160.0C525.10455 160.0 526.0 160.89543 526.0 162.0Z" fill-rule="nonzero"/><path fill="#4285f4" clip-path="url(#id_0)" d="M526.0 304.0L501.0 304.0L501.0 162.0C501.0 160.89543 501.89542 160.0 503.0 160.0L524.0 160.0C525.10455 160.0 526.0 160.89543 526.0 162.0Z" fill-rule="nonzero"/><path stroke="#000000" stroke-width="0.0" stroke-linecap="butt" stroke-opacity="0.0" clip-path="url(#id_0)" d="M146.0 304.0L121.0 304.0L121.0 166.0C121.0 164.89543 121.89543 164.0 123.0 164.0L144.0 164.0C145.10457 164.0 146.0 164.89543 146.0 166.0Z" fill-rule="nonzero"/><path fill="#db4437" clip-path="url(#id_0)" d="M146.0 304.0L121.0 304.0L121.0 166.0C121.0 164.89543 121.89543 164.0 123.0 164.0L144.0 164.0C145.10457 164.0 146.0 164.89543 146.0 166.0Z" fill-rule="nonzero"/><path stroke="#000000" stroke-width="0.0" stroke-linecap="butt" stroke-opacity="0.0" clip-path="url(#id_0)" d="M227.0 304.0L202.0 304.0L202.0 102.0C202.0 100.89543 202.89543 100.0 204.0 100.0L225.0 100.0C226.10457 100.0 227.0 100.89543 227.0 102.0Z" fill-rule="nonzero"/><path fill="#db4437" clip-path="url(#id_0)" d="M227.0 304.0L202.0 304.0L202.0 102.0C202.0 100.89543 202.89543 100.0 204.0 100.0L225.0 100.0C226.10457 100.0 227.0 100.89543 227.0 102.0Z" fill-rule="nonzero"/><path stroke="#000000" stroke-width="0.0" stroke-linecap="butt" stroke-opacity="0.0" clip-path="url(#id_0)" d="M308.0 304.0L283.0 304.0L283.0 76.0C283.0 74.89543 283.89542 74.0 285.0 74.0L306.0 74.0C307.10458 74.0 308.0 74.89543 308.0 76.0Z" fill-rule="nonzero"/><path fill="#db4437" clip-path="url(#id_0)" d="M308.0 304.0L283.0 304.0L283.0 76.0C283.0 74.89543 283.89542 74.0 285.0 74.0L306.0 74.0C307.10458 74.0 308.0 74.89543 308.0 76.0Z" fill-rule="nonzero"/><path stroke="#000000" stroke-width="0.0" stroke-linecap="butt" stroke-opacity="0.0" clip-path="url(#id_0)" d="M390.0 304.0L365.0 304.0L365.0 72.0C365.0 70.89543 365.89542 70.0 367.0 70.0L388.0 70.0C389.10458 70.0 390.0 70.89543 390.0 72.0Z" fill-rule="nonzero"/><path fill="#db4437" clip-path="url(#id_0)" d="M390.0 304.0L365.0 304.0L365.0 72.0C365.0 70.89543 365.89542 70.0 367.0 70.0L388.0 70.0C389.10458 70.0 390.0 70.89543 390.0 72.0Z" fill-rule="nonzero"/><path stroke="#000000" stroke-width="0.0" stroke-linecap="butt" stroke-opacity="0.0" clip-path="url(#id_0)" d="M471.0 304.0L446.0 304.0L446.0 70.0C446.0 68.89543 446.89542 68.0 448.0 68.0L469.0 68.0C470.10458 68.0 471.0 68.89543 471.0 70.0Z" fill-rule="nonzero"/><path fill="#db4437" clip-path="url(#id_0)" d="M471.0 304.0L446.0 304.0L446.0 70.0C446.0 68.89543 446.89542 68.0 448.0 68.0L469.0 68.0C470.10458 68.0 471.0 68.89543 471.0 70.0Z" fill-rule="nonzero"/><path stroke="#000000" stroke-width="0.0" stroke-linecap="butt" stroke-opacity="0.0" clip-path="url(#id_0)" d="M552.0 304.0L527.0 304.0L527.0 69.0C527.0 67.89543 527.89545 67.0 529.0 67.0L550.0 67.0C551.10455 67.0 552.0 67.89543 552.0 69.0Z" fill-rule="nonzero"/><path fill="#db4437" clip-path="url(#id_0)" d="M552.0 304.0L527.0 304.0L527.0 69.0C527.0 67.89543 527.89545 67.0 529.0 67.0L550.0 67.0C551.10455 67.0 552.0 67.89543 552.0 69.0Z" fill-rule="nonzero"/><path fill="#757575" d="M59.6125 304.94272Q59.6125 306.84897 58.95625 307.78647Q58.315624 308.70834 56.925 308.70834Q55.565624 308.70834 54.909374 307.8021Q54.253124 306.89584 54.221874 305.08334L54.221874 303.64584Q54.221874 301.75522 54.8625 300.84897Q55.51875 299.9271 56.909374 299.9271Q58.284374 299.9271 58.940624 300.81772Q59.596874 301.69272 59.6125 303.53647L59.6125 304.94272ZM58.51875 303.45834Q58.51875 302.08334 58.128124 301.45834Q57.753124 300.81772 56.909374 300.81772Q56.08125 300.81772 55.690624 301.45834Q55.315624 302.08334 55.315624 303.38022L55.315624 305.1146Q55.315624 306.4896 55.70625 307.16147Q56.1125 307.81772 56.925 307.81772Q57.721874 307.81772 58.1125 307.19272Q58.503124 306.56772 58.51875 305.2396L58.51875 303.45834Z" fill-rule="nonzero"/><path fill="#757575" d="M22.815624 260.25L21.7375 260.25L21.7375 253.03125L19.55 253.82812L19.55 252.84375L22.659374 251.67188L22.815624 251.67188L22.815624 260.25ZM31.6125 256.60938Q31.6125 258.51562 30.95625 259.45312Q30.315624 260.375 28.925 260.375Q27.565624 260.375 26.909374 259.46875Q26.253124 258.5625 26.221874 256.75L26.221874 255.3125Q26.221874 253.42188 26.8625 252.51562Q27.51875 251.59375 28.909374 251.59375Q30.284374 251.59375 30.940624 252.48438Q31.596874 253.35938 31.6125 255.20312L31.6125 256.60938ZM30.51875 255.125Q30.51875 253.75 30.128124 253.125Q29.753124 252.48438 28.909374 252.48438Q28.08125 252.48438 27.690624 253.125Q27.315624 253.75 27.315624 255.04688L27.315624 256.78125Q27.315624 258.15625 27.70625 258.82812Q28.1125 259.48438 28.925 259.48438Q29.721874 259.48438 30.1125 258.85938Q30.503124 258.23438 30.51875 256.90625L30.51875 255.125ZM38.6125 256.60938Q38.6125 258.51562 37.95625 259.45312Q37.315624 260.375 35.925 260.375Q34.565624 260.375 33.909374 259.46875Q33.253124 258.5625 33.221874 256.75L33.221874 255.3125Q33.221874 253.42188 33.8625 252.51562Q34.51875 251.59375 35.909374 251.59375Q37.284374 251.59375 37.940624 252.48438Q38.596874 253.35938 38.6125 255.20312L38.6125 256.60938ZM37.51875 255.125Q37.51875 253.75 37.128124 253.125Q36.753124 252.48438 35.909374 252.48438Q35.08125 252.48438 34.690624 253.125Q34.315624 253.75 34.315624 255.04688L34.315624 256.78125Q34.315624 258.15625 34.70625 258.82812Q35.1125 259.48438 35.925 259.48438Q36.721874 259.48438 37.1125 258.85938Q37.503124 258.23438 37.51875 256.90625L37.51875 255.125ZM45.6125 256.60938Q45.6125 258.51562 44.95625 259.45312Q44.315624 260.375 42.925 260.375Q41.565624 260.375 40.909374 259.46875Q40.253124 258.5625 40.221874 256.75L40.221874 255.3125Q40.221874 253.42188 40.8625 252.51562Q41.51875 251.59375 42.909374 251.59375Q44.284374 251.59375 44.940624 252.48438Q45.596874 253.35938 45.6125 255.20312L45.6125 256.60938ZM44.51875 255.125Q44.51875 253.75 44.128124 253.125Q43.753124 252.48438 42.909374 252.48438Q42.08125 252.48438 41.690624 253.125Q41.315624 253.75 41.315624 255.04688L41.315624 256.78125Q41.315624 258.15625 41.70625 258.82812Q42.1125 259.48438 42.925 259.48438Q43.721874 259.48438 44.1125 258.85938Q44.503124 258.23438 44.51875 256.90625L44.51875 255.125ZM52.6125 256.60938Q52.6125 258.51562 51.95625 259.45312Q51.315624 260.375 49.925 260.375Q48.565624 260.375 47.909374 259.46875Q47.253124 258.5625 47.221874 256.75L47.221874 255.3125Q47.221874 253.42188 47.8625 252.51562Q48.51875 251.59375 49.909374 251.59375Q51.284374 251.59375 51.940624 252.48438Q52.596874 253.35938 52.6125 255.20312L52.6125 256.60938ZM51.51875 255.125Q51.51875 253.75 51.128124 253.125Q50.753124 252.48438 49.909374 252.48438Q49.08125 252.48438 48.690624 253.125Q48.315624 253.75 48.315624 255.04688L48.315624 256.78125Q48.315624 258.15625 48.70625 258.82812Q49.1125 259.48438 49.925 259.48438Q50.721874 259.48438 51.1125 258.85938Q51.503124 258.23438 51.51875 256.90625L51.51875 255.125ZM59.6125 256.60938Q59.6125 258.51562 58.95625 259.45312Q58.315624 260.375 56.925 260.375Q55.565624 260.375 54.909374 259.46875Q54.253124 258.5625 54.221874 256.75L54.221874 255.3125Q54.221874 253.42188 54.8625 252.51562Q55.51875 251.59375 56.909374 251.59375Q58.284374 251.59375 58.940624 252.48438Q59.596874 253.35938 59.6125 255.20312L59.6125 256.60938ZM58.51875 255.125Q58.51875 253.75 58.128124 253.125Q57.753124 252.48438 56.909374 252.48438Q56.08125 252.48438 55.690624 253.125Q55.315624 253.75 55.315624 255.04688L55.315624 256.78125Q55.315624 258.15625 55.70625 258.82812Q56.1125 259.48438 56.925 259.48438Q57.721874 259.48438 58.1125 258.85938Q58.503124 258.23438 58.51875 256.90625L58.51875 255.125Z" fill-rule="nonzero"/><path fill="#757575" d="M24.846874 211.91667L19.253124 211.91667L19.253124 211.13542L22.20625 207.85417Q22.8625 207.10417 23.1125 206.65105Q23.3625 206.1823 23.3625 205.6823Q23.3625 205.01042 22.95625 204.58855Q22.565624 204.15105 21.878124 204.15105Q21.08125 204.15105 20.628124 204.6198Q20.175 205.07292 20.175 205.90105L19.096874 205.90105Q19.096874 204.71355 19.846874 203.9948Q20.6125 203.26042 21.878124 203.26042Q23.08125 203.26042 23.76875 203.88542Q24.45625 204.51042 24.45625 205.5573Q24.45625 206.8073 22.846874 208.5573L20.565624 211.02605L24.846874 211.02605L24.846874 211.91667ZM31.6125 208.27605Q31.6125 210.1823 30.95625 211.1198Q30.315624 212.04167 28.925 212.04167Q27.565624 212.04167 26.909374 211.13542Q26.253124 210.22917 26.221874 208.41667L26.221874 206.97917Q26.221874 205.08855 26.8625 204.1823Q27.51875 203.26042 28.909374 203.26042Q30.284374 203.26042 30.940624 204.15105Q31.596874 205.02605 31.6125 206.8698L31.6125 208.27605ZM30.51875 206.79167Q30.51875 205.41667 30.128124 204.79167Q29.753124 204.15105 28.909374 204.15105Q28.08125 204.15105 27.690624 204.79167Q27.315624 205.41667 27.315624 206.71355L27.315624 208.44792Q27.315624 209.82292 27.70625 210.4948Q28.1125 211.15105 28.925 211.15105Q29.721874 211.15105 30.1125 210.52605Q30.503124 209.90105 30.51875 208.57292L30.51875 206.79167ZM38.6125 208.27605Q38.6125 210.1823 37.95625 211.1198Q37.315624 212.04167 35.925 212.04167Q34.565624 212.04167 33.909374 211.13542Q33.253124 210.22917 33.221874 208.41667L33.221874 206.97917Q33.221874 205.08855 33.8625 204.1823Q34.51875 203.26042 35.909374 203.26042Q37.284374 203.26042 37.940624 204.15105Q38.596874 205.02605 38.6125 206.8698L38.6125 208.27605ZM37.51875 206.79167Q37.51875 205.41667 37.128124 204.79167Q36.753124 204.15105 35.909374 204.15105Q35.08125 204.15105 34.690624 204.79167Q34.315624 205.41667 34.315624 206.71355L34.315624 208.44792Q34.315624 209.82292 34.70625 210.4948Q35.1125 211.15105 35.925 211.15105Q36.721874 211.15105 37.1125 210.52605Q37.503124 209.90105 37.51875 208.57292L37.51875 206.79167ZM45.6125 208.27605Q45.6125 210.1823 44.95625 211.1198Q44.315624 212.04167 42.925 212.04167Q41.565624 212.04167 40.909374 211.13542Q40.253124 210.22917 40.221874 208.41667L40.221874 206.97917Q40.221874 205.08855 40.8625 204.1823Q41.51875 203.26042 42.909374 203.26042Q44.284374 203.26042 44.940624 204.15105Q45.596874 205.02605 45.6125 206.8698L45.6125 208.27605ZM44.51875 206.79167Q44.51875 205.41667 44.128124 204.79167Q43.753124 204.15105 42.909374 204.15105Q42.08125 204.15105 41.690624 204.79167Q41.315624 205.41667 41.315624 206.71355L41.315624 208.44792Q41.315624 209.82292 41.70625 210.4948Q42.1125 211.15105 42.925 211.15105Q43.721874 211.15105 44.1125 210.52605Q44.503124 209.90105 44.51875 208.57292L44.51875 206.79167ZM52.6125 208.27605Q52.6125 210.1823 51.95625 211.1198Q51.315624 212.04167 49.925 212.04167Q48.565624 212.04167 47.909374 211.13542Q47.253124 210.22917 47.221874 208.41667L47.221874 206.97917Q47.221874 205.08855 47.8625 204.1823Q48.51875 203.26042 49.909374 203.26042Q51.284374 203.26042 51.940624 204.15105Q52.596874 205.02605 52.6125 206.8698L52.6125 208.27605ZM51.51875 206.79167Q51.51875 205.41667 51.128124 204.79167Q50.753124 204.15105 49.909374 204.15105Q49.08125 204.15105 48.690624 204.79167Q48.315624 205.41667 48.315624 206.71355L48.315624 208.44792Q48.315624 209.82292 48.70625 210.4948Q49.1125 211.15105 49.925 211.15105Q50.721874 211.15105 51.1125 210.52605Q51.503124 209.90105 51.51875 208.57292L51.51875 206.79167ZM59.6125 208.27605Q59.6125 210.1823 58.95625 211.1198Q58.315624 212.04167 56.925 212.04167Q55.565624 212.04167 54.909374 211.13542Q54.253124 210.22917 54.221874 208.41667L54.221874 206.97917Q54.221874 205.08855 54.8625 204.1823Q55.51875 203.26042 56.909374 203.26042Q58.284374 203.26042 58.940624 204.15105Q59.596874 205.02605 59.6125 206.8698L59.6125 208.27605ZM58.51875 206.79167Q58.51875 205.41667 58.128124 204.79167Q57.753124 204.15105 56.909374 204.15105Q56.08125 204.15105 55.690624 204.79167Q55.315624 205.41667 55.315624 206.71355L55.315624 208.44792Q55.315624 209.82292 55.70625 210.4948Q56.1125 211.15105 56.925 211.15105Q57.721874 211.15105 58.1125 210.52605Q58.503124 209.90105 58.51875 208.57292L58.51875 206.79167Z" fill-rule="nonzero"/><path fill="#757575" d="M20.83125 158.78645L21.64375 158.78645Q22.425 158.77083 22.8625 158.3802Q23.3 157.98958 23.3 157.3177Q23.3 155.8177 21.8 155.8177Q21.096874 155.8177 20.675 156.22395Q20.26875 156.6302 20.26875 157.28645L19.175 157.28645Q19.175 156.27083 19.909374 155.59895Q20.659374 154.92708 21.8 154.92708Q23.003124 154.92708 23.690624 155.5677Q24.378124 156.20833 24.378124 157.34895Q24.378124 157.91145 24.01875 158.42708Q23.659374 158.9427 23.034374 159.20833Q23.7375 159.42708 24.1125 159.9427Q24.503124 160.45833 24.503124 161.20833Q24.503124 162.34895 23.753124 163.03645Q23.003124 163.70833 21.8 163.70833Q20.6125 163.70833 19.846874 163.05208Q19.096874 162.39583 19.096874 161.33333L20.190624 161.33333Q20.190624 162.0052 20.628124 162.41145Q21.065624 162.8177 21.815624 162.8177Q22.596874 162.8177 23.003124 162.41145Q23.425 161.98958 23.425 161.22395Q23.425 160.48958 22.971874 160.09895Q22.51875 159.6927 21.64375 159.67708L20.83125 159.67708L20.83125 158.78645ZM31.6125 159.9427Q31.6125 161.84895 30.95625 162.78645Q30.315624 163.70833 28.925 163.70833Q27.565624 163.70833 26.909374 162.80208Q26.253124 161.89583 26.221874 160.08333L26.221874 158.64583Q26.221874 156.7552 26.8625 155.84895Q27.51875 154.92708 28.909374 154.92708Q30.284374 154.92708 30.940624 155.8177Q31.596874 156.6927 31.6125 158.53645L31.6125 159.9427ZM30.51875 158.45833Q30.51875 157.08333 30.128124 156.45833Q29.753124 155.8177 28.909374 155.8177Q28.08125 155.8177 27.690624 156.45833Q27.315624 157.08333 27.315624 158.3802L27.315624 160.11458Q27.315624 161.48958 27.70625 162.16145Q28.1125 162.8177 28.925 162.8177Q29.721874 162.8177 30.1125 162.1927Q30.503124 161.5677 30.51875 160.23958L30.51875 158.45833ZM38.6125 159.9427Q38.6125 161.84895 37.95625 162.78645Q37.315624 163.70833 35.925 163.70833Q34.565624 163.70833 33.909374 162.80208Q33.253124 161.89583 33.221874 160.08333L33.221874 158.64583Q33.221874 156.7552 33.8625 155.84895Q34.51875 154.92708 35.909374 154.92708Q37.284374 154.92708 37.940624 155.8177Q38.596874 156.6927 38.6125 158.53645L38.6125 159.9427ZM37.51875 158.45833Q37.51875 157.08333 37.128124 156.45833Q36.753124 155.8177 35.909374 155.8177Q35.08125 155.8177 34.690624 156.45833Q34.315624 157.08333 34.315624 158.3802L34.315624 160.11458Q34.315624 161.48958 34.70625 162.16145Q35.1125 162.8177 35.925 162.8177Q36.721874 162.8177 37.1125 162.1927Q37.503124 161.5677 37.51875 160.23958L37.51875 158.45833ZM45.6125 159.9427Q45.6125 161.84895 44.95625 162.78645Q44.315624 163.70833 42.925 163.70833Q41.565624 163.70833 40.909374 162.80208Q40.253124 161.89583 40.221874 160.08333L40.221874 158.64583Q40.221874 156.7552 40.8625 155.84895Q41.51875 154.92708 42.909374 154.92708Q44.284374 154.92708 44.940624 155.8177Q45.596874 156.6927 45.6125 158.53645L45.6125 159.9427ZM44.51875 158.45833Q44.51875 157.08333 44.128124 156.45833Q43.753124 155.8177 42.909374 155.8177Q42.08125 155.8177 41.690624 156.45833Q41.315624 157.08333 41.315624 158.3802L41.315624 160.11458Q41.315624 161.48958 41.70625 162.16145Q42.1125 162.8177 42.925 162.8177Q43.721874 162.8177 44.1125 162.1927Q44.503124 161.5677 44.51875 160.23958L44.51875 158.45833ZM52.6125 159.9427Q52.6125 161.84895 51.95625 162.78645Q51.315624 163.70833 49.925 163.70833Q48.565624 163.70833 47.909374 162.80208Q47.253124 161.89583 47.221874 160.08333L47.221874 158.64583Q47.221874 156.7552 47.8625 155.84895Q48.51875 154.92708 49.909374 154.92708Q51.284374 154.92708 51.940624 155.8177Q52.596874 156.6927 52.6125 158.53645L52.6125 159.9427ZM51.51875 158.45833Q51.51875 157.08333 51.128124 156.45833Q50.753124 155.8177 49.909374 155.8177Q49.08125 155.8177 48.690624 156.45833Q48.315624 157.08333 48.315624 158.3802L48.315624 160.11458Q48.315624 161.48958 48.70625 162.16145Q49.1125 162.8177 49.925 162.8177Q50.721874 162.8177 51.1125 162.1927Q51.503124 161.5677 51.51875 160.23958L51.51875 158.45833ZM59.6125 159.9427Q59.6125 161.84895 58.95625 162.78645Q58.315624 163.70833 56.925 163.70833Q55.565624 163.70833 54.909374 162.80208Q54.253124 161.89583 54.221874 160.08333L54.221874 158.64583Q54.221874 156.7552 54.8625 155.84895Q55.51875 154.92708 56.909374 154.92708Q58.284374 154.92708 58.940624 155.8177Q59.596874 156.6927 59.6125 158.53645L59.6125 159.9427ZM58.51875 158.45833Q58.51875 157.08333 58.128124 156.45833Q57.753124 155.8177 56.909374 155.8177Q56.08125 155.8177 55.690624 156.45833Q55.315624 157.08333 55.315624 158.3802L55.315624 160.11458Q55.315624 161.48958 55.70625 162.16145Q56.1125 162.8177 56.925 162.8177Q57.721874 162.8177 58.1125 162.1927Q58.503124 161.5677 58.51875 160.23958L58.51875 158.45833Z" fill-rule="nonzero"/><path fill="#757575" d="M23.83125 112.390625L25.01875 112.390625L25.01875 113.265625L23.83125 113.265625L23.83125 115.25L22.753124 115.25L22.753124 113.265625L18.8625 113.265625L18.8625 112.625L22.675 106.71875L23.83125 106.71875L23.83125 112.390625ZM20.096874 112.390625L22.753124 112.390625L22.753124 108.203125L22.6125 108.4375L20.096874 112.390625ZM31.6125 111.609375Q31.6125 113.515625 30.95625 114.453125Q30.315624 115.375 28.925 115.375Q27.565624 115.375 26.909374 114.46875Q26.253124 113.5625 26.221874 111.75L26.221874 110.3125Q26.221874 108.421875 26.8625 107.515625Q27.51875 106.59375 28.909374 106.59375Q30.284374 106.59375 30.940624 107.484375Q31.596874 108.359375 31.6125 110.203125L31.6125 111.609375ZM30.51875 110.125Q30.51875 108.75 30.128124 108.125Q29.753124 107.484375 28.909374 107.484375Q28.08125 107.484375 27.690624 108.125Q27.315624 108.75 27.315624 110.046875L27.315624 111.78125Q27.315624 113.15625 27.70625 113.828125Q28.1125 114.484375 28.925 114.484375Q29.721874 114.484375 30.1125 113.859375Q30.503124 113.234375 30.51875 111.90625L30.51875 110.125ZM38.6125 111.609375Q38.6125 113.515625 37.95625 114.453125Q37.315624 115.375 35.925 115.375Q34.565624 115.375 33.909374 114.46875Q33.253124 113.5625 33.221874 111.75L33.221874 110.3125Q33.221874 108.421875 33.8625 107.515625Q34.51875 106.59375 35.909374 106.59375Q37.284374 106.59375 37.940624 107.484375Q38.596874 108.359375 38.6125 110.203125L38.6125 111.609375ZM37.51875 110.125Q37.51875 108.75 37.128124 108.125Q36.753124 107.484375 35.909374 107.484375Q35.08125 107.484375 34.690624 108.125Q34.315624 108.75 34.315624 110.046875L34.315624 111.78125Q34.315624 113.15625 34.70625 113.828125Q35.1125 114.484375 35.925 114.484375Q36.721874 114.484375 37.1125 113.859375Q37.503124 113.234375 37.51875 111.90625L37.51875 110.125ZM45.6125 111.609375Q45.6125 113.515625 44.95625 114.453125Q44.315624 115.375 42.925 115.375Q41.565624 115.375 40.909374 114.46875Q40.253124 113.5625 40.221874 111.75L40.221874 110.3125Q40.221874 108.421875 40.8625 107.515625Q41.51875 106.59375 42.909374 106.59375Q44.284374 106.59375 44.940624 107.484375Q45.596874 108.359375 45.6125 110.203125L45.6125 111.609375ZM44.51875 110.125Q44.51875 108.75 44.128124 108.125Q43.753124 107.484375 42.909374 107.484375Q42.08125 107.484375 41.690624 108.125Q41.315624 108.75 41.315624 110.046875L41.315624 111.78125Q41.315624 113.15625 41.70625 113.828125Q42.1125 114.484375 42.925 114.484375Q43.721874 114.484375 44.1125 113.859375Q44.503124 113.234375 44.51875 111.90625L44.51875 110.125ZM52.6125 111.609375Q52.6125 113.515625 51.95625 114.453125Q51.315624 115.375 49.925 115.375Q48.565624 115.375 47.909374 114.46875Q47.253124 113.5625 47.221874 111.75L47.221874 110.3125Q47.221874 108.421875 47.8625 107.515625Q48.51875 106.59375 49.909374 106.59375Q51.284374 106.59375 51.940624 107.484375Q52.596874 108.359375 52.6125 110.203125L52.6125 111.609375ZM51.51875 110.125Q51.51875 108.75 51.128124 108.125Q50.753124 107.484375 49.909374 107.484375Q49.08125 107.484375 48.690624 108.125Q48.315624 108.75 48.315624 110.046875L48.315624 111.78125Q48.315624 113.15625 48.70625 113.828125Q49.1125 114.484375 49.925 114.484375Q50.721874 114.484375 51.1125 113.859375Q51.503124 113.234375 51.51875 111.90625L51.51875 110.125ZM59.6125 111.609375Q59.6125 113.515625 58.95625 114.453125Q58.315624 115.375 56.925 115.375Q55.565624 115.375 54.909374 114.46875Q54.253124 113.5625 54.221874 111.75L54.221874 110.3125Q54.221874 108.421875 54.8625 107.515625Q55.51875 106.59375 56.909374 106.59375Q58.284374 106.59375 58.940624 107.484375Q59.596874 108.359375 59.6125 110.203125L59.6125 111.609375ZM58.51875 110.125Q58.51875 108.75 58.128124 108.125Q57.753124 107.484375 56.909374 107.484375Q56.08125 107.484375 55.690624 108.125Q55.315624 108.75 55.315624 110.046875L55.315624 111.78125Q55.315624 113.15625 55.70625 113.828125Q56.1125 114.484375 56.925 114.484375Q57.721874 114.484375 58.1125 113.859375Q58.503124 113.234375 58.51875 111.90625L58.51875 110.125Z" fill-rule="nonzero"/><path fill="#757575" d="M19.753124 62.635414L20.190624 58.385414L24.565624 58.385414L24.565624 59.385414L21.1125 59.385414L20.846874 61.71354Q21.4875 61.33854 22.284374 61.33854Q23.440624 61.33854 24.128124 62.11979Q24.815624 62.885414 24.815624 64.197914Q24.815624 65.510414 24.096874 66.27604Q23.39375 67.041664 22.1125 67.041664Q20.9875 67.041664 20.26875 66.416664Q19.55 65.77604 19.45625 64.666664L20.471874 64.666664Q20.58125 65.40104 21.003124 65.77604Q21.425 66.15104 22.1125 66.15104Q22.8625 66.15104 23.3 65.635414Q23.7375 65.11979 23.7375 64.21354Q23.7375 63.354164 23.26875 62.83854Q22.8 62.322914 22.01875 62.322914Q21.315624 62.322914 20.909374 62.61979L20.628124 62.854164L19.753124 62.635414ZM31.6125 63.27604Q31.6125 65.18229 30.95625 66.11979Q30.315624 67.041664 28.925 67.041664Q27.565624 67.041664 26.909374 66.135414Q26.253124 65.229164 26.221874 63.416664L26.221874 61.979164Q26.221874 60.08854 26.8625 59.18229Q27.51875 58.260414 28.909374 58.260414Q30.284374 58.260414 30.940624 59.15104Q31.596874 60.02604 31.6125 61.86979L31.6125 63.27604ZM30.51875 61.791664Q30.51875 60.416664 30.128124 59.791664Q29.753124 59.15104 28.909374 59.15104Q28.08125 59.15104 27.690624 59.791664Q27.315624 60.416664 27.315624 61.71354L27.315624 63.447914Q27.315624 64.822914 27.70625 65.49479Q28.1125 66.15104 28.925 66.15104Q29.721874 66.15104 30.1125 65.52604Q30.503124 64.90104 30.51875 63.572914L30.51875 61.791664ZM38.6125 63.27604Q38.6125 65.18229 37.95625 66.11979Q37.315624 67.041664 35.925 67.041664Q34.565624 67.041664 33.909374 66.135414Q33.253124 65.229164 33.221874 63.416664L33.221874 61.979164Q33.221874 60.08854 33.8625 59.18229Q34.51875 58.260414 35.909374 58.260414Q37.284374 58.260414 37.940624 59.15104Q38.596874 60.02604 38.6125 61.86979L38.6125 63.27604ZM37.51875 61.791664Q37.51875 60.416664 37.128124 59.791664Q36.753124 59.15104 35.909374 59.15104Q35.08125 59.15104 34.690624 59.791664Q34.315624 60.416664 34.315624 61.71354L34.315624 63.447914Q34.315624 64.822914 34.70625 65.49479Q35.1125 66.15104 35.925 66.15104Q36.721874 66.15104 37.1125 65.52604Q37.503124 64.90104 37.51875 63.572914L37.51875 61.791664ZM45.6125 63.27604Q45.6125 65.18229 44.95625 66.11979Q44.315624 67.041664 42.925 67.041664Q41.565624 67.041664 40.909374 66.135414Q40.253124 65.229164 40.221874 63.416664L40.221874 61.979164Q40.221874 60.08854 40.8625 59.18229Q41.51875 58.260414 42.909374 58.260414Q44.284374 58.260414 44.940624 59.15104Q45.596874 60.02604 45.6125 61.86979L45.6125 63.27604ZM44.51875 61.791664Q44.51875 60.416664 44.128124 59.791664Q43.753124 59.15104 42.909374 59.15104Q42.08125 59.15104 41.690624 59.791664Q41.315624 60.416664 41.315624 61.71354L41.315624 63.447914Q41.315624 64.822914 41.70625 65.49479Q42.1125 66.15104 42.925 66.15104Q43.721874 66.15104 44.1125 65.52604Q44.503124 64.90104 44.51875 63.572914L44.51875 61.791664ZM52.6125 63.27604Q52.6125 65.18229 51.95625 66.11979Q51.315624 67.041664 49.925 67.041664Q48.565624 67.041664 47.909374 66.135414Q47.253124 65.229164 47.221874 63.416664L47.221874 61.979164Q47.221874 60.08854 47.8625 59.18229Q48.51875 58.260414 49.909374 58.260414Q51.284374 58.260414 51.940624 59.15104Q52.596874 60.02604 52.6125 61.86979L52.6125 63.27604ZM51.51875 61.791664Q51.51875 60.416664 51.128124 59.791664Q50.753124 59.15104 49.909374 59.15104Q49.08125 59.15104 48.690624 59.791664Q48.315624 60.416664 48.315624 61.71354L48.315624 63.447914Q48.315624 64.822914 48.70625 65.49479Q49.1125 66.15104 49.925 66.15104Q50.721874 66.15104 51.1125 65.52604Q51.503124 64.90104 51.51875 63.572914L51.51875 61.791664ZM59.6125 63.27604Q59.6125 65.18229 58.95625 66.11979Q58.315624 67.041664 56.925 67.041664Q55.565624 67.041664 54.909374 66.135414Q54.253124 65.229164 54.221874 63.416664L54.221874 61.979164Q54.221874 60.08854 54.8625 59.18229Q55.51875 58.260414 56.909374 58.260414Q58.284374 58.260414 58.940624 59.15104Q59.596874 60.02604 59.6125 61.86979L59.6125 63.27604ZM58.51875 61.791664Q58.51875 60.416664 58.128124 59.791664Q57.753124 59.15104 56.909374 59.15104Q56.08125 59.15104 55.690624 59.791664Q55.315624 60.416664 55.315624 61.71354L55.315624 63.447914Q55.315624 64.822914 55.70625 65.49479Q56.1125 66.15104 56.925 66.15104Q57.721874 66.15104 58.1125 65.52604Q58.503124 64.90104 58.51875 63.572914L58.51875 61.791664Z" fill-rule="nonzero"/><path fill="#757575" d="M115.04909 322.08334L113.97096 322.08334L113.97096 314.8646L111.78346 315.66147L111.78346 314.6771L114.89284 313.50522L115.04909 313.50522L115.04909 322.08334ZM118.98659 317.8021L119.42409 313.5521L123.79909 313.5521L123.79909 314.5521L120.34596 314.5521L120.08034 316.88022Q120.72096 316.50522 121.51784 316.50522Q122.67409 316.50522 123.36159 317.28647Q124.04909 318.0521 124.04909 319.3646Q124.04909 320.6771 123.33034 321.44272Q122.62721 322.20834 121.34596 322.20834Q120.22096 322.20834 119.50221 321.58334Q118.78346 320.94272 118.68971 319.83334L119.70534 319.83334Q119.81471 320.56772 120.23659 320.94272Q120.65846 321.31772 121.34596 321.31772Q122.09596 321.31772 122.53346 320.8021Q122.97096 320.28647 122.97096 319.38022Q122.97096 318.52084 122.50221 318.00522Q122.03346 317.4896 121.25221 317.4896Q120.54909 317.4896 120.14284 317.78647L119.86159 318.02084L118.98659 317.8021ZM130.84596 318.44272Q130.84596 320.34897 130.18971 321.28647Q129.54909 322.20834 128.15846 322.20834Q126.79909 322.20834 126.14284 321.3021Q125.48659 320.39584 125.45534 318.58334L125.45534 317.14584Q125.45534 315.25522 126.09596 314.34897Q126.75221 313.4271 128.14284 313.4271Q129.51784 313.4271 130.17409 314.31772Q130.83034 315.19272 130.84596 317.03647L130.84596 318.44272ZM129.75221 316.95834Q129.75221 315.58334 129.36159 314.95834Q128.98659 314.31772 128.14284 314.31772Q127.31471 314.31772 126.92409 314.95834Q126.54909 315.58334 126.54909 316.88022L126.54909 318.6146Q126.54909 319.9896 126.93971 320.66147Q127.34596 321.31772 128.15846 321.31772Q128.95534 321.31772 129.34596 320.69272Q129.73659 320.06772 129.75221 318.7396L129.75221 316.95834Z" fill-rule="nonzero"/><path fill="#757575" d="M194.15132 317.28647L194.96382 317.28647Q195.74507 317.27084 196.18257 316.88022Q196.62007 316.4896 196.62007 315.81772Q196.62007 314.31772 195.12007 314.31772Q194.41695 314.31772 193.99507 314.72397Q193.58882 315.13022 193.58882 315.78647L192.49507 315.78647Q192.49507 314.77084 193.22945 314.09897Q193.97945 313.4271 195.12007 313.4271Q196.3232 313.4271 197.0107 314.06772Q197.6982 314.70834 197.6982 315.84897Q197.6982 316.41147 197.33882 316.9271Q196.97945 317.44272 196.35445 317.70834Q197.05757 317.9271 197.43257 318.44272Q197.8232 318.95834 197.8232 319.70834Q197.8232 320.84897 197.0732 321.53647Q196.3232 322.20834 195.12007 322.20834Q193.93257 322.20834 193.16695 321.5521Q192.41695 320.89584 192.41695 319.83334L193.5107 319.83334Q193.5107 320.50522 193.9482 320.91147Q194.3857 321.31772 195.1357 321.31772Q195.91695 321.31772 196.3232 320.91147Q196.74507 320.4896 196.74507 319.72397Q196.74507 318.9896 196.29195 318.59897Q195.83882 318.19272 194.96382 318.1771L194.15132 318.1771L194.15132 317.28647ZM204.93257 318.44272Q204.93257 320.34897 204.27632 321.28647Q203.6357 322.20834 202.24507 322.20834Q200.8857 322.20834 200.22945 321.3021Q199.5732 320.39584 199.54195 318.58334L199.54195 317.14584Q199.54195 315.25522 200.18257 314.34897Q200.83882 313.4271 202.22945 313.4271Q203.60445 313.4271 204.2607 314.31772Q204.91695 315.19272 204.93257 317.03647L204.93257 318.44272ZM203.83882 316.95834Q203.83882 315.58334 203.4482 314.95834Q203.0732 314.31772 202.22945 314.31772Q201.40132 314.31772 201.0107 314.95834Q200.6357 315.58334 200.6357 316.88022L200.6357 318.6146Q200.6357 319.9896 201.02632 320.66147Q201.43257 321.31772 202.24507 321.31772Q203.04195 321.31772 203.43257 320.69272Q203.8232 320.06772 203.83882 318.7396L203.83882 316.95834ZM211.93257 318.44272Q211.93257 320.34897 211.27632 321.28647Q210.6357 322.20834 209.24507 322.20834Q207.8857 322.20834 207.22945 321.3021Q206.5732 320.39584 206.54195 318.58334L206.54195 317.14584Q206.54195 315.25522 207.18257 314.34897Q207.83882 313.4271 209.22945 313.4271Q210.60445 313.4271 211.2607 314.31772Q211.91695 315.19272 211.93257 317.03647L211.93257 318.44272ZM210.83882 316.95834Q210.83882 315.58334 210.4482 314.95834Q210.0732 314.31772 209.22945 314.31772Q208.40132 314.31772 208.0107 314.95834Q207.6357 315.58334 207.6357 316.88022L207.6357 318.6146Q207.6357 319.9896 208.02632 320.66147Q208.43257 321.31772 209.24507 321.31772Q210.04195 321.31772 210.43257 320.69272Q210.8232 320.06772 210.83882 318.7396L210.83882 316.95834Z" fill-rule="nonzero"/><path fill="#757575" d="M277.92545 313.5521L277.92545 314.45834L277.72232 314.45834Q276.4567 314.4896 275.7067 315.22397Q274.9567 315.94272 274.8317 317.25522Q275.5192 316.4896 276.67545 316.4896Q277.78482 316.4896 278.4567 317.27084Q279.12857 318.0521 279.12857 319.3021Q279.12857 320.6146 278.40982 321.41147Q277.69107 322.20834 276.47232 322.20834Q275.25357 322.20834 274.48795 321.27084Q273.73795 320.31772 273.73795 318.83334L273.73795 318.4271Q273.73795 316.06772 274.73795 314.81772Q275.73795 313.56772 277.72232 313.5521L277.92545 313.5521ZM276.50357 317.39584Q275.94107 317.39584 275.47232 317.72397Q275.00357 318.0521 274.81607 318.56772L274.81607 318.95834Q274.81607 320.02084 275.28482 320.66147Q275.7692 321.3021 276.47232 321.3021Q277.2067 321.3021 277.62857 320.77084Q278.05045 320.22397 278.05045 319.34897Q278.05045 318.47397 277.62857 317.94272Q277.2067 317.39584 276.50357 317.39584ZM286.0192 318.44272Q286.0192 320.34897 285.36295 321.28647Q284.72232 322.20834 283.3317 322.20834Q281.97232 322.20834 281.31607 321.3021Q280.65982 320.39584 280.62857 318.58334L280.62857 317.14584Q280.62857 315.25522 281.2692 314.34897Q281.92545 313.4271 283.31607 313.4271Q284.69107 313.4271 285.34732 314.31772Q286.00357 315.19272 286.0192 317.03647L286.0192 318.44272ZM284.92545 316.95834Q284.92545 315.58334 284.53482 314.95834Q284.15982 314.31772 283.31607 314.31772Q282.48795 314.31772 282.09732 314.95834Q281.72232 315.58334 281.72232 316.88022L281.72232 318.6146Q281.72232 319.9896 282.11295 320.66147Q282.5192 321.31772 283.3317 321.31772Q284.12857 321.31772 284.5192 320.69272Q284.90982 320.06772 284.92545 318.7396L284.92545 316.95834ZM293.0192 318.44272Q293.0192 320.34897 292.36295 321.28647Q291.72232 322.20834 290.3317 322.20834Q288.97232 322.20834 288.31607 321.3021Q287.65982 320.39584 287.62857 318.58334L287.62857 317.14584Q287.62857 315.25522 288.2692 314.34897Q288.92545 313.4271 290.31607 313.4271Q291.69107 313.4271 292.34732 314.31772Q293.00357 315.19272 293.0192 317.03647L293.0192 318.44272ZM291.92545 316.95834Q291.92545 315.58334 291.53482 314.95834Q291.15982 314.31772 290.31607 314.31772Q289.48795 314.31772 289.09732 314.95834Q288.72232 315.58334 288.72232 316.88022L288.72232 318.6146Q288.72232 319.9896 289.11295 320.66147Q289.5192 321.31772 290.3317 321.31772Q291.12857 321.31772 291.5192 320.69272Q291.90982 320.06772 291.92545 318.7396L291.92545 316.95834Z" fill-rule="nonzero"/><path fill="#757575" d="M358.90268 318.33334Q358.57455 318.7396 358.09018 318.9896Q357.62143 319.22397 357.05893 319.22397Q356.32455 319.22397 355.77768 318.8646Q355.2308 318.50522 354.93393 317.84897Q354.63705 317.1771 354.63705 316.38022Q354.63705 315.53647 354.94955 314.84897Q355.27768 314.16147 355.87143 313.8021Q356.4808 313.4271 357.27768 313.4271Q358.5433 313.4271 359.26205 314.38022Q359.99643 315.33334 359.99643 316.95834L359.99643 317.27084Q359.99643 319.77084 359.01205 320.91147Q358.02768 322.0521 356.0433 322.08334L355.82455 322.08334L355.82455 321.1771L356.05893 321.1771Q357.40268 321.14584 358.12143 320.47397Q358.84018 319.8021 358.90268 318.33334ZM357.2308 318.33334Q357.77768 318.33334 358.2308 318.00522Q358.69955 317.66147 358.9183 317.1771L358.9183 316.7396Q358.9183 315.6771 358.44955 315.00522Q357.9808 314.33334 357.27768 314.33334Q356.55893 314.33334 356.12143 314.88022Q355.69955 315.4271 355.69955 316.33334Q355.69955 317.20834 356.1058 317.77084Q356.52768 318.33334 357.2308 318.33334ZM367.1058 318.44272Q367.1058 320.34897 366.44955 321.28647Q365.80893 322.20834 364.4183 322.20834Q363.05893 322.20834 362.40268 321.3021Q361.74643 320.39584 361.71518 318.58334L361.71518 317.14584Q361.71518 315.25522 362.3558 314.34897Q363.01205 313.4271 364.40268 313.4271Q365.77768 313.4271 366.43393 314.31772Q367.09018 315.19272 367.1058 317.03647L367.1058 318.44272ZM366.01205 316.95834Q366.01205 315.58334 365.62143 314.95834Q365.24643 314.31772 364.40268 314.31772Q363.57455 314.31772 363.18393 314.95834Q362.80893 315.58334 362.80893 316.88022L362.80893 318.6146Q362.80893 319.9896 363.19955 320.66147Q363.6058 321.31772 364.4183 321.31772Q365.21518 321.31772 365.6058 320.69272Q365.99643 320.06772 366.01205 318.7396L366.01205 316.95834ZM374.1058 318.44272Q374.1058 320.34897 373.44955 321.28647Q372.80893 322.20834 371.4183 322.20834Q370.05893 322.20834 369.40268 321.3021Q368.74643 320.39584 368.71518 318.58334L368.71518 317.14584Q368.71518 315.25522 369.3558 314.34897Q370.01205 313.4271 371.40268 313.4271Q372.77768 313.4271 373.43393 314.31772Q374.09018 315.19272 374.1058 317.03647L374.1058 318.44272ZM373.01205 316.95834Q373.01205 315.58334 372.62143 314.95834Q372.24643 314.31772 371.40268 314.31772Q370.57455 314.31772 370.18393 314.95834Q369.80893 315.58334 369.80893 316.88022L369.80893 318.6146Q369.80893 319.9896 370.19955 320.66147Q370.6058 321.31772 371.4183 321.31772Q372.21518 321.31772 372.6058 320.69272Q372.99643 320.06772 373.01205 318.7396L373.01205 316.95834Z" fill-rule="nonzero"/><path fill="#757575" d="M435.89554 322.08334L434.8174 322.08334L434.8174 314.8646L432.6299 315.66147L432.6299 314.6771L435.7393 313.50522L435.89554 313.50522L435.89554 322.08334ZM444.9268 322.08334L439.33304 322.08334L439.33304 321.3021L442.28616 318.02084Q442.9424 317.27084 443.1924 316.81772Q443.4424 316.34897 443.4424 315.84897Q443.4424 315.1771 443.03616 314.75522Q442.64554 314.31772 441.95804 314.31772Q441.16116 314.31772 440.70804 314.78647Q440.2549 315.2396 440.2549 316.06772L439.1768 316.06772Q439.1768 314.88022 439.9268 314.16147Q440.6924 313.4271 441.95804 313.4271Q443.16116 313.4271 443.84866 314.0521Q444.53616 314.6771 444.53616 315.72397Q444.53616 316.97397 442.9268 318.72397L440.64554 321.19272L444.9268 321.19272L444.9268 322.08334ZM451.6924 318.44272Q451.6924 320.34897 451.03616 321.28647Q450.39554 322.20834 449.0049 322.20834Q447.64554 322.20834 446.9893 321.3021Q446.33304 320.39584 446.3018 318.58334L446.3018 317.14584Q446.3018 315.25522 446.9424 314.34897Q447.59866 313.4271 448.9893 313.4271Q450.3643 313.4271 451.02054 314.31772Q451.6768 315.19272 451.6924 317.03647L451.6924 318.44272ZM450.59866 316.95834Q450.59866 315.58334 450.20804 314.95834Q449.83304 314.31772 448.9893 314.31772Q448.16116 314.31772 447.77054 314.95834Q447.39554 315.58334 447.39554 316.88022L447.39554 318.6146Q447.39554 319.9896 447.78616 320.66147Q448.1924 321.31772 449.0049 321.31772Q449.8018 321.31772 450.1924 320.69272Q450.58304 320.06772 450.59866 318.7396L450.59866 316.95834ZM458.6924 318.44272Q458.6924 320.34897 458.03616 321.28647Q457.39554 322.20834 456.0049 322.20834Q454.64554 322.20834 453.9893 321.3021Q453.33304 320.39584 453.3018 318.58334L453.3018 317.14584Q453.3018 315.25522 453.9424 314.34897Q454.59866 313.4271 455.9893 313.4271Q457.3643 313.4271 458.02054 314.31772Q458.6768 315.19272 458.6924 317.03647L458.6924 318.44272ZM457.59866 316.95834Q457.59866 315.58334 457.20804 314.95834Q456.83304 314.31772 455.9893 314.31772Q455.16116 314.31772 454.77054 314.95834Q454.39554 315.58334 454.39554 316.88022L454.39554 318.6146Q454.39554 319.9896 454.78616 320.66147Q455.1924 321.31772 456.0049 321.31772Q456.8018 321.31772 457.1924 320.69272Q457.58304 320.06772 457.59866 318.7396L457.59866 316.95834Z" fill-rule="nonzero"/><path fill="#757575" d="M516.9822 322.08334L515.90405 322.08334L515.90405 314.8646L513.71655 315.66147L513.71655 314.6771L516.8259 313.50522L516.9822 313.50522L516.9822 322.08334ZM520.9197 317.8021L521.3572 313.5521L525.7322 313.5521L525.7322 314.5521L522.27905 314.5521L522.0134 316.88022Q522.65405 316.50522 523.4509 316.50522Q524.6072 316.50522 525.2947 317.28647Q525.9822 318.0521 525.9822 319.3646Q525.9822 320.6771 525.2634 321.44272Q524.5603 322.20834 523.27905 322.20834Q522.15405 322.20834 521.4353 321.58334Q520.71655 320.94272 520.6228 319.83334L521.6384 319.83334Q521.7478 320.56772 522.1697 320.94272Q522.59155 321.31772 523.27905 321.31772Q524.02905 321.31772 524.46655 320.8021Q524.90405 320.28647 524.90405 319.38022Q524.90405 318.52084 524.4353 318.00522Q523.96655 317.4896 523.1853 317.4896Q522.4822 317.4896 522.0759 317.78647L521.7947 318.02084L520.9197 317.8021ZM532.77905 318.44272Q532.77905 320.34897 532.1228 321.28647Q531.4822 322.20834 530.09155 322.20834Q528.7322 322.20834 528.0759 321.3021Q527.4197 320.39584 527.3884 318.58334L527.3884 317.14584Q527.3884 315.25522 528.02905 314.34897Q528.6853 313.4271 530.0759 313.4271Q531.4509 313.4271 532.1072 314.31772Q532.7634 315.19272 532.77905 317.03647L532.77905 318.44272ZM531.6853 316.95834Q531.6853 315.58334 531.2947 314.95834Q530.9197 314.31772 530.0759 314.31772Q529.2478 314.31772 528.8572 314.95834Q528.4822 315.58334 528.4822 316.88022L528.4822 318.6146Q528.4822 319.9896 528.8728 320.66147Q529.27905 321.31772 530.09155 321.31772Q530.8884 321.31772 531.27905 320.69272Q531.6697 320.06772 531.6853 318.7396L531.6853 316.95834ZM539.77905 318.44272Q539.77905 320.34897 539.1228 321.28647Q538.4822 322.20834 537.09155 322.20834Q535.7322 322.20834 535.0759 321.3021Q534.4197 320.39584 534.3884 318.58334L534.3884 317.14584Q534.3884 315.25522 535.02905 314.34897Q535.6853 313.4271 537.0759 313.4271Q538.4509 313.4271 539.1072 314.31772Q539.7634 315.19272 539.77905 317.03647L539.77905 318.44272ZM538.6853 316.95834Q538.6853 315.58334 538.2947 314.95834Q537.9197 314.31772 537.0759 314.31772Q536.2478 314.31772 535.8572 314.95834Q535.4822 315.58334 535.4822 316.88022L535.4822 318.6146Q535.4822 319.9896 535.8728 320.66147Q536.27905 321.31772 537.09155 321.31772Q537.8884 321.31772 538.27905 320.69272Q538.6697 320.06772 538.6853 318.7396L538.6853 316.95834Z" fill-rule="nonzero"/><path fill="#4285f4" d="M189.5 339.95C189.5 339.3977 189.94771 338.95 190.5 338.95L200.5 338.95C201.05229 338.95 201.5 339.3977 201.5 339.95L201.5 349.95C201.5 350.5023 201.05229 350.95 200.5 350.95L190.5 350.95C189.94771 350.95 189.5 350.5023 189.5 349.95Z" fill-rule="nonzero"/><path fill="#757575" d="M211.34375 343.10626L211.375 343.90314Q212.10938 342.9969 213.28125 342.9969Q215.29688 342.9969 215.3125 345.2625L215.3125 349.45L214.21875 349.45L214.21875 345.2469Q214.21875 344.575 213.90625 344.2469Q213.60938 343.91876 212.95312 343.91876Q212.42188 343.91876 212.01562 344.2Q211.625 344.48126 211.40625 344.9344L211.40625 349.45L210.32812 349.45L210.32812 343.10626L211.34375 343.10626ZM220.76562 349.45L219.6875 349.45L219.6875 342.23126L217.5 343.02814L217.5 342.04376L220.60938 340.8719L220.76562 340.8719L220.76562 349.45ZM226.57812 346.2625L223.71875 346.2625L223.71875 345.3875L226.57812 345.3875L226.57812 346.2625ZM231.01562 347.7625Q231.01562 347.325 230.67188 347.09064Q230.34375 346.84064 229.51562 346.66876Q228.70312 346.4969 228.21875 346.2469Q227.73438 345.9969 227.5 345.66876Q227.28125 345.325 227.28125 344.85626Q227.28125 344.075 227.9375 343.54376Q228.59375 342.9969 229.625 342.9969Q230.70312 342.9969 231.35938 343.5594Q232.03125 344.10626 232.03125 344.96564L230.95312 344.96564Q230.95312 344.52814 230.5625 344.21564Q230.1875 343.8875 229.625 343.8875Q229.03125 343.8875 228.6875 344.15314Q228.35938 344.40314 228.35938 344.8094Q228.35938 345.2 228.67188 345.40314Q228.98438 345.60626 229.79688 345.79376Q230.60938 345.96564 231.10938 346.21564Q231.60938 346.46564 231.84375 346.825Q232.09375 347.1844 232.09375 347.6844Q232.09375 348.54376 231.40625 349.0594Q230.73438 349.575 229.65625 349.575Q228.89062 349.575 228.29688 349.3094Q227.71875 349.02814 227.39062 348.54376Q227.0625 348.0594 227.0625 347.4969L228.14062 347.4969Q228.17188 348.04376 228.57812 348.3719Q228.98438 348.6844 229.65625 348.6844Q230.26562 348.6844 230.64062 348.4344Q231.01562 348.1844 231.01562 347.7625ZM234.79688 341.575L234.79688 343.10626L235.96875 343.10626L235.96875 343.95L234.79688 343.95L234.79688 347.8719Q234.79688 348.2625 234.95312 348.45Q235.10938 348.6375 235.48438 348.6375Q235.67188 348.6375 236.0 348.575L236.0 349.45Q235.57812 349.575 235.17188 349.575Q234.45312 349.575 234.07812 349.1375Q233.70312 348.6844 233.70312 347.8719L233.70312 343.95L232.54688 343.95L232.54688 343.10626L233.70312 343.10626L233.70312 341.575L234.79688 341.575ZM241.23438 349.45Q241.14062 349.2625 241.07812 348.77814Q240.32812 349.575 239.28125 349.575Q238.34375 349.575 237.73438 349.04376Q237.14062 348.5125 237.14062 347.6844Q237.14062 346.7 237.89062 346.15314Q238.64062 345.60626 240.01562 345.60626L241.0625 345.60626L241.0625 345.10626Q241.0625 344.54376 240.71875 344.21564Q240.39062 343.8719 239.71875 343.8719Q239.14062 343.8719 238.75 344.16876Q238.35938 344.45 238.35938 344.8719L237.26562 344.8719Q237.26562 344.3875 237.59375 343.95Q237.9375 343.5125 238.51562 343.2625Q239.09375 342.9969 239.78125 342.9969Q240.89062 342.9969 241.5 343.54376Q242.125 344.09064 242.15625 345.04376L242.15625 347.96564Q242.15625 348.84064 242.375 349.35626L242.375 349.45L241.23438 349.45ZM239.4375 348.6219Q239.95312 348.6219 240.40625 348.35626Q240.85938 348.09064 241.0625 347.66876L241.0625 346.3719L240.21875 346.3719Q238.21875 346.3719 238.21875 347.54376Q238.21875 348.04376 238.5625 348.34064Q238.90625 348.6219 239.4375 348.6219ZM245.34375 343.10626L245.375 343.90314Q246.10938 342.9969 247.28125 342.9969Q249.29688 342.9969 249.3125 345.2625L249.3125 349.45L248.21875 349.45L248.21875 345.2469Q248.21875 344.575 247.90625 344.2469Q247.60938 343.91876 246.95312 343.91876Q246.42188 343.91876 246.01562 344.2Q245.625 344.48126 245.40625 344.9344L245.40625 349.45L244.32812 349.45L244.32812 343.10626L245.34375 343.10626ZM251.0625 346.23126Q251.0625 344.7625 251.75 343.8875Q252.4375 342.9969 253.5625 342.9969Q254.67188 342.9969 255.32812 343.7469L255.32812 340.45L256.40625 340.45L256.40625 349.45L255.40625 349.45L255.35938 348.7625Q254.70312 349.575 253.54688 349.575Q252.45312 349.575 251.75 348.66876Q251.0625 347.7625 251.0625 346.3094L251.0625 346.23126ZM252.14062 346.35626Q252.14062 347.4344 252.57812 348.04376Q253.03125 348.65314 253.8125 348.65314Q254.84375 348.65314 255.32812 347.71564L255.32812 344.8094Q254.84375 343.91876 253.82812 343.91876Q253.03125 343.91876 252.57812 344.52814Q252.14062 345.1375 252.14062 346.35626ZM262.23438 349.45Q262.14062 349.2625 262.07812 348.77814Q261.32812 349.575 260.28125 349.575Q259.34375 349.575 258.73438 349.04376Q258.14062 348.5125 258.14062 347.6844Q258.14062 346.7 258.89062 346.15314Q259.64062 345.60626 261.01562 345.60626L262.0625 345.60626L262.0625 345.10626Q262.0625 344.54376 261.71875 344.21564Q261.39062 343.8719 260.71875 343.8719Q260.14062 343.8719 259.75 344.16876Q259.35938 344.45 259.35938 344.8719L258.26562 344.8719Q258.26562 344.3875 258.59375 343.95Q258.9375 343.5125 259.51562 343.2625Q260.09375 342.9969 260.78125 342.9969Q261.89062 342.9969 262.5 343.54376Q263.125 344.09064 263.15625 345.04376L263.15625 347.96564Q263.15625 348.84064 263.375 349.35626L263.375 349.45L262.23438 349.45ZM260.4375 348.6219Q260.95312 348.6219 261.40625 348.35626Q261.85938 348.09064 262.0625 347.66876L262.0625 346.3719L261.21875 346.3719Q259.21875 346.3719 259.21875 347.54376Q259.21875 348.04376 259.5625 348.34064Q259.90625 348.6219 260.4375 348.6219ZM268.39062 344.075Q268.14062 344.04376 267.85938 344.04376Q266.78125 344.04376 266.40625 344.95L266.40625 349.45L265.32812 349.45L265.32812 343.10626L266.375 343.10626L266.39062 343.84064Q266.92188 342.9969 267.90625 342.9969Q268.21875 342.9969 268.39062 343.075L268.39062 344.075ZM269.0625 346.23126Q269.0625 344.7625 269.75 343.8875Q270.4375 342.9969 271.5625 342.9969Q272.67188 342.9969 273.32812 343.7469L273.32812 340.45L274.40625 340.45L274.40625 349.45L273.40625 349.45L273.35938 348.7625Q272.70312 349.575 271.54688 349.575Q270.45312 349.575 269.75 348.66876Q269.0625 347.7625 269.0625 346.3094L269.0625 346.23126ZM270.14062 346.35626Q270.14062 347.4344 270.57812 348.04376Q271.03125 348.65314 271.8125 348.65314Q272.84375 348.65314 273.32812 347.71564L273.32812 344.8094Q272.84375 343.91876 271.82812 343.91876Q271.03125 343.91876 270.57812 344.52814Q270.14062 345.1375 270.14062 346.35626ZM278.57812 346.2625L275.71875 346.2625L275.71875 345.3875L278.57812 345.3875L278.57812 346.2625ZM282.76562 349.45L281.6875 349.45L281.6875 342.23126L279.5 343.02814L279.5 342.04376L282.60938 340.8719L282.76562 340.8719L282.76562 349.45ZM290.46875 340.91876L290.46875 341.825L290.26562 341.825Q289.0 341.85626 288.25 342.59064Q287.5 343.3094 287.375 344.6219Q288.0625 343.85626 289.21875 343.85626Q290.32812 343.85626 291.0 344.6375Q291.67188 345.41876 291.67188 346.66876Q291.67188 347.98126 290.95312 348.77814Q290.23438 349.575 289.01562 349.575Q287.79688 349.575 287.03125 348.6375Q286.28125 347.6844 286.28125 346.2L286.28125 345.79376Q286.28125 343.4344 287.28125 342.1844Q288.28125 340.9344 290.26562 340.91876L290.46875 340.91876ZM289.04688 344.7625Q288.48438 344.7625 288.01562 345.09064Q287.54688 345.41876 287.35938 345.9344L287.35938 346.325Q287.35938 347.3875 287.82812 348.02814Q288.3125 348.66876 289.01562 348.66876Q289.75 348.66876 290.17188 348.1375Q290.59375 347.59064 290.59375 346.71564Q290.59375 345.84064 290.17188 345.3094Q289.75 344.7625 289.04688 344.7625Z" fill-rule="nonzero"/><path fill="#db4437" d="M308.5 339.95C308.5 339.3977 308.94772 338.95 309.5 338.95L319.5 338.95C320.05228 338.95 320.5 339.3977 320.5 339.95L320.5 349.95C320.5 350.5023 320.05228 350.95 319.5 350.95L309.5 350.95C308.94772 350.95 308.5 350.5023 308.5 349.95Z" fill-rule="nonzero"/><path fill="#757575" d="M331.85938 348.6844Q332.4375 348.6844 332.875 348.34064Q333.3125 347.98126 333.35938 347.45L334.39062 347.45Q334.35938 347.9969 334.0 348.4969Q333.65625 348.98126 333.07812 349.27814Q332.51562 349.575 331.85938 349.575Q330.5625 349.575 329.79688 348.71564Q329.04688 347.84064 329.04688 346.34064L329.04688 346.15314Q329.04688 345.23126 329.375 344.5125Q329.71875 343.79376 330.34375 343.40314Q330.98438 342.9969 331.85938 342.9969Q332.92188 342.9969 333.625 343.6375Q334.34375 344.2625 334.39062 345.29376L333.35938 345.29376Q333.3125 344.66876 332.89062 344.27814Q332.46875 343.8875 331.85938 343.8875Q331.03125 343.8875 330.57812 344.48126Q330.125 345.075 330.125 346.2L330.125 346.40314Q330.125 347.4969 330.57812 348.09064Q331.03125 348.6844 331.85938 348.6844ZM340.79688 349.45L335.20312 349.45L335.20312 348.66876L338.15625 345.3875Q338.8125 344.6375 339.0625 344.1844Q339.3125 343.71564 339.3125 343.21564Q339.3125 342.54376 338.90625 342.1219Q338.51562 341.6844 337.82812 341.6844Q337.03125 341.6844 336.57812 342.15314Q336.125 342.60626 336.125 343.4344L335.04688 343.4344Q335.04688 342.2469 335.79688 341.52814Q336.5625 340.79376 337.82812 340.79376Q339.03125 340.79376 339.71875 341.41876Q340.40625 342.04376 340.40625 343.09064Q340.40625 344.34064 338.79688 346.09064L336.51562 348.5594L340.79688 348.5594L340.79688 349.45ZM344.57812 346.2625L341.71875 346.2625L341.71875 345.3875L344.57812 345.3875L344.57812 346.2625ZM349.01562 347.7625Q349.01562 347.325 348.67188 347.09064Q348.34375 346.84064 347.51562 346.66876Q346.70312 346.4969 346.21875 346.2469Q345.73438 345.9969 345.5 345.66876Q345.28125 345.325 345.28125 344.85626Q345.28125 344.075 345.9375 343.54376Q346.59375 342.9969 347.625 342.9969Q348.70312 342.9969 349.35938 343.5594Q350.03125 344.10626 350.03125 344.96564L348.95312 344.96564Q348.95312 344.52814 348.5625 344.21564Q348.1875 343.8875 347.625 343.8875Q347.03125 343.8875 346.6875 344.15314Q346.35938 344.40314 346.35938 344.8094Q346.35938 345.2 346.67188 345.40314Q346.98438 345.60626 347.79688 345.79376Q348.60938 345.96564 349.10938 346.21564Q349.60938 346.46564 349.84375 346.825Q350.09375 347.1844 350.09375 347.6844Q350.09375 348.54376 349.40625 349.0594Q348.73438 349.575 347.65625 349.575Q346.89062 349.575 346.29688 349.3094Q345.71875 349.02814 345.39062 348.54376Q345.0625 348.0594 345.0625 347.4969L346.14062 347.4969Q346.17188 348.04376 346.57812 348.3719Q346.98438 348.6844 347.65625 348.6844Q348.26562 348.6844 348.64062 348.4344Q349.01562 348.1844 349.01562 347.7625ZM352.79688 341.575L352.79688 343.10626L353.96875 343.10626L353.96875 343.95L352.79688 343.95L352.79688 347.8719Q352.79688 348.2625 352.95312 348.45Q353.10938 348.6375 353.48438 348.6375Q353.67188 348.6375 354.0 348.575L354.0 349.45Q353.57812 349.575 353.17188 349.575Q352.45312 349.575 352.07812 349.1375Q351.70312 348.6844 351.70312 347.8719L351.70312 343.95L350.54688 343.95L350.54688 343.10626L351.70312 343.10626L351.70312 341.575L352.79688 341.575ZM359.23438 349.45Q359.14062 349.2625 359.07812 348.77814Q358.32812 349.575 357.28125 349.575Q356.34375 349.575 355.73438 349.04376Q355.14062 348.5125 355.14062 347.6844Q355.14062 346.7 355.89062 346.15314Q356.64062 345.60626 358.01562 345.60626L359.0625 345.60626L359.0625 345.10626Q359.0625 344.54376 358.71875 344.21564Q358.39062 343.8719 357.71875 343.8719Q357.14062 343.8719 356.75 344.16876Q356.35938 344.45 356.35938 344.8719L355.26562 344.8719Q355.26562 344.3875 355.59375 343.95Q355.9375 343.5125 356.51562 343.2625Q357.09375 342.9969 357.78125 342.9969Q358.89062 342.9969 359.5 343.54376Q360.125 344.09064 360.15625 345.04376L360.15625 347.96564Q360.15625 348.84064 360.375 349.35626L360.375 349.45L359.23438 349.45ZM357.4375 348.6219Q357.95312 348.6219 358.40625 348.35626Q358.85938 348.09064 359.0625 347.66876L359.0625 346.3719L358.21875 346.3719Q356.21875 346.3719 356.21875 347.54376Q356.21875 348.04376 356.5625 348.34064Q356.90625 348.6219 357.4375 348.6219ZM363.34375 343.10626L363.375 343.90314Q364.10938 342.9969 365.28125 342.9969Q367.29688 342.9969 367.3125 345.2625L367.3125 349.45L366.21875 349.45L366.21875 345.2469Q366.21875 344.575 365.90625 344.2469Q365.60938 343.91876 364.95312 343.91876Q364.42188 343.91876 364.01562 344.2Q363.625 344.48126 363.40625 344.9344L363.40625 349.45L362.32812 349.45L362.32812 343.10626L363.34375 343.10626ZM369.0625 346.23126Q369.0625 344.7625 369.75 343.8875Q370.4375 342.9969 371.5625 342.9969Q372.67188 342.9969 373.32812 343.7469L373.32812 340.45L374.40625 340.45L374.40625 349.45L373.40625 349.45L373.35938 348.7625Q372.70312 349.575 371.54688 349.575Q370.45312 349.575 369.75 348.66876Q369.0625 347.7625 369.0625 346.3094L369.0625 346.23126ZM370.14062 346.35626Q370.14062 347.4344 370.57812 348.04376Q371.03125 348.65314 371.8125 348.65314Q372.84375 348.65314 373.32812 347.71564L373.32812 344.8094Q372.84375 343.91876 371.82812 343.91876Q371.03125 343.91876 370.57812 344.52814Q370.14062 345.1375 370.14062 346.35626ZM380.23438 349.45Q380.14062 349.2625 380.07812 348.77814Q379.32812 349.575 378.28125 349.575Q377.34375 349.575 376.73438 349.04376Q376.14062 348.5125 376.14062 347.6844Q376.14062 346.7 376.89062 346.15314Q377.64062 345.60626 379.01562 345.60626L380.0625 345.60626L380.0625 345.10626Q380.0625 344.54376 379.71875 344.21564Q379.39062 343.8719 378.71875 343.8719Q378.14062 343.8719 377.75 344.16876Q377.35938 344.45 377.35938 344.8719L376.26562 344.8719Q376.26562 344.3875 376.59375 343.95Q376.9375 343.5125 377.51562 343.2625Q378.09375 342.9969 378.78125 342.9969Q379.89062 342.9969 380.5 343.54376Q381.125 344.09064 381.15625 345.04376L381.15625 347.96564Q381.15625 348.84064 381.375 349.35626L381.375 349.45L380.23438 349.45ZM378.4375 348.6219Q378.95312 348.6219 379.40625 348.35626Q379.85938 348.09064 380.0625 347.66876L380.0625 346.3719L379.21875 346.3719Q377.21875 346.3719 377.21875 347.54376Q377.21875 348.04376 377.5625 348.34064Q377.90625 348.6219 378.4375 348.6219ZM386.39062 344.075Q386.14062 344.04376 385.85938 344.04376Q384.78125 344.04376 384.40625 344.95L384.40625 349.45L383.32812 349.45L383.32812 343.10626L384.375 343.10626L384.39062 343.84064Q384.92188 342.9969 385.90625 342.9969Q386.21875 342.9969 386.39062 343.075L386.39062 344.075ZM387.0625 346.23126Q387.0625 344.7625 387.75 343.8875Q388.4375 342.9969 389.5625 342.9969Q390.67188 342.9969 391.32812 343.7469L391.32812 340.45L392.40625 340.45L392.40625 349.45L391.40625 349.45L391.35938 348.7625Q390.70312 349.575 389.54688 349.575Q388.45312 349.575 387.75 348.66876Q387.0625 347.7625 387.0625 346.3094L387.0625 346.23126ZM388.14062 346.35626Q388.14062 347.4344 388.57812 348.04376Q389.03125 348.65314 389.8125 348.65314Q390.84375 348.65314 391.32812 347.71564L391.32812 344.8094Q390.84375 343.91876 389.82812 343.91876Q389.03125 343.91876 388.57812 344.52814Q388.14062 345.1375 388.14062 346.35626ZM396.57812 346.2625L393.71875 346.2625L393.71875 345.3875L396.57812 345.3875L396.57812 346.2625ZM400.76562 349.45L399.6875 349.45L399.6875 342.23126L397.5 343.02814L397.5 342.04376L400.60938 340.8719L400.76562 340.8719L400.76562 349.45ZM408.46875 340.91876L408.46875 341.825L408.26562 341.825Q407.0 341.85626 406.25 342.59064Q405.5 343.3094 405.375 344.6219Q406.0625 343.85626 407.21875 343.85626Q408.32812 343.85626 409.0 344.6375Q409.67188 345.41876 409.67188 346.66876Q409.67188 347.98126 408.95312 348.77814Q408.23438 349.575 407.01562 349.575Q405.79688 349.575 405.03125 348.6375Q404.28125 347.6844 404.28125 346.2L404.28125 345.79376Q404.28125 343.4344 405.28125 342.1844Q406.28125 340.9344 408.26562 340.91876L408.46875 340.91876ZM407.04688 344.7625Q406.48438 344.7625 406.01562 345.09064Q405.54688 345.41876 405.35938 345.9344L405.35938 346.325Q405.35938 347.3875 405.82812 348.02814Q406.3125 348.66876 407.01562 348.66876Q407.75 348.66876 408.17188 348.1375Q408.59375 347.59064 408.59375 346.71564Q408.59375 345.84064 408.17188 345.3094Q407.75 344.7625 407.04688 344.7625Z" fill-rule="nonzero"/><path fill="#757575" d="M21.628124 26.9875L21.690624 28.315624Q22.89375 26.784374 24.846874 26.784374Q28.20625 26.784374 28.221874 30.565624L28.221874 37.55L26.425 37.55L26.425 30.55Q26.409374 29.409374 25.89375 28.8625Q25.39375 28.315624 24.3 28.315624Q23.425 28.315624 22.753124 28.784374Q22.096874 29.253124 21.721874 30.01875L21.721874 37.55L19.925 37.55L19.925 26.9875L21.628124 26.9875ZM36.675 37.55L34.846874 37.55L34.846874 25.503124L31.20625 26.846874L31.20625 25.20625L36.39375 23.26875L36.675 23.26875L36.675 37.55ZM45.675 32.253124L40.909374 32.253124L40.909374 30.76875L45.675 30.76875L45.675 32.253124ZM54.065624 34.753124Q54.065624 34.01875 53.51875 33.6125Q52.971874 33.20625 51.596874 32.909374Q50.221874 32.6125 49.409374 32.20625Q48.6125 31.8 48.221874 31.2375Q47.846874 30.659374 47.846874 29.878124Q47.846874 28.58125 48.940624 27.690624Q50.034374 26.784374 51.753124 26.784374Q53.55 26.784374 54.659374 27.721874Q55.784374 28.64375 55.784374 30.08125L53.95625 30.08125Q53.95625 29.346874 53.33125 28.815624Q52.70625 28.26875 51.753124 28.26875Q50.753124 28.26875 50.190624 28.70625Q49.64375 29.128124 49.64375 29.83125Q49.64375 30.471874 50.159374 30.815624Q50.675 31.14375 52.034374 31.45625Q53.39375 31.753124 54.221874 32.175Q55.065624 32.58125 55.471874 33.175Q55.878124 33.76875 55.878124 34.6125Q55.878124 36.034374 54.7375 36.89375Q53.6125 37.753124 51.8 37.753124Q50.534374 37.753124 49.55 37.3Q48.58125 36.846874 48.01875 36.05Q47.471874 35.2375 47.471874 34.3L49.284374 34.3Q49.33125 35.20625 50.003124 35.7375Q50.690624 36.26875 51.8 36.26875Q52.83125 36.26875 53.440624 35.8625Q54.065624 35.440624 54.065624 34.753124ZM60.3625 24.425L60.3625 26.9875L62.346874 26.9875L62.346874 28.378124L60.3625 28.378124L60.3625 34.925Q60.3625 35.565624 60.628124 35.89375Q60.89375 36.20625 61.534374 36.20625Q61.846874 36.20625 62.39375 36.08125L62.39375 37.55Q61.675 37.753124 61.003124 37.753124Q59.8 37.753124 59.175 37.01875Q58.565624 36.284374 58.565624 34.925L58.565624 28.378124L56.64375 28.378124L56.64375 26.9875L58.565624 26.9875L58.565624 24.425L60.3625 24.425ZM71.44063 37.55Q71.28438 37.2375 71.19063 36.440624Q69.925 37.753124 68.175 37.753124Q66.6125 37.753124 65.6125 36.8625Q64.6125 35.971874 64.6125 34.6125Q64.6125 32.971874 65.8625 32.065624Q67.12813 31.14375 69.39375 31.14375L71.15938 31.14375L71.15938 30.315624Q71.15938 29.3625 70.58125 28.8Q70.01875 28.2375 68.925 28.2375Q67.95625 28.2375 67.3 28.7375Q66.64375 29.221874 66.64375 29.909374L64.83125 29.909374Q64.83125 29.128124 65.39375 28.39375Q65.95625 27.64375 66.90938 27.221874Q67.87813 26.784374 69.03438 26.784374Q70.8625 26.784374 71.89375 27.70625Q72.925 28.6125 72.97188 30.221874L72.97188 35.08125Q72.97188 36.534374 73.33125 37.39375L73.33125 37.55L71.44063 37.55ZM68.44063 36.175Q69.3 36.175 70.05 35.7375Q70.81563 35.3 71.15938 34.596874L71.15938 32.425L69.7375 32.425Q66.425 32.425 66.425 34.3625Q66.425 35.221874 66.9875 35.70625Q67.55 36.175 68.44063 36.175ZM77.62813 26.9875L77.69063 28.315624Q78.89375 26.784374 80.84688 26.784374Q84.20625 26.784374 84.22188 30.565624L84.22188 37.55L82.425 37.55L82.425 30.55Q82.40938 29.409374 81.89375 28.8625Q81.39375 28.315624 80.3 28.315624Q79.425 28.315624 78.75313 28.784374Q78.09688 29.253124 77.72188 30.01875L77.72188 37.55L75.925 37.55L75.925 26.9875L77.62813 26.9875ZM86.47188 32.175Q86.47188 29.753124 87.62813 28.26875Q88.78438 26.784374 90.64375 26.784374Q92.50313 26.784374 93.58125 28.05L93.58125 22.55L95.39375 22.55L95.39375 37.55L93.7375 37.55L93.64375 36.409374Q92.56563 37.753124 90.62813 37.753124Q88.8 37.753124 87.62813 36.253124Q86.47188 34.7375 86.47188 32.315624L86.47188 32.175ZM88.28438 32.378124Q88.28438 34.175 89.01875 35.190624Q89.76875 36.20625 91.08125 36.20625Q92.8 36.20625 93.58125 34.675L93.58125 29.815624Q92.78438 28.315624 91.09688 28.315624Q89.76875 28.315624 89.01875 29.346874Q88.28438 30.378124 88.28438 32.378124ZM104.44063 37.55Q104.28438 37.2375 104.19063 36.440624Q102.925 37.753124 101.175 37.753124Q99.6125 37.753124 98.6125 36.8625Q97.6125 35.971874 97.6125 34.6125Q97.6125 32.971874 98.8625 32.065624Q100.12813 31.14375 102.39375 31.14375L104.15938 31.14375L104.15938 30.315624Q104.15938 29.3625 103.58125 28.8Q103.01875 28.2375 101.925 28.2375Q100.95625 28.2375 100.3 28.7375Q99.64375 29.221874 99.64375 29.909374L97.83125 29.909374Q97.83125 29.128124 98.39375 28.39375Q98.95625 27.64375 99.90938 27.221874Q100.87813 26.784374 102.03438 26.784374Q103.8625 26.784374 104.89375 27.70625Q105.925 28.6125 105.97188 30.221874L105.97188 35.08125Q105.97188 36.534374 106.33125 37.39375L106.33125 37.55L104.44063 37.55ZM101.44063 36.175Q102.3 36.175 103.05 35.7375Q103.81563 35.3 104.15938 34.596874L104.15938 32.425L102.7375 32.425Q99.425 32.425 99.425 34.3625Q99.425 35.221874 99.9875 35.70625Q100.55 36.175 101.44063 36.175ZM114.01875 28.596874Q113.6125 28.534374 113.14375 28.534374Q111.3625 28.534374 110.72188 30.05L110.72188 37.55L108.925 37.55L108.925 26.9875L110.675 26.9875L110.70625 28.20625Q111.59688 26.784374 113.22188 26.784374Q113.75313 26.784374 114.01875 26.925L114.01875 28.596874ZM115.47188 32.175Q115.47188 29.753124 116.62813 28.26875Q117.78438 26.784374 119.64375 26.784374Q121.50313 26.784374 122.58125 28.05L122.58125 22.55L124.39375 22.55L124.39375 37.55L122.7375 37.55L122.64375 36.409374Q121.56563 37.753124 119.62813 37.753124Q117.8 37.753124 116.62813 36.253124Q115.47188 34.7375 115.47188 32.315624L115.47188 32.175ZM117.28438 32.378124Q117.28438 34.175 118.01875 35.190624Q118.76875 36.20625 120.08125 36.20625Q121.8 36.20625 122.58125 34.675L122.58125 29.815624Q121.78438 28.315624 120.09688 28.315624Q118.76875 28.315624 118.01875 29.346874Q117.28438 30.378124 117.28438 32.378124ZM130.675 32.253124L125.90938 32.253124L125.90938 30.76875L130.675 30.76875L130.675 32.253124ZM138.675 37.55L136.84688 37.55L136.84688 25.503124L133.20625 26.846874L133.20625 25.20625L138.39375 23.26875L138.675 23.26875L138.675 37.55ZM150.81563 23.315624L150.81563 24.846874L150.4875 24.846874Q148.37813 24.89375 147.12813 26.1125Q145.87813 27.315624 145.69063 29.51875Q146.81563 28.221874 148.75313 28.221874Q150.6125 28.221874 151.72188 29.534374Q152.83125 30.846874 152.83125 32.909374Q152.83125 35.1125 151.62813 36.440624Q150.425 37.753124 148.425 37.753124Q146.37813 37.753124 145.1125 36.190624Q143.84688 34.6125 143.84688 32.14375L143.84688 31.440624Q143.84688 27.51875 145.51875 25.440624Q147.19063 23.3625 150.50313 23.315624L150.81563 23.315624ZM148.45625 29.721874Q147.51875 29.721874 146.7375 30.284374Q145.95625 30.846874 145.65938 31.675L145.65938 32.346874Q145.65938 34.096874 146.44063 35.175Q147.2375 36.253124 148.425 36.253124Q149.64375 36.253124 150.33125 35.3625Q151.03438 34.45625 151.03438 33.003124Q151.03438 31.534374 150.33125 30.628124Q149.62813 29.721874 148.45625 29.721874ZM163.40938 35.096874L166.01875 26.9875L167.8625 26.9875L164.08125 37.55L162.70625 37.55L158.87813 26.9875L160.72188 26.9875L163.40938 35.096874ZM176.06563 34.753124Q176.06563 34.01875 175.51875 33.6125Q174.97188 33.20625 173.59688 32.909374Q172.22188 32.6125 171.40938 32.20625Q170.6125 31.8 170.22188 31.2375Q169.84688 30.659374 169.84688 29.878124Q169.84688 28.58125 170.94063 27.690624Q172.03438 26.784374 173.75313 26.784374Q175.55 26.784374 176.65938 27.721874Q177.78438 28.64375 177.78438 30.08125L175.95625 30.08125Q175.95625 29.346874 175.33125 28.815624Q174.70625 28.26875 173.75313 28.26875Q172.75313 28.26875 172.19063 28.70625Q171.64375 29.128124 171.64375 29.83125Q171.64375 30.471874 172.15938 30.815624Q172.675 31.14375 174.03438 31.45625Q175.39375 31.753124 176.22188 32.175Q177.06563 32.58125 177.47188 33.175Q177.87813 33.76875 177.87813 34.6125Q177.87813 36.034374 176.7375 36.89375Q175.6125 37.753124 173.8 37.753124Q172.53438 37.753124 171.55 37.3Q170.58125 36.846874 170.01875 36.05Q169.47188 35.2375 169.47188 34.3L171.28438 34.3Q171.33125 35.20625 172.00313 35.7375Q172.69063 36.26875 173.8 36.26875Q174.83125 36.26875 175.44063 35.8625Q176.06563 35.440624 176.06563 34.753124ZM189.15938 36.26875Q190.12813 36.26875 190.84688 35.690624Q191.56563 35.096874 191.64375 34.221874L193.3625 34.221874Q193.3 35.128124 192.72188 35.95625Q192.15938 36.76875 191.19063 37.26875Q190.2375 37.753124 189.15938 37.753124Q187.00313 37.753124 185.72188 36.315624Q184.45625 34.8625 184.45625 32.3625L184.45625 32.065624Q184.45625 30.51875 185.01875 29.315624Q185.58125 28.1125 186.64375 27.45625Q187.70625 26.784374 189.14375 26.784374Q190.925 26.784374 192.09688 27.846874Q193.28438 28.909374 193.3625 30.6125L191.64375 30.6125Q191.56563 29.596874 190.8625 28.940624Q190.175 28.26875 189.14375 28.26875Q187.76875 28.26875 187.00313 29.26875Q186.25313 30.253124 186.25313 32.128124L186.25313 32.471874Q186.25313 34.3 187.00313 35.284374Q187.75313 36.26875 189.15938 36.26875ZM204.05 37.55L194.7375 37.55L194.7375 36.253124L199.65938 30.784374Q200.75313 29.534374 201.15938 28.76875Q201.58125 27.9875 201.58125 27.159374Q201.58125 26.05 200.90938 25.33125Q200.2375 24.6125 199.1125 24.6125Q197.75313 24.6125 197.00313 25.39375Q196.26875 26.159374 196.26875 27.51875L194.45625 27.51875Q194.45625 25.55 195.72188 24.346874Q196.9875 23.128124 199.1125 23.128124Q201.09688 23.128124 202.2375 24.175Q203.39375 25.221874 203.39375 26.940624Q203.39375 29.05 200.72188 31.940624L196.90938 36.08125L204.05 36.08125L204.05 37.55ZM209.675 32.253124L204.90938 32.253124L204.90938 30.76875L209.675 30.76875L209.675 32.253124ZM218.06563 34.753124Q218.06563 34.01875 217.51875 33.6125Q216.97188 33.20625 215.59688 32.909374Q214.22188 32.6125 213.40938 32.20625Q212.6125 31.8 212.22188 31.2375Q211.84688 30.659374 211.84688 29.878124Q211.84688 28.58125 212.94063 27.690624Q214.03438 26.784374 215.75313 26.784374Q217.55 26.784374 218.65938 27.721874Q219.78438 28.64375 219.78438 30.08125L217.95625 30.08125Q217.95625 29.346874 217.33125 28.815624Q216.70625 28.26875 215.75313 28.26875Q214.75313 28.26875 214.19063 28.70625Q213.64375 29.128124 213.64375 29.83125Q213.64375 30.471874 214.15938 30.815624Q214.675 31.14375 216.03438 31.45625Q217.39375 31.753124 218.22188 32.175Q219.06563 32.58125 219.47188 33.175Q219.87813 33.76875 219.87813 34.6125Q219.87813 36.034374 218.7375 36.89375Q217.6125 37.753124 215.8 37.753124Q214.53438 37.753124 213.55 37.3Q212.58125 36.846874 212.01875 36.05Q211.47188 35.2375 211.47188 34.3L213.28438 34.3Q213.33125 35.20625 214.00313 35.7375Q214.69063 36.26875 215.8 36.26875Q216.83125 36.26875 217.44063 35.8625Q218.06563 35.440624 218.06563 34.753124ZM224.3625 24.425L224.3625 26.9875L226.34688 26.9875L226.34688 28.378124L224.3625 28.378124L224.3625 34.925Q224.3625 35.565624 224.62813 35.89375Q224.89375 36.20625 225.53438 36.20625Q225.84688 36.20625 226.39375 36.08125L226.39375 37.55Q225.675 37.753124 225.00313 37.753124Q223.8 37.753124 223.175 37.01875Q222.56563 36.284374 222.56563 34.925L222.56563 28.378124L220.64375 28.378124L220.64375 26.9875L222.56563 26.9875L222.56563 24.425L224.3625 24.425ZM235.44063 37.55Q235.28438 37.2375 235.19063 36.440624Q233.925 37.753124 232.175 37.753124Q230.6125 37.753124 229.6125 36.8625Q228.6125 35.971874 228.6125 34.6125Q228.6125 32.971874 229.8625 32.065624Q231.12813 31.14375 233.39375 31.14375L235.15938 31.14375L235.15938 30.315624Q235.15938 29.3625 234.58125 28.8Q234.01875 28.2375 232.925 28.2375Q231.95625 28.2375 231.3 28.7375Q230.64375 29.221874 230.64375 29.909374L228.83125 29.909374Q228.83125 29.128124 229.39375 28.39375Q229.95625 27.64375 230.90938 27.221874Q231.87813 26.784374 233.03438 26.784374Q234.8625 26.784374 235.89375 27.70625Q236.925 28.6125 236.97188 30.221874L236.97188 35.08125Q236.97188 36.534374 237.33125 37.39375L237.33125 37.55L235.44063 37.55ZM232.44063 36.175Q233.3 36.175 234.05 35.7375Q234.81563 35.3 235.15938 34.596874L235.15938 32.425L233.7375 32.425Q230.425 32.425 230.425 34.3625Q230.425 35.221874 230.9875 35.70625Q231.55 36.175 232.44063 36.175ZM241.62813 26.9875L241.69063 28.315624Q242.89375 26.784374 244.84688 26.784374Q248.20625 26.784374 248.22188 30.565624L248.22188 37.55L246.425 37.55L246.425 30.55Q246.40938 29.409374 245.89375 28.8625Q245.39375 28.315624 244.3 28.315624Q243.425 28.315624 242.75313 28.784374Q242.09688 29.253124 241.72188 30.01875L241.72188 37.55L239.925 37.55L239.925 26.9875L241.62813 26.9875ZM250.47188 32.175Q250.47188 29.753124 251.62813 28.26875Q252.78438 26.784374 254.64375 26.784374Q256.5031 26.784374 257.58124 28.05L257.58124 22.55L259.39374 22.55L259.39374 37.55L257.7375 37.55L257.64374 36.409374Q256.5656 37.753124 254.62813 37.753124Q252.8 37.753124 251.62813 36.253124Q250.47188 34.7375 250.47188 32.315624L250.47188 32.175ZM252.28438 32.378124Q252.28438 34.175 253.01875 35.190624Q253.76875 36.20625 255.08125 36.20625Q256.8 36.20625 257.58124 34.675L257.58124 29.815624Q256.78436 28.315624 255.09688 28.315624Q253.76875 28.315624 253.01875 29.346874Q252.28438 30.378124 252.28438 32.378124ZM268.4406 37.55Q268.28436 37.2375 268.1906 36.440624Q266.925 37.753124 265.175 37.753124Q263.6125 37.753124 262.6125 36.8625Q261.6125 35.971874 261.6125 34.6125Q261.6125 32.971874 262.8625 32.065624Q264.1281 31.14375 266.39374 31.14375L268.15936 31.14375L268.15936 30.315624Q268.15936 29.3625 267.58124 28.8Q267.01874 28.2375 265.925 28.2375Q264.95624 28.2375 264.3 28.7375Q263.64374 29.221874 263.64374 29.909374L261.83124 29.909374Q261.83124 29.128124 262.39374 28.39375Q262.95624 27.64375 263.90936 27.221874Q264.8781 26.784374 266.03436 26.784374Q267.8625 26.784374 268.89374 27.70625Q269.925 28.6125 269.97186 30.221874L269.97186 35.08125Q269.97186 36.534374 270.33124 37.39375L270.33124 37.55L268.4406 37.55ZM265.4406 36.175Q266.3 36.175 267.05 35.7375Q267.8156 35.3 268.15936 34.596874L268.15936 32.425L266.7375 32.425Q263.425 32.425 263.425 34.3625Q263.425 35.221874 263.9875 35.70625Q264.55 36.175 265.4406 36.175ZM278.01874 28.596874Q277.6125 28.534374 277.14374 28.534374Q275.3625 28.534374 274.72186 30.05L274.72186 37.55L272.925 37.55L272.925 26.9875L274.675 26.9875L274.70624 28.20625Q275.59686 26.784374 277.22186 26.784374Q277.7531 26.784374 278.01874 26.925L278.01874 28.596874ZM279.47186 32.175Q279.47186 29.753124 280.6281 28.26875Q281.78436 26.784374 283.64374 26.784374Q285.5031 26.784374 286.58124 28.05L286.58124 22.55L288.39374 22.55L288.39374 37.55L286.7375 37.55L286.64374 36.409374Q285.5656 37.753124 283.6281 37.753124Q281.8 37.753124 280.6281 36.253124Q279.47186 34.7375 279.47186 32.315624L279.47186 32.175ZM281.28436 32.378124Q281.28436 34.175 282.01874 35.190624Q282.76874 36.20625 284.08124 36.20625Q285.8 36.20625 286.58124 34.675L286.58124 29.815624Q285.78436 28.315624 284.09686 28.315624Q282.76874 28.315624 282.01874 29.346874Q281.28436 30.378124 281.28436 32.378124ZM294.675 32.253124L289.90936 32.253124L289.90936 30.76875L294.675 30.76875L294.675 32.253124ZM302.675 37.55L300.84686 37.55L300.84686 25.503124L297.20624 26.846874L297.20624 25.20625L302.39374 23.26875L302.675 23.26875L302.675 37.55ZM314.8156 23.315624L314.8156 24.846874L314.4875 24.846874Q312.3781 24.89375 311.1281 26.1125Q309.8781 27.315624 309.6906 29.51875Q310.8156 28.221874 312.7531 28.221874Q314.6125 28.221874 315.72186 29.534374Q316.83124 30.846874 316.83124 32.909374Q316.83124 35.1125 315.6281 36.440624Q314.425 37.753124 312.425 37.753124Q310.3781 37.753124 309.1125 36.190624Q307.84686 34.6125 307.84686 32.14375L307.84686 31.440624Q307.84686 27.51875 309.51874 25.440624Q311.1906 23.3625 314.5031 23.315624L314.8156 23.315624ZM312.45624 29.721874Q311.51874 29.721874 310.7375 30.284374Q309.95624 30.846874 309.65936 31.675L309.65936 32.346874Q309.65936 34.096874 310.4406 35.175Q311.2375 36.253124 312.425 36.253124Q313.64374 36.253124 314.33124 35.3625Q315.03436 34.45625 315.03436 33.003124Q315.03436 31.534374 314.33124 30.628124Q313.6281 29.721874 312.45624 29.721874ZM327.675 32.253124L322.90936 32.253124L322.90936 30.76875L327.675 30.76875L327.675 32.253124ZM346.0656 30.89375Q346.0656 32.95625 345.40936 34.45625Q344.7531 35.940624 343.5656 36.784374L346.1125 38.76875L344.83124 39.95625L341.83124 37.565624Q341.1281 37.753124 340.34686 37.753124Q338.675 37.753124 337.3625 36.925Q336.0656 36.096874 335.34686 34.565624Q334.6281 33.034374 334.6125 31.01875L334.6125 30.003124Q334.6125 27.95625 335.3156 26.378124Q336.03436 24.8 337.33124 23.971874Q338.64374 23.128124 340.33124 23.128124Q342.05 23.128124 343.34686 23.971874Q344.65936 24.8 345.3625 26.3625Q346.0656 27.909374 346.0656 29.9875L346.0656 30.89375ZM344.1906 29.9875Q344.1906 27.471874 343.1906 26.1125Q342.1906 24.753124 340.33124 24.753124Q338.5656 24.753124 337.53436 26.1125Q336.51874 27.45625 336.4875 29.846874L336.4875 30.89375Q336.4875 33.346874 337.5031 34.753124Q338.53436 36.159374 340.34686 36.159374Q342.15936 36.159374 343.15936 34.83125Q344.15936 33.503124 344.1906 31.034374L344.1906 29.9875ZM351.08124 31.9875L351.08124 37.55L349.20624 37.55L349.20624 23.33125L354.4406 23.33125Q356.78436 23.33125 358.09686 24.51875Q359.425 25.70625 359.425 27.675Q359.425 29.753124 358.1281 30.878124Q356.83124 31.9875 354.425 31.9875L351.08124 31.9875ZM351.08124 30.45625L354.4406 30.45625Q355.95624 30.45625 356.7531 29.753124Q357.55 29.034374 357.55 27.690624Q357.55 26.425 356.7531 25.675Q355.95624 24.909374 354.55 24.878124L351.08124 24.878124L351.08124 30.45625ZM366.39374 31.20625Q363.97186 30.51875 362.8781 29.51875Q361.78436 28.503124 361.78436 27.01875Q361.78436 25.33125 363.1281 24.2375Q364.47186 23.128124 366.6125 23.128124Q368.08124 23.128124 369.22186 23.70625Q370.3781 24.26875 371.0031 25.26875Q371.6281 26.253124 371.6281 27.440624L369.7531 27.440624Q369.7531 26.159374 368.925 25.425Q368.1125 24.675 366.6125 24.675Q365.22186 24.675 364.4406 25.284374Q363.675 25.89375 363.675 26.9875Q363.675 27.846874 364.40936 28.45625Q365.14374 29.05 366.90936 29.55Q368.6906 30.05 369.6906 30.659374Q370.6906 31.253124 371.175 32.05Q371.65936 32.846874 371.65936 33.940624Q371.65936 35.659374 370.3156 36.70625Q368.97186 37.753124 366.70624 37.753124Q365.2531 37.753124 363.97186 37.190624Q362.70624 36.628124 362.01874 35.659374Q361.33124 34.675 361.33124 33.425L363.22186 33.425Q363.22186 34.721874 364.175 35.471874Q365.1281 36.20625 366.70624 36.20625Q368.1906 36.20625 368.9875 35.6125Q369.78436 35.003124 369.78436 33.95625Q369.78436 32.909374 369.05 32.346874Q368.3156 31.76875 366.39374 31.20625Z" fill-rule="nonzero"/></svg>