<svg version="1.1" viewBox="0.0 0.0 600.0 371.0" fill="none" stroke="none" stroke-linecap="square" stroke-miterlimit="10" width="600" height="371" xmlns:xlink="http://www.w3.org/1999/xlink" xmlns="http://www.w3.org/2000/svg"><path fill="#ffffff" d="M0 0L600.0 0L600.0 371.0L0 371.0L0 0Z" fill-rule="nonzero"/><path stroke="#333333" stroke-width="1.0" stroke-linecap="butt" d="M76.5 304.5L581.5 304.5" fill-rule="nonzero"/><path stroke="#cccccc" stroke-width="1.0" stroke-linecap="butt" d="M76.5 255.5L581.5 255.5" fill-rule="nonzero"/><path stroke="#cccccc" stroke-width="1.0" stroke-linecap="butt" d="M76.5 207.5L581.5 207.5" fill-rule="nonzero"/><path stroke="#cccccc" stroke-width="1.0" stroke-linecap="butt" d="M76.5 159.5L581.5 159.5" fill-rule="nonzero"/><path stroke="#cccccc" stroke-width="1.0" stroke-linecap="butt" d="M76.5 110.5L581.5 110.5" fill-rule="nonzero"/><path stroke="#cccccc" stroke-width="1.0" stroke-linecap="butt" d="M76.5 62.5L581.5 62.5" fill-rule="nonzero"/><clipPath id="id_0"><path d="M76.55 62.416668L581.45 62.416668L581.45 304.08334L76.55 304.08334L76.55 62.416668Z" clip-rule="nonzero"/></clipPath><path stroke="#4285f4" stroke-width="2.0" stroke-linecap="butt" clip-path="url(#id_0)" d="M118.625 239.05963L202.775 197.09702L286.925 136.28488L371.075 100.83945L455.225 90.23859L539.375 85.13208" fill-rule="nonzero"/><path fill="#000000" fill-opacity="0.0" clip-path="url(#id_0)" d="M121.625 239.05963C121.625 240.71649 120.28185 242.05963 118.625 242.05963C116.96815 242.05963 115.625 240.71649 115.625 239.05963C115.625 237.40277 116.96815 236.05963 118.625 236.05963C120.28185 236.05963 121.625 237.40277 121.625 239.05963Z" fill-rule="nonzero"/><path fill="#000000" fill-opacity="0.0" clip-path="url(#id_0)" d="M205.775 197.09702C205.775 198.75388 204.43185 200.09702 202.775 200.09702C201.11815 200.09702 199.775 198.75388 199.775 197.09702C199.775 195.44016 201.11815 194.09702 202.775 194.09702C204.43185 194.09702 205.775 195.44016 205.775 197.09702Z" fill-rule="nonzero"/><path fill="#000000" fill-opacity="0.0" clip-path="url(#id_0)" d="M289.925 136.28488C289.925 137.94174 288.58185 139.28488 286.925 139.28488C285.26816 139.28488 283.925 137.94174 283.925 136.28488C283.925 134.62804 285.26816 133.28488 286.925 133.28488C288.58185 133.28488 289.925 134.62804 289.925 136.28488Z" fill-rule="nonzero"/><path fill="#000000" fill-opacity="0.0" clip-path="url(#id_0)" d="M374.075 100.83945C374.075 102.4963 372.73184 103.83945 371.075 103.83945C369.41815 103.83945 368.075 102.4963 368.075 100.83945C368.075 99.18259 369.41815 97.83945 371.075 97.83945C372.73184 97.83945 374.075 99.18259 374.075 100.83945Z" fill-rule="nonzero"/><path fill="#000000" fill-opacity="0.0" clip-path="url(#id_0)" d="M458.225 90.23859C458.225 91.89545 456.88187 93.23859 455.225 93.23859C453.56815 93.23859 452.225 91.89545 452.225 90.23859C452.225 88.58173 453.56815 87.23859 455.225 87.23859C456.88187 87.23859 458.225 88.58173 458.225 90.23859Z" fill-rule="nonzero"/><path fill="#000000" fill-opacity="0.0" clip-path="url(#id_0)" d="M542.375 85.13208C542.375 86.78893 541.03186 88.13208 539.375 88.13208C537.71814 88.13208 536.375 86.78893 536.375 85.13208C536.375 83.47522 537.71814 82.13208 539.375 82.13208C541.03186 82.13208 542.375 83.47522 542.375 85.13208Z" fill-rule="nonzero"/><path fill="#757575" d="M52.6125 304.94272Q52.6125 306.84897 51.95625 307.78647Q51.315624 308.70834 49.925 308.70834Q48.565624 308.70834 47.909374 307.8021Q47.253124 306.89584 47.221874 305.08334L47.221874 303.64584Q47.221874 301.75522 47.8625 300.84897Q48.51875 299.9271 49.909374 299.9271Q51.284374 299.9271 51.940624 300.81772Q52.596874 301.69272 52.6125 303.53647L52.6125 304.94272ZM51.51875 303.45834Q51.51875 302.08334 51.128124 301.45834Q50.753124 300.81772 49.909374 300.81772Q49.08125 300.81772 48.690624 301.45834Q48.315624 302.08334 48.315624 303.38022L48.315624 305.1146Q48.315624 306.4896 48.70625 307.16147Q49.1125 307.81772 49.925 307.81772Q50.721874 307.81772 51.1125 307.19272Q51.503124 306.56772 51.51875 305.2396L51.51875 303.45834ZM54.39375 308.02084Q54.39375 307.7396 54.55 307.5521Q54.721874 307.3646 55.05 307.3646Q55.39375 307.3646 55.565624 307.5521Q55.7375 307.7396 55.7375 308.02084Q55.7375 308.28647 55.565624 308.47397Q55.39375 308.64584 55.05 308.64584Q54.721874 308.64584 54.55 308.47397Q54.39375 308.28647 54.39375 308.02084ZM62.6125 304.94272Q62.6125 306.84897 61.95625 307.78647Q61.315624 308.70834 59.925 308.70834Q58.565624 308.70834 57.909374 307.8021Q57.253124 306.89584 57.221874 305.08334L57.221874 303.64584Q57.221874 301.75522 57.8625 300.84897Q58.51875 299.9271 59.909374 299.9271Q61.284374 299.9271 61.940624 300.81772Q62.596874 301.69272 62.6125 303.53647L62.6125 304.94272ZM61.51875 303.45834Q61.51875 302.08334 61.128124 301.45834Q60.753124 300.81772 59.909374 300.81772Q59.08125 300.81772 58.690624 301.45834Q58.315624 302.08334 58.315624 303.38022L58.315624 305.1146Q58.315624 306.4896 58.70625 307.16147Q59.1125 307.81772 59.925 307.81772Q60.721874 307.81772 61.1125 307.19272Q61.503124 306.56772 61.51875 305.2396L61.51875 303.45834ZM69.6125 304.94272Q69.6125 306.84897 68.95625 307.78647Q68.31563 308.70834 66.925 308.70834Q65.56563 308.70834 64.90938 307.8021Q64.25313 306.89584 64.22188 305.08334L64.22188 303.64584Q64.22188 301.75522 64.8625 300.84897Q65.51875 299.9271 66.90938 299.9271Q68.28438 299.9271 68.94063 300.81772Q69.59688 301.69272 69.6125 303.53647L69.6125 304.94272ZM68.51875 303.45834Q68.51875 302.08334 68.12813 301.45834Q67.75313 300.81772 66.90938 300.81772Q66.08125 300.81772 65.69063 301.45834Q65.31563 302.08334 65.31563 303.38022L65.31563 305.1146Q65.31563 306.4896 65.70625 307.16147Q66.1125 307.81772 66.925 307.81772Q67.72188 307.81772 68.1125 307.19272Q68.50313 306.56772 68.51875 305.2396L68.51875 303.45834Z" fill-rule="nonzero"/><path fill="#757575" d="M26.753124 255.96875L27.190624 251.71875L31.565624 251.71875L31.565624 252.71875L28.1125 252.71875L27.846874 255.04688Q28.4875 254.67188 29.284374 254.67188Q30.440624 254.67188 31.128124 255.45312Q31.815624 256.21875 31.815624 257.53125Q31.815624 258.84375 31.096874 259.60938Q30.39375 260.375 29.1125 260.375Q27.9875 260.375 27.26875 259.75Q26.55 259.10938 26.45625 258.0L27.471874 258.0Q27.58125 258.73438 28.003124 259.10938Q28.425 259.48438 29.1125 259.48438Q29.8625 259.48438 30.3 258.96875Q30.7375 258.45312 30.7375 257.54688Q30.7375 256.6875 30.26875 256.17188Q29.8 255.65625 29.01875 255.65625Q28.315624 255.65625 27.909374 255.95312L27.628124 256.1875L26.753124 255.96875ZM38.6125 256.60938Q38.6125 258.51562 37.95625 259.45312Q37.315624 260.375 35.925 260.375Q34.565624 260.375 33.909374 259.46875Q33.253124 258.5625 33.221874 256.75L33.221874 255.3125Q33.221874 253.42188 33.8625 252.51562Q34.51875 251.59375 35.909374 251.59375Q37.284374 251.59375 37.940624 252.48438Q38.596874 253.35938 38.6125 255.20312L38.6125 256.60938ZM37.51875 255.125Q37.51875 253.75 37.128124 253.125Q36.753124 252.48438 35.909374 252.48438Q35.08125 252.48438 34.690624 253.125Q34.315624 253.75 34.315624 255.04688L34.315624 256.78125Q34.315624 258.15625 34.70625 258.82812Q35.1125 259.48438 35.925 259.48438Q36.721874 259.48438 37.1125 258.85938Q37.503124 258.23438 37.51875 256.90625L37.51875 255.125ZM45.6125 256.60938Q45.6125 258.51562 44.95625 259.45312Q44.315624 260.375 42.925 260.375Q41.565624 260.375 40.909374 259.46875Q40.253124 258.5625 40.221874 256.75L40.221874 255.3125Q40.221874 253.42188 40.8625 252.51562Q41.51875 251.59375 42.909374 251.59375Q44.284374 251.59375 44.940624 252.48438Q45.596874 253.35938 45.6125 255.20312L45.6125 256.60938ZM44.51875 255.125Q44.51875 253.75 44.128124 253.125Q43.753124 252.48438 42.909374 252.48438Q42.08125 252.48438 41.690624 253.125Q41.315624 253.75 41.315624 255.04688L41.315624 256.78125Q41.315624 258.15625 41.70625 258.82812Q42.1125 259.48438 42.925 259.48438Q43.721874 259.48438 44.1125 258.85938Q44.503124 258.23438 44.51875 256.90625L44.51875 255.125ZM52.6125 256.60938Q52.6125 258.51562 51.95625 259.45312Q51.315624 260.375 49.925 260.375Q48.565624 260.375 47.909374 259.46875Q47.253124 258.5625 47.221874 256.75L47.221874 255.3125Q47.221874 253.42188 47.8625 252.51562Q48.51875 251.59375 49.909374 251.59375Q51.284374 251.59375 51.940624 252.48438Q52.596874 253.35938 52.6125 255.20312L52.6125 256.60938ZM51.51875 255.125Q51.51875 253.75 51.128124 253.125Q50.753124 252.48438 49.909374 252.48438Q49.08125 252.48438 48.690624 253.125Q48.315624 253.75 48.315624 255.04688L48.315624 256.78125Q48.315624 258.15625 48.70625 258.82812Q49.1125 259.48438 49.925 259.48438Q50.721874 259.48438 51.1125 258.85938Q51.503124 258.23438 51.51875 256.90625L51.51875 255.125ZM54.39375 259.6875Q54.39375 259.40625 54.55 259.21875Q54.721874 259.03125 55.05 259.03125Q55.39375 259.03125 55.565624 259.21875Q55.7375 259.40625 55.7375 259.6875Q55.7375 259.95312 55.565624 260.14062Q55.39375 260.3125 55.05 260.3125Q54.721874 260.3125 54.55 260.14062Q54.39375 259.95312 54.39375 259.6875ZM62.6125 256.60938Q62.6125 258.51562 61.95625 259.45312Q61.315624 260.375 59.925 260.375Q58.565624 260.375 57.909374 259.46875Q57.253124 258.5625 57.221874 256.75L57.221874 255.3125Q57.221874 253.42188 57.8625 252.51562Q58.51875 251.59375 59.909374 251.59375Q61.284374 251.59375 61.940624 252.48438Q62.596874 253.35938 62.6125 255.20312L62.6125 256.60938ZM61.51875 255.125Q61.51875 253.75 61.128124 253.125Q60.753124 252.48438 59.909374 252.48438Q59.08125 252.48438 58.690624 253.125Q58.315624 253.75 58.315624 255.04688L58.315624 256.78125Q58.315624 258.15625 58.70625 258.82812Q59.1125 259.48438 59.925 259.48438Q60.721874 259.48438 61.1125 258.85938Q61.503124 258.23438 61.51875 256.90625L61.51875 255.125ZM69.6125 256.60938Q69.6125 258.51562 68.95625 259.45312Q68.31563 260.375 66.925 260.375Q65.56563 260.375 64.90938 259.46875Q64.25313 258.5625 64.22188 256.75L64.22188 255.3125Q64.22188 253.42188 64.8625 252.51562Q65.51875 251.59375 66.90938 251.59375Q68.28438 251.59375 68.94063 252.48438Q69.59688 253.35938 69.6125 255.20312L69.6125 256.60938ZM68.51875 255.125Q68.51875 253.75 68.12813 253.125Q67.75313 252.48438 66.90938 252.48438Q66.08125 252.48438 65.69063 253.125Q65.31563 253.75 65.31563 255.04688L65.31563 256.78125Q65.31563 258.15625 65.70625 258.82812Q66.1125 259.48438 66.925 259.48438Q67.72188 259.48438 68.1125 258.85938Q68.50313 258.23438 68.51875 256.90625L68.51875 255.125Z" fill-rule="nonzero"/><path fill="#757575" d="M22.815624 211.91667L21.7375 211.91667L21.7375 204.69792L19.55 205.4948L19.55 204.51042L22.659374 203.33855L22.815624 203.33855L22.815624 211.91667ZM31.6125 208.27605Q31.6125 210.1823 30.95625 211.1198Q30.315624 212.04167 28.925 212.04167Q27.565624 212.04167 26.909374 211.13542Q26.253124 210.22917 26.221874 208.41667L26.221874 206.97917Q26.221874 205.08855 26.8625 204.1823Q27.51875 203.26042 28.909374 203.26042Q30.284374 203.26042 30.940624 204.15105Q31.596874 205.02605 31.6125 206.8698L31.6125 208.27605ZM30.51875 206.79167Q30.51875 205.41667 30.128124 204.79167Q29.753124 204.15105 28.909374 204.15105Q28.08125 204.15105 27.690624 204.79167Q27.315624 205.41667 27.315624 206.71355L27.315624 208.44792Q27.315624 209.82292 27.70625 210.4948Q28.1125 211.15105 28.925 211.15105Q29.721874 211.15105 30.1125 210.52605Q30.503124 209.90105 30.51875 208.57292L30.51875 206.79167ZM38.6125 208.27605Q38.6125 210.1823 37.95625 211.1198Q37.315624 212.04167 35.925 212.04167Q34.565624 212.04167 33.909374 211.13542Q33.253124 210.22917 33.221874 208.41667L33.221874 206.97917Q33.221874 205.08855 33.8625 204.1823Q34.51875 203.26042 35.909374 203.26042Q37.284374 203.26042 37.940624 204.15105Q38.596874 205.02605 38.6125 206.8698L38.6125 208.27605ZM37.51875 206.79167Q37.51875 205.41667 37.128124 204.79167Q36.753124 204.15105 35.909374 204.15105Q35.08125 204.15105 34.690624 204.79167Q34.315624 205.41667 34.315624 206.71355L34.315624 208.44792Q34.315624 209.82292 34.70625 210.4948Q35.1125 211.15105 35.925 211.15105Q36.721874 211.15105 37.1125 210.52605Q37.503124 209.90105 37.51875 208.57292L37.51875 206.79167ZM45.6125 208.27605Q45.6125 210.1823 44.95625 211.1198Q44.315624 212.04167 42.925 212.04167Q41.565624 212.04167 40.909374 211.13542Q40.253124 210.22917 40.221874 208.41667L40.221874 206.97917Q40.221874 205.08855 40.8625 204.1823Q41.51875 203.26042 42.909374 203.26042Q44.284374 203.26042 44.940624 204.15105Q45.596874 205.02605 45.6125 206.8698L45.6125 208.27605ZM44.51875 206.79167Q44.51875 205.41667 44.128124 204.79167Q43.753124 204.15105 42.909374 204.15105Q42.08125 204.15105 41.690624 204.79167Q41.315624 205.41667 41.315624 206.71355L41.315624 208.44792Q41.315624 209.82292 41.70625 210.4948Q42.1125 211.15105 42.925 211.15105Q43.721874 211.15105 44.1125 210.52605Q44.503124 209.90105 44.51875 208.57292L44.51875 206.79167ZM52.6125 208.27605Q52.6125 210.1823 51.95625 211.1198Q51.315624 212.04167 49.925 212.04167Q48.565624 212.04167 47.909374 211.13542Q47.253124 210.22917 47.221874 208.41667L47.221874 206.97917Q47.221874 205.08855 47.8625 204.1823Q48.51875 203.26042 49.909374 203.26042Q51.284374 203.26042 51.940624 204.15105Q52.596874 205.02605 52.6125 206.8698L52.6125 208.27605ZM51.51875 206.79167Q51.51875 205.41667 51.128124 204.79167Q50.753124 204.15105 49.909374 204.15105Q49.08125 204.15105 48.690624 204.79167Q48.315624 205.41667 48.315624 206.71355L48.315624 208.44792Q48.315624 209.82292 48.70625 210.4948Q49.1125 211.15105 49.925 211.15105Q50.721874 211.15105 51.1125 210.52605Q51.503124 209.90105 51.51875 208.57292L51.51875 206.79167ZM54.39375 211.35417Q54.39375 211.07292 54.55 210.88542Q54.721874 210.69792 55.05 210.69792Q55.39375 210.69792 55.565624 210.88542Q55.7375 211.07292 55.7375 211.35417Q55.7375 211.6198 55.565624 211.8073Q55.39375 211.97917 55.05 211.97917Q54.721874 211.97917 54.55 211.8073Q54.39375 211.6198 54.39375 211.35417ZM62.6125 208.27605Q62.6125 210.1823 61.95625 211.1198Q61.315624 212.04167 59.925 212.04167Q58.565624 212.04167 57.909374 211.13542Q57.253124 210.22917 57.221874 208.41667L57.221874 206.97917Q57.221874 205.08855 57.8625 204.1823Q58.51875 203.26042 59.909374 203.26042Q61.284374 203.26042 61.940624 204.15105Q62.596874 205.02605 62.6125 206.8698L62.6125 208.27605ZM61.51875 206.79167Q61.51875 205.41667 61.128124 204.79167Q60.753124 204.15105 59.909374 204.15105Q59.08125 204.15105 58.690624 204.79167Q58.315624 205.41667 58.315624 206.71355L58.315624 208.44792Q58.315624 209.82292 58.70625 210.4948Q59.1125 211.15105 59.925 211.15105Q60.721874 211.15105 61.1125 210.52605Q61.503124 209.90105 61.51875 208.57292L61.51875 206.79167ZM69.6125 208.27605Q69.6125 210.1823 68.95625 211.1198Q68.31563 212.04167 66.925 212.04167Q65.56563 212.04167 64.90938 211.13542Q64.25313 210.22917 64.22188 208.41667L64.22188 206.97917Q64.22188 205.08855 64.8625 204.1823Q65.51875 203.26042 66.90938 203.26042Q68.28438 203.26042 68.94063 204.15105Q69.59688 205.02605 69.6125 206.8698L69.6125 208.27605ZM68.51875 206.79167Q68.51875 205.41667 68.12813 204.79167Q67.75313 204.15105 66.90938 204.15105Q66.08125 204.15105 65.69063 204.79167Q65.31563 205.41667 65.31563 206.71355L65.31563 208.44792Q65.31563 209.82292 65.70625 210.4948Q66.1125 211.15105 66.925 211.15105Q67.72188 211.15105 68.1125 210.52605Q68.50313 209.90105 68.51875 208.57292L68.51875 206.79167Z" fill-rule="nonzero"/><path fill="#757575" d="M22.815624 163.58333L21.7375 163.58333L21.7375 156.36458L19.55 157.16145L19.55 156.17708L22.659374 155.0052L22.815624 155.0052L22.815624 163.58333ZM26.753124 159.30208L27.190624 155.05208L31.565624 155.05208L31.565624 156.05208L28.1125 156.05208L27.846874 158.3802Q28.4875 158.0052 29.284374 158.0052Q30.440624 158.0052 31.128124 158.78645Q31.815624 159.55208 31.815624 160.86458Q31.815624 162.17708 31.096874 162.9427Q30.39375 163.70833 29.1125 163.70833Q27.9875 163.70833 27.26875 163.08333Q26.55 162.4427 26.45625 161.33333L27.471874 161.33333Q27.58125 162.0677 28.003124 162.4427Q28.425 162.8177 29.1125 162.8177Q29.8625 162.8177 30.3 162.30208Q30.7375 161.78645 30.7375 160.8802Q30.7375 160.02083 30.26875 159.5052Q29.8 158.98958 29.01875 158.98958Q28.315624 158.98958 27.909374 159.28645L27.628124 159.52083L26.753124 159.30208ZM38.6125 159.9427Q38.6125 161.84895 37.95625 162.78645Q37.315624 163.70833 35.925 163.70833Q34.565624 163.70833 33.909374 162.80208Q33.253124 161.89583 33.221874 160.08333L33.221874 158.64583Q33.221874 156.7552 33.8625 155.84895Q34.51875 154.92708 35.909374 154.92708Q37.284374 154.92708 37.940624 155.8177Q38.596874 156.6927 38.6125 158.53645L38.6125 159.9427ZM37.51875 158.45833Q37.51875 157.08333 37.128124 156.45833Q36.753124 155.8177 35.909374 155.8177Q35.08125 155.8177 34.690624 156.45833Q34.315624 157.08333 34.315624 158.3802L34.315624 160.11458Q34.315624 161.48958 34.70625 162.16145Q35.1125 162.8177 35.925 162.8177Q36.721874 162.8177 37.1125 162.1927Q37.503124 161.5677 37.51875 160.23958L37.51875 158.45833ZM45.6125 159.9427Q45.6125 161.84895 44.95625 162.78645Q44.315624 163.70833 42.925 163.70833Q41.565624 163.70833 40.909374 162.80208Q40.253124 161.89583 40.221874 160.08333L40.221874 158.64583Q40.221874 156.7552 40.8625 155.84895Q41.51875 154.92708 42.909374 154.92708Q44.284374 154.92708 44.940624 155.8177Q45.596874 156.6927 45.6125 158.53645L45.6125 159.9427ZM44.51875 158.45833Q44.51875 157.08333 44.128124 156.45833Q43.753124 155.8177 42.909374 155.8177Q42.08125 155.8177 41.690624 156.45833Q41.315624 157.08333 41.315624 158.3802L41.315624 160.11458Q41.315624 161.48958 41.70625 162.16145Q42.1125 162.8177 42.925 162.8177Q43.721874 162.8177 44.1125 162.1927Q44.503124 161.5677 44.51875 160.23958L44.51875 158.45833ZM52.6125 159.9427Q52.6125 161.84895 51.95625 162.78645Q51.315624 163.70833 49.925 163.70833Q48.565624 163.70833 47.909374 162.80208Q47.253124 161.89583 47.221874 160.08333L47.221874 158.64583Q47.221874 156.7552 47.8625 155.84895Q48.51875 154.92708 49.909374 154.92708Q51.284374 154.92708 51.940624 155.8177Q52.596874 156.6927 52.6125 158.53645L52.6125 159.9427ZM51.51875 158.45833Q51.51875 157.08333 51.128124 156.45833Q50.753124 155.8177 49.909374 155.8177Q49.08125 155.8177 48.690624 156.45833Q48.315624 157.08333 48.315624 158.3802L48.315624 160.11458Q48.315624 161.48958 48.70625 162.16145Q49.1125 162.8177 49.925 162.8177Q50.721874 162.8177 51.1125 162.1927Q51.503124 161.5677 51.51875 160.23958L51.51875 158.45833ZM54.39375 163.02083Q54.39375 162.73958 54.55 162.55208Q54.721874 162.36458 55.05 162.36458Q55.39375 162.36458 55.565624 162.55208Q55.7375 162.73958 55.7375 163.02083Q55.7375 163.28645 55.565624 163.47395Q55.39375 163.64583 55.05 163.64583Q54.721874 163.64583 54.55 163.47395Q54.39375 163.28645 54.39375 163.02083ZM62.6125 159.9427Q62.6125 161.84895 61.95625 162.78645Q61.315624 163.70833 59.925 163.70833Q58.565624 163.70833 57.909374 162.80208Q57.253124 161.89583 57.221874 160.08333L57.221874 158.64583Q57.221874 156.7552 57.8625 155.84895Q58.51875 154.92708 59.909374 154.92708Q61.284374 154.92708 61.940624 155.8177Q62.596874 156.6927 62.6125 158.53645L62.6125 159.9427ZM61.51875 158.45833Q61.51875 157.08333 61.128124 156.45833Q60.753124 155.8177 59.909374 155.8177Q59.08125 155.8177 58.690624 156.45833Q58.315624 157.08333 58.315624 158.3802L58.315624 160.11458Q58.315624 161.48958 58.70625 162.16145Q59.1125 162.8177 59.925 162.8177Q60.721874 162.8177 61.1125 162.1927Q61.503124 161.5677 61.51875 160.23958L61.51875 158.45833ZM69.6125 159.9427Q69.6125 161.84895 68.95625 162.78645Q68.31563 163.70833 66.925 163.70833Q65.56563 163.70833 64.90938 162.80208Q64.25313 161.89583 64.22188 160.08333L64.22188 158.64583Q64.22188 156.7552 64.8625 155.84895Q65.51875 154.92708 66.90938 154.92708Q68.28438 154.92708 68.94063 155.8177Q69.59688 156.6927 69.6125 158.53645L69.6125 159.9427ZM68.51875 158.45833Q68.51875 157.08333 68.12813 156.45833Q67.75313 155.8177 66.90938 155.8177Q66.08125 155.8177 65.69063 156.45833Q65.31563 157.08333 65.31563 158.3802L65.31563 160.11458Q65.31563 161.48958 65.70625 162.16145Q66.1125 162.8177 66.925 162.8177Q67.72188 162.8177 68.1125 162.1927Q68.50313 161.5677 68.51875 160.23958L68.51875 158.45833Z" fill-rule="nonzero"/><path fill="#757575" d="M24.846874 115.25L19.253124 115.25L19.253124 114.46875L22.20625 111.1875Q22.8625 110.4375 23.1125 109.984375Q23.3625 109.515625 23.3625 109.015625Q23.3625 108.34375 22.95625 107.921875Q22.565624 107.484375 21.878124 107.484375Q21.08125 107.484375 20.628124 107.953125Q20.175 108.40625 20.175 109.234375L19.096874 109.234375Q19.096874 108.046875 19.846874 107.328125Q20.6125 106.59375 21.878124 106.59375Q23.08125 106.59375 23.76875 107.21875Q24.45625 107.84375 24.45625 108.890625Q24.45625 110.140625 22.846874 111.890625L20.565624 114.359375L24.846874 114.359375L24.846874 115.25ZM31.6125 111.609375Q31.6125 113.515625 30.95625 114.453125Q30.315624 115.375 28.925 115.375Q27.565624 115.375 26.909374 114.46875Q26.253124 113.5625 26.221874 111.75L26.221874 110.3125Q26.221874 108.421875 26.8625 107.515625Q27.51875 106.59375 28.909374 106.59375Q30.284374 106.59375 30.940624 107.484375Q31.596874 108.359375 31.6125 110.203125L31.6125 111.609375ZM30.51875 110.125Q30.51875 108.75 30.128124 108.125Q29.753124 107.484375 28.909374 107.484375Q28.08125 107.484375 27.690624 108.125Q27.315624 108.75 27.315624 110.046875L27.315624 111.78125Q27.315624 113.15625 27.70625 113.828125Q28.1125 114.484375 28.925 114.484375Q29.721874 114.484375 30.1125 113.859375Q30.503124 113.234375 30.51875 111.90625L30.51875 110.125ZM38.6125 111.609375Q38.6125 113.515625 37.95625 114.453125Q37.315624 115.375 35.925 115.375Q34.565624 115.375 33.909374 114.46875Q33.253124 113.5625 33.221874 111.75L33.221874 110.3125Q33.221874 108.421875 33.8625 107.515625Q34.51875 106.59375 35.909374 106.59375Q37.284374 106.59375 37.940624 107.484375Q38.596874 108.359375 38.6125 110.203125L38.6125 111.609375ZM37.51875 110.125Q37.51875 108.75 37.128124 108.125Q36.753124 107.484375 35.909374 107.484375Q35.08125 107.484375 34.690624 108.125Q34.315624 108.75 34.315624 110.046875L34.315624 111.78125Q34.315624 113.15625 34.70625 113.828125Q35.1125 114.484375 35.925 114.484375Q36.721874 114.484375 37.1125 113.859375Q37.503124 113.234375 37.51875 111.90625L37.51875 110.125ZM45.6125 111.609375Q45.6125 113.515625 44.95625 114.453125Q44.315624 115.375 42.925 115.375Q41.565624 115.375 40.909374 114.46875Q40.253124 113.5625 40.221874 111.75L40.221874 110.3125Q40.221874 108.421875 40.8625 107.515625Q41.51875 106.59375 42.909374 106.59375Q44.284374 106.59375 44.940624 107.484375Q45.596874 108.359375 45.6125 110.203125L45.6125 111.609375ZM44.51875 110.125Q44.51875 108.75 44.128124 108.125Q43.753124 107.484375 42.909374 107.484375Q42.08125 107.484375 41.690624 108.125Q41.315624 108.75 41.315624 110.046875L41.315624 111.78125Q41.315624 113.15625 41.70625 113.828125Q42.1125 114.484375 42.925 114.484375Q43.721874 114.484375 44.1125 113.859375Q44.503124 113.234375 44.51875 111.90625L44.51875 110.125ZM52.6125 111.609375Q52.6125 113.515625 51.95625 114.453125Q51.315624 115.375 49.925 115.375Q48.565624 115.375 47.909374 114.46875Q47.253124 113.5625 47.221874 111.75L47.221874 110.3125Q47.221874 108.421875 47.8625 107.515625Q48.51875 106.59375 49.909374 106.59375Q51.284374 106.59375 51.940624 107.484375Q52.596874 108.359375 52.6125 110.203125L52.6125 111.609375ZM51.51875 110.125Q51.51875 108.75 51.128124 108.125Q50.753124 107.484375 49.909374 107.484375Q49.08125 107.484375 48.690624 108.125Q48.315624 108.75 48.315624 110.046875L48.315624 111.78125Q48.315624 113.15625 48.70625 113.828125Q49.1125 114.484375 49.925 114.484375Q50.721874 114.484375 51.1125 113.859375Q51.503124 113.234375 51.51875 111.90625L51.51875 110.125ZM54.39375 114.6875Q54.39375 114.40625 54.55 114.21875Q54.721874 114.03125 55.05 114.03125Q55.39375 114.03125 55.565624 114.21875Q55.7375 114.40625 55.7375 114.6875Q55.7375 114.953125 55.565624 115.140625Q55.39375 115.3125 55.05 115.3125Q54.721874 115.3125 54.55 115.140625Q54.39375 114.953125 54.39375 114.6875ZM62.6125 111.609375Q62.6125 113.515625 61.95625 114.453125Q61.315624 115.375 59.925 115.375Q58.565624 115.375 57.909374 114.46875Q57.253124 113.5625 57.221874 111.75L57.221874 110.3125Q57.221874 108.421875 57.8625 107.515625Q58.51875 106.59375 59.909374 106.59375Q61.284374 106.59375 61.940624 107.484375Q62.596874 108.359375 62.6125 110.203125L62.6125 111.609375ZM61.51875 110.125Q61.51875 108.75 61.128124 108.125Q60.753124 107.484375 59.909374 107.484375Q59.08125 107.484375 58.690624 108.125Q58.315624 108.75 58.315624 110.046875L58.315624 111.78125Q58.315624 113.15625 58.70625 113.828125Q59.1125 114.484375 59.925 114.484375Q60.721874 114.484375 61.1125 113.859375Q61.503124 113.234375 61.51875 111.90625L61.51875 110.125ZM69.6125 111.609375Q69.6125 113.515625 68.95625 114.453125Q68.31563 115.375 66.925 115.375Q65.56563 115.375 64.90938 114.46875Q64.25313 113.5625 64.22188 111.75L64.22188 110.3125Q64.22188 108.421875 64.8625 107.515625Q65.51875 106.59375 66.90938 106.59375Q68.28438 106.59375 68.94063 107.484375Q69.59688 108.359375 69.6125 110.203125L69.6125 111.609375ZM68.51875 110.125Q68.51875 108.75 68.12813 108.125Q67.75313 107.484375 66.90938 107.484375Q66.08125 107.484375 65.69063 108.125Q65.31563 108.75 65.31563 110.046875L65.31563 111.78125Q65.31563 113.15625 65.70625 113.828125Q66.1125 114.484375 66.925 114.484375Q67.72188 114.484375 68.1125 113.859375Q68.50313 113.234375 68.51875 111.90625L68.51875 110.125Z" fill-rule="nonzero"/><path fill="#757575" d="M24.846874 66.916664L19.253124 66.916664L19.253124 66.135414L22.20625 62.854164Q22.8625 62.104164 23.1125 61.65104Q23.3625 61.18229 23.3625 60.68229Q23.3625 60.010414 22.95625 59.58854Q22.565624 59.15104 21.878124 59.15104Q21.08125 59.15104 20.628124 59.61979Q20.175 60.072914 20.175 60.90104L19.096874 60.90104Q19.096874 59.71354 19.846874 58.99479Q20.6125 58.260414 21.878124 58.260414Q23.08125 58.260414 23.76875 58.885414Q24.45625 59.510414 24.45625 60.55729Q24.45625 61.80729 22.846874 63.55729L20.565624 66.02604L24.846874 66.02604L24.846874 66.916664ZM26.753124 62.635414L27.190624 58.385414L31.565624 58.385414L31.565624 59.385414L28.1125 59.385414L27.846874 61.71354Q28.4875 61.33854 29.284374 61.33854Q30.440624 61.33854 31.128124 62.11979Q31.815624 62.885414 31.815624 64.197914Q31.815624 65.510414 31.096874 66.27604Q30.39375 67.041664 29.1125 67.041664Q27.9875 67.041664 27.26875 66.416664Q26.55 65.77604 26.45625 64.666664L27.471874 64.666664Q27.58125 65.40104 28.003124 65.77604Q28.425 66.15104 29.1125 66.15104Q29.8625 66.15104 30.3 65.635414Q30.7375 65.11979 30.7375 64.21354Q30.7375 63.354164 30.26875 62.83854Q29.8 62.322914 29.01875 62.322914Q28.315624 62.322914 27.909374 62.61979L27.628124 62.854164L26.753124 62.635414ZM38.6125 63.27604Q38.6125 65.18229 37.95625 66.11979Q37.315624 67.041664 35.925 67.041664Q34.565624 67.041664 33.909374 66.135414Q33.253124 65.229164 33.221874 63.416664L33.221874 61.979164Q33.221874 60.08854 33.8625 59.18229Q34.51875 58.260414 35.909374 58.260414Q37.284374 58.260414 37.940624 59.15104Q38.596874 60.02604 38.6125 61.86979L38.6125 63.27604ZM37.51875 61.791664Q37.51875 60.416664 37.128124 59.791664Q36.753124 59.15104 35.909374 59.15104Q35.08125 59.15104 34.690624 59.791664Q34.315624 60.416664 34.315624 61.71354L34.315624 63.447914Q34.315624 64.822914 34.70625 65.49479Q35.1125 66.15104 35.925 66.15104Q36.721874 66.15104 37.1125 65.52604Q37.503124 64.90104 37.51875 63.572914L37.51875 61.791664ZM45.6125 63.27604Q45.6125 65.18229 44.95625 66.11979Q44.315624 67.041664 42.925 67.041664Q41.565624 67.041664 40.909374 66.135414Q40.253124 65.229164 40.221874 63.416664L40.221874 61.979164Q40.221874 60.08854 40.8625 59.18229Q41.51875 58.260414 42.909374 58.260414Q44.284374 58.260414 44.940624 59.15104Q45.596874 60.02604 45.6125 61.86979L45.6125 63.27604ZM44.51875 61.791664Q44.51875 60.416664 44.128124 59.791664Q43.753124 59.15104 42.909374 59.15104Q42.08125 59.15104 41.690624 59.791664Q41.315624 60.416664 41.315624 61.71354L41.315624 63.447914Q41.315624 64.822914 41.70625 65.49479Q42.1125 66.15104 42.925 66.15104Q43.721874 66.15104 44.1125 65.52604Q44.503124 64.90104 44.51875 63.572914L44.51875 61.791664ZM52.6125 63.27604Q52.6125 65.18229 51.95625 66.11979Q51.315624 67.041664 49.925 67.041664Q48.565624 67.041664 47.909374 66.135414Q47.253124 65.229164 47.221874 63.416664L47.221874 61.979164Q47.221874 60.08854 47.8625 59.18229Q48.51875 58.260414 49.909374 58.260414Q51.284374 58.260414 51.940624 59.15104Q52.596874 60.02604 52.6125 61.86979L52.6125 63.27604ZM51.51875 61.791664Q51.51875 60.416664 51.128124 59.791664Q50.753124 59.15104 49.909374 59.15104Q49.08125 59.15104 48.690624 59.791664Q48.315624 60.416664 48.315624 61.71354L48.315624 63.447914Q48.315624 64.822914 48.70625 65.49479Q49.1125 66.15104 49.925 66.15104Q50.721874 66.15104 51.1125 65.52604Q51.503124 64.90104 51.51875 63.572914L51.51875 61.791664ZM54.39375 66.354164Q54.39375 66.072914 54.55 65.885414Q54.721874 65.697914 55.05 65.697914Q55.39375 65.697914 55.565624 65.885414Q55.7375 66.072914 55.7375 66.354164Q55.7375 66.61979 55.565624 66.80729Q55.39375 66.979164 55.05 66.979164Q54.721874 66.979164 54.55 66.80729Q54.39375 66.61979 54.39375 66.354164ZM62.6125 63.27604Q62.6125 65.18229 61.95625 66.11979Q61.315624 67.041664 59.925 67.041664Q58.565624 67.041664 57.909374 66.135414Q57.253124 65.229164 57.221874 63.416664L57.221874 61.979164Q57.221874 60.08854 57.8625 59.18229Q58.51875 58.260414 59.909374 58.260414Q61.284374 58.260414 61.940624 59.15104Q62.596874 60.02604 62.6125 61.86979L62.6125 63.27604ZM61.51875 61.791664Q61.51875 60.416664 61.128124 59.791664Q60.753124 59.15104 59.909374 59.15104Q59.08125 59.15104 58.690624 59.791664Q58.315624 60.416664 58.315624 61.71354L58.315624 63.447914Q58.315624 64.822914 58.70625 65.49479Q59.1125 66.15104 59.925 66.15104Q60.721874 66.15104 61.1125 65.52604Q61.503124 64.90104 61.51875 63.572914L61.51875 61.791664ZM69.6125 63.27604Q69.6125 65.18229 68.95625 66.11979Q68.31563 67.041664 66.925 67.041664Q65.56563 67.041664 64.90938 66.135414Q64.25313 65.229164 64.22188 63.416664L64.22188 61.979164Q64.22188 60.08854 64.8625 59.18229Q65.51875 58.260414 66.90938 58.260414Q68.28438 58.260414 68.94063 59.15104Q69.59688 60.02604 69.6125 61.86979L69.6125 63.27604ZM68.51875 61.791664Q68.51875 60.416664 68.12813 59.791664Q67.75313 59.15104 66.90938 59.15104Q66.08125 59.15104 65.69063 59.791664Q65.31563 60.416664 65.31563 61.71354L65.31563 63.447914Q65.31563 64.822914 65.70625 65.49479Q66.1125 66.15104 66.925 66.15104Q67.72188 66.15104 68.1125 65.52604Q68.50313 64.90104 68.51875 63.572914L68.51875 61.791664Z" fill-rule="nonzero"/><path fill="#757575" d="M112.390625 322.08334L111.3125 322.08334L111.3125 314.8646L109.125 315.66147L109.125 314.6771L112.234375 313.50522L112.390625 313.50522L112.390625 322.08334ZM116.328125 317.8021L116.765625 313.5521L121.140625 313.5521L121.140625 314.5521L117.6875 314.5521L117.421875 316.88022Q118.0625 316.50522 118.859375 316.50522Q120.015625 316.50522 120.703125 317.28647Q121.390625 318.0521 121.390625 319.3646Q121.390625 320.6771 120.671875 321.44272Q119.96875 322.20834 118.6875 322.20834Q117.5625 322.20834 116.84375 321.58334Q116.125 320.94272 116.03125 319.83334L117.046875 319.83334Q117.15625 320.56772 117.578125 320.94272Q118.0 321.31772 118.6875 321.31772Q119.4375 321.31772 119.875 320.8021Q120.3125 320.28647 120.3125 319.38022Q120.3125 318.52084 119.84375 318.00522Q119.375 317.4896 118.59375 317.4896Q117.890625 317.4896 117.484375 317.78647L117.203125 318.02084L116.328125 317.8021ZM128.1875 318.44272Q128.1875 320.34897 127.53125 321.28647Q126.890625 322.20834 125.5 322.20834Q124.140625 322.20834 123.484375 321.3021Q122.828125 320.39584 122.796875 318.58334L122.796875 317.14584Q122.796875 315.25522 123.4375 314.34897Q124.09375 313.4271 125.484375 313.4271Q126.859375 313.4271 127.515625 314.31772Q128.17188 315.19272 128.1875 317.03647L128.1875 318.44272ZM127.09375 316.95834Q127.09375 315.58334 126.703125 314.95834Q126.328125 314.31772 125.484375 314.31772Q124.65625 314.31772 124.265625 314.95834Q123.890625 315.58334 123.890625 316.88022L123.890625 318.6146Q123.890625 319.9896 124.28125 320.66147Q124.6875 321.31772 125.5 321.31772Q126.296875 321.31772 126.6875 320.69272Q127.078125 320.06772 127.09375 318.7396L127.09375 316.95834Z" fill-rule="nonzero"/><path fill="#757575" d="M194.55624 317.28647L195.36874 317.28647Q196.15 317.27084 196.5875 316.88022Q197.025 316.4896 197.025 315.81772Q197.025 314.31772 195.525 314.31772Q194.82187 314.31772 194.4 314.72397Q193.99374 315.13022 193.99374 315.78647L192.9 315.78647Q192.9 314.77084 193.63437 314.09897Q194.38437 313.4271 195.525 313.4271Q196.72812 313.4271 197.41562 314.06772Q198.10312 314.70834 198.10312 315.84897Q198.10312 316.41147 197.74374 316.9271Q197.38437 317.44272 196.75937 317.70834Q197.4625 317.9271 197.8375 318.44272Q198.22812 318.95834 198.22812 319.70834Q198.22812 320.84897 197.47812 321.53647Q196.72812 322.20834 195.525 322.20834Q194.3375 322.20834 193.57187 321.5521Q192.82187 320.89584 192.82187 319.83334L193.91562 319.83334Q193.91562 320.50522 194.35312 320.91147Q194.79062 321.31772 195.54062 321.31772Q196.32187 321.31772 196.72812 320.91147Q197.15 320.4896 197.15 319.72397Q197.15 318.9896 196.69687 318.59897Q196.24374 318.19272 195.36874 318.1771L194.55624 318.1771L194.55624 317.28647ZM205.3375 318.44272Q205.3375 320.34897 204.68124 321.28647Q204.04062 322.20834 202.65 322.20834Q201.29062 322.20834 200.63437 321.3021Q199.97812 320.39584 199.94687 318.58334L199.94687 317.14584Q199.94687 315.25522 200.5875 314.34897Q201.24374 313.4271 202.63437 313.4271Q204.00937 313.4271 204.66562 314.31772Q205.32187 315.19272 205.3375 317.03647L205.3375 318.44272ZM204.24374 316.95834Q204.24374 315.58334 203.85312 314.95834Q203.47812 314.31772 202.63437 314.31772Q201.80624 314.31772 201.41562 314.95834Q201.04062 315.58334 201.04062 316.88022L201.04062 318.6146Q201.04062 319.9896 201.43124 320.66147Q201.8375 321.31772 202.65 321.31772Q203.44687 321.31772 203.8375 320.69272Q204.22812 320.06772 204.24374 318.7396L204.24374 316.95834ZM212.3375 318.44272Q212.3375 320.34897 211.68124 321.28647Q211.04062 322.20834 209.65 322.20834Q208.29062 322.20834 207.63437 321.3021Q206.97812 320.39584 206.94687 318.58334L206.94687 317.14584Q206.94687 315.25522 207.5875 314.34897Q208.24374 313.4271 209.63437 313.4271Q211.00937 313.4271 211.66562 314.31772Q212.32187 315.19272 212.3375 317.03647L212.3375 318.44272ZM211.24374 316.95834Q211.24374 315.58334 210.85312 314.95834Q210.47812 314.31772 209.63437 314.31772Q208.80624 314.31772 208.41562 314.95834Q208.04062 315.58334 208.04062 316.88022L208.04062 318.6146Q208.04062 319.9896 208.43124 320.66147Q208.8375 321.31772 209.65 321.31772Q210.44687 321.31772 210.8375 320.69272Q211.22812 320.06772 211.24374 318.7396L211.24374 316.95834Z" fill-rule="nonzero"/><path fill="#757575" d="M281.39374 313.5521L281.39374 314.45834L281.1906 314.45834Q279.925 314.4896 279.175 315.22397Q278.425 315.94272 278.3 317.25522Q278.9875 316.4896 280.14374 316.4896Q281.2531 316.4896 281.925 317.27084Q282.59686 318.0521 282.59686 319.3021Q282.59686 320.6146 281.8781 321.41147Q281.15936 322.20834 279.9406 322.20834Q278.72186 322.20834 277.95624 321.27084Q277.20624 320.31772 277.20624 318.83334L277.20624 318.4271Q277.20624 316.06772 278.20624 314.81772Q279.20624 313.56772 281.1906 313.5521L281.39374 313.5521ZM279.97186 317.39584Q279.40936 317.39584 278.9406 317.72397Q278.47186 318.0521 278.28436 318.56772L278.28436 318.95834Q278.28436 320.02084 278.7531 320.66147Q279.2375 321.3021 279.9406 321.3021Q280.675 321.3021 281.09686 320.77084Q281.51874 320.22397 281.51874 319.34897Q281.51874 318.47397 281.09686 317.94272Q280.675 317.39584 279.97186 317.39584ZM289.4875 318.44272Q289.4875 320.34897 288.83124 321.28647Q288.1906 322.20834 286.8 322.20834Q285.4406 322.20834 284.78436 321.3021Q284.1281 320.39584 284.09686 318.58334L284.09686 317.14584Q284.09686 315.25522 284.7375 314.34897Q285.39374 313.4271 286.78436 313.4271Q288.15936 313.4271 288.8156 314.31772Q289.47186 315.19272 289.4875 317.03647L289.4875 318.44272ZM288.39374 316.95834Q288.39374 315.58334 288.0031 314.95834Q287.6281 314.31772 286.78436 314.31772Q285.95624 314.31772 285.5656 314.95834Q285.1906 315.58334 285.1906 316.88022L285.1906 318.6146Q285.1906 319.9896 285.58124 320.66147Q285.9875 321.31772 286.8 321.31772Q287.59686 321.31772 287.9875 320.69272Q288.3781 320.06772 288.39374 318.7396L288.39374 316.95834ZM296.4875 318.44272Q296.4875 320.34897 295.83124 321.28647Q295.1906 322.20834 293.8 322.20834Q292.4406 322.20834 291.78436 321.3021Q291.1281 320.39584 291.09686 318.58334L291.09686 317.14584Q291.09686 315.25522 291.7375 314.34897Q292.39374 313.4271 293.78436 313.4271Q295.15936 313.4271 295.8156 314.31772Q296.47186 315.19272 296.4875 317.03647L296.4875 318.44272ZM295.39374 316.95834Q295.39374 315.58334 295.0031 314.95834Q294.6281 314.31772 293.78436 314.31772Q292.95624 314.31772 292.5656 314.95834Q292.1906 315.58334 292.1906 316.88022L292.1906 318.6146Q292.1906 319.9896 292.58124 320.66147Q292.9875 321.31772 293.8 321.31772Q294.59686 321.31772 294.9875 320.69272Q295.3781 320.06772 295.39374 318.7396L295.39374 316.95834Z" fill-rule="nonzero"/><path fill="#757575" d="M365.4344 318.33334Q365.10626 318.7396 364.6219 318.9896Q364.15314 319.22397 363.59064 319.22397Q362.85626 319.22397 362.3094 318.8646Q361.7625 318.50522 361.46564 317.84897Q361.16876 317.1771 361.16876 316.38022Q361.16876 315.53647 361.48126 314.84897Q361.8094 314.16147 362.40314 313.8021Q363.0125 313.4271 363.8094 313.4271Q365.075 313.4271 365.79376 314.38022Q366.52814 315.33334 366.52814 316.95834L366.52814 317.27084Q366.52814 319.77084 365.54376 320.91147Q364.5594 322.0521 362.575 322.08334L362.35626 322.08334L362.35626 321.1771L362.59064 321.1771Q363.9344 321.14584 364.65314 320.47397Q365.3719 319.8021 365.4344 318.33334ZM363.7625 318.33334Q364.3094 318.33334 364.7625 318.00522Q365.23126 317.66147 365.45 317.1771L365.45 316.7396Q365.45 315.6771 364.98126 315.00522Q364.5125 314.33334 363.8094 314.33334Q363.09064 314.33334 362.65314 314.88022Q362.23126 315.4271 362.23126 316.33334Q362.23126 317.20834 362.6375 317.77084Q363.0594 318.33334 363.7625 318.33334ZM373.6375 318.44272Q373.6375 320.34897 372.98126 321.28647Q372.34064 322.20834 370.95 322.20834Q369.59064 322.20834 368.9344 321.3021Q368.27814 320.39584 368.2469 318.58334L368.2469 317.14584Q368.2469 315.25522 368.8875 314.34897Q369.54376 313.4271 370.9344 313.4271Q372.3094 313.4271 372.96564 314.31772Q373.6219 315.19272 373.6375 317.03647L373.6375 318.44272ZM372.54376 316.95834Q372.54376 315.58334 372.15314 314.95834Q371.77814 314.31772 370.9344 314.31772Q370.10626 314.31772 369.71564 314.95834Q369.34064 315.58334 369.34064 316.88022L369.34064 318.6146Q369.34064 319.9896 369.73126 320.66147Q370.1375 321.31772 370.95 321.31772Q371.7469 321.31772 372.1375 320.69272Q372.52814 320.06772 372.54376 318.7396L372.54376 316.95834ZM380.6375 318.44272Q380.6375 320.34897 379.98126 321.28647Q379.34064 322.20834 377.95 322.20834Q376.59064 322.20834 375.9344 321.3021Q375.27814 320.39584 375.2469 318.58334L375.2469 317.14584Q375.2469 315.25522 375.8875 314.34897Q376.54376 313.4271 377.9344 313.4271Q379.3094 313.4271 379.96564 314.31772Q380.6219 315.19272 380.6375 317.03647L380.6375 318.44272ZM379.54376 316.95834Q379.54376 315.58334 379.15314 314.95834Q378.77814 314.31772 377.9344 314.31772Q377.10626 314.31772 376.71564 314.95834Q376.34064 315.58334 376.34064 316.88022L376.34064 318.6146Q376.34064 319.9896 376.73126 320.66147Q377.1375 321.31772 377.95 321.31772Q378.7469 321.31772 379.1375 320.69272Q379.52814 320.06772 379.54376 318.7396L379.54376 316.95834Z" fill-rule="nonzero"/><path fill="#757575" d="M445.49063 322.08334L444.4125 322.08334L444.4125 314.8646L442.225 315.66147L442.225 314.6771L445.33438 313.50522L445.49063 313.50522L445.49063 322.08334ZM454.52188 322.08334L448.92813 322.08334L448.92813 321.3021L451.88126 318.02084Q452.5375 317.27084 452.7875 316.81772Q453.0375 316.34897 453.0375 315.84897Q453.0375 315.1771 452.63126 314.75522Q452.24063 314.31772 451.55313 314.31772Q450.75626 314.31772 450.30313 314.78647Q449.85 315.2396 449.85 316.06772L448.77188 316.06772Q448.77188 314.88022 449.52188 314.16147Q450.2875 313.4271 451.55313 313.4271Q452.75626 313.4271 453.44376 314.0521Q454.13126 314.6771 454.13126 315.72397Q454.13126 316.97397 452.52188 318.72397L450.24063 321.19272L454.52188 321.19272L454.52188 322.08334ZM461.2875 318.44272Q461.2875 320.34897 460.63126 321.28647Q459.99063 322.20834 458.6 322.20834Q457.24063 322.20834 456.58438 321.3021Q455.92813 320.39584 455.89688 318.58334L455.89688 317.14584Q455.89688 315.25522 456.5375 314.34897Q457.19376 313.4271 458.58438 313.4271Q459.95938 313.4271 460.61563 314.31772Q461.27188 315.19272 461.2875 317.03647L461.2875 318.44272ZM460.19376 316.95834Q460.19376 315.58334 459.80313 314.95834Q459.42813 314.31772 458.58438 314.31772Q457.75626 314.31772 457.36563 314.95834Q456.99063 315.58334 456.99063 316.88022L456.99063 318.6146Q456.99063 319.9896 457.38126 320.66147Q457.7875 321.31772 458.6 321.31772Q459.39688 321.31772 459.7875 320.69272Q460.17813 320.06772 460.19376 318.7396L460.19376 316.95834ZM468.2875 318.44272Q468.2875 320.34897 467.63126 321.28647Q466.99063 322.20834 465.6 322.20834Q464.24063 322.20834 463.58438 321.3021Q462.92813 320.39584 462.89688 318.58334L462.89688 317.14584Q462.89688 315.25522 463.5375 314.34897Q464.19376 313.4271 465.58438 313.4271Q466.95938 313.4271 467.61563 314.31772Q468.27188 315.19272 468.2875 317.03647L468.2875 318.44272ZM467.19376 316.95834Q467.19376 315.58334 466.80313 314.95834Q466.42813 314.31772 465.58438 314.31772Q464.75626 314.31772 464.36563 314.95834Q463.99063 315.58334 463.99063 316.88022L463.99063 318.6146Q463.99063 319.9896 464.38126 320.66147Q464.7875 321.31772 465.6 321.31772Q466.39688 321.31772 466.7875 320.69272Q467.17813 320.06772 467.19376 318.7396L467.19376 316.95834Z" fill-rule="nonzero"/><path fill="#757575" d="M529.6406 322.08334L528.5625 322.08334L528.5625 314.8646L526.375 315.66147L526.375 314.6771L529.4844 313.50522L529.6406 313.50522L529.6406 322.08334ZM533.5781 317.8021L534.0156 313.5521L538.3906 313.5521L538.3906 314.5521L534.9375 314.5521L534.6719 316.88022Q535.3125 316.50522 536.1094 316.50522Q537.2656 316.50522 537.9531 317.28647Q538.6406 318.0521 538.6406 319.3646Q538.6406 320.6771 537.9219 321.44272Q537.21875 322.20834 535.9375 322.20834Q534.8125 322.20834 534.09375 321.58334Q533.375 320.94272 533.28125 319.83334L534.2969 319.83334Q534.40625 320.56772 534.8281 320.94272Q535.25 321.31772 535.9375 321.31772Q536.6875 321.31772 537.125 320.8021Q537.5625 320.28647 537.5625 319.38022Q537.5625 318.52084 537.09375 318.00522Q536.625 317.4896 535.84375 317.4896Q535.1406 317.4896 534.7344 317.78647L534.4531 318.02084L533.5781 317.8021ZM545.4375 318.44272Q545.4375 320.34897 544.78125 321.28647Q544.1406 322.20834 542.75 322.20834Q541.3906 322.20834 540.7344 321.3021Q540.0781 320.39584 540.0469 318.58334L540.0469 317.14584Q540.0469 315.25522 540.6875 314.34897Q541.34375 313.4271 542.7344 313.4271Q544.1094 313.4271 544.7656 314.31772Q545.4219 315.19272 545.4375 317.03647L545.4375 318.44272ZM544.34375 316.95834Q544.34375 315.58334 543.9531 314.95834Q543.5781 314.31772 542.7344 314.31772Q541.90625 314.31772 541.5156 314.95834Q541.1406 315.58334 541.1406 316.88022L541.1406 318.6146Q541.1406 319.9896 541.53125 320.66147Q541.9375 321.31772 542.75 321.31772Q543.5469 321.31772 543.9375 320.69272Q544.3281 320.06772 544.34375 318.7396L544.34375 316.95834ZM552.4375 318.44272Q552.4375 320.34897 551.78125 321.28647Q551.1406 322.20834 549.75 322.20834Q548.3906 322.20834 547.7344 321.3021Q547.0781 320.39584 547.0469 318.58334L547.0469 317.14584Q547.0469 315.25522 547.6875 314.34897Q548.34375 313.4271 549.7344 313.4271Q551.1094 313.4271 551.7656 314.31772Q552.4219 315.19272 552.4375 317.03647L552.4375 318.44272ZM551.34375 316.95834Q551.34375 315.58334 550.9531 314.95834Q550.5781 314.31772 549.7344 314.31772Q548.90625 314.31772 548.5156 314.95834Q548.1406 315.58334 548.1406 316.88022L548.1406 318.6146Q548.1406 319.9896 548.53125 320.66147Q548.9375 321.31772 549.75 321.31772Q550.5469 321.31772 550.9375 320.69272Q551.3281 320.06772 551.34375 318.7396L551.34375 316.95834Z" fill-rule="nonzero"/><path stroke="#4285f4" stroke-width="4.0" stroke-linecap="butt" d="M241.0 344.95L253.0 344.95" fill-rule="nonzero"/><path fill="#757575" d="M261.53125 346.21564Q261.53125 345.29376 261.89062 344.54376Q262.26562 343.79376 262.92188 343.40314Q263.57812 342.9969 264.40625 342.9969Q265.70312 342.9969 266.5 343.8875Q267.3125 344.77814 267.3125 346.27814L267.3125 346.35626Q267.3125 347.27814 266.95312 348.0125Q266.59375 348.7469 265.9375 349.16876Q265.28125 349.575 264.42188 349.575Q263.14062 349.575 262.32812 348.6844Q261.53125 347.77814 261.53125 346.29376L261.53125 346.21564ZM262.625 346.35626Q262.625 347.40314 263.10938 348.04376Q263.60938 348.6844 264.42188 348.6844Q265.25 348.6844 265.73438 348.04376Q266.21875 347.3875 266.21875 346.21564Q266.21875 345.1844 265.71875 344.54376Q265.23438 343.8875 264.40625 343.8875Q263.60938 343.8875 263.10938 344.52814Q262.625 345.15314 262.625 346.35626ZM270.0 349.45L268.92188 349.45L268.92188 340.45L270.0 340.45L270.0 349.45ZM273.29688 341.575L273.29688 343.10626L274.46875 343.10626L274.46875 343.95L273.29688 343.95L273.29688 347.8719Q273.29688 348.2625 273.45312 348.45Q273.60938 348.6375 273.98438 348.6375Q274.17188 348.6375 274.5 348.575L274.5 349.45Q274.07812 349.575 273.67188 349.575Q272.95312 349.575 272.57812 349.1375Q272.20312 348.6844 272.20312 347.8719L272.20312 343.95L271.04688 343.95L271.04688 343.10626L272.20312 343.10626L272.20312 341.575L273.29688 341.575ZM281.17188 346.35626Q281.17188 347.79376 280.51562 348.6844Q279.85938 349.575 278.71875 349.575Q277.5625 349.575 276.90625 348.84064L276.90625 351.8875L275.82812 351.8875L275.82812 343.10626L276.8125 343.10626L276.85938 343.8094Q277.53125 342.9969 278.70312 342.9969Q279.84375 342.9969 280.5 343.85626Q281.17188 344.71564 281.17188 346.2469L281.17188 346.35626ZM280.09375 346.23126Q280.09375 345.15314 279.625 344.54376Q279.17188 343.91876 278.375 343.91876Q277.39062 343.91876 276.90625 344.77814L276.90625 347.8094Q277.39062 348.6844 278.39062 348.6844Q279.17188 348.6844 279.625 348.075Q280.09375 347.45 280.09375 346.23126ZM287.39062 350.34064L282.03125 350.34064L282.03125 349.45L287.39062 349.45L287.39062 350.34064ZM291.73438 348.825Q291.10938 349.575 289.875 349.575Q288.85938 349.575 288.32812 348.98126Q287.79688 348.3875 287.79688 347.23126L287.79688 343.10626L288.875 343.10626L288.875 347.2Q288.875 348.65314 290.04688 348.65314Q291.29688 348.65314 291.70312 347.71564L291.70312 343.10626L292.79688 343.10626L292.79688 349.45L291.76562 349.45L291.73438 348.825ZM300.17188 346.35626Q300.17188 347.79376 299.51562 348.6844Q298.85938 349.575 297.71875 349.575Q296.5625 349.575 295.90625 348.84064L295.90625 351.8875L294.82812 351.8875L294.82812 343.10626L295.8125 343.10626L295.85938 343.8094Q296.53125 342.9969 297.70312 342.9969Q298.84375 342.9969 299.5 343.85626Q300.17188 344.71564 300.17188 346.2469L300.17188 346.35626ZM299.09375 346.23126Q299.09375 345.15314 298.625 344.54376Q298.17188 343.91876 297.375 343.91876Q296.39062 343.91876 295.90625 344.77814L295.90625 347.8094Q296.39062 348.6844 297.39062 348.6844Q298.17188 348.6844 298.625 348.075Q299.09375 347.45 299.09375 346.23126ZM301.5625 346.23126Q301.5625 344.7625 302.25 343.8875Q302.9375 342.9969 304.0625 342.9969Q305.17188 342.9969 305.82812 343.7469L305.82812 340.45L306.90625 340.45L306.90625 349.45L305.90625 349.45L305.85938 348.7625Q305.20312 349.575 304.04688 349.575Q302.95312 349.575 302.25 348.66876Q301.5625 347.7625 301.5625 346.3094L301.5625 346.23126ZM302.64062 346.35626Q302.64062 347.4344 303.07812 348.04376Q303.53125 348.65314 304.3125 348.65314Q305.34375 348.65314 305.82812 347.71564L305.82812 344.8094Q305.34375 343.91876 304.32812 343.91876Q303.53125 343.91876 303.07812 344.52814Q302.64062 345.1375 302.64062 346.35626ZM312.73438 349.45Q312.64062 349.2625 312.57812 348.77814Q311.82812 349.575 310.78125 349.575Q309.84375 349.575 309.23438 349.04376Q308.64062 348.5125 308.64062 347.6844Q308.64062 346.7 309.39062 346.15314Q310.14062 345.60626 311.51562 345.60626L312.5625 345.60626L312.5625 345.10626Q312.5625 344.54376 312.21875 344.21564Q311.89062 343.8719 311.21875 343.8719Q310.64062 343.8719 310.25 344.16876Q309.85938 344.45 309.85938 344.8719L308.76562 344.8719Q308.76562 344.3875 309.09375 343.95Q309.4375 343.5125 310.01562 343.2625Q310.59375 342.9969 311.28125 342.9969Q312.39062 342.9969 313.0 343.54376Q313.625 344.09064 313.65625 345.04376L313.65625 347.96564Q313.65625 348.84064 313.875 349.35626L313.875 349.45L312.73438 349.45ZM310.9375 348.6219Q311.45312 348.6219 311.90625 348.35626Q312.35938 348.09064 312.5625 347.66876L312.5625 346.3719L311.71875 346.3719Q309.71875 346.3719 309.71875 347.54376Q309.71875 348.04376 310.0625 348.34064Q310.40625 348.6219 310.9375 348.6219ZM317.29688 341.575L317.29688 343.10626L318.46875 343.10626L318.46875 343.95L317.29688 343.95L317.29688 347.8719Q317.29688 348.2625 317.45312 348.45Q317.60938 348.6375 317.98438 348.6375Q318.17188 348.6375 318.5 348.575L318.5 349.45Q318.07812 349.575 317.67188 349.575Q316.95312 349.575 316.57812 349.1375Q316.20312 348.6844 316.20312 347.8719L316.20312 343.95L315.04688 343.95L315.04688 343.10626L316.20312 343.10626L316.20312 341.575L317.29688 341.575ZM322.45312 349.575Q321.15625 349.575 320.34375 348.73126Q319.54688 347.8719 319.54688 346.45L319.54688 346.2625Q319.54688 345.3094 319.90625 344.575Q320.26562 343.825 320.90625 343.41876Q321.5625 342.9969 322.3125 342.9969Q323.54688 342.9969 324.23438 343.8094Q324.92188 344.6219 324.92188 346.1375L324.92188 346.59064L320.625 346.59064Q320.65625 347.52814 321.17188 348.10626Q321.70312 348.6844 322.51562 348.6844Q323.07812 348.6844 323.46875 348.45Q323.875 348.21564 324.1875 347.825L324.84375 348.34064Q324.04688 349.575 322.45312 349.575ZM322.3125 343.8875Q321.65625 343.8875 321.20312 344.3719Q320.76562 344.84064 320.67188 345.7L323.84375 345.7L323.84375 345.6219Q323.79688 344.79376 323.39062 344.34064Q323.0 343.8875 322.3125 343.8875ZM330.39062 350.34064L325.03125 350.34064L325.03125 349.45L330.39062 349.45L330.39062 350.34064ZM332.0 349.45L330.92188 349.45L330.92188 343.10626L332.0 343.10626L332.0 349.45ZM330.82812 341.4344Q330.82812 341.16876 330.98438 340.98126Q331.15625 340.79376 331.46875 340.79376Q331.78125 340.79376 331.9375 340.98126Q332.10938 341.16876 332.10938 341.4344Q332.10938 341.6844 331.9375 341.8719Q331.78125 342.04376 331.46875 342.04376Q331.15625 342.04376 330.98438 341.8719Q330.82812 341.6844 330.82812 341.4344ZM334.84375 343.10626L334.875 343.90314Q335.60938 342.9969 336.78125 342.9969Q338.79688 342.9969 338.8125 345.2625L338.8125 349.45L337.71875 349.45L337.71875 345.2469Q337.71875 344.575 337.40625 344.2469Q337.10938 343.91876 336.45312 343.91876Q335.92188 343.91876 335.51562 344.2Q335.125 344.48126 334.90625 344.9344L334.90625 349.45L333.82812 349.45L333.82812 343.10626L334.84375 343.10626ZM340.5625 346.23126Q340.5625 344.7625 341.25 343.8875Q341.9375 342.9969 343.0625 342.9969Q344.17188 342.9969 344.82812 343.7469L344.82812 340.45L345.90625 340.45L345.90625 349.45L344.90625 349.45L344.85938 348.7625Q344.20312 349.575 343.04688 349.575Q341.95312 349.575 341.25 348.66876Q340.5625 347.7625 340.5625 346.3094L340.5625 346.23126ZM341.64062 346.35626Q341.64062 347.4344 342.07812 348.04376Q342.53125 348.65314 343.3125 348.65314Q344.34375 348.65314 344.82812 347.71564L344.82812 344.8094Q344.34375 343.91876 343.32812 343.91876Q342.53125 343.91876 342.07812 344.52814Q341.64062 345.1375 341.64062 346.35626ZM350.45312 349.575Q349.15625 349.575 348.34375 348.73126Q347.54688 347.8719 347.54688 346.45L347.54688 346.2625Q347.54688 345.3094 347.90625 344.575Q348.26562 343.825 348.90625 343.41876Q349.5625 342.9969 350.3125 342.9969Q351.54688 342.9969 352.23438 343.8094Q352.92188 344.6219 352.92188 346.1375L352.92188 346.59064L348.625 346.59064Q348.65625 347.52814 349.17188 348.10626Q349.70312 348.6844 350.51562 348.6844Q351.07812 348.6844 351.46875 348.45Q351.875 348.21564 352.1875 347.825L352.84375 348.34064Q352.04688 349.575 350.45312 349.575ZM350.3125 343.8875Q349.65625 343.8875 349.20312 344.3719Q348.76562 344.84064 348.67188 345.7L351.84375 345.7L351.84375 345.6219Q351.79688 344.79376 351.39062 344.34064Q351.0 343.8875 350.3125 343.8875ZM355.95312 345.41876L357.35938 343.10626L358.625 343.10626L356.54688 346.2469L358.6875 349.45L357.4375 349.45L355.96875 347.075L354.5 349.45L353.23438 349.45L355.375 346.2469L353.3125 343.10626L354.5625 343.10626L355.95312 345.41876Z" fill-rule="nonzero"/><path fill="#757575" d="M31.14375 30.89375Q31.14375 32.9875 30.440624 34.55Q29.7375 36.096874 28.440624 36.925Q27.159374 37.753124 25.440624 37.753124Q23.753124 37.753124 22.45625 36.925Q21.159374 36.096874 20.440624 34.565624Q19.721874 33.034374 19.70625 31.01875L19.70625 30.003124Q19.70625 27.95625 20.409374 26.378124Q21.128124 24.8 22.425 23.971874Q23.7375 23.128124 25.409374 23.128124Q27.128124 23.128124 28.425 23.95625Q29.7375 24.784374 30.440624 26.3625Q31.14375 27.925 31.14375 30.003124L31.14375 30.89375ZM29.26875 29.9875Q29.26875 27.45625 28.253124 26.1125Q27.2375 24.753124 25.409374 24.753124Q23.64375 24.753124 22.6125 26.1125Q21.596874 27.45625 21.565624 29.846874L21.565624 30.89375Q21.565624 33.346874 22.596874 34.753124Q23.628124 36.159374 25.440624 36.159374Q27.253124 36.159374 28.2375 34.83125Q29.2375 33.503124 29.26875 31.034374L29.26875 29.9875ZM36.08125 36.01875L42.83125 36.01875L42.83125 37.55L34.20625 37.55L34.20625 23.33125L36.08125 23.33125L36.08125 36.01875ZM55.01875 24.878124L50.45625 24.878124L50.45625 37.55L48.596874 37.55L48.596874 24.878124L44.034374 24.878124L44.034374 23.33125L55.01875 23.33125L55.01875 24.878124ZM59.08125 31.9875L59.08125 37.55L57.20625 37.55L57.20625 23.33125L62.440624 23.33125Q64.78438 23.33125 66.09688 24.51875Q67.425 25.70625 67.425 27.675Q67.425 29.753124 66.12813 30.878124Q64.83125 31.9875 62.425 31.9875L59.08125 31.9875ZM59.08125 30.45625L62.440624 30.45625Q63.95625 30.45625 64.75313 29.753124Q65.55 29.034374 65.55 27.690624Q65.55 26.425 64.75313 25.675Q63.95625 24.909374 62.55 24.878124L59.08125 24.878124L59.08125 30.45625ZM85.20625 23.33125L85.20625 33.003124Q85.20625 35.003124 83.94063 36.284374Q82.69063 37.565624 80.55 37.721874L80.05 37.753124Q77.70625 37.753124 76.31563 36.4875Q74.94063 35.221874 74.925 33.01875L74.925 23.33125L76.76875 23.33125L76.76875 32.95625Q76.76875 34.503124 77.6125 35.3625Q78.47188 36.20625 80.05 36.20625Q81.64375 36.20625 82.4875 35.3625Q83.33125 34.51875 83.33125 32.971874L83.33125 23.33125L85.20625 23.33125ZM96.84688 32.378124Q96.84688 34.8 95.7375 36.284374Q94.64375 37.753124 92.75313 37.753124Q90.83125 37.753124 89.72188 36.51875L89.72188 41.6125L87.925 41.6125L87.925 26.9875L89.56563 26.9875L89.65938 28.159374Q90.75313 26.784374 92.72188 26.784374Q94.62813 26.784374 95.7375 28.221874Q96.84688 29.659374 96.84688 32.221874L96.84688 32.378124ZM95.03438 32.175Q95.03438 30.39375 94.26875 29.3625Q93.51875 28.315624 92.19063 28.315624Q90.55 28.315624 89.72188 29.76875L89.72188 34.83125Q90.53438 36.26875 92.20625 36.26875Q93.50313 36.26875 94.26875 35.2375Q95.03438 34.20625 95.03438 32.175ZM98.47188 32.175Q98.47188 29.753124 99.62813 28.26875Q100.78438 26.784374 102.64375 26.784374Q104.50313 26.784374 105.58125 28.05L105.58125 22.55L107.39375 22.55L107.39375 37.55L105.7375 37.55L105.64375 36.409374Q104.56563 37.753124 102.62813 37.753124Q100.8 37.753124 99.62813 36.253124Q98.47188 34.7375 98.47188 32.315624L98.47188 32.175ZM100.28438 32.378124Q100.28438 34.175 101.01875 35.190624Q101.76875 36.20625 103.08125 36.20625Q104.8 36.20625 105.58125 34.675L105.58125 29.815624Q104.78438 28.315624 103.09688 28.315624Q101.76875 28.315624 101.01875 29.346874Q100.28438 30.378124 100.28438 32.378124ZM116.44063 37.55Q116.28438 37.2375 116.19063 36.440624Q114.925 37.753124 113.175 37.753124Q111.6125 37.753124 110.6125 36.8625Q109.6125 35.971874 109.6125 34.6125Q109.6125 32.971874 110.8625 32.065624Q112.12813 31.14375 114.39375 31.14375L116.15938 31.14375L116.15938 30.315624Q116.15938 29.3625 115.58125 28.8Q115.01875 28.2375 113.925 28.2375Q112.95625 28.2375 112.3 28.7375Q111.64375 29.221874 111.64375 29.909374L109.83125 29.909374Q109.83125 29.128124 110.39375 28.39375Q110.95625 27.64375 111.90938 27.221874Q112.87813 26.784374 114.03438 26.784374Q115.8625 26.784374 116.89375 27.70625Q117.925 28.6125 117.97188 30.221874L117.97188 35.08125Q117.97188 36.534374 118.33125 37.39375L118.33125 37.55L116.44063 37.55ZM113.44063 36.175Q114.3 36.175 115.05 35.7375Q115.81563 35.3 116.15938 34.596874L116.15938 32.425L114.7375 32.425Q111.425 32.425 111.425 34.3625Q111.425 35.221874 111.9875 35.70625Q112.55 36.175 113.44063 36.175ZM123.3625 24.425L123.3625 26.9875L125.34688 26.9875L125.34688 28.378124L123.3625 28.378124L123.3625 34.925Q123.3625 35.565624 123.62813 35.89375Q123.89375 36.20625 124.53438 36.20625Q124.84688 36.20625 125.39375 36.08125L125.39375 37.55Q124.675 37.753124 124.00313 37.753124Q122.8 37.753124 122.175 37.01875Q121.56563 36.284374 121.56563 34.925L121.56563 28.378124L119.64375 28.378124L119.64375 26.9875L121.56563 26.9875L121.56563 24.425L123.3625 24.425ZM132.3 37.753124Q130.15938 37.753124 128.8 36.346874Q127.45625 34.925 127.45625 32.565624L127.45625 32.221874Q127.45625 30.659374 128.05 29.425Q128.65938 28.190624 129.7375 27.4875Q130.81563 26.784374 132.08125 26.784374Q134.14375 26.784374 135.28438 28.14375Q136.425 29.503124 136.425 32.034374L136.425 32.784374L129.26875 32.784374Q129.3 34.346874 130.175 35.315624Q131.05 36.26875 132.39375 36.26875Q133.3625 36.26875 134.01875 35.878124Q134.69063 35.4875 135.19063 34.846874L136.28438 35.70625Q134.95625 37.753124 132.3 37.753124ZM132.08125 28.26875Q130.9875 28.26875 130.2375 29.065624Q129.50313 29.8625 129.33125 31.3L134.6125 31.3L134.6125 31.159374Q134.53438 29.784374 133.8625 29.034374Q133.20625 28.26875 132.08125 28.26875ZM146.20625 37.55L144.33125 37.55L144.33125 23.33125L146.20625 23.33125L146.20625 37.55ZM150.62813 26.9875L150.69063 28.315624Q151.89375 26.784374 153.84688 26.784374Q157.20625 26.784374 157.22188 30.565624L157.22188 37.55L155.425 37.55L155.425 30.55Q155.40938 29.409374 154.89375 28.8625Q154.39375 28.315624 153.3 28.315624Q152.425 28.315624 151.75313 28.784374Q151.09688 29.253124 150.72188 30.01875L150.72188 37.55L148.925 37.55L148.925 26.9875L150.62813 26.9875ZM159.47188 32.175Q159.47188 29.753124 160.62813 28.26875Q161.78438 26.784374 163.64375 26.784374Q165.50313 26.784374 166.58125 28.05L166.58125 22.55L168.39375 22.55L168.39375 37.55L166.7375 37.55L166.64375 36.409374Q165.56563 37.753124 163.62813 37.753124Q161.8 37.753124 160.62813 36.253124Q159.47188 34.7375 159.47188 32.315624L159.47188 32.175ZM161.28438 32.378124Q161.28438 34.175 162.01875 35.190624Q162.76875 36.20625 164.08125 36.20625Q165.8 36.20625 166.58125 34.675L166.58125 29.815624Q165.78438 28.315624 164.09688 28.315624Q162.76875 28.315624 162.01875 29.346874Q161.28438 30.378124 161.28438 32.378124ZM175.3 37.753124Q173.15938 37.753124 171.8 36.346874Q170.45625 34.925 170.45625 32.565624L170.45625 32.221874Q170.45625 30.659374 171.05 29.425Q171.65938 28.190624 172.7375 27.4875Q173.81563 26.784374 175.08125 26.784374Q177.14375 26.784374 178.28438 28.14375Q179.425 29.503124 179.425 32.034374L179.425 32.784374L172.26875 32.784374Q172.3 34.346874 173.175 35.315624Q174.05 36.26875 175.39375 36.26875Q176.3625 36.26875 177.01875 35.878124Q177.69063 35.4875 178.19063 34.846874L179.28438 35.70625Q177.95625 37.753124 175.3 37.753124ZM175.08125 28.26875Q173.9875 28.26875 173.2375 29.065624Q172.50313 29.8625 172.33125 31.3L177.6125 31.3L177.6125 31.159374Q177.53438 29.784374 176.8625 29.034374Q176.20625 28.26875 175.08125 28.26875ZM185.45625 30.846874L187.8 26.9875L189.90938 26.9875L186.45625 32.20625L190.01875 37.55L187.94063 37.55L185.4875 33.596874L183.05 37.55L180.95625 37.55L184.51875 32.20625L181.06563 26.9875L183.14375 26.9875L185.45625 30.846874ZM200.675 32.253124L195.90938 32.253124L195.90938 30.76875L200.675 30.76875L200.675 32.253124ZM219.06563 30.89375Q219.06563 32.95625 218.40938 34.45625Q217.75313 35.940624 216.56563 36.784374L219.1125 38.76875L217.83125 39.95625L214.83125 37.565624Q214.12813 37.753124 213.34688 37.753124Q211.675 37.753124 210.3625 36.925Q209.06563 36.096874 208.34688 34.565624Q207.62813 33.034374 207.6125 31.01875L207.6125 30.003124Q207.6125 27.95625 208.31563 26.378124Q209.03438 24.8 210.33125 23.971874Q211.64375 23.128124 213.33125 23.128124Q215.05 23.128124 216.34688 23.971874Q217.65938 24.8 218.3625 26.3625Q219.06563 27.909374 219.06563 29.9875L219.06563 30.89375ZM217.19063 29.9875Q217.19063 27.471874 216.19063 26.1125Q215.19063 24.753124 213.33125 24.753124Q211.56563 24.753124 210.53438 26.1125Q209.51875 27.45625 209.4875 29.846874L209.4875 30.89375Q209.4875 33.346874 210.50313 34.753124Q211.53438 36.159374 213.34688 36.159374Q215.15938 36.159374 216.15938 34.83125Q217.15938 33.503124 217.19063 31.034374L217.19063 29.9875ZM224.08125 31.9875L224.08125 37.55L222.20625 37.55L222.20625 23.33125L227.44063 23.33125Q229.78438 23.33125 231.09688 24.51875Q232.425 25.70625 232.425 27.675Q232.425 29.753124 231.12813 30.878124Q229.83125 31.9875 227.425 31.9875L224.08125 31.9875ZM224.08125 30.45625L227.44063 30.45625Q228.95625 30.45625 229.75313 29.753124Q230.55 29.034374 230.55 27.690624Q230.55 26.425 229.75313 25.675Q228.95625 24.909374 227.55 24.878124L224.08125 24.878124L224.08125 30.45625ZM239.39375 31.20625Q236.97188 30.51875 235.87813 29.51875Q234.78438 28.503124 234.78438 27.01875Q234.78438 25.33125 236.12813 24.2375Q237.47188 23.128124 239.6125 23.128124Q241.08125 23.128124 242.22188 23.70625Q243.37813 24.26875 244.00313 25.26875Q244.62813 26.253124 244.62813 27.440624L242.75313 27.440624Q242.75313 26.159374 241.925 25.425Q241.1125 24.675 239.6125 24.675Q238.22188 24.675 237.44063 25.284374Q236.675 25.89375 236.675 26.9875Q236.675 27.846874 237.40938 28.45625Q238.14375 29.05 239.90938 29.55Q241.69063 30.05 242.69063 30.659374Q243.69063 31.253124 244.175 32.05Q244.65938 32.846874 244.65938 33.940624Q244.65938 35.659374 243.31563 36.70625Q241.97188 37.753124 239.70625 37.753124Q238.25313 37.753124 236.97188 37.190624Q235.70625 36.628124 235.01875 35.659374Q234.33125 34.675 234.33125 33.425L236.22188 33.425Q236.22188 34.721874 237.175 35.471874Q238.12813 36.20625 239.70625 36.20625Q241.19063 36.20625 241.9875 35.6125Q242.78438 35.003124 242.78438 33.95625Q242.78438 32.909374 242.05 32.346874Q241.31563 31.76875 239.39375 31.20625Z" fill-rule="nonzero"/></svg>