<svg version="1.1" viewBox="0.0 0.0 600.0 371.0" fill="none" stroke="none" stroke-linecap="square" stroke-miterlimit="10" width="600" height="371" xmlns:xlink="http://www.w3.org/1999/xlink" xmlns="http://www.w3.org/2000/svg"><path fill="#ffffff" d="M0 0L600.0 0L600.0 371.0L0 371.0L0 0Z" fill-rule="nonzero"/><path stroke="#333333" stroke-width="1.0" stroke-linecap="butt" d="M62.5 304.5L581.5 304.5" fill-rule="nonzero"/><path stroke="#cccccc" stroke-width="1.0" stroke-linecap="butt" d="M62.5 223.5L581.5 223.5" fill-rule="nonzero"/><path stroke="#cccccc" stroke-width="1.0" stroke-linecap="butt" d="M62.5 142.5L581.5 142.5" fill-rule="nonzero"/><path stroke="#cccccc" stroke-width="1.0" stroke-linecap="butt" d="M62.5 62.5L581.5 62.5" fill-rule="nonzero"/><clipPath id="id_0"><path d="M62.55 62.416668L581.45 62.416668L581.45 304.08334L62.55 304.08334L62.55 62.416668Z" clip-rule="nonzero"/></clipPath><path stroke="#4285f4" stroke-width="2.0" stroke-linecap="butt" clip-path="url(#id_0)" d="M105.791664 265.49722L192.275 215.74611L278.75833 205.67667L365.24167 198.31389L451.725 215.74611L538.2083 101.85667" fill-rule="nonzero"/><path fill="#000000" fill-opacity="0.0" clip-path="url(#id_0)" d="M108.791664 265.49722C108.791664 267.15408 107.448524 268.49722 105.791664 268.49722C104.13481 268.49722 102.791664 267.15408 102.791664 265.49722C102.791664 263.84036 104.13481 262.49722 105.791664 262.49722C107.448524 262.49722 108.791664 263.84036 108.791664 265.49722Z" fill-rule="nonzero"/><path fill="#000000" fill-opacity="0.0" clip-path="url(#id_0)" d="M195.275 215.74611C195.275 217.40297 193.93185 218.74611 192.275 218.74611C190.61815 218.74611 189.275 217.40297 189.275 215.74611C189.275 214.08926 190.61815 212.74611 192.275 212.74611C193.93185 212.74611 195.275 214.08926 195.275 215.74611Z" fill-rule="nonzero"/><path fill="#000000" fill-opacity="0.0" clip-path="url(#id_0)" d="M281.75833 205.67667C281.75833 207.33353 280.4152 208.67667 278.75833 208.67667C277.10147 208.67667 275.75833 207.33353 275.75833 205.67667C275.75833 204.0198 277.10147 202.67667 278.75833 202.67667C280.4152 202.67667 281.75833 204.0198 281.75833 205.67667Z" fill-rule="nonzero"/><path fill="#000000" fill-opacity="0.0" clip-path="url(#id_0)" d="M368.24167 198.31389C368.24167 199.97075 366.89853 201.31389 365.24167 201.31389C363.5848 201.31389 362.24167 199.97075 362.24167 198.31389C362.24167 196.65703 363.5848 195.31389 365.24167 195.31389C366.89853 195.31389 368.24167 196.65703 368.24167 198.31389Z" fill-rule="nonzero"/><path fill="#000000" fill-opacity="0.0" clip-path="url(#id_0)" d="M454.725 215.74611C454.725 217.40297 453.38187 218.74611 451.725 218.74611C450.06815 218.74611 448.725 217.40297 448.725 215.74611C448.725 214.08926 450.06815 212.74611 451.725 212.74611C453.38187 212.74611 454.725 214.08926 454.725 215.74611Z" fill-rule="nonzero"/><path fill="#000000" fill-opacity="0.0" clip-path="url(#id_0)" d="M541.2083 101.85667C541.2083 103.51352 539.8652 104.85667 538.2083 104.85667C536.55145 104.85667 535.2083 103.51352 535.2083 101.85667C535.2083 100.199814 536.55145 98.85667 538.2083 98.85667C539.8652 98.85667 541.2083 100.199814 541.2083 101.85667Z" fill-rule="nonzero"/><path fill="#757575" d="M38.6125 304.94272Q38.6125 306.84897 37.95625 307.78647Q37.315624 308.70834 35.925 308.70834Q34.565624 308.70834 33.909374 307.8021Q33.253124 306.89584 33.221874 305.08334L33.221874 303.64584Q33.221874 301.75522 33.8625 300.84897Q34.51875 299.9271 35.909374 299.9271Q37.284374 299.9271 37.940624 300.81772Q38.596874 301.69272 38.6125 303.53647L38.6125 304.94272ZM37.51875 303.45834Q37.51875 302.08334 37.128124 301.45834Q36.753124 300.81772 35.909374 300.81772Q35.08125 300.81772 34.690624 301.45834Q34.315624 302.08334 34.315624 303.38022L34.315624 305.1146Q34.315624 306.4896 34.70625 307.16147Q35.1125 307.81772 35.925 307.81772Q36.721874 307.81772 37.1125 307.19272Q37.503124 306.56772 37.51875 305.2396L37.51875 303.45834ZM40.39375 308.02084Q40.39375 307.7396 40.55 307.5521Q40.721874 307.3646 41.05 307.3646Q41.39375 307.3646 41.565624 307.5521Q41.7375 307.7396 41.7375 308.02084Q41.7375 308.28647 41.565624 308.47397Q41.39375 308.64584 41.05 308.64584Q40.721874 308.64584 40.55 308.47397Q40.39375 308.28647 40.39375 308.02084ZM48.6125 304.94272Q48.6125 306.84897 47.95625 307.78647Q47.315624 308.70834 45.925 308.70834Q44.565624 308.70834 43.909374 307.8021Q43.253124 306.89584 43.221874 305.08334L43.221874 303.64584Q43.221874 301.75522 43.8625 300.84897Q44.51875 299.9271 45.909374 299.9271Q47.284374 299.9271 47.940624 300.81772Q48.596874 301.69272 48.6125 303.53647L48.6125 304.94272ZM47.51875 303.45834Q47.51875 302.08334 47.128124 301.45834Q46.753124 300.81772 45.909374 300.81772Q45.08125 300.81772 44.690624 301.45834Q44.315624 302.08334 44.315624 303.38022L44.315624 305.1146Q44.315624 306.4896 44.70625 307.16147Q45.1125 307.81772 45.925 307.81772Q46.721874 307.81772 47.1125 307.19272Q47.503124 306.56772 47.51875 305.2396L47.51875 303.45834ZM55.6125 304.94272Q55.6125 306.84897 54.95625 307.78647Q54.315624 308.70834 52.925 308.70834Q51.565624 308.70834 50.909374 307.8021Q50.253124 306.89584 50.221874 305.08334L50.221874 303.64584Q50.221874 301.75522 50.8625 300.84897Q51.51875 299.9271 52.909374 299.9271Q54.284374 299.9271 54.940624 300.81772Q55.596874 301.69272 55.6125 303.53647L55.6125 304.94272ZM54.51875 303.45834Q54.51875 302.08334 54.128124 301.45834Q53.753124 300.81772 52.909374 300.81772Q52.08125 300.81772 51.690624 301.45834Q51.315624 302.08334 51.315624 303.38022L51.315624 305.1146Q51.315624 306.4896 51.70625 307.16147Q52.1125 307.81772 52.925 307.81772Q53.721874 307.81772 54.1125 307.19272Q54.503124 306.56772 54.51875 305.2396L54.51875 303.45834Z" fill-rule="nonzero"/><path fill="#757575" d="M26.753124 223.74652L27.190624 219.49652L31.565624 219.49652L31.565624 220.49652L28.1125 220.49652L27.846874 222.82465Q28.4875 222.44965 29.284374 222.44965Q30.440624 222.44965 31.128124 223.2309Q31.815624 223.99652 31.815624 225.30902Q31.815624 226.62152 31.096874 227.38715Q30.39375 228.15277 29.1125 228.15277Q27.9875 228.15277 27.26875 227.52777Q26.55 226.88715 26.45625 225.77777L27.471874 225.77777Q27.58125 226.51215 28.003124 226.88715Q28.425 227.26215 29.1125 227.26215Q29.8625 227.26215 30.3 226.74652Q30.7375 226.2309 30.7375 225.32465Q30.7375 224.46527 30.26875 223.94965Q29.8 223.43402 29.01875 223.43402Q28.315624 223.43402 27.909374 223.7309L27.628124 223.96527L26.753124 223.74652ZM38.6125 224.38715Q38.6125 226.2934 37.95625 227.2309Q37.315624 228.15277 35.925 228.15277Q34.565624 228.15277 33.909374 227.24652Q33.253124 226.34027 33.221874 224.52777L33.221874 223.09027Q33.221874 221.19965 33.8625 220.2934Q34.51875 219.37152 35.909374 219.37152Q37.284374 219.37152 37.940624 220.26215Q38.596874 221.13715 38.6125 222.9809L38.6125 224.38715ZM37.51875 222.90277Q37.51875 221.52777 37.128124 220.90277Q36.753124 220.26215 35.909374 220.26215Q35.08125 220.26215 34.690624 220.90277Q34.315624 221.52777 34.315624 222.82465L34.315624 224.55902Q34.315624 225.93402 34.70625 226.6059Q35.1125 227.26215 35.925 227.26215Q36.721874 227.26215 37.1125 226.63715Q37.503124 226.01215 37.51875 224.68402L37.51875 222.90277ZM40.39375 227.46527Q40.39375 227.18402 40.55 226.99652Q40.721874 226.80902 41.05 226.80902Q41.39375 226.80902 41.565624 226.99652Q41.7375 227.18402 41.7375 227.46527Q41.7375 227.7309 41.565624 227.9184Q41.39375 228.09027 41.05 228.09027Q40.721874 228.09027 40.55 227.9184Q40.39375 227.7309 40.39375 227.46527ZM48.6125 224.38715Q48.6125 226.2934 47.95625 227.2309Q47.315624 228.15277 45.925 228.15277Q44.565624 228.15277 43.909374 227.24652Q43.253124 226.34027 43.221874 224.52777L43.221874 223.09027Q43.221874 221.19965 43.8625 220.2934Q44.51875 219.37152 45.909374 219.37152Q47.284374 219.37152 47.940624 220.26215Q48.596874 221.13715 48.6125 222.9809L48.6125 224.38715ZM47.51875 222.90277Q47.51875 221.52777 47.128124 220.90277Q46.753124 220.26215 45.909374 220.26215Q45.08125 220.26215 44.690624 220.90277Q44.315624 221.52777 44.315624 222.82465L44.315624 224.55902Q44.315624 225.93402 44.70625 226.6059Q45.1125 227.26215 45.925 227.26215Q46.721874 227.26215 47.1125 226.63715Q47.503124 226.01215 47.51875 224.68402L47.51875 222.90277ZM55.6125 224.38715Q55.6125 226.2934 54.95625 227.2309Q54.315624 228.15277 52.925 228.15277Q51.565624 228.15277 50.909374 227.24652Q50.253124 226.34027 50.221874 224.52777L50.221874 223.09027Q50.221874 221.19965 50.8625 220.2934Q51.51875 219.37152 52.909374 219.37152Q54.284374 219.37152 54.940624 220.26215Q55.596874 221.13715 55.6125 222.9809L55.6125 224.38715ZM54.51875 222.90277Q54.51875 221.52777 54.128124 220.90277Q53.753124 220.26215 52.909374 220.26215Q52.08125 220.26215 51.690624 220.90277Q51.315624 221.52777 51.315624 222.82465L51.315624 224.55902Q51.315624 225.93402 51.70625 226.6059Q52.1125 227.26215 52.925 227.26215Q53.721874 227.26215 54.1125 226.63715Q54.503124 226.01215 54.51875 224.68402L54.51875 222.90277Z" fill-rule="nonzero"/><path fill="#757575" d="M22.815624 147.47223L21.7375 147.47223L21.7375 140.25348L19.55 141.05035L19.55 140.06598L22.659374 138.8941L22.815624 138.8941L22.815624 147.47223ZM31.6125 143.8316Q31.6125 145.73785 30.95625 146.67535Q30.315624 147.59723 28.925 147.59723Q27.565624 147.59723 26.909374 146.69098Q26.253124 145.78473 26.221874 143.97223L26.221874 142.53473Q26.221874 140.6441 26.8625 139.73785Q27.51875 138.81598 28.909374 138.81598Q30.284374 138.81598 30.940624 139.7066Q31.596874 140.5816 31.6125 142.42535L31.6125 143.8316ZM30.51875 142.34723Q30.51875 140.97223 30.128124 140.34723Q29.753124 139.7066 28.909374 139.7066Q28.08125 139.7066 27.690624 140.34723Q27.315624 140.97223 27.315624 142.2691L27.315624 144.00348Q27.315624 145.37848 27.70625 146.05035Q28.1125 146.7066 28.925 146.7066Q29.721874 146.7066 30.1125 146.0816Q30.503124 145.4566 30.51875 144.12848L30.51875 142.34723ZM38.6125 143.8316Q38.6125 145.73785 37.95625 146.67535Q37.315624 147.59723 35.925 147.59723Q34.565624 147.59723 33.909374 146.69098Q33.253124 145.78473 33.221874 143.97223L33.221874 142.53473Q33.221874 140.6441 33.8625 139.73785Q34.51875 138.81598 35.909374 138.81598Q37.284374 138.81598 37.940624 139.7066Q38.596874 140.5816 38.6125 142.42535L38.6125 143.8316ZM37.51875 142.34723Q37.51875 140.97223 37.128124 140.34723Q36.753124 139.7066 35.909374 139.7066Q35.08125 139.7066 34.690624 140.34723Q34.315624 140.97223 34.315624 142.2691L34.315624 144.00348Q34.315624 145.37848 34.70625 146.05035Q35.1125 146.7066 35.925 146.7066Q36.721874 146.7066 37.1125 146.0816Q37.503124 145.4566 37.51875 144.12848L37.51875 142.34723ZM40.39375 146.90973Q40.39375 146.62848 40.55 146.44098Q40.721874 146.25348 41.05 146.25348Q41.39375 146.25348 41.565624 146.44098Q41.7375 146.62848 41.7375 146.90973Q41.7375 147.17535 41.565624 147.36285Q41.39375 147.53473 41.05 147.53473Q40.721874 147.53473 40.55 147.36285Q40.39375 147.17535 40.39375 146.90973ZM48.6125 143.8316Q48.6125 145.73785 47.95625 146.67535Q47.315624 147.59723 45.925 147.59723Q44.565624 147.59723 43.909374 146.69098Q43.253124 145.78473 43.221874 143.97223L43.221874 142.53473Q43.221874 140.6441 43.8625 139.73785Q44.51875 138.81598 45.909374 138.81598Q47.284374 138.81598 47.940624 139.7066Q48.596874 140.5816 48.6125 142.42535L48.6125 143.8316ZM47.51875 142.34723Q47.51875 140.97223 47.128124 140.34723Q46.753124 139.7066 45.909374 139.7066Q45.08125 139.7066 44.690624 140.34723Q44.315624 140.97223 44.315624 142.2691L44.315624 144.00348Q44.315624 145.37848 44.70625 146.05035Q45.1125 146.7066 45.925 146.7066Q46.721874 146.7066 47.1125 146.0816Q47.503124 145.4566 47.51875 144.12848L47.51875 142.34723ZM55.6125 143.8316Q55.6125 145.73785 54.95625 146.67535Q54.315624 147.59723 52.925 147.59723Q51.565624 147.59723 50.909374 146.69098Q50.253124 145.78473 50.221874 143.97223L50.221874 142.53473Q50.221874 140.6441 50.8625 139.73785Q51.51875 138.81598 52.909374 138.81598Q54.284374 138.81598 54.940624 139.7066Q55.596874 140.5816 55.6125 142.42535L55.6125 143.8316ZM54.51875 142.34723Q54.51875 140.97223 54.128124 140.34723Q53.753124 139.7066 52.909374 139.7066Q52.08125 139.7066 51.690624 140.34723Q51.315624 140.97223 51.315624 142.2691L51.315624 144.00348Q51.315624 145.37848 51.70625 146.05035Q52.1125 146.7066 52.925 146.7066Q53.721874 146.7066 54.1125 146.0816Q54.503124 145.4566 54.51875 144.12848L54.51875 142.34723Z" fill-rule="nonzero"/><path fill="#757575" d="M22.815624 66.916664L21.7375 66.916664L21.7375 59.697914L19.55 60.49479L19.55 59.510414L22.659374 58.33854L22.815624 58.33854L22.815624 66.916664ZM26.753124 62.635414L27.190624 58.385414L31.565624 58.385414L31.565624 59.385414L28.1125 59.385414L27.846874 61.71354Q28.4875 61.33854 29.284374 61.33854Q30.440624 61.33854 31.128124 62.11979Q31.815624 62.885414 31.815624 64.197914Q31.815624 65.510414 31.096874 66.27604Q30.39375 67.041664 29.1125 67.041664Q27.9875 67.041664 27.26875 66.416664Q26.55 65.77604 26.45625 64.666664L27.471874 64.666664Q27.58125 65.40104 28.003124 65.77604Q28.425 66.15104 29.1125 66.15104Q29.8625 66.15104 30.3 65.635414Q30.7375 65.11979 30.7375 64.21354Q30.7375 63.354164 30.26875 62.83854Q29.8 62.322914 29.01875 62.322914Q28.315624 62.322914 27.909374 62.61979L27.628124 62.854164L26.753124 62.635414ZM38.6125 63.27604Q38.6125 65.18229 37.95625 66.11979Q37.315624 67.041664 35.925 67.041664Q34.565624 67.041664 33.909374 66.135414Q33.253124 65.229164 33.221874 63.416664L33.221874 61.979164Q33.221874 60.08854 33.8625 59.18229Q34.51875 58.260414 35.909374 58.260414Q37.284374 58.260414 37.940624 59.15104Q38.596874 60.02604 38.6125 61.86979L38.6125 63.27604ZM37.51875 61.791664Q37.51875 60.416664 37.128124 59.791664Q36.753124 59.15104 35.909374 59.15104Q35.08125 59.15104 34.690624 59.791664Q34.315624 60.416664 34.315624 61.71354L34.315624 63.447914Q34.315624 64.822914 34.70625 65.49479Q35.1125 66.15104 35.925 66.15104Q36.721874 66.15104 37.1125 65.52604Q37.503124 64.90104 37.51875 63.572914L37.51875 61.791664ZM40.39375 66.354164Q40.39375 66.072914 40.55 65.885414Q40.721874 65.697914 41.05 65.697914Q41.39375 65.697914 41.565624 65.885414Q41.7375 66.072914 41.7375 66.354164Q41.7375 66.61979 41.565624 66.80729Q41.39375 66.979164 41.05 66.979164Q40.721874 66.979164 40.55 66.80729Q40.39375 66.61979 40.39375 66.354164ZM48.6125 63.27604Q48.6125 65.18229 47.95625 66.11979Q47.315624 67.041664 45.925 67.041664Q44.565624 67.041664 43.909374 66.135414Q43.253124 65.229164 43.221874 63.416664L43.221874 61.979164Q43.221874 60.08854 43.8625 59.18229Q44.51875 58.260414 45.909374 58.260414Q47.284374 58.260414 47.940624 59.15104Q48.596874 60.02604 48.6125 61.86979L48.6125 63.27604ZM47.51875 61.791664Q47.51875 60.416664 47.128124 59.791664Q46.753124 59.15104 45.909374 59.15104Q45.08125 59.15104 44.690624 59.791664Q44.315624 60.416664 44.315624 61.71354L44.315624 63.447914Q44.315624 64.822914 44.70625 65.49479Q45.1125 66.15104 45.925 66.15104Q46.721874 66.15104 47.1125 65.52604Q47.503124 64.90104 47.51875 63.572914L47.51875 61.791664ZM55.6125 63.27604Q55.6125 65.18229 54.95625 66.11979Q54.315624 67.041664 52.925 67.041664Q51.565624 67.041664 50.909374 66.135414Q50.253124 65.229164 50.221874 63.416664L50.221874 61.979164Q50.221874 60.08854 50.8625 59.18229Q51.51875 58.260414 52.909374 58.260414Q54.284374 58.260414 54.940624 59.15104Q55.596874 60.02604 55.6125 61.86979L55.6125 63.27604ZM54.51875 61.791664Q54.51875 60.416664 54.128124 59.791664Q53.753124 59.15104 52.909374 59.15104Q52.08125 59.15104 51.690624 59.791664Q51.315624 60.416664 51.315624 61.71354L51.315624 63.447914Q51.315624 64.822914 51.70625 65.49479Q52.1125 66.15104 52.925 66.15104Q53.721874 66.15104 54.1125 65.52604Q54.503124 64.90104 54.51875 63.572914L54.51875 61.791664Z" fill-rule="nonzero"/><path fill="#757575" d="M99.55729 322.08334L98.479164 322.08334L98.479164 314.8646L96.291664 315.66147L96.291664 314.6771L99.40104 313.50522L99.55729 313.50522L99.55729 322.08334ZM103.49479 317.8021L103.93229 313.5521L108.30729 313.5521L108.30729 314.5521L104.854164 314.5521L104.58854 316.88022Q105.229164 316.50522 106.02604 316.50522Q107.18229 316.50522 107.86979 317.28647Q108.55729 318.0521 108.55729 319.3646Q108.55729 320.6771 107.83854 321.44272Q107.135414 322.20834 105.854164 322.20834Q104.729164 322.20834 104.010414 321.58334Q103.291664 320.94272 103.197914 319.83334L104.21354 319.83334Q104.322914 320.56772 104.74479 320.94272Q105.166664 321.31772 105.854164 321.31772Q106.604164 321.31772 107.041664 320.8021Q107.479164 320.28647 107.479164 319.38022Q107.479164 318.52084 107.010414 318.00522Q106.541664 317.4896 105.760414 317.4896Q105.05729 317.4896 104.65104 317.78647L104.36979 318.02084L103.49479 317.8021ZM115.354164 318.44272Q115.354164 320.34897 114.697914 321.28647Q114.05729 322.20834 112.666664 322.20834Q111.30729 322.20834 110.65104 321.3021Q109.99479 320.39584 109.96354 318.58334L109.96354 317.14584Q109.96354 315.25522 110.604164 314.34897Q111.260414 313.4271 112.65104 313.4271Q114.02604 313.4271 114.68229 314.31772Q115.33854 315.19272 115.354164 317.03647L115.354164 318.44272ZM114.260414 316.95834Q114.260414 315.58334 113.86979 314.95834Q113.49479 314.31772 112.65104 314.31772Q111.822914 314.31772 111.43229 314.95834Q111.05729 315.58334 111.05729 316.88022L111.05729 318.6146Q111.05729 319.9896 111.447914 320.66147Q111.854164 321.31772 112.666664 321.31772Q113.46354 321.31772 113.854164 320.69272Q114.24479 320.06772 114.260414 318.7396L114.260414 316.95834Z" fill-rule="nonzero"/><path fill="#757575" d="M184.05624 317.28647L184.86874 317.28647Q185.65 317.27084 186.0875 316.88022Q186.525 316.4896 186.525 315.81772Q186.525 314.31772 185.025 314.31772Q184.32187 314.31772 183.9 314.72397Q183.49374 315.13022 183.49374 315.78647L182.4 315.78647Q182.4 314.77084 183.13437 314.09897Q183.88437 313.4271 185.025 313.4271Q186.22812 313.4271 186.91562 314.06772Q187.60312 314.70834 187.60312 315.84897Q187.60312 316.41147 187.24374 316.9271Q186.88437 317.44272 186.25937 317.70834Q186.9625 317.9271 187.3375 318.44272Q187.72812 318.95834 187.72812 319.70834Q187.72812 320.84897 186.97812 321.53647Q186.22812 322.20834 185.025 322.20834Q183.8375 322.20834 183.07187 321.5521Q182.32187 320.89584 182.32187 319.83334L183.41562 319.83334Q183.41562 320.50522 183.85312 320.91147Q184.29062 321.31772 185.04062 321.31772Q185.82187 321.31772 186.22812 320.91147Q186.65 320.4896 186.65 319.72397Q186.65 318.9896 186.19687 318.59897Q185.74374 318.19272 184.86874 318.1771L184.05624 318.1771L184.05624 317.28647ZM194.8375 318.44272Q194.8375 320.34897 194.18124 321.28647Q193.54062 322.20834 192.15 322.20834Q190.79062 322.20834 190.13437 321.3021Q189.47812 320.39584 189.44687 318.58334L189.44687 317.14584Q189.44687 315.25522 190.0875 314.34897Q190.74374 313.4271 192.13437 313.4271Q193.50937 313.4271 194.16562 314.31772Q194.82187 315.19272 194.8375 317.03647L194.8375 318.44272ZM193.74374 316.95834Q193.74374 315.58334 193.35312 314.95834Q192.97812 314.31772 192.13437 314.31772Q191.30624 314.31772 190.91562 314.95834Q190.54062 315.58334 190.54062 316.88022L190.54062 318.6146Q190.54062 319.9896 190.93124 320.66147Q191.3375 321.31772 192.15 321.31772Q192.94687 321.31772 193.3375 320.69272Q193.72812 320.06772 193.74374 318.7396L193.74374 316.95834ZM201.8375 318.44272Q201.8375 320.34897 201.18124 321.28647Q200.54062 322.20834 199.15 322.20834Q197.79062 322.20834 197.13437 321.3021Q196.47812 320.39584 196.44687 318.58334L196.44687 317.14584Q196.44687 315.25522 197.0875 314.34897Q197.74374 313.4271 199.13437 313.4271Q200.50937 313.4271 201.16562 314.31772Q201.82187 315.19272 201.8375 317.03647L201.8375 318.44272ZM200.74374 316.95834Q200.74374 315.58334 200.35312 314.95834Q199.97812 314.31772 199.13437 314.31772Q198.30624 314.31772 197.91562 314.95834Q197.54062 315.58334 197.54062 316.88022L197.54062 318.6146Q197.54062 319.9896 197.93124 320.66147Q198.3375 321.31772 199.15 321.31772Q199.94687 321.31772 200.3375 320.69272Q200.72812 320.06772 200.74374 318.7396L200.74374 316.95834Z" fill-rule="nonzero"/><path fill="#757575" d="M273.22708 313.5521L273.22708 314.45834L273.02396 314.45834Q271.75833 314.4896 271.00833 315.22397Q270.25833 315.94272 270.13333 317.25522Q270.82083 316.4896 271.97708 316.4896Q273.08646 316.4896 273.75833 317.27084Q274.4302 318.0521 274.4302 319.3021Q274.4302 320.6146 273.71146 321.41147Q272.9927 322.20834 271.77396 322.20834Q270.5552 322.20834 269.78958 321.27084Q269.03958 320.31772 269.03958 318.83334L269.03958 318.4271Q269.03958 316.06772 270.03958 314.81772Q271.03958 313.56772 273.02396 313.5521L273.22708 313.5521ZM271.8052 317.39584Q271.2427 317.39584 270.77396 317.72397Q270.3052 318.0521 270.1177 318.56772L270.1177 318.95834Q270.1177 320.02084 270.58646 320.66147Q271.07083 321.3021 271.77396 321.3021Q272.50833 321.3021 272.9302 320.77084Q273.35208 320.22397 273.35208 319.34897Q273.35208 318.47397 272.9302 317.94272Q272.50833 317.39584 271.8052 317.39584ZM281.32083 318.44272Q281.32083 320.34897 280.66458 321.28647Q280.02396 322.20834 278.63333 322.20834Q277.27396 322.20834 276.6177 321.3021Q275.96146 320.39584 275.9302 318.58334L275.9302 317.14584Q275.9302 315.25522 276.57083 314.34897Q277.22708 313.4271 278.6177 313.4271Q279.9927 313.4271 280.64896 314.31772Q281.3052 315.19272 281.32083 317.03647L281.32083 318.44272ZM280.22708 316.95834Q280.22708 315.58334 279.83646 314.95834Q279.46146 314.31772 278.6177 314.31772Q277.78958 314.31772 277.39896 314.95834Q277.02396 315.58334 277.02396 316.88022L277.02396 318.6146Q277.02396 319.9896 277.41458 320.66147Q277.82083 321.31772 278.63333 321.31772Q279.4302 321.31772 279.82083 320.69272Q280.21146 320.06772 280.22708 318.7396L280.22708 316.95834ZM288.32083 318.44272Q288.32083 320.34897 287.66458 321.28647Q287.02396 322.20834 285.63333 322.20834Q284.27396 322.20834 283.6177 321.3021Q282.96146 320.39584 282.9302 318.58334L282.9302 317.14584Q282.9302 315.25522 283.57083 314.34897Q284.22708 313.4271 285.6177 313.4271Q286.9927 313.4271 287.64896 314.31772Q288.3052 315.19272 288.32083 317.03647L288.32083 318.44272ZM287.22708 316.95834Q287.22708 315.58334 286.83646 314.95834Q286.46146 314.31772 285.6177 314.31772Q284.78958 314.31772 284.39896 314.95834Q284.02396 315.58334 284.02396 316.88022L284.02396 318.6146Q284.02396 319.9896 284.41458 320.66147Q284.82083 321.31772 285.63333 321.31772Q286.4302 321.31772 286.82083 320.69272Q287.21146 320.06772 287.22708 318.7396L287.22708 316.95834Z" fill-rule="nonzero"/><path fill="#757575" d="M359.60104 318.33334Q359.27292 318.7396 358.78854 318.9896Q358.3198 319.22397 357.7573 319.22397Q357.02292 319.22397 356.47604 318.8646Q355.92917 318.50522 355.6323 317.84897Q355.33542 317.1771 355.33542 316.38022Q355.33542 315.53647 355.64792 314.84897Q355.97604 314.16147 356.5698 313.8021Q357.17917 313.4271 357.97604 313.4271Q359.24167 313.4271 359.96042 314.38022Q360.6948 315.33334 360.6948 316.95834L360.6948 317.27084Q360.6948 319.77084 359.71042 320.91147Q358.72604 322.0521 356.74167 322.08334L356.52292 322.08334L356.52292 321.1771L356.7573 321.1771Q358.10104 321.14584 358.8198 320.47397Q359.53854 319.8021 359.60104 318.33334ZM357.92917 318.33334Q358.47604 318.33334 358.92917 318.00522Q359.39792 317.66147 359.61667 317.1771L359.61667 316.7396Q359.61667 315.6771 359.14792 315.00522Q358.67917 314.33334 357.97604 314.33334Q357.2573 314.33334 356.8198 314.88022Q356.39792 315.4271 356.39792 316.33334Q356.39792 317.20834 356.80417 317.77084Q357.22604 318.33334 357.92917 318.33334ZM367.80417 318.44272Q367.80417 320.34897 367.14792 321.28647Q366.5073 322.20834 365.11667 322.20834Q363.7573 322.20834 363.10104 321.3021Q362.4448 320.39584 362.41354 318.58334L362.41354 317.14584Q362.41354 315.25522 363.05417 314.34897Q363.71042 313.4271 365.10104 313.4271Q366.47604 313.4271 367.1323 314.31772Q367.78854 315.19272 367.80417 317.03647L367.80417 318.44272ZM366.71042 316.95834Q366.71042 315.58334 366.3198 314.95834Q365.9448 314.31772 365.10104 314.31772Q364.27292 314.31772 363.8823 314.95834Q363.5073 315.58334 363.5073 316.88022L363.5073 318.6146Q363.5073 319.9896 363.89792 320.66147Q364.30417 321.31772 365.11667 321.31772Q365.91354 321.31772 366.30417 320.69272Q366.6948 320.06772 366.71042 318.7396L366.71042 316.95834ZM374.80417 318.44272Q374.80417 320.34897 374.14792 321.28647Q373.5073 322.20834 372.11667 322.20834Q370.7573 322.20834 370.10104 321.3021Q369.4448 320.39584 369.41354 318.58334L369.41354 317.14584Q369.41354 315.25522 370.05417 314.34897Q370.71042 313.4271 372.10104 313.4271Q373.47604 313.4271 374.1323 314.31772Q374.78854 315.19272 374.80417 317.03647L374.80417 318.44272ZM373.71042 316.95834Q373.71042 315.58334 373.3198 314.95834Q372.9448 314.31772 372.10104 314.31772Q371.27292 314.31772 370.8823 314.95834Q370.5073 315.58334 370.5073 316.88022L370.5073 318.6146Q370.5073 319.9896 370.89792 320.66147Q371.30417 321.31772 372.11667 321.31772Q372.91354 321.31772 373.30417 320.69272Q373.6948 320.06772 373.71042 318.7396L373.71042 316.95834Z" fill-rule="nonzero"/><path fill="#757575" d="M441.99063 322.08334L440.9125 322.08334L440.9125 314.8646L438.725 315.66147L438.725 314.6771L441.83438 313.50522L441.99063 313.50522L441.99063 322.08334ZM451.02188 322.08334L445.42813 322.08334L445.42813 321.3021L448.38126 318.02084Q449.0375 317.27084 449.2875 316.81772Q449.5375 316.34897 449.5375 315.84897Q449.5375 315.1771 449.13126 314.75522Q448.74063 314.31772 448.05313 314.31772Q447.25626 314.31772 446.80313 314.78647Q446.35 315.2396 446.35 316.06772L445.27188 316.06772Q445.27188 314.88022 446.02188 314.16147Q446.7875 313.4271 448.05313 313.4271Q449.25626 313.4271 449.94376 314.0521Q450.63126 314.6771 450.63126 315.72397Q450.63126 316.97397 449.02188 318.72397L446.74063 321.19272L451.02188 321.19272L451.02188 322.08334ZM457.7875 318.44272Q457.7875 320.34897 457.13126 321.28647Q456.49063 322.20834 455.1 322.20834Q453.74063 322.20834 453.08438 321.3021Q452.42813 320.39584 452.39688 318.58334L452.39688 317.14584Q452.39688 315.25522 453.0375 314.34897Q453.69376 313.4271 455.08438 313.4271Q456.45938 313.4271 457.11563 314.31772Q457.77188 315.19272 457.7875 317.03647L457.7875 318.44272ZM456.69376 316.95834Q456.69376 315.58334 456.30313 314.95834Q455.92813 314.31772 455.08438 314.31772Q454.25626 314.31772 453.86563 314.95834Q453.49063 315.58334 453.49063 316.88022L453.49063 318.6146Q453.49063 319.9896 453.88126 320.66147Q454.2875 321.31772 455.1 321.31772Q455.89688 321.31772 456.2875 320.69272Q456.67813 320.06772 456.69376 318.7396L456.69376 316.95834ZM464.7875 318.44272Q464.7875 320.34897 464.13126 321.28647Q463.49063 322.20834 462.1 322.20834Q460.74063 322.20834 460.08438 321.3021Q459.42813 320.39584 459.39688 318.58334L459.39688 317.14584Q459.39688 315.25522 460.0375 314.34897Q460.69376 313.4271 462.08438 313.4271Q463.45938 313.4271 464.11563 314.31772Q464.77188 315.19272 464.7875 317.03647L464.7875 318.44272ZM463.69376 316.95834Q463.69376 315.58334 463.30313 314.95834Q462.92813 314.31772 462.08438 314.31772Q461.25626 314.31772 460.86563 314.95834Q460.49063 315.58334 460.49063 316.88022L460.49063 318.6146Q460.49063 319.9896 460.88126 320.66147Q461.2875 321.31772 462.1 321.31772Q462.89688 321.31772 463.2875 320.69272Q463.67813 320.06772 463.69376 318.7396L463.69376 316.95834Z" fill-rule="nonzero"/><path fill="#757575" d="M528.47394 322.08334L527.3958 322.08334L527.3958 314.8646L525.2083 315.66147L525.2083 314.6771L528.3177 313.50522L528.47394 313.50522L528.47394 322.08334ZM532.41144 317.8021L532.84894 313.5521L537.22394 313.5521L537.22394 314.5521L533.7708 314.5521L533.5052 316.88022Q534.1458 316.50522 534.9427 316.50522Q536.09894 316.50522 536.78644 317.28647Q537.47394 318.0521 537.47394 319.3646Q537.47394 320.6771 536.7552 321.44272Q536.05206 322.20834 534.7708 322.20834Q533.6458 322.20834 532.92706 321.58334Q532.2083 320.94272 532.11456 319.83334L533.1302 319.83334Q533.23956 320.56772 533.66144 320.94272Q534.0833 321.31772 534.7708 321.31772Q535.5208 321.31772 535.9583 320.8021Q536.3958 320.28647 536.3958 319.38022Q536.3958 318.52084 535.92706 318.00522Q535.4583 317.4896 534.67706 317.4896Q533.97394 317.4896 533.5677 317.78647L533.28644 318.02084L532.41144 317.8021ZM544.2708 318.44272Q544.2708 320.34897 543.61456 321.28647Q542.97394 322.20834 541.5833 322.20834Q540.22394 322.20834 539.5677 321.3021Q538.91144 320.39584 538.8802 318.58334L538.8802 317.14584Q538.8802 315.25522 539.5208 314.34897Q540.17706 313.4271 541.5677 313.4271Q542.9427 313.4271 543.59894 314.31772Q544.2552 315.19272 544.2708 317.03647L544.2708 318.44272ZM543.17706 316.95834Q543.17706 315.58334 542.78644 314.95834Q542.41144 314.31772 541.5677 314.31772Q540.73956 314.31772 540.34894 314.95834Q539.97394 315.58334 539.97394 316.88022L539.97394 318.6146Q539.97394 319.9896 540.36456 320.66147Q540.7708 321.31772 541.5833 321.31772Q542.3802 321.31772 542.7708 320.69272Q543.16144 320.06772 543.17706 318.7396L543.17706 316.95834ZM551.2708 318.44272Q551.2708 320.34897 550.61456 321.28647Q549.97394 322.20834 548.5833 322.20834Q547.22394 322.20834 546.5677 321.3021Q545.91144 320.39584 545.8802 318.58334L545.8802 317.14584Q545.8802 315.25522 546.5208 314.34897Q547.17706 313.4271 548.5677 313.4271Q549.9427 313.4271 550.59894 314.31772Q551.2552 315.19272 551.2708 317.03647L551.2708 318.44272ZM550.17706 316.95834Q550.17706 315.58334 549.78644 314.95834Q549.41144 314.31772 548.5677 314.31772Q547.73956 314.31772 547.34894 314.95834Q546.97394 315.58334 546.97394 316.88022L546.97394 318.6146Q546.97394 319.9896 547.36456 320.66147Q547.7708 321.31772 548.5833 321.31772Q549.3802 321.31772 549.7708 320.69272Q550.16144 320.06772 550.17706 318.7396L550.17706 316.95834Z" fill-rule="nonzero"/><path stroke="#4285f4" stroke-width="4.0" stroke-linecap="butt" d="M231.5 344.95L243.5 344.95" fill-rule="nonzero"/><path fill="#757575" d="M252.03125 346.21564Q252.03125 345.29376 252.39062 344.54376Q252.76562 343.79376 253.42188 343.40314Q254.07812 342.9969 254.90625 342.9969Q256.20312 342.9969 257.0 343.8875Q257.8125 344.77814 257.8125 346.27814L257.8125 346.35626Q257.8125 347.27814 257.45312 348.0125Q257.09375 348.7469 256.4375 349.16876Q255.78125 349.575 254.92188 349.575Q253.64062 349.575 252.82812 348.6844Q252.03125 347.77814 252.03125 346.29376L252.03125 346.21564ZM253.125 346.35626Q253.125 347.40314 253.60938 348.04376Q254.10938 348.6844 254.92188 348.6844Q255.75 348.6844 256.23438 348.04376Q256.71875 347.3875 256.71875 346.21564Q256.71875 345.1844 256.21875 344.54376Q255.73438 343.8875 254.90625 343.8875Q254.10938 343.8875 253.60938 344.52814Q253.125 345.15314 253.125 346.35626ZM260.5 349.45L259.42188 349.45L259.42188 340.45L260.5 340.45L260.5 349.45ZM263.79688 341.575L263.79688 343.10626L264.96875 343.10626L264.96875 343.95L263.79688 343.95L263.79688 347.8719Q263.79688 348.2625 263.95312 348.45Q264.10938 348.6375 264.48438 348.6375Q264.67188 348.6375 265.0 348.575L265.0 349.45Q264.57812 349.575 264.17188 349.575Q263.45312 349.575 263.07812 349.1375Q262.70312 348.6844 262.70312 347.8719L262.70312 343.95L261.54688 343.95L261.54688 343.10626L262.70312 343.10626L262.70312 341.575L263.79688 341.575ZM271.67188 346.35626Q271.67188 347.79376 271.01562 348.6844Q270.35938 349.575 269.21875 349.575Q268.0625 349.575 267.40625 348.84064L267.40625 351.8875L266.32812 351.8875L266.32812 343.10626L267.3125 343.10626L267.35938 343.8094Q268.03125 342.9969 269.20312 342.9969Q270.34375 342.9969 271.0 343.85626Q271.67188 344.71564 271.67188 346.2469L271.67188 346.35626ZM270.59375 346.23126Q270.59375 345.15314 270.125 344.54376Q269.67188 343.91876 268.875 343.91876Q267.89062 343.91876 267.40625 344.77814L267.40625 347.8094Q267.89062 348.6844 268.89062 348.6844Q269.67188 348.6844 270.125 348.075Q270.59375 347.45 270.59375 346.23126ZM277.89062 350.34064L272.53125 350.34064L272.53125 349.45L277.89062 349.45L277.89062 350.34064ZM282.23438 348.825Q281.60938 349.575 280.375 349.575Q279.35938 349.575 278.82812 348.98126Q278.29688 348.3875 278.29688 347.23126L278.29688 343.10626L279.375 343.10626L279.375 347.2Q279.375 348.65314 280.54688 348.65314Q281.79688 348.65314 282.20312 347.71564L282.20312 343.10626L283.29688 343.10626L283.29688 349.45L282.26562 349.45L282.23438 348.825ZM290.67188 346.35626Q290.67188 347.79376 290.01562 348.6844Q289.35938 349.575 288.21875 349.575Q287.0625 349.575 286.40625 348.84064L286.40625 351.8875L285.32812 351.8875L285.32812 343.10626L286.3125 343.10626L286.35938 343.8094Q287.03125 342.9969 288.20312 342.9969Q289.34375 342.9969 290.0 343.85626Q290.67188 344.71564 290.67188 346.2469L290.67188 346.35626ZM289.59375 346.23126Q289.59375 345.15314 289.125 344.54376Q288.67188 343.91876 287.875 343.91876Q286.89062 343.91876 286.40625 344.77814L286.40625 347.8094Q286.89062 348.6844 287.89062 348.6844Q288.67188 348.6844 289.125 348.075Q289.59375 347.45 289.59375 346.23126ZM292.0625 346.23126Q292.0625 344.7625 292.75 343.8875Q293.4375 342.9969 294.5625 342.9969Q295.67188 342.9969 296.32812 343.7469L296.32812 340.45L297.40625 340.45L297.40625 349.45L296.40625 349.45L296.35938 348.7625Q295.70312 349.575 294.54688 349.575Q293.45312 349.575 292.75 348.66876Q292.0625 347.7625 292.0625 346.3094L292.0625 346.23126ZM293.14062 346.35626Q293.14062 347.4344 293.57812 348.04376Q294.03125 348.65314 294.8125 348.65314Q295.84375 348.65314 296.32812 347.71564L296.32812 344.8094Q295.84375 343.91876 294.82812 343.91876Q294.03125 343.91876 293.57812 344.52814Q293.14062 345.1375 293.14062 346.35626ZM303.23438 349.45Q303.14062 349.2625 303.07812 348.77814Q302.32812 349.575 301.28125 349.575Q300.34375 349.575 299.73438 349.04376Q299.14062 348.5125 299.14062 347.6844Q299.14062 346.7 299.89062 346.15314Q300.64062 345.60626 302.01562 345.60626L303.0625 345.60626L303.0625 345.10626Q303.0625 344.54376 302.71875 344.21564Q302.39062 343.8719 301.71875 343.8719Q301.14062 343.8719 300.75 344.16876Q300.35938 344.45 300.35938 344.8719L299.26562 344.8719Q299.26562 344.3875 299.59375 343.95Q299.9375 343.5125 300.51562 343.2625Q301.09375 342.9969 301.78125 342.9969Q302.89062 342.9969 303.5 343.54376Q304.125 344.09064 304.15625 345.04376L304.15625 347.96564Q304.15625 348.84064 304.375 349.35626L304.375 349.45L303.23438 349.45ZM301.4375 348.6219Q301.95312 348.6219 302.40625 348.35626Q302.85938 348.09064 303.0625 347.66876L303.0625 346.3719L302.21875 346.3719Q300.21875 346.3719 300.21875 347.54376Q300.21875 348.04376 300.5625 348.34064Q300.90625 348.6219 301.4375 348.6219ZM307.79688 341.575L307.79688 343.10626L308.96875 343.10626L308.96875 343.95L307.79688 343.95L307.79688 347.8719Q307.79688 348.2625 307.95312 348.45Q308.10938 348.6375 308.48438 348.6375Q308.67188 348.6375 309.0 348.575L309.0 349.45Q308.57812 349.575 308.17188 349.575Q307.45312 349.575 307.07812 349.1375Q306.70312 348.6844 306.70312 347.8719L306.70312 343.95L305.54688 343.95L305.54688 343.10626L306.70312 343.10626L306.70312 341.575L307.79688 341.575ZM312.95312 349.575Q311.65625 349.575 310.84375 348.73126Q310.04688 347.8719 310.04688 346.45L310.04688 346.2625Q310.04688 345.3094 310.40625 344.575Q310.76562 343.825 311.40625 343.41876Q312.0625 342.9969 312.8125 342.9969Q314.04688 342.9969 314.73438 343.8094Q315.42188 344.6219 315.42188 346.1375L315.42188 346.59064L311.125 346.59064Q311.15625 347.52814 311.67188 348.10626Q312.20312 348.6844 313.01562 348.6844Q313.57812 348.6844 313.96875 348.45Q314.375 348.21564 314.6875 347.825L315.34375 348.34064Q314.54688 349.575 312.95312 349.575ZM312.8125 343.8875Q312.15625 343.8875 311.70312 344.3719Q311.26562 344.84064 311.17188 345.7L314.34375 345.7L314.34375 345.6219Q314.29688 344.79376 313.89062 344.34064Q313.5 343.8875 312.8125 343.8875ZM320.89062 350.34064L315.53125 350.34064L315.53125 349.45L320.89062 349.45L320.89062 350.34064ZM322.34375 343.10626L322.375 343.90314Q323.10938 342.9969 324.28125 342.9969Q326.29688 342.9969 326.3125 345.2625L326.3125 349.45L325.21875 349.45L325.21875 345.2469Q325.21875 344.575 324.90625 344.2469Q324.60938 343.91876 323.95312 343.91876Q323.42188 343.91876 323.01562 344.2Q322.625 344.48126 322.40625 344.9344L322.40625 349.45L321.32812 349.45L321.32812 343.10626L322.34375 343.10626ZM328.03125 346.21564Q328.03125 345.29376 328.39062 344.54376Q328.76562 343.79376 329.42188 343.40314Q330.07812 342.9969 330.90625 342.9969Q332.20312 342.9969 333.0 343.8875Q333.8125 344.77814 333.8125 346.27814L333.8125 346.35626Q333.8125 347.27814 333.45312 348.0125Q333.09375 348.7469 332.4375 349.16876Q331.78125 349.575 330.92188 349.575Q329.64062 349.575 328.82812 348.6844Q328.03125 347.77814 328.03125 346.29376L328.03125 346.21564ZM329.125 346.35626Q329.125 347.40314 329.60938 348.04376Q330.10938 348.6844 330.92188 348.6844Q331.75 348.6844 332.23438 348.04376Q332.71875 347.3875 332.71875 346.21564Q332.71875 345.1844 332.21875 344.54376Q331.73438 343.8875 330.90625 343.8875Q330.10938 343.8875 329.60938 344.52814Q329.125 345.15314 329.125 346.35626ZM339.89062 350.34064L334.53125 350.34064L334.53125 349.45L339.89062 349.45L339.89062 350.34064ZM341.5 349.45L340.42188 349.45L340.42188 343.10626L341.5 343.10626L341.5 349.45ZM340.32812 341.4344Q340.32812 341.16876 340.48438 340.98126Q340.65625 340.79376 340.96875 340.79376Q341.28125 340.79376 341.4375 340.98126Q341.60938 341.16876 341.60938 341.4344Q341.60938 341.6844 341.4375 341.8719Q341.28125 342.04376 340.96875 342.04376Q340.65625 342.04376 340.48438 341.8719Q340.32812 341.6844 340.32812 341.4344ZM344.34375 343.10626L344.375 343.90314Q345.10938 342.9969 346.28125 342.9969Q348.29688 342.9969 348.3125 345.2625L348.3125 349.45L347.21875 349.45L347.21875 345.2469Q347.21875 344.575 346.90625 344.2469Q346.60938 343.91876 345.95312 343.91876Q345.42188 343.91876 345.01562 344.2Q344.625 344.48126 344.40625 344.9344L344.40625 349.45L343.32812 349.45L343.32812 343.10626L344.34375 343.10626ZM350.0625 346.23126Q350.0625 344.7625 350.75 343.8875Q351.4375 342.9969 352.5625 342.9969Q353.67188 342.9969 354.32812 343.7469L354.32812 340.45L355.40625 340.45L355.40625 349.45L354.40625 349.45L354.35938 348.7625Q353.70312 349.575 352.54688 349.575Q351.45312 349.575 350.75 348.66876Q350.0625 347.7625 350.0625 346.3094L350.0625 346.23126ZM351.14062 346.35626Q351.14062 347.4344 351.57812 348.04376Q352.03125 348.65314 352.8125 348.65314Q353.84375 348.65314 354.32812 347.71564L354.32812 344.8094Q353.84375 343.91876 352.82812 343.91876Q352.03125 343.91876 351.57812 344.52814Q351.14062 345.1375 351.14062 346.35626ZM359.95312 349.575Q358.65625 349.575 357.84375 348.73126Q357.04688 347.8719 357.04688 346.45L357.04688 346.2625Q357.04688 345.3094 357.40625 344.575Q357.76562 343.825 358.40625 343.41876Q359.0625 342.9969 359.8125 342.9969Q361.04688 342.9969 361.73438 343.8094Q362.42188 344.6219 362.42188 346.1375L362.42188 346.59064L358.125 346.59064Q358.15625 347.52814 358.67188 348.10626Q359.20312 348.6844 360.01562 348.6844Q360.57812 348.6844 360.96875 348.45Q361.375 348.21564 361.6875 347.825L362.34375 348.34064Q361.54688 349.575 359.95312 349.575ZM359.8125 343.8875Q359.15625 343.8875 358.70312 344.3719Q358.26562 344.84064 358.17188 345.7L361.34375 345.7L361.34375 345.6219Q361.29688 344.79376 360.89062 344.34064Q360.5 343.8875 359.8125 343.8875ZM365.45312 345.41876L366.85938 343.10626L368.125 343.10626L366.04688 346.2469L368.1875 349.45L366.9375 349.45L365.46875 347.075L364.0 349.45L362.73438 349.45L364.875 346.2469L362.8125 343.10626L364.0625 343.10626L365.45312 345.41876Z" fill-rule="nonzero"/><path fill="#757575" d="M31.14375 30.89375Q31.14375 32.9875 30.440624 34.55Q29.7375 36.096874 28.440624 36.925Q27.159374 37.753124 25.440624 37.753124Q23.753124 37.753124 22.45625 36.925Q21.159374 36.096874 20.440624 34.565624Q19.721874 33.034374 19.70625 31.01875L19.70625 30.003124Q19.70625 27.95625 20.409374 26.378124Q21.128124 24.8 22.425 23.971874Q23.7375 23.128124 25.409374 23.128124Q27.128124 23.128124 28.425 23.95625Q29.7375 24.784374 30.440624 26.3625Q31.14375 27.925 31.14375 30.003124L31.14375 30.89375ZM29.26875 29.9875Q29.26875 27.45625 28.253124 26.1125Q27.2375 24.753124 25.409374 24.753124Q23.64375 24.753124 22.6125 26.1125Q21.596874 27.45625 21.565624 29.846874L21.565624 30.89375Q21.565624 33.346874 22.596874 34.753124Q23.628124 36.159374 25.440624 36.159374Q27.253124 36.159374 28.2375 34.83125Q29.2375 33.503124 29.26875 31.034374L29.26875 29.9875ZM36.08125 36.01875L42.83125 36.01875L42.83125 37.55L34.20625 37.55L34.20625 23.33125L36.08125 23.33125L36.08125 36.01875ZM55.01875 24.878124L50.45625 24.878124L50.45625 37.55L48.596874 37.55L48.596874 24.878124L44.034374 24.878124L44.034374 23.33125L55.01875 23.33125L55.01875 24.878124ZM59.08125 31.9875L59.08125 37.55L57.20625 37.55L57.20625 23.33125L62.440624 23.33125Q64.78438 23.33125 66.09688 24.51875Q67.425 25.70625 67.425 27.675Q67.425 29.753124 66.12813 30.878124Q64.83125 31.9875 62.425 31.9875L59.08125 31.9875ZM59.08125 30.45625L62.440624 30.45625Q63.95625 30.45625 64.75313 29.753124Q65.55 29.034374 65.55 27.690624Q65.55 26.425 64.75313 25.675Q63.95625 24.909374 62.55 24.878124L59.08125 24.878124L59.08125 30.45625ZM85.20625 23.33125L85.20625 33.003124Q85.20625 35.003124 83.94063 36.284374Q82.69063 37.565624 80.55 37.721874L80.05 37.753124Q77.70625 37.753124 76.31563 36.4875Q74.94063 35.221874 74.925 33.01875L74.925 23.33125L76.76875 23.33125L76.76875 32.95625Q76.76875 34.503124 77.6125 35.3625Q78.47188 36.20625 80.05 36.20625Q81.64375 36.20625 82.4875 35.3625Q83.33125 34.51875 83.33125 32.971874L83.33125 23.33125L85.20625 23.33125ZM96.84688 32.378124Q96.84688 34.8 95.7375 36.284374Q94.64375 37.753124 92.75313 37.753124Q90.83125 37.753124 89.72188 36.51875L89.72188 41.6125L87.925 41.6125L87.925 26.9875L89.56563 26.9875L89.65938 28.159374Q90.75313 26.784374 92.72188 26.784374Q94.62813 26.784374 95.7375 28.221874Q96.84688 29.659374 96.84688 32.221874L96.84688 32.378124ZM95.03438 32.175Q95.03438 30.39375 94.26875 29.3625Q93.51875 28.315624 92.19063 28.315624Q90.55 28.315624 89.72188 29.76875L89.72188 34.83125Q90.53438 36.26875 92.20625 36.26875Q93.50313 36.26875 94.26875 35.2375Q95.03438 34.20625 95.03438 32.175ZM98.47188 32.175Q98.47188 29.753124 99.62813 28.26875Q100.78438 26.784374 102.64375 26.784374Q104.50313 26.784374 105.58125 28.05L105.58125 22.55L107.39375 22.55L107.39375 37.55L105.7375 37.55L105.64375 36.409374Q104.56563 37.753124 102.62813 37.753124Q100.8 37.753124 99.62813 36.253124Q98.47188 34.7375 98.47188 32.315624L98.47188 32.175ZM100.28438 32.378124Q100.28438 34.175 101.01875 35.190624Q101.76875 36.20625 103.08125 36.20625Q104.8 36.20625 105.58125 34.675L105.58125 29.815624Q104.78438 28.315624 103.09688 28.315624Q101.76875 28.315624 101.01875 29.346874Q100.28438 30.378124 100.28438 32.378124ZM116.44063 37.55Q116.28438 37.2375 116.19063 36.440624Q114.925 37.753124 113.175 37.753124Q111.6125 37.753124 110.6125 36.8625Q109.6125 35.971874 109.6125 34.6125Q109.6125 32.971874 110.8625 32.065624Q112.12813 31.14375 114.39375 31.14375L116.15938 31.14375L116.15938 30.315624Q116.15938 29.3625 115.58125 28.8Q115.01875 28.2375 113.925 28.2375Q112.95625 28.2375 112.3 28.7375Q111.64375 29.221874 111.64375 29.909374L109.83125 29.909374Q109.83125 29.128124 110.39375 28.39375Q110.95625 27.64375 111.90938 27.221874Q112.87813 26.784374 114.03438 26.784374Q115.8625 26.784374 116.89375 27.70625Q117.925 28.6125 117.97188 30.221874L117.97188 35.08125Q117.97188 36.534374 118.33125 37.39375L118.33125 37.55L116.44063 37.55ZM113.44063 36.175Q114.3 36.175 115.05 35.7375Q115.81563 35.3 116.15938 34.596874L116.15938 32.425L114.7375 32.425Q111.425 32.425 111.425 34.3625Q111.425 35.221874 111.9875 35.70625Q112.55 36.175 113.44063 36.175ZM123.3625 24.425L123.3625 26.9875L125.34688 26.9875L125.34688 28.378124L123.3625 28.378124L123.3625 34.925Q123.3625 35.565624 123.62813 35.89375Q123.89375 36.20625 124.53438 36.20625Q124.84688 36.20625 125.39375 36.08125L125.39375 37.55Q124.675 37.753124 124.00313 37.753124Q122.8 37.753124 122.175 37.01875Q121.56563 36.284374 121.56563 34.925L121.56563 28.378124L119.64375 28.378124L119.64375 26.9875L121.56563 26.9875L121.56563 24.425L123.3625 24.425ZM132.3 37.753124Q130.15938 37.753124 128.8 36.346874Q127.45625 34.925 127.45625 32.565624L127.45625 32.221874Q127.45625 30.659374 128.05 29.425Q128.65938 28.190624 129.7375 27.4875Q130.81563 26.784374 132.08125 26.784374Q134.14375 26.784374 135.28438 28.14375Q136.425 29.503124 136.425 32.034374L136.425 32.784374L129.26875 32.784374Q129.3 34.346874 130.175 35.315624Q131.05 36.26875 132.39375 36.26875Q133.3625 36.26875 134.01875 35.878124Q134.69063 35.4875 135.19063 34.846874L136.28438 35.70625Q134.95625 37.753124 132.3 37.753124ZM132.08125 28.26875Q130.9875 28.26875 130.2375 29.065624Q129.50313 29.8625 129.33125 31.3L134.6125 31.3L134.6125 31.159374Q134.53438 29.784374 133.8625 29.034374Q133.20625 28.26875 132.08125 28.26875ZM155.12813 37.55L153.2375 37.55L146.08125 26.596874L146.08125 37.55L144.20625 37.55L144.20625 23.33125L146.08125 23.33125L153.26875 34.33125L153.26875 23.33125L155.12813 23.33125L155.12813 37.55ZM157.44063 32.175Q157.44063 30.6125 158.05 29.378124Q158.65938 28.128124 159.7375 27.45625Q160.83125 26.784374 162.2375 26.784374Q164.39375 26.784374 165.72188 28.284374Q167.06563 29.76875 167.06563 32.253124L167.06563 32.378124Q167.06563 33.925 166.47188 35.159374Q165.87813 36.378124 164.76875 37.065624Q163.675 37.753124 162.25313 37.753124Q160.1125 37.753124 158.76875 36.253124Q157.44063 34.753124 157.44063 32.3L157.44063 32.175ZM159.25313 32.378124Q159.25313 34.14375 160.06563 35.20625Q160.89375 36.26875 162.25313 36.26875Q163.62813 36.26875 164.44063 35.190624Q165.25313 34.1125 165.25313 32.175Q165.25313 30.425 164.425 29.346874Q163.59688 28.26875 162.2375 28.26875Q160.89375 28.26875 160.06563 29.33125Q159.25313 30.39375 159.25313 32.378124ZM176.20625 37.55L174.33125 37.55L174.33125 23.33125L176.20625 23.33125L176.20625 37.55ZM180.62813 26.9875L180.69063 28.315624Q181.89375 26.784374 183.84688 26.784374Q187.20625 26.784374 187.22188 30.565624L187.22188 37.55L185.425 37.55L185.425 30.55Q185.40938 29.409374 184.89375 28.8625Q184.39375 28.315624 183.3 28.315624Q182.425 28.315624 181.75313 28.784374Q181.09688 29.253124 180.72188 30.01875L180.72188 37.55L178.925 37.55L178.925 26.9875L180.62813 26.9875ZM189.47188 32.175Q189.47188 29.753124 190.62813 28.26875Q191.78438 26.784374 193.64375 26.784374Q195.50313 26.784374 196.58125 28.05L196.58125 22.55L198.39375 22.55L198.39375 37.55L196.7375 37.55L196.64375 36.409374Q195.56563 37.753124 193.62813 37.753124Q191.8 37.753124 190.62813 36.253124Q189.47188 34.7375 189.47188 32.315624L189.47188 32.175ZM191.28438 32.378124Q191.28438 34.175 192.01875 35.190624Q192.76875 36.20625 194.08125 36.20625Q195.8 36.20625 196.58125 34.675L196.58125 29.815624Q195.78438 28.315624 194.09688 28.315624Q192.76875 28.315624 192.01875 29.346874Q191.28438 30.378124 191.28438 32.378124ZM205.3 37.753124Q203.15938 37.753124 201.8 36.346874Q200.45625 34.925 200.45625 32.565624L200.45625 32.221874Q200.45625 30.659374 201.05 29.425Q201.65938 28.190624 202.7375 27.4875Q203.81563 26.784374 205.08125 26.784374Q207.14375 26.784374 208.28438 28.14375Q209.425 29.503124 209.425 32.034374L209.425 32.784374L202.26875 32.784374Q202.3 34.346874 203.175 35.315624Q204.05 36.26875 205.39375 36.26875Q206.3625 36.26875 207.01875 35.878124Q207.69063 35.4875 208.19063 34.846874L209.28438 35.70625Q207.95625 37.753124 205.3 37.753124ZM205.08125 28.26875Q203.9875 28.26875 203.2375 29.065624Q202.50313 29.8625 202.33125 31.3L207.6125 31.3L207.6125 31.159374Q207.53438 29.784374 206.8625 29.034374Q206.20625 28.26875 205.08125 28.26875ZM215.45625 30.846874L217.8 26.9875L219.90938 26.9875L216.45625 32.20625L220.01875 37.55L217.94063 37.55L215.4875 33.596874L213.05 37.55L210.95625 37.55L214.51875 32.20625L211.06563 26.9875L213.14375 26.9875L215.45625 30.846874ZM230.675 32.253124L225.90938 32.253124L225.90938 30.76875L230.675 30.76875L230.675 32.253124ZM240.08125 36.01875L246.83125 36.01875L246.83125 37.55L238.20625 37.55L238.20625 23.33125L240.08125 23.33125L240.08125 36.01875ZM255.44063 37.55Q255.28438 37.2375 255.19063 36.440624Q253.925 37.753124 252.175 37.753124Q250.6125 37.753124 249.6125 36.8625Q248.6125 35.971874 248.6125 34.6125Q248.6125 32.971874 249.8625 32.065624Q251.12813 31.14375 253.39375 31.14375L255.15938 31.14375L255.15938 30.315624Q255.15938 29.3625 254.58125 28.8Q254.01875 28.2375 252.925 28.2375Q251.95625 28.2375 251.3 28.7375Q250.64375 29.221874 250.64375 29.909374L248.83125 29.909374Q248.83125 29.128124 249.39375 28.39375Q249.95625 27.64375 250.90938 27.221874Q251.87813 26.784374 253.03438 26.784374Q254.8625 26.784374 255.89375 27.70625Q256.925 28.6125 256.97186 30.221874L256.97186 35.08125Q256.97186 36.534374 257.33124 37.39375L257.33124 37.55L255.44063 37.55ZM252.44063 36.175Q253.3 36.175 254.05 35.7375Q254.81563 35.3 255.15938 34.596874L255.15938 32.425L253.7375 32.425Q250.425 32.425 250.425 34.3625Q250.425 35.221874 250.9875 35.70625Q251.55 36.175 252.44063 36.175ZM262.3625 24.425L262.3625 26.9875L264.34686 26.9875L264.34686 28.378124L262.3625 28.378124L262.3625 34.925Q262.3625 35.565624 262.6281 35.89375Q262.89374 36.20625 263.53436 36.20625Q263.84686 36.20625 264.39374 36.08125L264.39374 37.55Q263.675 37.753124 263.0031 37.753124Q261.8 37.753124 261.175 37.01875Q260.5656 36.284374 260.5656 34.925L260.5656 28.378124L258.64374 28.378124L258.64374 26.9875L260.5656 26.9875L260.5656 24.425L262.3625 24.425ZM271.3 37.753124Q269.15936 37.753124 267.8 36.346874Q266.45624 34.925 266.45624 32.565624L266.45624 32.221874Q266.45624 30.659374 267.05 29.425Q267.65936 28.190624 268.7375 27.4875Q269.8156 26.784374 271.08124 26.784374Q273.14374 26.784374 274.28436 28.14375Q275.425 29.503124 275.425 32.034374L275.425 32.784374L268.26874 32.784374Q268.3 34.346874 269.175 35.315624Q270.05 36.26875 271.39374 36.26875Q272.3625 36.26875 273.01874 35.878124Q273.6906 35.4875 274.1906 34.846874L275.28436 35.70625Q273.95624 37.753124 271.3 37.753124ZM271.08124 28.26875Q269.9875 28.26875 269.2375 29.065624Q268.5031 29.8625 268.33124 31.3L273.6125 31.3L273.6125 31.159374Q273.53436 29.784374 272.8625 29.034374Q272.20624 28.26875 271.08124 28.26875ZM279.6281 26.9875L279.6906 28.315624Q280.89374 26.784374 282.84686 26.784374Q286.20624 26.784374 286.22186 30.565624L286.22186 37.55L284.425 37.55L284.425 30.55Q284.40936 29.409374 283.89374 28.8625Q283.39374 28.315624 282.3 28.315624Q281.425 28.315624 280.7531 28.784374Q280.09686 29.253124 279.72186 30.01875L279.72186 37.55L277.925 37.55L277.925 26.9875L279.6281 26.9875ZM293.15936 36.26875Q294.1281 36.26875 294.84686 35.690624Q295.5656 35.096874 295.64374 34.221874L297.3625 34.221874Q297.3 35.128124 296.72186 35.95625Q296.15936 36.76875 295.1906 37.26875Q294.2375 37.753124 293.15936 37.753124Q291.0031 37.753124 289.72186 36.315624Q288.45624 34.8625 288.45624 32.3625L288.45624 32.065624Q288.45624 30.51875 289.01874 29.315624Q289.58124 28.1125 290.64374 27.45625Q291.70624 26.784374 293.14374 26.784374Q294.925 26.784374 296.09686 27.846874Q297.28436 28.909374 297.3625 30.6125L295.64374 30.6125Q295.5656 29.596874 294.8625 28.940624Q294.175 28.26875 293.14374 28.26875Q291.76874 28.26875 291.0031 29.26875Q290.2531 30.253124 290.2531 32.128124L290.2531 32.471874Q290.2531 34.3 291.0031 35.284374Q291.7531 36.26875 293.15936 36.26875ZM302.3781 34.909374L304.83124 26.9875L306.76874 26.9875L302.51874 39.175Q301.53436 41.815624 299.39374 41.815624L299.05 41.784374L298.3781 41.659374L298.3781 40.190624L298.8625 40.2375Q299.78436 40.2375 300.28436 39.8625Q300.8 39.4875 301.1281 38.503124L301.53436 37.425L297.76874 26.9875L299.7375 26.9875L302.3781 34.909374Z" fill-rule="nonzero"/></svg>