<svg version="1.1" viewBox="0.0 0.0 600.0 371.0" fill="none" stroke="none" stroke-linecap="square" stroke-miterlimit="10" width="600" height="371" xmlns:xlink="http://www.w3.org/1999/xlink" xmlns="http://www.w3.org/2000/svg"><path fill="#ffffff" d="M0 0L600.0 0L600.0 371.0L0 371.0L0 0Z" fill-rule="nonzero"/><path stroke="#333333" stroke-width="1.0" stroke-linecap="butt" d="M83.5 304.5L581.5 304.5" fill-rule="nonzero"/><path stroke="#cccccc" stroke-width="1.0" stroke-linecap="butt" d="M83.5 223.5L581.5 223.5" fill-rule="nonzero"/><path stroke="#cccccc" stroke-width="1.0" stroke-linecap="butt" d="M83.5 142.5L581.5 142.5" fill-rule="nonzero"/><path stroke="#cccccc" stroke-width="1.0" stroke-linecap="butt" d="M83.5 62.5L581.5 62.5" fill-rule="nonzero"/><clipPath id="id_0"><path d="M83.55 62.416668L581.45 62.416668L581.45 304.08334L83.55 304.08334L83.55 62.416668Z" clip-rule="nonzero"/></clipPath><path stroke="#4285f4" stroke-width="2.0" stroke-linecap="butt" clip-path="url(#id_0)" d="M125.041664 206.23598L208.025 157.46259L291.00833 126.027084L373.99167 110.96528L456.975 101.70218L539.9583 97.0534" fill-rule="nonzero"/><path fill="#000000" fill-opacity="0.0" clip-path="url(#id_0)" d="M128.04167 206.23598C128.04167 207.89284 126.698524 209.23598 125.041664 209.23598C123.38481 209.23598 122.041664 207.89284 122.041664 206.23598C122.041664 204.57913 123.38481 203.23598 125.041664 203.23598C126.698524 203.23598 128.04167 204.57913 128.04167 206.23598Z" fill-rule="nonzero"/><path fill="#000000" fill-opacity="0.0" clip-path="url(#id_0)" d="M211.025 157.46259C211.025 159.11945 209.68185 160.46259 208.025 160.46259C206.36815 160.46259 205.025 159.11945 205.025 157.46259C205.025 155.80574 206.36815 154.46259 208.025 154.46259C209.68185 154.46259 211.025 155.80574 211.025 157.46259Z" fill-rule="nonzero"/><path fill="#000000" fill-opacity="0.0" clip-path="url(#id_0)" d="M294.00833 126.027084C294.00833 127.683945 292.6652 129.02708 291.00833 129.02708C289.35147 129.02708 288.00833 127.683945 288.00833 126.027084C288.00833 124.37023 289.35147 123.027084 291.00833 123.027084C292.6652 123.027084 294.00833 124.37023 294.00833 126.027084Z" fill-rule="nonzero"/><path fill="#000000" fill-opacity="0.0" clip-path="url(#id_0)" d="M376.99167 110.96528C376.99167 112.62213 375.64853 113.96528 373.99167 113.96528C372.3348 113.96528 370.99167 112.62213 370.99167 110.96528C370.99167 109.308426 372.3348 107.96528 373.99167 107.96528C375.64853 107.96528 376.99167 109.308426 376.99167 110.96528Z" fill-rule="nonzero"/><path fill="#000000" fill-opacity="0.0" clip-path="url(#id_0)" d="M459.975 101.70218C459.975 103.35903 458.63187 104.70218 456.975 104.70218C455.31815 104.70218 453.975 103.35903 453.975 101.70218C453.975 100.04533 455.31815 98.70218 456.975 98.70218C458.63187 98.70218 459.975 100.04533 459.975 101.70218Z" fill-rule="nonzero"/><path fill="#000000" fill-opacity="0.0" clip-path="url(#id_0)" d="M542.9583 97.0534C542.9583 98.71025 541.6152 100.0534 539.9583 100.0534C538.30145 100.0534 536.9583 98.71025 536.9583 97.0534C536.9583 95.396545 538.30145 94.0534 539.9583 94.0534C541.6152 94.0534 542.9583 95.396545 542.9583 97.0534Z" fill-rule="nonzero"/><path fill="#757575" d="M59.6125 304.94272Q59.6125 306.84897 58.95625 307.78647Q58.315624 308.70834 56.925 308.70834Q55.565624 308.70834 54.909374 307.8021Q54.253124 306.89584 54.221874 305.08334L54.221874 303.64584Q54.221874 301.75522 54.8625 300.84897Q55.51875 299.9271 56.909374 299.9271Q58.284374 299.9271 58.940624 300.81772Q59.596874 301.69272 59.6125 303.53647L59.6125 304.94272ZM58.51875 303.45834Q58.51875 302.08334 58.128124 301.45834Q57.753124 300.81772 56.909374 300.81772Q56.08125 300.81772 55.690624 301.45834Q55.315624 302.08334 55.315624 303.38022L55.315624 305.1146Q55.315624 306.4896 55.70625 307.16147Q56.1125 307.81772 56.925 307.81772Q57.721874 307.81772 58.1125 307.19272Q58.503124 306.56772 58.51875 305.2396L58.51875 303.45834ZM61.39375 308.02084Q61.39375 307.7396 61.55 307.5521Q61.721874 307.3646 62.05 307.3646Q62.39375 307.3646 62.565624 307.5521Q62.7375 307.7396 62.7375 308.02084Q62.7375 308.28647 62.565624 308.47397Q62.39375 308.64584 62.05 308.64584Q61.721874 308.64584 61.55 308.47397Q61.39375 308.28647 61.39375 308.02084ZM69.6125 304.94272Q69.6125 306.84897 68.95625 307.78647Q68.31563 308.70834 66.925 308.70834Q65.56563 308.70834 64.90938 307.8021Q64.25313 306.89584 64.22188 305.08334L64.22188 303.64584Q64.22188 301.75522 64.8625 300.84897Q65.51875 299.9271 66.90938 299.9271Q68.28438 299.9271 68.94063 300.81772Q69.59688 301.69272 69.6125 303.53647L69.6125 304.94272ZM68.51875 303.45834Q68.51875 302.08334 68.12813 301.45834Q67.75313 300.81772 66.90938 300.81772Q66.08125 300.81772 65.69063 301.45834Q65.31563 302.08334 65.31563 303.38022L65.31563 305.1146Q65.31563 306.4896 65.70625 307.16147Q66.1125 307.81772 66.925 307.81772Q67.72188 307.81772 68.1125 307.19272Q68.50313 306.56772 68.51875 305.2396L68.51875 303.45834ZM76.6125 304.94272Q76.6125 306.84897 75.95625 307.78647Q75.31563 308.70834 73.925 308.70834Q72.56563 308.70834 71.90938 307.8021Q71.25313 306.89584 71.22188 305.08334L71.22188 303.64584Q71.22188 301.75522 71.8625 300.84897Q72.51875 299.9271 73.90938 299.9271Q75.28438 299.9271 75.94063 300.81772Q76.59688 301.69272 76.6125 303.53647L76.6125 304.94272ZM75.51875 303.45834Q75.51875 302.08334 75.12813 301.45834Q74.75313 300.81772 73.90938 300.81772Q73.08125 300.81772 72.69063 301.45834Q72.31563 302.08334 72.31563 303.38022L72.31563 305.1146Q72.31563 306.4896 72.70625 307.16147Q73.1125 307.81772 73.925 307.81772Q74.72188 307.81772 75.1125 307.19272Q75.50313 306.56772 75.51875 305.2396L75.51875 303.45834Z" fill-rule="nonzero"/><path fill="#757575" d="M26.753124 223.74652L27.190624 219.49652L31.565624 219.49652L31.565624 220.49652L28.1125 220.49652L27.846874 222.82465Q28.4875 222.44965 29.284374 222.44965Q30.440624 222.44965 31.128124 223.2309Q31.815624 223.99652 31.815624 225.30902Q31.815624 226.62152 31.096874 227.38715Q30.39375 228.15277 29.1125 228.15277Q27.9875 228.15277 27.26875 227.52777Q26.55 226.88715 26.45625 225.77777L27.471874 225.77777Q27.58125 226.51215 28.003124 226.88715Q28.425 227.26215 29.1125 227.26215Q29.8625 227.26215 30.3 226.74652Q30.7375 226.2309 30.7375 225.32465Q30.7375 224.46527 30.26875 223.94965Q29.8 223.43402 29.01875 223.43402Q28.315624 223.43402 27.909374 223.7309L27.628124 223.96527L26.753124 223.74652ZM38.6125 224.38715Q38.6125 226.2934 37.95625 227.2309Q37.315624 228.15277 35.925 228.15277Q34.565624 228.15277 33.909374 227.24652Q33.253124 226.34027 33.221874 224.52777L33.221874 223.09027Q33.221874 221.19965 33.8625 220.2934Q34.51875 219.37152 35.909374 219.37152Q37.284374 219.37152 37.940624 220.26215Q38.596874 221.13715 38.6125 222.9809L38.6125 224.38715ZM37.51875 222.90277Q37.51875 221.52777 37.128124 220.90277Q36.753124 220.26215 35.909374 220.26215Q35.08125 220.26215 34.690624 220.90277Q34.315624 221.52777 34.315624 222.82465L34.315624 224.55902Q34.315624 225.93402 34.70625 226.6059Q35.1125 227.26215 35.925 227.26215Q36.721874 227.26215 37.1125 226.63715Q37.503124 226.01215 37.51875 224.68402L37.51875 222.90277ZM45.6125 224.38715Q45.6125 226.2934 44.95625 227.2309Q44.315624 228.15277 42.925 228.15277Q41.565624 228.15277 40.909374 227.24652Q40.253124 226.34027 40.221874 224.52777L40.221874 223.09027Q40.221874 221.19965 40.8625 220.2934Q41.51875 219.37152 42.909374 219.37152Q44.284374 219.37152 44.940624 220.26215Q45.596874 221.13715 45.6125 222.9809L45.6125 224.38715ZM44.51875 222.90277Q44.51875 221.52777 44.128124 220.90277Q43.753124 220.26215 42.909374 220.26215Q42.08125 220.26215 41.690624 220.90277Q41.315624 221.52777 41.315624 222.82465L41.315624 224.55902Q41.315624 225.93402 41.70625 226.6059Q42.1125 227.26215 42.925 227.26215Q43.721874 227.26215 44.1125 226.63715Q44.503124 226.01215 44.51875 224.68402L44.51875 222.90277ZM52.6125 224.38715Q52.6125 226.2934 51.95625 227.2309Q51.315624 228.15277 49.925 228.15277Q48.565624 228.15277 47.909374 227.24652Q47.253124 226.34027 47.221874 224.52777L47.221874 223.09027Q47.221874 221.19965 47.8625 220.2934Q48.51875 219.37152 49.909374 219.37152Q51.284374 219.37152 51.940624 220.26215Q52.596874 221.13715 52.6125 222.9809L52.6125 224.38715ZM51.51875 222.90277Q51.51875 221.52777 51.128124 220.90277Q50.753124 220.26215 49.909374 220.26215Q49.08125 220.26215 48.690624 220.90277Q48.315624 221.52777 48.315624 222.82465L48.315624 224.55902Q48.315624 225.93402 48.70625 226.6059Q49.1125 227.26215 49.925 227.26215Q50.721874 227.26215 51.1125 226.63715Q51.503124 226.01215 51.51875 224.68402L51.51875 222.90277ZM59.6125 224.38715Q59.6125 226.2934 58.95625 227.2309Q58.315624 228.15277 56.925 228.15277Q55.565624 228.15277 54.909374 227.24652Q54.253124 226.34027 54.221874 224.52777L54.221874 223.09027Q54.221874 221.19965 54.8625 220.2934Q55.51875 219.37152 56.909374 219.37152Q58.284374 219.37152 58.940624 220.26215Q59.596874 221.13715 59.6125 222.9809L59.6125 224.38715ZM58.51875 222.90277Q58.51875 221.52777 58.128124 220.90277Q57.753124 220.26215 56.909374 220.26215Q56.08125 220.26215 55.690624 220.90277Q55.315624 221.52777 55.315624 222.82465L55.315624 224.55902Q55.315624 225.93402 55.70625 226.6059Q56.1125 227.26215 56.925 227.26215Q57.721874 227.26215 58.1125 226.63715Q58.503124 226.01215 58.51875 224.68402L58.51875 222.90277ZM61.39375 227.46527Q61.39375 227.18402 61.55 226.99652Q61.721874 226.80902 62.05 226.80902Q62.39375 226.80902 62.565624 226.99652Q62.7375 227.18402 62.7375 227.46527Q62.7375 227.7309 62.565624 227.9184Q62.39375 228.09027 62.05 228.09027Q61.721874 228.09027 61.55 227.9184Q61.39375 227.7309 61.39375 227.46527ZM69.6125 224.38715Q69.6125 226.2934 68.95625 227.2309Q68.31563 228.15277 66.925 228.15277Q65.56563 228.15277 64.90938 227.24652Q64.25313 226.34027 64.22188 224.52777L64.22188 223.09027Q64.22188 221.19965 64.8625 220.2934Q65.51875 219.37152 66.90938 219.37152Q68.28438 219.37152 68.94063 220.26215Q69.59688 221.13715 69.6125 222.9809L69.6125 224.38715ZM68.51875 222.90277Q68.51875 221.52777 68.12813 220.90277Q67.75313 220.26215 66.90938 220.26215Q66.08125 220.26215 65.69063 220.90277Q65.31563 221.52777 65.31563 222.82465L65.31563 224.55902Q65.31563 225.93402 65.70625 226.6059Q66.1125 227.26215 66.925 227.26215Q67.72188 227.26215 68.1125 226.63715Q68.50313 226.01215 68.51875 224.68402L68.51875 222.90277ZM76.6125 224.38715Q76.6125 226.2934 75.95625 227.2309Q75.31563 228.15277 73.925 228.15277Q72.56563 228.15277 71.90938 227.24652Q71.25313 226.34027 71.22188 224.52777L71.22188 223.09027Q71.22188 221.19965 71.8625 220.2934Q72.51875 219.37152 73.90938 219.37152Q75.28438 219.37152 75.94063 220.26215Q76.59688 221.13715 76.6125 222.9809L76.6125 224.38715ZM75.51875 222.90277Q75.51875 221.52777 75.12813 220.90277Q74.75313 220.26215 73.90938 220.26215Q73.08125 220.26215 72.69063 220.90277Q72.31563 221.52777 72.31563 222.82465L72.31563 224.55902Q72.31563 225.93402 72.70625 226.6059Q73.1125 227.26215 73.925 227.26215Q74.72188 227.26215 75.1125 226.63715Q75.50313 226.01215 75.51875 224.68402L75.51875 222.90277Z" fill-rule="nonzero"/><path fill="#757575" d="M22.815624 147.47223L21.7375 147.47223L21.7375 140.25348L19.55 141.05035L19.55 140.06598L22.659374 138.8941L22.815624 138.8941L22.815624 147.47223ZM31.6125 143.8316Q31.6125 145.73785 30.95625 146.67535Q30.315624 147.59723 28.925 147.59723Q27.565624 147.59723 26.909374 146.69098Q26.253124 145.78473 26.221874 143.97223L26.221874 142.53473Q26.221874 140.6441 26.8625 139.73785Q27.51875 138.81598 28.909374 138.81598Q30.284374 138.81598 30.940624 139.7066Q31.596874 140.5816 31.6125 142.42535L31.6125 143.8316ZM30.51875 142.34723Q30.51875 140.97223 30.128124 140.34723Q29.753124 139.7066 28.909374 139.7066Q28.08125 139.7066 27.690624 140.34723Q27.315624 140.97223 27.315624 142.2691L27.315624 144.00348Q27.315624 145.37848 27.70625 146.05035Q28.1125 146.7066 28.925 146.7066Q29.721874 146.7066 30.1125 146.0816Q30.503124 145.4566 30.51875 144.12848L30.51875 142.34723ZM38.6125 143.8316Q38.6125 145.73785 37.95625 146.67535Q37.315624 147.59723 35.925 147.59723Q34.565624 147.59723 33.909374 146.69098Q33.253124 145.78473 33.221874 143.97223L33.221874 142.53473Q33.221874 140.6441 33.8625 139.73785Q34.51875 138.81598 35.909374 138.81598Q37.284374 138.81598 37.940624 139.7066Q38.596874 140.5816 38.6125 142.42535L38.6125 143.8316ZM37.51875 142.34723Q37.51875 140.97223 37.128124 140.34723Q36.753124 139.7066 35.909374 139.7066Q35.08125 139.7066 34.690624 140.34723Q34.315624 140.97223 34.315624 142.2691L34.315624 144.00348Q34.315624 145.37848 34.70625 146.05035Q35.1125 146.7066 35.925 146.7066Q36.721874 146.7066 37.1125 146.0816Q37.503124 145.4566 37.51875 144.12848L37.51875 142.34723ZM45.6125 143.8316Q45.6125 145.73785 44.95625 146.67535Q44.315624 147.59723 42.925 147.59723Q41.565624 147.59723 40.909374 146.69098Q40.253124 145.78473 40.221874 143.97223L40.221874 142.53473Q40.221874 140.6441 40.8625 139.73785Q41.51875 138.81598 42.909374 138.81598Q44.284374 138.81598 44.940624 139.7066Q45.596874 140.5816 45.6125 142.42535L45.6125 143.8316ZM44.51875 142.34723Q44.51875 140.97223 44.128124 140.34723Q43.753124 139.7066 42.909374 139.7066Q42.08125 139.7066 41.690624 140.34723Q41.315624 140.97223 41.315624 142.2691L41.315624 144.00348Q41.315624 145.37848 41.70625 146.05035Q42.1125 146.7066 42.925 146.7066Q43.721874 146.7066 44.1125 146.0816Q44.503124 145.4566 44.51875 144.12848L44.51875 142.34723ZM52.6125 143.8316Q52.6125 145.73785 51.95625 146.67535Q51.315624 147.59723 49.925 147.59723Q48.565624 147.59723 47.909374 146.69098Q47.253124 145.78473 47.221874 143.97223L47.221874 142.53473Q47.221874 140.6441 47.8625 139.73785Q48.51875 138.81598 49.909374 138.81598Q51.284374 138.81598 51.940624 139.7066Q52.596874 140.5816 52.6125 142.42535L52.6125 143.8316ZM51.51875 142.34723Q51.51875 140.97223 51.128124 140.34723Q50.753124 139.7066 49.909374 139.7066Q49.08125 139.7066 48.690624 140.34723Q48.315624 140.97223 48.315624 142.2691L48.315624 144.00348Q48.315624 145.37848 48.70625 146.05035Q49.1125 146.7066 49.925 146.7066Q50.721874 146.7066 51.1125 146.0816Q51.503124 145.4566 51.51875 144.12848L51.51875 142.34723ZM59.6125 143.8316Q59.6125 145.73785 58.95625 146.67535Q58.315624 147.59723 56.925 147.59723Q55.565624 147.59723 54.909374 146.69098Q54.253124 145.78473 54.221874 143.97223L54.221874 142.53473Q54.221874 140.6441 54.8625 139.73785Q55.51875 138.81598 56.909374 138.81598Q58.284374 138.81598 58.940624 139.7066Q59.596874 140.5816 59.6125 142.42535L59.6125 143.8316ZM58.51875 142.34723Q58.51875 140.97223 58.128124 140.34723Q57.753124 139.7066 56.909374 139.7066Q56.08125 139.7066 55.690624 140.34723Q55.315624 140.97223 55.315624 142.2691L55.315624 144.00348Q55.315624 145.37848 55.70625 146.05035Q56.1125 146.7066 56.925 146.7066Q57.721874 146.7066 58.1125 146.0816Q58.503124 145.4566 58.51875 144.12848L58.51875 142.34723ZM61.39375 146.90973Q61.39375 146.62848 61.55 146.44098Q61.721874 146.25348 62.05 146.25348Q62.39375 146.25348 62.565624 146.44098Q62.7375 146.62848 62.7375 146.90973Q62.7375 147.17535 62.565624 147.36285Q62.39375 147.53473 62.05 147.53473Q61.721874 147.53473 61.55 147.36285Q61.39375 147.17535 61.39375 146.90973ZM69.6125 143.8316Q69.6125 145.73785 68.95625 146.67535Q68.31563 147.59723 66.925 147.59723Q65.56563 147.59723 64.90938 146.69098Q64.25313 145.78473 64.22188 143.97223L64.22188 142.53473Q64.22188 140.6441 64.8625 139.73785Q65.51875 138.81598 66.90938 138.81598Q68.28438 138.81598 68.94063 139.7066Q69.59688 140.5816 69.6125 142.42535L69.6125 143.8316ZM68.51875 142.34723Q68.51875 140.97223 68.12813 140.34723Q67.75313 139.7066 66.90938 139.7066Q66.08125 139.7066 65.69063 140.34723Q65.31563 140.97223 65.31563 142.2691L65.31563 144.00348Q65.31563 145.37848 65.70625 146.05035Q66.1125 146.7066 66.925 146.7066Q67.72188 146.7066 68.1125 146.0816Q68.50313 145.4566 68.51875 144.12848L68.51875 142.34723ZM76.6125 143.8316Q76.6125 145.73785 75.95625 146.67535Q75.31563 147.59723 73.925 147.59723Q72.56563 147.59723 71.90938 146.69098Q71.25313 145.78473 71.22188 143.97223L71.22188 142.53473Q71.22188 140.6441 71.8625 139.73785Q72.51875 138.81598 73.90938 138.81598Q75.28438 138.81598 75.94063 139.7066Q76.59688 140.5816 76.6125 142.42535L76.6125 143.8316ZM75.51875 142.34723Q75.51875 140.97223 75.12813 140.34723Q74.75313 139.7066 73.90938 139.7066Q73.08125 139.7066 72.69063 140.34723Q72.31563 140.97223 72.31563 142.2691L72.31563 144.00348Q72.31563 145.37848 72.70625 146.05035Q73.1125 146.7066 73.925 146.7066Q74.72188 146.7066 75.1125 146.0816Q75.50313 145.4566 75.51875 144.12848L75.51875 142.34723Z" fill-rule="nonzero"/><path fill="#757575" d="M22.815624 66.916664L21.7375 66.916664L21.7375 59.697914L19.55 60.49479L19.55 59.510414L22.659374 58.33854L22.815624 58.33854L22.815624 66.916664ZM26.753124 62.635414L27.190624 58.385414L31.565624 58.385414L31.565624 59.385414L28.1125 59.385414L27.846874 61.71354Q28.4875 61.33854 29.284374 61.33854Q30.440624 61.33854 31.128124 62.11979Q31.815624 62.885414 31.815624 64.197914Q31.815624 65.510414 31.096874 66.27604Q30.39375 67.041664 29.1125 67.041664Q27.9875 67.041664 27.26875 66.416664Q26.55 65.77604 26.45625 64.666664L27.471874 64.666664Q27.58125 65.40104 28.003124 65.77604Q28.425 66.15104 29.1125 66.15104Q29.8625 66.15104 30.3 65.635414Q30.7375 65.11979 30.7375 64.21354Q30.7375 63.354164 30.26875 62.83854Q29.8 62.322914 29.01875 62.322914Q28.315624 62.322914 27.909374 62.61979L27.628124 62.854164L26.753124 62.635414ZM38.6125 63.27604Q38.6125 65.18229 37.95625 66.11979Q37.315624 67.041664 35.925 67.041664Q34.565624 67.041664 33.909374 66.135414Q33.253124 65.229164 33.221874 63.416664L33.221874 61.979164Q33.221874 60.08854 33.8625 59.18229Q34.51875 58.260414 35.909374 58.260414Q37.284374 58.260414 37.940624 59.15104Q38.596874 60.02604 38.6125 61.86979L38.6125 63.27604ZM37.51875 61.791664Q37.51875 60.416664 37.128124 59.791664Q36.753124 59.15104 35.909374 59.15104Q35.08125 59.15104 34.690624 59.791664Q34.315624 60.416664 34.315624 61.71354L34.315624 63.447914Q34.315624 64.822914 34.70625 65.49479Q35.1125 66.15104 35.925 66.15104Q36.721874 66.15104 37.1125 65.52604Q37.503124 64.90104 37.51875 63.572914L37.51875 61.791664ZM45.6125 63.27604Q45.6125 65.18229 44.95625 66.11979Q44.315624 67.041664 42.925 67.041664Q41.565624 67.041664 40.909374 66.135414Q40.253124 65.229164 40.221874 63.416664L40.221874 61.979164Q40.221874 60.08854 40.8625 59.18229Q41.51875 58.260414 42.909374 58.260414Q44.284374 58.260414 44.940624 59.15104Q45.596874 60.02604 45.6125 61.86979L45.6125 63.27604ZM44.51875 61.791664Q44.51875 60.416664 44.128124 59.791664Q43.753124 59.15104 42.909374 59.15104Q42.08125 59.15104 41.690624 59.791664Q41.315624 60.416664 41.315624 61.71354L41.315624 63.447914Q41.315624 64.822914 41.70625 65.49479Q42.1125 66.15104 42.925 66.15104Q43.721874 66.15104 44.1125 65.52604Q44.503124 64.90104 44.51875 63.572914L44.51875 61.791664ZM52.6125 63.27604Q52.6125 65.18229 51.95625 66.11979Q51.315624 67.041664 49.925 67.041664Q48.565624 67.041664 47.909374 66.135414Q47.253124 65.229164 47.221874 63.416664L47.221874 61.979164Q47.221874 60.08854 47.8625 59.18229Q48.51875 58.260414 49.909374 58.260414Q51.284374 58.260414 51.940624 59.15104Q52.596874 60.02604 52.6125 61.86979L52.6125 63.27604ZM51.51875 61.791664Q51.51875 60.416664 51.128124 59.791664Q50.753124 59.15104 49.909374 59.15104Q49.08125 59.15104 48.690624 59.791664Q48.315624 60.416664 48.315624 61.71354L48.315624 63.447914Q48.315624 64.822914 48.70625 65.49479Q49.1125 66.15104 49.925 66.15104Q50.721874 66.15104 51.1125 65.52604Q51.503124 64.90104 51.51875 63.572914L51.51875 61.791664ZM59.6125 63.27604Q59.6125 65.18229 58.95625 66.11979Q58.315624 67.041664 56.925 67.041664Q55.565624 67.041664 54.909374 66.135414Q54.253124 65.229164 54.221874 63.416664L54.221874 61.979164Q54.221874 60.08854 54.8625 59.18229Q55.51875 58.260414 56.909374 58.260414Q58.284374 58.260414 58.940624 59.15104Q59.596874 60.02604 59.6125 61.86979L59.6125 63.27604ZM58.51875 61.791664Q58.51875 60.416664 58.128124 59.791664Q57.753124 59.15104 56.909374 59.15104Q56.08125 59.15104 55.690624 59.791664Q55.315624 60.416664 55.315624 61.71354L55.315624 63.447914Q55.315624 64.822914 55.70625 65.49479Q56.1125 66.15104 56.925 66.15104Q57.721874 66.15104 58.1125 65.52604Q58.503124 64.90104 58.51875 63.572914L58.51875 61.791664ZM61.39375 66.354164Q61.39375 66.072914 61.55 65.885414Q61.721874 65.697914 62.05 65.697914Q62.39375 65.697914 62.565624 65.885414Q62.7375 66.072914 62.7375 66.354164Q62.7375 66.61979 62.565624 66.80729Q62.39375 66.979164 62.05 66.979164Q61.721874 66.979164 61.55 66.80729Q61.39375 66.61979 61.39375 66.354164ZM69.6125 63.27604Q69.6125 65.18229 68.95625 66.11979Q68.31563 67.041664 66.925 67.041664Q65.56563 67.041664 64.90938 66.135414Q64.25313 65.229164 64.22188 63.416664L64.22188 61.979164Q64.22188 60.08854 64.8625 59.18229Q65.51875 58.260414 66.90938 58.260414Q68.28438 58.260414 68.94063 59.15104Q69.59688 60.02604 69.6125 61.86979L69.6125 63.27604ZM68.51875 61.791664Q68.51875 60.416664 68.12813 59.791664Q67.75313 59.15104 66.90938 59.15104Q66.08125 59.15104 65.69063 59.791664Q65.31563 60.416664 65.31563 61.71354L65.31563 63.447914Q65.31563 64.822914 65.70625 65.49479Q66.1125 66.15104 66.925 66.15104Q67.72188 66.15104 68.1125 65.52604Q68.50313 64.90104 68.51875 63.572914L68.51875 61.791664ZM76.6125 63.27604Q76.6125 65.18229 75.95625 66.11979Q75.31563 67.041664 73.925 67.041664Q72.56563 67.041664 71.90938 66.135414Q71.25313 65.229164 71.22188 63.416664L71.22188 61.979164Q71.22188 60.08854 71.8625 59.18229Q72.51875 58.260414 73.90938 58.260414Q75.28438 58.260414 75.94063 59.15104Q76.59688 60.02604 76.6125 61.86979L76.6125 63.27604ZM75.51875 61.791664Q75.51875 60.416664 75.12813 59.791664Q74.75313 59.15104 73.90938 59.15104Q73.08125 59.15104 72.69063 59.791664Q72.31563 60.416664 72.31563 61.71354L72.31563 63.447914Q72.31563 64.822914 72.70625 65.49479Q73.1125 66.15104 73.925 66.15104Q74.72188 66.15104 75.1125 65.52604Q75.50313 64.90104 75.51875 63.572914L75.51875 61.791664Z" fill-rule="nonzero"/><path fill="#757575" d="M118.80729 322.08334L117.729164 322.08334L117.729164 314.8646L115.541664 315.66147L115.541664 314.6771L118.65104 313.50522L118.80729 313.50522L118.80729 322.08334ZM122.74479 317.8021L123.18229 313.5521L127.55729 313.5521L127.55729 314.5521L124.104164 314.5521L123.83854 316.88022Q124.479164 316.50522 125.27604 316.50522Q126.43229 316.50522 127.11979 317.28647Q127.80729 318.0521 127.80729 319.3646Q127.80729 320.6771 127.08854 321.44272Q126.385414 322.20834 125.104164 322.20834Q123.979164 322.20834 123.260414 321.58334Q122.541664 320.94272 122.447914 319.83334L123.46354 319.83334Q123.572914 320.56772 123.99479 320.94272Q124.416664 321.31772 125.104164 321.31772Q125.854164 321.31772 126.291664 320.8021Q126.729164 320.28647 126.729164 319.38022Q126.729164 318.52084 126.260414 318.00522Q125.791664 317.4896 125.010414 317.4896Q124.30729 317.4896 123.90104 317.78647L123.61979 318.02084L122.74479 317.8021ZM134.60416 318.44272Q134.60416 320.34897 133.9479 321.28647Q133.30728 322.20834 131.91666 322.20834Q130.55728 322.20834 129.90103 321.3021Q129.24478 320.39584 129.21353 318.58334L129.21353 317.14584Q129.21353 315.25522 129.85416 314.34897Q130.5104 313.4271 131.90103 313.4271Q133.27603 313.4271 133.93228 314.31772Q134.58853 315.19272 134.60416 317.03647L134.60416 318.44272ZM133.5104 316.95834Q133.5104 315.58334 133.11978 314.95834Q132.74478 314.31772 131.90103 314.31772Q131.0729 314.31772 130.68228 314.95834Q130.30728 315.58334 130.30728 316.88022L130.30728 318.6146Q130.30728 319.9896 130.6979 320.66147Q131.10416 321.31772 131.91666 321.31772Q132.71353 321.31772 133.10416 320.69272Q133.49478 320.06772 133.5104 318.7396L133.5104 316.95834Z" fill-rule="nonzero"/><path fill="#757575" d="M199.80624 317.28647L200.61874 317.28647Q201.4 317.27084 201.8375 316.88022Q202.275 316.4896 202.275 315.81772Q202.275 314.31772 200.775 314.31772Q200.07187 314.31772 199.65 314.72397Q199.24374 315.13022 199.24374 315.78647L198.15 315.78647Q198.15 314.77084 198.88437 314.09897Q199.63437 313.4271 200.775 313.4271Q201.97812 313.4271 202.66562 314.06772Q203.35312 314.70834 203.35312 315.84897Q203.35312 316.41147 202.99374 316.9271Q202.63437 317.44272 202.00937 317.70834Q202.7125 317.9271 203.0875 318.44272Q203.47812 318.95834 203.47812 319.70834Q203.47812 320.84897 202.72812 321.53647Q201.97812 322.20834 200.775 322.20834Q199.5875 322.20834 198.82187 321.5521Q198.07187 320.89584 198.07187 319.83334L199.16562 319.83334Q199.16562 320.50522 199.60312 320.91147Q200.04062 321.31772 200.79062 321.31772Q201.57187 321.31772 201.97812 320.91147Q202.4 320.4896 202.4 319.72397Q202.4 318.9896 201.94687 318.59897Q201.49374 318.19272 200.61874 318.1771L199.80624 318.1771L199.80624 317.28647ZM210.5875 318.44272Q210.5875 320.34897 209.93124 321.28647Q209.29062 322.20834 207.9 322.20834Q206.54062 322.20834 205.88437 321.3021Q205.22812 320.39584 205.19687 318.58334L205.19687 317.14584Q205.19687 315.25522 205.8375 314.34897Q206.49374 313.4271 207.88437 313.4271Q209.25937 313.4271 209.91562 314.31772Q210.57187 315.19272 210.5875 317.03647L210.5875 318.44272ZM209.49374 316.95834Q209.49374 315.58334 209.10312 314.95834Q208.72812 314.31772 207.88437 314.31772Q207.05624 314.31772 206.66562 314.95834Q206.29062 315.58334 206.29062 316.88022L206.29062 318.6146Q206.29062 319.9896 206.68124 320.66147Q207.0875 321.31772 207.9 321.31772Q208.69687 321.31772 209.0875 320.69272Q209.47812 320.06772 209.49374 318.7396L209.49374 316.95834ZM217.5875 318.44272Q217.5875 320.34897 216.93124 321.28647Q216.29062 322.20834 214.9 322.20834Q213.54062 322.20834 212.88437 321.3021Q212.22812 320.39584 212.19687 318.58334L212.19687 317.14584Q212.19687 315.25522 212.8375 314.34897Q213.49374 313.4271 214.88437 313.4271Q216.25937 313.4271 216.91562 314.31772Q217.57187 315.19272 217.5875 317.03647L217.5875 318.44272ZM216.49374 316.95834Q216.49374 315.58334 216.10312 314.95834Q215.72812 314.31772 214.88437 314.31772Q214.05624 314.31772 213.66562 314.95834Q213.29062 315.58334 213.29062 316.88022L213.29062 318.6146Q213.29062 319.9896 213.68124 320.66147Q214.0875 321.31772 214.9 321.31772Q215.69687 321.31772 216.0875 320.69272Q216.47812 320.06772 216.49374 318.7396L216.49374 316.95834Z" fill-rule="nonzero"/><path fill="#757575" d="M285.47708 313.5521L285.47708 314.45834L285.27396 314.45834Q284.00833 314.4896 283.25833 315.22397Q282.50833 315.94272 282.38333 317.25522Q283.07083 316.4896 284.22708 316.4896Q285.33646 316.4896 286.00833 317.27084Q286.6802 318.0521 286.6802 319.3021Q286.6802 320.6146 285.96146 321.41147Q285.2427 322.20834 284.02396 322.20834Q282.8052 322.20834 282.03958 321.27084Q281.28958 320.31772 281.28958 318.83334L281.28958 318.4271Q281.28958 316.06772 282.28958 314.81772Q283.28958 313.56772 285.27396 313.5521L285.47708 313.5521ZM284.0552 317.39584Q283.4927 317.39584 283.02396 317.72397Q282.5552 318.0521 282.3677 318.56772L282.3677 318.95834Q282.3677 320.02084 282.83646 320.66147Q283.32083 321.3021 284.02396 321.3021Q284.75833 321.3021 285.1802 320.77084Q285.60208 320.22397 285.60208 319.34897Q285.60208 318.47397 285.1802 317.94272Q284.75833 317.39584 284.0552 317.39584ZM293.57083 318.44272Q293.57083 320.34897 292.91458 321.28647Q292.27396 322.20834 290.88333 322.20834Q289.52396 322.20834 288.8677 321.3021Q288.21146 320.39584 288.1802 318.58334L288.1802 317.14584Q288.1802 315.25522 288.82083 314.34897Q289.47708 313.4271 290.8677 313.4271Q292.2427 313.4271 292.89896 314.31772Q293.5552 315.19272 293.57083 317.03647L293.57083 318.44272ZM292.47708 316.95834Q292.47708 315.58334 292.08646 314.95834Q291.71146 314.31772 290.8677 314.31772Q290.03958 314.31772 289.64896 314.95834Q289.27396 315.58334 289.27396 316.88022L289.27396 318.6146Q289.27396 319.9896 289.66458 320.66147Q290.07083 321.31772 290.88333 321.31772Q291.6802 321.31772 292.07083 320.69272Q292.46146 320.06772 292.47708 318.7396L292.47708 316.95834ZM300.57083 318.44272Q300.57083 320.34897 299.91458 321.28647Q299.27396 322.20834 297.88333 322.20834Q296.52396 322.20834 295.8677 321.3021Q295.21146 320.39584 295.1802 318.58334L295.1802 317.14584Q295.1802 315.25522 295.82083 314.34897Q296.47708 313.4271 297.8677 313.4271Q299.2427 313.4271 299.89896 314.31772Q300.5552 315.19272 300.57083 317.03647L300.57083 318.44272ZM299.47708 316.95834Q299.47708 315.58334 299.08646 314.95834Q298.71146 314.31772 297.8677 314.31772Q297.03958 314.31772 296.64896 314.95834Q296.27396 315.58334 296.27396 316.88022L296.27396 318.6146Q296.27396 319.9896 296.66458 320.66147Q297.07083 321.31772 297.88333 321.31772Q298.6802 321.31772 299.07083 320.69272Q299.46146 320.06772 299.47708 318.7396L299.47708 316.95834Z" fill-rule="nonzero"/><path fill="#757575" d="M368.35104 318.33334Q368.02292 318.7396 367.53854 318.9896Q367.0698 319.22397 366.5073 319.22397Q365.77292 319.22397 365.22604 318.8646Q364.67917 318.50522 364.3823 317.84897Q364.08542 317.1771 364.08542 316.38022Q364.08542 315.53647 364.39792 314.84897Q364.72604 314.16147 365.3198 313.8021Q365.92917 313.4271 366.72604 313.4271Q367.99167 313.4271 368.71042 314.38022Q369.4448 315.33334 369.4448 316.95834L369.4448 317.27084Q369.4448 319.77084 368.46042 320.91147Q367.47604 322.0521 365.49167 322.08334L365.27292 322.08334L365.27292 321.1771L365.5073 321.1771Q366.85104 321.14584 367.5698 320.47397Q368.28854 319.8021 368.35104 318.33334ZM366.67917 318.33334Q367.22604 318.33334 367.67917 318.00522Q368.14792 317.66147 368.36667 317.1771L368.36667 316.7396Q368.36667 315.6771 367.89792 315.00522Q367.42917 314.33334 366.72604 314.33334Q366.0073 314.33334 365.5698 314.88022Q365.14792 315.4271 365.14792 316.33334Q365.14792 317.20834 365.55417 317.77084Q365.97604 318.33334 366.67917 318.33334ZM376.55417 318.44272Q376.55417 320.34897 375.89792 321.28647Q375.2573 322.20834 373.86667 322.20834Q372.5073 322.20834 371.85104 321.3021Q371.1948 320.39584 371.16354 318.58334L371.16354 317.14584Q371.16354 315.25522 371.80417 314.34897Q372.46042 313.4271 373.85104 313.4271Q375.22604 313.4271 375.8823 314.31772Q376.53854 315.19272 376.55417 317.03647L376.55417 318.44272ZM375.46042 316.95834Q375.46042 315.58334 375.0698 314.95834Q374.6948 314.31772 373.85104 314.31772Q373.02292 314.31772 372.6323 314.95834Q372.2573 315.58334 372.2573 316.88022L372.2573 318.6146Q372.2573 319.9896 372.64792 320.66147Q373.05417 321.31772 373.86667 321.31772Q374.66354 321.31772 375.05417 320.69272Q375.4448 320.06772 375.46042 318.7396L375.46042 316.95834ZM383.55417 318.44272Q383.55417 320.34897 382.89792 321.28647Q382.2573 322.20834 380.86667 322.20834Q379.5073 322.20834 378.85104 321.3021Q378.1948 320.39584 378.16354 318.58334L378.16354 317.14584Q378.16354 315.25522 378.80417 314.34897Q379.46042 313.4271 380.85104 313.4271Q382.22604 313.4271 382.8823 314.31772Q383.53854 315.19272 383.55417 317.03647L383.55417 318.44272ZM382.46042 316.95834Q382.46042 315.58334 382.0698 314.95834Q381.6948 314.31772 380.85104 314.31772Q380.02292 314.31772 379.6323 314.95834Q379.2573 315.58334 379.2573 316.88022L379.2573 318.6146Q379.2573 319.9896 379.64792 320.66147Q380.05417 321.31772 380.86667 321.31772Q381.66354 321.31772 382.05417 320.69272Q382.4448 320.06772 382.46042 318.7396L382.46042 316.95834Z" fill-rule="nonzero"/><path fill="#757575" d="M447.24063 322.08334L446.1625 322.08334L446.1625 314.8646L443.975 315.66147L443.975 314.6771L447.08438 313.50522L447.24063 313.50522L447.24063 322.08334ZM456.27188 322.08334L450.67813 322.08334L450.67813 321.3021L453.63126 318.02084Q454.2875 317.27084 454.5375 316.81772Q454.7875 316.34897 454.7875 315.84897Q454.7875 315.1771 454.38126 314.75522Q453.99063 314.31772 453.30313 314.31772Q452.50626 314.31772 452.05313 314.78647Q451.6 315.2396 451.6 316.06772L450.52188 316.06772Q450.52188 314.88022 451.27188 314.16147Q452.0375 313.4271 453.30313 313.4271Q454.50626 313.4271 455.19376 314.0521Q455.88126 314.6771 455.88126 315.72397Q455.88126 316.97397 454.27188 318.72397L451.99063 321.19272L456.27188 321.19272L456.27188 322.08334ZM463.0375 318.44272Q463.0375 320.34897 462.38126 321.28647Q461.74063 322.20834 460.35 322.20834Q458.99063 322.20834 458.33438 321.3021Q457.67813 320.39584 457.64688 318.58334L457.64688 317.14584Q457.64688 315.25522 458.2875 314.34897Q458.94376 313.4271 460.33438 313.4271Q461.70938 313.4271 462.36563 314.31772Q463.02188 315.19272 463.0375 317.03647L463.0375 318.44272ZM461.94376 316.95834Q461.94376 315.58334 461.55313 314.95834Q461.17813 314.31772 460.33438 314.31772Q459.50626 314.31772 459.11563 314.95834Q458.74063 315.58334 458.74063 316.88022L458.74063 318.6146Q458.74063 319.9896 459.13126 320.66147Q459.5375 321.31772 460.35 321.31772Q461.14688 321.31772 461.5375 320.69272Q461.92813 320.06772 461.94376 318.7396L461.94376 316.95834ZM470.0375 318.44272Q470.0375 320.34897 469.38126 321.28647Q468.74063 322.20834 467.35 322.20834Q465.99063 322.20834 465.33438 321.3021Q464.67813 320.39584 464.64688 318.58334L464.64688 317.14584Q464.64688 315.25522 465.2875 314.34897Q465.94376 313.4271 467.33438 313.4271Q468.70938 313.4271 469.36563 314.31772Q470.02188 315.19272 470.0375 317.03647L470.0375 318.44272ZM468.94376 316.95834Q468.94376 315.58334 468.55313 314.95834Q468.17813 314.31772 467.33438 314.31772Q466.50626 314.31772 466.11563 314.95834Q465.74063 315.58334 465.74063 316.88022L465.74063 318.6146Q465.74063 319.9896 466.13126 320.66147Q466.5375 321.31772 467.35 321.31772Q468.14688 321.31772 468.5375 320.69272Q468.92813 320.06772 468.94376 318.7396L468.94376 316.95834Z" fill-rule="nonzero"/><path fill="#757575" d="M530.22394 322.08334L529.1458 322.08334L529.1458 314.8646L526.9583 315.66147L526.9583 314.6771L530.0677 313.50522L530.22394 313.50522L530.22394 322.08334ZM534.16144 317.8021L534.59894 313.5521L538.97394 313.5521L538.97394 314.5521L535.5208 314.5521L535.2552 316.88022Q535.8958 316.50522 536.6927 316.50522Q537.84894 316.50522 538.53644 317.28647Q539.22394 318.0521 539.22394 319.3646Q539.22394 320.6771 538.5052 321.44272Q537.80206 322.20834 536.5208 322.20834Q535.3958 322.20834 534.67706 321.58334Q533.9583 320.94272 533.86456 319.83334L534.8802 319.83334Q534.98956 320.56772 535.41144 320.94272Q535.8333 321.31772 536.5208 321.31772Q537.2708 321.31772 537.7083 320.8021Q538.1458 320.28647 538.1458 319.38022Q538.1458 318.52084 537.67706 318.00522Q537.2083 317.4896 536.42706 317.4896Q535.72394 317.4896 535.3177 317.78647L535.03644 318.02084L534.16144 317.8021ZM546.0208 318.44272Q546.0208 320.34897 545.36456 321.28647Q544.72394 322.20834 543.3333 322.20834Q541.97394 322.20834 541.3177 321.3021Q540.66144 320.39584 540.6302 318.58334L540.6302 317.14584Q540.6302 315.25522 541.2708 314.34897Q541.92706 313.4271 543.3177 313.4271Q544.6927 313.4271 545.34894 314.31772Q546.0052 315.19272 546.0208 317.03647L546.0208 318.44272ZM544.92706 316.95834Q544.92706 315.58334 544.53644 314.95834Q544.16144 314.31772 543.3177 314.31772Q542.48956 314.31772 542.09894 314.95834Q541.72394 315.58334 541.72394 316.88022L541.72394 318.6146Q541.72394 319.9896 542.11456 320.66147Q542.5208 321.31772 543.3333 321.31772Q544.1302 321.31772 544.5208 320.69272Q544.91144 320.06772 544.92706 318.7396L544.92706 316.95834ZM553.0208 318.44272Q553.0208 320.34897 552.36456 321.28647Q551.72394 322.20834 550.3333 322.20834Q548.97394 322.20834 548.3177 321.3021Q547.66144 320.39584 547.6302 318.58334L547.6302 317.14584Q547.6302 315.25522 548.2708 314.34897Q548.92706 313.4271 550.3177 313.4271Q551.6927 313.4271 552.34894 314.31772Q553.0052 315.19272 553.0208 317.03647L553.0208 318.44272ZM551.92706 316.95834Q551.92706 315.58334 551.53644 314.95834Q551.16144 314.31772 550.3177 314.31772Q549.48956 314.31772 549.09894 314.95834Q548.72394 315.58334 548.72394 316.88022L548.72394 318.6146Q548.72394 319.9896 549.11456 320.66147Q549.5208 321.31772 550.3333 321.31772Q551.1302 321.31772 551.5208 320.69272Q551.91144 320.06772 551.92706 318.7396L551.92706 316.95834Z" fill-rule="nonzero"/><path stroke="#4285f4" stroke-width="4.0" stroke-linecap="butt" d="M249.5 344.95L261.5 344.95" fill-rule="nonzero"/><path fill="#757575" d="M270.03125 346.21564Q270.03125 345.29376 270.39062 344.54376Q270.76562 343.79376 271.42188 343.40314Q272.07812 342.9969 272.90625 342.9969Q274.20312 342.9969 275.0 343.8875Q275.8125 344.77814 275.8125 346.27814L275.8125 346.35626Q275.8125 347.27814 275.45312 348.0125Q275.09375 348.7469 274.4375 349.16876Q273.78125 349.575 272.92188 349.575Q271.64062 349.575 270.82812 348.6844Q270.03125 347.77814 270.03125 346.29376L270.03125 346.21564ZM271.125 346.35626Q271.125 347.40314 271.60938 348.04376Q272.10938 348.6844 272.92188 348.6844Q273.75 348.6844 274.23438 348.04376Q274.71875 347.3875 274.71875 346.21564Q274.71875 345.1844 274.21875 344.54376Q273.73438 343.8875 272.90625 343.8875Q272.10938 343.8875 271.60938 344.52814Q271.125 345.15314 271.125 346.35626ZM278.5 349.45L277.42188 349.45L277.42188 340.45L278.5 340.45L278.5 349.45ZM281.79688 341.575L281.79688 343.10626L282.96875 343.10626L282.96875 343.95L281.79688 343.95L281.79688 347.8719Q281.79688 348.2625 281.95312 348.45Q282.10938 348.6375 282.48438 348.6375Q282.67188 348.6375 283.0 348.575L283.0 349.45Q282.57812 349.575 282.17188 349.575Q281.45312 349.575 281.07812 349.1375Q280.70312 348.6844 280.70312 347.8719L280.70312 343.95L279.54688 343.95L279.54688 343.10626L280.70312 343.10626L280.70312 341.575L281.79688 341.575ZM289.67188 346.35626Q289.67188 347.79376 289.01562 348.6844Q288.35938 349.575 287.21875 349.575Q286.0625 349.575 285.40625 348.84064L285.40625 351.8875L284.32812 351.8875L284.32812 343.10626L285.3125 343.10626L285.35938 343.8094Q286.03125 342.9969 287.20312 342.9969Q288.34375 342.9969 289.0 343.85626Q289.67188 344.71564 289.67188 346.2469L289.67188 346.35626ZM288.59375 346.23126Q288.59375 345.15314 288.125 344.54376Q287.67188 343.91876 286.875 343.91876Q285.89062 343.91876 285.40625 344.77814L285.40625 347.8094Q285.89062 348.6844 286.89062 348.6844Q287.67188 348.6844 288.125 348.075Q288.59375 347.45 288.59375 346.23126ZM295.89062 350.34064L290.53125 350.34064L290.53125 349.45L295.89062 349.45L295.89062 350.34064ZM299.39062 344.075Q299.14062 344.04376 298.85938 344.04376Q297.78125 344.04376 297.40625 344.95L297.40625 349.45L296.32812 349.45L296.32812 343.10626L297.375 343.10626L297.39062 343.84064Q297.92188 342.9969 298.90625 342.9969Q299.21875 342.9969 299.39062 343.075L299.39062 344.075ZM302.95312 349.575Q301.65625 349.575 300.84375 348.73126Q300.04688 347.8719 300.04688 346.45L300.04688 346.2625Q300.04688 345.3094 300.40625 344.575Q300.76562 343.825 301.40625 343.41876Q302.0625 342.9969 302.8125 342.9969Q304.04688 342.9969 304.73438 343.8094Q305.42188 344.6219 305.42188 346.1375L305.42188 346.59064L301.125 346.59064Q301.15625 347.52814 301.67188 348.10626Q302.20312 348.6844 303.01562 348.6844Q303.57812 348.6844 303.96875 348.45Q304.375 348.21564 304.6875 347.825L305.34375 348.34064Q304.54688 349.575 302.95312 349.575ZM302.8125 343.8875Q302.15625 343.8875 301.70312 344.3719Q301.26562 344.84064 301.17188 345.7L304.34375 345.7L304.34375 345.6219Q304.29688 344.79376 303.89062 344.34064Q303.5 343.8875 302.8125 343.8875ZM310.23438 349.45Q310.14062 349.2625 310.07812 348.77814Q309.32812 349.575 308.28125 349.575Q307.34375 349.575 306.73438 349.04376Q306.14062 348.5125 306.14062 347.6844Q306.14062 346.7 306.89062 346.15314Q307.64062 345.60626 309.01562 345.60626L310.0625 345.60626L310.0625 345.10626Q310.0625 344.54376 309.71875 344.21564Q309.39062 343.8719 308.71875 343.8719Q308.14062 343.8719 307.75 344.16876Q307.35938 344.45 307.35938 344.8719L306.26562 344.8719Q306.26562 344.3875 306.59375 343.95Q306.9375 343.5125 307.51562 343.2625Q308.09375 342.9969 308.78125 342.9969Q309.89062 342.9969 310.5 343.54376Q311.125 344.09064 311.15625 345.04376L311.15625 347.96564Q311.15625 348.84064 311.375 349.35626L311.375 349.45L310.23438 349.45ZM308.4375 348.6219Q308.95312 348.6219 309.40625 348.35626Q309.85938 348.09064 310.0625 347.66876L310.0625 346.3719L309.21875 346.3719Q307.21875 346.3719 307.21875 347.54376Q307.21875 348.04376 307.5625 348.34064Q307.90625 348.6219 308.4375 348.6219ZM313.0625 346.23126Q313.0625 344.7625 313.75 343.8875Q314.4375 342.9969 315.5625 342.9969Q316.67188 342.9969 317.32812 343.7469L317.32812 340.45L318.40625 340.45L318.40625 349.45L317.40625 349.45L317.35938 348.7625Q316.70312 349.575 315.54688 349.575Q314.45312 349.575 313.75 348.66876Q313.0625 347.7625 313.0625 346.3094L313.0625 346.23126ZM314.14062 346.35626Q314.14062 347.4344 314.57812 348.04376Q315.03125 348.65314 315.8125 348.65314Q316.84375 348.65314 317.32812 347.71564L317.32812 344.8094Q316.84375 343.91876 315.82812 343.91876Q315.03125 343.91876 314.57812 344.52814Q314.14062 345.1375 314.14062 346.35626ZM324.89062 350.34064L319.53125 350.34064L319.53125 349.45L324.89062 349.45L324.89062 350.34064ZM330.9375 347.95L332.15625 343.10626L333.23438 343.10626L331.39062 349.45L330.51562 349.45L328.96875 344.6375L327.46875 349.45L326.59375 349.45L324.75 343.10626L325.82812 343.10626L327.07812 347.85626L328.5625 343.10626L329.42188 343.10626L330.9375 347.95ZM337.39062 344.075Q337.14062 344.04376 336.85938 344.04376Q335.78125 344.04376 335.40625 344.95L335.40625 349.45L334.32812 349.45L334.32812 343.10626L335.375 343.10626L335.39062 343.84064Q335.92188 342.9969 336.90625 342.9969Q337.21875 342.9969 337.39062 343.075L337.39062 344.075ZM339.5 349.45L338.42188 349.45L338.42188 343.10626L339.5 343.10626L339.5 349.45ZM338.32812 341.4344Q338.32812 341.16876 338.48438 340.98126Q338.65625 340.79376 338.96875 340.79376Q339.28125 340.79376 339.4375 340.98126Q339.60938 341.16876 339.60938 341.4344Q339.60938 341.6844 339.4375 341.8719Q339.28125 342.04376 338.96875 342.04376Q338.65625 342.04376 338.48438 341.8719Q338.32812 341.6844 338.32812 341.4344ZM342.79688 341.575L342.79688 343.10626L343.96875 343.10626L343.96875 343.95L342.79688 343.95L342.79688 347.8719Q342.79688 348.2625 342.95312 348.45Q343.10938 348.6375 343.48438 348.6375Q343.67188 348.6375 344.0 348.575L344.0 349.45Q343.57812 349.575 343.17188 349.575Q342.45312 349.575 342.07812 349.1375Q341.70312 348.6844 341.70312 347.8719L341.70312 343.95L340.54688 343.95L340.54688 343.10626L341.70312 343.10626L341.70312 341.575L342.79688 341.575ZM347.95312 349.575Q346.65625 349.575 345.84375 348.73126Q345.04688 347.8719 345.04688 346.45L345.04688 346.2625Q345.04688 345.3094 345.40625 344.575Q345.76562 343.825 346.40625 343.41876Q347.0625 342.9969 347.8125 342.9969Q349.04688 342.9969 349.73438 343.8094Q350.42188 344.6219 350.42188 346.1375L350.42188 346.59064L346.125 346.59064Q346.15625 347.52814 346.67188 348.10626Q347.20312 348.6844 348.01562 348.6844Q348.57812 348.6844 348.96875 348.45Q349.375 348.21564 349.6875 347.825L350.34375 348.34064Q349.54688 349.575 347.95312 349.575ZM347.8125 343.8875Q347.15625 343.8875 346.70312 344.3719Q346.26562 344.84064 346.17188 345.7L349.34375 345.7L349.34375 345.6219Q349.29688 344.79376 348.89062 344.34064Q348.5 343.8875 347.8125 343.8875Z" fill-rule="nonzero"/><path fill="#757575" d="M31.14375 30.89375Q31.14375 32.9875 30.440624 34.55Q29.7375 36.096874 28.440624 36.925Q27.159374 37.753124 25.440624 37.753124Q23.753124 37.753124 22.45625 36.925Q21.159374 36.096874 20.440624 34.565624Q19.721874 33.034374 19.70625 31.01875L19.70625 30.003124Q19.70625 27.95625 20.409374 26.378124Q21.128124 24.8 22.425 23.971874Q23.7375 23.128124 25.409374 23.128124Q27.128124 23.128124 28.425 23.95625Q29.7375 24.784374 30.440624 26.3625Q31.14375 27.925 31.14375 30.003124L31.14375 30.89375ZM29.26875 29.9875Q29.26875 27.45625 28.253124 26.1125Q27.2375 24.753124 25.409374 24.753124Q23.64375 24.753124 22.6125 26.1125Q21.596874 27.45625 21.565624 29.846874L21.565624 30.89375Q21.565624 33.346874 22.596874 34.753124Q23.628124 36.159374 25.440624 36.159374Q27.253124 36.159374 28.2375 34.83125Q29.2375 33.503124 29.26875 31.034374L29.26875 29.9875ZM36.08125 36.01875L42.83125 36.01875L42.83125 37.55L34.20625 37.55L34.20625 23.33125L36.08125 23.33125L36.08125 36.01875ZM55.01875 24.878124L50.45625 24.878124L50.45625 37.55L48.596874 37.55L48.596874 24.878124L44.034374 24.878124L44.034374 23.33125L55.01875 23.33125L55.01875 24.878124ZM59.08125 31.9875L59.08125 37.55L57.20625 37.55L57.20625 23.33125L62.440624 23.33125Q64.78438 23.33125 66.09688 24.51875Q67.425 25.70625 67.425 27.675Q67.425 29.753124 66.12813 30.878124Q64.83125 31.9875 62.425 31.9875L59.08125 31.9875ZM59.08125 30.45625L62.440624 30.45625Q63.95625 30.45625 64.75313 29.753124Q65.55 29.034374 65.55 27.690624Q65.55 26.425 64.75313 25.675Q63.95625 24.909374 62.55 24.878124L59.08125 24.878124L59.08125 30.45625ZM80.40938 31.8L77.08125 31.8L77.08125 37.55L75.19063 37.55L75.19063 23.33125L79.89375 23.33125Q82.3 23.33125 83.59688 24.425Q84.89375 25.51875 84.89375 27.6125Q84.89375 28.940624 84.175 29.925Q83.45625 30.909374 82.175 31.39375L85.51875 37.425L85.51875 37.55L83.50313 37.55L80.40938 31.8ZM77.08125 30.26875L79.95625 30.26875Q81.34688 30.26875 82.175 29.55Q83.00313 28.815624 83.00313 27.6125Q83.00313 26.284374 82.20625 25.58125Q81.425 24.878124 79.94063 24.878124L77.08125 24.878124L77.08125 30.26875ZM91.3 37.753124Q89.15938 37.753124 87.8 36.346874Q86.45625 34.925 86.45625 32.565624L86.45625 32.221874Q86.45625 30.659374 87.05 29.425Q87.65938 28.190624 88.7375 27.4875Q89.81563 26.784374 91.08125 26.784374Q93.14375 26.784374 94.28438 28.14375Q95.425 29.503124 95.425 32.034374L95.425 32.784374L88.26875 32.784374Q88.3 34.346874 89.175 35.315624Q90.05 36.26875 91.39375 36.26875Q92.3625 36.26875 93.01875 35.878124Q93.69063 35.4875 94.19063 34.846874L95.28438 35.70625Q93.95625 37.753124 91.3 37.753124ZM91.08125 28.26875Q89.9875 28.26875 89.2375 29.065624Q88.50313 29.8625 88.33125 31.3L93.6125 31.3L93.6125 31.159374Q93.53438 29.784374 92.8625 29.034374Q92.20625 28.26875 91.08125 28.26875ZM104.44063 37.55Q104.28438 37.2375 104.19063 36.440624Q102.925 37.753124 101.175 37.753124Q99.6125 37.753124 98.6125 36.8625Q97.6125 35.971874 97.6125 34.6125Q97.6125 32.971874 98.8625 32.065624Q100.12813 31.14375 102.39375 31.14375L104.15938 31.14375L104.15938 30.315624Q104.15938 29.3625 103.58125 28.8Q103.01875 28.2375 101.925 28.2375Q100.95625 28.2375 100.3 28.7375Q99.64375 29.221874 99.64375 29.909374L97.83125 29.909374Q97.83125 29.128124 98.39375 28.39375Q98.95625 27.64375 99.90938 27.221874Q100.87813 26.784374 102.03438 26.784374Q103.8625 26.784374 104.89375 27.70625Q105.925 28.6125 105.97188 30.221874L105.97188 35.08125Q105.97188 36.534374 106.33125 37.39375L106.33125 37.55L104.44063 37.55ZM101.44063 36.175Q102.3 36.175 103.05 35.7375Q103.81563 35.3 104.15938 34.596874L104.15938 32.425L102.7375 32.425Q99.425 32.425 99.425 34.3625Q99.425 35.221874 99.9875 35.70625Q100.55 36.175 101.44063 36.175ZM108.47188 32.175Q108.47188 29.753124 109.62813 28.26875Q110.78438 26.784374 112.64375 26.784374Q114.50313 26.784374 115.58125 28.05L115.58125 22.55L117.39375 22.55L117.39375 37.55L115.7375 37.55L115.64375 36.409374Q114.56563 37.753124 112.62813 37.753124Q110.8 37.753124 109.62813 36.253124Q108.47188 34.7375 108.47188 32.315624L108.47188 32.175ZM110.28438 32.378124Q110.28438 34.175 111.01875 35.190624Q111.76875 36.20625 113.08125 36.20625Q114.8 36.20625 115.58125 34.675L115.58125 29.815624Q114.78438 28.315624 113.09688 28.315624Q111.76875 28.315624 111.01875 29.346874Q110.28438 30.378124 110.28438 32.378124ZM128.26875 33.065624L128.53438 34.940624L128.94063 33.253124L131.75313 23.33125L133.33125 23.33125L136.08125 33.253124L136.47188 34.971874L136.76875 33.05L138.9875 23.33125L140.8625 23.33125L137.425 37.55L135.70625 37.55L132.78438 27.190624L132.55 26.096874L132.33125 27.190624L129.3 37.55L127.58125 37.55L124.14375 23.33125L126.01875 23.33125L128.26875 33.065624ZM148.01875 28.596874Q147.6125 28.534374 147.14375 28.534374Q145.3625 28.534374 144.72188 30.05L144.72188 37.55L142.925 37.55L142.925 26.9875L144.675 26.9875L144.70625 28.20625Q145.59688 26.784374 147.22188 26.784374Q147.75313 26.784374 148.01875 26.925L148.01875 28.596874ZM151.87813 37.55L150.08125 37.55L150.08125 26.9875L151.87813 26.9875L151.87813 37.55ZM149.925 24.175Q149.925 23.7375 150.19063 23.440624Q150.47188 23.128124 150.9875 23.128124Q151.51875 23.128124 151.78438 23.440624Q152.06563 23.7375 152.06563 24.175Q152.06563 24.6125 151.78438 24.909374Q151.51875 25.20625 150.9875 25.20625Q150.47188 25.20625 150.19063 24.909374Q149.925 24.6125 149.925 24.175ZM157.3625 24.425L157.3625 26.9875L159.34688 26.9875L159.34688 28.378124L157.3625 28.378124L157.3625 34.925Q157.3625 35.565624 157.62813 35.89375Q157.89375 36.20625 158.53438 36.20625Q158.84688 36.20625 159.39375 36.08125L159.39375 37.55Q158.675 37.753124 158.00313 37.753124Q156.8 37.753124 156.175 37.01875Q155.56563 36.284374 155.56563 34.925L155.56563 28.378124L153.64375 28.378124L153.64375 26.9875L155.56563 26.9875L155.56563 24.425L157.3625 24.425ZM166.3 37.753124Q164.15938 37.753124 162.8 36.346874Q161.45625 34.925 161.45625 32.565624L161.45625 32.221874Q161.45625 30.659374 162.05 29.425Q162.65938 28.190624 163.7375 27.4875Q164.81563 26.784374 166.08125 26.784374Q168.14375 26.784374 169.28438 28.14375Q170.425 29.503124 170.425 32.034374L170.425 32.784374L163.26875 32.784374Q163.3 34.346874 164.175 35.315624Q165.05 36.26875 166.39375 36.26875Q167.3625 36.26875 168.01875 35.878124Q168.69063 35.4875 169.19063 34.846874L170.28438 35.70625Q168.95625 37.753124 166.3 37.753124ZM166.08125 28.26875Q164.9875 28.26875 164.2375 29.065624Q163.50313 29.8625 163.33125 31.3L168.6125 31.3L168.6125 31.159374Q168.53438 29.784374 167.8625 29.034374Q167.20625 28.26875 166.08125 28.26875ZM181.675 32.253124L176.90938 32.253124L176.90938 30.76875L181.675 30.76875L181.675 32.253124ZM200.06563 30.89375Q200.06563 32.95625 199.40938 34.45625Q198.75313 35.940624 197.56563 36.784374L200.1125 38.76875L198.83125 39.95625L195.83125 37.565624Q195.12813 37.753124 194.34688 37.753124Q192.675 37.753124 191.3625 36.925Q190.06563 36.096874 189.34688 34.565624Q188.62813 33.034374 188.6125 31.01875L188.6125 30.003124Q188.6125 27.95625 189.31563 26.378124Q190.03438 24.8 191.33125 23.971874Q192.64375 23.128124 194.33125 23.128124Q196.05 23.128124 197.34688 23.971874Q198.65938 24.8 199.3625 26.3625Q200.06563 27.909374 200.06563 29.9875L200.06563 30.89375ZM198.19063 29.9875Q198.19063 27.471874 197.19063 26.1125Q196.19063 24.753124 194.33125 24.753124Q192.56563 24.753124 191.53438 26.1125Q190.51875 27.45625 190.4875 29.846874L190.4875 30.89375Q190.4875 33.346874 191.50313 34.753124Q192.53438 36.159374 194.34688 36.159374Q196.15938 36.159374 197.15938 34.83125Q198.15938 33.503124 198.19063 31.034374L198.19063 29.9875ZM205.08125 31.9875L205.08125 37.55L203.20625 37.55L203.20625 23.33125L208.44063 23.33125Q210.78438 23.33125 212.09688 24.51875Q213.425 25.70625 213.425 27.675Q213.425 29.753124 212.12813 30.878124Q210.83125 31.9875 208.425 31.9875L205.08125 31.9875ZM205.08125 30.45625L208.44063 30.45625Q209.95625 30.45625 210.75313 29.753124Q211.55 29.034374 211.55 27.690624Q211.55 26.425 210.75313 25.675Q209.95625 24.909374 208.55 24.878124L205.08125 24.878124L205.08125 30.45625ZM220.39375 31.20625Q217.97188 30.51875 216.87813 29.51875Q215.78438 28.503124 215.78438 27.01875Q215.78438 25.33125 217.12813 24.2375Q218.47188 23.128124 220.6125 23.128124Q222.08125 23.128124 223.22188 23.70625Q224.37813 24.26875 225.00313 25.26875Q225.62813 26.253124 225.62813 27.440624L223.75313 27.440624Q223.75313 26.159374 222.925 25.425Q222.1125 24.675 220.6125 24.675Q219.22188 24.675 218.44063 25.284374Q217.675 25.89375 217.675 26.9875Q217.675 27.846874 218.40938 28.45625Q219.14375 29.05 220.90938 29.55Q222.69063 30.05 223.69063 30.659374Q224.69063 31.253124 225.175 32.05Q225.65938 32.846874 225.65938 33.940624Q225.65938 35.659374 224.31563 36.70625Q222.97188 37.753124 220.70625 37.753124Q219.25313 37.753124 217.97188 37.190624Q216.70625 36.628124 216.01875 35.659374Q215.33125 34.675 215.33125 33.425L217.22188 33.425Q217.22188 34.721874 218.175 35.471874Q219.12813 36.20625 220.70625 36.20625Q222.19063 36.20625 222.9875 35.6125Q223.78438 35.003124 223.78438 33.95625Q223.78438 32.909374 223.05 32.346874Q222.31563 31.76875 220.39375 31.20625Z" fill-rule="nonzero"/></svg>