<svg version="1.1" viewBox="0.0 0.0 600.0 371.0" fill="none" stroke="none" stroke-linecap="square" stroke-miterlimit="10" width="600" height="371" xmlns:xlink="http://www.w3.org/1999/xlink" xmlns="http://www.w3.org/2000/svg"><path fill="#ffffff" d="M0 0L600.0 0L600.0 371.0L0 371.0L0 0Z" fill-rule="nonzero"/><path stroke="#333333" stroke-width="1.0" stroke-linecap="butt" d="M62.5 304.5L581.5 304.5" fill-rule="nonzero"/><path stroke="#cccccc" stroke-width="1.0" stroke-linecap="butt" d="M62.5 255.5L581.5 255.5" fill-rule="nonzero"/><path stroke="#cccccc" stroke-width="1.0" stroke-linecap="butt" d="M62.5 207.5L581.5 207.5" fill-rule="nonzero"/><path stroke="#cccccc" stroke-width="1.0" stroke-linecap="butt" d="M62.5 159.5L581.5 159.5" fill-rule="nonzero"/><path stroke="#cccccc" stroke-width="1.0" stroke-linecap="butt" d="M62.5 110.5L581.5 110.5" fill-rule="nonzero"/><path stroke="#cccccc" stroke-width="1.0" stroke-linecap="butt" d="M62.5 62.5L581.5 62.5" fill-rule="nonzero"/><clipPath id="id_0"><path d="M62.55 62.416668L581.45 62.416668L581.45 304.08334L62.55 304.08334L62.55 62.416668Z" clip-rule="nonzero"/></clipPath><path stroke="#4285f4" stroke-width="2.0" stroke-linecap="butt" clip-path="url(#id_0)" d="M105.791664 245.58067L192.275 234.01933L278.75833 210.626L365.24167 179.44133L451.725 128.57533L538.2083 74.17133" fill-rule="nonzero"/><path fill="#000000" fill-opacity="0.0" clip-path="url(#id_0)" d="M108.791664 245.58067C108.791664 247.23752 107.448524 248.58067 105.791664 248.58067C104.13481 248.58067 102.791664 247.23752 102.791664 245.58067C102.791664 243.92381 104.13481 242.58067 105.791664 242.58067C107.448524 242.58067 108.791664 243.92381 108.791664 245.58067Z" fill-rule="nonzero"/><path fill="#000000" fill-opacity="0.0" clip-path="url(#id_0)" d="M195.275 234.01933C195.275 235.6762 193.93185 237.01933 192.275 237.01933C190.61815 237.01933 189.275 235.6762 189.275 234.01933C189.275 232.36247 190.61815 231.01933 192.275 231.01933C193.93185 231.01933 195.275 232.36247 195.275 234.01933Z" fill-rule="nonzero"/><path fill="#000000" fill-opacity="0.0" clip-path="url(#id_0)" d="M281.75833 210.626C281.75833 212.28285 280.4152 213.626 278.75833 213.626C277.10147 213.626 275.75833 212.28285 275.75833 210.626C275.75833 208.96915 277.10147 207.626 278.75833 207.626C280.4152 207.626 281.75833 208.96915 281.75833 210.626Z" fill-rule="nonzero"/><path fill="#000000" fill-opacity="0.0" clip-path="url(#id_0)" d="M368.24167 179.44133C368.24167 181.09819 366.89853 182.44133 365.24167 182.44133C363.5848 182.44133 362.24167 181.09819 362.24167 179.44133C362.24167 177.78448 363.5848 176.44133 365.24167 176.44133C366.89853 176.44133 368.24167 177.78448 368.24167 179.44133Z" fill-rule="nonzero"/><path fill="#000000" fill-opacity="0.0" clip-path="url(#id_0)" d="M454.725 128.57533C454.725 130.2322 453.38187 131.57533 451.725 131.57533C450.06815 131.57533 448.725 130.2322 448.725 128.57533C448.725 126.91848 450.06815 125.57533 451.725 125.57533C453.38187 125.57533 454.725 126.91848 454.725 128.57533Z" fill-rule="nonzero"/><path fill="#000000" fill-opacity="0.0" clip-path="url(#id_0)" d="M541.2083 74.17133C541.2083 75.828186 539.8652 77.17133 538.2083 77.17133C536.55145 77.17133 535.2083 75.828186 535.2083 74.17133C535.2083 72.51448 536.55145 71.17133 538.2083 71.17133C539.8652 71.17133 541.2083 72.51448 541.2083 74.17133Z" fill-rule="nonzero"/><path fill="#757575" d="M38.6125 304.94272Q38.6125 306.84897 37.95625 307.78647Q37.315624 308.70834 35.925 308.70834Q34.565624 308.70834 33.909374 307.8021Q33.253124 306.89584 33.221874 305.08334L33.221874 303.64584Q33.221874 301.75522 33.8625 300.84897Q34.51875 299.9271 35.909374 299.9271Q37.284374 299.9271 37.940624 300.81772Q38.596874 301.69272 38.6125 303.53647L38.6125 304.94272ZM37.51875 303.45834Q37.51875 302.08334 37.128124 301.45834Q36.753124 300.81772 35.909374 300.81772Q35.08125 300.81772 34.690624 301.45834Q34.315624 302.08334 34.315624 303.38022L34.315624 305.1146Q34.315624 306.4896 34.70625 307.16147Q35.1125 307.81772 35.925 307.81772Q36.721874 307.81772 37.1125 307.19272Q37.503124 306.56772 37.51875 305.2396L37.51875 303.45834ZM40.39375 308.02084Q40.39375 307.7396 40.55 307.5521Q40.721874 307.3646 41.05 307.3646Q41.39375 307.3646 41.565624 307.5521Q41.7375 307.7396 41.7375 308.02084Q41.7375 308.28647 41.565624 308.47397Q41.39375 308.64584 41.05 308.64584Q40.721874 308.64584 40.55 308.47397Q40.39375 308.28647 40.39375 308.02084ZM48.6125 304.94272Q48.6125 306.84897 47.95625 307.78647Q47.315624 308.70834 45.925 308.70834Q44.565624 308.70834 43.909374 307.8021Q43.253124 306.89584 43.221874 305.08334L43.221874 303.64584Q43.221874 301.75522 43.8625 300.84897Q44.51875 299.9271 45.909374 299.9271Q47.284374 299.9271 47.940624 300.81772Q48.596874 301.69272 48.6125 303.53647L48.6125 304.94272ZM47.51875 303.45834Q47.51875 302.08334 47.128124 301.45834Q46.753124 300.81772 45.909374 300.81772Q45.08125 300.81772 44.690624 301.45834Q44.315624 302.08334 44.315624 303.38022L44.315624 305.1146Q44.315624 306.4896 44.70625 307.16147Q45.1125 307.81772 45.925 307.81772Q46.721874 307.81772 47.1125 307.19272Q47.503124 306.56772 47.51875 305.2396L47.51875 303.45834ZM55.6125 304.94272Q55.6125 306.84897 54.95625 307.78647Q54.315624 308.70834 52.925 308.70834Q51.565624 308.70834 50.909374 307.8021Q50.253124 306.89584 50.221874 305.08334L50.221874 303.64584Q50.221874 301.75522 50.8625 300.84897Q51.51875 299.9271 52.909374 299.9271Q54.284374 299.9271 54.940624 300.81772Q55.596874 301.69272 55.6125 303.53647L55.6125 304.94272ZM54.51875 303.45834Q54.51875 302.08334 54.128124 301.45834Q53.753124 300.81772 52.909374 300.81772Q52.08125 300.81772 51.690624 301.45834Q51.315624 302.08334 51.315624 303.38022L51.315624 305.1146Q51.315624 306.4896 51.70625 307.16147Q52.1125 307.81772 52.925 307.81772Q53.721874 307.81772 54.1125 307.19272Q54.503124 306.56772 54.51875 305.2396L54.51875 303.45834Z" fill-rule="nonzero"/><path fill="#757575" d="M31.846874 260.25L26.253124 260.25L26.253124 259.46875L29.20625 256.1875Q29.8625 255.4375 30.1125 254.98438Q30.3625 254.51562 30.3625 254.01562Q30.3625 253.34375 29.95625 252.92188Q29.565624 252.48438 28.878124 252.48438Q28.08125 252.48438 27.628124 252.95312Q27.175 253.40625 27.175 254.23438L26.096874 254.23438Q26.096874 253.04688 26.846874 252.32812Q27.6125 251.59375 28.878124 251.59375Q30.08125 251.59375 30.76875 252.21875Q31.45625 252.84375 31.45625 253.89062Q31.45625 255.14062 29.846874 256.89062L27.565624 259.35938L31.846874 259.35938L31.846874 260.25ZM33.753124 255.96875L34.190624 251.71875L38.565624 251.71875L38.565624 252.71875L35.1125 252.71875L34.846874 255.04688Q35.4875 254.67188 36.284374 254.67188Q37.440624 254.67188 38.128124 255.45312Q38.815624 256.21875 38.815624 257.53125Q38.815624 258.84375 38.096874 259.60938Q37.39375 260.375 36.1125 260.375Q34.9875 260.375 34.26875 259.75Q33.55 259.10938 33.45625 258.0L34.471874 258.0Q34.58125 258.73438 35.003124 259.10938Q35.425 259.48438 36.1125 259.48438Q36.8625 259.48438 37.3 258.96875Q37.7375 258.45312 37.7375 257.54688Q37.7375 256.6875 37.26875 256.17188Q36.8 255.65625 36.01875 255.65625Q35.315624 255.65625 34.909374 255.95312L34.628124 256.1875L33.753124 255.96875ZM40.39375 259.6875Q40.39375 259.40625 40.55 259.21875Q40.721874 259.03125 41.05 259.03125Q41.39375 259.03125 41.565624 259.21875Q41.7375 259.40625 41.7375 259.6875Q41.7375 259.95312 41.565624 260.14062Q41.39375 260.3125 41.05 260.3125Q40.721874 260.3125 40.55 260.14062Q40.39375 259.95312 40.39375 259.6875ZM48.6125 256.60938Q48.6125 258.51562 47.95625 259.45312Q47.315624 260.375 45.925 260.375Q44.565624 260.375 43.909374 259.46875Q43.253124 258.5625 43.221874 256.75L43.221874 255.3125Q43.221874 253.42188 43.8625 252.51562Q44.51875 251.59375 45.909374 251.59375Q47.284374 251.59375 47.940624 252.48438Q48.596874 253.35938 48.6125 255.20312L48.6125 256.60938ZM47.51875 255.125Q47.51875 253.75 47.128124 253.125Q46.753124 252.48438 45.909374 252.48438Q45.08125 252.48438 44.690624 253.125Q44.315624 253.75 44.315624 255.04688L44.315624 256.78125Q44.315624 258.15625 44.70625 258.82812Q45.1125 259.48438 45.925 259.48438Q46.721874 259.48438 47.1125 258.85938Q47.503124 258.23438 47.51875 256.90625L47.51875 255.125ZM55.6125 256.60938Q55.6125 258.51562 54.95625 259.45312Q54.315624 260.375 52.925 260.375Q51.565624 260.375 50.909374 259.46875Q50.253124 258.5625 50.221874 256.75L50.221874 255.3125Q50.221874 253.42188 50.8625 252.51562Q51.51875 251.59375 52.909374 251.59375Q54.284374 251.59375 54.940624 252.48438Q55.596874 253.35938 55.6125 255.20312L55.6125 256.60938ZM54.51875 255.125Q54.51875 253.75 54.128124 253.125Q53.753124 252.48438 52.909374 252.48438Q52.08125 252.48438 51.690624 253.125Q51.315624 253.75 51.315624 255.04688L51.315624 256.78125Q51.315624 258.15625 51.70625 258.82812Q52.1125 259.48438 52.925 259.48438Q53.721874 259.48438 54.1125 258.85938Q54.503124 258.23438 54.51875 256.90625L54.51875 255.125Z" fill-rule="nonzero"/><path fill="#757575" d="M26.753124 207.63542L27.190624 203.38542L31.565624 203.38542L31.565624 204.38542L28.1125 204.38542L27.846874 206.71355Q28.4875 206.33855 29.284374 206.33855Q30.440624 206.33855 31.128124 207.1198Q31.815624 207.88542 31.815624 209.19792Q31.815624 210.51042 31.096874 211.27605Q30.39375 212.04167 29.1125 212.04167Q27.9875 212.04167 27.26875 211.41667Q26.55 210.77605 26.45625 209.66667L27.471874 209.66667Q27.58125 210.40105 28.003124 210.77605Q28.425 211.15105 29.1125 211.15105Q29.8625 211.15105 30.3 210.63542Q30.7375 210.1198 30.7375 209.21355Q30.7375 208.35417 30.26875 207.83855Q29.8 207.32292 29.01875 207.32292Q28.315624 207.32292 27.909374 207.6198L27.628124 207.85417L26.753124 207.63542ZM38.6125 208.27605Q38.6125 210.1823 37.95625 211.1198Q37.315624 212.04167 35.925 212.04167Q34.565624 212.04167 33.909374 211.13542Q33.253124 210.22917 33.221874 208.41667L33.221874 206.97917Q33.221874 205.08855 33.8625 204.1823Q34.51875 203.26042 35.909374 203.26042Q37.284374 203.26042 37.940624 204.15105Q38.596874 205.02605 38.6125 206.8698L38.6125 208.27605ZM37.51875 206.79167Q37.51875 205.41667 37.128124 204.79167Q36.753124 204.15105 35.909374 204.15105Q35.08125 204.15105 34.690624 204.79167Q34.315624 205.41667 34.315624 206.71355L34.315624 208.44792Q34.315624 209.82292 34.70625 210.4948Q35.1125 211.15105 35.925 211.15105Q36.721874 211.15105 37.1125 210.52605Q37.503124 209.90105 37.51875 208.57292L37.51875 206.79167ZM40.39375 211.35417Q40.39375 211.07292 40.55 210.88542Q40.721874 210.69792 41.05 210.69792Q41.39375 210.69792 41.565624 210.88542Q41.7375 211.07292 41.7375 211.35417Q41.7375 211.6198 41.565624 211.8073Q41.39375 211.97917 41.05 211.97917Q40.721874 211.97917 40.55 211.8073Q40.39375 211.6198 40.39375 211.35417ZM48.6125 208.27605Q48.6125 210.1823 47.95625 211.1198Q47.315624 212.04167 45.925 212.04167Q44.565624 212.04167 43.909374 211.13542Q43.253124 210.22917 43.221874 208.41667L43.221874 206.97917Q43.221874 205.08855 43.8625 204.1823Q44.51875 203.26042 45.909374 203.26042Q47.284374 203.26042 47.940624 204.15105Q48.596874 205.02605 48.6125 206.8698L48.6125 208.27605ZM47.51875 206.79167Q47.51875 205.41667 47.128124 204.79167Q46.753124 204.15105 45.909374 204.15105Q45.08125 204.15105 44.690624 204.79167Q44.315624 205.41667 44.315624 206.71355L44.315624 208.44792Q44.315624 209.82292 44.70625 210.4948Q45.1125 211.15105 45.925 211.15105Q46.721874 211.15105 47.1125 210.52605Q47.503124 209.90105 47.51875 208.57292L47.51875 206.79167ZM55.6125 208.27605Q55.6125 210.1823 54.95625 211.1198Q54.315624 212.04167 52.925 212.04167Q51.565624 212.04167 50.909374 211.13542Q50.253124 210.22917 50.221874 208.41667L50.221874 206.97917Q50.221874 205.08855 50.8625 204.1823Q51.51875 203.26042 52.909374 203.26042Q54.284374 203.26042 54.940624 204.15105Q55.596874 205.02605 55.6125 206.8698L55.6125 208.27605ZM54.51875 206.79167Q54.51875 205.41667 54.128124 204.79167Q53.753124 204.15105 52.909374 204.15105Q52.08125 204.15105 51.690624 204.79167Q51.315624 205.41667 51.315624 206.71355L51.315624 208.44792Q51.315624 209.82292 51.70625 210.4948Q52.1125 211.15105 52.925 211.15105Q53.721874 211.15105 54.1125 210.52605Q54.503124 209.90105 54.51875 208.57292L54.51875 206.79167Z" fill-rule="nonzero"/><path fill="#757575" d="M31.76875 155.66145L28.2375 163.58333L27.096874 163.58333L30.6125 155.9427L26.003124 155.9427L26.003124 155.05208L31.76875 155.05208L31.76875 155.66145ZM33.753124 159.30208L34.190624 155.05208L38.565624 155.05208L38.565624 156.05208L35.1125 156.05208L34.846874 158.3802Q35.4875 158.0052 36.284374 158.0052Q37.440624 158.0052 38.128124 158.78645Q38.815624 159.55208 38.815624 160.86458Q38.815624 162.17708 38.096874 162.9427Q37.39375 163.70833 36.1125 163.70833Q34.9875 163.70833 34.26875 163.08333Q33.55 162.4427 33.45625 161.33333L34.471874 161.33333Q34.58125 162.0677 35.003124 162.4427Q35.425 162.8177 36.1125 162.8177Q36.8625 162.8177 37.3 162.30208Q37.7375 161.78645 37.7375 160.8802Q37.7375 160.02083 37.26875 159.5052Q36.8 158.98958 36.01875 158.98958Q35.315624 158.98958 34.909374 159.28645L34.628124 159.52083L33.753124 159.30208ZM40.39375 163.02083Q40.39375 162.73958 40.55 162.55208Q40.721874 162.36458 41.05 162.36458Q41.39375 162.36458 41.565624 162.55208Q41.7375 162.73958 41.7375 163.02083Q41.7375 163.28645 41.565624 163.47395Q41.39375 163.64583 41.05 163.64583Q40.721874 163.64583 40.55 163.47395Q40.39375 163.28645 40.39375 163.02083ZM48.6125 159.9427Q48.6125 161.84895 47.95625 162.78645Q47.315624 163.70833 45.925 163.70833Q44.565624 163.70833 43.909374 162.80208Q43.253124 161.89583 43.221874 160.08333L43.221874 158.64583Q43.221874 156.7552 43.8625 155.84895Q44.51875 154.92708 45.909374 154.92708Q47.284374 154.92708 47.940624 155.8177Q48.596874 156.6927 48.6125 158.53645L48.6125 159.9427ZM47.51875 158.45833Q47.51875 157.08333 47.128124 156.45833Q46.753124 155.8177 45.909374 155.8177Q45.08125 155.8177 44.690624 156.45833Q44.315624 157.08333 44.315624 158.3802L44.315624 160.11458Q44.315624 161.48958 44.70625 162.16145Q45.1125 162.8177 45.925 162.8177Q46.721874 162.8177 47.1125 162.1927Q47.503124 161.5677 47.51875 160.23958L47.51875 158.45833ZM55.6125 159.9427Q55.6125 161.84895 54.95625 162.78645Q54.315624 163.70833 52.925 163.70833Q51.565624 163.70833 50.909374 162.80208Q50.253124 161.89583 50.221874 160.08333L50.221874 158.64583Q50.221874 156.7552 50.8625 155.84895Q51.51875 154.92708 52.909374 154.92708Q54.284374 154.92708 54.940624 155.8177Q55.596874 156.6927 55.6125 158.53645L55.6125 159.9427ZM54.51875 158.45833Q54.51875 157.08333 54.128124 156.45833Q53.753124 155.8177 52.909374 155.8177Q52.08125 155.8177 51.690624 156.45833Q51.315624 157.08333 51.315624 158.3802L51.315624 160.11458Q51.315624 161.48958 51.70625 162.16145Q52.1125 162.8177 52.925 162.8177Q53.721874 162.8177 54.1125 162.1927Q54.503124 161.5677 54.51875 160.23958L54.51875 158.45833Z" fill-rule="nonzero"/><path fill="#757575" d="M22.815624 115.25L21.7375 115.25L21.7375 108.03125L19.55 108.828125L19.55 107.84375L22.659374 106.671875L22.815624 106.671875L22.815624 115.25ZM31.6125 111.609375Q31.6125 113.515625 30.95625 114.453125Q30.315624 115.375 28.925 115.375Q27.565624 115.375 26.909374 114.46875Q26.253124 113.5625 26.221874 111.75L26.221874 110.3125Q26.221874 108.421875 26.8625 107.515625Q27.51875 106.59375 28.909374 106.59375Q30.284374 106.59375 30.940624 107.484375Q31.596874 108.359375 31.6125 110.203125L31.6125 111.609375ZM30.51875 110.125Q30.51875 108.75 30.128124 108.125Q29.753124 107.484375 28.909374 107.484375Q28.08125 107.484375 27.690624 108.125Q27.315624 108.75 27.315624 110.046875L27.315624 111.78125Q27.315624 113.15625 27.70625 113.828125Q28.1125 114.484375 28.925 114.484375Q29.721874 114.484375 30.1125 113.859375Q30.503124 113.234375 30.51875 111.90625L30.51875 110.125ZM38.6125 111.609375Q38.6125 113.515625 37.95625 114.453125Q37.315624 115.375 35.925 115.375Q34.565624 115.375 33.909374 114.46875Q33.253124 113.5625 33.221874 111.75L33.221874 110.3125Q33.221874 108.421875 33.8625 107.515625Q34.51875 106.59375 35.909374 106.59375Q37.284374 106.59375 37.940624 107.484375Q38.596874 108.359375 38.6125 110.203125L38.6125 111.609375ZM37.51875 110.125Q37.51875 108.75 37.128124 108.125Q36.753124 107.484375 35.909374 107.484375Q35.08125 107.484375 34.690624 108.125Q34.315624 108.75 34.315624 110.046875L34.315624 111.78125Q34.315624 113.15625 34.70625 113.828125Q35.1125 114.484375 35.925 114.484375Q36.721874 114.484375 37.1125 113.859375Q37.503124 113.234375 37.51875 111.90625L37.51875 110.125ZM40.39375 114.6875Q40.39375 114.40625 40.55 114.21875Q40.721874 114.03125 41.05 114.03125Q41.39375 114.03125 41.565624 114.21875Q41.7375 114.40625 41.7375 114.6875Q41.7375 114.953125 41.565624 115.140625Q41.39375 115.3125 41.05 115.3125Q40.721874 115.3125 40.55 115.140625Q40.39375 114.953125 40.39375 114.6875ZM48.6125 111.609375Q48.6125 113.515625 47.95625 114.453125Q47.315624 115.375 45.925 115.375Q44.565624 115.375 43.909374 114.46875Q43.253124 113.5625 43.221874 111.75L43.221874 110.3125Q43.221874 108.421875 43.8625 107.515625Q44.51875 106.59375 45.909374 106.59375Q47.284374 106.59375 47.940624 107.484375Q48.596874 108.359375 48.6125 110.203125L48.6125 111.609375ZM47.51875 110.125Q47.51875 108.75 47.128124 108.125Q46.753124 107.484375 45.909374 107.484375Q45.08125 107.484375 44.690624 108.125Q44.315624 108.75 44.315624 110.046875L44.315624 111.78125Q44.315624 113.15625 44.70625 113.828125Q45.1125 114.484375 45.925 114.484375Q46.721874 114.484375 47.1125 113.859375Q47.503124 113.234375 47.51875 111.90625L47.51875 110.125ZM55.6125 111.609375Q55.6125 113.515625 54.95625 114.453125Q54.315624 115.375 52.925 115.375Q51.565624 115.375 50.909374 114.46875Q50.253124 113.5625 50.221874 111.75L50.221874 110.3125Q50.221874 108.421875 50.8625 107.515625Q51.51875 106.59375 52.909374 106.59375Q54.284374 106.59375 54.940624 107.484375Q55.596874 108.359375 55.6125 110.203125L55.6125 111.609375ZM54.51875 110.125Q54.51875 108.75 54.128124 108.125Q53.753124 107.484375 52.909374 107.484375Q52.08125 107.484375 51.690624 108.125Q51.315624 108.75 51.315624 110.046875L51.315624 111.78125Q51.315624 113.15625 51.70625 113.828125Q52.1125 114.484375 52.925 114.484375Q53.721874 114.484375 54.1125 113.859375Q54.503124 113.234375 54.51875 111.90625L54.51875 110.125Z" fill-rule="nonzero"/><path fill="#757575" d="M22.815624 66.916664L21.7375 66.916664L21.7375 59.697914L19.55 60.49479L19.55 59.510414L22.659374 58.33854L22.815624 58.33854L22.815624 66.916664ZM31.846874 66.916664L26.253124 66.916664L26.253124 66.135414L29.20625 62.854164Q29.8625 62.104164 30.1125 61.65104Q30.3625 61.18229 30.3625 60.68229Q30.3625 60.010414 29.95625 59.58854Q29.565624 59.15104 28.878124 59.15104Q28.08125 59.15104 27.628124 59.61979Q27.175 60.072914 27.175 60.90104L26.096874 60.90104Q26.096874 59.71354 26.846874 58.99479Q27.6125 58.260414 28.878124 58.260414Q30.08125 58.260414 30.76875 58.885414Q31.45625 59.510414 31.45625 60.55729Q31.45625 61.80729 29.846874 63.55729L27.565624 66.02604L31.846874 66.02604L31.846874 66.916664ZM33.753124 62.635414L34.190624 58.385414L38.565624 58.385414L38.565624 59.385414L35.1125 59.385414L34.846874 61.71354Q35.4875 61.33854 36.284374 61.33854Q37.440624 61.33854 38.128124 62.11979Q38.815624 62.885414 38.815624 64.197914Q38.815624 65.510414 38.096874 66.27604Q37.39375 67.041664 36.1125 67.041664Q34.9875 67.041664 34.26875 66.416664Q33.55 65.77604 33.45625 64.666664L34.471874 64.666664Q34.58125 65.40104 35.003124 65.77604Q35.425 66.15104 36.1125 66.15104Q36.8625 66.15104 37.3 65.635414Q37.7375 65.11979 37.7375 64.21354Q37.7375 63.354164 37.26875 62.83854Q36.8 62.322914 36.01875 62.322914Q35.315624 62.322914 34.909374 62.61979L34.628124 62.854164L33.753124 62.635414ZM40.39375 66.354164Q40.39375 66.072914 40.55 65.885414Q40.721874 65.697914 41.05 65.697914Q41.39375 65.697914 41.565624 65.885414Q41.7375 66.072914 41.7375 66.354164Q41.7375 66.61979 41.565624 66.80729Q41.39375 66.979164 41.05 66.979164Q40.721874 66.979164 40.55 66.80729Q40.39375 66.61979 40.39375 66.354164ZM48.6125 63.27604Q48.6125 65.18229 47.95625 66.11979Q47.315624 67.041664 45.925 67.041664Q44.565624 67.041664 43.909374 66.135414Q43.253124 65.229164 43.221874 63.416664L43.221874 61.979164Q43.221874 60.08854 43.8625 59.18229Q44.51875 58.260414 45.909374 58.260414Q47.284374 58.260414 47.940624 59.15104Q48.596874 60.02604 48.6125 61.86979L48.6125 63.27604ZM47.51875 61.791664Q47.51875 60.416664 47.128124 59.791664Q46.753124 59.15104 45.909374 59.15104Q45.08125 59.15104 44.690624 59.791664Q44.315624 60.416664 44.315624 61.71354L44.315624 63.447914Q44.315624 64.822914 44.70625 65.49479Q45.1125 66.15104 45.925 66.15104Q46.721874 66.15104 47.1125 65.52604Q47.503124 64.90104 47.51875 63.572914L47.51875 61.791664ZM55.6125 63.27604Q55.6125 65.18229 54.95625 66.11979Q54.315624 67.041664 52.925 67.041664Q51.565624 67.041664 50.909374 66.135414Q50.253124 65.229164 50.221874 63.416664L50.221874 61.979164Q50.221874 60.08854 50.8625 59.18229Q51.51875 58.260414 52.909374 58.260414Q54.284374 58.260414 54.940624 59.15104Q55.596874 60.02604 55.6125 61.86979L55.6125 63.27604ZM54.51875 61.791664Q54.51875 60.416664 54.128124 59.791664Q53.753124 59.15104 52.909374 59.15104Q52.08125 59.15104 51.690624 59.791664Q51.315624 60.416664 51.315624 61.71354L51.315624 63.447914Q51.315624 64.822914 51.70625 65.49479Q52.1125 66.15104 52.925 66.15104Q53.721874 66.15104 54.1125 65.52604Q54.503124 64.90104 54.51875 63.572914L54.51875 61.791664Z" fill-rule="nonzero"/><path fill="#757575" d="M99.55729 322.08334L98.479164 322.08334L98.479164 314.8646L96.291664 315.66147L96.291664 314.6771L99.40104 313.50522L99.55729 313.50522L99.55729 322.08334ZM103.49479 317.8021L103.93229 313.5521L108.30729 313.5521L108.30729 314.5521L104.854164 314.5521L104.58854 316.88022Q105.229164 316.50522 106.02604 316.50522Q107.18229 316.50522 107.86979 317.28647Q108.55729 318.0521 108.55729 319.3646Q108.55729 320.6771 107.83854 321.44272Q107.135414 322.20834 105.854164 322.20834Q104.729164 322.20834 104.010414 321.58334Q103.291664 320.94272 103.197914 319.83334L104.21354 319.83334Q104.322914 320.56772 104.74479 320.94272Q105.166664 321.31772 105.854164 321.31772Q106.604164 321.31772 107.041664 320.8021Q107.479164 320.28647 107.479164 319.38022Q107.479164 318.52084 107.010414 318.00522Q106.541664 317.4896 105.760414 317.4896Q105.05729 317.4896 104.65104 317.78647L104.36979 318.02084L103.49479 317.8021ZM115.354164 318.44272Q115.354164 320.34897 114.697914 321.28647Q114.05729 322.20834 112.666664 322.20834Q111.30729 322.20834 110.65104 321.3021Q109.99479 320.39584 109.96354 318.58334L109.96354 317.14584Q109.96354 315.25522 110.604164 314.34897Q111.260414 313.4271 112.65104 313.4271Q114.02604 313.4271 114.68229 314.31772Q115.33854 315.19272 115.354164 317.03647L115.354164 318.44272ZM114.260414 316.95834Q114.260414 315.58334 113.86979 314.95834Q113.49479 314.31772 112.65104 314.31772Q111.822914 314.31772 111.43229 314.95834Q111.05729 315.58334 111.05729 316.88022L111.05729 318.6146Q111.05729 319.9896 111.447914 320.66147Q111.854164 321.31772 112.666664 321.31772Q113.46354 321.31772 113.854164 320.69272Q114.24479 320.06772 114.260414 318.7396L114.260414 316.95834Z" fill-rule="nonzero"/><path fill="#757575" d="M184.05624 317.28647L184.86874 317.28647Q185.65 317.27084 186.0875 316.88022Q186.525 316.4896 186.525 315.81772Q186.525 314.31772 185.025 314.31772Q184.32187 314.31772 183.9 314.72397Q183.49374 315.13022 183.49374 315.78647L182.4 315.78647Q182.4 314.77084 183.13437 314.09897Q183.88437 313.4271 185.025 313.4271Q186.22812 313.4271 186.91562 314.06772Q187.60312 314.70834 187.60312 315.84897Q187.60312 316.41147 187.24374 316.9271Q186.88437 317.44272 186.25937 317.70834Q186.9625 317.9271 187.3375 318.44272Q187.72812 318.95834 187.72812 319.70834Q187.72812 320.84897 186.97812 321.53647Q186.22812 322.20834 185.025 322.20834Q183.8375 322.20834 183.07187 321.5521Q182.32187 320.89584 182.32187 319.83334L183.41562 319.83334Q183.41562 320.50522 183.85312 320.91147Q184.29062 321.31772 185.04062 321.31772Q185.82187 321.31772 186.22812 320.91147Q186.65 320.4896 186.65 319.72397Q186.65 318.9896 186.19687 318.59897Q185.74374 318.19272 184.86874 318.1771L184.05624 318.1771L184.05624 317.28647ZM194.8375 318.44272Q194.8375 320.34897 194.18124 321.28647Q193.54062 322.20834 192.15 322.20834Q190.79062 322.20834 190.13437 321.3021Q189.47812 320.39584 189.44687 318.58334L189.44687 317.14584Q189.44687 315.25522 190.0875 314.34897Q190.74374 313.4271 192.13437 313.4271Q193.50937 313.4271 194.16562 314.31772Q194.82187 315.19272 194.8375 317.03647L194.8375 318.44272ZM193.74374 316.95834Q193.74374 315.58334 193.35312 314.95834Q192.97812 314.31772 192.13437 314.31772Q191.30624 314.31772 190.91562 314.95834Q190.54062 315.58334 190.54062 316.88022L190.54062 318.6146Q190.54062 319.9896 190.93124 320.66147Q191.3375 321.31772 192.15 321.31772Q192.94687 321.31772 193.3375 320.69272Q193.72812 320.06772 193.74374 318.7396L193.74374 316.95834ZM201.8375 318.44272Q201.8375 320.34897 201.18124 321.28647Q200.54062 322.20834 199.15 322.20834Q197.79062 322.20834 197.13437 321.3021Q196.47812 320.39584 196.44687 318.58334L196.44687 317.14584Q196.44687 315.25522 197.0875 314.34897Q197.74374 313.4271 199.13437 313.4271Q200.50937 313.4271 201.16562 314.31772Q201.82187 315.19272 201.8375 317.03647L201.8375 318.44272ZM200.74374 316.95834Q200.74374 315.58334 200.35312 314.95834Q199.97812 314.31772 199.13437 314.31772Q198.30624 314.31772 197.91562 314.95834Q197.54062 315.58334 197.54062 316.88022L197.54062 318.6146Q197.54062 319.9896 197.93124 320.66147Q198.3375 321.31772 199.15 321.31772Q199.94687 321.31772 200.3375 320.69272Q200.72812 320.06772 200.74374 318.7396L200.74374 316.95834Z" fill-rule="nonzero"/><path fill="#757575" d="M273.22708 313.5521L273.22708 314.45834L273.02396 314.45834Q271.75833 314.4896 271.00833 315.22397Q270.25833 315.94272 270.13333 317.25522Q270.82083 316.4896 271.97708 316.4896Q273.08646 316.4896 273.75833 317.27084Q274.4302 318.0521 274.4302 319.3021Q274.4302 320.6146 273.71146 321.41147Q272.9927 322.20834 271.77396 322.20834Q270.5552 322.20834 269.78958 321.27084Q269.03958 320.31772 269.03958 318.83334L269.03958 318.4271Q269.03958 316.06772 270.03958 314.81772Q271.03958 313.56772 273.02396 313.5521L273.22708 313.5521ZM271.8052 317.39584Q271.2427 317.39584 270.77396 317.72397Q270.3052 318.0521 270.1177 318.56772L270.1177 318.95834Q270.1177 320.02084 270.58646 320.66147Q271.07083 321.3021 271.77396 321.3021Q272.50833 321.3021 272.9302 320.77084Q273.35208 320.22397 273.35208 319.34897Q273.35208 318.47397 272.9302 317.94272Q272.50833 317.39584 271.8052 317.39584ZM281.32083 318.44272Q281.32083 320.34897 280.66458 321.28647Q280.02396 322.20834 278.63333 322.20834Q277.27396 322.20834 276.6177 321.3021Q275.96146 320.39584 275.9302 318.58334L275.9302 317.14584Q275.9302 315.25522 276.57083 314.34897Q277.22708 313.4271 278.6177 313.4271Q279.9927 313.4271 280.64896 314.31772Q281.3052 315.19272 281.32083 317.03647L281.32083 318.44272ZM280.22708 316.95834Q280.22708 315.58334 279.83646 314.95834Q279.46146 314.31772 278.6177 314.31772Q277.78958 314.31772 277.39896 314.95834Q277.02396 315.58334 277.02396 316.88022L277.02396 318.6146Q277.02396 319.9896 277.41458 320.66147Q277.82083 321.31772 278.63333 321.31772Q279.4302 321.31772 279.82083 320.69272Q280.21146 320.06772 280.22708 318.7396L280.22708 316.95834ZM288.32083 318.44272Q288.32083 320.34897 287.66458 321.28647Q287.02396 322.20834 285.63333 322.20834Q284.27396 322.20834 283.6177 321.3021Q282.96146 320.39584 282.9302 318.58334L282.9302 317.14584Q282.9302 315.25522 283.57083 314.34897Q284.22708 313.4271 285.6177 313.4271Q286.9927 313.4271 287.64896 314.31772Q288.3052 315.19272 288.32083 317.03647L288.32083 318.44272ZM287.22708 316.95834Q287.22708 315.58334 286.83646 314.95834Q286.46146 314.31772 285.6177 314.31772Q284.78958 314.31772 284.39896 314.95834Q284.02396 315.58334 284.02396 316.88022L284.02396 318.6146Q284.02396 319.9896 284.41458 320.66147Q284.82083 321.31772 285.63333 321.31772Q286.4302 321.31772 286.82083 320.69272Q287.21146 320.06772 287.22708 318.7396L287.22708 316.95834Z" fill-rule="nonzero"/><path fill="#757575" d="M359.60104 318.33334Q359.27292 318.7396 358.78854 318.9896Q358.3198 319.22397 357.7573 319.22397Q357.02292 319.22397 356.47604 318.8646Q355.92917 318.50522 355.6323 317.84897Q355.33542 317.1771 355.33542 316.38022Q355.33542 315.53647 355.64792 314.84897Q355.97604 314.16147 356.5698 313.8021Q357.17917 313.4271 357.97604 313.4271Q359.24167 313.4271 359.96042 314.38022Q360.6948 315.33334 360.6948 316.95834L360.6948 317.27084Q360.6948 319.77084 359.71042 320.91147Q358.72604 322.0521 356.74167 322.08334L356.52292 322.08334L356.52292 321.1771L356.7573 321.1771Q358.10104 321.14584 358.8198 320.47397Q359.53854 319.8021 359.60104 318.33334ZM357.92917 318.33334Q358.47604 318.33334 358.92917 318.00522Q359.39792 317.66147 359.61667 317.1771L359.61667 316.7396Q359.61667 315.6771 359.14792 315.00522Q358.67917 314.33334 357.97604 314.33334Q357.2573 314.33334 356.8198 314.88022Q356.39792 315.4271 356.39792 316.33334Q356.39792 317.20834 356.80417 317.77084Q357.22604 318.33334 357.92917 318.33334ZM367.80417 318.44272Q367.80417 320.34897 367.14792 321.28647Q366.5073 322.20834 365.11667 322.20834Q363.7573 322.20834 363.10104 321.3021Q362.4448 320.39584 362.41354 318.58334L362.41354 317.14584Q362.41354 315.25522 363.05417 314.34897Q363.71042 313.4271 365.10104 313.4271Q366.47604 313.4271 367.1323 314.31772Q367.78854 315.19272 367.80417 317.03647L367.80417 318.44272ZM366.71042 316.95834Q366.71042 315.58334 366.3198 314.95834Q365.9448 314.31772 365.10104 314.31772Q364.27292 314.31772 363.8823 314.95834Q363.5073 315.58334 363.5073 316.88022L363.5073 318.6146Q363.5073 319.9896 363.89792 320.66147Q364.30417 321.31772 365.11667 321.31772Q365.91354 321.31772 366.30417 320.69272Q366.6948 320.06772 366.71042 318.7396L366.71042 316.95834ZM374.80417 318.44272Q374.80417 320.34897 374.14792 321.28647Q373.5073 322.20834 372.11667 322.20834Q370.7573 322.20834 370.10104 321.3021Q369.4448 320.39584 369.41354 318.58334L369.41354 317.14584Q369.41354 315.25522 370.05417 314.34897Q370.71042 313.4271 372.10104 313.4271Q373.47604 313.4271 374.1323 314.31772Q374.78854 315.19272 374.80417 317.03647L374.80417 318.44272ZM373.71042 316.95834Q373.71042 315.58334 373.3198 314.95834Q372.9448 314.31772 372.10104 314.31772Q371.27292 314.31772 370.8823 314.95834Q370.5073 315.58334 370.5073 316.88022L370.5073 318.6146Q370.5073 319.9896 370.89792 320.66147Q371.30417 321.31772 372.11667 321.31772Q372.91354 321.31772 373.30417 320.69272Q373.6948 320.06772 373.71042 318.7396L373.71042 316.95834Z" fill-rule="nonzero"/><path fill="#757575" d="M441.99063 322.08334L440.9125 322.08334L440.9125 314.8646L438.725 315.66147L438.725 314.6771L441.83438 313.50522L441.99063 313.50522L441.99063 322.08334ZM451.02188 322.08334L445.42813 322.08334L445.42813 321.3021L448.38126 318.02084Q449.0375 317.27084 449.2875 316.81772Q449.5375 316.34897 449.5375 315.84897Q449.5375 315.1771 449.13126 314.75522Q448.74063 314.31772 448.05313 314.31772Q447.25626 314.31772 446.80313 314.78647Q446.35 315.2396 446.35 316.06772L445.27188 316.06772Q445.27188 314.88022 446.02188 314.16147Q446.7875 313.4271 448.05313 313.4271Q449.25626 313.4271 449.94376 314.0521Q450.63126 314.6771 450.63126 315.72397Q450.63126 316.97397 449.02188 318.72397L446.74063 321.19272L451.02188 321.19272L451.02188 322.08334ZM457.7875 318.44272Q457.7875 320.34897 457.13126 321.28647Q456.49063 322.20834 455.1 322.20834Q453.74063 322.20834 453.08438 321.3021Q452.42813 320.39584 452.39688 318.58334L452.39688 317.14584Q452.39688 315.25522 453.0375 314.34897Q453.69376 313.4271 455.08438 313.4271Q456.45938 313.4271 457.11563 314.31772Q457.77188 315.19272 457.7875 317.03647L457.7875 318.44272ZM456.69376 316.95834Q456.69376 315.58334 456.30313 314.95834Q455.92813 314.31772 455.08438 314.31772Q454.25626 314.31772 453.86563 314.95834Q453.49063 315.58334 453.49063 316.88022L453.49063 318.6146Q453.49063 319.9896 453.88126 320.66147Q454.2875 321.31772 455.1 321.31772Q455.89688 321.31772 456.2875 320.69272Q456.67813 320.06772 456.69376 318.7396L456.69376 316.95834ZM464.7875 318.44272Q464.7875 320.34897 464.13126 321.28647Q463.49063 322.20834 462.1 322.20834Q460.74063 322.20834 460.08438 321.3021Q459.42813 320.39584 459.39688 318.58334L459.39688 317.14584Q459.39688 315.25522 460.0375 314.34897Q460.69376 313.4271 462.08438 313.4271Q463.45938 313.4271 464.11563 314.31772Q464.77188 315.19272 464.7875 317.03647L464.7875 318.44272ZM463.69376 316.95834Q463.69376 315.58334 463.30313 314.95834Q462.92813 314.31772 462.08438 314.31772Q461.25626 314.31772 460.86563 314.95834Q460.49063 315.58334 460.49063 316.88022L460.49063 318.6146Q460.49063 319.9896 460.88126 320.66147Q461.2875 321.31772 462.1 321.31772Q462.89688 321.31772 463.2875 320.69272Q463.67813 320.06772 463.69376 318.7396L463.69376 316.95834Z" fill-rule="nonzero"/><path fill="#757575" d="M528.47394 322.08334L527.3958 322.08334L527.3958 314.8646L525.2083 315.66147L525.2083 314.6771L528.3177 313.50522L528.47394 313.50522L528.47394 322.08334ZM532.41144 317.8021L532.84894 313.5521L537.22394 313.5521L537.22394 314.5521L533.7708 314.5521L533.5052 316.88022Q534.1458 316.50522 534.9427 316.50522Q536.09894 316.50522 536.78644 317.28647Q537.47394 318.0521 537.47394 319.3646Q537.47394 320.6771 536.7552 321.44272Q536.05206 322.20834 534.7708 322.20834Q533.6458 322.20834 532.92706 321.58334Q532.2083 320.94272 532.11456 319.83334L533.1302 319.83334Q533.23956 320.56772 533.66144 320.94272Q534.0833 321.31772 534.7708 321.31772Q535.5208 321.31772 535.9583 320.8021Q536.3958 320.28647 536.3958 319.38022Q536.3958 318.52084 535.92706 318.00522Q535.4583 317.4896 534.67706 317.4896Q533.97394 317.4896 533.5677 317.78647L533.28644 318.02084L532.41144 317.8021ZM544.2708 318.44272Q544.2708 320.34897 543.61456 321.28647Q542.97394 322.20834 541.5833 322.20834Q540.22394 322.20834 539.5677 321.3021Q538.91144 320.39584 538.8802 318.58334L538.8802 317.14584Q538.8802 315.25522 539.5208 314.34897Q540.17706 313.4271 541.5677 313.4271Q542.9427 313.4271 543.59894 314.31772Q544.2552 315.19272 544.2708 317.03647L544.2708 318.44272ZM543.17706 316.95834Q543.17706 315.58334 542.78644 314.95834Q542.41144 314.31772 541.5677 314.31772Q540.73956 314.31772 540.34894 314.95834Q539.97394 315.58334 539.97394 316.88022L539.97394 318.6146Q539.97394 319.9896 540.36456 320.66147Q540.7708 321.31772 541.5833 321.31772Q542.3802 321.31772 542.7708 320.69272Q543.16144 320.06772 543.17706 318.7396L543.17706 316.95834ZM551.2708 318.44272Q551.2708 320.34897 550.61456 321.28647Q549.97394 322.20834 548.5833 322.20834Q547.22394 322.20834 546.5677 321.3021Q545.91144 320.39584 545.8802 318.58334L545.8802 317.14584Q545.8802 315.25522 546.5208 314.34897Q547.17706 313.4271 548.5677 313.4271Q549.9427 313.4271 550.59894 314.31772Q551.2552 315.19272 551.2708 317.03647L551.2708 318.44272ZM550.17706 316.95834Q550.17706 315.58334 549.78644 314.95834Q549.41144 314.31772 548.5677 314.31772Q547.73956 314.31772 547.34894 314.95834Q546.97394 315.58334 546.97394 316.88022L546.97394 318.6146Q546.97394 319.9896 547.36456 320.66147Q547.7708 321.31772 548.5833 321.31772Q549.3802 321.31772 549.7708 320.69272Q550.16144 320.06772 550.17706 318.7396L550.17706 316.95834Z" fill-rule="nonzero"/><path stroke="#4285f4" stroke-width="4.0" stroke-linecap="butt" d="M241.0 344.95L253.0 344.95" fill-rule="nonzero"/><path fill="#757575" d="M261.53125 346.21564Q261.53125 345.29376 261.89062 344.54376Q262.26562 343.79376 262.92188 343.40314Q263.57812 342.9969 264.40625 342.9969Q265.70312 342.9969 266.5 343.8875Q267.3125 344.77814 267.3125 346.27814L267.3125 346.35626Q267.3125 347.27814 266.95312 348.0125Q266.59375 348.7469 265.9375 349.16876Q265.28125 349.575 264.42188 349.575Q263.14062 349.575 262.32812 348.6844Q261.53125 347.77814 261.53125 346.29376L261.53125 346.21564ZM262.625 346.35626Q262.625 347.40314 263.10938 348.04376Q263.60938 348.6844 264.42188 348.6844Q265.25 348.6844 265.73438 348.04376Q266.21875 347.3875 266.21875 346.21564Q266.21875 345.1844 265.71875 344.54376Q265.23438 343.8875 264.40625 343.8875Q263.60938 343.8875 263.10938 344.52814Q262.625 345.15314 262.625 346.35626ZM270.0 349.45L268.92188 349.45L268.92188 340.45L270.0 340.45L270.0 349.45ZM273.29688 341.575L273.29688 343.10626L274.46875 343.10626L274.46875 343.95L273.29688 343.95L273.29688 347.8719Q273.29688 348.2625 273.45312 348.45Q273.60938 348.6375 273.98438 348.6375Q274.17188 348.6375 274.5 348.575L274.5 349.45Q274.07812 349.575 273.67188 349.575Q272.95312 349.575 272.57812 349.1375Q272.20312 348.6844 272.20312 347.8719L272.20312 343.95L271.04688 343.95L271.04688 343.10626L272.20312 343.10626L272.20312 341.575L273.29688 341.575ZM281.17188 346.35626Q281.17188 347.79376 280.51562 348.6844Q279.85938 349.575 278.71875 349.575Q277.5625 349.575 276.90625 348.84064L276.90625 351.8875L275.82812 351.8875L275.82812 343.10626L276.8125 343.10626L276.85938 343.8094Q277.53125 342.9969 278.70312 342.9969Q279.84375 342.9969 280.5 343.85626Q281.17188 344.71564 281.17188 346.2469L281.17188 346.35626ZM280.09375 346.23126Q280.09375 345.15314 279.625 344.54376Q279.17188 343.91876 278.375 343.91876Q277.39062 343.91876 276.90625 344.77814L276.90625 347.8094Q277.39062 348.6844 278.39062 348.6844Q279.17188 348.6844 279.625 348.075Q280.09375 347.45 280.09375 346.23126ZM287.39062 350.34064L282.03125 350.34064L282.03125 349.45L287.39062 349.45L287.39062 350.34064ZM291.73438 348.825Q291.10938 349.575 289.875 349.575Q288.85938 349.575 288.32812 348.98126Q287.79688 348.3875 287.79688 347.23126L287.79688 343.10626L288.875 343.10626L288.875 347.2Q288.875 348.65314 290.04688 348.65314Q291.29688 348.65314 291.70312 347.71564L291.70312 343.10626L292.79688 343.10626L292.79688 349.45L291.76562 349.45L291.73438 348.825ZM300.17188 346.35626Q300.17188 347.79376 299.51562 348.6844Q298.85938 349.575 297.71875 349.575Q296.5625 349.575 295.90625 348.84064L295.90625 351.8875L294.82812 351.8875L294.82812 343.10626L295.8125 343.10626L295.85938 343.8094Q296.53125 342.9969 297.70312 342.9969Q298.84375 342.9969 299.5 343.85626Q300.17188 344.71564 300.17188 346.2469L300.17188 346.35626ZM299.09375 346.23126Q299.09375 345.15314 298.625 344.54376Q298.17188 343.91876 297.375 343.91876Q296.39062 343.91876 295.90625 344.77814L295.90625 347.8094Q296.39062 348.6844 297.39062 348.6844Q298.17188 348.6844 298.625 348.075Q299.09375 347.45 299.09375 346.23126ZM301.5625 346.23126Q301.5625 344.7625 302.25 343.8875Q302.9375 342.9969 304.0625 342.9969Q305.17188 342.9969 305.82812 343.7469L305.82812 340.45L306.90625 340.45L306.90625 349.45L305.90625 349.45L305.85938 348.7625Q305.20312 349.575 304.04688 349.575Q302.95312 349.575 302.25 348.66876Q301.5625 347.7625 301.5625 346.3094L301.5625 346.23126ZM302.64062 346.35626Q302.64062 347.4344 303.07812 348.04376Q303.53125 348.65314 304.3125 348.65314Q305.34375 348.65314 305.82812 347.71564L305.82812 344.8094Q305.34375 343.91876 304.32812 343.91876Q303.53125 343.91876 303.07812 344.52814Q302.64062 345.1375 302.64062 346.35626ZM312.73438 349.45Q312.64062 349.2625 312.57812 348.77814Q311.82812 349.575 310.78125 349.575Q309.84375 349.575 309.23438 349.04376Q308.64062 348.5125 308.64062 347.6844Q308.64062 346.7 309.39062 346.15314Q310.14062 345.60626 311.51562 345.60626L312.5625 345.60626L312.5625 345.10626Q312.5625 344.54376 312.21875 344.21564Q311.89062 343.8719 311.21875 343.8719Q310.64062 343.8719 310.25 344.16876Q309.85938 344.45 309.85938 344.8719L308.76562 344.8719Q308.76562 344.3875 309.09375 343.95Q309.4375 343.5125 310.01562 343.2625Q310.59375 342.9969 311.28125 342.9969Q312.39062 342.9969 313.0 343.54376Q313.625 344.09064 313.65625 345.04376L313.65625 347.96564Q313.65625 348.84064 313.875 349.35626L313.875 349.45L312.73438 349.45ZM310.9375 348.6219Q311.45312 348.6219 311.90625 348.35626Q312.35938 348.09064 312.5625 347.66876L312.5625 346.3719L311.71875 346.3719Q309.71875 346.3719 309.71875 347.54376Q309.71875 348.04376 310.0625 348.34064Q310.40625 348.6219 310.9375 348.6219ZM317.29688 341.575L317.29688 343.10626L318.46875 343.10626L318.46875 343.95L317.29688 343.95L317.29688 347.8719Q317.29688 348.2625 317.45312 348.45Q317.60938 348.6375 317.98438 348.6375Q318.17188 348.6375 318.5 348.575L318.5 349.45Q318.07812 349.575 317.67188 349.575Q316.95312 349.575 316.57812 349.1375Q316.20312 348.6844 316.20312 347.8719L316.20312 343.95L315.04688 343.95L315.04688 343.10626L316.20312 343.10626L316.20312 341.575L317.29688 341.575ZM322.45312 349.575Q321.15625 349.575 320.34375 348.73126Q319.54688 347.8719 319.54688 346.45L319.54688 346.2625Q319.54688 345.3094 319.90625 344.575Q320.26562 343.825 320.90625 343.41876Q321.5625 342.9969 322.3125 342.9969Q323.54688 342.9969 324.23438 343.8094Q324.92188 344.6219 324.92188 346.1375L324.92188 346.59064L320.625 346.59064Q320.65625 347.52814 321.17188 348.10626Q321.70312 348.6844 322.51562 348.6844Q323.07812 348.6844 323.46875 348.45Q323.875 348.21564 324.1875 347.825L324.84375 348.34064Q324.04688 349.575 322.45312 349.575ZM322.3125 343.8875Q321.65625 343.8875 321.20312 344.3719Q320.76562 344.84064 320.67188 345.7L323.84375 345.7L323.84375 345.6219Q323.79688 344.79376 323.39062 344.34064Q323.0 343.8875 322.3125 343.8875ZM330.39062 350.34064L325.03125 350.34064L325.03125 349.45L330.39062 349.45L330.39062 350.34064ZM332.0 349.45L330.92188 349.45L330.92188 343.10626L332.0 343.10626L332.0 349.45ZM330.82812 341.4344Q330.82812 341.16876 330.98438 340.98126Q331.15625 340.79376 331.46875 340.79376Q331.78125 340.79376 331.9375 340.98126Q332.10938 341.16876 332.10938 341.4344Q332.10938 341.6844 331.9375 341.8719Q331.78125 342.04376 331.46875 342.04376Q331.15625 342.04376 330.98438 341.8719Q330.82812 341.6844 330.82812 341.4344ZM334.84375 343.10626L334.875 343.90314Q335.60938 342.9969 336.78125 342.9969Q338.79688 342.9969 338.8125 345.2625L338.8125 349.45L337.71875 349.45L337.71875 345.2469Q337.71875 344.575 337.40625 344.2469Q337.10938 343.91876 336.45312 343.91876Q335.92188 343.91876 335.51562 344.2Q335.125 344.48126 334.90625 344.9344L334.90625 349.45L333.82812 349.45L333.82812 343.10626L334.84375 343.10626ZM340.5625 346.23126Q340.5625 344.7625 341.25 343.8875Q341.9375 342.9969 343.0625 342.9969Q344.17188 342.9969 344.82812 343.7469L344.82812 340.45L345.90625 340.45L345.90625 349.45L344.90625 349.45L344.85938 348.7625Q344.20312 349.575 343.04688 349.575Q341.95312 349.575 341.25 348.66876Q340.5625 347.7625 340.5625 346.3094L340.5625 346.23126ZM341.64062 346.35626Q341.64062 347.4344 342.07812 348.04376Q342.53125 348.65314 343.3125 348.65314Q344.34375 348.65314 344.82812 347.71564L344.82812 344.8094Q344.34375 343.91876 343.32812 343.91876Q342.53125 343.91876 342.07812 344.52814Q341.64062 345.1375 341.64062 346.35626ZM350.45312 349.575Q349.15625 349.575 348.34375 348.73126Q347.54688 347.8719 347.54688 346.45L347.54688 346.2625Q347.54688 345.3094 347.90625 344.575Q348.26562 343.825 348.90625 343.41876Q349.5625 342.9969 350.3125 342.9969Q351.54688 342.9969 352.23438 343.8094Q352.92188 344.6219 352.92188 346.1375L352.92188 346.59064L348.625 346.59064Q348.65625 347.52814 349.17188 348.10626Q349.70312 348.6844 350.51562 348.6844Q351.07812 348.6844 351.46875 348.45Q351.875 348.21564 352.1875 347.825L352.84375 348.34064Q352.04688 349.575 350.45312 349.575ZM350.3125 343.8875Q349.65625 343.8875 349.20312 344.3719Q348.76562 344.84064 348.67188 345.7L351.84375 345.7L351.84375 345.6219Q351.79688 344.79376 351.39062 344.34064Q351.0 343.8875 350.3125 343.8875ZM355.95312 345.41876L357.35938 343.10626L358.625 343.10626L356.54688 346.2469L358.6875 349.45L357.4375 349.45L355.96875 347.075L354.5 349.45L353.23438 349.45L355.375 346.2469L353.3125 343.10626L354.5625 343.10626L355.95312 345.41876Z" fill-rule="nonzero"/><path fill="#757575" d="M31.14375 30.89375Q31.14375 32.9875 30.440624 34.55Q29.7375 36.096874 28.440624 36.925Q27.159374 37.753124 25.440624 37.753124Q23.753124 37.753124 22.45625 36.925Q21.159374 36.096874 20.440624 34.565624Q19.721874 33.034374 19.70625 31.01875L19.70625 30.003124Q19.70625 27.95625 20.409374 26.378124Q21.128124 24.8 22.425 23.971874Q23.7375 23.128124 25.409374 23.128124Q27.128124 23.128124 28.425 23.95625Q29.7375 24.784374 30.440624 26.3625Q31.14375 27.925 31.14375 30.003124L31.14375 30.89375ZM29.26875 29.9875Q29.26875 27.45625 28.253124 26.1125Q27.2375 24.753124 25.409374 24.753124Q23.64375 24.753124 22.6125 26.1125Q21.596874 27.45625 21.565624 29.846874L21.565624 30.89375Q21.565624 33.346874 22.596874 34.753124Q23.628124 36.159374 25.440624 36.159374Q27.253124 36.159374 28.2375 34.83125Q29.2375 33.503124 29.26875 31.034374L29.26875 29.9875ZM36.08125 36.01875L42.83125 36.01875L42.83125 37.55L34.20625 37.55L34.20625 23.33125L36.08125 23.33125L36.08125 36.01875ZM55.01875 24.878124L50.45625 24.878124L50.45625 37.55L48.596874 37.55L48.596874 24.878124L44.034374 24.878124L44.034374 23.33125L55.01875 23.33125L55.01875 24.878124ZM59.08125 31.9875L59.08125 37.55L57.20625 37.55L57.20625 23.33125L62.440624 23.33125Q64.78438 23.33125 66.09688 24.51875Q67.425 25.70625 67.425 27.675Q67.425 29.753124 66.12813 30.878124Q64.83125 31.9875 62.425 31.9875L59.08125 31.9875ZM59.08125 30.45625L62.440624 30.45625Q63.95625 30.45625 64.75313 29.753124Q65.55 29.034374 65.55 27.690624Q65.55 26.425 64.75313 25.675Q63.95625 24.909374 62.55 24.878124L59.08125 24.878124L59.08125 30.45625ZM85.20625 23.33125L85.20625 33.003124Q85.20625 35.003124 83.94063 36.284374Q82.69063 37.565624 80.55 37.721874L80.05 37.753124Q77.70625 37.753124 76.31563 36.4875Q74.94063 35.221874 74.925 33.01875L74.925 23.33125L76.76875 23.33125L76.76875 32.95625Q76.76875 34.503124 77.6125 35.3625Q78.47188 36.20625 80.05 36.20625Q81.64375 36.20625 82.4875 35.3625Q83.33125 34.51875 83.33125 32.971874L83.33125 23.33125L85.20625 23.33125ZM96.84688 32.378124Q96.84688 34.8 95.7375 36.284374Q94.64375 37.753124 92.75313 37.753124Q90.83125 37.753124 89.72188 36.51875L89.72188 41.6125L87.925 41.6125L87.925 26.9875L89.56563 26.9875L89.65938 28.159374Q90.75313 26.784374 92.72188 26.784374Q94.62813 26.784374 95.7375 28.221874Q96.84688 29.659374 96.84688 32.221874L96.84688 32.378124ZM95.03438 32.175Q95.03438 30.39375 94.26875 29.3625Q93.51875 28.315624 92.19063 28.315624Q90.55 28.315624 89.72188 29.76875L89.72188 34.83125Q90.53438 36.26875 92.20625 36.26875Q93.50313 36.26875 94.26875 35.2375Q95.03438 34.20625 95.03438 32.175ZM98.47188 32.175Q98.47188 29.753124 99.62813 28.26875Q100.78438 26.784374 102.64375 26.784374Q104.50313 26.784374 105.58125 28.05L105.58125 22.55L107.39375 22.55L107.39375 37.55L105.7375 37.55L105.64375 36.409374Q104.56563 37.753124 102.62813 37.753124Q100.8 37.753124 99.62813 36.253124Q98.47188 34.7375 98.47188 32.315624L98.47188 32.175ZM100.28438 32.378124Q100.28438 34.175 101.01875 35.190624Q101.76875 36.20625 103.08125 36.20625Q104.8 36.20625 105.58125 34.675L105.58125 29.815624Q104.78438 28.315624 103.09688 28.315624Q101.76875 28.315624 101.01875 29.346874Q100.28438 30.378124 100.28438 32.378124ZM116.44063 37.55Q116.28438 37.2375 116.19063 36.440624Q114.925 37.753124 113.175 37.753124Q111.6125 37.753124 110.6125 36.8625Q109.6125 35.971874 109.6125 34.6125Q109.6125 32.971874 110.8625 32.065624Q112.12813 31.14375 114.39375 31.14375L116.15938 31.14375L116.15938 30.315624Q116.15938 29.3625 115.58125 28.8Q115.01875 28.2375 113.925 28.2375Q112.95625 28.2375 112.3 28.7375Q111.64375 29.221874 111.64375 29.909374L109.83125 29.909374Q109.83125 29.128124 110.39375 28.39375Q110.95625 27.64375 111.90938 27.221874Q112.87813 26.784374 114.03438 26.784374Q115.8625 26.784374 116.89375 27.70625Q117.925 28.6125 117.97188 30.221874L117.97188 35.08125Q117.97188 36.534374 118.33125 37.39375L118.33125 37.55L116.44063 37.55ZM113.44063 36.175Q114.3 36.175 115.05 35.7375Q115.81563 35.3 116.15938 34.596874L116.15938 32.425L114.7375 32.425Q111.425 32.425 111.425 34.3625Q111.425 35.221874 111.9875 35.70625Q112.55 36.175 113.44063 36.175ZM123.3625 24.425L123.3625 26.9875L125.34688 26.9875L125.34688 28.378124L123.3625 28.378124L123.3625 34.925Q123.3625 35.565624 123.62813 35.89375Q123.89375 36.20625 124.53438 36.20625Q124.84688 36.20625 125.39375 36.08125L125.39375 37.55Q124.675 37.753124 124.00313 37.753124Q122.8 37.753124 122.175 37.01875Q121.56563 36.284374 121.56563 34.925L121.56563 28.378124L119.64375 28.378124L119.64375 26.9875L121.56563 26.9875L121.56563 24.425L123.3625 24.425ZM132.3 37.753124Q130.15938 37.753124 128.8 36.346874Q127.45625 34.925 127.45625 32.565624L127.45625 32.221874Q127.45625 30.659374 128.05 29.425Q128.65938 28.190624 129.7375 27.4875Q130.81563 26.784374 132.08125 26.784374Q134.14375 26.784374 135.28438 28.14375Q136.425 29.503124 136.425 32.034374L136.425 32.784374L129.26875 32.784374Q129.3 34.346874 130.175 35.315624Q131.05 36.26875 132.39375 36.26875Q133.3625 36.26875 134.01875 35.878124Q134.69063 35.4875 135.19063 34.846874L136.28438 35.70625Q134.95625 37.753124 132.3 37.753124ZM132.08125 28.26875Q130.9875 28.26875 130.2375 29.065624Q129.50313 29.8625 129.33125 31.3L134.6125 31.3L134.6125 31.159374Q134.53438 29.784374 133.8625 29.034374Q133.20625 28.26875 132.08125 28.26875ZM146.20625 37.55L144.33125 37.55L144.33125 23.33125L146.20625 23.33125L146.20625 37.55ZM150.62813 26.9875L150.69063 28.315624Q151.89375 26.784374 153.84688 26.784374Q157.20625 26.784374 157.22188 30.565624L157.22188 37.55L155.425 37.55L155.425 30.55Q155.40938 29.409374 154.89375 28.8625Q154.39375 28.315624 153.3 28.315624Q152.425 28.315624 151.75313 28.784374Q151.09688 29.253124 150.72188 30.01875L150.72188 37.55L148.925 37.55L148.925 26.9875L150.62813 26.9875ZM159.47188 32.175Q159.47188 29.753124 160.62813 28.26875Q161.78438 26.784374 163.64375 26.784374Q165.50313 26.784374 166.58125 28.05L166.58125 22.55L168.39375 22.55L168.39375 37.55L166.7375 37.55L166.64375 36.409374Q165.56563 37.753124 163.62813 37.753124Q161.8 37.753124 160.62813 36.253124Q159.47188 34.7375 159.47188 32.315624L159.47188 32.175ZM161.28438 32.378124Q161.28438 34.175 162.01875 35.190624Q162.76875 36.20625 164.08125 36.20625Q165.8 36.20625 166.58125 34.675L166.58125 29.815624Q165.78438 28.315624 164.09688 28.315624Q162.76875 28.315624 162.01875 29.346874Q161.28438 30.378124 161.28438 32.378124ZM175.3 37.753124Q173.15938 37.753124 171.8 36.346874Q170.45625 34.925 170.45625 32.565624L170.45625 32.221874Q170.45625 30.659374 171.05 29.425Q171.65938 28.190624 172.7375 27.4875Q173.81563 26.784374 175.08125 26.784374Q177.14375 26.784374 178.28438 28.14375Q179.425 29.503124 179.425 32.034374L179.425 32.784374L172.26875 32.784374Q172.3 34.346874 173.175 35.315624Q174.05 36.26875 175.39375 36.26875Q176.3625 36.26875 177.01875 35.878124Q177.69063 35.4875 178.19063 34.846874L179.28438 35.70625Q177.95625 37.753124 175.3 37.753124ZM175.08125 28.26875Q173.9875 28.26875 173.2375 29.065624Q172.50313 29.8625 172.33125 31.3L177.6125 31.3L177.6125 31.159374Q177.53438 29.784374 176.8625 29.034374Q176.20625 28.26875 175.08125 28.26875ZM185.45625 30.846874L187.8 26.9875L189.90938 26.9875L186.45625 32.20625L190.01875 37.55L187.94063 37.55L185.4875 33.596874L183.05 37.55L180.95625 37.55L184.51875 32.20625L181.06563 26.9875L183.14375 26.9875L185.45625 30.846874ZM200.675 32.253124L195.90938 32.253124L195.90938 30.76875L200.675 30.76875L200.675 32.253124ZM210.08125 36.01875L216.83125 36.01875L216.83125 37.55L208.20625 37.55L208.20625 23.33125L210.08125 23.33125L210.08125 36.01875ZM225.44063 37.55Q225.28438 37.2375 225.19063 36.440624Q223.925 37.753124 222.175 37.753124Q220.6125 37.753124 219.6125 36.8625Q218.6125 35.971874 218.6125 34.6125Q218.6125 32.971874 219.8625 32.065624Q221.12813 31.14375 223.39375 31.14375L225.15938 31.14375L225.15938 30.315624Q225.15938 29.3625 224.58125 28.8Q224.01875 28.2375 222.925 28.2375Q221.95625 28.2375 221.3 28.7375Q220.64375 29.221874 220.64375 29.909374L218.83125 29.909374Q218.83125 29.128124 219.39375 28.39375Q219.95625 27.64375 220.90938 27.221874Q221.87813 26.784374 223.03438 26.784374Q224.8625 26.784374 225.89375 27.70625Q226.925 28.6125 226.97188 30.221874L226.97188 35.08125Q226.97188 36.534374 227.33125 37.39375L227.33125 37.55L225.44063 37.55ZM222.44063 36.175Q223.3 36.175 224.05 35.7375Q224.81563 35.3 225.15938 34.596874L225.15938 32.425L223.7375 32.425Q220.425 32.425 220.425 34.3625Q220.425 35.221874 220.9875 35.70625Q221.55 36.175 222.44063 36.175ZM232.3625 24.425L232.3625 26.9875L234.34688 26.9875L234.34688 28.378124L232.3625 28.378124L232.3625 34.925Q232.3625 35.565624 232.62813 35.89375Q232.89375 36.20625 233.53438 36.20625Q233.84688 36.20625 234.39375 36.08125L234.39375 37.55Q233.675 37.753124 233.00313 37.753124Q231.8 37.753124 231.175 37.01875Q230.56563 36.284374 230.56563 34.925L230.56563 28.378124L228.64375 28.378124L228.64375 26.9875L230.56563 26.9875L230.56563 24.425L232.3625 24.425ZM241.3 37.753124Q239.15938 37.753124 237.8 36.346874Q236.45625 34.925 236.45625 32.565624L236.45625 32.221874Q236.45625 30.659374 237.05 29.425Q237.65938 28.190624 238.7375 27.4875Q239.81563 26.784374 241.08125 26.784374Q243.14375 26.784374 244.28438 28.14375Q245.425 29.503124 245.425 32.034374L245.425 32.784374L238.26875 32.784374Q238.3 34.346874 239.175 35.315624Q240.05 36.26875 241.39375 36.26875Q242.3625 36.26875 243.01875 35.878124Q243.69063 35.4875 244.19063 34.846874L245.28438 35.70625Q243.95625 37.753124 241.3 37.753124ZM241.08125 28.26875Q239.9875 28.26875 239.2375 29.065624Q238.50313 29.8625 238.33125 31.3L243.6125 31.3L243.6125 31.159374Q243.53438 29.784374 242.8625 29.034374Q242.20625 28.26875 241.08125 28.26875ZM249.62813 26.9875L249.69063 28.315624Q250.89375 26.784374 252.84688 26.784374Q256.20624 26.784374 256.22186 30.565624L256.22186 37.55L254.425 37.55L254.425 30.55Q254.40938 29.409374 253.89375 28.8625Q253.39375 28.315624 252.3 28.315624Q251.425 28.315624 250.75313 28.784374Q250.09688 29.253124 249.72188 30.01875L249.72188 37.55L247.925 37.55L247.925 26.9875L249.62813 26.9875ZM263.15936 36.26875Q264.1281 36.26875 264.84686 35.690624Q265.5656 35.096874 265.64374 34.221874L267.3625 34.221874Q267.3 35.128124 266.72186 35.95625Q266.15936 36.76875 265.1906 37.26875Q264.2375 37.753124 263.15936 37.753124Q261.0031 37.753124 259.72186 36.315624Q258.45624 34.8625 258.45624 32.3625L258.45624 32.065624Q258.45624 30.51875 259.01874 29.315624Q259.58124 28.1125 260.64374 27.45625Q261.70624 26.784374 263.14374 26.784374Q264.925 26.784374 266.09686 27.846874Q267.28436 28.909374 267.3625 30.6125L265.64374 30.6125Q265.5656 29.596874 264.8625 28.940624Q264.175 28.26875 263.14374 28.26875Q261.76874 28.26875 261.0031 29.26875Q260.2531 30.253124 260.2531 32.128124L260.2531 32.471874Q260.2531 34.3 261.0031 35.284374Q261.7531 36.26875 263.15936 36.26875ZM272.3781 34.909374L274.83124 26.9875L276.76874 26.9875L272.51874 39.175Q271.53436 41.815624 269.39374 41.815624L269.05 41.784374L268.3781 41.659374L268.3781 40.190624L268.8625 40.2375Q269.78436 40.2375 270.28436 39.8625Q270.8 39.4875 271.1281 38.503124L271.53436 37.425L267.76874 26.9875L269.7375 26.9875L272.3781 34.909374Z" fill-rule="nonzero"/></svg>