<svg version="1.1" viewBox="0.0 0.0 600.0 371.0" fill="none" stroke="none" stroke-linecap="square" stroke-miterlimit="10" width="600" height="371" xmlns:xlink="http://www.w3.org/1999/xlink" xmlns="http://www.w3.org/2000/svg"><path fill="#ffffff" d="M0 0L600.0 0L600.0 371.0L0 371.0L0 0Z" fill-rule="nonzero"/><path stroke="#333333" stroke-width="1.0" stroke-linecap="butt" d="M62.5 304.5L581.5 304.5" fill-rule="nonzero"/><path stroke="#cccccc" stroke-width="1.0" stroke-linecap="butt" d="M62.5 243.5L581.5 243.5" fill-rule="nonzero"/><path stroke="#cccccc" stroke-width="1.0" stroke-linecap="butt" d="M62.5 183.5L581.5 183.5" fill-rule="nonzero"/><path stroke="#cccccc" stroke-width="1.0" stroke-linecap="butt" d="M62.5 122.5L581.5 122.5" fill-rule="nonzero"/><path stroke="#cccccc" stroke-width="1.0" stroke-linecap="butt" d="M62.5 62.5L581.5 62.5" fill-rule="nonzero"/><clipPath id="id_0"><path d="M62.55 62.416668L581.45 62.416668L581.45 304.08334L62.55 304.08334L62.55 62.416668Z" clip-rule="nonzero"/></clipPath><path stroke="#4285f4" stroke-width="2.0" stroke-linecap="butt" clip-path="url(#id_0)" d="M105.791664 262.2206L192.275 249.23708L278.75833 202.92166L365.24167 161.65709L451.725 133.5573L538.2083 96.20167" fill-rule="nonzero"/><path fill="#000000" fill-opacity="0.0" clip-path="url(#id_0)" d="M108.791664 262.2206C108.791664 263.87747 107.448524 265.2206 105.791664 265.2206C104.13481 265.2206 102.791664 263.87747 102.791664 262.2206C102.791664 260.56378 104.13481 259.2206 105.791664 259.2206C107.448524 259.2206 108.791664 260.56378 108.791664 262.2206Z" fill-rule="nonzero"/><path fill="#000000" fill-opacity="0.0" clip-path="url(#id_0)" d="M195.275 249.23708C195.275 250.89394 193.93185 252.23708 192.275 252.23708C190.61815 252.23708 189.275 250.89394 189.275 249.23708C189.275 247.58023 190.61815 246.23708 192.275 246.23708C193.93185 246.23708 195.275 247.58023 195.275 249.23708Z" fill-rule="nonzero"/><path fill="#000000" fill-opacity="0.0" clip-path="url(#id_0)" d="M281.75833 202.92166C281.75833 204.57852 280.4152 205.92166 278.75833 205.92166C277.10147 205.92166 275.75833 204.57852 275.75833 202.92166C275.75833 201.26482 277.10147 199.92166 278.75833 199.92166C280.4152 199.92166 281.75833 201.26482 281.75833 202.92166Z" fill-rule="nonzero"/><path fill="#000000" fill-opacity="0.0" clip-path="url(#id_0)" d="M368.24167 161.65709C368.24167 163.31393 366.89853 164.65709 365.24167 164.65709C363.5848 164.65709 362.24167 163.31393 362.24167 161.65709C362.24167 160.00023 363.5848 158.65709 365.24167 158.65709C366.89853 158.65709 368.24167 160.00023 368.24167 161.65709Z" fill-rule="nonzero"/><path fill="#000000" fill-opacity="0.0" clip-path="url(#id_0)" d="M454.725 133.5573C454.725 135.21414 453.38187 136.5573 451.725 136.5573C450.06815 136.5573 448.725 135.21414 448.725 133.5573C448.725 131.90044 450.06815 130.5573 451.725 130.5573C453.38187 130.5573 454.725 131.90044 454.725 133.5573Z" fill-rule="nonzero"/><path fill="#000000" fill-opacity="0.0" clip-path="url(#id_0)" d="M541.2083 96.20167C541.2083 97.85852 539.8652 99.20167 538.2083 99.20167C536.55145 99.20167 535.2083 97.85852 535.2083 96.20167C535.2083 94.544815 536.55145 93.20167 538.2083 93.20167C539.8652 93.20167 541.2083 94.544815 541.2083 96.20167Z" fill-rule="nonzero"/><path fill="#757575" d="M38.6125 304.94272Q38.6125 306.84897 37.95625 307.78647Q37.315624 308.70834 35.925 308.70834Q34.565624 308.70834 33.909374 307.8021Q33.253124 306.89584 33.221874 305.08334L33.221874 303.64584Q33.221874 301.75522 33.8625 300.84897Q34.51875 299.9271 35.909374 299.9271Q37.284374 299.9271 37.940624 300.81772Q38.596874 301.69272 38.6125 303.53647L38.6125 304.94272ZM37.51875 303.45834Q37.51875 302.08334 37.128124 301.45834Q36.753124 300.81772 35.909374 300.81772Q35.08125 300.81772 34.690624 301.45834Q34.315624 302.08334 34.315624 303.38022L34.315624 305.1146Q34.315624 306.4896 34.70625 307.16147Q35.1125 307.81772 35.925 307.81772Q36.721874 307.81772 37.1125 307.19272Q37.503124 306.56772 37.51875 305.2396L37.51875 303.45834ZM40.39375 308.02084Q40.39375 307.7396 40.55 307.5521Q40.721874 307.3646 41.05 307.3646Q41.39375 307.3646 41.565624 307.5521Q41.7375 307.7396 41.7375 308.02084Q41.7375 308.28647 41.565624 308.47397Q41.39375 308.64584 41.05 308.64584Q40.721874 308.64584 40.55 308.47397Q40.39375 308.28647 40.39375 308.02084ZM48.6125 304.94272Q48.6125 306.84897 47.95625 307.78647Q47.315624 308.70834 45.925 308.70834Q44.565624 308.70834 43.909374 307.8021Q43.253124 306.89584 43.221874 305.08334L43.221874 303.64584Q43.221874 301.75522 43.8625 300.84897Q44.51875 299.9271 45.909374 299.9271Q47.284374 299.9271 47.940624 300.81772Q48.596874 301.69272 48.6125 303.53647L48.6125 304.94272ZM47.51875 303.45834Q47.51875 302.08334 47.128124 301.45834Q46.753124 300.81772 45.909374 300.81772Q45.08125 300.81772 44.690624 301.45834Q44.315624 302.08334 44.315624 303.38022L44.315624 305.1146Q44.315624 306.4896 44.70625 307.16147Q45.1125 307.81772 45.925 307.81772Q46.721874 307.81772 47.1125 307.19272Q47.503124 306.56772 47.51875 305.2396L47.51875 303.45834ZM55.6125 304.94272Q55.6125 306.84897 54.95625 307.78647Q54.315624 308.70834 52.925 308.70834Q51.565624 308.70834 50.909374 307.8021Q50.253124 306.89584 50.221874 305.08334L50.221874 303.64584Q50.221874 301.75522 50.8625 300.84897Q51.51875 299.9271 52.909374 299.9271Q54.284374 299.9271 54.940624 300.81772Q55.596874 301.69272 55.6125 303.53647L55.6125 304.94272ZM54.51875 303.45834Q54.51875 302.08334 54.128124 301.45834Q53.753124 300.81772 52.909374 300.81772Q52.08125 300.81772 51.690624 301.45834Q51.315624 302.08334 51.315624 303.38022L51.315624 305.1146Q51.315624 306.4896 51.70625 307.16147Q52.1125 307.81772 52.925 307.81772Q53.721874 307.81772 54.1125 307.19272Q54.503124 306.56772 54.51875 305.2396L54.51875 303.45834Z" fill-rule="nonzero"/><path fill="#757575" d="M22.815624 248.16667L21.7375 248.16667L21.7375 240.94792L19.55 241.7448L19.55 240.76042L22.659374 239.58855L22.815624 239.58855L22.815624 248.16667ZM31.6125 244.52605Q31.6125 246.4323 30.95625 247.3698Q30.315624 248.29167 28.925 248.29167Q27.565624 248.29167 26.909374 247.38542Q26.253124 246.47917 26.221874 244.66667L26.221874 243.22917Q26.221874 241.33855 26.8625 240.4323Q27.51875 239.51042 28.909374 239.51042Q30.284374 239.51042 30.940624 240.40105Q31.596874 241.27605 31.6125 243.1198L31.6125 244.52605ZM30.51875 243.04167Q30.51875 241.66667 30.128124 241.04167Q29.753124 240.40105 28.909374 240.40105Q28.08125 240.40105 27.690624 241.04167Q27.315624 241.66667 27.315624 242.96355L27.315624 244.69792Q27.315624 246.07292 27.70625 246.7448Q28.1125 247.40105 28.925 247.40105Q29.721874 247.40105 30.1125 246.77605Q30.503124 246.15105 30.51875 244.82292L30.51875 243.04167ZM38.6125 244.52605Q38.6125 246.4323 37.95625 247.3698Q37.315624 248.29167 35.925 248.29167Q34.565624 248.29167 33.909374 247.38542Q33.253124 246.47917 33.221874 244.66667L33.221874 243.22917Q33.221874 241.33855 33.8625 240.4323Q34.51875 239.51042 35.909374 239.51042Q37.284374 239.51042 37.940624 240.40105Q38.596874 241.27605 38.6125 243.1198L38.6125 244.52605ZM37.51875 243.04167Q37.51875 241.66667 37.128124 241.04167Q36.753124 240.40105 35.909374 240.40105Q35.08125 240.40105 34.690624 241.04167Q34.315624 241.66667 34.315624 242.96355L34.315624 244.69792Q34.315624 246.07292 34.70625 246.7448Q35.1125 247.40105 35.925 247.40105Q36.721874 247.40105 37.1125 246.77605Q37.503124 246.15105 37.51875 244.82292L37.51875 243.04167ZM40.39375 247.60417Q40.39375 247.32292 40.55 247.13542Q40.721874 246.94792 41.05 246.94792Q41.39375 246.94792 41.565624 247.13542Q41.7375 247.32292 41.7375 247.60417Q41.7375 247.8698 41.565624 248.0573Q41.39375 248.22917 41.05 248.22917Q40.721874 248.22917 40.55 248.0573Q40.39375 247.8698 40.39375 247.60417ZM48.6125 244.52605Q48.6125 246.4323 47.95625 247.3698Q47.315624 248.29167 45.925 248.29167Q44.565624 248.29167 43.909374 247.38542Q43.253124 246.47917 43.221874 244.66667L43.221874 243.22917Q43.221874 241.33855 43.8625 240.4323Q44.51875 239.51042 45.909374 239.51042Q47.284374 239.51042 47.940624 240.40105Q48.596874 241.27605 48.6125 243.1198L48.6125 244.52605ZM47.51875 243.04167Q47.51875 241.66667 47.128124 241.04167Q46.753124 240.40105 45.909374 240.40105Q45.08125 240.40105 44.690624 241.04167Q44.315624 241.66667 44.315624 242.96355L44.315624 244.69792Q44.315624 246.07292 44.70625 246.7448Q45.1125 247.40105 45.925 247.40105Q46.721874 247.40105 47.1125 246.77605Q47.503124 246.15105 47.51875 244.82292L47.51875 243.04167ZM55.6125 244.52605Q55.6125 246.4323 54.95625 247.3698Q54.315624 248.29167 52.925 248.29167Q51.565624 248.29167 50.909374 247.38542Q50.253124 246.47917 50.221874 244.66667L50.221874 243.22917Q50.221874 241.33855 50.8625 240.4323Q51.51875 239.51042 52.909374 239.51042Q54.284374 239.51042 54.940624 240.40105Q55.596874 241.27605 55.6125 243.1198L55.6125 244.52605ZM54.51875 243.04167Q54.51875 241.66667 54.128124 241.04167Q53.753124 240.40105 52.909374 240.40105Q52.08125 240.40105 51.690624 241.04167Q51.315624 241.66667 51.315624 242.96355L51.315624 244.69792Q51.315624 246.07292 51.70625 246.7448Q52.1125 247.40105 52.925 247.40105Q53.721874 247.40105 54.1125 246.77605Q54.503124 246.15105 54.51875 244.82292L54.51875 243.04167Z" fill-rule="nonzero"/><path fill="#757575" d="M24.846874 187.75L19.253124 187.75L19.253124 186.96875L22.20625 183.6875Q22.8625 182.9375 23.1125 182.48438Q23.3625 182.01562 23.3625 181.51562Q23.3625 180.84375 22.95625 180.42188Q22.565624 179.98438 21.878124 179.98438Q21.08125 179.98438 20.628124 180.45312Q20.175 180.90625 20.175 181.73438L19.096874 181.73438Q19.096874 180.54688 19.846874 179.82812Q20.6125 179.09375 21.878124 179.09375Q23.08125 179.09375 23.76875 179.71875Q24.45625 180.34375 24.45625 181.39062Q24.45625 182.64062 22.846874 184.39062L20.565624 186.85938L24.846874 186.85938L24.846874 187.75ZM31.6125 184.10938Q31.6125 186.01562 30.95625 186.95312Q30.315624 187.875 28.925 187.875Q27.565624 187.875 26.909374 186.96875Q26.253124 186.0625 26.221874 184.25L26.221874 182.8125Q26.221874 180.92188 26.8625 180.01562Q27.51875 179.09375 28.909374 179.09375Q30.284374 179.09375 30.940624 179.98438Q31.596874 180.85938 31.6125 182.70312L31.6125 184.10938ZM30.51875 182.625Q30.51875 181.25 30.128124 180.625Q29.753124 179.98438 28.909374 179.98438Q28.08125 179.98438 27.690624 180.625Q27.315624 181.25 27.315624 182.54688L27.315624 184.28125Q27.315624 185.65625 27.70625 186.32812Q28.1125 186.98438 28.925 186.98438Q29.721874 186.98438 30.1125 186.35938Q30.503124 185.73438 30.51875 184.40625L30.51875 182.625ZM38.6125 184.10938Q38.6125 186.01562 37.95625 186.95312Q37.315624 187.875 35.925 187.875Q34.565624 187.875 33.909374 186.96875Q33.253124 186.0625 33.221874 184.25L33.221874 182.8125Q33.221874 180.92188 33.8625 180.01562Q34.51875 179.09375 35.909374 179.09375Q37.284374 179.09375 37.940624 179.98438Q38.596874 180.85938 38.6125 182.70312L38.6125 184.10938ZM37.51875 182.625Q37.51875 181.25 37.128124 180.625Q36.753124 179.98438 35.909374 179.98438Q35.08125 179.98438 34.690624 180.625Q34.315624 181.25 34.315624 182.54688L34.315624 184.28125Q34.315624 185.65625 34.70625 186.32812Q35.1125 186.98438 35.925 186.98438Q36.721874 186.98438 37.1125 186.35938Q37.503124 185.73438 37.51875 184.40625L37.51875 182.625ZM40.39375 187.1875Q40.39375 186.90625 40.55 186.71875Q40.721874 186.53125 41.05 186.53125Q41.39375 186.53125 41.565624 186.71875Q41.7375 186.90625 41.7375 187.1875Q41.7375 187.45312 41.565624 187.64062Q41.39375 187.8125 41.05 187.8125Q40.721874 187.8125 40.55 187.64062Q40.39375 187.45312 40.39375 187.1875ZM48.6125 184.10938Q48.6125 186.01562 47.95625 186.95312Q47.315624 187.875 45.925 187.875Q44.565624 187.875 43.909374 186.96875Q43.253124 186.0625 43.221874 184.25L43.221874 182.8125Q43.221874 180.92188 43.8625 180.01562Q44.51875 179.09375 45.909374 179.09375Q47.284374 179.09375 47.940624 179.98438Q48.596874 180.85938 48.6125 182.70312L48.6125 184.10938ZM47.51875 182.625Q47.51875 181.25 47.128124 180.625Q46.753124 179.98438 45.909374 179.98438Q45.08125 179.98438 44.690624 180.625Q44.315624 181.25 44.315624 182.54688L44.315624 184.28125Q44.315624 185.65625 44.70625 186.32812Q45.1125 186.98438 45.925 186.98438Q46.721874 186.98438 47.1125 186.35938Q47.503124 185.73438 47.51875 184.40625L47.51875 182.625ZM55.6125 184.10938Q55.6125 186.01562 54.95625 186.95312Q54.315624 187.875 52.925 187.875Q51.565624 187.875 50.909374 186.96875Q50.253124 186.0625 50.221874 184.25L50.221874 182.8125Q50.221874 180.92188 50.8625 180.01562Q51.51875 179.09375 52.909374 179.09375Q54.284374 179.09375 54.940624 179.98438Q55.596874 180.85938 55.6125 182.70312L55.6125 184.10938ZM54.51875 182.625Q54.51875 181.25 54.128124 180.625Q53.753124 179.98438 52.909374 179.98438Q52.08125 179.98438 51.690624 180.625Q51.315624 181.25 51.315624 182.54688L51.315624 184.28125Q51.315624 185.65625 51.70625 186.32812Q52.1125 186.98438 52.925 186.98438Q53.721874 186.98438 54.1125 186.35938Q54.503124 185.73438 54.51875 184.40625L54.51875 182.625Z" fill-rule="nonzero"/><path fill="#757575" d="M20.83125 122.53646L21.64375 122.53646Q22.425 122.520836 22.8625 122.13021Q23.3 121.739586 23.3 121.06771Q23.3 119.56771 21.8 119.56771Q21.096874 119.56771 20.675 119.97396Q20.26875 120.38021 20.26875 121.03646L19.175 121.03646Q19.175 120.020836 19.909374 119.34896Q20.659374 118.677086 21.8 118.677086Q23.003124 118.677086 23.690624 119.31771Q24.378124 119.958336 24.378124 121.09896Q24.378124 121.66146 24.01875 122.177086Q23.659374 122.69271 23.034374 122.958336Q23.7375 123.177086 24.1125 123.69271Q24.503124 124.208336 24.503124 124.958336Q24.503124 126.09896 23.753124 126.78646Q23.003124 127.458336 21.8 127.458336Q20.6125 127.458336 19.846874 126.802086Q19.096874 126.145836 19.096874 125.083336L20.190624 125.083336Q20.190624 125.75521 20.628124 126.16146Q21.065624 126.56771 21.815624 126.56771Q22.596874 126.56771 23.003124 126.16146Q23.425 125.739586 23.425 124.97396Q23.425 124.239586 22.971874 123.84896Q22.51875 123.44271 21.64375 123.427086L20.83125 123.427086L20.83125 122.53646ZM31.6125 123.69271Q31.6125 125.59896 30.95625 126.53646Q30.315624 127.458336 28.925 127.458336Q27.565624 127.458336 26.909374 126.552086Q26.253124 125.645836 26.221874 123.833336L26.221874 122.395836Q26.221874 120.50521 26.8625 119.59896Q27.51875 118.677086 28.909374 118.677086Q30.284374 118.677086 30.940624 119.56771Q31.596874 120.44271 31.6125 122.28646L31.6125 123.69271ZM30.51875 122.208336Q30.51875 120.833336 30.128124 120.208336Q29.753124 119.56771 28.909374 119.56771Q28.08125 119.56771 27.690624 120.208336Q27.315624 120.833336 27.315624 122.13021L27.315624 123.864586Q27.315624 125.239586 27.70625 125.91146Q28.1125 126.56771 28.925 126.56771Q29.721874 126.56771 30.1125 125.94271Q30.503124 125.31771 30.51875 123.989586L30.51875 122.208336ZM38.6125 123.69271Q38.6125 125.59896 37.95625 126.53646Q37.315624 127.458336 35.925 127.458336Q34.565624 127.458336 33.909374 126.552086Q33.253124 125.645836 33.221874 123.833336L33.221874 122.395836Q33.221874 120.50521 33.8625 119.59896Q34.51875 118.677086 35.909374 118.677086Q37.284374 118.677086 37.940624 119.56771Q38.596874 120.44271 38.6125 122.28646L38.6125 123.69271ZM37.51875 122.208336Q37.51875 120.833336 37.128124 120.208336Q36.753124 119.56771 35.909374 119.56771Q35.08125 119.56771 34.690624 120.208336Q34.315624 120.833336 34.315624 122.13021L34.315624 123.864586Q34.315624 125.239586 34.70625 125.91146Q35.1125 126.56771 35.925 126.56771Q36.721874 126.56771 37.1125 125.94271Q37.503124 125.31771 37.51875 123.989586L37.51875 122.208336ZM40.39375 126.770836Q40.39375 126.489586 40.55 126.302086Q40.721874 126.114586 41.05 126.114586Q41.39375 126.114586 41.565624 126.302086Q41.7375 126.489586 41.7375 126.770836Q41.7375 127.03646 41.565624 127.22396Q41.39375 127.395836 41.05 127.395836Q40.721874 127.395836 40.55 127.22396Q40.39375 127.03646 40.39375 126.770836ZM48.6125 123.69271Q48.6125 125.59896 47.95625 126.53646Q47.315624 127.458336 45.925 127.458336Q44.565624 127.458336 43.909374 126.552086Q43.253124 125.645836 43.221874 123.833336L43.221874 122.395836Q43.221874 120.50521 43.8625 119.59896Q44.51875 118.677086 45.909374 118.677086Q47.284374 118.677086 47.940624 119.56771Q48.596874 120.44271 48.6125 122.28646L48.6125 123.69271ZM47.51875 122.208336Q47.51875 120.833336 47.128124 120.208336Q46.753124 119.56771 45.909374 119.56771Q45.08125 119.56771 44.690624 120.208336Q44.315624 120.833336 44.315624 122.13021L44.315624 123.864586Q44.315624 125.239586 44.70625 125.91146Q45.1125 126.56771 45.925 126.56771Q46.721874 126.56771 47.1125 125.94271Q47.503124 125.31771 47.51875 123.989586L47.51875 122.208336ZM55.6125 123.69271Q55.6125 125.59896 54.95625 126.53646Q54.315624 127.458336 52.925 127.458336Q51.565624 127.458336 50.909374 126.552086Q50.253124 125.645836 50.221874 123.833336L50.221874 122.395836Q50.221874 120.50521 50.8625 119.59896Q51.51875 118.677086 52.909374 118.677086Q54.284374 118.677086 54.940624 119.56771Q55.596874 120.44271 55.6125 122.28646L55.6125 123.69271ZM54.51875 122.208336Q54.51875 120.833336 54.128124 120.208336Q53.753124 119.56771 52.909374 119.56771Q52.08125 119.56771 51.690624 120.208336Q51.315624 120.833336 51.315624 122.13021L51.315624 123.864586Q51.315624 125.239586 51.70625 125.91146Q52.1125 126.56771 52.925 126.56771Q53.721874 126.56771 54.1125 125.94271Q54.503124 125.31771 54.51875 123.989586L54.51875 122.208336Z" fill-rule="nonzero"/><path fill="#757575" d="M23.83125 64.05729L25.01875 64.05729L25.01875 64.93229L23.83125 64.93229L23.83125 66.916664L22.753124 66.916664L22.753124 64.93229L18.8625 64.93229L18.8625 64.291664L22.675 58.385414L23.83125 58.385414L23.83125 64.05729ZM20.096874 64.05729L22.753124 64.05729L22.753124 59.86979L22.6125 60.104164L20.096874 64.05729ZM31.6125 63.27604Q31.6125 65.18229 30.95625 66.11979Q30.315624 67.041664 28.925 67.041664Q27.565624 67.041664 26.909374 66.135414Q26.253124 65.229164 26.221874 63.416664L26.221874 61.979164Q26.221874 60.08854 26.8625 59.18229Q27.51875 58.260414 28.909374 58.260414Q30.284374 58.260414 30.940624 59.15104Q31.596874 60.02604 31.6125 61.86979L31.6125 63.27604ZM30.51875 61.791664Q30.51875 60.416664 30.128124 59.791664Q29.753124 59.15104 28.909374 59.15104Q28.08125 59.15104 27.690624 59.791664Q27.315624 60.416664 27.315624 61.71354L27.315624 63.447914Q27.315624 64.822914 27.70625 65.49479Q28.1125 66.15104 28.925 66.15104Q29.721874 66.15104 30.1125 65.52604Q30.503124 64.90104 30.51875 63.572914L30.51875 61.791664ZM38.6125 63.27604Q38.6125 65.18229 37.95625 66.11979Q37.315624 67.041664 35.925 67.041664Q34.565624 67.041664 33.909374 66.135414Q33.253124 65.229164 33.221874 63.416664L33.221874 61.979164Q33.221874 60.08854 33.8625 59.18229Q34.51875 58.260414 35.909374 58.260414Q37.284374 58.260414 37.940624 59.15104Q38.596874 60.02604 38.6125 61.86979L38.6125 63.27604ZM37.51875 61.791664Q37.51875 60.416664 37.128124 59.791664Q36.753124 59.15104 35.909374 59.15104Q35.08125 59.15104 34.690624 59.791664Q34.315624 60.416664 34.315624 61.71354L34.315624 63.447914Q34.315624 64.822914 34.70625 65.49479Q35.1125 66.15104 35.925 66.15104Q36.721874 66.15104 37.1125 65.52604Q37.503124 64.90104 37.51875 63.572914L37.51875 61.791664ZM40.39375 66.354164Q40.39375 66.072914 40.55 65.885414Q40.721874 65.697914 41.05 65.697914Q41.39375 65.697914 41.565624 65.885414Q41.7375 66.072914 41.7375 66.354164Q41.7375 66.61979 41.565624 66.80729Q41.39375 66.979164 41.05 66.979164Q40.721874 66.979164 40.55 66.80729Q40.39375 66.61979 40.39375 66.354164ZM48.6125 63.27604Q48.6125 65.18229 47.95625 66.11979Q47.315624 67.041664 45.925 67.041664Q44.565624 67.041664 43.909374 66.135414Q43.253124 65.229164 43.221874 63.416664L43.221874 61.979164Q43.221874 60.08854 43.8625 59.18229Q44.51875 58.260414 45.909374 58.260414Q47.284374 58.260414 47.940624 59.15104Q48.596874 60.02604 48.6125 61.86979L48.6125 63.27604ZM47.51875 61.791664Q47.51875 60.416664 47.128124 59.791664Q46.753124 59.15104 45.909374 59.15104Q45.08125 59.15104 44.690624 59.791664Q44.315624 60.416664 44.315624 61.71354L44.315624 63.447914Q44.315624 64.822914 44.70625 65.49479Q45.1125 66.15104 45.925 66.15104Q46.721874 66.15104 47.1125 65.52604Q47.503124 64.90104 47.51875 63.572914L47.51875 61.791664ZM55.6125 63.27604Q55.6125 65.18229 54.95625 66.11979Q54.315624 67.041664 52.925 67.041664Q51.565624 67.041664 50.909374 66.135414Q50.253124 65.229164 50.221874 63.416664L50.221874 61.979164Q50.221874 60.08854 50.8625 59.18229Q51.51875 58.260414 52.909374 58.260414Q54.284374 58.260414 54.940624 59.15104Q55.596874 60.02604 55.6125 61.86979L55.6125 63.27604ZM54.51875 61.791664Q54.51875 60.416664 54.128124 59.791664Q53.753124 59.15104 52.909374 59.15104Q52.08125 59.15104 51.690624 59.791664Q51.315624 60.416664 51.315624 61.71354L51.315624 63.447914Q51.315624 64.822914 51.70625 65.49479Q52.1125 66.15104 52.925 66.15104Q53.721874 66.15104 54.1125 65.52604Q54.503124 64.90104 54.51875 63.572914L54.51875 61.791664Z" fill-rule="nonzero"/><path fill="#757575" d="M99.55729 322.08334L98.479164 322.08334L98.479164 314.8646L96.291664 315.66147L96.291664 314.6771L99.40104 313.50522L99.55729 313.50522L99.55729 322.08334ZM103.49479 317.8021L103.93229 313.5521L108.30729 313.5521L108.30729 314.5521L104.854164 314.5521L104.58854 316.88022Q105.229164 316.50522 106.02604 316.50522Q107.18229 316.50522 107.86979 317.28647Q108.55729 318.0521 108.55729 319.3646Q108.55729 320.6771 107.83854 321.44272Q107.135414 322.20834 105.854164 322.20834Q104.729164 322.20834 104.010414 321.58334Q103.291664 320.94272 103.197914 319.83334L104.21354 319.83334Q104.322914 320.56772 104.74479 320.94272Q105.166664 321.31772 105.854164 321.31772Q106.604164 321.31772 107.041664 320.8021Q107.479164 320.28647 107.479164 319.38022Q107.479164 318.52084 107.010414 318.00522Q106.541664 317.4896 105.760414 317.4896Q105.05729 317.4896 104.65104 317.78647L104.36979 318.02084L103.49479 317.8021ZM115.354164 318.44272Q115.354164 320.34897 114.697914 321.28647Q114.05729 322.20834 112.666664 322.20834Q111.30729 322.20834 110.65104 321.3021Q109.99479 320.39584 109.96354 318.58334L109.96354 317.14584Q109.96354 315.25522 110.604164 314.34897Q111.260414 313.4271 112.65104 313.4271Q114.02604 313.4271 114.68229 314.31772Q115.33854 315.19272 115.354164 317.03647L115.354164 318.44272ZM114.260414 316.95834Q114.260414 315.58334 113.86979 314.95834Q113.49479 314.31772 112.65104 314.31772Q111.822914 314.31772 111.43229 314.95834Q111.05729 315.58334 111.05729 316.88022L111.05729 318.6146Q111.05729 319.9896 111.447914 320.66147Q111.854164 321.31772 112.666664 321.31772Q113.46354 321.31772 113.854164 320.69272Q114.24479 320.06772 114.260414 318.7396L114.260414 316.95834Z" fill-rule="nonzero"/><path fill="#757575" d="M184.05624 317.28647L184.86874 317.28647Q185.65 317.27084 186.0875 316.88022Q186.525 316.4896 186.525 315.81772Q186.525 314.31772 185.025 314.31772Q184.32187 314.31772 183.9 314.72397Q183.49374 315.13022 183.49374 315.78647L182.4 315.78647Q182.4 314.77084 183.13437 314.09897Q183.88437 313.4271 185.025 313.4271Q186.22812 313.4271 186.91562 314.06772Q187.60312 314.70834 187.60312 315.84897Q187.60312 316.41147 187.24374 316.9271Q186.88437 317.44272 186.25937 317.70834Q186.9625 317.9271 187.3375 318.44272Q187.72812 318.95834 187.72812 319.70834Q187.72812 320.84897 186.97812 321.53647Q186.22812 322.20834 185.025 322.20834Q183.8375 322.20834 183.07187 321.5521Q182.32187 320.89584 182.32187 319.83334L183.41562 319.83334Q183.41562 320.50522 183.85312 320.91147Q184.29062 321.31772 185.04062 321.31772Q185.82187 321.31772 186.22812 320.91147Q186.65 320.4896 186.65 319.72397Q186.65 318.9896 186.19687 318.59897Q185.74374 318.19272 184.86874 318.1771L184.05624 318.1771L184.05624 317.28647ZM194.8375 318.44272Q194.8375 320.34897 194.18124 321.28647Q193.54062 322.20834 192.15 322.20834Q190.79062 322.20834 190.13437 321.3021Q189.47812 320.39584 189.44687 318.58334L189.44687 317.14584Q189.44687 315.25522 190.0875 314.34897Q190.74374 313.4271 192.13437 313.4271Q193.50937 313.4271 194.16562 314.31772Q194.82187 315.19272 194.8375 317.03647L194.8375 318.44272ZM193.74374 316.95834Q193.74374 315.58334 193.35312 314.95834Q192.97812 314.31772 192.13437 314.31772Q191.30624 314.31772 190.91562 314.95834Q190.54062 315.58334 190.54062 316.88022L190.54062 318.6146Q190.54062 319.9896 190.93124 320.66147Q191.3375 321.31772 192.15 321.31772Q192.94687 321.31772 193.3375 320.69272Q193.72812 320.06772 193.74374 318.7396L193.74374 316.95834ZM201.8375 318.44272Q201.8375 320.34897 201.18124 321.28647Q200.54062 322.20834 199.15 322.20834Q197.79062 322.20834 197.13437 321.3021Q196.47812 320.39584 196.44687 318.58334L196.44687 317.14584Q196.44687 315.25522 197.0875 314.34897Q197.74374 313.4271 199.13437 313.4271Q200.50937 313.4271 201.16562 314.31772Q201.82187 315.19272 201.8375 317.03647L201.8375 318.44272ZM200.74374 316.95834Q200.74374 315.58334 200.35312 314.95834Q199.97812 314.31772 199.13437 314.31772Q198.30624 314.31772 197.91562 314.95834Q197.54062 315.58334 197.54062 316.88022L197.54062 318.6146Q197.54062 319.9896 197.93124 320.66147Q198.3375 321.31772 199.15 321.31772Q199.94687 321.31772 200.3375 320.69272Q200.72812 320.06772 200.74374 318.7396L200.74374 316.95834Z" fill-rule="nonzero"/><path fill="#757575" d="M273.22708 313.5521L273.22708 314.45834L273.02396 314.45834Q271.75833 314.4896 271.00833 315.22397Q270.25833 315.94272 270.13333 317.25522Q270.82083 316.4896 271.97708 316.4896Q273.08646 316.4896 273.75833 317.27084Q274.4302 318.0521 274.4302 319.3021Q274.4302 320.6146 273.71146 321.41147Q272.9927 322.20834 271.77396 322.20834Q270.5552 322.20834 269.78958 321.27084Q269.03958 320.31772 269.03958 318.83334L269.03958 318.4271Q269.03958 316.06772 270.03958 314.81772Q271.03958 313.56772 273.02396 313.5521L273.22708 313.5521ZM271.8052 317.39584Q271.2427 317.39584 270.77396 317.72397Q270.3052 318.0521 270.1177 318.56772L270.1177 318.95834Q270.1177 320.02084 270.58646 320.66147Q271.07083 321.3021 271.77396 321.3021Q272.50833 321.3021 272.9302 320.77084Q273.35208 320.22397 273.35208 319.34897Q273.35208 318.47397 272.9302 317.94272Q272.50833 317.39584 271.8052 317.39584ZM281.32083 318.44272Q281.32083 320.34897 280.66458 321.28647Q280.02396 322.20834 278.63333 322.20834Q277.27396 322.20834 276.6177 321.3021Q275.96146 320.39584 275.9302 318.58334L275.9302 317.14584Q275.9302 315.25522 276.57083 314.34897Q277.22708 313.4271 278.6177 313.4271Q279.9927 313.4271 280.64896 314.31772Q281.3052 315.19272 281.32083 317.03647L281.32083 318.44272ZM280.22708 316.95834Q280.22708 315.58334 279.83646 314.95834Q279.46146 314.31772 278.6177 314.31772Q277.78958 314.31772 277.39896 314.95834Q277.02396 315.58334 277.02396 316.88022L277.02396 318.6146Q277.02396 319.9896 277.41458 320.66147Q277.82083 321.31772 278.63333 321.31772Q279.4302 321.31772 279.82083 320.69272Q280.21146 320.06772 280.22708 318.7396L280.22708 316.95834ZM288.32083 318.44272Q288.32083 320.34897 287.66458 321.28647Q287.02396 322.20834 285.63333 322.20834Q284.27396 322.20834 283.6177 321.3021Q282.96146 320.39584 282.9302 318.58334L282.9302 317.14584Q282.9302 315.25522 283.57083 314.34897Q284.22708 313.4271 285.6177 313.4271Q286.9927 313.4271 287.64896 314.31772Q288.3052 315.19272 288.32083 317.03647L288.32083 318.44272ZM287.22708 316.95834Q287.22708 315.58334 286.83646 314.95834Q286.46146 314.31772 285.6177 314.31772Q284.78958 314.31772 284.39896 314.95834Q284.02396 315.58334 284.02396 316.88022L284.02396 318.6146Q284.02396 319.9896 284.41458 320.66147Q284.82083 321.31772 285.63333 321.31772Q286.4302 321.31772 286.82083 320.69272Q287.21146 320.06772 287.22708 318.7396L287.22708 316.95834Z" fill-rule="nonzero"/><path fill="#757575" d="M359.60104 318.33334Q359.27292 318.7396 358.78854 318.9896Q358.3198 319.22397 357.7573 319.22397Q357.02292 319.22397 356.47604 318.8646Q355.92917 318.50522 355.6323 317.84897Q355.33542 317.1771 355.33542 316.38022Q355.33542 315.53647 355.64792 314.84897Q355.97604 314.16147 356.5698 313.8021Q357.17917 313.4271 357.97604 313.4271Q359.24167 313.4271 359.96042 314.38022Q360.6948 315.33334 360.6948 316.95834L360.6948 317.27084Q360.6948 319.77084 359.71042 320.91147Q358.72604 322.0521 356.74167 322.08334L356.52292 322.08334L356.52292 321.1771L356.7573 321.1771Q358.10104 321.14584 358.8198 320.47397Q359.53854 319.8021 359.60104 318.33334ZM357.92917 318.33334Q358.47604 318.33334 358.92917 318.00522Q359.39792 317.66147 359.61667 317.1771L359.61667 316.7396Q359.61667 315.6771 359.14792 315.00522Q358.67917 314.33334 357.97604 314.33334Q357.2573 314.33334 356.8198 314.88022Q356.39792 315.4271 356.39792 316.33334Q356.39792 317.20834 356.80417 317.77084Q357.22604 318.33334 357.92917 318.33334ZM367.80417 318.44272Q367.80417 320.34897 367.14792 321.28647Q366.5073 322.20834 365.11667 322.20834Q363.7573 322.20834 363.10104 321.3021Q362.4448 320.39584 362.41354 318.58334L362.41354 317.14584Q362.41354 315.25522 363.05417 314.34897Q363.71042 313.4271 365.10104 313.4271Q366.47604 313.4271 367.1323 314.31772Q367.78854 315.19272 367.80417 317.03647L367.80417 318.44272ZM366.71042 316.95834Q366.71042 315.58334 366.3198 314.95834Q365.9448 314.31772 365.10104 314.31772Q364.27292 314.31772 363.8823 314.95834Q363.5073 315.58334 363.5073 316.88022L363.5073 318.6146Q363.5073 319.9896 363.89792 320.66147Q364.30417 321.31772 365.11667 321.31772Q365.91354 321.31772 366.30417 320.69272Q366.6948 320.06772 366.71042 318.7396L366.71042 316.95834ZM374.80417 318.44272Q374.80417 320.34897 374.14792 321.28647Q373.5073 322.20834 372.11667 322.20834Q370.7573 322.20834 370.10104 321.3021Q369.4448 320.39584 369.41354 318.58334L369.41354 317.14584Q369.41354 315.25522 370.05417 314.34897Q370.71042 313.4271 372.10104 313.4271Q373.47604 313.4271 374.1323 314.31772Q374.78854 315.19272 374.80417 317.03647L374.80417 318.44272ZM373.71042 316.95834Q373.71042 315.58334 373.3198 314.95834Q372.9448 314.31772 372.10104 314.31772Q371.27292 314.31772 370.8823 314.95834Q370.5073 315.58334 370.5073 316.88022L370.5073 318.6146Q370.5073 319.9896 370.89792 320.66147Q371.30417 321.31772 372.11667 321.31772Q372.91354 321.31772 373.30417 320.69272Q373.6948 320.06772 373.71042 318.7396L373.71042 316.95834Z" fill-rule="nonzero"/><path fill="#757575" d="M441.99063 322.08334L440.9125 322.08334L440.9125 314.8646L438.725 315.66147L438.725 314.6771L441.83438 313.50522L441.99063 313.50522L441.99063 322.08334ZM451.02188 322.08334L445.42813 322.08334L445.42813 321.3021L448.38126 318.02084Q449.0375 317.27084 449.2875 316.81772Q449.5375 316.34897 449.5375 315.84897Q449.5375 315.1771 449.13126 314.75522Q448.74063 314.31772 448.05313 314.31772Q447.25626 314.31772 446.80313 314.78647Q446.35 315.2396 446.35 316.06772L445.27188 316.06772Q445.27188 314.88022 446.02188 314.16147Q446.7875 313.4271 448.05313 313.4271Q449.25626 313.4271 449.94376 314.0521Q450.63126 314.6771 450.63126 315.72397Q450.63126 316.97397 449.02188 318.72397L446.74063 321.19272L451.02188 321.19272L451.02188 322.08334ZM457.7875 318.44272Q457.7875 320.34897 457.13126 321.28647Q456.49063 322.20834 455.1 322.20834Q453.74063 322.20834 453.08438 321.3021Q452.42813 320.39584 452.39688 318.58334L452.39688 317.14584Q452.39688 315.25522 453.0375 314.34897Q453.69376 313.4271 455.08438 313.4271Q456.45938 313.4271 457.11563 314.31772Q457.77188 315.19272 457.7875 317.03647L457.7875 318.44272ZM456.69376 316.95834Q456.69376 315.58334 456.30313 314.95834Q455.92813 314.31772 455.08438 314.31772Q454.25626 314.31772 453.86563 314.95834Q453.49063 315.58334 453.49063 316.88022L453.49063 318.6146Q453.49063 319.9896 453.88126 320.66147Q454.2875 321.31772 455.1 321.31772Q455.89688 321.31772 456.2875 320.69272Q456.67813 320.06772 456.69376 318.7396L456.69376 316.95834ZM464.7875 318.44272Q464.7875 320.34897 464.13126 321.28647Q463.49063 322.20834 462.1 322.20834Q460.74063 322.20834 460.08438 321.3021Q459.42813 320.39584 459.39688 318.58334L459.39688 317.14584Q459.39688 315.25522 460.0375 314.34897Q460.69376 313.4271 462.08438 313.4271Q463.45938 313.4271 464.11563 314.31772Q464.77188 315.19272 464.7875 317.03647L464.7875 318.44272ZM463.69376 316.95834Q463.69376 315.58334 463.30313 314.95834Q462.92813 314.31772 462.08438 314.31772Q461.25626 314.31772 460.86563 314.95834Q460.49063 315.58334 460.49063 316.88022L460.49063 318.6146Q460.49063 319.9896 460.88126 320.66147Q461.2875 321.31772 462.1 321.31772Q462.89688 321.31772 463.2875 320.69272Q463.67813 320.06772 463.69376 318.7396L463.69376 316.95834Z" fill-rule="nonzero"/><path fill="#757575" d="M528.47394 322.08334L527.3958 322.08334L527.3958 314.8646L525.2083 315.66147L525.2083 314.6771L528.3177 313.50522L528.47394 313.50522L528.47394 322.08334ZM532.41144 317.8021L532.84894 313.5521L537.22394 313.5521L537.22394 314.5521L533.7708 314.5521L533.5052 316.88022Q534.1458 316.50522 534.9427 316.50522Q536.09894 316.50522 536.78644 317.28647Q537.47394 318.0521 537.47394 319.3646Q537.47394 320.6771 536.7552 321.44272Q536.05206 322.20834 534.7708 322.20834Q533.6458 322.20834 532.92706 321.58334Q532.2083 320.94272 532.11456 319.83334L533.1302 319.83334Q533.23956 320.56772 533.66144 320.94272Q534.0833 321.31772 534.7708 321.31772Q535.5208 321.31772 535.9583 320.8021Q536.3958 320.28647 536.3958 319.38022Q536.3958 318.52084 535.92706 318.00522Q535.4583 317.4896 534.67706 317.4896Q533.97394 317.4896 533.5677 317.78647L533.28644 318.02084L532.41144 317.8021ZM544.2708 318.44272Q544.2708 320.34897 543.61456 321.28647Q542.97394 322.20834 541.5833 322.20834Q540.22394 322.20834 539.5677 321.3021Q538.91144 320.39584 538.8802 318.58334L538.8802 317.14584Q538.8802 315.25522 539.5208 314.34897Q540.17706 313.4271 541.5677 313.4271Q542.9427 313.4271 543.59894 314.31772Q544.2552 315.19272 544.2708 317.03647L544.2708 318.44272ZM543.17706 316.95834Q543.17706 315.58334 542.78644 314.95834Q542.41144 314.31772 541.5677 314.31772Q540.73956 314.31772 540.34894 314.95834Q539.97394 315.58334 539.97394 316.88022L539.97394 318.6146Q539.97394 319.9896 540.36456 320.66147Q540.7708 321.31772 541.5833 321.31772Q542.3802 321.31772 542.7708 320.69272Q543.16144 320.06772 543.17706 318.7396L543.17706 316.95834ZM551.2708 318.44272Q551.2708 320.34897 550.61456 321.28647Q549.97394 322.20834 548.5833 322.20834Q547.22394 322.20834 546.5677 321.3021Q545.91144 320.39584 545.8802 318.58334L545.8802 317.14584Q545.8802 315.25522 546.5208 314.34897Q547.17706 313.4271 548.5677 313.4271Q549.9427 313.4271 550.59894 314.31772Q551.2552 315.19272 551.2708 317.03647L551.2708 318.44272ZM550.17706 316.95834Q550.17706 315.58334 549.78644 314.95834Q549.41144 314.31772 548.5677 314.31772Q547.73956 314.31772 547.34894 314.95834Q546.97394 315.58334 546.97394 316.88022L546.97394 318.6146Q546.97394 319.9896 547.36456 320.66147Q547.7708 321.31772 548.5833 321.31772Q549.3802 321.31772 549.7708 320.69272Q550.16144 320.06772 550.17706 318.7396L550.17706 316.95834Z" fill-rule="nonzero"/><path stroke="#4285f4" stroke-width="4.0" stroke-linecap="butt" d="M249.5 344.95L261.5 344.95" fill-rule="nonzero"/><path fill="#757575" d="M270.03125 346.21564Q270.03125 345.29376 270.39062 344.54376Q270.76562 343.79376 271.42188 343.40314Q272.07812 342.9969 272.90625 342.9969Q274.20312 342.9969 275.0 343.8875Q275.8125 344.77814 275.8125 346.27814L275.8125 346.35626Q275.8125 347.27814 275.45312 348.0125Q275.09375 348.7469 274.4375 349.16876Q273.78125 349.575 272.92188 349.575Q271.64062 349.575 270.82812 348.6844Q270.03125 347.77814 270.03125 346.29376L270.03125 346.21564ZM271.125 346.35626Q271.125 347.40314 271.60938 348.04376Q272.10938 348.6844 272.92188 348.6844Q273.75 348.6844 274.23438 348.04376Q274.71875 347.3875 274.71875 346.21564Q274.71875 345.1844 274.21875 344.54376Q273.73438 343.8875 272.90625 343.8875Q272.10938 343.8875 271.60938 344.52814Q271.125 345.15314 271.125 346.35626ZM278.5 349.45L277.42188 349.45L277.42188 340.45L278.5 340.45L278.5 349.45ZM281.79688 341.575L281.79688 343.10626L282.96875 343.10626L282.96875 343.95L281.79688 343.95L281.79688 347.8719Q281.79688 348.2625 281.95312 348.45Q282.10938 348.6375 282.48438 348.6375Q282.67188 348.6375 283.0 348.575L283.0 349.45Q282.57812 349.575 282.17188 349.575Q281.45312 349.575 281.07812 349.1375Q280.70312 348.6844 280.70312 347.8719L280.70312 343.95L279.54688 343.95L279.54688 343.10626L280.70312 343.10626L280.70312 341.575L281.79688 341.575ZM289.67188 346.35626Q289.67188 347.79376 289.01562 348.6844Q288.35938 349.575 287.21875 349.575Q286.0625 349.575 285.40625 348.84064L285.40625 351.8875L284.32812 351.8875L284.32812 343.10626L285.3125 343.10626L285.35938 343.8094Q286.03125 342.9969 287.20312 342.9969Q288.34375 342.9969 289.0 343.85626Q289.67188 344.71564 289.67188 346.2469L289.67188 346.35626ZM288.59375 346.23126Q288.59375 345.15314 288.125 344.54376Q287.67188 343.91876 286.875 343.91876Q285.89062 343.91876 285.40625 344.77814L285.40625 347.8094Q285.89062 348.6844 286.89062 348.6844Q287.67188 348.6844 288.125 348.075Q288.59375 347.45 288.59375 346.23126ZM295.89062 350.34064L290.53125 350.34064L290.53125 349.45L295.89062 349.45L295.89062 350.34064ZM299.39062 344.075Q299.14062 344.04376 298.85938 344.04376Q297.78125 344.04376 297.40625 344.95L297.40625 349.45L296.32812 349.45L296.32812 343.10626L297.375 343.10626L297.39062 343.84064Q297.92188 342.9969 298.90625 342.9969Q299.21875 342.9969 299.39062 343.075L299.39062 344.075ZM302.95312 349.575Q301.65625 349.575 300.84375 348.73126Q300.04688 347.8719 300.04688 346.45L300.04688 346.2625Q300.04688 345.3094 300.40625 344.575Q300.76562 343.825 301.40625 343.41876Q302.0625 342.9969 302.8125 342.9969Q304.04688 342.9969 304.73438 343.8094Q305.42188 344.6219 305.42188 346.1375L305.42188 346.59064L301.125 346.59064Q301.15625 347.52814 301.67188 348.10626Q302.20312 348.6844 303.01562 348.6844Q303.57812 348.6844 303.96875 348.45Q304.375 348.21564 304.6875 347.825L305.34375 348.34064Q304.54688 349.575 302.95312 349.575ZM302.8125 343.8875Q302.15625 343.8875 301.70312 344.3719Q301.26562 344.84064 301.17188 345.7L304.34375 345.7L304.34375 345.6219Q304.29688 344.79376 303.89062 344.34064Q303.5 343.8875 302.8125 343.8875ZM310.23438 349.45Q310.14062 349.2625 310.07812 348.77814Q309.32812 349.575 308.28125 349.575Q307.34375 349.575 306.73438 349.04376Q306.14062 348.5125 306.14062 347.6844Q306.14062 346.7 306.89062 346.15314Q307.64062 345.60626 309.01562 345.60626L310.0625 345.60626L310.0625 345.10626Q310.0625 344.54376 309.71875 344.21564Q309.39062 343.8719 308.71875 343.8719Q308.14062 343.8719 307.75 344.16876Q307.35938 344.45 307.35938 344.8719L306.26562 344.8719Q306.26562 344.3875 306.59375 343.95Q306.9375 343.5125 307.51562 343.2625Q308.09375 342.9969 308.78125 342.9969Q309.89062 342.9969 310.5 343.54376Q311.125 344.09064 311.15625 345.04376L311.15625 347.96564Q311.15625 348.84064 311.375 349.35626L311.375 349.45L310.23438 349.45ZM308.4375 348.6219Q308.95312 348.6219 309.40625 348.35626Q309.85938 348.09064 310.0625 347.66876L310.0625 346.3719L309.21875 346.3719Q307.21875 346.3719 307.21875 347.54376Q307.21875 348.04376 307.5625 348.34064Q307.90625 348.6219 308.4375 348.6219ZM313.0625 346.23126Q313.0625 344.7625 313.75 343.8875Q314.4375 342.9969 315.5625 342.9969Q316.67188 342.9969 317.32812 343.7469L317.32812 340.45L318.40625 340.45L318.40625 349.45L317.40625 349.45L317.35938 348.7625Q316.70312 349.575 315.54688 349.575Q314.45312 349.575 313.75 348.66876Q313.0625 347.7625 313.0625 346.3094L313.0625 346.23126ZM314.14062 346.35626Q314.14062 347.4344 314.57812 348.04376Q315.03125 348.65314 315.8125 348.65314Q316.84375 348.65314 317.32812 347.71564L317.32812 344.8094Q316.84375 343.91876 315.82812 343.91876Q315.03125 343.91876 314.57812 344.52814Q314.14062 345.1375 314.14062 346.35626ZM324.89062 350.34064L319.53125 350.34064L319.53125 349.45L324.89062 349.45L324.89062 350.34064ZM330.9375 347.95L332.15625 343.10626L333.23438 343.10626L331.39062 349.45L330.51562 349.45L328.96875 344.6375L327.46875 349.45L326.59375 349.45L324.75 343.10626L325.82812 343.10626L327.07812 347.85626L328.5625 343.10626L329.42188 343.10626L330.9375 347.95ZM337.39062 344.075Q337.14062 344.04376 336.85938 344.04376Q335.78125 344.04376 335.40625 344.95L335.40625 349.45L334.32812 349.45L334.32812 343.10626L335.375 343.10626L335.39062 343.84064Q335.92188 342.9969 336.90625 342.9969Q337.21875 342.9969 337.39062 343.075L337.39062 344.075ZM339.5 349.45L338.42188 349.45L338.42188 343.10626L339.5 343.10626L339.5 349.45ZM338.32812 341.4344Q338.32812 341.16876 338.48438 340.98126Q338.65625 340.79376 338.96875 340.79376Q339.28125 340.79376 339.4375 340.98126Q339.60938 341.16876 339.60938 341.4344Q339.60938 341.6844 339.4375 341.8719Q339.28125 342.04376 338.96875 342.04376Q338.65625 342.04376 338.48438 341.8719Q338.32812 341.6844 338.32812 341.4344ZM342.79688 341.575L342.79688 343.10626L343.96875 343.10626L343.96875 343.95L342.79688 343.95L342.79688 347.8719Q342.79688 348.2625 342.95312 348.45Q343.10938 348.6375 343.48438 348.6375Q343.67188 348.6375 344.0 348.575L344.0 349.45Q343.57812 349.575 343.17188 349.575Q342.45312 349.575 342.07812 349.1375Q341.70312 348.6844 341.70312 347.8719L341.70312 343.95L340.54688 343.95L340.54688 343.10626L341.70312 343.10626L341.70312 341.575L342.79688 341.575ZM347.95312 349.575Q346.65625 349.575 345.84375 348.73126Q345.04688 347.8719 345.04688 346.45L345.04688 346.2625Q345.04688 345.3094 345.40625 344.575Q345.76562 343.825 346.40625 343.41876Q347.0625 342.9969 347.8125 342.9969Q349.04688 342.9969 349.73438 343.8094Q350.42188 344.6219 350.42188 346.1375L350.42188 346.59064L346.125 346.59064Q346.15625 347.52814 346.67188 348.10626Q347.20312 348.6844 348.01562 348.6844Q348.57812 348.6844 348.96875 348.45Q349.375 348.21564 349.6875 347.825L350.34375 348.34064Q349.54688 349.575 347.95312 349.575ZM347.8125 343.8875Q347.15625 343.8875 346.70312 344.3719Q346.26562 344.84064 346.17188 345.7L349.34375 345.7L349.34375 345.6219Q349.29688 344.79376 348.89062 344.34064Q348.5 343.8875 347.8125 343.8875Z" fill-rule="nonzero"/><path fill="#757575" d="M31.14375 30.89375Q31.14375 32.9875 30.440624 34.55Q29.7375 36.096874 28.440624 36.925Q27.159374 37.753124 25.440624 37.753124Q23.753124 37.753124 22.45625 36.925Q21.159374 36.096874 20.440624 34.565624Q19.721874 33.034374 19.70625 31.01875L19.70625 30.003124Q19.70625 27.95625 20.409374 26.378124Q21.128124 24.8 22.425 23.971874Q23.7375 23.128124 25.409374 23.128124Q27.128124 23.128124 28.425 23.95625Q29.7375 24.784374 30.440624 26.3625Q31.14375 27.925 31.14375 30.003124L31.14375 30.89375ZM29.26875 29.9875Q29.26875 27.45625 28.253124 26.1125Q27.2375 24.753124 25.409374 24.753124Q23.64375 24.753124 22.6125 26.1125Q21.596874 27.45625 21.565624 29.846874L21.565624 30.89375Q21.565624 33.346874 22.596874 34.753124Q23.628124 36.159374 25.440624 36.159374Q27.253124 36.159374 28.2375 34.83125Q29.2375 33.503124 29.26875 31.034374L29.26875 29.9875ZM36.08125 36.01875L42.83125 36.01875L42.83125 37.55L34.20625 37.55L34.20625 23.33125L36.08125 23.33125L36.08125 36.01875ZM55.01875 24.878124L50.45625 24.878124L50.45625 37.55L48.596874 37.55L48.596874 24.878124L44.034374 24.878124L44.034374 23.33125L55.01875 23.33125L55.01875 24.878124ZM59.08125 31.9875L59.08125 37.55L57.20625 37.55L57.20625 23.33125L62.440624 23.33125Q64.78438 23.33125 66.09688 24.51875Q67.425 25.70625 67.425 27.675Q67.425 29.753124 66.12813 30.878124Q64.83125 31.9875 62.425 31.9875L59.08125 31.9875ZM59.08125 30.45625L62.440624 30.45625Q63.95625 30.45625 64.75313 29.753124Q65.55 29.034374 65.55 27.690624Q65.55 26.425 64.75313 25.675Q63.95625 24.909374 62.55 24.878124L59.08125 24.878124L59.08125 30.45625ZM80.40938 31.8L77.08125 31.8L77.08125 37.55L75.19063 37.55L75.19063 23.33125L79.89375 23.33125Q82.3 23.33125 83.59688 24.425Q84.89375 25.51875 84.89375 27.6125Q84.89375 28.940624 84.175 29.925Q83.45625 30.909374 82.175 31.39375L85.51875 37.425L85.51875 37.55L83.50313 37.55L80.40938 31.8ZM77.08125 30.26875L79.95625 30.26875Q81.34688 30.26875 82.175 29.55Q83.00313 28.815624 83.00313 27.6125Q83.00313 26.284374 82.20625 25.58125Q81.425 24.878124 79.94063 24.878124L77.08125 24.878124L77.08125 30.26875ZM91.3 37.753124Q89.15938 37.753124 87.8 36.346874Q86.45625 34.925 86.45625 32.565624L86.45625 32.221874Q86.45625 30.659374 87.05 29.425Q87.65938 28.190624 88.7375 27.4875Q89.81563 26.784374 91.08125 26.784374Q93.14375 26.784374 94.28438 28.14375Q95.425 29.503124 95.425 32.034374L95.425 32.784374L88.26875 32.784374Q88.3 34.346874 89.175 35.315624Q90.05 36.26875 91.39375 36.26875Q92.3625 36.26875 93.01875 35.878124Q93.69063 35.4875 94.19063 34.846874L95.28438 35.70625Q93.95625 37.753124 91.3 37.753124ZM91.08125 28.26875Q89.9875 28.26875 89.2375 29.065624Q88.50313 29.8625 88.33125 31.3L93.6125 31.3L93.6125 31.159374Q93.53438 29.784374 92.8625 29.034374Q92.20625 28.26875 91.08125 28.26875ZM104.44063 37.55Q104.28438 37.2375 104.19063 36.440624Q102.925 37.753124 101.175 37.753124Q99.6125 37.753124 98.6125 36.8625Q97.6125 35.971874 97.6125 34.6125Q97.6125 32.971874 98.8625 32.065624Q100.12813 31.14375 102.39375 31.14375L104.15938 31.14375L104.15938 30.315624Q104.15938 29.3625 103.58125 28.8Q103.01875 28.2375 101.925 28.2375Q100.95625 28.2375 100.3 28.7375Q99.64375 29.221874 99.64375 29.909374L97.83125 29.909374Q97.83125 29.128124 98.39375 28.39375Q98.95625 27.64375 99.90938 27.221874Q100.87813 26.784374 102.03438 26.784374Q103.8625 26.784374 104.89375 27.70625Q105.925 28.6125 105.97188 30.221874L105.97188 35.08125Q105.97188 36.534374 106.33125 37.39375L106.33125 37.55L104.44063 37.55ZM101.44063 36.175Q102.3 36.175 103.05 35.7375Q103.81563 35.3 104.15938 34.596874L104.15938 32.425L102.7375 32.425Q99.425 32.425 99.425 34.3625Q99.425 35.221874 99.9875 35.70625Q100.55 36.175 101.44063 36.175ZM108.47188 32.175Q108.47188 29.753124 109.62813 28.26875Q110.78438 26.784374 112.64375 26.784374Q114.50313 26.784374 115.58125 28.05L115.58125 22.55L117.39375 22.55L117.39375 37.55L115.7375 37.55L115.64375 36.409374Q114.56563 37.753124 112.62813 37.753124Q110.8 37.753124 109.62813 36.253124Q108.47188 34.7375 108.47188 32.315624L108.47188 32.175ZM110.28438 32.378124Q110.28438 34.175 111.01875 35.190624Q111.76875 36.20625 113.08125 36.20625Q114.8 36.20625 115.58125 34.675L115.58125 29.815624Q114.78438 28.315624 113.09688 28.315624Q111.76875 28.315624 111.01875 29.346874Q110.28438 30.378124 110.28438 32.378124ZM128.26875 33.065624L128.53438 34.940624L128.94063 33.253124L131.75313 23.33125L133.33125 23.33125L136.08125 33.253124L136.47188 34.971874L136.76875 33.05L138.9875 23.33125L140.8625 23.33125L137.425 37.55L135.70625 37.55L132.78438 27.190624L132.55 26.096874L132.33125 27.190624L129.3 37.55L127.58125 37.55L124.14375 23.33125L126.01875 23.33125L128.26875 33.065624ZM148.01875 28.596874Q147.6125 28.534374 147.14375 28.534374Q145.3625 28.534374 144.72188 30.05L144.72188 37.55L142.925 37.55L142.925 26.9875L144.675 26.9875L144.70625 28.20625Q145.59688 26.784374 147.22188 26.784374Q147.75313 26.784374 148.01875 26.925L148.01875 28.596874ZM151.87813 37.55L150.08125 37.55L150.08125 26.9875L151.87813 26.9875L151.87813 37.55ZM149.925 24.175Q149.925 23.7375 150.19063 23.440624Q150.47188 23.128124 150.9875 23.128124Q151.51875 23.128124 151.78438 23.440624Q152.06563 23.7375 152.06563 24.175Q152.06563 24.6125 151.78438 24.909374Q151.51875 25.20625 150.9875 25.20625Q150.47188 25.20625 150.19063 24.909374Q149.925 24.6125 149.925 24.175ZM157.3625 24.425L157.3625 26.9875L159.34688 26.9875L159.34688 28.378124L157.3625 28.378124L157.3625 34.925Q157.3625 35.565624 157.62813 35.89375Q157.89375 36.20625 158.53438 36.20625Q158.84688 36.20625 159.39375 36.08125L159.39375 37.55Q158.675 37.753124 158.00313 37.753124Q156.8 37.753124 156.175 37.01875Q155.56563 36.284374 155.56563 34.925L155.56563 28.378124L153.64375 28.378124L153.64375 26.9875L155.56563 26.9875L155.56563 24.425L157.3625 24.425ZM166.3 37.753124Q164.15938 37.753124 162.8 36.346874Q161.45625 34.925 161.45625 32.565624L161.45625 32.221874Q161.45625 30.659374 162.05 29.425Q162.65938 28.190624 163.7375 27.4875Q164.81563 26.784374 166.08125 26.784374Q168.14375 26.784374 169.28438 28.14375Q170.425 29.503124 170.425 32.034374L170.425 32.784374L163.26875 32.784374Q163.3 34.346874 164.175 35.315624Q165.05 36.26875 166.39375 36.26875Q167.3625 36.26875 168.01875 35.878124Q168.69063 35.4875 169.19063 34.846874L170.28438 35.70625Q168.95625 37.753124 166.3 37.753124ZM166.08125 28.26875Q164.9875 28.26875 164.2375 29.065624Q163.50313 29.8625 163.33125 31.3L168.6125 31.3L168.6125 31.159374Q168.53438 29.784374 167.8625 29.034374Q167.20625 28.26875 166.08125 28.26875ZM186.675 32.253124L181.90938 32.253124L181.90938 30.76875L186.675 30.76875L186.675 32.253124ZM196.08125 36.01875L202.83125 36.01875L202.83125 37.55L194.20625 37.55L194.20625 23.33125L196.08125 23.33125L196.08125 36.01875ZM211.44063 37.55Q211.28438 37.2375 211.19063 36.440624Q209.925 37.753124 208.175 37.753124Q206.6125 37.753124 205.6125 36.8625Q204.6125 35.971874 204.6125 34.6125Q204.6125 32.971874 205.8625 32.065624Q207.12813 31.14375 209.39375 31.14375L211.15938 31.14375L211.15938 30.315624Q211.15938 29.3625 210.58125 28.8Q210.01875 28.2375 208.925 28.2375Q207.95625 28.2375 207.3 28.7375Q206.64375 29.221874 206.64375 29.909374L204.83125 29.909374Q204.83125 29.128124 205.39375 28.39375Q205.95625 27.64375 206.90938 27.221874Q207.87813 26.784374 209.03438 26.784374Q210.8625 26.784374 211.89375 27.70625Q212.925 28.6125 212.97188 30.221874L212.97188 35.08125Q212.97188 36.534374 213.33125 37.39375L213.33125 37.55L211.44063 37.55ZM208.44063 36.175Q209.3 36.175 210.05 35.7375Q210.81563 35.3 211.15938 34.596874L211.15938 32.425L209.7375 32.425Q206.425 32.425 206.425 34.3625Q206.425 35.221874 206.9875 35.70625Q207.55 36.175 208.44063 36.175ZM218.3625 24.425L218.3625 26.9875L220.34688 26.9875L220.34688 28.378124L218.3625 28.378124L218.3625 34.925Q218.3625 35.565624 218.62813 35.89375Q218.89375 36.20625 219.53438 36.20625Q219.84688 36.20625 220.39375 36.08125L220.39375 37.55Q219.675 37.753124 219.00313 37.753124Q217.8 37.753124 217.175 37.01875Q216.56563 36.284374 216.56563 34.925L216.56563 28.378124L214.64375 28.378124L214.64375 26.9875L216.56563 26.9875L216.56563 24.425L218.3625 24.425ZM227.3 37.753124Q225.15938 37.753124 223.8 36.346874Q222.45625 34.925 222.45625 32.565624L222.45625 32.221874Q222.45625 30.659374 223.05 29.425Q223.65938 28.190624 224.7375 27.4875Q225.81563 26.784374 227.08125 26.784374Q229.14375 26.784374 230.28438 28.14375Q231.425 29.503124 231.425 32.034374L231.425 32.784374L224.26875 32.784374Q224.3 34.346874 225.175 35.315624Q226.05 36.26875 227.39375 36.26875Q228.3625 36.26875 229.01875 35.878124Q229.69063 35.4875 230.19063 34.846874L231.28438 35.70625Q229.95625 37.753124 227.3 37.753124ZM227.08125 28.26875Q225.9875 28.26875 225.2375 29.065624Q224.50313 29.8625 224.33125 31.3L229.6125 31.3L229.6125 31.159374Q229.53438 29.784374 228.8625 29.034374Q228.20625 28.26875 227.08125 28.26875ZM235.62813 26.9875L235.69063 28.315624Q236.89375 26.784374 238.84688 26.784374Q242.20625 26.784374 242.22188 30.565624L242.22188 37.55L240.425 37.55L240.425 30.55Q240.40938 29.409374 239.89375 28.8625Q239.39375 28.315624 238.3 28.315624Q237.425 28.315624 236.75313 28.784374Q236.09688 29.253124 235.72188 30.01875L235.72188 37.55L233.925 37.55L233.925 26.9875L235.62813 26.9875ZM249.15938 36.26875Q250.12813 36.26875 250.84688 35.690624Q251.56563 35.096874 251.64375 34.221874L253.3625 34.221874Q253.3 35.128124 252.72188 35.95625Q252.15938 36.76875 251.19063 37.26875Q250.2375 37.753124 249.15938 37.753124Q247.00313 37.753124 245.72188 36.315624Q244.45625 34.8625 244.45625 32.3625L244.45625 32.065624Q244.45625 30.51875 245.01875 29.315624Q245.58125 28.1125 246.64375 27.45625Q247.70625 26.784374 249.14375 26.784374Q250.925 26.784374 252.09688 27.846874Q253.28438 28.909374 253.3625 30.6125L251.64375 30.6125Q251.56563 29.596874 250.8625 28.940624Q250.175 28.26875 249.14375 28.26875Q247.76875 28.26875 247.00313 29.26875Q246.25313 30.253124 246.25313 32.128124L246.25313 32.471874Q246.25313 34.3 247.00313 35.284374Q247.75313 36.26875 249.15938 36.26875ZM258.3781 34.909374L260.83124 26.9875L262.76874 26.9875L258.51874 39.175Q257.53436 41.815624 255.39375 41.815624L255.05 41.784374L254.37813 41.659374L254.37813 40.190624L254.8625 40.2375Q255.78438 40.2375 256.28436 39.8625Q256.8 39.4875 257.1281 38.503124L257.53436 37.425L253.76875 26.9875L255.7375 26.9875L258.3781 34.909374Z" fill-rule="nonzero"/></svg>