<svg version="1.1" viewBox="0.0 0.0 600.0 371.0" fill="none" stroke="none" stroke-linecap="square" stroke-miterlimit="10" width="600" height="371" xmlns:xlink="http://www.w3.org/1999/xlink" xmlns="http://www.w3.org/2000/svg"><path fill="#ffffff" d="M0 0L600.0 0L600.0 371.0L0 371.0L0 0Z" fill-rule="nonzero"/><path stroke="#333333" stroke-width="1.0" stroke-linecap="butt" d="M48.5 304.5L581.5 304.5" fill-rule="nonzero"/><path stroke="#cccccc" stroke-width="1.0" stroke-linecap="butt" d="M48.5 243.5L581.5 243.5" fill-rule="nonzero"/><path stroke="#cccccc" stroke-width="1.0" stroke-linecap="butt" d="M48.5 183.5L581.5 183.5" fill-rule="nonzero"/><path stroke="#cccccc" stroke-width="1.0" stroke-linecap="butt" d="M48.5 122.5L581.5 122.5" fill-rule="nonzero"/><path stroke="#cccccc" stroke-width="1.0" stroke-linecap="butt" d="M48.5 62.5L581.5 62.5" fill-rule="nonzero"/><clipPath id="id_0"><path d="M48.55 62.416668L581.45 62.416668L581.45 304.08334L48.55 304.08334L48.55 62.416668Z" clip-rule="nonzero"/></clipPath><path stroke="#000000" stroke-width="0.0" stroke-linecap="butt" stroke-opacity="0.0" clip-path="url(#id_0)" d="M104.0 304.0L78.0 304.0L78.0 277.0C78.0 275.89542 78.89543 275.0 80.0 275.0L102.0 275.0C103.10457 275.0 104.0 275.89542 104.0 277.0Z" fill-rule="nonzero"/><path fill="#4285f4" clip-path="url(#id_0)" d="M104.0 304.0L78.0 304.0L78.0 277.0C78.0 275.89542 78.89543 275.0 80.0 275.0L102.0 275.0C103.10457 275.0 104.0 275.89542 104.0 277.0Z" fill-rule="nonzero"/><path stroke="#000000" stroke-width="0.0" stroke-linecap="butt" stroke-opacity="0.0" clip-path="url(#id_0)" d="M188.0 304.0L162.0 304.0L162.0 259.0C162.0 257.89542 162.89543 257.0 164.0 257.0L186.0 257.0C187.10457 257.0 188.0 257.89542 188.0 259.0Z" fill-rule="nonzero"/><path fill="#4285f4" clip-path="url(#id_0)" d="M188.0 304.0L162.0 304.0L162.0 259.0C162.0 257.89542 162.89543 257.0 164.0 257.0L186.0 257.0C187.10457 257.0 188.0 257.89542 188.0 259.0Z" fill-rule="nonzero"/><path stroke="#000000" stroke-width="0.0" stroke-linecap="butt" stroke-opacity="0.0" clip-path="url(#id_0)" d="M272.0 304.0L246.0 304.0L246.0 220.0C246.0 218.89543 246.89543 218.0 248.0 218.0L270.0 218.0C271.10458 218.0 272.0 218.89543 272.0 220.0Z" fill-rule="nonzero"/><path fill="#4285f4" clip-path="url(#id_0)" d="M272.0 304.0L246.0 304.0L246.0 220.0C246.0 218.89543 246.89543 218.0 248.0 218.0L270.0 218.0C271.10458 218.0 272.0 218.89543 272.0 220.0Z" fill-rule="nonzero"/><path stroke="#000000" stroke-width="0.0" stroke-linecap="butt" stroke-opacity="0.0" clip-path="url(#id_0)" d="M356.0 304.0L330.0 304.0L330.0 180.0C330.0 178.89543 330.89542 178.0 332.0 178.0L354.0 178.0C355.10458 178.0 356.0 178.89543 356.0 180.0Z" fill-rule="nonzero"/><path fill="#4285f4" clip-path="url(#id_0)" d="M356.0 304.0L330.0 304.0L330.0 180.0C330.0 178.89543 330.89542 178.0 332.0 178.0L354.0 178.0C355.10458 178.0 356.0 178.89543 356.0 180.0Z" fill-rule="nonzero"/><path stroke="#000000" stroke-width="0.0" stroke-linecap="butt" stroke-opacity="0.0" clip-path="url(#id_0)" d="M440.0 304.0L414.0 304.0L414.0 141.0C414.0 139.89543 414.89542 139.0 416.0 139.0L438.0 139.0C439.10458 139.0 440.0 139.89543 440.0 141.0Z" fill-rule="nonzero"/><path fill="#4285f4" clip-path="url(#id_0)" d="M440.0 304.0L414.0 304.0L414.0 141.0C414.0 139.89543 414.89542 139.0 416.0 139.0L438.0 139.0C439.10458 139.0 440.0 139.89543 440.0 141.0Z" fill-rule="nonzero"/><path stroke="#000000" stroke-width="0.0" stroke-linecap="butt" stroke-opacity="0.0" clip-path="url(#id_0)" d="M524.0 304.0L498.0 304.0L498.0 97.0C498.0 95.89543 498.89542 95.0 500.0 95.0L522.0 95.0C523.10455 95.0 524.0 95.89543 524.0 97.0Z" fill-rule="nonzero"/><path fill="#4285f4" clip-path="url(#id_0)" d="M524.0 304.0L498.0 304.0L498.0 97.0C498.0 95.89543 498.89542 95.0 500.0 95.0L522.0 95.0C523.10455 95.0 524.0 95.89543 524.0 97.0Z" fill-rule="nonzero"/><path stroke="#000000" stroke-width="0.0" stroke-linecap="butt" stroke-opacity="0.0" clip-path="url(#id_0)" d="M131.0 304.0L105.0 304.0L105.0 274.0C105.0 272.89542 105.89543 272.0 107.0 272.0L129.0 272.0C130.10457 272.0 131.0 272.89542 131.0 274.0Z" fill-rule="nonzero"/><path fill="#db4437" clip-path="url(#id_0)" d="M131.0 304.0L105.0 304.0L105.0 274.0C105.0 272.89542 105.89543 272.0 107.0 272.0L129.0 272.0C130.10457 272.0 131.0 272.89542 131.0 274.0Z" fill-rule="nonzero"/><path stroke="#000000" stroke-width="0.0" stroke-linecap="butt" stroke-opacity="0.0" clip-path="url(#id_0)" d="M215.0 304.0L189.0 304.0L189.0 261.0C189.0 259.89542 189.89543 259.0 191.0 259.0L213.0 259.0C214.10457 259.0 215.0 259.89542 215.0 261.0Z" fill-rule="nonzero"/><path fill="#db4437" clip-path="url(#id_0)" d="M215.0 304.0L189.0 304.0L189.0 261.0C189.0 259.89542 189.89543 259.0 191.0 259.0L213.0 259.0C214.10457 259.0 215.0 259.89542 215.0 261.0Z" fill-rule="nonzero"/><path stroke="#000000" stroke-width="0.0" stroke-linecap="butt" stroke-opacity="0.0" clip-path="url(#id_0)" d="M299.0 304.0L273.0 304.0L273.0 224.0C273.0 222.89543 273.89542 222.0 275.0 222.0L297.0 222.0C298.10458 222.0 299.0 222.89543 299.0 224.0Z" fill-rule="nonzero"/><path fill="#db4437" clip-path="url(#id_0)" d="M299.0 304.0L273.0 304.0L273.0 224.0C273.0 222.89543 273.89542 222.0 275.0 222.0L297.0 222.0C298.10458 222.0 299.0 222.89543 299.0 224.0Z" fill-rule="nonzero"/><path stroke="#000000" stroke-width="0.0" stroke-linecap="butt" stroke-opacity="0.0" clip-path="url(#id_0)" d="M383.0 304.0L357.0 304.0L357.0 186.0C357.0 184.89543 357.89542 184.0 359.0 184.0L381.0 184.0C382.10458 184.0 383.0 184.89543 383.0 186.0Z" fill-rule="nonzero"/><path fill="#db4437" clip-path="url(#id_0)" d="M383.0 304.0L357.0 304.0L357.0 186.0C357.0 184.89543 357.89542 184.0 359.0 184.0L381.0 184.0C382.10458 184.0 383.0 184.89543 383.0 186.0Z" fill-rule="nonzero"/><path stroke="#000000" stroke-width="0.0" stroke-linecap="butt" stroke-opacity="0.0" clip-path="url(#id_0)" d="M467.0 304.0L441.0 304.0L441.0 147.0C441.0 145.89543 441.89542 145.0 443.0 145.0L465.0 145.0C466.10458 145.0 467.0 145.89543 467.0 147.0Z" fill-rule="nonzero"/><path fill="#db4437" clip-path="url(#id_0)" d="M467.0 304.0L441.0 304.0L441.0 147.0C441.0 145.89543 441.89542 145.0 443.0 145.0L465.0 145.0C466.10458 145.0 467.0 145.89543 467.0 147.0Z" fill-rule="nonzero"/><path stroke="#000000" stroke-width="0.0" stroke-linecap="butt" stroke-opacity="0.0" clip-path="url(#id_0)" d="M551.0 304.0L525.0 304.0L525.0 105.0C525.0 103.89543 525.89545 103.0 527.0 103.0L549.0 103.0C550.10455 103.0 551.0 103.89543 551.0 105.0Z" fill-rule="nonzero"/><path fill="#db4437" clip-path="url(#id_0)" d="M551.0 304.0L525.0 304.0L525.0 105.0C525.0 103.89543 525.89545 103.0 527.0 103.0L549.0 103.0C550.10455 103.0 551.0 103.89543 551.0 105.0Z" fill-rule="nonzero"/><path fill="#757575" d="M24.6125 304.94272Q24.6125 306.84897 23.95625 307.78647Q23.315624 308.70834 21.925 308.70834Q20.565624 308.70834 19.909374 307.8021Q19.253124 306.89584 19.221874 305.08334L19.221874 303.64584Q19.221874 301.75522 19.8625 300.84897Q20.51875 299.9271 21.909374 299.9271Q23.284374 299.9271 23.940624 300.81772Q24.596874 301.69272 24.6125 303.53647L24.6125 304.94272ZM23.51875 303.45834Q23.51875 302.08334 23.128124 301.45834Q22.753124 300.81772 21.909374 300.81772Q21.08125 300.81772 20.690624 301.45834Q20.315624 302.08334 20.315624 303.38022L20.315624 305.1146Q20.315624 306.4896 20.70625 307.16147Q21.1125 307.81772 21.925 307.81772Q22.721874 307.81772 23.1125 307.19272Q23.503124 306.56772 23.51875 305.2396L23.51875 303.45834ZM26.39375 308.02084Q26.39375 307.7396 26.55 307.5521Q26.721874 307.3646 27.05 307.3646Q27.39375 307.3646 27.565624 307.5521Q27.7375 307.7396 27.7375 308.02084Q27.7375 308.28647 27.565624 308.47397Q27.39375 308.64584 27.05 308.64584Q26.721874 308.64584 26.55 308.47397Q26.39375 308.28647 26.39375 308.02084ZM34.6125 304.94272Q34.6125 306.84897 33.95625 307.78647Q33.315624 308.70834 31.925 308.70834Q30.565624 308.70834 29.909374 307.8021Q29.253124 306.89584 29.221874 305.08334L29.221874 303.64584Q29.221874 301.75522 29.8625 300.84897Q30.51875 299.9271 31.909374 299.9271Q33.284374 299.9271 33.940624 300.81772Q34.596874 301.69272 34.6125 303.53647L34.6125 304.94272ZM33.51875 303.45834Q33.51875 302.08334 33.128124 301.45834Q32.753124 300.81772 31.909374 300.81772Q31.08125 300.81772 30.690624 301.45834Q30.315624 302.08334 30.315624 303.38022L30.315624 305.1146Q30.315624 306.4896 30.70625 307.16147Q31.1125 307.81772 31.925 307.81772Q32.721874 307.81772 33.1125 307.19272Q33.503124 306.56772 33.51875 305.2396L33.51875 303.45834ZM41.6125 304.94272Q41.6125 306.84897 40.95625 307.78647Q40.315624 308.70834 38.925 308.70834Q37.565624 308.70834 36.909374 307.8021Q36.253124 306.89584 36.221874 305.08334L36.221874 303.64584Q36.221874 301.75522 36.8625 300.84897Q37.51875 299.9271 38.909374 299.9271Q40.284374 299.9271 40.940624 300.81772Q41.596874 301.69272 41.6125 303.53647L41.6125 304.94272ZM40.51875 303.45834Q40.51875 302.08334 40.128124 301.45834Q39.753124 300.81772 38.909374 300.81772Q38.08125 300.81772 37.690624 301.45834Q37.315624 302.08334 37.315624 303.38022L37.315624 305.1146Q37.315624 306.4896 37.70625 307.16147Q38.1125 307.81772 38.925 307.81772Q39.721874 307.81772 40.1125 307.19272Q40.503124 306.56772 40.51875 305.2396L40.51875 303.45834Z" fill-rule="nonzero"/><path fill="#757575" d="M24.846874 248.16667L19.253124 248.16667L19.253124 247.38542L22.20625 244.10417Q22.8625 243.35417 23.1125 242.90105Q23.3625 242.4323 23.3625 241.9323Q23.3625 241.26042 22.95625 240.83855Q22.565624 240.40105 21.878124 240.40105Q21.08125 240.40105 20.628124 240.8698Q20.175 241.32292 20.175 242.15105L19.096874 242.15105Q19.096874 240.96355 19.846874 240.2448Q20.6125 239.51042 21.878124 239.51042Q23.08125 239.51042 23.76875 240.13542Q24.45625 240.76042 24.45625 241.8073Q24.45625 243.0573 22.846874 244.8073L20.565624 247.27605L24.846874 247.27605L24.846874 248.16667ZM26.39375 247.60417Q26.39375 247.32292 26.55 247.13542Q26.721874 246.94792 27.05 246.94792Q27.39375 246.94792 27.565624 247.13542Q27.7375 247.32292 27.7375 247.60417Q27.7375 247.8698 27.565624 248.0573Q27.39375 248.22917 27.05 248.22917Q26.721874 248.22917 26.55 248.0573Q26.39375 247.8698 26.39375 247.60417ZM34.6125 244.52605Q34.6125 246.4323 33.95625 247.3698Q33.315624 248.29167 31.925 248.29167Q30.565624 248.29167 29.909374 247.38542Q29.253124 246.47917 29.221874 244.66667L29.221874 243.22917Q29.221874 241.33855 29.8625 240.4323Q30.51875 239.51042 31.909374 239.51042Q33.284374 239.51042 33.940624 240.40105Q34.596874 241.27605 34.6125 243.1198L34.6125 244.52605ZM33.51875 243.04167Q33.51875 241.66667 33.128124 241.04167Q32.753124 240.40105 31.909374 240.40105Q31.08125 240.40105 30.690624 241.04167Q30.315624 241.66667 30.315624 242.96355L30.315624 244.69792Q30.315624 246.07292 30.70625 246.7448Q31.1125 247.40105 31.925 247.40105Q32.721874 247.40105 33.1125 246.77605Q33.503124 246.15105 33.51875 244.82292L33.51875 243.04167ZM41.6125 244.52605Q41.6125 246.4323 40.95625 247.3698Q40.315624 248.29167 38.925 248.29167Q37.565624 248.29167 36.909374 247.38542Q36.253124 246.47917 36.221874 244.66667L36.221874 243.22917Q36.221874 241.33855 36.8625 240.4323Q37.51875 239.51042 38.909374 239.51042Q40.284374 239.51042 40.940624 240.40105Q41.596874 241.27605 41.6125 243.1198L41.6125 244.52605ZM40.51875 243.04167Q40.51875 241.66667 40.128124 241.04167Q39.753124 240.40105 38.909374 240.40105Q38.08125 240.40105 37.690624 241.04167Q37.315624 241.66667 37.315624 242.96355L37.315624 244.69792Q37.315624 246.07292 37.70625 246.7448Q38.1125 247.40105 38.925 247.40105Q39.721874 247.40105 40.1125 246.77605Q40.503124 246.15105 40.51875 244.82292L40.51875 243.04167Z" fill-rule="nonzero"/><path fill="#757575" d="M23.83125 184.89062L25.01875 184.89062L25.01875 185.76562L23.83125 185.76562L23.83125 187.75L22.753124 187.75L22.753124 185.76562L18.8625 185.76562L18.8625 185.125L22.675 179.21875L23.83125 179.21875L23.83125 184.89062ZM20.096874 184.89062L22.753124 184.89062L22.753124 180.70312L22.6125 180.9375L20.096874 184.89062ZM26.39375 187.1875Q26.39375 186.90625 26.55 186.71875Q26.721874 186.53125 27.05 186.53125Q27.39375 186.53125 27.565624 186.71875Q27.7375 186.90625 27.7375 187.1875Q27.7375 187.45312 27.565624 187.64062Q27.39375 187.8125 27.05 187.8125Q26.721874 187.8125 26.55 187.64062Q26.39375 187.45312 26.39375 187.1875ZM34.6125 184.10938Q34.6125 186.01562 33.95625 186.95312Q33.315624 187.875 31.925 187.875Q30.565624 187.875 29.909374 186.96875Q29.253124 186.0625 29.221874 184.25L29.221874 182.8125Q29.221874 180.92188 29.8625 180.01562Q30.51875 179.09375 31.909374 179.09375Q33.284374 179.09375 33.940624 179.98438Q34.596874 180.85938 34.6125 182.70312L34.6125 184.10938ZM33.51875 182.625Q33.51875 181.25 33.128124 180.625Q32.753124 179.98438 31.909374 179.98438Q31.08125 179.98438 30.690624 180.625Q30.315624 181.25 30.315624 182.54688L30.315624 184.28125Q30.315624 185.65625 30.70625 186.32812Q31.1125 186.98438 31.925 186.98438Q32.721874 186.98438 33.1125 186.35938Q33.503124 185.73438 33.51875 184.40625L33.51875 182.625ZM41.6125 184.10938Q41.6125 186.01562 40.95625 186.95312Q40.315624 187.875 38.925 187.875Q37.565624 187.875 36.909374 186.96875Q36.253124 186.0625 36.221874 184.25L36.221874 182.8125Q36.221874 180.92188 36.8625 180.01562Q37.51875 179.09375 38.909374 179.09375Q40.284374 179.09375 40.940624 179.98438Q41.596874 180.85938 41.6125 182.70312L41.6125 184.10938ZM40.51875 182.625Q40.51875 181.25 40.128124 180.625Q39.753124 179.98438 38.909374 179.98438Q38.08125 179.98438 37.690624 180.625Q37.315624 181.25 37.315624 182.54688L37.315624 184.28125Q37.315624 185.65625 37.70625 186.32812Q38.1125 186.98438 38.925 186.98438Q39.721874 186.98438 40.1125 186.35938Q40.503124 185.73438 40.51875 184.40625L40.51875 182.625Z" fill-rule="nonzero"/><path fill="#757575" d="M23.51875 118.802086L23.51875 119.708336L23.315624 119.708336Q22.05 119.739586 21.3 120.47396Q20.55 121.19271 20.425 122.50521Q21.1125 121.739586 22.26875 121.739586Q23.378124 121.739586 24.05 122.520836Q24.721874 123.302086 24.721874 124.552086Q24.721874 125.864586 24.003124 126.66146Q23.284374 127.458336 22.065624 127.458336Q20.846874 127.458336 20.08125 126.520836Q19.33125 125.56771 19.33125 124.083336L19.33125 123.677086Q19.33125 121.31771 20.33125 120.06771Q21.33125 118.81771 23.315624 118.802086L23.51875 118.802086ZM22.096874 122.645836Q21.534374 122.645836 21.065624 122.97396Q20.596874 123.302086 20.409374 123.81771L20.409374 124.208336Q20.409374 125.270836 20.878124 125.91146Q21.3625 126.552086 22.065624 126.552086Q22.8 126.552086 23.221874 126.020836Q23.64375 125.47396 23.64375 124.59896Q23.64375 123.72396 23.221874 123.19271Q22.8 122.645836 22.096874 122.645836ZM26.39375 126.770836Q26.39375 126.489586 26.55 126.302086Q26.721874 126.114586 27.05 126.114586Q27.39375 126.114586 27.565624 126.302086Q27.7375 126.489586 27.7375 126.770836Q27.7375 127.03646 27.565624 127.22396Q27.39375 127.395836 27.05 127.395836Q26.721874 127.395836 26.55 127.22396Q26.39375 127.03646 26.39375 126.770836ZM34.6125 123.69271Q34.6125 125.59896 33.95625 126.53646Q33.315624 127.458336 31.925 127.458336Q30.565624 127.458336 29.909374 126.552086Q29.253124 125.645836 29.221874 123.833336L29.221874 122.395836Q29.221874 120.50521 29.8625 119.59896Q30.51875 118.677086 31.909374 118.677086Q33.284374 118.677086 33.940624 119.56771Q34.596874 120.44271 34.6125 122.28646L34.6125 123.69271ZM33.51875 122.208336Q33.51875 120.833336 33.128124 120.208336Q32.753124 119.56771 31.909374 119.56771Q31.08125 119.56771 30.690624 120.208336Q30.315624 120.833336 30.315624 122.13021L30.315624 123.864586Q30.315624 125.239586 30.70625 125.91146Q31.1125 126.56771 31.925 126.56771Q32.721874 126.56771 33.1125 125.94271Q33.503124 125.31771 33.51875 123.989586L33.51875 122.208336ZM41.6125 123.69271Q41.6125 125.59896 40.95625 126.53646Q40.315624 127.458336 38.925 127.458336Q37.565624 127.458336 36.909374 126.552086Q36.253124 125.645836 36.221874 123.833336L36.221874 122.395836Q36.221874 120.50521 36.8625 119.59896Q37.51875 118.677086 38.909374 118.677086Q40.284374 118.677086 40.940624 119.56771Q41.596874 120.44271 41.6125 122.28646L41.6125 123.69271ZM40.51875 122.208336Q40.51875 120.833336 40.128124 120.208336Q39.753124 119.56771 38.909374 119.56771Q38.08125 119.56771 37.690624 120.208336Q37.315624 120.833336 37.315624 122.13021L37.315624 123.864586Q37.315624 125.239586 37.70625 125.91146Q38.1125 126.56771 38.925 126.56771Q39.721874 126.56771 40.1125 125.94271Q40.503124 125.31771 40.51875 123.989586L40.51875 122.208336Z" fill-rule="nonzero"/><path fill="#757575" d="M24.440624 60.604164Q24.440624 61.24479 24.096874 61.74479Q23.753124 62.24479 23.190624 62.52604Q23.846874 62.80729 24.2375 63.36979Q24.628124 63.916664 24.628124 64.61979Q24.628124 65.71354 23.878124 66.385414Q23.14375 67.041664 21.925 67.041664Q20.690624 67.041664 19.940624 66.385414Q19.20625 65.71354 19.20625 64.61979Q19.20625 63.916664 19.58125 63.36979Q19.95625 62.80729 20.628124 62.52604Q20.065624 62.24479 19.7375 61.74479Q19.409374 61.24479 19.409374 60.604164Q19.409374 59.52604 20.096874 58.90104Q20.784374 58.260414 21.925 58.260414Q23.05 58.260414 23.7375 58.90104Q24.440624 59.52604 24.440624 60.604164ZM23.55 64.58854Q23.55 63.86979 23.096874 63.43229Q22.64375 62.979164 21.909374 62.979164Q21.175 62.979164 20.721874 63.43229Q20.284374 63.86979 20.284374 64.604164Q20.284374 65.322914 20.721874 65.74479Q21.159374 66.15104 21.925 66.15104Q22.675 66.15104 23.1125 65.729164Q23.55 65.30729 23.55 64.58854ZM21.925 59.15104Q21.284374 59.15104 20.878124 59.55729Q20.4875 59.947914 20.4875 60.635414Q20.4875 61.27604 20.878124 61.68229Q21.26875 62.08854 21.909374 62.08854Q22.565624 62.08854 22.95625 61.68229Q23.346874 61.27604 23.346874 60.635414Q23.346874 59.979164 22.940624 59.572914Q22.534374 59.15104 21.925 59.15104ZM26.39375 66.354164Q26.39375 66.072914 26.55 65.885414Q26.721874 65.697914 27.05 65.697914Q27.39375 65.697914 27.565624 65.885414Q27.7375 66.072914 27.7375 66.354164Q27.7375 66.61979 27.565624 66.80729Q27.39375 66.979164 27.05 66.979164Q26.721874 66.979164 26.55 66.80729Q26.39375 66.61979 26.39375 66.354164ZM34.6125 63.27604Q34.6125 65.18229 33.95625 66.11979Q33.315624 67.041664 31.925 67.041664Q30.565624 67.041664 29.909374 66.135414Q29.253124 65.229164 29.221874 63.416664L29.221874 61.979164Q29.221874 60.08854 29.8625 59.18229Q30.51875 58.260414 31.909374 58.260414Q33.284374 58.260414 33.940624 59.15104Q34.596874 60.02604 34.6125 61.86979L34.6125 63.27604ZM33.51875 61.791664Q33.51875 60.416664 33.128124 59.791664Q32.753124 59.15104 31.909374 59.15104Q31.08125 59.15104 30.690624 59.791664Q30.315624 60.416664 30.315624 61.71354L30.315624 63.447914Q30.315624 64.822914 30.70625 65.49479Q31.1125 66.15104 31.925 66.15104Q32.721874 66.15104 33.1125 65.52604Q33.503124 64.90104 33.51875 63.572914L33.51875 61.791664ZM41.6125 63.27604Q41.6125 65.18229 40.95625 66.11979Q40.315624 67.041664 38.925 67.041664Q37.565624 67.041664 36.909374 66.135414Q36.253124 65.229164 36.221874 63.416664L36.221874 61.979164Q36.221874 60.08854 36.8625 59.18229Q37.51875 58.260414 38.909374 58.260414Q40.284374 58.260414 40.940624 59.15104Q41.596874 60.02604 41.6125 61.86979L41.6125 63.27604ZM40.51875 61.791664Q40.51875 60.416664 40.128124 59.791664Q39.753124 59.15104 38.909374 59.15104Q38.08125 59.15104 37.690624 59.791664Q37.315624 60.416664 37.315624 61.71354L37.315624 63.447914Q37.315624 64.822914 37.70625 65.49479Q38.1125 66.15104 38.925 66.15104Q39.721874 66.15104 40.1125 65.52604Q40.503124 64.90104 40.51875 63.572914L40.51875 61.791664Z" fill-rule="nonzero"/><path fill="#757575" d="M98.96248 322.08334L97.88435 322.08334L97.88435 314.8646L95.69685 315.66147L95.69685 314.6771L98.80623 313.50522L98.96248 313.50522L98.96248 322.08334ZM102.89998 317.8021L103.33748 313.5521L107.71248 313.5521L107.71248 314.5521L104.25935 314.5521L103.99373 316.88022Q104.63435 316.50522 105.43123 316.50522Q106.58748 316.50522 107.27498 317.28647Q107.96248 318.0521 107.96248 319.3646Q107.96248 320.6771 107.24373 321.44272Q106.5406 322.20834 105.25935 322.20834Q104.13435 322.20834 103.4156 321.58334Q102.69685 320.94272 102.6031 319.83334L103.61873 319.83334Q103.7281 320.56772 104.14998 320.94272Q104.57185 321.31772 105.25935 321.31772Q106.00935 321.31772 106.44685 320.8021Q106.88435 320.28647 106.88435 319.38022Q106.88435 318.52084 106.4156 318.00522Q105.94685 317.4896 105.1656 317.4896Q104.46248 317.4896 104.05623 317.78647L103.77498 318.02084L102.89998 317.8021ZM114.75935 318.44272Q114.75935 320.34897 114.1031 321.28647Q113.46248 322.20834 112.07185 322.20834Q110.71248 322.20834 110.05623 321.3021Q109.39998 320.39584 109.36873 318.58334L109.36873 317.14584Q109.36873 315.25522 110.00935 314.34897Q110.6656 313.4271 112.05623 313.4271Q113.43123 313.4271 114.08748 314.31772Q114.74373 315.19272 114.75935 317.03647L114.75935 318.44272ZM113.6656 316.95834Q113.6656 315.58334 113.27498 314.95834Q112.89998 314.31772 112.05623 314.31772Q111.2281 314.31772 110.83748 314.95834Q110.46248 315.58334 110.46248 316.88022L110.46248 318.6146Q110.46248 319.9896 110.8531 320.66147Q111.25935 321.31772 112.07185 321.31772Q112.86873 321.31772 113.25935 320.69272Q113.64998 320.06772 113.6656 318.7396L113.6656 316.95834Z" fill-rule="nonzero"/><path fill="#757575" d="M180.89935 317.28647L181.71185 317.28647Q182.4931 317.27084 182.9306 316.88022Q183.3681 316.4896 183.3681 315.81772Q183.3681 314.31772 181.8681 314.31772Q181.16498 314.31772 180.7431 314.72397Q180.33685 315.13022 180.33685 315.78647L179.2431 315.78647Q179.2431 314.77084 179.97748 314.09897Q180.72748 313.4271 181.8681 313.4271Q183.07123 313.4271 183.75873 314.06772Q184.44623 314.70834 184.44623 315.84897Q184.44623 316.41147 184.08685 316.9271Q183.72748 317.44272 183.10248 317.70834Q183.8056 317.9271 184.1806 318.44272Q184.57123 318.95834 184.57123 319.70834Q184.57123 320.84897 183.82123 321.53647Q183.07123 322.20834 181.8681 322.20834Q180.6806 322.20834 179.91498 321.5521Q179.16498 320.89584 179.16498 319.83334L180.25873 319.83334Q180.25873 320.50522 180.69623 320.91147Q181.13373 321.31772 181.88373 321.31772Q182.66498 321.31772 183.07123 320.91147Q183.4931 320.4896 183.4931 319.72397Q183.4931 318.9896 183.03998 318.59897Q182.58685 318.19272 181.71185 318.1771L180.89935 318.1771L180.89935 317.28647ZM191.6806 318.44272Q191.6806 320.34897 191.02435 321.28647Q190.38373 322.20834 188.9931 322.20834Q187.63373 322.20834 186.97748 321.3021Q186.32123 320.39584 186.28998 318.58334L186.28998 317.14584Q186.28998 315.25522 186.9306 314.34897Q187.58685 313.4271 188.97748 313.4271Q190.35248 313.4271 191.00873 314.31772Q191.66498 315.19272 191.6806 317.03647L191.6806 318.44272ZM190.58685 316.95834Q190.58685 315.58334 190.19623 314.95834Q189.82123 314.31772 188.97748 314.31772Q188.14935 314.31772 187.75873 314.95834Q187.38373 315.58334 187.38373 316.88022L187.38373 318.6146Q187.38373 319.9896 187.77435 320.66147Q188.1806 321.31772 188.9931 321.31772Q189.78998 321.31772 190.1806 320.69272Q190.57123 320.06772 190.58685 318.7396L190.58685 316.95834ZM198.6806 318.44272Q198.6806 320.34897 198.02435 321.28647Q197.38373 322.20834 195.9931 322.20834Q194.63373 322.20834 193.97748 321.3021Q193.32123 320.39584 193.28998 318.58334L193.28998 317.14584Q193.28998 315.25522 193.9306 314.34897Q194.58685 313.4271 195.97748 313.4271Q197.35248 313.4271 198.00873 314.31772Q198.66498 315.19272 198.6806 317.03647L198.6806 318.44272ZM197.58685 316.95834Q197.58685 315.58334 197.19623 314.95834Q196.82123 314.31772 195.97748 314.31772Q195.14935 314.31772 194.75873 314.95834Q194.38373 315.58334 194.38373 316.88022L194.38373 318.6146Q194.38373 319.9896 194.77435 320.66147Q195.1806 321.31772 195.9931 321.31772Q196.78998 321.31772 197.1806 320.69272Q197.57123 320.06772 197.58685 318.7396L197.58685 316.95834Z" fill-rule="nonzero"/><path fill="#757575" d="M267.50812 313.5521L267.50812 314.45834L267.305 314.45834Q266.03937 314.4896 265.28937 315.22397Q264.53937 315.94272 264.41437 317.25522Q265.10187 316.4896 266.25812 316.4896Q267.3675 316.4896 268.03937 317.27084Q268.71124 318.0521 268.71124 319.3021Q268.71124 320.6146 267.9925 321.41147Q267.27374 322.20834 266.055 322.20834Q264.83624 322.20834 264.07062 321.27084Q263.32062 320.31772 263.32062 318.83334L263.32062 318.4271Q263.32062 316.06772 264.32062 314.81772Q265.32062 313.56772 267.305 313.5521L267.50812 313.5521ZM266.08624 317.39584Q265.52374 317.39584 265.055 317.72397Q264.58624 318.0521 264.39874 318.56772L264.39874 318.95834Q264.39874 320.02084 264.8675 320.66147Q265.35187 321.3021 266.055 321.3021Q266.78937 321.3021 267.21124 320.77084Q267.63312 320.22397 267.63312 319.34897Q267.63312 318.47397 267.21124 317.94272Q266.78937 317.39584 266.08624 317.39584ZM275.60187 318.44272Q275.60187 320.34897 274.94562 321.28647Q274.305 322.20834 272.91437 322.20834Q271.555 322.20834 270.89874 321.3021Q270.2425 320.39584 270.21124 318.58334L270.21124 317.14584Q270.21124 315.25522 270.85187 314.34897Q271.50812 313.4271 272.89874 313.4271Q274.27374 313.4271 274.93 314.31772Q275.58624 315.19272 275.60187 317.03647L275.60187 318.44272ZM274.50812 316.95834Q274.50812 315.58334 274.1175 314.95834Q273.7425 314.31772 272.89874 314.31772Q272.07062 314.31772 271.68 314.95834Q271.305 315.58334 271.305 316.88022L271.305 318.6146Q271.305 319.9896 271.69562 320.66147Q272.10187 321.31772 272.91437 321.31772Q273.71124 321.31772 274.10187 320.69272Q274.4925 320.06772 274.50812 318.7396L274.50812 316.95834ZM282.60187 318.44272Q282.60187 320.34897 281.94562 321.28647Q281.305 322.20834 279.91437 322.20834Q278.555 322.20834 277.89874 321.3021Q277.2425 320.39584 277.21124 318.58334L277.21124 317.14584Q277.21124 315.25522 277.85187 314.34897Q278.50812 313.4271 279.89874 313.4271Q281.27374 313.4271 281.93 314.31772Q282.58624 315.19272 282.60187 317.03647L282.60187 318.44272ZM281.50812 316.95834Q281.50812 315.58334 281.1175 314.95834Q280.7425 314.31772 279.89874 314.31772Q279.07062 314.31772 278.68 314.95834Q278.305 315.58334 278.305 316.88022L278.305 318.6146Q278.305 319.9896 278.69562 320.66147Q279.10187 321.31772 279.91437 321.31772Q280.71124 321.31772 281.10187 320.69272Q281.4925 320.06772 281.50812 318.7396L281.50812 316.95834Z" fill-rule="nonzero"/><path fill="#757575" d="M351.32 318.33334Q350.99188 318.7396 350.5075 318.9896Q350.03876 319.22397 349.47626 319.22397Q348.74188 319.22397 348.195 318.8646Q347.64813 318.50522 347.35126 317.84897Q347.05438 317.1771 347.05438 316.38022Q347.05438 315.53647 347.36688 314.84897Q347.695 314.16147 348.28876 313.8021Q348.89813 313.4271 349.695 313.4271Q350.96063 313.4271 351.67938 314.38022Q352.41376 315.33334 352.41376 316.95834L352.41376 317.27084Q352.41376 319.77084 351.42938 320.91147Q350.445 322.0521 348.46063 322.08334L348.24188 322.08334L348.24188 321.1771L348.47626 321.1771Q349.82 321.14584 350.53876 320.47397Q351.2575 319.8021 351.32 318.33334ZM349.64813 318.33334Q350.195 318.33334 350.64813 318.00522Q351.11688 317.66147 351.33563 317.1771L351.33563 316.7396Q351.33563 315.6771 350.86688 315.00522Q350.39813 314.33334 349.695 314.33334Q348.97626 314.33334 348.53876 314.88022Q348.11688 315.4271 348.11688 316.33334Q348.11688 317.20834 348.52313 317.77084Q348.945 318.33334 349.64813 318.33334ZM359.52313 318.44272Q359.52313 320.34897 358.86688 321.28647Q358.22626 322.20834 356.83563 322.20834Q355.47626 322.20834 354.82 321.3021Q354.16376 320.39584 354.1325 318.58334L354.1325 317.14584Q354.1325 315.25522 354.77313 314.34897Q355.42938 313.4271 356.82 313.4271Q358.195 313.4271 358.85126 314.31772Q359.5075 315.19272 359.52313 317.03647L359.52313 318.44272ZM358.42938 316.95834Q358.42938 315.58334 358.03876 314.95834Q357.66376 314.31772 356.82 314.31772Q355.99188 314.31772 355.60126 314.95834Q355.22626 315.58334 355.22626 316.88022L355.22626 318.6146Q355.22626 319.9896 355.61688 320.66147Q356.02313 321.31772 356.83563 321.31772Q357.6325 321.31772 358.02313 320.69272Q358.41376 320.06772 358.42938 318.7396L358.42938 316.95834ZM366.52313 318.44272Q366.52313 320.34897 365.86688 321.28647Q365.22626 322.20834 363.83563 322.20834Q362.47626 322.20834 361.82 321.3021Q361.16376 320.39584 361.1325 318.58334L361.1325 317.14584Q361.1325 315.25522 361.77313 314.34897Q362.42938 313.4271 363.82 313.4271Q365.195 313.4271 365.85126 314.31772Q366.5075 315.19272 366.52313 317.03647L366.52313 318.44272ZM365.42938 316.95834Q365.42938 315.58334 365.03876 314.95834Q364.66376 314.31772 363.82 314.31772Q362.99188 314.31772 362.60126 314.95834Q362.22626 315.58334 362.22626 316.88022L362.22626 318.6146Q362.22626 319.9896 362.61688 320.66147Q363.02313 321.31772 363.83563 321.31772Q364.6325 321.31772 365.02313 320.69272Q365.41376 320.06772 365.42938 318.7396L365.42938 316.95834Z" fill-rule="nonzero"/><path fill="#757575" d="M431.14752 322.08334L430.0694 322.08334L430.0694 314.8646L427.8819 315.66147L427.8819 314.6771L430.99127 313.50522L431.14752 313.50522L431.14752 322.08334ZM440.17877 322.08334L434.58502 322.08334L434.58502 321.3021L437.53815 318.02084Q438.1944 317.27084 438.4444 316.81772Q438.6944 316.34897 438.6944 315.84897Q438.6944 315.1771 438.28815 314.75522Q437.89752 314.31772 437.21002 314.31772Q436.41315 314.31772 435.96002 314.78647Q435.5069 315.2396 435.5069 316.06772L434.42877 316.06772Q434.42877 314.88022 435.17877 314.16147Q435.9444 313.4271 437.21002 313.4271Q438.41315 313.4271 439.10065 314.0521Q439.78815 314.6771 439.78815 315.72397Q439.78815 316.97397 438.17877 318.72397L435.89752 321.19272L440.17877 321.19272L440.17877 322.08334ZM446.9444 318.44272Q446.9444 320.34897 446.28815 321.28647Q445.64752 322.20834 444.2569 322.20834Q442.89752 322.20834 442.24127 321.3021Q441.58502 320.39584 441.55377 318.58334L441.55377 317.14584Q441.55377 315.25522 442.1944 314.34897Q442.85065 313.4271 444.24127 313.4271Q445.61627 313.4271 446.27252 314.31772Q446.92877 315.19272 446.9444 317.03647L446.9444 318.44272ZM445.85065 316.95834Q445.85065 315.58334 445.46002 314.95834Q445.08502 314.31772 444.24127 314.31772Q443.41315 314.31772 443.02252 314.95834Q442.64752 315.58334 442.64752 316.88022L442.64752 318.6146Q442.64752 319.9896 443.03815 320.66147Q443.4444 321.31772 444.2569 321.31772Q445.05377 321.31772 445.4444 320.69272Q445.83502 320.06772 445.85065 318.7396L445.85065 316.95834ZM453.9444 318.44272Q453.9444 320.34897 453.28815 321.28647Q452.64752 322.20834 451.2569 322.20834Q449.89752 322.20834 449.24127 321.3021Q448.58502 320.39584 448.55377 318.58334L448.55377 317.14584Q448.55377 315.25522 449.1944 314.34897Q449.85065 313.4271 451.24127 313.4271Q452.61627 313.4271 453.27252 314.31772Q453.92877 315.19272 453.9444 317.03647L453.9444 318.44272ZM452.85065 316.95834Q452.85065 315.58334 452.46002 314.95834Q452.08502 314.31772 451.24127 314.31772Q450.41315 314.31772 450.02252 314.95834Q449.64752 315.58334 449.64752 316.88022L449.64752 318.6146Q449.64752 319.9896 450.03815 320.66147Q450.4444 321.31772 451.2569 321.31772Q452.05377 321.31772 452.4444 320.69272Q452.83502 320.06772 452.85065 318.7396L452.85065 316.95834Z" fill-rule="nonzero"/><path fill="#757575" d="M515.0688 322.08334L513.99066 322.08334L513.99066 314.8646L511.80316 315.66147L511.80316 314.6771L514.91254 313.50522L515.0688 313.50522L515.0688 322.08334ZM519.0063 317.8021L519.4438 313.5521L523.8188 313.5521L523.8188 314.5521L520.36566 314.5521L520.10004 316.88022Q520.74066 316.50522 521.53754 316.50522Q522.6938 316.50522 523.3813 317.28647Q524.0688 318.0521 524.0688 319.3646Q524.0688 320.6771 523.35004 321.44272Q522.6469 322.20834 521.36566 322.20834Q520.24066 322.20834 519.5219 321.58334Q518.80316 320.94272 518.7094 319.83334L519.72504 319.83334Q519.8344 320.56772 520.2563 320.94272Q520.67816 321.31772 521.36566 321.31772Q522.11566 321.31772 522.55316 320.8021Q522.99066 320.28647 522.99066 319.38022Q522.99066 318.52084 522.5219 318.00522Q522.05316 317.4896 521.2719 317.4896Q520.5688 317.4896 520.16254 317.78647L519.8813 318.02084L519.0063 317.8021ZM530.86566 318.44272Q530.86566 320.34897 530.2094 321.28647Q529.5688 322.20834 528.17816 322.20834Q526.8188 322.20834 526.16254 321.3021Q525.5063 320.39584 525.47504 318.58334L525.47504 317.14584Q525.47504 315.25522 526.11566 314.34897Q526.7719 313.4271 528.16254 313.4271Q529.53754 313.4271 530.1938 314.31772Q530.85004 315.19272 530.86566 317.03647L530.86566 318.44272ZM529.7719 316.95834Q529.7719 315.58334 529.3813 314.95834Q529.0063 314.31772 528.16254 314.31772Q527.3344 314.31772 526.9438 314.95834Q526.5688 315.58334 526.5688 316.88022L526.5688 318.6146Q526.5688 319.9896 526.9594 320.66147Q527.36566 321.31772 528.17816 321.31772Q528.97504 321.31772 529.36566 320.69272Q529.7563 320.06772 529.7719 318.7396L529.7719 316.95834ZM537.86566 318.44272Q537.86566 320.34897 537.2094 321.28647Q536.5688 322.20834 535.17816 322.20834Q533.8188 322.20834 533.16254 321.3021Q532.5063 320.39584 532.47504 318.58334L532.47504 317.14584Q532.47504 315.25522 533.11566 314.34897Q533.7719 313.4271 535.16254 313.4271Q536.53754 313.4271 537.1938 314.31772Q537.85004 315.19272 537.86566 317.03647L537.86566 318.44272ZM536.7719 316.95834Q536.7719 315.58334 536.3813 314.95834Q536.0063 314.31772 535.16254 314.31772Q534.3344 314.31772 533.9438 314.95834Q533.5688 315.58334 533.5688 316.88022L533.5688 318.6146Q533.5688 319.9896 533.9594 320.66147Q534.36566 321.31772 535.17816 321.31772Q535.97504 321.31772 536.36566 320.69272Q536.7563 320.06772 536.7719 318.7396L536.7719 316.95834Z" fill-rule="nonzero"/><path fill="#4285f4" d="M248.0 339.95C248.0 339.3977 248.44771 338.95 249.0 338.95L259.0 338.95C259.55228 338.95 260.0 339.3977 260.0 339.95L260.0 349.95C260.0 350.5023 259.55228 350.95 259.0 350.95L249.0 350.95C248.44771 350.95 248.0 350.5023 248.0 349.95Z" fill-rule="nonzero"/><path fill="#757575" d="M270.10938 346.10626L270.10938 349.45L268.98438 349.45L268.98438 340.91876L272.14062 340.91876Q273.53125 340.91876 274.32812 341.6375Q275.125 342.34064 275.125 343.52814Q275.125 344.7625 274.34375 345.4344Q273.57812 346.10626 272.125 346.10626L270.10938 346.10626ZM270.10938 345.1844L272.14062 345.1844Q273.04688 345.1844 273.51562 344.7625Q274.0 344.34064 274.0 343.54376Q274.0 342.77814 273.51562 342.325Q273.04688 341.85626 272.20312 341.84064L270.10938 341.84064L270.10938 345.1844ZM276.53125 346.21564Q276.53125 345.29376 276.89062 344.54376Q277.26562 343.79376 277.92188 343.40314Q278.57812 342.9969 279.40625 342.9969Q280.70312 342.9969 281.5 343.8875Q282.3125 344.77814 282.3125 346.27814L282.3125 346.35626Q282.3125 347.27814 281.95312 348.0125Q281.59375 348.7469 280.9375 349.16876Q280.28125 349.575 279.42188 349.575Q278.14062 349.575 277.32812 348.6844Q276.53125 347.77814 276.53125 346.29376L276.53125 346.21564ZM277.625 346.35626Q277.625 347.40314 278.10938 348.04376Q278.60938 348.6844 279.42188 348.6844Q280.25 348.6844 280.73438 348.04376Q281.21875 347.3875 281.21875 346.21564Q281.21875 345.1844 280.71875 344.54376Q280.23438 343.8875 279.40625 343.8875Q278.60938 343.8875 278.10938 344.52814Q277.625 345.15314 277.625 346.35626ZM283.5625 346.23126Q283.5625 344.7625 284.25 343.8875Q284.9375 342.9969 286.0625 342.9969Q287.17188 342.9969 287.82812 343.7469L287.82812 340.45L288.90625 340.45L288.90625 349.45L287.90625 349.45L287.85938 348.7625Q287.20312 349.575 286.04688 349.575Q284.95312 349.575 284.25 348.66876Q283.5625 347.7625 283.5625 346.3094L283.5625 346.23126ZM284.64062 346.35626Q284.64062 347.4344 285.07812 348.04376Q285.53125 348.65314 286.3125 348.65314Q287.34375 348.65314 287.82812 347.71564L287.82812 344.8094Q287.34375 343.91876 286.32812 343.91876Q285.53125 343.91876 285.07812 344.52814Q284.64062 345.1375 284.64062 346.35626Z" fill-rule="nonzero"/><path fill="#db4437" d="M306.0 339.95C306.0 339.3977 306.44772 338.95 307.0 338.95L317.0 338.95C317.55228 338.95 318.0 339.3977 318.0 339.95L318.0 349.95C318.0 350.5023 317.55228 350.95 317.0 350.95L307.0 350.95C306.44772 350.95 306.0 350.5023 306.0 349.95Z" fill-rule="nonzero"/><path fill="#757575" d="M333.54688 349.45L332.42188 349.45L332.42188 345.5125L328.10938 345.5125L328.10938 349.45L326.98438 349.45L326.98438 340.91876L328.10938 340.91876L328.10938 344.59064L332.42188 344.59064L332.42188 340.91876L333.54688 340.91876L333.54688 349.45ZM335.53125 346.21564Q335.53125 345.29376 335.89062 344.54376Q336.26562 343.79376 336.92188 343.40314Q337.57812 342.9969 338.40625 342.9969Q339.70312 342.9969 340.5 343.8875Q341.3125 344.77814 341.3125 346.27814L341.3125 346.35626Q341.3125 347.27814 340.95312 348.0125Q340.59375 348.7469 339.9375 349.16876Q339.28125 349.575 338.42188 349.575Q337.14062 349.575 336.32812 348.6844Q335.53125 347.77814 335.53125 346.29376L335.53125 346.21564ZM336.625 346.35626Q336.625 347.40314 337.10938 348.04376Q337.60938 348.6844 338.42188 348.6844Q339.25 348.6844 339.73438 348.04376Q340.21875 347.3875 340.21875 346.21564Q340.21875 345.1844 339.71875 344.54376Q339.23438 343.8875 338.40625 343.8875Q337.60938 343.8875 337.10938 344.52814Q336.625 345.15314 336.625 346.35626ZM346.51562 347.7625Q346.51562 347.325 346.17188 347.09064Q345.84375 346.84064 345.01562 346.66876Q344.20312 346.4969 343.71875 346.2469Q343.23438 345.9969 343.0 345.66876Q342.78125 345.325 342.78125 344.85626Q342.78125 344.075 343.4375 343.54376Q344.09375 342.9969 345.125 342.9969Q346.20312 342.9969 346.85938 343.5594Q347.53125 344.10626 347.53125 344.96564L346.45312 344.96564Q346.45312 344.52814 346.0625 344.21564Q345.6875 343.8875 345.125 343.8875Q344.53125 343.8875 344.1875 344.15314Q343.85938 344.40314 343.85938 344.8094Q343.85938 345.2 344.17188 345.40314Q344.48438 345.60626 345.29688 345.79376Q346.10938 345.96564 346.60938 346.21564Q347.10938 346.46564 347.34375 346.825Q347.59375 347.1844 347.59375 347.6844Q347.59375 348.54376 346.90625 349.0594Q346.23438 349.575 345.15625 349.575Q344.39062 349.575 343.79688 349.3094Q343.21875 349.02814 342.89062 348.54376Q342.5625 348.0594 342.5625 347.4969L343.64062 347.4969Q343.67188 348.04376 344.07812 348.3719Q344.48438 348.6844 345.15625 348.6844Q345.76562 348.6844 346.14062 348.4344Q346.51562 348.1844 346.51562 347.7625ZM350.29688 341.575L350.29688 343.10626L351.46875 343.10626L351.46875 343.95L350.29688 343.95L350.29688 347.8719Q350.29688 348.2625 350.45312 348.45Q350.60938 348.6375 350.98438 348.6375Q351.17188 348.6375 351.5 348.575L351.5 349.45Q351.07812 349.575 350.67188 349.575Q349.95312 349.575 349.57812 349.1375Q349.20312 348.6844 349.20312 347.8719L349.20312 343.95L348.04688 343.95L348.04688 343.10626L349.20312 343.10626L349.20312 341.575L350.29688 341.575Z" fill-rule="nonzero"/><path fill="#757575" d="M22.08125 31.9875L22.08125 37.55L20.20625 37.55L20.20625 23.33125L25.440624 23.33125Q27.784374 23.33125 29.096874 24.51875Q30.425 25.70625 30.425 27.675Q30.425 29.753124 29.128124 30.878124Q27.83125 31.9875 25.425 31.9875L22.08125 31.9875ZM22.08125 30.45625L25.440624 30.45625Q26.95625 30.45625 27.753124 29.753124Q28.55 29.034374 28.55 27.690624Q28.55 26.425 27.753124 25.675Q26.95625 24.909374 25.55 24.878124L22.08125 24.878124L22.08125 30.45625ZM32.440624 32.175Q32.440624 30.6125 33.05 29.378124Q33.659374 28.128124 34.7375 27.45625Q35.83125 26.784374 37.2375 26.784374Q39.39375 26.784374 40.721874 28.284374Q42.065624 29.76875 42.065624 32.253124L42.065624 32.378124Q42.065624 33.925 41.471874 35.159374Q40.878124 36.378124 39.76875 37.065624Q38.675 37.753124 37.253124 37.753124Q35.1125 37.753124 33.76875 36.253124Q32.440624 34.753124 32.440624 32.3L32.440624 32.175ZM34.253124 32.378124Q34.253124 34.14375 35.065624 35.20625Q35.89375 36.26875 37.253124 36.26875Q38.628124 36.26875 39.440624 35.190624Q40.253124 34.1125 40.253124 32.175Q40.253124 30.425 39.425 29.346874Q38.596874 28.26875 37.2375 28.26875Q35.89375 28.26875 35.065624 29.33125Q34.253124 30.39375 34.253124 32.378124ZM43.471874 32.175Q43.471874 29.753124 44.628124 28.26875Q45.784374 26.784374 47.64375 26.784374Q49.503124 26.784374 50.58125 28.05L50.58125 22.55L52.39375 22.55L52.39375 37.55L50.7375 37.55L50.64375 36.409374Q49.565624 37.753124 47.628124 37.753124Q45.8 37.753124 44.628124 36.253124Q43.471874 34.7375 43.471874 32.315624L43.471874 32.175ZM45.284374 32.378124Q45.284374 34.175 46.01875 35.190624Q46.76875 36.20625 48.08125 36.20625Q49.8 36.20625 50.58125 34.675L50.58125 29.815624Q49.784374 28.315624 48.096874 28.315624Q46.76875 28.315624 46.01875 29.346874Q45.284374 30.378124 45.284374 32.378124ZM63.409374 35.096874L66.01875 26.9875L67.8625 26.9875L64.08125 37.55L62.70625 37.55L58.878124 26.9875L60.721874 26.9875L63.409374 35.096874ZM76.06563 34.753124Q76.06563 34.01875 75.51875 33.6125Q74.97188 33.20625 73.59688 32.909374Q72.22188 32.6125 71.40938 32.20625Q70.6125 31.8 70.22188 31.2375Q69.84688 30.659374 69.84688 29.878124Q69.84688 28.58125 70.94063 27.690624Q72.03438 26.784374 73.75313 26.784374Q75.55 26.784374 76.65938 27.721874Q77.78438 28.64375 77.78438 30.08125L75.95625 30.08125Q75.95625 29.346874 75.33125 28.815624Q74.70625 28.26875 73.75313 28.26875Q72.75313 28.26875 72.19063 28.70625Q71.64375 29.128124 71.64375 29.83125Q71.64375 30.471874 72.15938 30.815624Q72.675 31.14375 74.03438 31.45625Q75.39375 31.753124 76.22188 32.175Q77.06563 32.58125 77.47188 33.175Q77.87813 33.76875 77.87813 34.6125Q77.87813 36.034374 76.7375 36.89375Q75.6125 37.753124 73.8 37.753124Q72.53438 37.753124 71.55 37.3Q70.58125 36.846874 70.01875 36.05Q69.47188 35.2375 69.47188 34.3L71.28438 34.3Q71.33125 35.20625 72.00313 35.7375Q72.69063 36.26875 73.8 36.26875Q74.83125 36.26875 75.44063 35.8625Q76.06563 35.440624 76.06563 34.753124ZM96.12813 37.55L94.2375 37.55L94.2375 30.971874L87.08125 30.971874L87.08125 37.55L85.20625 37.55L85.20625 23.33125L87.08125 23.33125L87.08125 29.440624L94.2375 29.440624L94.2375 23.33125L96.12813 23.33125L96.12813 37.55ZM98.44063 32.175Q98.44063 30.6125 99.05 29.378124Q99.65938 28.128124 100.7375 27.45625Q101.83125 26.784374 103.2375 26.784374Q105.39375 26.784374 106.72188 28.284374Q108.06563 29.76875 108.06563 32.253124L108.06563 32.378124Q108.06563 33.925 107.47188 35.159374Q106.87813 36.378124 105.76875 37.065624Q104.675 37.753124 103.25313 37.753124Q101.1125 37.753124 99.76875 36.253124Q98.44063 34.753124 98.44063 32.3L98.44063 32.175ZM100.25313 32.378124Q100.25313 34.14375 101.06563 35.20625Q101.89375 36.26875 103.25313 36.26875Q104.62813 36.26875 105.44063 35.190624Q106.25313 34.1125 106.25313 32.175Q106.25313 30.425 105.425 29.346874Q104.59688 28.26875 103.2375 28.26875Q101.89375 28.26875 101.06563 29.33125Q100.25313 30.39375 100.25313 32.378124ZM116.06563 34.753124Q116.06563 34.01875 115.51875 33.6125Q114.97188 33.20625 113.59688 32.909374Q112.22188 32.6125 111.40938 32.20625Q110.6125 31.8 110.22188 31.2375Q109.84688 30.659374 109.84688 29.878124Q109.84688 28.58125 110.94063 27.690624Q112.03438 26.784374 113.75313 26.784374Q115.55 26.784374 116.65938 27.721874Q117.78438 28.64375 117.78438 30.08125L115.95625 30.08125Q115.95625 29.346874 115.33125 28.815624Q114.70625 28.26875 113.75313 28.26875Q112.75313 28.26875 112.19063 28.70625Q111.64375 29.128124 111.64375 29.83125Q111.64375 30.471874 112.15938 30.815624Q112.675 31.14375 114.03438 31.45625Q115.39375 31.753124 116.22188 32.175Q117.06563 32.58125 117.47188 33.175Q117.87813 33.76875 117.87813 34.6125Q117.87813 36.034374 116.7375 36.89375Q115.6125 37.753124 113.8 37.753124Q112.53438 37.753124 111.55 37.3Q110.58125 36.846874 110.01875 36.05Q109.47188 35.2375 109.47188 34.3L111.28438 34.3Q111.33125 35.20625 112.00313 35.7375Q112.69063 36.26875 113.8 36.26875Q114.83125 36.26875 115.44063 35.8625Q116.06563 35.440624 116.06563 34.753124ZM122.3625 24.425L122.3625 26.9875L124.34688 26.9875L124.34688 28.378124L122.3625 28.378124L122.3625 34.925Q122.3625 35.565624 122.62813 35.89375Q122.89375 36.20625 123.53438 36.20625Q123.84688 36.20625 124.39375 36.08125L124.39375 37.55Q123.675 37.753124 123.00313 37.753124Q121.8 37.753124 121.175 37.01875Q120.56563 36.284374 120.56563 34.925L120.56563 28.378124L118.64375 28.378124L118.64375 26.9875L120.56563 26.9875L120.56563 24.425L122.3625 24.425ZM143.12813 37.55L141.2375 37.55L134.08125 26.596874L134.08125 37.55L132.20625 37.55L132.20625 23.33125L134.08125 23.33125L141.26875 34.33125L141.26875 23.33125L143.12813 23.33125L143.12813 37.55ZM150.3 37.753124Q148.15938 37.753124 146.8 36.346874Q145.45625 34.925 145.45625 32.565624L145.45625 32.221874Q145.45625 30.659374 146.05 29.425Q146.65938 28.190624 147.7375 27.4875Q148.81563 26.784374 150.08125 26.784374Q152.14375 26.784374 153.28438 28.14375Q154.425 29.503124 154.425 32.034374L154.425 32.784374L147.26875 32.784374Q147.3 34.346874 148.175 35.315624Q149.05 36.26875 150.39375 36.26875Q151.3625 36.26875 152.01875 35.878124Q152.69063 35.4875 153.19063 34.846874L154.28438 35.70625Q152.95625 37.753124 150.3 37.753124ZM150.08125 28.26875Q148.9875 28.26875 148.2375 29.065624Q147.50313 29.8625 147.33125 31.3L152.6125 31.3L152.6125 31.159374Q152.53438 29.784374 151.8625 29.034374Q151.20625 28.26875 150.08125 28.26875ZM159.3625 24.425L159.3625 26.9875L161.34688 26.9875L161.34688 28.378124L159.3625 28.378124L159.3625 34.925Q159.3625 35.565624 159.62813 35.89375Q159.89375 36.20625 160.53438 36.20625Q160.84688 36.20625 161.39375 36.08125L161.39375 37.55Q160.675 37.753124 160.00313 37.753124Q158.8 37.753124 158.175 37.01875Q157.56563 36.284374 157.56563 34.925L157.56563 28.378124L155.64375 28.378124L155.64375 26.9875L157.56563 26.9875L157.56563 24.425L159.3625 24.425ZM173.26875 35.065624L175.3 26.9875L177.1125 26.9875L174.03438 37.55L172.56563 37.55L170.00313 29.534374L167.50313 37.55L166.03438 37.55L162.97188 26.9875L164.76875 26.9875L166.84688 34.89375L169.31563 26.9875L170.76875 26.9875L173.26875 35.065624ZM178.44063 32.175Q178.44063 30.6125 179.05 29.378124Q179.65938 28.128124 180.7375 27.45625Q181.83125 26.784374 183.2375 26.784374Q185.39375 26.784374 186.72188 28.284374Q188.06563 29.76875 188.06563 32.253124L188.06563 32.378124Q188.06563 33.925 187.47188 35.159374Q186.87813 36.378124 185.76875 37.065624Q184.675 37.753124 183.25313 37.753124Q181.1125 37.753124 179.76875 36.253124Q178.44063 34.753124 178.44063 32.3L178.44063 32.175ZM180.25313 32.378124Q180.25313 34.14375 181.06563 35.20625Q181.89375 36.26875 183.25313 36.26875Q184.62813 36.26875 185.44063 35.190624Q186.25313 34.1125 186.25313 32.175Q186.25313 30.425 185.425 29.346874Q184.59688 28.26875 183.2375 28.26875Q181.89375 28.26875 181.06563 29.33125Q180.25313 30.39375 180.25313 32.378124ZM195.01875 28.596874Q194.6125 28.534374 194.14375 28.534374Q192.3625 28.534374 191.72188 30.05L191.72188 37.55L189.925 37.55L189.925 26.9875L191.675 26.9875L191.70625 28.20625Q192.59688 26.784374 194.22188 26.784374Q194.75313 26.784374 195.01875 26.925L195.01875 28.596874ZM199.8625 32.659374L198.7375 33.83125L198.7375 37.55L196.925 37.55L196.925 22.55L198.7375 22.55L198.7375 31.628124L199.70625 30.45625L202.9875 26.9875L205.19063 26.9875L201.08125 31.39375L205.675 37.55L203.55 37.55L199.8625 32.659374ZM215.675 32.253124L210.90938 32.253124L210.90938 30.76875L215.675 30.76875L215.675 32.253124ZM225.08125 36.01875L231.83125 36.01875L231.83125 37.55L223.20625 37.55L223.20625 23.33125L225.08125 23.33125L225.08125 36.01875ZM240.44063 37.55Q240.28438 37.2375 240.19063 36.440624Q238.925 37.753124 237.175 37.753124Q235.6125 37.753124 234.6125 36.8625Q233.6125 35.971874 233.6125 34.6125Q233.6125 32.971874 234.8625 32.065624Q236.12813 31.14375 238.39375 31.14375L240.15938 31.14375L240.15938 30.315624Q240.15938 29.3625 239.58125 28.8Q239.01875 28.2375 237.925 28.2375Q236.95625 28.2375 236.3 28.7375Q235.64375 29.221874 235.64375 29.909374L233.83125 29.909374Q233.83125 29.128124 234.39375 28.39375Q234.95625 27.64375 235.90938 27.221874Q236.87813 26.784374 238.03438 26.784374Q239.8625 26.784374 240.89375 27.70625Q241.925 28.6125 241.97188 30.221874L241.97188 35.08125Q241.97188 36.534374 242.33125 37.39375L242.33125 37.55L240.44063 37.55ZM237.44063 36.175Q238.3 36.175 239.05 35.7375Q239.81563 35.3 240.15938 34.596874L240.15938 32.425L238.7375 32.425Q235.425 32.425 235.425 34.3625Q235.425 35.221874 235.9875 35.70625Q236.55 36.175 237.44063 36.175ZM247.3625 24.425L247.3625 26.9875L249.34688 26.9875L249.34688 28.378124L247.3625 28.378124L247.3625 34.925Q247.3625 35.565624 247.62813 35.89375Q247.89375 36.20625 248.53438 36.20625Q248.84688 36.20625 249.39375 36.08125L249.39375 37.55Q248.675 37.753124 248.00313 37.753124Q246.8 37.753124 246.175 37.01875Q245.56563 36.284374 245.56563 34.925L245.56563 28.378124L243.64375 28.378124L243.64375 26.9875L245.56563 26.9875L245.56563 24.425L247.3625 24.425ZM256.3 37.753124Q254.15938 37.753124 252.8 36.346874Q251.45625 34.925 251.45625 32.565624L251.45625 32.221874Q251.45625 30.659374 252.05 29.425Q252.65938 28.190624 253.7375 27.4875Q254.81563 26.784374 256.08124 26.784374Q258.14374 26.784374 259.28436 28.14375Q260.425 29.503124 260.425 32.034374L260.425 32.784374L253.26875 32.784374Q253.3 34.346874 254.175 35.315624Q255.05 36.26875 256.39374 36.26875Q257.3625 36.26875 258.01874 35.878124Q258.6906 35.4875 259.1906 34.846874L260.28436 35.70625Q258.95624 37.753124 256.3 37.753124ZM256.08124 28.26875Q254.9875 28.26875 254.2375 29.065624Q253.50313 29.8625 253.33125 31.3L258.6125 31.3L258.6125 31.159374Q258.53436 29.784374 257.8625 29.034374Q257.20624 28.26875 256.08124 28.26875ZM264.6281 26.9875L264.6906 28.315624Q265.89374 26.784374 267.84686 26.784374Q271.20624 26.784374 271.22186 30.565624L271.22186 37.55L269.425 37.55L269.425 30.55Q269.40936 29.409374 268.89374 28.8625Q268.39374 28.315624 267.3 28.315624Q266.425 28.315624 265.7531 28.784374Q265.09686 29.253124 264.72186 30.01875L264.72186 37.55L262.925 37.55L262.925 26.9875L264.6281 26.9875ZM278.15936 36.26875Q279.1281 36.26875 279.84686 35.690624Q280.5656 35.096874 280.64374 34.221874L282.3625 34.221874Q282.3 35.128124 281.72186 35.95625Q281.15936 36.76875 280.1906 37.26875Q279.2375 37.753124 278.15936 37.753124Q276.0031 37.753124 274.72186 36.315624Q273.45624 34.8625 273.45624 32.3625L273.45624 32.065624Q273.45624 30.51875 274.01874 29.315624Q274.58124 28.1125 275.64374 27.45625Q276.70624 26.784374 278.14374 26.784374Q279.925 26.784374 281.09686 27.846874Q282.28436 28.909374 282.3625 30.6125L280.64374 30.6125Q280.5656 29.596874 279.8625 28.940624Q279.175 28.26875 278.14374 28.26875Q276.76874 28.26875 276.0031 29.26875Q275.2531 30.253124 275.2531 32.128124L275.2531 32.471874Q275.2531 34.3 276.0031 35.284374Q276.7531 36.26875 278.15936 36.26875ZM287.3781 34.909374L289.83124 26.9875L291.76874 26.9875L287.51874 39.175Q286.53436 41.815624 284.39374 41.815624L284.05 41.784374L283.3781 41.659374L283.3781 40.190624L283.8625 40.2375Q284.78436 40.2375 285.28436 39.8625Q285.8 39.4875 286.1281 38.503124L286.53436 37.425L282.76874 26.9875L284.7375 26.9875L287.3781 34.909374Z" fill-rule="nonzero"/></svg>