<svg version="1.1" viewBox="0.0 0.0 600.0 371.0" fill="none" stroke="none" stroke-linecap="square" stroke-miterlimit="10" width="600" height="371" xmlns:xlink="http://www.w3.org/1999/xlink" xmlns="http://www.w3.org/2000/svg"><path fill="#ffffff" d="M0 0L600.0 0L600.0 371.0L0 371.0L0 0Z" fill-rule="nonzero"/><path stroke="#333333" stroke-width="1.0" stroke-linecap="butt" d="M48.5 304.5L581.5 304.5" fill-rule="nonzero"/><path stroke="#cccccc" stroke-width="1.0" stroke-linecap="butt" d="M48.5 243.5L581.5 243.5" fill-rule="nonzero"/><path stroke="#cccccc" stroke-width="1.0" stroke-linecap="butt" d="M48.5 183.5L581.5 183.5" fill-rule="nonzero"/><path stroke="#cccccc" stroke-width="1.0" stroke-linecap="butt" d="M48.5 122.5L581.5 122.5" fill-rule="nonzero"/><path stroke="#cccccc" stroke-width="1.0" stroke-linecap="butt" d="M48.5 62.5L581.5 62.5" fill-rule="nonzero"/><clipPath id="id_0"><path d="M48.55 62.416668L581.45 62.416668L581.45 304.08334L48.55 304.08334L48.55 62.416668Z" clip-rule="nonzero"/></clipPath><path stroke="#000000" stroke-width="0.0" stroke-linecap="butt" stroke-opacity="0.0" clip-path="url(#id_0)" d="M104.0 304.0L78.0 304.0L78.0 284.0C78.0 282.89542 78.89543 282.0 80.0 282.0L102.0 282.0C103.10457 282.0 104.0 282.89542 104.0 284.0Z" fill-rule="nonzero"/><path fill="#4285f4" clip-path="url(#id_0)" d="M104.0 304.0L78.0 304.0L78.0 284.0C78.0 282.89542 78.89543 282.0 80.0 282.0L102.0 282.0C103.10457 282.0 104.0 282.89542 104.0 284.0Z" fill-rule="nonzero"/><path stroke="#000000" stroke-width="0.0" stroke-linecap="butt" stroke-opacity="0.0" clip-path="url(#id_0)" d="M188.0 304.0L162.0 304.0L162.0 273.0C162.0 271.89542 162.89543 271.0 164.0 271.0L186.0 271.0C187.10457 271.0 188.0 271.89542 188.0 273.0Z" fill-rule="nonzero"/><path fill="#4285f4" clip-path="url(#id_0)" d="M188.0 304.0L162.0 304.0L162.0 273.0C162.0 271.89542 162.89543 271.0 164.0 271.0L186.0 271.0C187.10457 271.0 188.0 271.89542 188.0 273.0Z" fill-rule="nonzero"/><path stroke="#000000" stroke-width="0.0" stroke-linecap="butt" stroke-opacity="0.0" clip-path="url(#id_0)" d="M272.0 304.0L246.0 304.0L246.0 241.0C246.0 239.89543 246.89543 239.0 248.0 239.0L270.0 239.0C271.10458 239.0 272.0 239.89543 272.0 241.0Z" fill-rule="nonzero"/><path fill="#4285f4" clip-path="url(#id_0)" d="M272.0 304.0L246.0 304.0L246.0 241.0C246.0 239.89543 246.89543 239.0 248.0 239.0L270.0 239.0C271.10458 239.0 272.0 239.89543 272.0 241.0Z" fill-rule="nonzero"/><path stroke="#000000" stroke-width="0.0" stroke-linecap="butt" stroke-opacity="0.0" clip-path="url(#id_0)" d="M356.0 304.0L330.0 304.0L330.0 208.0C330.0 206.89543 330.89542 206.0 332.0 206.0L354.0 206.0C355.10458 206.0 356.0 206.89543 356.0 208.0Z" fill-rule="nonzero"/><path fill="#4285f4" clip-path="url(#id_0)" d="M356.0 304.0L330.0 304.0L330.0 208.0C330.0 206.89543 330.89542 206.0 332.0 206.0L354.0 206.0C355.10458 206.0 356.0 206.89543 356.0 208.0Z" fill-rule="nonzero"/><path stroke="#000000" stroke-width="0.0" stroke-linecap="butt" stroke-opacity="0.0" clip-path="url(#id_0)" d="M440.0 304.0L414.0 304.0L414.0 175.0C414.0 173.89543 414.89542 173.0 416.0 173.0L438.0 173.0C439.10458 173.0 440.0 173.89543 440.0 175.0Z" fill-rule="nonzero"/><path fill="#4285f4" clip-path="url(#id_0)" d="M440.0 304.0L414.0 304.0L414.0 175.0C414.0 173.89543 414.89542 173.0 416.0 173.0L438.0 173.0C439.10458 173.0 440.0 173.89543 440.0 175.0Z" fill-rule="nonzero"/><path stroke="#000000" stroke-width="0.0" stroke-linecap="butt" stroke-opacity="0.0" clip-path="url(#id_0)" d="M524.0 304.0L498.0 304.0L498.0 141.0C498.0 139.89543 498.89542 139.0 500.0 139.0L522.0 139.0C523.10455 139.0 524.0 139.89543 524.0 141.0Z" fill-rule="nonzero"/><path fill="#4285f4" clip-path="url(#id_0)" d="M524.0 304.0L498.0 304.0L498.0 141.0C498.0 139.89543 498.89542 139.0 500.0 139.0L522.0 139.0C523.10455 139.0 524.0 139.89543 524.0 141.0Z" fill-rule="nonzero"/><path stroke="#000000" stroke-width="0.0" stroke-linecap="butt" stroke-opacity="0.0" clip-path="url(#id_0)" d="M131.0 304.0L105.0 304.0L105.0 274.0C105.0 272.89542 105.89543 272.0 107.0 272.0L129.0 272.0C130.10457 272.0 131.0 272.89542 131.0 274.0Z" fill-rule="nonzero"/><path fill="#db4437" clip-path="url(#id_0)" d="M131.0 304.0L105.0 304.0L105.0 274.0C105.0 272.89542 105.89543 272.0 107.0 272.0L129.0 272.0C130.10457 272.0 131.0 272.89542 131.0 274.0Z" fill-rule="nonzero"/><path stroke="#000000" stroke-width="0.0" stroke-linecap="butt" stroke-opacity="0.0" clip-path="url(#id_0)" d="M215.0 304.0L189.0 304.0L189.0 261.0C189.0 259.89542 189.89543 259.0 191.0 259.0L213.0 259.0C214.10457 259.0 215.0 259.89542 215.0 261.0Z" fill-rule="nonzero"/><path fill="#db4437" clip-path="url(#id_0)" d="M215.0 304.0L189.0 304.0L189.0 261.0C189.0 259.89542 189.89543 259.0 191.0 259.0L213.0 259.0C214.10457 259.0 215.0 259.89542 215.0 261.0Z" fill-rule="nonzero"/><path stroke="#000000" stroke-width="0.0" stroke-linecap="butt" stroke-opacity="0.0" clip-path="url(#id_0)" d="M299.0 304.0L273.0 304.0L273.0 224.0C273.0 222.89543 273.89542 222.0 275.0 222.0L297.0 222.0C298.10458 222.0 299.0 222.89543 299.0 224.0Z" fill-rule="nonzero"/><path fill="#db4437" clip-path="url(#id_0)" d="M299.0 304.0L273.0 304.0L273.0 224.0C273.0 222.89543 273.89542 222.0 275.0 222.0L297.0 222.0C298.10458 222.0 299.0 222.89543 299.0 224.0Z" fill-rule="nonzero"/><path stroke="#000000" stroke-width="0.0" stroke-linecap="butt" stroke-opacity="0.0" clip-path="url(#id_0)" d="M383.0 304.0L357.0 304.0L357.0 186.0C357.0 184.89543 357.89542 184.0 359.0 184.0L381.0 184.0C382.10458 184.0 383.0 184.89543 383.0 186.0Z" fill-rule="nonzero"/><path fill="#db4437" clip-path="url(#id_0)" d="M383.0 304.0L357.0 304.0L357.0 186.0C357.0 184.89543 357.89542 184.0 359.0 184.0L381.0 184.0C382.10458 184.0 383.0 184.89543 383.0 186.0Z" fill-rule="nonzero"/><path stroke="#000000" stroke-width="0.0" stroke-linecap="butt" stroke-opacity="0.0" clip-path="url(#id_0)" d="M467.0 304.0L441.0 304.0L441.0 147.0C441.0 145.89543 441.89542 145.0 443.0 145.0L465.0 145.0C466.10458 145.0 467.0 145.89543 467.0 147.0Z" fill-rule="nonzero"/><path fill="#db4437" clip-path="url(#id_0)" d="M467.0 304.0L441.0 304.0L441.0 147.0C441.0 145.89543 441.89542 145.0 443.0 145.0L465.0 145.0C466.10458 145.0 467.0 145.89543 467.0 147.0Z" fill-rule="nonzero"/><path stroke="#000000" stroke-width="0.0" stroke-linecap="butt" stroke-opacity="0.0" clip-path="url(#id_0)" d="M551.0 304.0L525.0 304.0L525.0 105.0C525.0 103.89543 525.89545 103.0 527.0 103.0L549.0 103.0C550.10455 103.0 551.0 103.89543 551.0 105.0Z" fill-rule="nonzero"/><path fill="#db4437" clip-path="url(#id_0)" d="M551.0 304.0L525.0 304.0L525.0 105.0C525.0 103.89543 525.89545 103.0 527.0 103.0L549.0 103.0C550.10455 103.0 551.0 103.89543 551.0 105.0Z" fill-rule="nonzero"/><path fill="#757575" d="M24.6125 304.94272Q24.6125 306.84897 23.95625 307.78647Q23.315624 308.70834 21.925 308.70834Q20.565624 308.70834 19.909374 307.8021Q19.253124 306.89584 19.221874 305.08334L19.221874 303.64584Q19.221874 301.75522 19.8625 300.84897Q20.51875 299.9271 21.909374 299.9271Q23.284374 299.9271 23.940624 300.81772Q24.596874 301.69272 24.6125 303.53647L24.6125 304.94272ZM23.51875 303.45834Q23.51875 302.08334 23.128124 301.45834Q22.753124 300.81772 21.909374 300.81772Q21.08125 300.81772 20.690624 301.45834Q20.315624 302.08334 20.315624 303.38022L20.315624 305.1146Q20.315624 306.4896 20.70625 307.16147Q21.1125 307.81772 21.925 307.81772Q22.721874 307.81772 23.1125 307.19272Q23.503124 306.56772 23.51875 305.2396L23.51875 303.45834ZM26.39375 308.02084Q26.39375 307.7396 26.55 307.5521Q26.721874 307.3646 27.05 307.3646Q27.39375 307.3646 27.565624 307.5521Q27.7375 307.7396 27.7375 308.02084Q27.7375 308.28647 27.565624 308.47397Q27.39375 308.64584 27.05 308.64584Q26.721874 308.64584 26.55 308.47397Q26.39375 308.28647 26.39375 308.02084ZM34.6125 304.94272Q34.6125 306.84897 33.95625 307.78647Q33.315624 308.70834 31.925 308.70834Q30.565624 308.70834 29.909374 307.8021Q29.253124 306.89584 29.221874 305.08334L29.221874 303.64584Q29.221874 301.75522 29.8625 300.84897Q30.51875 299.9271 31.909374 299.9271Q33.284374 299.9271 33.940624 300.81772Q34.596874 301.69272 34.6125 303.53647L34.6125 304.94272ZM33.51875 303.45834Q33.51875 302.08334 33.128124 301.45834Q32.753124 300.81772 31.909374 300.81772Q31.08125 300.81772 30.690624 301.45834Q30.315624 302.08334 30.315624 303.38022L30.315624 305.1146Q30.315624 306.4896 30.70625 307.16147Q31.1125 307.81772 31.925 307.81772Q32.721874 307.81772 33.1125 307.19272Q33.503124 306.56772 33.51875 305.2396L33.51875 303.45834ZM41.6125 304.94272Q41.6125 306.84897 40.95625 307.78647Q40.315624 308.70834 38.925 308.70834Q37.565624 308.70834 36.909374 307.8021Q36.253124 306.89584 36.221874 305.08334L36.221874 303.64584Q36.221874 301.75522 36.8625 300.84897Q37.51875 299.9271 38.909374 299.9271Q40.284374 299.9271 40.940624 300.81772Q41.596874 301.69272 41.6125 303.53647L41.6125 304.94272ZM40.51875 303.45834Q40.51875 302.08334 40.128124 301.45834Q39.753124 300.81772 38.909374 300.81772Q38.08125 300.81772 37.690624 301.45834Q37.315624 302.08334 37.315624 303.38022L37.315624 305.1146Q37.315624 306.4896 37.70625 307.16147Q38.1125 307.81772 38.925 307.81772Q39.721874 307.81772 40.1125 307.19272Q40.503124 306.56772 40.51875 305.2396L40.51875 303.45834Z" fill-rule="nonzero"/><path fill="#757575" d="M24.846874 248.16667L19.253124 248.16667L19.253124 247.38542L22.20625 244.10417Q22.8625 243.35417 23.1125 242.90105Q23.3625 242.4323 23.3625 241.9323Q23.3625 241.26042 22.95625 240.83855Q22.565624 240.40105 21.878124 240.40105Q21.08125 240.40105 20.628124 240.8698Q20.175 241.32292 20.175 242.15105L19.096874 242.15105Q19.096874 240.96355 19.846874 240.2448Q20.6125 239.51042 21.878124 239.51042Q23.08125 239.51042 23.76875 240.13542Q24.45625 240.76042 24.45625 241.8073Q24.45625 243.0573 22.846874 244.8073L20.565624 247.27605L24.846874 247.27605L24.846874 248.16667ZM26.39375 247.60417Q26.39375 247.32292 26.55 247.13542Q26.721874 246.94792 27.05 246.94792Q27.39375 246.94792 27.565624 247.13542Q27.7375 247.32292 27.7375 247.60417Q27.7375 247.8698 27.565624 248.0573Q27.39375 248.22917 27.05 248.22917Q26.721874 248.22917 26.55 248.0573Q26.39375 247.8698 26.39375 247.60417ZM34.6125 244.52605Q34.6125 246.4323 33.95625 247.3698Q33.315624 248.29167 31.925 248.29167Q30.565624 248.29167 29.909374 247.38542Q29.253124 246.47917 29.221874 244.66667L29.221874 243.22917Q29.221874 241.33855 29.8625 240.4323Q30.51875 239.51042 31.909374 239.51042Q33.284374 239.51042 33.940624 240.40105Q34.596874 241.27605 34.6125 243.1198L34.6125 244.52605ZM33.51875 243.04167Q33.51875 241.66667 33.128124 241.04167Q32.753124 240.40105 31.909374 240.40105Q31.08125 240.40105 30.690624 241.04167Q30.315624 241.66667 30.315624 242.96355L30.315624 244.69792Q30.315624 246.07292 30.70625 246.7448Q31.1125 247.40105 31.925 247.40105Q32.721874 247.40105 33.1125 246.77605Q33.503124 246.15105 33.51875 244.82292L33.51875 243.04167ZM41.6125 244.52605Q41.6125 246.4323 40.95625 247.3698Q40.315624 248.29167 38.925 248.29167Q37.565624 248.29167 36.909374 247.38542Q36.253124 246.47917 36.221874 244.66667L36.221874 243.22917Q36.221874 241.33855 36.8625 240.4323Q37.51875 239.51042 38.909374 239.51042Q40.284374 239.51042 40.940624 240.40105Q41.596874 241.27605 41.6125 243.1198L41.6125 244.52605ZM40.51875 243.04167Q40.51875 241.66667 40.128124 241.04167Q39.753124 240.40105 38.909374 240.40105Q38.08125 240.40105 37.690624 241.04167Q37.315624 241.66667 37.315624 242.96355L37.315624 244.69792Q37.315624 246.07292 37.70625 246.7448Q38.1125 247.40105 38.925 247.40105Q39.721874 247.40105 40.1125 246.77605Q40.503124 246.15105 40.51875 244.82292L40.51875 243.04167Z" fill-rule="nonzero"/><path fill="#757575" d="M23.83125 184.89062L25.01875 184.89062L25.01875 185.76562L23.83125 185.76562L23.83125 187.75L22.753124 187.75L22.753124 185.76562L18.8625 185.76562L18.8625 185.125L22.675 179.21875L23.83125 179.21875L23.83125 184.89062ZM20.096874 184.89062L22.753124 184.89062L22.753124 180.70312L22.6125 180.9375L20.096874 184.89062ZM26.39375 187.1875Q26.39375 186.90625 26.55 186.71875Q26.721874 186.53125 27.05 186.53125Q27.39375 186.53125 27.565624 186.71875Q27.7375 186.90625 27.7375 187.1875Q27.7375 187.45312 27.565624 187.64062Q27.39375 187.8125 27.05 187.8125Q26.721874 187.8125 26.55 187.64062Q26.39375 187.45312 26.39375 187.1875ZM34.6125 184.10938Q34.6125 186.01562 33.95625 186.95312Q33.315624 187.875 31.925 187.875Q30.565624 187.875 29.909374 186.96875Q29.253124 186.0625 29.221874 184.25L29.221874 182.8125Q29.221874 180.92188 29.8625 180.01562Q30.51875 179.09375 31.909374 179.09375Q33.284374 179.09375 33.940624 179.98438Q34.596874 180.85938 34.6125 182.70312L34.6125 184.10938ZM33.51875 182.625Q33.51875 181.25 33.128124 180.625Q32.753124 179.98438 31.909374 179.98438Q31.08125 179.98438 30.690624 180.625Q30.315624 181.25 30.315624 182.54688L30.315624 184.28125Q30.315624 185.65625 30.70625 186.32812Q31.1125 186.98438 31.925 186.98438Q32.721874 186.98438 33.1125 186.35938Q33.503124 185.73438 33.51875 184.40625L33.51875 182.625ZM41.6125 184.10938Q41.6125 186.01562 40.95625 186.95312Q40.315624 187.875 38.925 187.875Q37.565624 187.875 36.909374 186.96875Q36.253124 186.0625 36.221874 184.25L36.221874 182.8125Q36.221874 180.92188 36.8625 180.01562Q37.51875 179.09375 38.909374 179.09375Q40.284374 179.09375 40.940624 179.98438Q41.596874 180.85938 41.6125 182.70312L41.6125 184.10938ZM40.51875 182.625Q40.51875 181.25 40.128124 180.625Q39.753124 179.98438 38.909374 179.98438Q38.08125 179.98438 37.690624 180.625Q37.315624 181.25 37.315624 182.54688L37.315624 184.28125Q37.315624 185.65625 37.70625 186.32812Q38.1125 186.98438 38.925 186.98438Q39.721874 186.98438 40.1125 186.35938Q40.503124 185.73438 40.51875 184.40625L40.51875 182.625Z" fill-rule="nonzero"/><path fill="#757575" d="M23.51875 118.802086L23.51875 119.708336L23.315624 119.708336Q22.05 119.739586 21.3 120.47396Q20.55 121.19271 20.425 122.50521Q21.1125 121.739586 22.26875 121.739586Q23.378124 121.739586 24.05 122.520836Q24.721874 123.302086 24.721874 124.552086Q24.721874 125.864586 24.003124 126.66146Q23.284374 127.458336 22.065624 127.458336Q20.846874 127.458336 20.08125 126.520836Q19.33125 125.56771 19.33125 124.083336L19.33125 123.677086Q19.33125 121.31771 20.33125 120.06771Q21.33125 118.81771 23.315624 118.802086L23.51875 118.802086ZM22.096874 122.645836Q21.534374 122.645836 21.065624 122.97396Q20.596874 123.302086 20.409374 123.81771L20.409374 124.208336Q20.409374 125.270836 20.878124 125.91146Q21.3625 126.552086 22.065624 126.552086Q22.8 126.552086 23.221874 126.020836Q23.64375 125.47396 23.64375 124.59896Q23.64375 123.72396 23.221874 123.19271Q22.8 122.645836 22.096874 122.645836ZM26.39375 126.770836Q26.39375 126.489586 26.55 126.302086Q26.721874 126.114586 27.05 126.114586Q27.39375 126.114586 27.565624 126.302086Q27.7375 126.489586 27.7375 126.770836Q27.7375 127.03646 27.565624 127.22396Q27.39375 127.395836 27.05 127.395836Q26.721874 127.395836 26.55 127.22396Q26.39375 127.03646 26.39375 126.770836ZM34.6125 123.69271Q34.6125 125.59896 33.95625 126.53646Q33.315624 127.458336 31.925 127.458336Q30.565624 127.458336 29.909374 126.552086Q29.253124 125.645836 29.221874 123.833336L29.221874 122.395836Q29.221874 120.50521 29.8625 119.59896Q30.51875 118.677086 31.909374 118.677086Q33.284374 118.677086 33.940624 119.56771Q34.596874 120.44271 34.6125 122.28646L34.6125 123.69271ZM33.51875 122.208336Q33.51875 120.833336 33.128124 120.208336Q32.753124 119.56771 31.909374 119.56771Q31.08125 119.56771 30.690624 120.208336Q30.315624 120.833336 30.315624 122.13021L30.315624 123.864586Q30.315624 125.239586 30.70625 125.91146Q31.1125 126.56771 31.925 126.56771Q32.721874 126.56771 33.1125 125.94271Q33.503124 125.31771 33.51875 123.989586L33.51875 122.208336ZM41.6125 123.69271Q41.6125 125.59896 40.95625 126.53646Q40.315624 127.458336 38.925 127.458336Q37.565624 127.458336 36.909374 126.552086Q36.253124 125.645836 36.221874 123.833336L36.221874 122.395836Q36.221874 120.50521 36.8625 119.59896Q37.51875 118.677086 38.909374 118.677086Q40.284374 118.677086 40.940624 119.56771Q41.596874 120.44271 41.6125 122.28646L41.6125 123.69271ZM40.51875 122.208336Q40.51875 120.833336 40.128124 120.208336Q39.753124 119.56771 38.909374 119.56771Q38.08125 119.56771 37.690624 120.208336Q37.315624 120.833336 37.315624 122.13021L37.315624 123.864586Q37.315624 125.239586 37.70625 125.91146Q38.1125 126.56771 38.925 126.56771Q39.721874 126.56771 40.1125 125.94271Q40.503124 125.31771 40.51875 123.989586L40.51875 122.208336Z" fill-rule="nonzero"/><path fill="#757575" d="M24.440624 60.604164Q24.440624 61.24479 24.096874 61.74479Q23.753124 62.24479 23.190624 62.52604Q23.846874 62.80729 24.2375 63.36979Q24.628124 63.916664 24.628124 64.61979Q24.628124 65.71354 23.878124 66.385414Q23.14375 67.041664 21.925 67.041664Q20.690624 67.041664 19.940624 66.385414Q19.20625 65.71354 19.20625 64.61979Q19.20625 63.916664 19.58125 63.36979Q19.95625 62.80729 20.628124 62.52604Q20.065624 62.24479 19.7375 61.74479Q19.409374 61.24479 19.409374 60.604164Q19.409374 59.52604 20.096874 58.90104Q20.784374 58.260414 21.925 58.260414Q23.05 58.260414 23.7375 58.90104Q24.440624 59.52604 24.440624 60.604164ZM23.55 64.58854Q23.55 63.86979 23.096874 63.43229Q22.64375 62.979164 21.909374 62.979164Q21.175 62.979164 20.721874 63.43229Q20.284374 63.86979 20.284374 64.604164Q20.284374 65.322914 20.721874 65.74479Q21.159374 66.15104 21.925 66.15104Q22.675 66.15104 23.1125 65.729164Q23.55 65.30729 23.55 64.58854ZM21.925 59.15104Q21.284374 59.15104 20.878124 59.55729Q20.4875 59.947914 20.4875 60.635414Q20.4875 61.27604 20.878124 61.68229Q21.26875 62.08854 21.909374 62.08854Q22.565624 62.08854 22.95625 61.68229Q23.346874 61.27604 23.346874 60.635414Q23.346874 59.979164 22.940624 59.572914Q22.534374 59.15104 21.925 59.15104ZM26.39375 66.354164Q26.39375 66.072914 26.55 65.885414Q26.721874 65.697914 27.05 65.697914Q27.39375 65.697914 27.565624 65.885414Q27.7375 66.072914 27.7375 66.354164Q27.7375 66.61979 27.565624 66.80729Q27.39375 66.979164 27.05 66.979164Q26.721874 66.979164 26.55 66.80729Q26.39375 66.61979 26.39375 66.354164ZM34.6125 63.27604Q34.6125 65.18229 33.95625 66.11979Q33.315624 67.041664 31.925 67.041664Q30.565624 67.041664 29.909374 66.135414Q29.253124 65.229164 29.221874 63.416664L29.221874 61.979164Q29.221874 60.08854 29.8625 59.18229Q30.51875 58.260414 31.909374 58.260414Q33.284374 58.260414 33.940624 59.15104Q34.596874 60.02604 34.6125 61.86979L34.6125 63.27604ZM33.51875 61.791664Q33.51875 60.416664 33.128124 59.791664Q32.753124 59.15104 31.909374 59.15104Q31.08125 59.15104 30.690624 59.791664Q30.315624 60.416664 30.315624 61.71354L30.315624 63.447914Q30.315624 64.822914 30.70625 65.49479Q31.1125 66.15104 31.925 66.15104Q32.721874 66.15104 33.1125 65.52604Q33.503124 64.90104 33.51875 63.572914L33.51875 61.791664ZM41.6125 63.27604Q41.6125 65.18229 40.95625 66.11979Q40.315624 67.041664 38.925 67.041664Q37.565624 67.041664 36.909374 66.135414Q36.253124 65.229164 36.221874 63.416664L36.221874 61.979164Q36.221874 60.08854 36.8625 59.18229Q37.51875 58.260414 38.909374 58.260414Q40.284374 58.260414 40.940624 59.15104Q41.596874 60.02604 41.6125 61.86979L41.6125 63.27604ZM40.51875 61.791664Q40.51875 60.416664 40.128124 59.791664Q39.753124 59.15104 38.909374 59.15104Q38.08125 59.15104 37.690624 59.791664Q37.315624 60.416664 37.315624 61.71354L37.315624 63.447914Q37.315624 64.822914 37.70625 65.49479Q38.1125 66.15104 38.925 66.15104Q39.721874 66.15104 40.1125 65.52604Q40.503124 64.90104 40.51875 63.572914L40.51875 61.791664Z" fill-rule="nonzero"/><path fill="#757575" d="M98.96248 322.08334L97.88435 322.08334L97.88435 314.8646L95.69685 315.66147L95.69685 314.6771L98.80623 313.50522L98.96248 313.50522L98.96248 322.08334ZM102.89998 317.8021L103.33748 313.5521L107.71248 313.5521L107.71248 314.5521L104.25935 314.5521L103.99373 316.88022Q104.63435 316.50522 105.43123 316.50522Q106.58748 316.50522 107.27498 317.28647Q107.96248 318.0521 107.96248 319.3646Q107.96248 320.6771 107.24373 321.44272Q106.5406 322.20834 105.25935 322.20834Q104.13435 322.20834 103.4156 321.58334Q102.69685 320.94272 102.6031 319.83334L103.61873 319.83334Q103.7281 320.56772 104.14998 320.94272Q104.57185 321.31772 105.25935 321.31772Q106.00935 321.31772 106.44685 320.8021Q106.88435 320.28647 106.88435 319.38022Q106.88435 318.52084 106.4156 318.00522Q105.94685 317.4896 105.1656 317.4896Q104.46248 317.4896 104.05623 317.78647L103.77498 318.02084L102.89998 317.8021ZM114.75935 318.44272Q114.75935 320.34897 114.1031 321.28647Q113.46248 322.20834 112.07185 322.20834Q110.71248 322.20834 110.05623 321.3021Q109.39998 320.39584 109.36873 318.58334L109.36873 317.14584Q109.36873 315.25522 110.00935 314.34897Q110.6656 313.4271 112.05623 313.4271Q113.43123 313.4271 114.08748 314.31772Q114.74373 315.19272 114.75935 317.03647L114.75935 318.44272ZM113.6656 316.95834Q113.6656 315.58334 113.27498 314.95834Q112.89998 314.31772 112.05623 314.31772Q111.2281 314.31772 110.83748 314.95834Q110.46248 315.58334 110.46248 316.88022L110.46248 318.6146Q110.46248 319.9896 110.8531 320.66147Q111.25935 321.31772 112.07185 321.31772Q112.86873 321.31772 113.25935 320.69272Q113.64998 320.06772 113.6656 318.7396L113.6656 316.95834Z" fill-rule="nonzero"/><path fill="#757575" d="M180.89935 317.28647L181.71185 317.28647Q182.4931 317.27084 182.9306 316.88022Q183.3681 316.4896 183.3681 315.81772Q183.3681 314.31772 181.8681 314.31772Q181.16498 314.31772 180.7431 314.72397Q180.33685 315.13022 180.33685 315.78647L179.2431 315.78647Q179.2431 314.77084 179.97748 314.09897Q180.72748 313.4271 181.8681 313.4271Q183.07123 313.4271 183.75873 314.06772Q184.44623 314.70834 184.44623 315.84897Q184.44623 316.41147 184.08685 316.9271Q183.72748 317.44272 183.10248 317.70834Q183.8056 317.9271 184.1806 318.44272Q184.57123 318.95834 184.57123 319.70834Q184.57123 320.84897 183.82123 321.53647Q183.07123 322.20834 181.8681 322.20834Q180.6806 322.20834 179.91498 321.5521Q179.16498 320.89584 179.16498 319.83334L180.25873 319.83334Q180.25873 320.50522 180.69623 320.91147Q181.13373 321.31772 181.88373 321.31772Q182.66498 321.31772 183.07123 320.91147Q183.4931 320.4896 183.4931 319.72397Q183.4931 318.9896 183.03998 318.59897Q182.58685 318.19272 181.71185 318.1771L180.89935 318.1771L180.89935 317.28647ZM191.6806 318.44272Q191.6806 320.34897 191.02435 321.28647Q190.38373 322.20834 188.9931 322.20834Q187.63373 322.20834 186.97748 321.3021Q186.32123 320.39584 186.28998 318.58334L186.28998 317.14584Q186.28998 315.25522 186.9306 314.34897Q187.58685 313.4271 188.97748 313.4271Q190.35248 313.4271 191.00873 314.31772Q191.66498 315.19272 191.6806 317.03647L191.6806 318.44272ZM190.58685 316.95834Q190.58685 315.58334 190.19623 314.95834Q189.82123 314.31772 188.97748 314.31772Q188.14935 314.31772 187.75873 314.95834Q187.38373 315.58334 187.38373 316.88022L187.38373 318.6146Q187.38373 319.9896 187.77435 320.66147Q188.1806 321.31772 188.9931 321.31772Q189.78998 321.31772 190.1806 320.69272Q190.57123 320.06772 190.58685 318.7396L190.58685 316.95834ZM198.6806 318.44272Q198.6806 320.34897 198.02435 321.28647Q197.38373 322.20834 195.9931 322.20834Q194.63373 322.20834 193.97748 321.3021Q193.32123 320.39584 193.28998 318.58334L193.28998 317.14584Q193.28998 315.25522 193.9306 314.34897Q194.58685 313.4271 195.97748 313.4271Q197.35248 313.4271 198.00873 314.31772Q198.66498 315.19272 198.6806 317.03647L198.6806 318.44272ZM197.58685 316.95834Q197.58685 315.58334 197.19623 314.95834Q196.82123 314.31772 195.97748 314.31772Q195.14935 314.31772 194.75873 314.95834Q194.38373 315.58334 194.38373 316.88022L194.38373 318.6146Q194.38373 319.9896 194.77435 320.66147Q195.1806 321.31772 195.9931 321.31772Q196.78998 321.31772 197.1806 320.69272Q197.57123 320.06772 197.58685 318.7396L197.58685 316.95834Z" fill-rule="nonzero"/><path fill="#757575" d="M267.50812 313.5521L267.50812 314.45834L267.305 314.45834Q266.03937 314.4896 265.28937 315.22397Q264.53937 315.94272 264.41437 317.25522Q265.10187 316.4896 266.25812 316.4896Q267.3675 316.4896 268.03937 317.27084Q268.71124 318.0521 268.71124 319.3021Q268.71124 320.6146 267.9925 321.41147Q267.27374 322.20834 266.055 322.20834Q264.83624 322.20834 264.07062 321.27084Q263.32062 320.31772 263.32062 318.83334L263.32062 318.4271Q263.32062 316.06772 264.32062 314.81772Q265.32062 313.56772 267.305 313.5521L267.50812 313.5521ZM266.08624 317.39584Q265.52374 317.39584 265.055 317.72397Q264.58624 318.0521 264.39874 318.56772L264.39874 318.95834Q264.39874 320.02084 264.8675 320.66147Q265.35187 321.3021 266.055 321.3021Q266.78937 321.3021 267.21124 320.77084Q267.63312 320.22397 267.63312 319.34897Q267.63312 318.47397 267.21124 317.94272Q266.78937 317.39584 266.08624 317.39584ZM275.60187 318.44272Q275.60187 320.34897 274.94562 321.28647Q274.305 322.20834 272.91437 322.20834Q271.555 322.20834 270.89874 321.3021Q270.2425 320.39584 270.21124 318.58334L270.21124 317.14584Q270.21124 315.25522 270.85187 314.34897Q271.50812 313.4271 272.89874 313.4271Q274.27374 313.4271 274.93 314.31772Q275.58624 315.19272 275.60187 317.03647L275.60187 318.44272ZM274.50812 316.95834Q274.50812 315.58334 274.1175 314.95834Q273.7425 314.31772 272.89874 314.31772Q272.07062 314.31772 271.68 314.95834Q271.305 315.58334 271.305 316.88022L271.305 318.6146Q271.305 319.9896 271.69562 320.66147Q272.10187 321.31772 272.91437 321.31772Q273.71124 321.31772 274.10187 320.69272Q274.4925 320.06772 274.50812 318.7396L274.50812 316.95834ZM282.60187 318.44272Q282.60187 320.34897 281.94562 321.28647Q281.305 322.20834 279.91437 322.20834Q278.555 322.20834 277.89874 321.3021Q277.2425 320.39584 277.21124 318.58334L277.21124 317.14584Q277.21124 315.25522 277.85187 314.34897Q278.50812 313.4271 279.89874 313.4271Q281.27374 313.4271 281.93 314.31772Q282.58624 315.19272 282.60187 317.03647L282.60187 318.44272ZM281.50812 316.95834Q281.50812 315.58334 281.1175 314.95834Q280.7425 314.31772 279.89874 314.31772Q279.07062 314.31772 278.68 314.95834Q278.305 315.58334 278.305 316.88022L278.305 318.6146Q278.305 319.9896 278.69562 320.66147Q279.10187 321.31772 279.91437 321.31772Q280.71124 321.31772 281.10187 320.69272Q281.4925 320.06772 281.50812 318.7396L281.50812 316.95834Z" fill-rule="nonzero"/><path fill="#757575" d="M351.32 318.33334Q350.99188 318.7396 350.5075 318.9896Q350.03876 319.22397 349.47626 319.22397Q348.74188 319.22397 348.195 318.8646Q347.64813 318.50522 347.35126 317.84897Q347.05438 317.1771 347.05438 316.38022Q347.05438 315.53647 347.36688 314.84897Q347.695 314.16147 348.28876 313.8021Q348.89813 313.4271 349.695 313.4271Q350.96063 313.4271 351.67938 314.38022Q352.41376 315.33334 352.41376 316.95834L352.41376 317.27084Q352.41376 319.77084 351.42938 320.91147Q350.445 322.0521 348.46063 322.08334L348.24188 322.08334L348.24188 321.1771L348.47626 321.1771Q349.82 321.14584 350.53876 320.47397Q351.2575 319.8021 351.32 318.33334ZM349.64813 318.33334Q350.195 318.33334 350.64813 318.00522Q351.11688 317.66147 351.33563 317.1771L351.33563 316.7396Q351.33563 315.6771 350.86688 315.00522Q350.39813 314.33334 349.695 314.33334Q348.97626 314.33334 348.53876 314.88022Q348.11688 315.4271 348.11688 316.33334Q348.11688 317.20834 348.52313 317.77084Q348.945 318.33334 349.64813 318.33334ZM359.52313 318.44272Q359.52313 320.34897 358.86688 321.28647Q358.22626 322.20834 356.83563 322.20834Q355.47626 322.20834 354.82 321.3021Q354.16376 320.39584 354.1325 318.58334L354.1325 317.14584Q354.1325 315.25522 354.77313 314.34897Q355.42938 313.4271 356.82 313.4271Q358.195 313.4271 358.85126 314.31772Q359.5075 315.19272 359.52313 317.03647L359.52313 318.44272ZM358.42938 316.95834Q358.42938 315.58334 358.03876 314.95834Q357.66376 314.31772 356.82 314.31772Q355.99188 314.31772 355.60126 314.95834Q355.22626 315.58334 355.22626 316.88022L355.22626 318.6146Q355.22626 319.9896 355.61688 320.66147Q356.02313 321.31772 356.83563 321.31772Q357.6325 321.31772 358.02313 320.69272Q358.41376 320.06772 358.42938 318.7396L358.42938 316.95834ZM366.52313 318.44272Q366.52313 320.34897 365.86688 321.28647Q365.22626 322.20834 363.83563 322.20834Q362.47626 322.20834 361.82 321.3021Q361.16376 320.39584 361.1325 318.58334L361.1325 317.14584Q361.1325 315.25522 361.77313 314.34897Q362.42938 313.4271 363.82 313.4271Q365.195 313.4271 365.85126 314.31772Q366.5075 315.19272 366.52313 317.03647L366.52313 318.44272ZM365.42938 316.95834Q365.42938 315.58334 365.03876 314.95834Q364.66376 314.31772 363.82 314.31772Q362.99188 314.31772 362.60126 314.95834Q362.22626 315.58334 362.22626 316.88022L362.22626 318.6146Q362.22626 319.9896 362.61688 320.66147Q363.02313 321.31772 363.83563 321.31772Q364.6325 321.31772 365.02313 320.69272Q365.41376 320.06772 365.42938 318.7396L365.42938 316.95834Z" fill-rule="nonzero"/><path fill="#757575" d="M431.14752 322.08334L430.0694 322.08334L430.0694 314.8646L427.8819 315.66147L427.8819 314.6771L430.99127 313.50522L431.14752 313.50522L431.14752 322.08334ZM440.17877 322.08334L434.58502 322.08334L434.58502 321.3021L437.53815 318.02084Q438.1944 317.27084 438.4444 316.81772Q438.6944 316.34897 438.6944 315.84897Q438.6944 315.1771 438.28815 314.75522Q437.89752 314.31772 437.21002 314.31772Q436.41315 314.31772 435.96002 314.78647Q435.5069 315.2396 435.5069 316.06772L434.42877 316.06772Q434.42877 314.88022 435.17877 314.16147Q435.9444 313.4271 437.21002 313.4271Q438.41315 313.4271 439.10065 314.0521Q439.78815 314.6771 439.78815 315.72397Q439.78815 316.97397 438.17877 318.72397L435.89752 321.19272L440.17877 321.19272L440.17877 322.08334ZM446.9444 318.44272Q446.9444 320.34897 446.28815 321.28647Q445.64752 322.20834 444.2569 322.20834Q442.89752 322.20834 442.24127 321.3021Q441.58502 320.39584 441.55377 318.58334L441.55377 317.14584Q441.55377 315.25522 442.1944 314.34897Q442.85065 313.4271 444.24127 313.4271Q445.61627 313.4271 446.27252 314.31772Q446.92877 315.19272 446.9444 317.03647L446.9444 318.44272ZM445.85065 316.95834Q445.85065 315.58334 445.46002 314.95834Q445.08502 314.31772 444.24127 314.31772Q443.41315 314.31772 443.02252 314.95834Q442.64752 315.58334 442.64752 316.88022L442.64752 318.6146Q442.64752 319.9896 443.03815 320.66147Q443.4444 321.31772 444.2569 321.31772Q445.05377 321.31772 445.4444 320.69272Q445.83502 320.06772 445.85065 318.7396L445.85065 316.95834ZM453.9444 318.44272Q453.9444 320.34897 453.28815 321.28647Q452.64752 322.20834 451.2569 322.20834Q449.89752 322.20834 449.24127 321.3021Q448.58502 320.39584 448.55377 318.58334L448.55377 317.14584Q448.55377 315.25522 449.1944 314.34897Q449.85065 313.4271 451.24127 313.4271Q452.61627 313.4271 453.27252 314.31772Q453.92877 315.19272 453.9444 317.03647L453.9444 318.44272ZM452.85065 316.95834Q452.85065 315.58334 452.46002 314.95834Q452.08502 314.31772 451.24127 314.31772Q450.41315 314.31772 450.02252 314.95834Q449.64752 315.58334 449.64752 316.88022L449.64752 318.6146Q449.64752 319.9896 450.03815 320.66147Q450.4444 321.31772 451.2569 321.31772Q452.05377 321.31772 452.4444 320.69272Q452.83502 320.06772 452.85065 318.7396L452.85065 316.95834Z" fill-rule="nonzero"/><path fill="#757575" d="M515.0688 322.08334L513.99066 322.08334L513.99066 314.8646L511.80316 315.66147L511.80316 314.6771L514.91254 313.50522L515.0688 313.50522L515.0688 322.08334ZM519.0063 317.8021L519.4438 313.5521L523.8188 313.5521L523.8188 314.5521L520.36566 314.5521L520.10004 316.88022Q520.74066 316.50522 521.53754 316.50522Q522.6938 316.50522 523.3813 317.28647Q524.0688 318.0521 524.0688 319.3646Q524.0688 320.6771 523.35004 321.44272Q522.6469 322.20834 521.36566 322.20834Q520.24066 322.20834 519.5219 321.58334Q518.80316 320.94272 518.7094 319.83334L519.72504 319.83334Q519.8344 320.56772 520.2563 320.94272Q520.67816 321.31772 521.36566 321.31772Q522.11566 321.31772 522.55316 320.8021Q522.99066 320.28647 522.99066 319.38022Q522.99066 318.52084 522.5219 318.00522Q522.05316 317.4896 521.2719 317.4896Q520.5688 317.4896 520.16254 317.78647L519.8813 318.02084L519.0063 317.8021ZM530.86566 318.44272Q530.86566 320.34897 530.2094 321.28647Q529.5688 322.20834 528.17816 322.20834Q526.8188 322.20834 526.16254 321.3021Q525.5063 320.39584 525.47504 318.58334L525.47504 317.14584Q525.47504 315.25522 526.11566 314.34897Q526.7719 313.4271 528.16254 313.4271Q529.53754 313.4271 530.1938 314.31772Q530.85004 315.19272 530.86566 317.03647L530.86566 318.44272ZM529.7719 316.95834Q529.7719 315.58334 529.3813 314.95834Q529.0063 314.31772 528.16254 314.31772Q527.3344 314.31772 526.9438 314.95834Q526.5688 315.58334 526.5688 316.88022L526.5688 318.6146Q526.5688 319.9896 526.9594 320.66147Q527.36566 321.31772 528.17816 321.31772Q528.97504 321.31772 529.36566 320.69272Q529.7563 320.06772 529.7719 318.7396L529.7719 316.95834ZM537.86566 318.44272Q537.86566 320.34897 537.2094 321.28647Q536.5688 322.20834 535.17816 322.20834Q533.8188 322.20834 533.16254 321.3021Q532.5063 320.39584 532.47504 318.58334L532.47504 317.14584Q532.47504 315.25522 533.11566 314.34897Q533.7719 313.4271 535.16254 313.4271Q536.53754 313.4271 537.1938 314.31772Q537.85004 315.19272 537.86566 317.03647L537.86566 318.44272ZM536.7719 316.95834Q536.7719 315.58334 536.3813 314.95834Q536.0063 314.31772 535.16254 314.31772Q534.3344 314.31772 533.9438 314.95834Q533.5688 315.58334 533.5688 316.88022L533.5688 318.6146Q533.5688 319.9896 533.9594 320.66147Q534.36566 321.31772 535.17816 321.31772Q535.97504 321.31772 536.36566 320.69272Q536.7563 320.06772 536.7719 318.7396L536.7719 316.95834Z" fill-rule="nonzero"/><path fill="#4285f4" d="M214.5 339.95C214.5 339.3977 214.94771 338.95 215.5 338.95L225.5 338.95C226.05229 338.95 226.5 339.3977 226.5 339.95L226.5 349.95C226.5 350.5023 226.05229 350.95 225.5 350.95L215.5 350.95C214.94771 350.95 214.5 350.5023 214.5 349.95Z" fill-rule="nonzero"/><path fill="#757575" d="M238.0 345.65314Q236.5625 345.23126 235.89062 344.6219Q235.23438 344.0125 235.23438 343.1219Q235.23438 342.1219 236.03125 341.46564Q236.84375 340.79376 238.14062 340.79376Q239.01562 340.79376 239.70312 341.1375Q240.39062 341.48126 240.76562 342.075Q241.15625 342.66876 241.15625 343.3875L240.01562 343.3875Q240.01562 342.60626 239.51562 342.16876Q239.03125 341.73126 238.14062 341.73126Q237.3125 341.73126 236.84375 342.10626Q236.375 342.46564 236.375 343.10626Q236.375 343.6375 236.8125 343.9969Q237.26562 344.35626 238.32812 344.65314Q239.39062 344.95 239.98438 345.3094Q240.59375 345.66876 240.875 346.15314Q241.17188 346.6375 241.17188 347.27814Q241.17188 348.325 240.35938 348.95Q239.54688 349.575 238.20312 349.575Q237.3125 349.575 236.54688 349.23126Q235.79688 348.8875 235.375 348.3094Q234.96875 347.71564 234.96875 346.98126L236.09375 346.98126Q236.09375 347.7469 236.67188 348.2Q237.25 348.65314 238.20312 348.65314Q239.09375 348.65314 239.5625 348.29376Q240.03125 347.91876 240.03125 347.29376Q240.03125 346.66876 239.59375 346.325Q239.15625 345.98126 238.0 345.65314ZM244.95312 349.575Q243.65625 349.575 242.84375 348.73126Q242.04688 347.8719 242.04688 346.45L242.04688 346.2625Q242.04688 345.3094 242.40625 344.575Q242.76562 343.825 243.40625 343.41876Q244.0625 342.9969 244.8125 342.9969Q246.04688 342.9969 246.73438 343.8094Q247.42188 344.6219 247.42188 346.1375L247.42188 346.59064L243.125 346.59064Q243.15625 347.52814 243.67188 348.10626Q244.20312 348.6844 245.01562 348.6844Q245.57812 348.6844 245.96875 348.45Q246.375 348.21564 246.6875 347.825L247.34375 348.34064Q246.54688 349.575 244.95312 349.575ZM244.8125 343.8875Q244.15625 343.8875 243.70312 344.3719Q243.26562 344.84064 243.17188 345.7L246.34375 345.7L246.34375 345.6219Q246.29688 344.79376 245.89062 344.34064Q245.5 343.8875 244.8125 343.8875ZM251.39062 344.075Q251.14062 344.04376 250.85938 344.04376Q249.78125 344.04376 249.40625 344.95L249.40625 349.45L248.32812 349.45L248.32812 343.10626L249.375 343.10626L249.39062 343.84064Q249.92188 342.9969 250.90625 342.9969Q251.21875 342.9969 251.39062 343.075L251.39062 344.075ZM254.40625 347.98126L255.98438 343.10626L257.09375 343.10626L254.8125 349.45L253.98438 349.45L251.6875 343.10626L252.79688 343.10626L254.40625 347.98126ZM259.5 349.45L258.42188 349.45L258.42188 343.10626L259.5 343.10626L259.5 349.45ZM258.32812 341.4344Q258.32812 341.16876 258.48438 340.98126Q258.65625 340.79376 258.96875 340.79376Q259.28125 340.79376 259.4375 340.98126Q259.60938 341.16876 259.60938 341.4344Q259.60938 341.6844 259.4375 341.8719Q259.28125 342.04376 258.96875 342.04376Q258.65625 342.04376 258.48438 341.8719Q258.32812 341.6844 258.32812 341.4344ZM263.85938 348.6844Q264.4375 348.6844 264.875 348.34064Q265.3125 347.98126 265.35938 347.45L266.39062 347.45Q266.35938 347.9969 266.0 348.4969Q265.65625 348.98126 265.07812 349.27814Q264.51562 349.575 263.85938 349.575Q262.5625 349.575 261.79688 348.71564Q261.04688 347.84064 261.04688 346.34064L261.04688 346.15314Q261.04688 345.23126 261.375 344.5125Q261.71875 343.79376 262.34375 343.40314Q262.98438 342.9969 263.85938 342.9969Q264.92188 342.9969 265.625 343.6375Q266.34375 344.2625 266.39062 345.29376L265.35938 345.29376Q265.3125 344.66876 264.89062 344.27814Q264.46875 343.8875 263.85938 343.8875Q263.03125 343.8875 262.57812 344.48126Q262.125 345.075 262.125 346.2L262.125 346.40314Q262.125 347.4969 262.57812 348.09064Q263.03125 348.6844 263.85938 348.6844ZM269.95312 349.575Q268.65625 349.575 267.84375 348.73126Q267.04688 347.8719 267.04688 346.45L267.04688 346.2625Q267.04688 345.3094 267.40625 344.575Q267.76562 343.825 268.40625 343.41876Q269.0625 342.9969 269.8125 342.9969Q271.04688 342.9969 271.73438 343.8094Q272.42188 344.6219 272.42188 346.1375L272.42188 346.59064L268.125 346.59064Q268.15625 347.52814 268.67188 348.10626Q269.20312 348.6844 270.01562 348.6844Q270.57812 348.6844 270.96875 348.45Q271.375 348.21564 271.6875 347.825L272.34375 348.34064Q271.54688 349.575 269.95312 349.575ZM269.8125 343.8875Q269.15625 343.8875 268.70312 344.3719Q268.26562 344.84064 268.17188 345.7L271.34375 345.7L271.34375 345.6219Q271.29688 344.79376 270.89062 344.34064Q270.5 343.8875 269.8125 343.8875Z" fill-rule="nonzero"/><path fill="#db4437" d="M288.5 339.95C288.5 339.3977 288.94772 338.95 289.5 338.95L299.5 338.95C300.05228 338.95 300.5 339.3977 300.5 339.95L300.5 349.95C300.5 350.5023 300.05228 350.95 299.5 350.95L289.5 350.95C288.94772 350.95 288.5 350.5023 288.5 349.95Z" fill-rule="nonzero"/><path fill="#757575" d="M310.625 348.52814L314.67188 348.52814L314.67188 349.45L309.48438 349.45L309.48438 340.91876L310.625 340.91876L310.625 348.52814ZM315.03125 346.21564Q315.03125 345.29376 315.39062 344.54376Q315.76562 343.79376 316.42188 343.40314Q317.07812 342.9969 317.90625 342.9969Q319.20312 342.9969 320.0 343.8875Q320.8125 344.77814 320.8125 346.27814L320.8125 346.35626Q320.8125 347.27814 320.45312 348.0125Q320.09375 348.7469 319.4375 349.16876Q318.78125 349.575 317.92188 349.575Q316.64062 349.575 315.82812 348.6844Q315.03125 347.77814 315.03125 346.29376L315.03125 346.21564ZM316.125 346.35626Q316.125 347.40314 316.60938 348.04376Q317.10938 348.6844 317.92188 348.6844Q318.75 348.6844 319.23438 348.04376Q319.71875 347.3875 319.71875 346.21564Q319.71875 345.1844 319.21875 344.54376Q318.73438 343.8875 317.90625 343.8875Q317.10938 343.8875 316.60938 344.52814Q316.125 345.15314 316.125 346.35626ZM326.23438 349.45Q326.14062 349.2625 326.07812 348.77814Q325.32812 349.575 324.28125 349.575Q323.34375 349.575 322.73438 349.04376Q322.14062 348.5125 322.14062 347.6844Q322.14062 346.7 322.89062 346.15314Q323.64062 345.60626 325.01562 345.60626L326.0625 345.60626L326.0625 345.10626Q326.0625 344.54376 325.71875 344.21564Q325.39062 343.8719 324.71875 343.8719Q324.14062 343.8719 323.75 344.16876Q323.35938 344.45 323.35938 344.8719L322.26562 344.8719Q322.26562 344.3875 322.59375 343.95Q322.9375 343.5125 323.51562 343.2625Q324.09375 342.9969 324.78125 342.9969Q325.89062 342.9969 326.5 343.54376Q327.125 344.09064 327.15625 345.04376L327.15625 347.96564Q327.15625 348.84064 327.375 349.35626L327.375 349.45L326.23438 349.45ZM324.4375 348.6219Q324.95312 348.6219 325.40625 348.35626Q325.85938 348.09064 326.0625 347.66876L326.0625 346.3719L325.21875 346.3719Q323.21875 346.3719 323.21875 347.54376Q323.21875 348.04376 323.5625 348.34064Q323.90625 348.6219 324.4375 348.6219ZM329.0625 346.23126Q329.0625 344.7625 329.75 343.8875Q330.4375 342.9969 331.5625 342.9969Q332.67188 342.9969 333.32812 343.7469L333.32812 340.45L334.40625 340.45L334.40625 349.45L333.40625 349.45L333.35938 348.7625Q332.70312 349.575 331.54688 349.575Q330.45312 349.575 329.75 348.66876Q329.0625 347.7625 329.0625 346.3094L329.0625 346.23126ZM330.14062 346.35626Q330.14062 347.4344 330.57812 348.04376Q331.03125 348.65314 331.8125 348.65314Q332.84375 348.65314 333.32812 347.71564L333.32812 344.8094Q332.84375 343.91876 331.82812 343.91876Q331.03125 343.91876 330.57812 344.52814Q330.14062 345.1375 330.14062 346.35626ZM339.48438 349.45L339.48438 340.91876L342.28125 340.91876Q343.67188 340.91876 344.35938 341.4969Q345.0625 342.0594 345.0625 343.1844Q345.0625 343.79376 344.71875 344.2625Q344.39062 344.71564 343.79688 344.96564Q344.5 345.15314 344.89062 345.7Q345.29688 346.23126 345.29688 346.98126Q345.29688 348.1375 344.54688 348.79376Q343.8125 349.45 342.45312 349.45L339.48438 349.45ZM340.60938 345.46564L340.60938 348.52814L342.46875 348.52814Q343.26562 348.52814 343.71875 348.1219Q344.17188 347.71564 344.17188 346.9969Q344.17188 345.46564 342.48438 345.46564L340.60938 345.46564ZM340.60938 344.5594L342.3125 344.5594Q343.04688 344.5594 343.48438 344.2Q343.9375 343.825 343.9375 343.1844Q343.9375 342.48126 343.53125 342.16876Q343.125 341.84064 342.28125 341.84064L340.60938 341.84064L340.60938 344.5594ZM350.23438 349.45Q350.14062 349.2625 350.07812 348.77814Q349.32812 349.575 348.28125 349.575Q347.34375 349.575 346.73438 349.04376Q346.14062 348.5125 346.14062 347.6844Q346.14062 346.7 346.89062 346.15314Q347.64062 345.60626 349.01562 345.60626L350.0625 345.60626L350.0625 345.10626Q350.0625 344.54376 349.71875 344.21564Q349.39062 343.8719 348.71875 343.8719Q348.14062 343.8719 347.75 344.16876Q347.35938 344.45 347.35938 344.8719L346.26562 344.8719Q346.26562 344.3875 346.59375 343.95Q346.9375 343.5125 347.51562 343.2625Q348.09375 342.9969 348.78125 342.9969Q349.89062 342.9969 350.5 343.54376Q351.125 344.09064 351.15625 345.04376L351.15625 347.96564Q351.15625 348.84064 351.375 349.35626L351.375 349.45L350.23438 349.45ZM348.4375 348.6219Q348.95312 348.6219 349.40625 348.35626Q349.85938 348.09064 350.0625 347.66876L350.0625 346.3719L349.21875 346.3719Q347.21875 346.3719 347.21875 347.54376Q347.21875 348.04376 347.5625 348.34064Q347.90625 348.6219 348.4375 348.6219ZM354.5 349.45L353.42188 349.45L353.42188 340.45L354.5 340.45L354.5 349.45ZM360.23438 349.45Q360.14062 349.2625 360.07812 348.77814Q359.32812 349.575 358.28125 349.575Q357.34375 349.575 356.73438 349.04376Q356.14062 348.5125 356.14062 347.6844Q356.14062 346.7 356.89062 346.15314Q357.64062 345.60626 359.01562 345.60626L360.0625 345.60626L360.0625 345.10626Q360.0625 344.54376 359.71875 344.21564Q359.39062 343.8719 358.71875 343.8719Q358.14062 343.8719 357.75 344.16876Q357.35938 344.45 357.35938 344.8719L356.26562 344.8719Q356.26562 344.3875 356.59375 343.95Q356.9375 343.5125 357.51562 343.2625Q358.09375 342.9969 358.78125 342.9969Q359.89062 342.9969 360.5 343.54376Q361.125 344.09064 361.15625 345.04376L361.15625 347.96564Q361.15625 348.84064 361.375 349.35626L361.375 349.45L360.23438 349.45ZM358.4375 348.6219Q358.95312 348.6219 359.40625 348.35626Q359.85938 348.09064 360.0625 347.66876L360.0625 346.3719L359.21875 346.3719Q357.21875 346.3719 357.21875 347.54376Q357.21875 348.04376 357.5625 348.34064Q357.90625 348.6219 358.4375 348.6219ZM364.34375 343.10626L364.375 343.90314Q365.10938 342.9969 366.28125 342.9969Q368.29688 342.9969 368.3125 345.2625L368.3125 349.45L367.21875 349.45L367.21875 345.2469Q367.21875 344.575 366.90625 344.2469Q366.60938 343.91876 365.95312 343.91876Q365.42188 343.91876 365.01562 344.2Q364.625 344.48126 364.40625 344.9344L364.40625 349.45L363.32812 349.45L363.32812 343.10626L364.34375 343.10626ZM372.85938 348.6844Q373.4375 348.6844 373.875 348.34064Q374.3125 347.98126 374.35938 347.45L375.39062 347.45Q375.35938 347.9969 375.0 348.4969Q374.65625 348.98126 374.07812 349.27814Q373.51562 349.575 372.85938 349.575Q371.5625 349.575 370.79688 348.71564Q370.04688 347.84064 370.04688 346.34064L370.04688 346.15314Q370.04688 345.23126 370.375 344.5125Q370.71875 343.79376 371.34375 343.40314Q371.98438 342.9969 372.85938 342.9969Q373.92188 342.9969 374.625 343.6375Q375.34375 344.2625 375.39062 345.29376L374.35938 345.29376Q374.3125 344.66876 373.89062 344.27814Q373.46875 343.8875 372.85938 343.8875Q372.03125 343.8875 371.57812 344.48126Q371.125 345.075 371.125 346.2L371.125 346.40314Q371.125 347.4969 371.57812 348.09064Q372.03125 348.6844 372.85938 348.6844ZM378.95312 349.575Q377.65625 349.575 376.84375 348.73126Q376.04688 347.8719 376.04688 346.45L376.04688 346.2625Q376.04688 345.3094 376.40625 344.575Q376.76562 343.825 377.40625 343.41876Q378.0625 342.9969 378.8125 342.9969Q380.04688 342.9969 380.73438 343.8094Q381.42188 344.6219 381.42188 346.1375L381.42188 346.59064L377.125 346.59064Q377.15625 347.52814 377.67188 348.10626Q378.20312 348.6844 379.01562 348.6844Q379.57812 348.6844 379.96875 348.45Q380.375 348.21564 380.6875 347.825L381.34375 348.34064Q380.54688 349.575 378.95312 349.575ZM378.8125 343.8875Q378.15625 343.8875 377.70312 344.3719Q377.26562 344.84064 377.17188 345.7L380.34375 345.7L380.34375 345.6219Q380.29688 344.79376 379.89062 344.34064Q379.5 343.8875 378.8125 343.8875ZM385.39062 344.075Q385.14062 344.04376 384.85938 344.04376Q383.78125 344.04376 383.40625 344.95L383.40625 349.45L382.32812 349.45L382.32812 343.10626L383.375 343.10626L383.39062 343.84064Q383.92188 342.9969 384.90625 342.9969Q385.21875 342.9969 385.39062 343.075L385.39062 344.075Z" fill-rule="nonzero"/><path fill="#757575" d="M24.39375 31.20625Q21.971874 30.51875 20.878124 29.51875Q19.784374 28.503124 19.784374 27.01875Q19.784374 25.33125 21.128124 24.2375Q22.471874 23.128124 24.6125 23.128124Q26.08125 23.128124 27.221874 23.70625Q28.378124 24.26875 29.003124 25.26875Q29.628124 26.253124 29.628124 27.440624L27.753124 27.440624Q27.753124 26.159374 26.925 25.425Q26.1125 24.675 24.6125 24.675Q23.221874 24.675 22.440624 25.284374Q21.675 25.89375 21.675 26.9875Q21.675 27.846874 22.409374 28.45625Q23.14375 29.05 24.909374 29.55Q26.690624 30.05 27.690624 30.659374Q28.690624 31.253124 29.175 32.05Q29.659374 32.846874 29.659374 33.940624Q29.659374 35.659374 28.315624 36.70625Q26.971874 37.753124 24.70625 37.753124Q23.253124 37.753124 21.971874 37.190624Q20.70625 36.628124 20.01875 35.659374Q19.33125 34.675 19.33125 33.425L21.221874 33.425Q21.221874 34.721874 22.175 35.471874Q23.128124 36.20625 24.70625 36.20625Q26.190624 36.20625 26.9875 35.6125Q27.784374 35.003124 27.784374 33.95625Q27.784374 32.909374 27.05 32.346874Q26.315624 31.76875 24.39375 31.20625ZM36.3 37.753124Q34.159374 37.753124 32.8 36.346874Q31.45625 34.925 31.45625 32.565624L31.45625 32.221874Q31.45625 30.659374 32.05 29.425Q32.659374 28.190624 33.7375 27.4875Q34.815624 26.784374 36.08125 26.784374Q38.14375 26.784374 39.284374 28.14375Q40.425 29.503124 40.425 32.034374L40.425 32.784374L33.26875 32.784374Q33.3 34.346874 34.175 35.315624Q35.05 36.26875 36.39375 36.26875Q37.3625 36.26875 38.01875 35.878124Q38.690624 35.4875 39.190624 34.846874L40.284374 35.70625Q38.95625 37.753124 36.3 37.753124ZM36.08125 28.26875Q34.9875 28.26875 34.2375 29.065624Q33.503124 29.8625 33.33125 31.3L38.6125 31.3L38.6125 31.159374Q38.534374 29.784374 37.8625 29.034374Q37.20625 28.26875 36.08125 28.26875ZM48.01875 28.596874Q47.6125 28.534374 47.14375 28.534374Q45.3625 28.534374 44.721874 30.05L44.721874 37.55L42.925 37.55L42.925 26.9875L44.675 26.9875L44.70625 28.20625Q45.596874 26.784374 47.221874 26.784374Q47.753124 26.784374 48.01875 26.925L48.01875 28.596874ZM53.409374 35.096874L56.01875 26.9875L57.8625 26.9875L54.08125 37.55L52.70625 37.55L48.878124 26.9875L50.721874 26.9875L53.409374 35.096874ZM61.878124 37.55L60.08125 37.55L60.08125 26.9875L61.878124 26.9875L61.878124 37.55ZM59.925 24.175Q59.925 23.7375 60.190624 23.440624Q60.471874 23.128124 60.9875 23.128124Q61.51875 23.128124 61.784374 23.440624Q62.065624 23.7375 62.065624 24.175Q62.065624 24.6125 61.784374 24.909374Q61.51875 25.20625 60.9875 25.20625Q60.471874 25.20625 60.190624 24.909374Q59.925 24.6125 59.925 24.175ZM69.15938 36.26875Q70.12813 36.26875 70.84688 35.690624Q71.56563 35.096874 71.64375 34.221874L73.3625 34.221874Q73.3 35.128124 72.72188 35.95625Q72.15938 36.76875 71.19063 37.26875Q70.2375 37.753124 69.15938 37.753124Q67.00313 37.753124 65.72188 36.315624Q64.45625 34.8625 64.45625 32.3625L64.45625 32.065624Q64.45625 30.51875 65.01875 29.315624Q65.58125 28.1125 66.64375 27.45625Q67.70625 26.784374 69.14375 26.784374Q70.925 26.784374 72.09688 27.846874Q73.28438 28.909374 73.3625 30.6125L71.64375 30.6125Q71.56563 29.596874 70.8625 28.940624Q70.175 28.26875 69.14375 28.26875Q67.76875 28.26875 67.00313 29.26875Q66.25313 30.253124 66.25313 32.128124L66.25313 32.471874Q66.25313 34.3 67.00313 35.284374Q67.75313 36.26875 69.15938 36.26875ZM79.3 37.753124Q77.15938 37.753124 75.8 36.346874Q74.45625 34.925 74.45625 32.565624L74.45625 32.221874Q74.45625 30.659374 75.05 29.425Q75.65938 28.190624 76.7375 27.4875Q77.81563 26.784374 79.08125 26.784374Q81.14375 26.784374 82.28438 28.14375Q83.425 29.503124 83.425 32.034374L83.425 32.784374L76.26875 32.784374Q76.3 34.346874 77.175 35.315624Q78.05 36.26875 79.39375 36.26875Q80.3625 36.26875 81.01875 35.878124Q81.69063 35.4875 82.19063 34.846874L83.28438 35.70625Q81.95625 37.753124 79.3 37.753124ZM79.08125 28.26875Q77.9875 28.26875 77.2375 29.065624Q76.50313 29.8625 76.33125 31.3L81.6125 31.3L81.6125 31.159374Q81.53438 29.784374 80.8625 29.034374Q80.20625 28.26875 79.08125 28.26875ZM94.40938 35.096874L97.01875 26.9875L98.8625 26.9875L95.08125 37.55L93.70625 37.55L89.87813 26.9875L91.72188 26.9875L94.40938 35.096874ZM107.06563 34.753124Q107.06563 34.01875 106.51875 33.6125Q105.97188 33.20625 104.59688 32.909374Q103.22188 32.6125 102.40938 32.20625Q101.6125 31.8 101.22188 31.2375Q100.84688 30.659374 100.84688 29.878124Q100.84688 28.58125 101.94063 27.690624Q103.03438 26.784374 104.75313 26.784374Q106.55 26.784374 107.65938 27.721874Q108.78438 28.64375 108.78438 30.08125L106.95625 30.08125Q106.95625 29.346874 106.33125 28.815624Q105.70625 28.26875 104.75313 28.26875Q103.75313 28.26875 103.19063 28.70625Q102.64375 29.128124 102.64375 29.83125Q102.64375 30.471874 103.15938 30.815624Q103.675 31.14375 105.03438 31.45625Q106.39375 31.753124 107.22188 32.175Q108.06563 32.58125 108.47188 33.175Q108.87813 33.76875 108.87813 34.6125Q108.87813 36.034374 107.7375 36.89375Q106.6125 37.753124 104.8 37.753124Q103.53438 37.753124 102.55 37.3Q101.58125 36.846874 101.01875 36.05Q100.47188 35.2375 100.47188 34.3L102.28438 34.3Q102.33125 35.20625 103.00313 35.7375Q103.69063 36.26875 104.8 36.26875Q105.83125 36.26875 106.44063 35.8625Q107.06563 35.440624 107.06563 34.753124ZM118.08125 36.01875L124.83125 36.01875L124.83125 37.55L116.20625 37.55L116.20625 23.33125L118.08125 23.33125L118.08125 36.01875ZM126.44063 32.175Q126.44063 30.6125 127.05 29.378124Q127.65938 28.128124 128.7375 27.45625Q129.83125 26.784374 131.2375 26.784374Q133.39375 26.784374 134.72188 28.284374Q136.06563 29.76875 136.06563 32.253124L136.06563 32.378124Q136.06563 33.925 135.47188 35.159374Q134.87813 36.378124 133.76875 37.065624Q132.675 37.753124 131.25313 37.753124Q129.1125 37.753124 127.76875 36.253124Q126.44063 34.753124 126.44063 32.3L126.44063 32.175ZM128.25313 32.378124Q128.25313 34.14375 129.06563 35.20625Q129.89375 36.26875 131.25313 36.26875Q132.62813 36.26875 133.44063 35.190624Q134.25313 34.1125 134.25313 32.175Q134.25313 30.425 133.425 29.346874Q132.59688 28.26875 131.2375 28.26875Q129.89375 28.26875 129.06563 29.33125Q128.25313 30.39375 128.25313 32.378124ZM144.44063 37.55Q144.28438 37.2375 144.19063 36.440624Q142.925 37.753124 141.175 37.753124Q139.6125 37.753124 138.6125 36.8625Q137.6125 35.971874 137.6125 34.6125Q137.6125 32.971874 138.8625 32.065624Q140.12813 31.14375 142.39375 31.14375L144.15938 31.14375L144.15938 30.315624Q144.15938 29.3625 143.58125 28.8Q143.01875 28.2375 141.925 28.2375Q140.95625 28.2375 140.3 28.7375Q139.64375 29.221874 139.64375 29.909374L137.83125 29.909374Q137.83125 29.128124 138.39375 28.39375Q138.95625 27.64375 139.90938 27.221874Q140.87813 26.784374 142.03438 26.784374Q143.8625 26.784374 144.89375 27.70625Q145.925 28.6125 145.97188 30.221874L145.97188 35.08125Q145.97188 36.534374 146.33125 37.39375L146.33125 37.55L144.44063 37.55ZM141.44063 36.175Q142.3 36.175 143.05 35.7375Q143.81563 35.3 144.15938 34.596874L144.15938 32.425L142.7375 32.425Q139.425 32.425 139.425 34.3625Q139.425 35.221874 139.9875 35.70625Q140.55 36.175 141.44063 36.175ZM148.47188 32.175Q148.47188 29.753124 149.62813 28.26875Q150.78438 26.784374 152.64375 26.784374Q154.50313 26.784374 155.58125 28.05L155.58125 22.55L157.39375 22.55L157.39375 37.55L155.7375 37.55L155.64375 36.409374Q154.56563 37.753124 152.62813 37.753124Q150.8 37.753124 149.62813 36.253124Q148.47188 34.7375 148.47188 32.315624L148.47188 32.175ZM150.28438 32.378124Q150.28438 34.175 151.01875 35.190624Q151.76875 36.20625 153.08125 36.20625Q154.8 36.20625 155.58125 34.675L155.58125 29.815624Q154.78438 28.315624 153.09688 28.315624Q151.76875 28.315624 151.01875 29.346874Q150.28438 30.378124 150.28438 32.378124ZM165.20625 37.55L165.20625 23.33125L169.84688 23.33125Q172.15938 23.33125 173.33125 24.284374Q174.50313 25.2375 174.50313 27.1125Q174.50313 28.1125 173.925 28.878124Q173.3625 29.64375 172.39375 30.065624Q173.53438 30.39375 174.20625 31.3Q174.87813 32.190624 174.87813 33.440624Q174.87813 35.3625 173.62813 36.45625Q172.39375 37.55 170.12813 37.55L165.20625 37.55ZM167.08125 30.89375L167.08125 36.01875L170.175 36.01875Q171.4875 36.01875 172.2375 35.346874Q172.9875 34.659374 172.9875 33.471874Q172.9875 30.89375 170.20625 30.89375L167.08125 30.89375ZM167.08125 29.39375L169.90938 29.39375Q171.14375 29.39375 171.87813 28.784374Q172.6125 28.159374 172.6125 27.1125Q172.6125 25.940624 171.925 25.409374Q171.25313 24.878124 169.84688 24.878124L167.08125 24.878124L167.08125 29.39375ZM183.44063 37.55Q183.28438 37.2375 183.19063 36.440624Q181.925 37.753124 180.175 37.753124Q178.6125 37.753124 177.6125 36.8625Q176.6125 35.971874 176.6125 34.6125Q176.6125 32.971874 177.8625 32.065624Q179.12813 31.14375 181.39375 31.14375L183.15938 31.14375L183.15938 30.315624Q183.15938 29.3625 182.58125 28.8Q182.01875 28.2375 180.925 28.2375Q179.95625 28.2375 179.3 28.7375Q178.64375 29.221874 178.64375 29.909374L176.83125 29.909374Q176.83125 29.128124 177.39375 28.39375Q177.95625 27.64375 178.90938 27.221874Q179.87813 26.784374 181.03438 26.784374Q182.8625 26.784374 183.89375 27.70625Q184.925 28.6125 184.97188 30.221874L184.97188 35.08125Q184.97188 36.534374 185.33125 37.39375L185.33125 37.55L183.44063 37.55ZM180.44063 36.175Q181.3 36.175 182.05 35.7375Q182.81563 35.3 183.15938 34.596874L183.15938 32.425L181.7375 32.425Q178.425 32.425 178.425 34.3625Q178.425 35.221874 178.9875 35.70625Q179.55 36.175 180.44063 36.175ZM189.87813 37.55L188.08125 37.55L188.08125 22.55L189.87813 22.55L189.87813 37.55ZM199.44063 37.55Q199.28438 37.2375 199.19063 36.440624Q197.925 37.753124 196.175 37.753124Q194.6125 37.753124 193.6125 36.8625Q192.6125 35.971874 192.6125 34.6125Q192.6125 32.971874 193.8625 32.065624Q195.12813 31.14375 197.39375 31.14375L199.15938 31.14375L199.15938 30.315624Q199.15938 29.3625 198.58125 28.8Q198.01875 28.2375 196.925 28.2375Q195.95625 28.2375 195.3 28.7375Q194.64375 29.221874 194.64375 29.909374L192.83125 29.909374Q192.83125 29.128124 193.39375 28.39375Q193.95625 27.64375 194.90938 27.221874Q195.87813 26.784374 197.03438 26.784374Q198.8625 26.784374 199.89375 27.70625Q200.925 28.6125 200.97188 30.221874L200.97188 35.08125Q200.97188 36.534374 201.33125 37.39375L201.33125 37.55L199.44063 37.55ZM196.44063 36.175Q197.3 36.175 198.05 35.7375Q198.81563 35.3 199.15938 34.596874L199.15938 32.425L197.7375 32.425Q194.425 32.425 194.425 34.3625Q194.425 35.221874 194.9875 35.70625Q195.55 36.175 196.44063 36.175ZM205.62813 26.9875L205.69063 28.315624Q206.89375 26.784374 208.84688 26.784374Q212.20625 26.784374 212.22188 30.565624L212.22188 37.55L210.425 37.55L210.425 30.55Q210.40938 29.409374 209.89375 28.8625Q209.39375 28.315624 208.3 28.315624Q207.425 28.315624 206.75313 28.784374Q206.09688 29.253124 205.72188 30.01875L205.72188 37.55L203.925 37.55L203.925 26.9875L205.62813 26.9875ZM219.15938 36.26875Q220.12813 36.26875 220.84688 35.690624Q221.56563 35.096874 221.64375 34.221874L223.3625 34.221874Q223.3 35.128124 222.72188 35.95625Q222.15938 36.76875 221.19063 37.26875Q220.2375 37.753124 219.15938 37.753124Q217.00313 37.753124 215.72188 36.315624Q214.45625 34.8625 214.45625 32.3625L214.45625 32.065624Q214.45625 30.51875 215.01875 29.315624Q215.58125 28.1125 216.64375 27.45625Q217.70625 26.784374 219.14375 26.784374Q220.925 26.784374 222.09688 27.846874Q223.28438 28.909374 223.3625 30.6125L221.64375 30.6125Q221.56563 29.596874 220.8625 28.940624Q220.175 28.26875 219.14375 28.26875Q217.76875 28.26875 217.00313 29.26875Q216.25313 30.253124 216.25313 32.128124L216.25313 32.471874Q216.25313 34.3 217.00313 35.284374Q217.75313 36.26875 219.15938 36.26875ZM229.3 37.753124Q227.15938 37.753124 225.8 36.346874Q224.45625 34.925 224.45625 32.565624L224.45625 32.221874Q224.45625 30.659374 225.05 29.425Q225.65938 28.190624 226.7375 27.4875Q227.81563 26.784374 229.08125 26.784374Q231.14375 26.784374 232.28438 28.14375Q233.425 29.503124 233.425 32.034374L233.425 32.784374L226.26875 32.784374Q226.3 34.346874 227.175 35.315624Q228.05 36.26875 229.39375 36.26875Q230.3625 36.26875 231.01875 35.878124Q231.69063 35.4875 232.19063 34.846874L233.28438 35.70625Q231.95625 37.753124 229.3 37.753124ZM229.08125 28.26875Q227.9875 28.26875 227.2375 29.065624Q226.50313 29.8625 226.33125 31.3L231.6125 31.3L231.6125 31.159374Q231.53438 29.784374 230.8625 29.034374Q230.20625 28.26875 229.08125 28.26875ZM241.01875 28.596874Q240.6125 28.534374 240.14375 28.534374Q238.3625 28.534374 237.72188 30.05L237.72188 37.55L235.925 37.55L235.925 26.9875L237.675 26.9875L237.70625 28.20625Q238.59688 26.784374 240.22188 26.784374Q240.75313 26.784374 241.01875 26.925L241.01875 28.596874ZM251.675 32.253124L246.90938 32.253124L246.90938 30.76875L251.675 30.76875L251.675 32.253124ZM261.08124 36.01875L267.83124 36.01875L267.83124 37.55L259.20624 37.55L259.20624 23.33125L261.08124 23.33125L261.08124 36.01875ZM276.4406 37.55Q276.28436 37.2375 276.1906 36.440624Q274.925 37.753124 273.175 37.753124Q271.6125 37.753124 270.6125 36.8625Q269.6125 35.971874 269.6125 34.6125Q269.6125 32.971874 270.8625 32.065624Q272.1281 31.14375 274.39374 31.14375L276.15936 31.14375L276.15936 30.315624Q276.15936 29.3625 275.58124 28.8Q275.01874 28.2375 273.925 28.2375Q272.95624 28.2375 272.3 28.7375Q271.64374 29.221874 271.64374 29.909374L269.83124 29.909374Q269.83124 29.128124 270.39374 28.39375Q270.95624 27.64375 271.90936 27.221874Q272.8781 26.784374 274.03436 26.784374Q275.8625 26.784374 276.89374 27.70625Q277.925 28.6125 277.97186 30.221874L277.97186 35.08125Q277.97186 36.534374 278.33124 37.39375L278.33124 37.55L276.4406 37.55ZM273.4406 36.175Q274.3 36.175 275.05 35.7375Q275.8156 35.3 276.15936 34.596874L276.15936 32.425L274.7375 32.425Q271.425 32.425 271.425 34.3625Q271.425 35.221874 271.9875 35.70625Q272.55 36.175 273.4406 36.175ZM283.3625 24.425L283.3625 26.9875L285.34686 26.9875L285.34686 28.378124L283.3625 28.378124L283.3625 34.925Q283.3625 35.565624 283.6281 35.89375Q283.89374 36.20625 284.53436 36.20625Q284.84686 36.20625 285.39374 36.08125L285.39374 37.55Q284.675 37.753124 284.0031 37.753124Q282.8 37.753124 282.175 37.01875Q281.5656 36.284374 281.5656 34.925L281.5656 28.378124L279.64374 28.378124L279.64374 26.9875L281.5656 26.9875L281.5656 24.425L283.3625 24.425ZM292.3 37.753124Q290.15936 37.753124 288.8 36.346874Q287.45624 34.925 287.45624 32.565624L287.45624 32.221874Q287.45624 30.659374 288.05 29.425Q288.65936 28.190624 289.7375 27.4875Q290.8156 26.784374 292.08124 26.784374Q294.14374 26.784374 295.28436 28.14375Q296.425 29.503124 296.425 32.034374L296.425 32.784374L289.26874 32.784374Q289.3 34.346874 290.175 35.315624Q291.05 36.26875 292.39374 36.26875Q293.3625 36.26875 294.01874 35.878124Q294.6906 35.4875 295.1906 34.846874L296.28436 35.70625Q294.95624 37.753124 292.3 37.753124ZM292.08124 28.26875Q290.9875 28.26875 290.2375 29.065624Q289.5031 29.8625 289.33124 31.3L294.6125 31.3L294.6125 31.159374Q294.53436 29.784374 293.8625 29.034374Q293.20624 28.26875 292.08124 28.26875ZM300.6281 26.9875L300.6906 28.315624Q301.89374 26.784374 303.84686 26.784374Q307.20624 26.784374 307.22186 30.565624L307.22186 37.55L305.425 37.55L305.425 30.55Q305.40936 29.409374 304.89374 28.8625Q304.39374 28.315624 303.3 28.315624Q302.425 28.315624 301.7531 28.784374Q301.09686 29.253124 300.72186 30.01875L300.72186 37.55L298.925 37.55L298.925 26.9875L300.6281 26.9875ZM314.15936 36.26875Q315.1281 36.26875 315.84686 35.690624Q316.5656 35.096874 316.64374 34.221874L318.3625 34.221874Q318.3 35.128124 317.72186 35.95625Q317.15936 36.76875 316.1906 37.26875Q315.2375 37.753124 314.15936 37.753124Q312.0031 37.753124 310.72186 36.315624Q309.45624 34.8625 309.45624 32.3625L309.45624 32.065624Q309.45624 30.51875 310.01874 29.315624Q310.58124 28.1125 311.64374 27.45625Q312.70624 26.784374 314.14374 26.784374Q315.925 26.784374 317.09686 27.846874Q318.28436 28.909374 318.3625 30.6125L316.64374 30.6125Q316.5656 29.596874 315.8625 28.940624Q315.175 28.26875 314.14374 28.26875Q312.76874 28.26875 312.0031 29.26875Q311.2531 30.253124 311.2531 32.128124L311.2531 32.471874Q311.2531 34.3 312.0031 35.284374Q312.7531 36.26875 314.15936 36.26875ZM323.3781 34.909374L325.83124 26.9875L327.76874 26.9875L323.51874 39.175Q322.53436 41.815624 320.39374 41.815624L320.05 41.784374L319.3781 41.659374L319.3781 40.190624L319.8625 40.2375Q320.78436 40.2375 321.28436 39.8625Q321.8 39.4875 322.1281 38.503124L322.53436 37.425L318.76874 26.9875L320.7375 26.9875L323.3781 34.909374Z" fill-rule="nonzero"/></svg>