<svg version="1.1" viewBox="0.0 0.0 600.0 371.0" fill="none" stroke="none" stroke-linecap="square" stroke-miterlimit="10" width="600" height="371" xmlns:xlink="http://www.w3.org/1999/xlink" xmlns="http://www.w3.org/2000/svg"><path fill="#ffffff" d="M0 0L600.0 0L600.0 371.0L0 371.0L0 0Z" fill-rule="nonzero"/><path stroke="#333333" stroke-width="1.0" stroke-linecap="butt" d="M83.5 304.5L581.5 304.5" fill-rule="nonzero"/><path stroke="#cccccc" stroke-width="1.0" stroke-linecap="butt" d="M83.5 255.5L581.5 255.5" fill-rule="nonzero"/><path stroke="#cccccc" stroke-width="1.0" stroke-linecap="butt" d="M83.5 207.5L581.5 207.5" fill-rule="nonzero"/><path stroke="#cccccc" stroke-width="1.0" stroke-linecap="butt" d="M83.5 159.5L581.5 159.5" fill-rule="nonzero"/><path stroke="#cccccc" stroke-width="1.0" stroke-linecap="butt" d="M83.5 110.5L581.5 110.5" fill-rule="nonzero"/><path stroke="#cccccc" stroke-width="1.0" stroke-linecap="butt" d="M83.5 62.5L581.5 62.5" fill-rule="nonzero"/><clipPath id="id_0"><path d="M83.55 62.416668L581.45 62.416668L581.45 304.08334L83.55 304.08334L83.55 62.416668Z" clip-rule="nonzero"/></clipPath><path stroke="#000000" stroke-width="0.0" stroke-linecap="butt" stroke-opacity="0.0" clip-path="url(#id_0)" d="M135.0 304.0L111.0 304.0L111.0 166.0C111.0 164.89543 111.89543 164.0 113.0 164.0L133.0 164.0C134.10457 164.0 135.0 164.89543 135.0 166.0Z" fill-rule="nonzero"/><path fill="#4285f4" clip-path="url(#id_0)" d="M135.0 304.0L111.0 304.0L111.0 166.0C111.0 164.89543 111.89543 164.0 113.0 164.0L133.0 164.0C134.10457 164.0 135.0 164.89543 135.0 166.0Z" fill-rule="nonzero"/><path stroke="#000000" stroke-width="0.0" stroke-linecap="butt" stroke-opacity="0.0" clip-path="url(#id_0)" d="M214.0 304.0L190.0 304.0L190.0 102.0C190.0 100.89543 190.89543 100.0 192.0 100.0L212.0 100.0C213.10457 100.0 214.0 100.89543 214.0 102.0Z" fill-rule="nonzero"/><path fill="#4285f4" clip-path="url(#id_0)" d="M214.0 304.0L190.0 304.0L190.0 102.0C190.0 100.89543 190.89543 100.0 192.0 100.0L212.0 100.0C213.10457 100.0 214.0 100.89543 214.0 102.0Z" fill-rule="nonzero"/><path stroke="#000000" stroke-width="0.0" stroke-linecap="butt" stroke-opacity="0.0" clip-path="url(#id_0)" d="M292.0 304.0L268.0 304.0L268.0 76.0C268.0 74.89543 268.89542 74.0 270.0 74.0L290.0 74.0C291.10458 74.0 292.0 74.89543 292.0 76.0Z" fill-rule="nonzero"/><path fill="#4285f4" clip-path="url(#id_0)" d="M292.0 304.0L268.0 304.0L268.0 76.0C268.0 74.89543 268.89542 74.0 270.0 74.0L290.0 74.0C291.10458 74.0 292.0 74.89543 292.0 76.0Z" fill-rule="nonzero"/><path stroke="#000000" stroke-width="0.0" stroke-linecap="butt" stroke-opacity="0.0" clip-path="url(#id_0)" d="M371.0 304.0L347.0 304.0L347.0 72.0C347.0 70.89543 347.89542 70.0 349.0 70.0L369.0 70.0C370.10458 70.0 371.0 70.89543 371.0 72.0Z" fill-rule="nonzero"/><path fill="#4285f4" clip-path="url(#id_0)" d="M371.0 304.0L347.0 304.0L347.0 72.0C347.0 70.89543 347.89542 70.0 349.0 70.0L369.0 70.0C370.10458 70.0 371.0 70.89543 371.0 72.0Z" fill-rule="nonzero"/><path stroke="#000000" stroke-width="0.0" stroke-linecap="butt" stroke-opacity="0.0" clip-path="url(#id_0)" d="M449.0 304.0L425.0 304.0L425.0 70.0C425.0 68.89543 425.89542 68.0 427.0 68.0L447.0 68.0C448.10458 68.0 449.0 68.89543 449.0 70.0Z" fill-rule="nonzero"/><path fill="#4285f4" clip-path="url(#id_0)" d="M449.0 304.0L425.0 304.0L425.0 70.0C425.0 68.89543 425.89542 68.0 427.0 68.0L447.0 68.0C448.10458 68.0 449.0 68.89543 449.0 70.0Z" fill-rule="nonzero"/><path stroke="#000000" stroke-width="0.0" stroke-linecap="butt" stroke-opacity="0.0" clip-path="url(#id_0)" d="M528.0 304.0L504.0 304.0L504.0 69.0C504.0 67.89543 504.89542 67.0 506.0 67.0L526.0 67.0C527.10455 67.0 528.0 67.89543 528.0 69.0Z" fill-rule="nonzero"/><path fill="#4285f4" clip-path="url(#id_0)" d="M528.0 304.0L504.0 304.0L504.0 69.0C504.0 67.89543 504.89542 67.0 506.0 67.0L526.0 67.0C527.10455 67.0 528.0 67.89543 528.0 69.0Z" fill-rule="nonzero"/><path stroke="#000000" stroke-width="0.0" stroke-linecap="butt" stroke-opacity="0.0" clip-path="url(#id_0)" d="M160.0 304.0L136.0 304.0L136.0 182.0C136.0 180.89543 136.89543 180.0 138.0 180.0L158.0 180.0C159.10457 180.0 160.0 180.89543 160.0 182.0Z" fill-rule="nonzero"/><path fill="#db4437" clip-path="url(#id_0)" d="M160.0 304.0L136.0 304.0L136.0 182.0C136.0 180.89543 136.89543 180.0 138.0 180.0L158.0 180.0C159.10457 180.0 160.0 180.89543 160.0 182.0Z" fill-rule="nonzero"/><path stroke="#000000" stroke-width="0.0" stroke-linecap="butt" stroke-opacity="0.0" clip-path="url(#id_0)" d="M239.0 304.0L215.0 304.0L215.0 129.0C215.0 127.89543 215.89543 127.0 217.0 127.0L237.0 127.0C238.10457 127.0 239.0 127.89543 239.0 129.0Z" fill-rule="nonzero"/><path fill="#db4437" clip-path="url(#id_0)" d="M239.0 304.0L215.0 304.0L215.0 129.0C215.0 127.89543 215.89543 127.0 217.0 127.0L237.0 127.0C238.10457 127.0 239.0 127.89543 239.0 129.0Z" fill-rule="nonzero"/><path stroke="#000000" stroke-width="0.0" stroke-linecap="butt" stroke-opacity="0.0" clip-path="url(#id_0)" d="M317.0 304.0L293.0 304.0L293.0 102.0C293.0 100.89543 293.89542 100.0 295.0 100.0L315.0 100.0C316.10458 100.0 317.0 100.89543 317.0 102.0Z" fill-rule="nonzero"/><path fill="#db4437" clip-path="url(#id_0)" d="M317.0 304.0L293.0 304.0L293.0 102.0C293.0 100.89543 293.89542 100.0 295.0 100.0L315.0 100.0C316.10458 100.0 317.0 100.89543 317.0 102.0Z" fill-rule="nonzero"/><path stroke="#000000" stroke-width="0.0" stroke-linecap="butt" stroke-opacity="0.0" clip-path="url(#id_0)" d="M396.0 304.0L372.0 304.0L372.0 94.0C372.0 92.89543 372.89542 92.0 374.0 92.0L394.0 92.0C395.10458 92.0 396.0 92.89543 396.0 94.0Z" fill-rule="nonzero"/><path fill="#db4437" clip-path="url(#id_0)" d="M396.0 304.0L372.0 304.0L372.0 94.0C372.0 92.89543 372.89542 92.0 374.0 92.0L394.0 92.0C395.10458 92.0 396.0 92.89543 396.0 94.0Z" fill-rule="nonzero"/><path stroke="#000000" stroke-width="0.0" stroke-linecap="butt" stroke-opacity="0.0" clip-path="url(#id_0)" d="M474.0 304.0L450.0 304.0L450.0 93.0C450.0 91.89543 450.89542 91.0 452.0 91.0L472.0 91.0C473.10458 91.0 474.0 91.89543 474.0 93.0Z" fill-rule="nonzero"/><path fill="#db4437" clip-path="url(#id_0)" d="M474.0 304.0L450.0 304.0L450.0 93.0C450.0 91.89543 450.89542 91.0 452.0 91.0L472.0 91.0C473.10458 91.0 474.0 91.89543 474.0 93.0Z" fill-rule="nonzero"/><path stroke="#000000" stroke-width="0.0" stroke-linecap="butt" stroke-opacity="0.0" clip-path="url(#id_0)" d="M553.0 304.0L529.0 304.0L529.0 90.0C529.0 88.89543 529.89545 88.0 531.0 88.0L551.0 88.0C552.10455 88.0 553.0 88.89543 553.0 90.0Z" fill-rule="nonzero"/><path fill="#db4437" clip-path="url(#id_0)" d="M553.0 304.0L529.0 304.0L529.0 90.0C529.0 88.89543 529.89545 88.0 531.0 88.0L551.0 88.0C552.10455 88.0 553.0 88.89543 553.0 90.0Z" fill-rule="nonzero"/><path fill="#757575" d="M59.6125 304.94272Q59.6125 306.84897 58.95625 307.78647Q58.315624 308.70834 56.925 308.70834Q55.565624 308.70834 54.909374 307.8021Q54.253124 306.89584 54.221874 305.08334L54.221874 303.64584Q54.221874 301.75522 54.8625 300.84897Q55.51875 299.9271 56.909374 299.9271Q58.284374 299.9271 58.940624 300.81772Q59.596874 301.69272 59.6125 303.53647L59.6125 304.94272ZM58.51875 303.45834Q58.51875 302.08334 58.128124 301.45834Q57.753124 300.81772 56.909374 300.81772Q56.08125 300.81772 55.690624 301.45834Q55.315624 302.08334 55.315624 303.38022L55.315624 305.1146Q55.315624 306.4896 55.70625 307.16147Q56.1125 307.81772 56.925 307.81772Q57.721874 307.81772 58.1125 307.19272Q58.503124 306.56772 58.51875 305.2396L58.51875 303.45834ZM61.39375 308.02084Q61.39375 307.7396 61.55 307.5521Q61.721874 307.3646 62.05 307.3646Q62.39375 307.3646 62.565624 307.5521Q62.7375 307.7396 62.7375 308.02084Q62.7375 308.28647 62.565624 308.47397Q62.39375 308.64584 62.05 308.64584Q61.721874 308.64584 61.55 308.47397Q61.39375 308.28647 61.39375 308.02084ZM69.6125 304.94272Q69.6125 306.84897 68.95625 307.78647Q68.31563 308.70834 66.925 308.70834Q65.56563 308.70834 64.90938 307.8021Q64.25313 306.89584 64.22188 305.08334L64.22188 303.64584Q64.22188 301.75522 64.8625 300.84897Q65.51875 299.9271 66.90938 299.9271Q68.28438 299.9271 68.94063 300.81772Q69.59688 301.69272 69.6125 303.53647L69.6125 304.94272ZM68.51875 303.45834Q68.51875 302.08334 68.12813 301.45834Q67.75313 300.81772 66.90938 300.81772Q66.08125 300.81772 65.69063 301.45834Q65.31563 302.08334 65.31563 303.38022L65.31563 305.1146Q65.31563 306.4896 65.70625 307.16147Q66.1125 307.81772 66.925 307.81772Q67.72188 307.81772 68.1125 307.19272Q68.50313 306.56772 68.51875 305.2396L68.51875 303.45834ZM76.6125 304.94272Q76.6125 306.84897 75.95625 307.78647Q75.31563 308.70834 73.925 308.70834Q72.56563 308.70834 71.90938 307.8021Q71.25313 306.89584 71.22188 305.08334L71.22188 303.64584Q71.22188 301.75522 71.8625 300.84897Q72.51875 299.9271 73.90938 299.9271Q75.28438 299.9271 75.94063 300.81772Q76.59688 301.69272 76.6125 303.53647L76.6125 304.94272ZM75.51875 303.45834Q75.51875 302.08334 75.12813 301.45834Q74.75313 300.81772 73.90938 300.81772Q73.08125 300.81772 72.69063 301.45834Q72.31563 302.08334 72.31563 303.38022L72.31563 305.1146Q72.31563 306.4896 72.70625 307.16147Q73.1125 307.81772 73.925 307.81772Q74.72188 307.81772 75.1125 307.19272Q75.50313 306.56772 75.51875 305.2396L75.51875 303.45834Z" fill-rule="nonzero"/><path fill="#757575" d="M22.815624 260.25L21.7375 260.25L21.7375 253.03125L19.55 253.82812L19.55 252.84375L22.659374 251.67188L22.815624 251.67188L22.815624 260.25ZM31.6125 256.60938Q31.6125 258.51562 30.95625 259.45312Q30.315624 260.375 28.925 260.375Q27.565624 260.375 26.909374 259.46875Q26.253124 258.5625 26.221874 256.75L26.221874 255.3125Q26.221874 253.42188 26.8625 252.51562Q27.51875 251.59375 28.909374 251.59375Q30.284374 251.59375 30.940624 252.48438Q31.596874 253.35938 31.6125 255.20312L31.6125 256.60938ZM30.51875 255.125Q30.51875 253.75 30.128124 253.125Q29.753124 252.48438 28.909374 252.48438Q28.08125 252.48438 27.690624 253.125Q27.315624 253.75 27.315624 255.04688L27.315624 256.78125Q27.315624 258.15625 27.70625 258.82812Q28.1125 259.48438 28.925 259.48438Q29.721874 259.48438 30.1125 258.85938Q30.503124 258.23438 30.51875 256.90625L30.51875 255.125ZM38.6125 256.60938Q38.6125 258.51562 37.95625 259.45312Q37.315624 260.375 35.925 260.375Q34.565624 260.375 33.909374 259.46875Q33.253124 258.5625 33.221874 256.75L33.221874 255.3125Q33.221874 253.42188 33.8625 252.51562Q34.51875 251.59375 35.909374 251.59375Q37.284374 251.59375 37.940624 252.48438Q38.596874 253.35938 38.6125 255.20312L38.6125 256.60938ZM37.51875 255.125Q37.51875 253.75 37.128124 253.125Q36.753124 252.48438 35.909374 252.48438Q35.08125 252.48438 34.690624 253.125Q34.315624 253.75 34.315624 255.04688L34.315624 256.78125Q34.315624 258.15625 34.70625 258.82812Q35.1125 259.48438 35.925 259.48438Q36.721874 259.48438 37.1125 258.85938Q37.503124 258.23438 37.51875 256.90625L37.51875 255.125ZM45.6125 256.60938Q45.6125 258.51562 44.95625 259.45312Q44.315624 260.375 42.925 260.375Q41.565624 260.375 40.909374 259.46875Q40.253124 258.5625 40.221874 256.75L40.221874 255.3125Q40.221874 253.42188 40.8625 252.51562Q41.51875 251.59375 42.909374 251.59375Q44.284374 251.59375 44.940624 252.48438Q45.596874 253.35938 45.6125 255.20312L45.6125 256.60938ZM44.51875 255.125Q44.51875 253.75 44.128124 253.125Q43.753124 252.48438 42.909374 252.48438Q42.08125 252.48438 41.690624 253.125Q41.315624 253.75 41.315624 255.04688L41.315624 256.78125Q41.315624 258.15625 41.70625 258.82812Q42.1125 259.48438 42.925 259.48438Q43.721874 259.48438 44.1125 258.85938Q44.503124 258.23438 44.51875 256.90625L44.51875 255.125ZM52.6125 256.60938Q52.6125 258.51562 51.95625 259.45312Q51.315624 260.375 49.925 260.375Q48.565624 260.375 47.909374 259.46875Q47.253124 258.5625 47.221874 256.75L47.221874 255.3125Q47.221874 253.42188 47.8625 252.51562Q48.51875 251.59375 49.909374 251.59375Q51.284374 251.59375 51.940624 252.48438Q52.596874 253.35938 52.6125 255.20312L52.6125 256.60938ZM51.51875 255.125Q51.51875 253.75 51.128124 253.125Q50.753124 252.48438 49.909374 252.48438Q49.08125 252.48438 48.690624 253.125Q48.315624 253.75 48.315624 255.04688L48.315624 256.78125Q48.315624 258.15625 48.70625 258.82812Q49.1125 259.48438 49.925 259.48438Q50.721874 259.48438 51.1125 258.85938Q51.503124 258.23438 51.51875 256.90625L51.51875 255.125ZM59.6125 256.60938Q59.6125 258.51562 58.95625 259.45312Q58.315624 260.375 56.925 260.375Q55.565624 260.375 54.909374 259.46875Q54.253124 258.5625 54.221874 256.75L54.221874 255.3125Q54.221874 253.42188 54.8625 252.51562Q55.51875 251.59375 56.909374 251.59375Q58.284374 251.59375 58.940624 252.48438Q59.596874 253.35938 59.6125 255.20312L59.6125 256.60938ZM58.51875 255.125Q58.51875 253.75 58.128124 253.125Q57.753124 252.48438 56.909374 252.48438Q56.08125 252.48438 55.690624 253.125Q55.315624 253.75 55.315624 255.04688L55.315624 256.78125Q55.315624 258.15625 55.70625 258.82812Q56.1125 259.48438 56.925 259.48438Q57.721874 259.48438 58.1125 258.85938Q58.503124 258.23438 58.51875 256.90625L58.51875 255.125ZM61.39375 259.6875Q61.39375 259.40625 61.55 259.21875Q61.721874 259.03125 62.05 259.03125Q62.39375 259.03125 62.565624 259.21875Q62.7375 259.40625 62.7375 259.6875Q62.7375 259.95312 62.565624 260.14062Q62.39375 260.3125 62.05 260.3125Q61.721874 260.3125 61.55 260.14062Q61.39375 259.95312 61.39375 259.6875ZM69.6125 256.60938Q69.6125 258.51562 68.95625 259.45312Q68.31563 260.375 66.925 260.375Q65.56563 260.375 64.90938 259.46875Q64.25313 258.5625 64.22188 256.75L64.22188 255.3125Q64.22188 253.42188 64.8625 252.51562Q65.51875 251.59375 66.90938 251.59375Q68.28438 251.59375 68.94063 252.48438Q69.59688 253.35938 69.6125 255.20312L69.6125 256.60938ZM68.51875 255.125Q68.51875 253.75 68.12813 253.125Q67.75313 252.48438 66.90938 252.48438Q66.08125 252.48438 65.69063 253.125Q65.31563 253.75 65.31563 255.04688L65.31563 256.78125Q65.31563 258.15625 65.70625 258.82812Q66.1125 259.48438 66.925 259.48438Q67.72188 259.48438 68.1125 258.85938Q68.50313 258.23438 68.51875 256.90625L68.51875 255.125ZM76.6125 256.60938Q76.6125 258.51562 75.95625 259.45312Q75.31563 260.375 73.925 260.375Q72.56563 260.375 71.90938 259.46875Q71.25313 258.5625 71.22188 256.75L71.22188 255.3125Q71.22188 253.42188 71.8625 252.51562Q72.51875 251.59375 73.90938 251.59375Q75.28438 251.59375 75.94063 252.48438Q76.59688 253.35938 76.6125 255.20312L76.6125 256.60938ZM75.51875 255.125Q75.51875 253.75 75.12813 253.125Q74.75313 252.48438 73.90938 252.48438Q73.08125 252.48438 72.69063 253.125Q72.31563 253.75 72.31563 255.04688L72.31563 256.78125Q72.31563 258.15625 72.70625 258.82812Q73.1125 259.48438 73.925 259.48438Q74.72188 259.48438 75.1125 258.85938Q75.50313 258.23438 75.51875 256.90625L75.51875 255.125Z" fill-rule="nonzero"/><path fill="#757575" d="M24.846874 211.91667L19.253124 211.91667L19.253124 211.13542L22.20625 207.85417Q22.8625 207.10417 23.1125 206.65105Q23.3625 206.1823 23.3625 205.6823Q23.3625 205.01042 22.95625 204.58855Q22.565624 204.15105 21.878124 204.15105Q21.08125 204.15105 20.628124 204.6198Q20.175 205.07292 20.175 205.90105L19.096874 205.90105Q19.096874 204.71355 19.846874 203.9948Q20.6125 203.26042 21.878124 203.26042Q23.08125 203.26042 23.76875 203.88542Q24.45625 204.51042 24.45625 205.5573Q24.45625 206.8073 22.846874 208.5573L20.565624 211.02605L24.846874 211.02605L24.846874 211.91667ZM31.6125 208.27605Q31.6125 210.1823 30.95625 211.1198Q30.315624 212.04167 28.925 212.04167Q27.565624 212.04167 26.909374 211.13542Q26.253124 210.22917 26.221874 208.41667L26.221874 206.97917Q26.221874 205.08855 26.8625 204.1823Q27.51875 203.26042 28.909374 203.26042Q30.284374 203.26042 30.940624 204.15105Q31.596874 205.02605 31.6125 206.8698L31.6125 208.27605ZM30.51875 206.79167Q30.51875 205.41667 30.128124 204.79167Q29.753124 204.15105 28.909374 204.15105Q28.08125 204.15105 27.690624 204.79167Q27.315624 205.41667 27.315624 206.71355L27.315624 208.44792Q27.315624 209.82292 27.70625 210.4948Q28.1125 211.15105 28.925 211.15105Q29.721874 211.15105 30.1125 210.52605Q30.503124 209.90105 30.51875 208.57292L30.51875 206.79167ZM38.6125 208.27605Q38.6125 210.1823 37.95625 211.1198Q37.315624 212.04167 35.925 212.04167Q34.565624 212.04167 33.909374 211.13542Q33.253124 210.22917 33.221874 208.41667L33.221874 206.97917Q33.221874 205.08855 33.8625 204.1823Q34.51875 203.26042 35.909374 203.26042Q37.284374 203.26042 37.940624 204.15105Q38.596874 205.02605 38.6125 206.8698L38.6125 208.27605ZM37.51875 206.79167Q37.51875 205.41667 37.128124 204.79167Q36.753124 204.15105 35.909374 204.15105Q35.08125 204.15105 34.690624 204.79167Q34.315624 205.41667 34.315624 206.71355L34.315624 208.44792Q34.315624 209.82292 34.70625 210.4948Q35.1125 211.15105 35.925 211.15105Q36.721874 211.15105 37.1125 210.52605Q37.503124 209.90105 37.51875 208.57292L37.51875 206.79167ZM45.6125 208.27605Q45.6125 210.1823 44.95625 211.1198Q44.315624 212.04167 42.925 212.04167Q41.565624 212.04167 40.909374 211.13542Q40.253124 210.22917 40.221874 208.41667L40.221874 206.97917Q40.221874 205.08855 40.8625 204.1823Q41.51875 203.26042 42.909374 203.26042Q44.284374 203.26042 44.940624 204.15105Q45.596874 205.02605 45.6125 206.8698L45.6125 208.27605ZM44.51875 206.79167Q44.51875 205.41667 44.128124 204.79167Q43.753124 204.15105 42.909374 204.15105Q42.08125 204.15105 41.690624 204.79167Q41.315624 205.41667 41.315624 206.71355L41.315624 208.44792Q41.315624 209.82292 41.70625 210.4948Q42.1125 211.15105 42.925 211.15105Q43.721874 211.15105 44.1125 210.52605Q44.503124 209.90105 44.51875 208.57292L44.51875 206.79167ZM52.6125 208.27605Q52.6125 210.1823 51.95625 211.1198Q51.315624 212.04167 49.925 212.04167Q48.565624 212.04167 47.909374 211.13542Q47.253124 210.22917 47.221874 208.41667L47.221874 206.97917Q47.221874 205.08855 47.8625 204.1823Q48.51875 203.26042 49.909374 203.26042Q51.284374 203.26042 51.940624 204.15105Q52.596874 205.02605 52.6125 206.8698L52.6125 208.27605ZM51.51875 206.79167Q51.51875 205.41667 51.128124 204.79167Q50.753124 204.15105 49.909374 204.15105Q49.08125 204.15105 48.690624 204.79167Q48.315624 205.41667 48.315624 206.71355L48.315624 208.44792Q48.315624 209.82292 48.70625 210.4948Q49.1125 211.15105 49.925 211.15105Q50.721874 211.15105 51.1125 210.52605Q51.503124 209.90105 51.51875 208.57292L51.51875 206.79167ZM59.6125 208.27605Q59.6125 210.1823 58.95625 211.1198Q58.315624 212.04167 56.925 212.04167Q55.565624 212.04167 54.909374 211.13542Q54.253124 210.22917 54.221874 208.41667L54.221874 206.97917Q54.221874 205.08855 54.8625 204.1823Q55.51875 203.26042 56.909374 203.26042Q58.284374 203.26042 58.940624 204.15105Q59.596874 205.02605 59.6125 206.8698L59.6125 208.27605ZM58.51875 206.79167Q58.51875 205.41667 58.128124 204.79167Q57.753124 204.15105 56.909374 204.15105Q56.08125 204.15105 55.690624 204.79167Q55.315624 205.41667 55.315624 206.71355L55.315624 208.44792Q55.315624 209.82292 55.70625 210.4948Q56.1125 211.15105 56.925 211.15105Q57.721874 211.15105 58.1125 210.52605Q58.503124 209.90105 58.51875 208.57292L58.51875 206.79167ZM61.39375 211.35417Q61.39375 211.07292 61.55 210.88542Q61.721874 210.69792 62.05 210.69792Q62.39375 210.69792 62.565624 210.88542Q62.7375 211.07292 62.7375 211.35417Q62.7375 211.6198 62.565624 211.8073Q62.39375 211.97917 62.05 211.97917Q61.721874 211.97917 61.55 211.8073Q61.39375 211.6198 61.39375 211.35417ZM69.6125 208.27605Q69.6125 210.1823 68.95625 211.1198Q68.31563 212.04167 66.925 212.04167Q65.56563 212.04167 64.90938 211.13542Q64.25313 210.22917 64.22188 208.41667L64.22188 206.97917Q64.22188 205.08855 64.8625 204.1823Q65.51875 203.26042 66.90938 203.26042Q68.28438 203.26042 68.94063 204.15105Q69.59688 205.02605 69.6125 206.8698L69.6125 208.27605ZM68.51875 206.79167Q68.51875 205.41667 68.12813 204.79167Q67.75313 204.15105 66.90938 204.15105Q66.08125 204.15105 65.69063 204.79167Q65.31563 205.41667 65.31563 206.71355L65.31563 208.44792Q65.31563 209.82292 65.70625 210.4948Q66.1125 211.15105 66.925 211.15105Q67.72188 211.15105 68.1125 210.52605Q68.50313 209.90105 68.51875 208.57292L68.51875 206.79167ZM76.6125 208.27605Q76.6125 210.1823 75.95625 211.1198Q75.31563 212.04167 73.925 212.04167Q72.56563 212.04167 71.90938 211.13542Q71.25313 210.22917 71.22188 208.41667L71.22188 206.97917Q71.22188 205.08855 71.8625 204.1823Q72.51875 203.26042 73.90938 203.26042Q75.28438 203.26042 75.94063 204.15105Q76.59688 205.02605 76.6125 206.8698L76.6125 208.27605ZM75.51875 206.79167Q75.51875 205.41667 75.12813 204.79167Q74.75313 204.15105 73.90938 204.15105Q73.08125 204.15105 72.69063 204.79167Q72.31563 205.41667 72.31563 206.71355L72.31563 208.44792Q72.31563 209.82292 72.70625 210.4948Q73.1125 211.15105 73.925 211.15105Q74.72188 211.15105 75.1125 210.52605Q75.50313 209.90105 75.51875 208.57292L75.51875 206.79167Z" fill-rule="nonzero"/><path fill="#757575" d="M20.83125 158.78645L21.64375 158.78645Q22.425 158.77083 22.8625 158.3802Q23.3 157.98958 23.3 157.3177Q23.3 155.8177 21.8 155.8177Q21.096874 155.8177 20.675 156.22395Q20.26875 156.6302 20.26875 157.28645L19.175 157.28645Q19.175 156.27083 19.909374 155.59895Q20.659374 154.92708 21.8 154.92708Q23.003124 154.92708 23.690624 155.5677Q24.378124 156.20833 24.378124 157.34895Q24.378124 157.91145 24.01875 158.42708Q23.659374 158.9427 23.034374 159.20833Q23.7375 159.42708 24.1125 159.9427Q24.503124 160.45833 24.503124 161.20833Q24.503124 162.34895 23.753124 163.03645Q23.003124 163.70833 21.8 163.70833Q20.6125 163.70833 19.846874 163.05208Q19.096874 162.39583 19.096874 161.33333L20.190624 161.33333Q20.190624 162.0052 20.628124 162.41145Q21.065624 162.8177 21.815624 162.8177Q22.596874 162.8177 23.003124 162.41145Q23.425 161.98958 23.425 161.22395Q23.425 160.48958 22.971874 160.09895Q22.51875 159.6927 21.64375 159.67708L20.83125 159.67708L20.83125 158.78645ZM31.6125 159.9427Q31.6125 161.84895 30.95625 162.78645Q30.315624 163.70833 28.925 163.70833Q27.565624 163.70833 26.909374 162.80208Q26.253124 161.89583 26.221874 160.08333L26.221874 158.64583Q26.221874 156.7552 26.8625 155.84895Q27.51875 154.92708 28.909374 154.92708Q30.284374 154.92708 30.940624 155.8177Q31.596874 156.6927 31.6125 158.53645L31.6125 159.9427ZM30.51875 158.45833Q30.51875 157.08333 30.128124 156.45833Q29.753124 155.8177 28.909374 155.8177Q28.08125 155.8177 27.690624 156.45833Q27.315624 157.08333 27.315624 158.3802L27.315624 160.11458Q27.315624 161.48958 27.70625 162.16145Q28.1125 162.8177 28.925 162.8177Q29.721874 162.8177 30.1125 162.1927Q30.503124 161.5677 30.51875 160.23958L30.51875 158.45833ZM38.6125 159.9427Q38.6125 161.84895 37.95625 162.78645Q37.315624 163.70833 35.925 163.70833Q34.565624 163.70833 33.909374 162.80208Q33.253124 161.89583 33.221874 160.08333L33.221874 158.64583Q33.221874 156.7552 33.8625 155.84895Q34.51875 154.92708 35.909374 154.92708Q37.284374 154.92708 37.940624 155.8177Q38.596874 156.6927 38.6125 158.53645L38.6125 159.9427ZM37.51875 158.45833Q37.51875 157.08333 37.128124 156.45833Q36.753124 155.8177 35.909374 155.8177Q35.08125 155.8177 34.690624 156.45833Q34.315624 157.08333 34.315624 158.3802L34.315624 160.11458Q34.315624 161.48958 34.70625 162.16145Q35.1125 162.8177 35.925 162.8177Q36.721874 162.8177 37.1125 162.1927Q37.503124 161.5677 37.51875 160.23958L37.51875 158.45833ZM45.6125 159.9427Q45.6125 161.84895 44.95625 162.78645Q44.315624 163.70833 42.925 163.70833Q41.565624 163.70833 40.909374 162.80208Q40.253124 161.89583 40.221874 160.08333L40.221874 158.64583Q40.221874 156.7552 40.8625 155.84895Q41.51875 154.92708 42.909374 154.92708Q44.284374 154.92708 44.940624 155.8177Q45.596874 156.6927 45.6125 158.53645L45.6125 159.9427ZM44.51875 158.45833Q44.51875 157.08333 44.128124 156.45833Q43.753124 155.8177 42.909374 155.8177Q42.08125 155.8177 41.690624 156.45833Q41.315624 157.08333 41.315624 158.3802L41.315624 160.11458Q41.315624 161.48958 41.70625 162.16145Q42.1125 162.8177 42.925 162.8177Q43.721874 162.8177 44.1125 162.1927Q44.503124 161.5677 44.51875 160.23958L44.51875 158.45833ZM52.6125 159.9427Q52.6125 161.84895 51.95625 162.78645Q51.315624 163.70833 49.925 163.70833Q48.565624 163.70833 47.909374 162.80208Q47.253124 161.89583 47.221874 160.08333L47.221874 158.64583Q47.221874 156.7552 47.8625 155.84895Q48.51875 154.92708 49.909374 154.92708Q51.284374 154.92708 51.940624 155.8177Q52.596874 156.6927 52.6125 158.53645L52.6125 159.9427ZM51.51875 158.45833Q51.51875 157.08333 51.128124 156.45833Q50.753124 155.8177 49.909374 155.8177Q49.08125 155.8177 48.690624 156.45833Q48.315624 157.08333 48.315624 158.3802L48.315624 160.11458Q48.315624 161.48958 48.70625 162.16145Q49.1125 162.8177 49.925 162.8177Q50.721874 162.8177 51.1125 162.1927Q51.503124 161.5677 51.51875 160.23958L51.51875 158.45833ZM59.6125 159.9427Q59.6125 161.84895 58.95625 162.78645Q58.315624 163.70833 56.925 163.70833Q55.565624 163.70833 54.909374 162.80208Q54.253124 161.89583 54.221874 160.08333L54.221874 158.64583Q54.221874 156.7552 54.8625 155.84895Q55.51875 154.92708 56.909374 154.92708Q58.284374 154.92708 58.940624 155.8177Q59.596874 156.6927 59.6125 158.53645L59.6125 159.9427ZM58.51875 158.45833Q58.51875 157.08333 58.128124 156.45833Q57.753124 155.8177 56.909374 155.8177Q56.08125 155.8177 55.690624 156.45833Q55.315624 157.08333 55.315624 158.3802L55.315624 160.11458Q55.315624 161.48958 55.70625 162.16145Q56.1125 162.8177 56.925 162.8177Q57.721874 162.8177 58.1125 162.1927Q58.503124 161.5677 58.51875 160.23958L58.51875 158.45833ZM61.39375 163.02083Q61.39375 162.73958 61.55 162.55208Q61.721874 162.36458 62.05 162.36458Q62.39375 162.36458 62.565624 162.55208Q62.7375 162.73958 62.7375 163.02083Q62.7375 163.28645 62.565624 163.47395Q62.39375 163.64583 62.05 163.64583Q61.721874 163.64583 61.55 163.47395Q61.39375 163.28645 61.39375 163.02083ZM69.6125 159.9427Q69.6125 161.84895 68.95625 162.78645Q68.31563 163.70833 66.925 163.70833Q65.56563 163.70833 64.90938 162.80208Q64.25313 161.89583 64.22188 160.08333L64.22188 158.64583Q64.22188 156.7552 64.8625 155.84895Q65.51875 154.92708 66.90938 154.92708Q68.28438 154.92708 68.94063 155.8177Q69.59688 156.6927 69.6125 158.53645L69.6125 159.9427ZM68.51875 158.45833Q68.51875 157.08333 68.12813 156.45833Q67.75313 155.8177 66.90938 155.8177Q66.08125 155.8177 65.69063 156.45833Q65.31563 157.08333 65.31563 158.3802L65.31563 160.11458Q65.31563 161.48958 65.70625 162.16145Q66.1125 162.8177 66.925 162.8177Q67.72188 162.8177 68.1125 162.1927Q68.50313 161.5677 68.51875 160.23958L68.51875 158.45833ZM76.6125 159.9427Q76.6125 161.84895 75.95625 162.78645Q75.31563 163.70833 73.925 163.70833Q72.56563 163.70833 71.90938 162.80208Q71.25313 161.89583 71.22188 160.08333L71.22188 158.64583Q71.22188 156.7552 71.8625 155.84895Q72.51875 154.92708 73.90938 154.92708Q75.28438 154.92708 75.94063 155.8177Q76.59688 156.6927 76.6125 158.53645L76.6125 159.9427ZM75.51875 158.45833Q75.51875 157.08333 75.12813 156.45833Q74.75313 155.8177 73.90938 155.8177Q73.08125 155.8177 72.69063 156.45833Q72.31563 157.08333 72.31563 158.3802L72.31563 160.11458Q72.31563 161.48958 72.70625 162.16145Q73.1125 162.8177 73.925 162.8177Q74.72188 162.8177 75.1125 162.1927Q75.50313 161.5677 75.51875 160.23958L75.51875 158.45833Z" fill-rule="nonzero"/><path fill="#757575" d="M23.83125 112.390625L25.01875 112.390625L25.01875 113.265625L23.83125 113.265625L23.83125 115.25L22.753124 115.25L22.753124 113.265625L18.8625 113.265625L18.8625 112.625L22.675 106.71875L23.83125 106.71875L23.83125 112.390625ZM20.096874 112.390625L22.753124 112.390625L22.753124 108.203125L22.6125 108.4375L20.096874 112.390625ZM31.6125 111.609375Q31.6125 113.515625 30.95625 114.453125Q30.315624 115.375 28.925 115.375Q27.565624 115.375 26.909374 114.46875Q26.253124 113.5625 26.221874 111.75L26.221874 110.3125Q26.221874 108.421875 26.8625 107.515625Q27.51875 106.59375 28.909374 106.59375Q30.284374 106.59375 30.940624 107.484375Q31.596874 108.359375 31.6125 110.203125L31.6125 111.609375ZM30.51875 110.125Q30.51875 108.75 30.128124 108.125Q29.753124 107.484375 28.909374 107.484375Q28.08125 107.484375 27.690624 108.125Q27.315624 108.75 27.315624 110.046875L27.315624 111.78125Q27.315624 113.15625 27.70625 113.828125Q28.1125 114.484375 28.925 114.484375Q29.721874 114.484375 30.1125 113.859375Q30.503124 113.234375 30.51875 111.90625L30.51875 110.125ZM38.6125 111.609375Q38.6125 113.515625 37.95625 114.453125Q37.315624 115.375 35.925 115.375Q34.565624 115.375 33.909374 114.46875Q33.253124 113.5625 33.221874 111.75L33.221874 110.3125Q33.221874 108.421875 33.8625 107.515625Q34.51875 106.59375 35.909374 106.59375Q37.284374 106.59375 37.940624 107.484375Q38.596874 108.359375 38.6125 110.203125L38.6125 111.609375ZM37.51875 110.125Q37.51875 108.75 37.128124 108.125Q36.753124 107.484375 35.909374 107.484375Q35.08125 107.484375 34.690624 108.125Q34.315624 108.75 34.315624 110.046875L34.315624 111.78125Q34.315624 113.15625 34.70625 113.828125Q35.1125 114.484375 35.925 114.484375Q36.721874 114.484375 37.1125 113.859375Q37.503124 113.234375 37.51875 111.90625L37.51875 110.125ZM45.6125 111.609375Q45.6125 113.515625 44.95625 114.453125Q44.315624 115.375 42.925 115.375Q41.565624 115.375 40.909374 114.46875Q40.253124 113.5625 40.221874 111.75L40.221874 110.3125Q40.221874 108.421875 40.8625 107.515625Q41.51875 106.59375 42.909374 106.59375Q44.284374 106.59375 44.940624 107.484375Q45.596874 108.359375 45.6125 110.203125L45.6125 111.609375ZM44.51875 110.125Q44.51875 108.75 44.128124 108.125Q43.753124 107.484375 42.909374 107.484375Q42.08125 107.484375 41.690624 108.125Q41.315624 108.75 41.315624 110.046875L41.315624 111.78125Q41.315624 113.15625 41.70625 113.828125Q42.1125 114.484375 42.925 114.484375Q43.721874 114.484375 44.1125 113.859375Q44.503124 113.234375 44.51875 111.90625L44.51875 110.125ZM52.6125 111.609375Q52.6125 113.515625 51.95625 114.453125Q51.315624 115.375 49.925 115.375Q48.565624 115.375 47.909374 114.46875Q47.253124 113.5625 47.221874 111.75L47.221874 110.3125Q47.221874 108.421875 47.8625 107.515625Q48.51875 106.59375 49.909374 106.59375Q51.284374 106.59375 51.940624 107.484375Q52.596874 108.359375 52.6125 110.203125L52.6125 111.609375ZM51.51875 110.125Q51.51875 108.75 51.128124 108.125Q50.753124 107.484375 49.909374 107.484375Q49.08125 107.484375 48.690624 108.125Q48.315624 108.75 48.315624 110.046875L48.315624 111.78125Q48.315624 113.15625 48.70625 113.828125Q49.1125 114.484375 49.925 114.484375Q50.721874 114.484375 51.1125 113.859375Q51.503124 113.234375 51.51875 111.90625L51.51875 110.125ZM59.6125 111.609375Q59.6125 113.515625 58.95625 114.453125Q58.315624 115.375 56.925 115.375Q55.565624 115.375 54.909374 114.46875Q54.253124 113.5625 54.221874 111.75L54.221874 110.3125Q54.221874 108.421875 54.8625 107.515625Q55.51875 106.59375 56.909374 106.59375Q58.284374 106.59375 58.940624 107.484375Q59.596874 108.359375 59.6125 110.203125L59.6125 111.609375ZM58.51875 110.125Q58.51875 108.75 58.128124 108.125Q57.753124 107.484375 56.909374 107.484375Q56.08125 107.484375 55.690624 108.125Q55.315624 108.75 55.315624 110.046875L55.315624 111.78125Q55.315624 113.15625 55.70625 113.828125Q56.1125 114.484375 56.925 114.484375Q57.721874 114.484375 58.1125 113.859375Q58.503124 113.234375 58.51875 111.90625L58.51875 110.125ZM61.39375 114.6875Q61.39375 114.40625 61.55 114.21875Q61.721874 114.03125 62.05 114.03125Q62.39375 114.03125 62.565624 114.21875Q62.7375 114.40625 62.7375 114.6875Q62.7375 114.953125 62.565624 115.140625Q62.39375 115.3125 62.05 115.3125Q61.721874 115.3125 61.55 115.140625Q61.39375 114.953125 61.39375 114.6875ZM69.6125 111.609375Q69.6125 113.515625 68.95625 114.453125Q68.31563 115.375 66.925 115.375Q65.56563 115.375 64.90938 114.46875Q64.25313 113.5625 64.22188 111.75L64.22188 110.3125Q64.22188 108.421875 64.8625 107.515625Q65.51875 106.59375 66.90938 106.59375Q68.28438 106.59375 68.94063 107.484375Q69.59688 108.359375 69.6125 110.203125L69.6125 111.609375ZM68.51875 110.125Q68.51875 108.75 68.12813 108.125Q67.75313 107.484375 66.90938 107.484375Q66.08125 107.484375 65.69063 108.125Q65.31563 108.75 65.31563 110.046875L65.31563 111.78125Q65.31563 113.15625 65.70625 113.828125Q66.1125 114.484375 66.925 114.484375Q67.72188 114.484375 68.1125 113.859375Q68.50313 113.234375 68.51875 111.90625L68.51875 110.125ZM76.6125 111.609375Q76.6125 113.515625 75.95625 114.453125Q75.31563 115.375 73.925 115.375Q72.56563 115.375 71.90938 114.46875Q71.25313 113.5625 71.22188 111.75L71.22188 110.3125Q71.22188 108.421875 71.8625 107.515625Q72.51875 106.59375 73.90938 106.59375Q75.28438 106.59375 75.94063 107.484375Q76.59688 108.359375 76.6125 110.203125L76.6125 111.609375ZM75.51875 110.125Q75.51875 108.75 75.12813 108.125Q74.75313 107.484375 73.90938 107.484375Q73.08125 107.484375 72.69063 108.125Q72.31563 108.75 72.31563 110.046875L72.31563 111.78125Q72.31563 113.15625 72.70625 113.828125Q73.1125 114.484375 73.925 114.484375Q74.72188 114.484375 75.1125 113.859375Q75.50313 113.234375 75.51875 111.90625L75.51875 110.125Z" fill-rule="nonzero"/><path fill="#757575" d="M19.753124 62.635414L20.190624 58.385414L24.565624 58.385414L24.565624 59.385414L21.1125 59.385414L20.846874 61.71354Q21.4875 61.33854 22.284374 61.33854Q23.440624 61.33854 24.128124 62.11979Q24.815624 62.885414 24.815624 64.197914Q24.815624 65.510414 24.096874 66.27604Q23.39375 67.041664 22.1125 67.041664Q20.9875 67.041664 20.26875 66.416664Q19.55 65.77604 19.45625 64.666664L20.471874 64.666664Q20.58125 65.40104 21.003124 65.77604Q21.425 66.15104 22.1125 66.15104Q22.8625 66.15104 23.3 65.635414Q23.7375 65.11979 23.7375 64.21354Q23.7375 63.354164 23.26875 62.83854Q22.8 62.322914 22.01875 62.322914Q21.315624 62.322914 20.909374 62.61979L20.628124 62.854164L19.753124 62.635414ZM31.6125 63.27604Q31.6125 65.18229 30.95625 66.11979Q30.315624 67.041664 28.925 67.041664Q27.565624 67.041664 26.909374 66.135414Q26.253124 65.229164 26.221874 63.416664L26.221874 61.979164Q26.221874 60.08854 26.8625 59.18229Q27.51875 58.260414 28.909374 58.260414Q30.284374 58.260414 30.940624 59.15104Q31.596874 60.02604 31.6125 61.86979L31.6125 63.27604ZM30.51875 61.791664Q30.51875 60.416664 30.128124 59.791664Q29.753124 59.15104 28.909374 59.15104Q28.08125 59.15104 27.690624 59.791664Q27.315624 60.416664 27.315624 61.71354L27.315624 63.447914Q27.315624 64.822914 27.70625 65.49479Q28.1125 66.15104 28.925 66.15104Q29.721874 66.15104 30.1125 65.52604Q30.503124 64.90104 30.51875 63.572914L30.51875 61.791664ZM38.6125 63.27604Q38.6125 65.18229 37.95625 66.11979Q37.315624 67.041664 35.925 67.041664Q34.565624 67.041664 33.909374 66.135414Q33.253124 65.229164 33.221874 63.416664L33.221874 61.979164Q33.221874 60.08854 33.8625 59.18229Q34.51875 58.260414 35.909374 58.260414Q37.284374 58.260414 37.940624 59.15104Q38.596874 60.02604 38.6125 61.86979L38.6125 63.27604ZM37.51875 61.791664Q37.51875 60.416664 37.128124 59.791664Q36.753124 59.15104 35.909374 59.15104Q35.08125 59.15104 34.690624 59.791664Q34.315624 60.416664 34.315624 61.71354L34.315624 63.447914Q34.315624 64.822914 34.70625 65.49479Q35.1125 66.15104 35.925 66.15104Q36.721874 66.15104 37.1125 65.52604Q37.503124 64.90104 37.51875 63.572914L37.51875 61.791664ZM45.6125 63.27604Q45.6125 65.18229 44.95625 66.11979Q44.315624 67.041664 42.925 67.041664Q41.565624 67.041664 40.909374 66.135414Q40.253124 65.229164 40.221874 63.416664L40.221874 61.979164Q40.221874 60.08854 40.8625 59.18229Q41.51875 58.260414 42.909374 58.260414Q44.284374 58.260414 44.940624 59.15104Q45.596874 60.02604 45.6125 61.86979L45.6125 63.27604ZM44.51875 61.791664Q44.51875 60.416664 44.128124 59.791664Q43.753124 59.15104 42.909374 59.15104Q42.08125 59.15104 41.690624 59.791664Q41.315624 60.416664 41.315624 61.71354L41.315624 63.447914Q41.315624 64.822914 41.70625 65.49479Q42.1125 66.15104 42.925 66.15104Q43.721874 66.15104 44.1125 65.52604Q44.503124 64.90104 44.51875 63.572914L44.51875 61.791664ZM52.6125 63.27604Q52.6125 65.18229 51.95625 66.11979Q51.315624 67.041664 49.925 67.041664Q48.565624 67.041664 47.909374 66.135414Q47.253124 65.229164 47.221874 63.416664L47.221874 61.979164Q47.221874 60.08854 47.8625 59.18229Q48.51875 58.260414 49.909374 58.260414Q51.284374 58.260414 51.940624 59.15104Q52.596874 60.02604 52.6125 61.86979L52.6125 63.27604ZM51.51875 61.791664Q51.51875 60.416664 51.128124 59.791664Q50.753124 59.15104 49.909374 59.15104Q49.08125 59.15104 48.690624 59.791664Q48.315624 60.416664 48.315624 61.71354L48.315624 63.447914Q48.315624 64.822914 48.70625 65.49479Q49.1125 66.15104 49.925 66.15104Q50.721874 66.15104 51.1125 65.52604Q51.503124 64.90104 51.51875 63.572914L51.51875 61.791664ZM59.6125 63.27604Q59.6125 65.18229 58.95625 66.11979Q58.315624 67.041664 56.925 67.041664Q55.565624 67.041664 54.909374 66.135414Q54.253124 65.229164 54.221874 63.416664L54.221874 61.979164Q54.221874 60.08854 54.8625 59.18229Q55.51875 58.260414 56.909374 58.260414Q58.284374 58.260414 58.940624 59.15104Q59.596874 60.02604 59.6125 61.86979L59.6125 63.27604ZM58.51875 61.791664Q58.51875 60.416664 58.128124 59.791664Q57.753124 59.15104 56.909374 59.15104Q56.08125 59.15104 55.690624 59.791664Q55.315624 60.416664 55.315624 61.71354L55.315624 63.447914Q55.315624 64.822914 55.70625 65.49479Q56.1125 66.15104 56.925 66.15104Q57.721874 66.15104 58.1125 65.52604Q58.503124 64.90104 58.51875 63.572914L58.51875 61.791664ZM61.39375 66.354164Q61.39375 66.072914 61.55 65.885414Q61.721874 65.697914 62.05 65.697914Q62.39375 65.697914 62.565624 65.885414Q62.7375 66.072914 62.7375 66.354164Q62.7375 66.61979 62.565624 66.80729Q62.39375 66.979164 62.05 66.979164Q61.721874 66.979164 61.55 66.80729Q61.39375 66.61979 61.39375 66.354164ZM69.6125 63.27604Q69.6125 65.18229 68.95625 66.11979Q68.31563 67.041664 66.925 67.041664Q65.56563 67.041664 64.90938 66.135414Q64.25313 65.229164 64.22188 63.416664L64.22188 61.979164Q64.22188 60.08854 64.8625 59.18229Q65.51875 58.260414 66.90938 58.260414Q68.28438 58.260414 68.94063 59.15104Q69.59688 60.02604 69.6125 61.86979L69.6125 63.27604ZM68.51875 61.791664Q68.51875 60.416664 68.12813 59.791664Q67.75313 59.15104 66.90938 59.15104Q66.08125 59.15104 65.69063 59.791664Q65.31563 60.416664 65.31563 61.71354L65.31563 63.447914Q65.31563 64.822914 65.70625 65.49479Q66.1125 66.15104 66.925 66.15104Q67.72188 66.15104 68.1125 65.52604Q68.50313 64.90104 68.51875 63.572914L68.51875 61.791664ZM76.6125 63.27604Q76.6125 65.18229 75.95625 66.11979Q75.31563 67.041664 73.925 67.041664Q72.56563 67.041664 71.90938 66.135414Q71.25313 65.229164 71.22188 63.416664L71.22188 61.979164Q71.22188 60.08854 71.8625 59.18229Q72.51875 58.260414 73.90938 58.260414Q75.28438 58.260414 75.94063 59.15104Q76.59688 60.02604 76.6125 61.86979L76.6125 63.27604ZM75.51875 61.791664Q75.51875 60.416664 75.12813 59.791664Q74.75313 59.15104 73.90938 59.15104Q73.08125 59.15104 72.69063 59.791664Q72.31563 60.416664 72.31563 61.71354L72.31563 63.447914Q72.31563 64.822914 72.70625 65.49479Q73.1125 66.15104 73.925 66.15104Q74.72188 66.15104 75.1125 65.52604Q75.50313 64.90104 75.51875 63.572914L75.51875 61.791664Z" fill-rule="nonzero"/><path fill="#757575" d="M130.242 322.08334L129.16388 322.08334L129.16388 314.8646L126.97638 315.66147L126.97638 314.6771L130.08575 313.50522L130.242 313.50522L130.242 322.08334ZM134.1795 317.8021L134.617 313.5521L138.992 313.5521L138.992 314.5521L135.53888 314.5521L135.27325 316.88022Q135.91388 316.50522 136.71075 316.50522Q137.867 316.50522 138.5545 317.28647Q139.242 318.0521 139.242 319.3646Q139.242 320.6771 138.52325 321.44272Q137.82013 322.20834 136.53888 322.20834Q135.41388 322.20834 134.69513 321.58334Q133.97638 320.94272 133.88263 319.83334L134.89825 319.83334Q135.00763 320.56772 135.4295 320.94272Q135.85138 321.31772 136.53888 321.31772Q137.28888 321.31772 137.72638 320.8021Q138.16388 320.28647 138.16388 319.38022Q138.16388 318.52084 137.69513 318.00522Q137.22638 317.4896 136.44513 317.4896Q135.742 317.4896 135.33575 317.78647L135.0545 318.02084L134.1795 317.8021ZM146.03888 318.44272Q146.03888 320.34897 145.38263 321.28647Q144.742 322.20834 143.35138 322.20834Q141.992 322.20834 141.33575 321.3021Q140.6795 320.39584 140.64825 318.58334L140.64825 317.14584Q140.64825 315.25522 141.28888 314.34897Q141.94513 313.4271 143.33575 313.4271Q144.71075 313.4271 145.367 314.31772Q146.02325 315.19272 146.03888 317.03647L146.03888 318.44272ZM144.94513 316.95834Q144.94513 315.58334 144.5545 314.95834Q144.1795 314.31772 143.33575 314.31772Q142.50763 314.31772 142.117 314.95834Q141.742 315.58334 141.742 316.88022L141.742 318.6146Q141.742 319.9896 142.13263 320.66147Q142.53888 321.31772 143.35138 321.31772Q144.14825 321.31772 144.53888 320.69272Q144.9295 320.06772 144.94513 318.7396L144.94513 316.95834Z" fill-rule="nonzero"/><path fill="#757575" d="M206.66708 317.28647L207.47958 317.28647Q208.26083 317.27084 208.69833 316.88022Q209.13583 316.4896 209.13583 315.81772Q209.13583 314.31772 207.63583 314.31772Q206.93271 314.31772 206.51083 314.72397Q206.10458 315.13022 206.10458 315.78647L205.01083 315.78647Q205.01083 314.77084 205.74521 314.09897Q206.49521 313.4271 207.63583 313.4271Q208.83896 313.4271 209.52646 314.06772Q210.21396 314.70834 210.21396 315.84897Q210.21396 316.41147 209.85458 316.9271Q209.49521 317.44272 208.87021 317.70834Q209.57333 317.9271 209.94833 318.44272Q210.33896 318.95834 210.33896 319.70834Q210.33896 320.84897 209.58896 321.53647Q208.83896 322.20834 207.63583 322.20834Q206.44833 322.20834 205.68271 321.5521Q204.93271 320.89584 204.93271 319.83334L206.02646 319.83334Q206.02646 320.50522 206.46396 320.91147Q206.90146 321.31772 207.65146 321.31772Q208.43271 321.31772 208.83896 320.91147Q209.26083 320.4896 209.26083 319.72397Q209.26083 318.9896 208.80771 318.59897Q208.35458 318.19272 207.47958 318.1771L206.66708 318.1771L206.66708 317.28647ZM217.44833 318.44272Q217.44833 320.34897 216.79208 321.28647Q216.15146 322.20834 214.76083 322.20834Q213.40146 322.20834 212.74521 321.3021Q212.08896 320.39584 212.05771 318.58334L212.05771 317.14584Q212.05771 315.25522 212.69833 314.34897Q213.35458 313.4271 214.74521 313.4271Q216.12021 313.4271 216.77646 314.31772Q217.43271 315.19272 217.44833 317.03647L217.44833 318.44272ZM216.35458 316.95834Q216.35458 315.58334 215.96396 314.95834Q215.58896 314.31772 214.74521 314.31772Q213.91708 314.31772 213.52646 314.95834Q213.15146 315.58334 213.15146 316.88022L213.15146 318.6146Q213.15146 319.9896 213.54208 320.66147Q213.94833 321.31772 214.76083 321.31772Q215.55771 321.31772 215.94833 320.69272Q216.33896 320.06772 216.35458 318.7396L216.35458 316.95834ZM224.44833 318.44272Q224.44833 320.34897 223.79208 321.28647Q223.15146 322.20834 221.76083 322.20834Q220.40146 322.20834 219.74521 321.3021Q219.08896 320.39584 219.05771 318.58334L219.05771 317.14584Q219.05771 315.25522 219.69833 314.34897Q220.35458 313.4271 221.74521 313.4271Q223.12021 313.4271 223.77646 314.31772Q224.43271 315.19272 224.44833 317.03647L224.44833 318.44272ZM223.35458 316.95834Q223.35458 315.58334 222.96396 314.95834Q222.58896 314.31772 221.74521 314.31772Q220.91708 314.31772 220.52646 314.95834Q220.15146 315.58334 220.15146 316.88022L220.15146 318.6146Q220.15146 319.9896 220.54208 320.66147Q220.94833 321.31772 221.76083 321.31772Q222.55771 321.31772 222.94833 320.69272Q223.33896 320.06772 223.35458 318.7396L223.35458 316.95834Z" fill-rule="nonzero"/><path fill="#757575" d="M287.76404 313.5521L287.76404 314.45834L287.5609 314.45834Q286.2953 314.4896 285.5453 315.22397Q284.7953 315.94272 284.6703 317.25522Q285.3578 316.4896 286.51404 316.4896Q287.6234 316.4896 288.2953 317.27084Q288.96716 318.0521 288.96716 319.3021Q288.96716 320.6146 288.2484 321.41147Q287.52966 322.20834 286.3109 322.20834Q285.09216 322.20834 284.32654 321.27084Q283.57654 320.31772 283.57654 318.83334L283.57654 318.4271Q283.57654 316.06772 284.57654 314.81772Q285.57654 313.56772 287.5609 313.5521L287.76404 313.5521ZM286.34216 317.39584Q285.77966 317.39584 285.3109 317.72397Q284.84216 318.0521 284.65466 318.56772L284.65466 318.95834Q284.65466 320.02084 285.1234 320.66147Q285.6078 321.3021 286.3109 321.3021Q287.0453 321.3021 287.46716 320.77084Q287.88904 320.22397 287.88904 319.34897Q287.88904 318.47397 287.46716 317.94272Q287.0453 317.39584 286.34216 317.39584ZM295.8578 318.44272Q295.8578 320.34897 295.20154 321.28647Q294.5609 322.20834 293.1703 322.20834Q291.8109 322.20834 291.15466 321.3021Q290.4984 320.39584 290.46716 318.58334L290.46716 317.14584Q290.46716 315.25522 291.1078 314.34897Q291.76404 313.4271 293.15466 313.4271Q294.52966 313.4271 295.1859 314.31772Q295.84216 315.19272 295.8578 317.03647L295.8578 318.44272ZM294.76404 316.95834Q294.76404 315.58334 294.3734 314.95834Q293.9984 314.31772 293.15466 314.31772Q292.32654 314.31772 291.9359 314.95834Q291.5609 315.58334 291.5609 316.88022L291.5609 318.6146Q291.5609 319.9896 291.95154 320.66147Q292.3578 321.31772 293.1703 321.31772Q293.96716 321.31772 294.3578 320.69272Q294.7484 320.06772 294.76404 318.7396L294.76404 316.95834ZM302.8578 318.44272Q302.8578 320.34897 302.20154 321.28647Q301.5609 322.20834 300.1703 322.20834Q298.8109 322.20834 298.15466 321.3021Q297.4984 320.39584 297.46716 318.58334L297.46716 317.14584Q297.46716 315.25522 298.1078 314.34897Q298.76404 313.4271 300.15466 313.4271Q301.52966 313.4271 302.1859 314.31772Q302.84216 315.19272 302.8578 317.03647L302.8578 318.44272ZM301.76404 316.95834Q301.76404 315.58334 301.3734 314.95834Q300.9984 314.31772 300.15466 314.31772Q299.32654 314.31772 298.9359 314.95834Q298.5609 315.58334 298.5609 316.88022L298.5609 318.6146Q298.5609 319.9896 298.95154 320.66147Q299.3578 321.31772 300.1703 321.31772Q300.96716 321.31772 301.3578 320.69272Q301.7484 320.06772 301.76404 318.7396L301.76404 316.95834Z" fill-rule="nonzero"/><path fill="#757575" d="M366.0641 318.33334Q365.73596 318.7396 365.2516 318.9896Q364.78284 319.22397 364.22034 319.22397Q363.48596 319.22397 362.9391 318.8646Q362.3922 318.50522 362.09534 317.84897Q361.79846 317.1771 361.79846 316.38022Q361.79846 315.53647 362.11096 314.84897Q362.4391 314.16147 363.03284 313.8021Q363.6422 313.4271 364.4391 313.4271Q365.7047 313.4271 366.42346 314.38022Q367.15784 315.33334 367.15784 316.95834L367.15784 317.27084Q367.15784 319.77084 366.17346 320.91147Q365.1891 322.0521 363.2047 322.08334L362.98596 322.08334L362.98596 321.1771L363.22034 321.1771Q364.5641 321.14584 365.28284 320.47397Q366.0016 319.8021 366.0641 318.33334ZM364.3922 318.33334Q364.9391 318.33334 365.3922 318.00522Q365.86096 317.66147 366.0797 317.1771L366.0797 316.7396Q366.0797 315.6771 365.61096 315.00522Q365.1422 314.33334 364.4391 314.33334Q363.72034 314.33334 363.28284 314.88022Q362.86096 315.4271 362.86096 316.33334Q362.86096 317.20834 363.2672 317.77084Q363.6891 318.33334 364.3922 318.33334ZM374.2672 318.44272Q374.2672 320.34897 373.61096 321.28647Q372.97034 322.20834 371.5797 322.20834Q370.22034 322.20834 369.5641 321.3021Q368.90784 320.39584 368.8766 318.58334L368.8766 317.14584Q368.8766 315.25522 369.5172 314.34897Q370.17346 313.4271 371.5641 313.4271Q372.9391 313.4271 373.59534 314.31772Q374.2516 315.19272 374.2672 317.03647L374.2672 318.44272ZM373.17346 316.95834Q373.17346 315.58334 372.78284 314.95834Q372.40784 314.31772 371.5641 314.31772Q370.73596 314.31772 370.34534 314.95834Q369.97034 315.58334 369.97034 316.88022L369.97034 318.6146Q369.97034 319.9896 370.36096 320.66147Q370.7672 321.31772 371.5797 321.31772Q372.3766 321.31772 372.7672 320.69272Q373.15784 320.06772 373.17346 318.7396L373.17346 316.95834ZM381.2672 318.44272Q381.2672 320.34897 380.61096 321.28647Q379.97034 322.20834 378.5797 322.20834Q377.22034 322.20834 376.5641 321.3021Q375.90784 320.39584 375.8766 318.58334L375.8766 317.14584Q375.8766 315.25522 376.5172 314.34897Q377.17346 313.4271 378.5641 313.4271Q379.9391 313.4271 380.59534 314.31772Q381.2516 315.19272 381.2672 317.03647L381.2672 318.44272ZM380.17346 316.95834Q380.17346 315.58334 379.78284 314.95834Q379.40784 314.31772 378.5641 314.31772Q377.73596 314.31772 377.34534 314.95834Q376.97034 315.58334 376.97034 316.88022L376.97034 318.6146Q376.97034 319.9896 377.36096 320.66147Q377.7672 321.31772 378.5797 321.31772Q379.3766 321.31772 379.7672 320.69272Q380.15784 320.06772 380.17346 318.7396L380.17346 316.95834Z" fill-rule="nonzero"/><path fill="#757575" d="M440.3798 322.08334L439.30167 322.08334L439.30167 314.8646L437.11417 315.66147L437.11417 314.6771L440.22354 313.50522L440.3798 313.50522L440.3798 322.08334ZM449.41104 322.08334L443.8173 322.08334L443.8173 321.3021L446.77042 318.02084Q447.42667 317.27084 447.67667 316.81772Q447.92667 316.34897 447.92667 315.84897Q447.92667 315.1771 447.52042 314.75522Q447.1298 314.31772 446.4423 314.31772Q445.64542 314.31772 445.1923 314.78647Q444.73917 315.2396 444.73917 316.06772L443.66104 316.06772Q443.66104 314.88022 444.41104 314.16147Q445.17667 313.4271 446.4423 313.4271Q447.64542 313.4271 448.33292 314.0521Q449.02042 314.6771 449.02042 315.72397Q449.02042 316.97397 447.41104 318.72397L445.1298 321.19272L449.41104 321.19272L449.41104 322.08334ZM456.17667 318.44272Q456.17667 320.34897 455.52042 321.28647Q454.8798 322.20834 453.48917 322.20834Q452.1298 322.20834 451.47354 321.3021Q450.8173 320.39584 450.78604 318.58334L450.78604 317.14584Q450.78604 315.25522 451.42667 314.34897Q452.08292 313.4271 453.47354 313.4271Q454.84854 313.4271 455.5048 314.31772Q456.16104 315.19272 456.17667 317.03647L456.17667 318.44272ZM455.08292 316.95834Q455.08292 315.58334 454.6923 314.95834Q454.3173 314.31772 453.47354 314.31772Q452.64542 314.31772 452.2548 314.95834Q451.8798 315.58334 451.8798 316.88022L451.8798 318.6146Q451.8798 319.9896 452.27042 320.66147Q452.67667 321.31772 453.48917 321.31772Q454.28604 321.31772 454.67667 320.69272Q455.0673 320.06772 455.08292 318.7396L455.08292 316.95834ZM463.17667 318.44272Q463.17667 320.34897 462.52042 321.28647Q461.8798 322.20834 460.48917 322.20834Q459.1298 322.20834 458.47354 321.3021Q457.8173 320.39584 457.78604 318.58334L457.78604 317.14584Q457.78604 315.25522 458.42667 314.34897Q459.08292 313.4271 460.47354 313.4271Q461.84854 313.4271 462.5048 314.31772Q463.16104 315.19272 463.17667 317.03647L463.17667 318.44272ZM462.08292 316.95834Q462.08292 315.58334 461.6923 314.95834Q461.3173 314.31772 460.47354 314.31772Q459.64542 314.31772 459.2548 314.95834Q458.8798 315.58334 458.8798 316.88022L458.8798 318.6146Q458.8798 319.9896 459.27042 320.66147Q459.67667 321.31772 460.48917 321.31772Q461.28604 321.31772 461.67667 320.69272Q462.0673 320.06772 462.08292 318.7396L462.08292 316.95834Z" fill-rule="nonzero"/><path fill="#757575" d="M518.78925 322.08334L517.7111 322.08334L517.7111 314.8646L515.5236 315.66147L515.5236 314.6771L518.633 313.50522L518.78925 313.50522L518.78925 322.08334ZM522.72675 317.8021L523.16425 313.5521L527.53925 313.5521L527.53925 314.5521L524.0861 314.5521L523.8205 316.88022Q524.4611 316.50522 525.258 316.50522Q526.41425 316.50522 527.10175 317.28647Q527.78925 318.0521 527.78925 319.3646Q527.78925 320.6771 527.0705 321.44272Q526.3674 322.20834 525.0861 322.20834Q523.9611 322.20834 523.2424 321.58334Q522.5236 320.94272 522.4299 319.83334L523.4455 319.83334Q523.5549 320.56772 523.97675 320.94272Q524.3986 321.31772 525.0861 321.31772Q525.8361 321.31772 526.2736 320.8021Q526.7111 320.28647 526.7111 319.38022Q526.7111 318.52084 526.2424 318.00522Q525.7736 317.4896 524.9924 317.4896Q524.28925 317.4896 523.883 317.78647L523.60175 318.02084L522.72675 317.8021ZM534.5861 318.44272Q534.5861 320.34897 533.9299 321.28647Q533.28925 322.20834 531.8986 322.20834Q530.53925 322.20834 529.883 321.3021Q529.22675 320.39584 529.1955 318.58334L529.1955 317.14584Q529.1955 315.25522 529.8361 314.34897Q530.4924 313.4271 531.883 313.4271Q533.258 313.4271 533.91425 314.31772Q534.5705 315.19272 534.5861 317.03647L534.5861 318.44272ZM533.4924 316.95834Q533.4924 315.58334 533.10175 314.95834Q532.72675 314.31772 531.883 314.31772Q531.0549 314.31772 530.66425 314.95834Q530.28925 315.58334 530.28925 316.88022L530.28925 318.6146Q530.28925 319.9896 530.6799 320.66147Q531.0861 321.31772 531.8986 321.31772Q532.6955 321.31772 533.0861 320.69272Q533.47675 320.06772 533.4924 318.7396L533.4924 316.95834ZM541.5861 318.44272Q541.5861 320.34897 540.9299 321.28647Q540.28925 322.20834 538.8986 322.20834Q537.53925 322.20834 536.883 321.3021Q536.22675 320.39584 536.1955 318.58334L536.1955 317.14584Q536.1955 315.25522 536.8361 314.34897Q537.4924 313.4271 538.883 313.4271Q540.258 313.4271 540.91425 314.31772Q541.5705 315.19272 541.5861 317.03647L541.5861 318.44272ZM540.4924 316.95834Q540.4924 315.58334 540.10175 314.95834Q539.72675 314.31772 538.883 314.31772Q538.0549 314.31772 537.66425 314.95834Q537.28925 315.58334 537.28925 316.88022L537.28925 318.6146Q537.28925 319.9896 537.6799 320.66147Q538.0861 321.31772 538.8986 321.31772Q539.6955 321.31772 540.0861 320.69272Q540.47675 320.06772 540.4924 318.7396L540.4924 316.95834Z" fill-rule="nonzero"/><path fill="#4285f4" d="M214.5 339.95C214.5 339.3977 214.94771 338.95 215.5 338.95L225.5 338.95C226.05229 338.95 226.5 339.3977 226.5 339.95L226.5 349.95C226.5 350.5023 226.05229 350.95 225.5 350.95L215.5 350.95C214.94771 350.95 214.5 350.5023 214.5 349.95Z" fill-rule="nonzero"/><path fill="#757575" d="M238.0 345.65314Q236.5625 345.23126 235.89062 344.6219Q235.23438 344.0125 235.23438 343.1219Q235.23438 342.1219 236.03125 341.46564Q236.84375 340.79376 238.14062 340.79376Q239.01562 340.79376 239.70312 341.1375Q240.39062 341.48126 240.76562 342.075Q241.15625 342.66876 241.15625 343.3875L240.01562 343.3875Q240.01562 342.60626 239.51562 342.16876Q239.03125 341.73126 238.14062 341.73126Q237.3125 341.73126 236.84375 342.10626Q236.375 342.46564 236.375 343.10626Q236.375 343.6375 236.8125 343.9969Q237.26562 344.35626 238.32812 344.65314Q239.39062 344.95 239.98438 345.3094Q240.59375 345.66876 240.875 346.15314Q241.17188 346.6375 241.17188 347.27814Q241.17188 348.325 240.35938 348.95Q239.54688 349.575 238.20312 349.575Q237.3125 349.575 236.54688 349.23126Q235.79688 348.8875 235.375 348.3094Q234.96875 347.71564 234.96875 346.98126L236.09375 346.98126Q236.09375 347.7469 236.67188 348.2Q237.25 348.65314 238.20312 348.65314Q239.09375 348.65314 239.5625 348.29376Q240.03125 347.91876 240.03125 347.29376Q240.03125 346.66876 239.59375 346.325Q239.15625 345.98126 238.0 345.65314ZM244.95312 349.575Q243.65625 349.575 242.84375 348.73126Q242.04688 347.8719 242.04688 346.45L242.04688 346.2625Q242.04688 345.3094 242.40625 344.575Q242.76562 343.825 243.40625 343.41876Q244.0625 342.9969 244.8125 342.9969Q246.04688 342.9969 246.73438 343.8094Q247.42188 344.6219 247.42188 346.1375L247.42188 346.59064L243.125 346.59064Q243.15625 347.52814 243.67188 348.10626Q244.20312 348.6844 245.01562 348.6844Q245.57812 348.6844 245.96875 348.45Q246.375 348.21564 246.6875 347.825L247.34375 348.34064Q246.54688 349.575 244.95312 349.575ZM244.8125 343.8875Q244.15625 343.8875 243.70312 344.3719Q243.26562 344.84064 243.17188 345.7L246.34375 345.7L246.34375 345.6219Q246.29688 344.79376 245.89062 344.34064Q245.5 343.8875 244.8125 343.8875ZM251.39062 344.075Q251.14062 344.04376 250.85938 344.04376Q249.78125 344.04376 249.40625 344.95L249.40625 349.45L248.32812 349.45L248.32812 343.10626L249.375 343.10626L249.39062 343.84064Q249.92188 342.9969 250.90625 342.9969Q251.21875 342.9969 251.39062 343.075L251.39062 344.075ZM254.40625 347.98126L255.98438 343.10626L257.09375 343.10626L254.8125 349.45L253.98438 349.45L251.6875 343.10626L252.79688 343.10626L254.40625 347.98126ZM259.5 349.45L258.42188 349.45L258.42188 343.10626L259.5 343.10626L259.5 349.45ZM258.32812 341.4344Q258.32812 341.16876 258.48438 340.98126Q258.65625 340.79376 258.96875 340.79376Q259.28125 340.79376 259.4375 340.98126Q259.60938 341.16876 259.60938 341.4344Q259.60938 341.6844 259.4375 341.8719Q259.28125 342.04376 258.96875 342.04376Q258.65625 342.04376 258.48438 341.8719Q258.32812 341.6844 258.32812 341.4344ZM263.85938 348.6844Q264.4375 348.6844 264.875 348.34064Q265.3125 347.98126 265.35938 347.45L266.39062 347.45Q266.35938 347.9969 266.0 348.4969Q265.65625 348.98126 265.07812 349.27814Q264.51562 349.575 263.85938 349.575Q262.5625 349.575 261.79688 348.71564Q261.04688 347.84064 261.04688 346.34064L261.04688 346.15314Q261.04688 345.23126 261.375 344.5125Q261.71875 343.79376 262.34375 343.40314Q262.98438 342.9969 263.85938 342.9969Q264.92188 342.9969 265.625 343.6375Q266.34375 344.2625 266.39062 345.29376L265.35938 345.29376Q265.3125 344.66876 264.89062 344.27814Q264.46875 343.8875 263.85938 343.8875Q263.03125 343.8875 262.57812 344.48126Q262.125 345.075 262.125 346.2L262.125 346.40314Q262.125 347.4969 262.57812 348.09064Q263.03125 348.6844 263.85938 348.6844ZM269.95312 349.575Q268.65625 349.575 267.84375 348.73126Q267.04688 347.8719 267.04688 346.45L267.04688 346.2625Q267.04688 345.3094 267.40625 344.575Q267.76562 343.825 268.40625 343.41876Q269.0625 342.9969 269.8125 342.9969Q271.04688 342.9969 271.73438 343.8094Q272.42188 344.6219 272.42188 346.1375L272.42188 346.59064L268.125 346.59064Q268.15625 347.52814 268.67188 348.10626Q269.20312 348.6844 270.01562 348.6844Q270.57812 348.6844 270.96875 348.45Q271.375 348.21564 271.6875 347.825L272.34375 348.34064Q271.54688 349.575 269.95312 349.575ZM269.8125 343.8875Q269.15625 343.8875 268.70312 344.3719Q268.26562 344.84064 268.17188 345.7L271.34375 345.7L271.34375 345.6219Q271.29688 344.79376 270.89062 344.34064Q270.5 343.8875 269.8125 343.8875Z" fill-rule="nonzero"/><path fill="#db4437" d="M288.5 339.95C288.5 339.3977 288.94772 338.95 289.5 338.95L299.5 338.95C300.05228 338.95 300.5 339.3977 300.5 339.95L300.5 349.95C300.5 350.5023 300.05228 350.95 299.5 350.95L289.5 350.95C288.94772 350.95 288.5 350.5023 288.5 349.95Z" fill-rule="nonzero"/><path fill="#757575" d="M310.625 348.52814L314.67188 348.52814L314.67188 349.45L309.48438 349.45L309.48438 340.91876L310.625 340.91876L310.625 348.52814ZM315.03125 346.21564Q315.03125 345.29376 315.39062 344.54376Q315.76562 343.79376 316.42188 343.40314Q317.07812 342.9969 317.90625 342.9969Q319.20312 342.9969 320.0 343.8875Q320.8125 344.77814 320.8125 346.27814L320.8125 346.35626Q320.8125 347.27814 320.45312 348.0125Q320.09375 348.7469 319.4375 349.16876Q318.78125 349.575 317.92188 349.575Q316.64062 349.575 315.82812 348.6844Q315.03125 347.77814 315.03125 346.29376L315.03125 346.21564ZM316.125 346.35626Q316.125 347.40314 316.60938 348.04376Q317.10938 348.6844 317.92188 348.6844Q318.75 348.6844 319.23438 348.04376Q319.71875 347.3875 319.71875 346.21564Q319.71875 345.1844 319.21875 344.54376Q318.73438 343.8875 317.90625 343.8875Q317.10938 343.8875 316.60938 344.52814Q316.125 345.15314 316.125 346.35626ZM326.23438 349.45Q326.14062 349.2625 326.07812 348.77814Q325.32812 349.575 324.28125 349.575Q323.34375 349.575 322.73438 349.04376Q322.14062 348.5125 322.14062 347.6844Q322.14062 346.7 322.89062 346.15314Q323.64062 345.60626 325.01562 345.60626L326.0625 345.60626L326.0625 345.10626Q326.0625 344.54376 325.71875 344.21564Q325.39062 343.8719 324.71875 343.8719Q324.14062 343.8719 323.75 344.16876Q323.35938 344.45 323.35938 344.8719L322.26562 344.8719Q322.26562 344.3875 322.59375 343.95Q322.9375 343.5125 323.51562 343.2625Q324.09375 342.9969 324.78125 342.9969Q325.89062 342.9969 326.5 343.54376Q327.125 344.09064 327.15625 345.04376L327.15625 347.96564Q327.15625 348.84064 327.375 349.35626L327.375 349.45L326.23438 349.45ZM324.4375 348.6219Q324.95312 348.6219 325.40625 348.35626Q325.85938 348.09064 326.0625 347.66876L326.0625 346.3719L325.21875 346.3719Q323.21875 346.3719 323.21875 347.54376Q323.21875 348.04376 323.5625 348.34064Q323.90625 348.6219 324.4375 348.6219ZM329.0625 346.23126Q329.0625 344.7625 329.75 343.8875Q330.4375 342.9969 331.5625 342.9969Q332.67188 342.9969 333.32812 343.7469L333.32812 340.45L334.40625 340.45L334.40625 349.45L333.40625 349.45L333.35938 348.7625Q332.70312 349.575 331.54688 349.575Q330.45312 349.575 329.75 348.66876Q329.0625 347.7625 329.0625 346.3094L329.0625 346.23126ZM330.14062 346.35626Q330.14062 347.4344 330.57812 348.04376Q331.03125 348.65314 331.8125 348.65314Q332.84375 348.65314 333.32812 347.71564L333.32812 344.8094Q332.84375 343.91876 331.82812 343.91876Q331.03125 343.91876 330.57812 344.52814Q330.14062 345.1375 330.14062 346.35626ZM339.48438 349.45L339.48438 340.91876L342.28125 340.91876Q343.67188 340.91876 344.35938 341.4969Q345.0625 342.0594 345.0625 343.1844Q345.0625 343.79376 344.71875 344.2625Q344.39062 344.71564 343.79688 344.96564Q344.5 345.15314 344.89062 345.7Q345.29688 346.23126 345.29688 346.98126Q345.29688 348.1375 344.54688 348.79376Q343.8125 349.45 342.45312 349.45L339.48438 349.45ZM340.60938 345.46564L340.60938 348.52814L342.46875 348.52814Q343.26562 348.52814 343.71875 348.1219Q344.17188 347.71564 344.17188 346.9969Q344.17188 345.46564 342.48438 345.46564L340.60938 345.46564ZM340.60938 344.5594L342.3125 344.5594Q343.04688 344.5594 343.48438 344.2Q343.9375 343.825 343.9375 343.1844Q343.9375 342.48126 343.53125 342.16876Q343.125 341.84064 342.28125 341.84064L340.60938 341.84064L340.60938 344.5594ZM350.23438 349.45Q350.14062 349.2625 350.07812 348.77814Q349.32812 349.575 348.28125 349.575Q347.34375 349.575 346.73438 349.04376Q346.14062 348.5125 346.14062 347.6844Q346.14062 346.7 346.89062 346.15314Q347.64062 345.60626 349.01562 345.60626L350.0625 345.60626L350.0625 345.10626Q350.0625 344.54376 349.71875 344.21564Q349.39062 343.8719 348.71875 343.8719Q348.14062 343.8719 347.75 344.16876Q347.35938 344.45 347.35938 344.8719L346.26562 344.8719Q346.26562 344.3875 346.59375 343.95Q346.9375 343.5125 347.51562 343.2625Q348.09375 342.9969 348.78125 342.9969Q349.89062 342.9969 350.5 343.54376Q351.125 344.09064 351.15625 345.04376L351.15625 347.96564Q351.15625 348.84064 351.375 349.35626L351.375 349.45L350.23438 349.45ZM348.4375 348.6219Q348.95312 348.6219 349.40625 348.35626Q349.85938 348.09064 350.0625 347.66876L350.0625 346.3719L349.21875 346.3719Q347.21875 346.3719 347.21875 347.54376Q347.21875 348.04376 347.5625 348.34064Q347.90625 348.6219 348.4375 348.6219ZM354.5 349.45L353.42188 349.45L353.42188 340.45L354.5 340.45L354.5 349.45ZM360.23438 349.45Q360.14062 349.2625 360.07812 348.77814Q359.32812 349.575 358.28125 349.575Q357.34375 349.575 356.73438 349.04376Q356.14062 348.5125 356.14062 347.6844Q356.14062 346.7 356.89062 346.15314Q357.64062 345.60626 359.01562 345.60626L360.0625 345.60626L360.0625 345.10626Q360.0625 344.54376 359.71875 344.21564Q359.39062 343.8719 358.71875 343.8719Q358.14062 343.8719 357.75 344.16876Q357.35938 344.45 357.35938 344.8719L356.26562 344.8719Q356.26562 344.3875 356.59375 343.95Q356.9375 343.5125 357.51562 343.2625Q358.09375 342.9969 358.78125 342.9969Q359.89062 342.9969 360.5 343.54376Q361.125 344.09064 361.15625 345.04376L361.15625 347.96564Q361.15625 348.84064 361.375 349.35626L361.375 349.45L360.23438 349.45ZM358.4375 348.6219Q358.95312 348.6219 359.40625 348.35626Q359.85938 348.09064 360.0625 347.66876L360.0625 346.3719L359.21875 346.3719Q357.21875 346.3719 357.21875 347.54376Q357.21875 348.04376 357.5625 348.34064Q357.90625 348.6219 358.4375 348.6219ZM364.34375 343.10626L364.375 343.90314Q365.10938 342.9969 366.28125 342.9969Q368.29688 342.9969 368.3125 345.2625L368.3125 349.45L367.21875 349.45L367.21875 345.2469Q367.21875 344.575 366.90625 344.2469Q366.60938 343.91876 365.95312 343.91876Q365.42188 343.91876 365.01562 344.2Q364.625 344.48126 364.40625 344.9344L364.40625 349.45L363.32812 349.45L363.32812 343.10626L364.34375 343.10626ZM372.85938 348.6844Q373.4375 348.6844 373.875 348.34064Q374.3125 347.98126 374.35938 347.45L375.39062 347.45Q375.35938 347.9969 375.0 348.4969Q374.65625 348.98126 374.07812 349.27814Q373.51562 349.575 372.85938 349.575Q371.5625 349.575 370.79688 348.71564Q370.04688 347.84064 370.04688 346.34064L370.04688 346.15314Q370.04688 345.23126 370.375 344.5125Q370.71875 343.79376 371.34375 343.40314Q371.98438 342.9969 372.85938 342.9969Q373.92188 342.9969 374.625 343.6375Q375.34375 344.2625 375.39062 345.29376L374.35938 345.29376Q374.3125 344.66876 373.89062 344.27814Q373.46875 343.8875 372.85938 343.8875Q372.03125 343.8875 371.57812 344.48126Q371.125 345.075 371.125 346.2L371.125 346.40314Q371.125 347.4969 371.57812 348.09064Q372.03125 348.6844 372.85938 348.6844ZM378.95312 349.575Q377.65625 349.575 376.84375 348.73126Q376.04688 347.8719 376.04688 346.45L376.04688 346.2625Q376.04688 345.3094 376.40625 344.575Q376.76562 343.825 377.40625 343.41876Q378.0625 342.9969 378.8125 342.9969Q380.04688 342.9969 380.73438 343.8094Q381.42188 344.6219 381.42188 346.1375L381.42188 346.59064L377.125 346.59064Q377.15625 347.52814 377.67188 348.10626Q378.20312 348.6844 379.01562 348.6844Q379.57812 348.6844 379.96875 348.45Q380.375 348.21564 380.6875 347.825L381.34375 348.34064Q380.54688 349.575 378.95312 349.575ZM378.8125 343.8875Q378.15625 343.8875 377.70312 344.3719Q377.26562 344.84064 377.17188 345.7L380.34375 345.7L380.34375 345.6219Q380.29688 344.79376 379.89062 344.34064Q379.5 343.8875 378.8125 343.8875ZM385.39062 344.075Q385.14062 344.04376 384.85938 344.04376Q383.78125 344.04376 383.40625 344.95L383.40625 349.45L382.32812 349.45L382.32812 343.10626L383.375 343.10626L383.39062 343.84064Q383.92188 342.9969 384.90625 342.9969Q385.21875 342.9969 385.39062 343.075L385.39062 344.075Z" fill-rule="nonzero"/><path fill="#757575" d="M24.39375 31.20625Q21.971874 30.51875 20.878124 29.51875Q19.784374 28.503124 19.784374 27.01875Q19.784374 25.33125 21.128124 24.2375Q22.471874 23.128124 24.6125 23.128124Q26.08125 23.128124 27.221874 23.70625Q28.378124 24.26875 29.003124 25.26875Q29.628124 26.253124 29.628124 27.440624L27.753124 27.440624Q27.753124 26.159374 26.925 25.425Q26.1125 24.675 24.6125 24.675Q23.221874 24.675 22.440624 25.284374Q21.675 25.89375 21.675 26.9875Q21.675 27.846874 22.409374 28.45625Q23.14375 29.05 24.909374 29.55Q26.690624 30.05 27.690624 30.659374Q28.690624 31.253124 29.175 32.05Q29.659374 32.846874 29.659374 33.940624Q29.659374 35.659374 28.315624 36.70625Q26.971874 37.753124 24.70625 37.753124Q23.253124 37.753124 21.971874 37.190624Q20.70625 36.628124 20.01875 35.659374Q19.33125 34.675 19.33125 33.425L21.221874 33.425Q21.221874 34.721874 22.175 35.471874Q23.128124 36.20625 24.70625 36.20625Q26.190624 36.20625 26.9875 35.6125Q27.784374 35.003124 27.784374 33.95625Q27.784374 32.909374 27.05 32.346874Q26.315624 31.76875 24.39375 31.20625ZM36.3 37.753124Q34.159374 37.753124 32.8 36.346874Q31.45625 34.925 31.45625 32.565624L31.45625 32.221874Q31.45625 30.659374 32.05 29.425Q32.659374 28.190624 33.7375 27.4875Q34.815624 26.784374 36.08125 26.784374Q38.14375 26.784374 39.284374 28.14375Q40.425 29.503124 40.425 32.034374L40.425 32.784374L33.26875 32.784374Q33.3 34.346874 34.175 35.315624Q35.05 36.26875 36.39375 36.26875Q37.3625 36.26875 38.01875 35.878124Q38.690624 35.4875 39.190624 34.846874L40.284374 35.70625Q38.95625 37.753124 36.3 37.753124ZM36.08125 28.26875Q34.9875 28.26875 34.2375 29.065624Q33.503124 29.8625 33.33125 31.3L38.6125 31.3L38.6125 31.159374Q38.534374 29.784374 37.8625 29.034374Q37.20625 28.26875 36.08125 28.26875ZM48.01875 28.596874Q47.6125 28.534374 47.14375 28.534374Q45.3625 28.534374 44.721874 30.05L44.721874 37.55L42.925 37.55L42.925 26.9875L44.675 26.9875L44.70625 28.20625Q45.596874 26.784374 47.221874 26.784374Q47.753124 26.784374 48.01875 26.925L48.01875 28.596874ZM53.409374 35.096874L56.01875 26.9875L57.8625 26.9875L54.08125 37.55L52.70625 37.55L48.878124 26.9875L50.721874 26.9875L53.409374 35.096874ZM61.878124 37.55L60.08125 37.55L60.08125 26.9875L61.878124 26.9875L61.878124 37.55ZM59.925 24.175Q59.925 23.7375 60.190624 23.440624Q60.471874 23.128124 60.9875 23.128124Q61.51875 23.128124 61.784374 23.440624Q62.065624 23.7375 62.065624 24.175Q62.065624 24.6125 61.784374 24.909374Q61.51875 25.20625 60.9875 25.20625Q60.471874 25.20625 60.190624 24.909374Q59.925 24.6125 59.925 24.175ZM69.15938 36.26875Q70.12813 36.26875 70.84688 35.690624Q71.56563 35.096874 71.64375 34.221874L73.3625 34.221874Q73.3 35.128124 72.72188 35.95625Q72.15938 36.76875 71.19063 37.26875Q70.2375 37.753124 69.15938 37.753124Q67.00313 37.753124 65.72188 36.315624Q64.45625 34.8625 64.45625 32.3625L64.45625 32.065624Q64.45625 30.51875 65.01875 29.315624Q65.58125 28.1125 66.64375 27.45625Q67.70625 26.784374 69.14375 26.784374Q70.925 26.784374 72.09688 27.846874Q73.28438 28.909374 73.3625 30.6125L71.64375 30.6125Q71.56563 29.596874 70.8625 28.940624Q70.175 28.26875 69.14375 28.26875Q67.76875 28.26875 67.00313 29.26875Q66.25313 30.253124 66.25313 32.128124L66.25313 32.471874Q66.25313 34.3 67.00313 35.284374Q67.75313 36.26875 69.15938 36.26875ZM79.3 37.753124Q77.15938 37.753124 75.8 36.346874Q74.45625 34.925 74.45625 32.565624L74.45625 32.221874Q74.45625 30.659374 75.05 29.425Q75.65938 28.190624 76.7375 27.4875Q77.81563 26.784374 79.08125 26.784374Q81.14375 26.784374 82.28438 28.14375Q83.425 29.503124 83.425 32.034374L83.425 32.784374L76.26875 32.784374Q76.3 34.346874 77.175 35.315624Q78.05 36.26875 79.39375 36.26875Q80.3625 36.26875 81.01875 35.878124Q81.69063 35.4875 82.19063 34.846874L83.28438 35.70625Q81.95625 37.753124 79.3 37.753124ZM79.08125 28.26875Q77.9875 28.26875 77.2375 29.065624Q76.50313 29.8625 76.33125 31.3L81.6125 31.3L81.6125 31.159374Q81.53438 29.784374 80.8625 29.034374Q80.20625 28.26875 79.08125 28.26875ZM94.40938 35.096874L97.01875 26.9875L98.8625 26.9875L95.08125 37.55L93.70625 37.55L89.87813 26.9875L91.72188 26.9875L94.40938 35.096874ZM107.06563 34.753124Q107.06563 34.01875 106.51875 33.6125Q105.97188 33.20625 104.59688 32.909374Q103.22188 32.6125 102.40938 32.20625Q101.6125 31.8 101.22188 31.2375Q100.84688 30.659374 100.84688 29.878124Q100.84688 28.58125 101.94063 27.690624Q103.03438 26.784374 104.75313 26.784374Q106.55 26.784374 107.65938 27.721874Q108.78438 28.64375 108.78438 30.08125L106.95625 30.08125Q106.95625 29.346874 106.33125 28.815624Q105.70625 28.26875 104.75313 28.26875Q103.75313 28.26875 103.19063 28.70625Q102.64375 29.128124 102.64375 29.83125Q102.64375 30.471874 103.15938 30.815624Q103.675 31.14375 105.03438 31.45625Q106.39375 31.753124 107.22188 32.175Q108.06563 32.58125 108.47188 33.175Q108.87813 33.76875 108.87813 34.6125Q108.87813 36.034374 107.7375 36.89375Q106.6125 37.753124 104.8 37.753124Q103.53438 37.753124 102.55 37.3Q101.58125 36.846874 101.01875 36.05Q100.47188 35.2375 100.47188 34.3L102.28438 34.3Q102.33125 35.20625 103.00313 35.7375Q103.69063 36.26875 104.8 36.26875Q105.83125 36.26875 106.44063 35.8625Q107.06563 35.440624 107.06563 34.753124ZM118.08125 36.01875L124.83125 36.01875L124.83125 37.55L116.20625 37.55L116.20625 23.33125L118.08125 23.33125L118.08125 36.01875ZM126.44063 32.175Q126.44063 30.6125 127.05 29.378124Q127.65938 28.128124 128.7375 27.45625Q129.83125 26.784374 131.2375 26.784374Q133.39375 26.784374 134.72188 28.284374Q136.06563 29.76875 136.06563 32.253124L136.06563 32.378124Q136.06563 33.925 135.47188 35.159374Q134.87813 36.378124 133.76875 37.065624Q132.675 37.753124 131.25313 37.753124Q129.1125 37.753124 127.76875 36.253124Q126.44063 34.753124 126.44063 32.3L126.44063 32.175ZM128.25313 32.378124Q128.25313 34.14375 129.06563 35.20625Q129.89375 36.26875 131.25313 36.26875Q132.62813 36.26875 133.44063 35.190624Q134.25313 34.1125 134.25313 32.175Q134.25313 30.425 133.425 29.346874Q132.59688 28.26875 131.2375 28.26875Q129.89375 28.26875 129.06563 29.33125Q128.25313 30.39375 128.25313 32.378124ZM144.44063 37.55Q144.28438 37.2375 144.19063 36.440624Q142.925 37.753124 141.175 37.753124Q139.6125 37.753124 138.6125 36.8625Q137.6125 35.971874 137.6125 34.6125Q137.6125 32.971874 138.8625 32.065624Q140.12813 31.14375 142.39375 31.14375L144.15938 31.14375L144.15938 30.315624Q144.15938 29.3625 143.58125 28.8Q143.01875 28.2375 141.925 28.2375Q140.95625 28.2375 140.3 28.7375Q139.64375 29.221874 139.64375 29.909374L137.83125 29.909374Q137.83125 29.128124 138.39375 28.39375Q138.95625 27.64375 139.90938 27.221874Q140.87813 26.784374 142.03438 26.784374Q143.8625 26.784374 144.89375 27.70625Q145.925 28.6125 145.97188 30.221874L145.97188 35.08125Q145.97188 36.534374 146.33125 37.39375L146.33125 37.55L144.44063 37.55ZM141.44063 36.175Q142.3 36.175 143.05 35.7375Q143.81563 35.3 144.15938 34.596874L144.15938 32.425L142.7375 32.425Q139.425 32.425 139.425 34.3625Q139.425 35.221874 139.9875 35.70625Q140.55 36.175 141.44063 36.175ZM148.47188 32.175Q148.47188 29.753124 149.62813 28.26875Q150.78438 26.784374 152.64375 26.784374Q154.50313 26.784374 155.58125 28.05L155.58125 22.55L157.39375 22.55L157.39375 37.55L155.7375 37.55L155.64375 36.409374Q154.56563 37.753124 152.62813 37.753124Q150.8 37.753124 149.62813 36.253124Q148.47188 34.7375 148.47188 32.315624L148.47188 32.175ZM150.28438 32.378124Q150.28438 34.175 151.01875 35.190624Q151.76875 36.20625 153.08125 36.20625Q154.8 36.20625 155.58125 34.675L155.58125 29.815624Q154.78438 28.315624 153.09688 28.315624Q151.76875 28.315624 151.01875 29.346874Q150.28438 30.378124 150.28438 32.378124ZM165.20625 37.55L165.20625 23.33125L169.84688 23.33125Q172.15938 23.33125 173.33125 24.284374Q174.50313 25.2375 174.50313 27.1125Q174.50313 28.1125 173.925 28.878124Q173.3625 29.64375 172.39375 30.065624Q173.53438 30.39375 174.20625 31.3Q174.87813 32.190624 174.87813 33.440624Q174.87813 35.3625 173.62813 36.45625Q172.39375 37.55 170.12813 37.55L165.20625 37.55ZM167.08125 30.89375L167.08125 36.01875L170.175 36.01875Q171.4875 36.01875 172.2375 35.346874Q172.9875 34.659374 172.9875 33.471874Q172.9875 30.89375 170.20625 30.89375L167.08125 30.89375ZM167.08125 29.39375L169.90938 29.39375Q171.14375 29.39375 171.87813 28.784374Q172.6125 28.159374 172.6125 27.1125Q172.6125 25.940624 171.925 25.409374Q171.25313 24.878124 169.84688 24.878124L167.08125 24.878124L167.08125 29.39375ZM183.44063 37.55Q183.28438 37.2375 183.19063 36.440624Q181.925 37.753124 180.175 37.753124Q178.6125 37.753124 177.6125 36.8625Q176.6125 35.971874 176.6125 34.6125Q176.6125 32.971874 177.8625 32.065624Q179.12813 31.14375 181.39375 31.14375L183.15938 31.14375L183.15938 30.315624Q183.15938 29.3625 182.58125 28.8Q182.01875 28.2375 180.925 28.2375Q179.95625 28.2375 179.3 28.7375Q178.64375 29.221874 178.64375 29.909374L176.83125 29.909374Q176.83125 29.128124 177.39375 28.39375Q177.95625 27.64375 178.90938 27.221874Q179.87813 26.784374 181.03438 26.784374Q182.8625 26.784374 183.89375 27.70625Q184.925 28.6125 184.97188 30.221874L184.97188 35.08125Q184.97188 36.534374 185.33125 37.39375L185.33125 37.55L183.44063 37.55ZM180.44063 36.175Q181.3 36.175 182.05 35.7375Q182.81563 35.3 183.15938 34.596874L183.15938 32.425L181.7375 32.425Q178.425 32.425 178.425 34.3625Q178.425 35.221874 178.9875 35.70625Q179.55 36.175 180.44063 36.175ZM189.87813 37.55L188.08125 37.55L188.08125 22.55L189.87813 22.55L189.87813 37.55ZM199.44063 37.55Q199.28438 37.2375 199.19063 36.440624Q197.925 37.753124 196.175 37.753124Q194.6125 37.753124 193.6125 36.8625Q192.6125 35.971874 192.6125 34.6125Q192.6125 32.971874 193.8625 32.065624Q195.12813 31.14375 197.39375 31.14375L199.15938 31.14375L199.15938 30.315624Q199.15938 29.3625 198.58125 28.8Q198.01875 28.2375 196.925 28.2375Q195.95625 28.2375 195.3 28.7375Q194.64375 29.221874 194.64375 29.909374L192.83125 29.909374Q192.83125 29.128124 193.39375 28.39375Q193.95625 27.64375 194.90938 27.221874Q195.87813 26.784374 197.03438 26.784374Q198.8625 26.784374 199.89375 27.70625Q200.925 28.6125 200.97188 30.221874L200.97188 35.08125Q200.97188 36.534374 201.33125 37.39375L201.33125 37.55L199.44063 37.55ZM196.44063 36.175Q197.3 36.175 198.05 35.7375Q198.81563 35.3 199.15938 34.596874L199.15938 32.425L197.7375 32.425Q194.425 32.425 194.425 34.3625Q194.425 35.221874 194.9875 35.70625Q195.55 36.175 196.44063 36.175ZM205.62813 26.9875L205.69063 28.315624Q206.89375 26.784374 208.84688 26.784374Q212.20625 26.784374 212.22188 30.565624L212.22188 37.55L210.425 37.55L210.425 30.55Q210.40938 29.409374 209.89375 28.8625Q209.39375 28.315624 208.3 28.315624Q207.425 28.315624 206.75313 28.784374Q206.09688 29.253124 205.72188 30.01875L205.72188 37.55L203.925 37.55L203.925 26.9875L205.62813 26.9875ZM219.15938 36.26875Q220.12813 36.26875 220.84688 35.690624Q221.56563 35.096874 221.64375 34.221874L223.3625 34.221874Q223.3 35.128124 222.72188 35.95625Q222.15938 36.76875 221.19063 37.26875Q220.2375 37.753124 219.15938 37.753124Q217.00313 37.753124 215.72188 36.315624Q214.45625 34.8625 214.45625 32.3625L214.45625 32.065624Q214.45625 30.51875 215.01875 29.315624Q215.58125 28.1125 216.64375 27.45625Q217.70625 26.784374 219.14375 26.784374Q220.925 26.784374 222.09688 27.846874Q223.28438 28.909374 223.3625 30.6125L221.64375 30.6125Q221.56563 29.596874 220.8625 28.940624Q220.175 28.26875 219.14375 28.26875Q217.76875 28.26875 217.00313 29.26875Q216.25313 30.253124 216.25313 32.128124L216.25313 32.471874Q216.25313 34.3 217.00313 35.284374Q217.75313 36.26875 219.15938 36.26875ZM229.3 37.753124Q227.15938 37.753124 225.8 36.346874Q224.45625 34.925 224.45625 32.565624L224.45625 32.221874Q224.45625 30.659374 225.05 29.425Q225.65938 28.190624 226.7375 27.4875Q227.81563 26.784374 229.08125 26.784374Q231.14375 26.784374 232.28438 28.14375Q233.425 29.503124 233.425 32.034374L233.425 32.784374L226.26875 32.784374Q226.3 34.346874 227.175 35.315624Q228.05 36.26875 229.39375 36.26875Q230.3625 36.26875 231.01875 35.878124Q231.69063 35.4875 232.19063 34.846874L233.28438 35.70625Q231.95625 37.753124 229.3 37.753124ZM229.08125 28.26875Q227.9875 28.26875 227.2375 29.065624Q226.50313 29.8625 226.33125 31.3L231.6125 31.3L231.6125 31.159374Q231.53438 29.784374 230.8625 29.034374Q230.20625 28.26875 229.08125 28.26875ZM241.01875 28.596874Q240.6125 28.534374 240.14375 28.534374Q238.3625 28.534374 237.72188 30.05L237.72188 37.55L235.925 37.55L235.925 26.9875L237.675 26.9875L237.70625 28.20625Q238.59688 26.784374 240.22188 26.784374Q240.75313 26.784374 241.01875 26.925L241.01875 28.596874ZM251.675 32.253124L246.90938 32.253124L246.90938 30.76875L251.675 30.76875L251.675 32.253124ZM270.0656 30.89375Q270.0656 32.95625 269.40936 34.45625Q268.7531 35.940624 267.5656 36.784374L270.1125 38.76875L268.83124 39.95625L265.83124 37.565624Q265.1281 37.753124 264.34686 37.753124Q262.675 37.753124 261.3625 36.925Q260.0656 36.096874 259.34686 34.565624Q258.6281 33.034374 258.6125 31.01875L258.6125 30.003124Q258.6125 27.95625 259.3156 26.378124Q260.03436 24.8 261.33124 23.971874Q262.64374 23.128124 264.33124 23.128124Q266.05 23.128124 267.34686 23.971874Q268.65936 24.8 269.3625 26.3625Q270.0656 27.909374 270.0656 29.9875L270.0656 30.89375ZM268.1906 29.9875Q268.1906 27.471874 267.1906 26.1125Q266.1906 24.753124 264.33124 24.753124Q262.5656 24.753124 261.53436 26.1125Q260.51874 27.45625 260.4875 29.846874L260.4875 30.89375Q260.4875 33.346874 261.5031 34.753124Q262.53436 36.159374 264.34686 36.159374Q266.15936 36.159374 267.15936 34.83125Q268.15936 33.503124 268.1906 31.034374L268.1906 29.9875ZM275.08124 31.9875L275.08124 37.55L273.20624 37.55L273.20624 23.33125L278.4406 23.33125Q280.78436 23.33125 282.09686 24.51875Q283.425 25.70625 283.425 27.675Q283.425 29.753124 282.1281 30.878124Q280.83124 31.9875 278.425 31.9875L275.08124 31.9875ZM275.08124 30.45625L278.4406 30.45625Q279.95624 30.45625 280.7531 29.753124Q281.55 29.034374 281.55 27.690624Q281.55 26.425 280.7531 25.675Q279.95624 24.909374 278.55 24.878124L275.08124 24.878124L275.08124 30.45625ZM290.39374 31.20625Q287.97186 30.51875 286.8781 29.51875Q285.78436 28.503124 285.78436 27.01875Q285.78436 25.33125 287.1281 24.2375Q288.47186 23.128124 290.6125 23.128124Q292.08124 23.128124 293.22186 23.70625Q294.3781 24.26875 295.0031 25.26875Q295.6281 26.253124 295.6281 27.440624L293.7531 27.440624Q293.7531 26.159374 292.925 25.425Q292.1125 24.675 290.6125 24.675Q289.22186 24.675 288.4406 25.284374Q287.675 25.89375 287.675 26.9875Q287.675 27.846874 288.40936 28.45625Q289.14374 29.05 290.90936 29.55Q292.6906 30.05 293.6906 30.659374Q294.6906 31.253124 295.175 32.05Q295.65936 32.846874 295.65936 33.940624Q295.65936 35.659374 294.3156 36.70625Q292.97186 37.753124 290.70624 37.753124Q289.2531 37.753124 287.97186 37.190624Q286.70624 36.628124 286.01874 35.659374Q285.33124 34.675 285.33124 33.425L287.22186 33.425Q287.22186 34.721874 288.175 35.471874Q289.1281 36.20625 290.70624 36.20625Q292.1906 36.20625 292.9875 35.6125Q293.78436 35.003124 293.78436 33.95625Q293.78436 32.909374 293.05 32.346874Q292.3156 31.76875 290.39374 31.20625Z" fill-rule="nonzero"/></svg>