<svg version="1.1" viewBox="0.0 0.0 600.0 371.0" fill="none" stroke="none" stroke-linecap="square" stroke-miterlimit="10" width="600" height="371" xmlns:xlink="http://www.w3.org/1999/xlink" xmlns="http://www.w3.org/2000/svg"><path fill="#ffffff" d="M0 0L600.0 0L600.0 371.0L0 371.0L0 0Z" fill-rule="nonzero"/><path stroke="#333333" stroke-width="1.0" stroke-linecap="butt" d="M45.5 304.5L581.5 304.5" fill-rule="nonzero"/><path stroke="#cccccc" stroke-width="1.0" stroke-linecap="butt" d="M45.5 223.5L581.5 223.5" fill-rule="nonzero"/><path stroke="#cccccc" stroke-width="1.0" stroke-linecap="butt" d="M45.5 142.5L581.5 142.5" fill-rule="nonzero"/><path stroke="#cccccc" stroke-width="1.0" stroke-linecap="butt" d="M45.5 62.5L581.5 62.5" fill-rule="nonzero"/><clipPath id="id_0"><path d="M45.55 62.416668L581.45 62.416668L581.45 304.08334L45.55 304.08334L45.55 62.416668Z" clip-rule="nonzero"/></clipPath><path stroke="#000000" stroke-width="0.0" stroke-linecap="butt" stroke-opacity="0.0" clip-path="url(#id_0)" d="M102.0 304.0L76.0 304.0L76.0 284.0C76.0 282.89542 76.89543 282.0 78.0 282.0L100.0 282.0C101.10457 282.0 102.0 282.89542 102.0 284.0Z" fill-rule="nonzero"/><path fill="#4285f4" clip-path="url(#id_0)" d="M102.0 304.0L76.0 304.0L76.0 284.0C76.0 282.89542 76.89543 282.0 78.0 282.0L100.0 282.0C101.10457 282.0 102.0 282.89542 102.0 284.0Z" fill-rule="nonzero"/><path stroke="#000000" stroke-width="0.0" stroke-linecap="butt" stroke-opacity="0.0" clip-path="url(#id_0)" d="M186.0 304.0L160.0 304.0L160.0 269.0C160.0 267.89542 160.89543 267.0 162.0 267.0L184.0 267.0C185.10457 267.0 186.0 267.89542 186.0 269.0Z" fill-rule="nonzero"/><path fill="#4285f4" clip-path="url(#id_0)" d="M186.0 304.0L160.0 304.0L160.0 269.0C160.0 267.89542 160.89543 267.0 162.0 267.0L184.0 267.0C185.10457 267.0 186.0 267.89542 186.0 269.0Z" fill-rule="nonzero"/><path stroke="#000000" stroke-width="0.0" stroke-linecap="butt" stroke-opacity="0.0" clip-path="url(#id_0)" d="M270.0 304.0L244.0 304.0L244.0 240.0C244.0 238.89543 244.89543 238.0 246.0 238.0L268.0 238.0C269.10458 238.0 270.0 238.89543 270.0 240.0Z" fill-rule="nonzero"/><path fill="#4285f4" clip-path="url(#id_0)" d="M270.0 304.0L244.0 304.0L244.0 240.0C244.0 238.89543 244.89543 238.0 246.0 238.0L268.0 238.0C269.10458 238.0 270.0 238.89543 270.0 240.0Z" fill-rule="nonzero"/><path stroke="#000000" stroke-width="0.0" stroke-linecap="butt" stroke-opacity="0.0" clip-path="url(#id_0)" d="M355.0 304.0L329.0 304.0L329.0 206.0C329.0 204.89543 329.89542 204.0 331.0 204.0L353.0 204.0C354.10458 204.0 355.0 204.89543 355.0 206.0Z" fill-rule="nonzero"/><path fill="#4285f4" clip-path="url(#id_0)" d="M355.0 304.0L329.0 304.0L329.0 206.0C329.0 204.89543 329.89542 204.0 331.0 204.0L353.0 204.0C354.10458 204.0 355.0 204.89543 355.0 206.0Z" fill-rule="nonzero"/><path stroke="#000000" stroke-width="0.0" stroke-linecap="butt" stroke-opacity="0.0" clip-path="url(#id_0)" d="M439.0 304.0L413.0 304.0L413.0 170.0C413.0 168.89543 413.89542 168.0 415.0 168.0L437.0 168.0C438.10458 168.0 439.0 168.89543 439.0 170.0Z" fill-rule="nonzero"/><path fill="#4285f4" clip-path="url(#id_0)" d="M439.0 304.0L413.0 304.0L413.0 170.0C413.0 168.89543 413.89542 168.0 415.0 168.0L437.0 168.0C438.10458 168.0 439.0 168.89543 439.0 170.0Z" fill-rule="nonzero"/><path stroke="#000000" stroke-width="0.0" stroke-linecap="butt" stroke-opacity="0.0" clip-path="url(#id_0)" d="M523.0 304.0L497.0 304.0L497.0 141.0C497.0 139.89543 497.89542 139.0 499.0 139.0L521.0 139.0C522.10455 139.0 523.0 139.89543 523.0 141.0Z" fill-rule="nonzero"/><path fill="#4285f4" clip-path="url(#id_0)" d="M523.0 304.0L497.0 304.0L497.0 141.0C497.0 139.89543 497.89542 139.0 499.0 139.0L521.0 139.0C522.10455 139.0 523.0 139.89543 523.0 141.0Z" fill-rule="nonzero"/><path stroke="#000000" stroke-width="0.0" stroke-linecap="butt" stroke-opacity="0.0" clip-path="url(#id_0)" d="M213.0 304.0L187.0 304.0L187.0 259.0C187.0 257.89542 187.89543 257.0 189.0 257.0L211.0 257.0C212.10457 257.0 213.0 257.89542 213.0 259.0Z" fill-rule="nonzero"/><path fill="#db4437" clip-path="url(#id_0)" d="M213.0 304.0L187.0 304.0L187.0 259.0C187.0 257.89542 187.89543 257.0 189.0 257.0L211.0 257.0C212.10457 257.0 213.0 257.89542 213.0 259.0Z" fill-rule="nonzero"/><path stroke="#000000" stroke-width="0.0" stroke-linecap="butt" stroke-opacity="0.0" clip-path="url(#id_0)" d="M297.0 304.0L271.0 304.0L271.0 218.0C271.0 216.89543 271.89542 216.0 273.0 216.0L295.0 216.0C296.10458 216.0 297.0 216.89543 297.0 218.0Z" fill-rule="nonzero"/><path fill="#db4437" clip-path="url(#id_0)" d="M297.0 304.0L271.0 304.0L271.0 218.0C271.0 216.89543 271.89542 216.0 273.0 216.0L295.0 216.0C296.10458 216.0 297.0 216.89543 297.0 218.0Z" fill-rule="nonzero"/><path stroke="#000000" stroke-width="0.0" stroke-linecap="butt" stroke-opacity="0.0" clip-path="url(#id_0)" d="M382.0 304.0L356.0 304.0L356.0 182.0C356.0 180.89543 356.89542 180.0 358.0 180.0L380.0 180.0C381.10458 180.0 382.0 180.89543 382.0 182.0Z" fill-rule="nonzero"/><path fill="#db4437" clip-path="url(#id_0)" d="M382.0 304.0L356.0 304.0L356.0 182.0C356.0 180.89543 356.89542 180.0 358.0 180.0L380.0 180.0C381.10458 180.0 382.0 180.89543 382.0 182.0Z" fill-rule="nonzero"/><path stroke="#000000" stroke-width="0.0" stroke-linecap="butt" stroke-opacity="0.0" clip-path="url(#id_0)" d="M466.0 304.0L440.0 304.0L440.0 144.0C440.0 142.89543 440.89542 142.0 442.0 142.0L464.0 142.0C465.10458 142.0 466.0 142.89543 466.0 144.0Z" fill-rule="nonzero"/><path fill="#db4437" clip-path="url(#id_0)" d="M466.0 304.0L440.0 304.0L440.0 144.0C440.0 142.89543 440.89542 142.0 442.0 142.0L464.0 142.0C465.10458 142.0 466.0 142.89543 466.0 144.0Z" fill-rule="nonzero"/><path stroke="#000000" stroke-width="0.0" stroke-linecap="butt" stroke-opacity="0.0" clip-path="url(#id_0)" d="M550.0 304.0L524.0 304.0L524.0 101.0C524.0 99.89543 524.89545 99.0 526.0 99.0L548.0 99.0C549.10455 99.0 550.0 99.89543 550.0 101.0Z" fill-rule="nonzero"/><path fill="#db4437" clip-path="url(#id_0)" d="M550.0 304.0L524.0 304.0L524.0 101.0C524.0 99.89543 524.89545 99.0 526.0 99.0L548.0 99.0C549.10455 99.0 550.0 99.89543 550.0 101.0Z" fill-rule="nonzero"/><path fill="#757575" d="M38.6125 304.94272Q38.6125 306.84897 37.95625 307.78647Q37.315624 308.70834 35.925 308.70834Q34.565624 308.70834 33.909374 307.8021Q33.253124 306.89584 33.221874 305.08334L33.221874 303.64584Q33.221874 301.75522 33.8625 300.84897Q34.51875 299.9271 35.909374 299.9271Q37.284374 299.9271 37.940624 300.81772Q38.596874 301.69272 38.6125 303.53647L38.6125 304.94272ZM37.51875 303.45834Q37.51875 302.08334 37.128124 301.45834Q36.753124 300.81772 35.909374 300.81772Q35.08125 300.81772 34.690624 301.45834Q34.315624 302.08334 34.315624 303.38022L34.315624 305.1146Q34.315624 306.4896 34.70625 307.16147Q35.1125 307.81772 35.925 307.81772Q36.721874 307.81772 37.1125 307.19272Q37.503124 306.56772 37.51875 305.2396L37.51875 303.45834Z" fill-rule="nonzero"/><path fill="#757575" d="M33.753124 223.74652L34.190624 219.49652L38.565624 219.49652L38.565624 220.49652L35.1125 220.49652L34.846874 222.82465Q35.4875 222.44965 36.284374 222.44965Q37.440624 222.44965 38.128124 223.2309Q38.815624 223.99652 38.815624 225.30902Q38.815624 226.62152 38.096874 227.38715Q37.39375 228.15277 36.1125 228.15277Q34.9875 228.15277 34.26875 227.52777Q33.55 226.88715 33.45625 225.77777L34.471874 225.77777Q34.58125 226.51215 35.003124 226.88715Q35.425 227.26215 36.1125 227.26215Q36.8625 227.26215 37.3 226.74652Q37.7375 226.2309 37.7375 225.32465Q37.7375 224.46527 37.26875 223.94965Q36.8 223.43402 36.01875 223.43402Q35.315624 223.43402 34.909374 223.7309L34.628124 223.96527L33.753124 223.74652Z" fill-rule="nonzero"/><path fill="#757575" d="M29.815624 147.47223L28.7375 147.47223L28.7375 140.25348L26.55 141.05035L26.55 140.06598L29.659374 138.8941L29.815624 138.8941L29.815624 147.47223ZM38.6125 143.8316Q38.6125 145.73785 37.95625 146.67535Q37.315624 147.59723 35.925 147.59723Q34.565624 147.59723 33.909374 146.69098Q33.253124 145.78473 33.221874 143.97223L33.221874 142.53473Q33.221874 140.6441 33.8625 139.73785Q34.51875 138.81598 35.909374 138.81598Q37.284374 138.81598 37.940624 139.7066Q38.596874 140.5816 38.6125 142.42535L38.6125 143.8316ZM37.51875 142.34723Q37.51875 140.97223 37.128124 140.34723Q36.753124 139.7066 35.909374 139.7066Q35.08125 139.7066 34.690624 140.34723Q34.315624 140.97223 34.315624 142.2691L34.315624 144.00348Q34.315624 145.37848 34.70625 146.05035Q35.1125 146.7066 35.925 146.7066Q36.721874 146.7066 37.1125 146.0816Q37.503124 145.4566 37.51875 144.12848L37.51875 142.34723Z" fill-rule="nonzero"/><path fill="#757575" d="M29.815624 66.916664L28.7375 66.916664L28.7375 59.697914L26.55 60.49479L26.55 59.510414L29.659374 58.33854L29.815624 58.33854L29.815624 66.916664ZM33.753124 62.635414L34.190624 58.385414L38.565624 58.385414L38.565624 59.385414L35.1125 59.385414L34.846874 61.71354Q35.4875 61.33854 36.284374 61.33854Q37.440624 61.33854 38.128124 62.11979Q38.815624 62.885414 38.815624 64.197914Q38.815624 65.510414 38.096874 66.27604Q37.39375 67.041664 36.1125 67.041664Q34.9875 67.041664 34.26875 66.416664Q33.55 65.77604 33.45625 64.666664L34.471874 64.666664Q34.58125 65.40104 35.003124 65.77604Q35.425 66.15104 36.1125 66.15104Q36.8625 66.15104 37.3 65.635414Q37.7375 65.11979 37.7375 64.21354Q37.7375 63.354164 37.26875 62.83854Q36.8 62.322914 36.01875 62.322914Q35.315624 62.322914 34.909374 62.61979L34.628124 62.854164L33.753124 62.635414Z" fill-rule="nonzero"/><path fill="#757575" d="M96.28137 322.08334L95.20325 322.08334L95.20325 314.8646L93.01575 315.66147L93.01575 314.6771L96.12512 313.50522L96.28137 313.50522L96.28137 322.08334ZM100.21887 317.8021L100.65637 313.5521L105.03137 313.5521L105.03137 314.5521L101.57825 314.5521L101.31262 316.88022Q101.95325 316.50522 102.75012 316.50522Q103.90637 316.50522 104.59387 317.28647Q105.28137 318.0521 105.28137 319.3646Q105.28137 320.6771 104.56262 321.44272Q103.8595 322.20834 102.57825 322.20834Q101.45325 322.20834 100.7345 321.58334Q100.01575 320.94272 99.922 319.83334L100.93762 319.83334Q101.047 320.56772 101.46887 320.94272Q101.89075 321.31772 102.57825 321.31772Q103.32825 321.31772 103.76575 320.8021Q104.20325 320.28647 104.20325 319.38022Q104.20325 318.52084 103.7345 318.00522Q103.26575 317.4896 102.4845 317.4896Q101.78137 317.4896 101.37512 317.78647L101.09387 318.02084L100.21887 317.8021ZM112.07825 318.44272Q112.07825 320.34897 111.422 321.28647Q110.78137 322.20834 109.39075 322.20834Q108.03137 322.20834 107.37512 321.3021Q106.71887 320.39584 106.68762 318.58334L106.68762 317.14584Q106.68762 315.25522 107.32825 314.34897Q107.9845 313.4271 109.37512 313.4271Q110.75012 313.4271 111.40637 314.31772Q112.06262 315.19272 112.07825 317.03647L112.07825 318.44272ZM110.9845 316.95834Q110.9845 315.58334 110.59387 314.95834Q110.21887 314.31772 109.37512 314.31772Q108.547 314.31772 108.15637 314.95834Q107.78137 315.58334 107.78137 316.88022L107.78137 318.6146Q107.78137 319.9896 108.172 320.66147Q108.57825 321.31772 109.39075 321.31772Q110.18762 321.31772 110.57825 320.69272Q110.96887 320.06772 110.9845 318.7396L110.9845 316.95834Z" fill-rule="nonzero"/><path fill="#757575" d="M178.6907 317.28647L179.5032 317.28647Q180.28445 317.27084 180.72195 316.88022Q181.15945 316.4896 181.15945 315.81772Q181.15945 314.31772 179.65945 314.31772Q178.95633 314.31772 178.53445 314.72397Q178.1282 315.13022 178.1282 315.78647L177.03445 315.78647Q177.03445 314.77084 177.76883 314.09897Q178.51883 313.4271 179.65945 313.4271Q180.86258 313.4271 181.55008 314.06772Q182.23758 314.70834 182.23758 315.84897Q182.23758 316.41147 181.8782 316.9271Q181.51883 317.44272 180.89383 317.70834Q181.59695 317.9271 181.97195 318.44272Q182.36258 318.95834 182.36258 319.70834Q182.36258 320.84897 181.61258 321.53647Q180.86258 322.20834 179.65945 322.20834Q178.47195 322.20834 177.70633 321.5521Q176.95633 320.89584 176.95633 319.83334L178.05008 319.83334Q178.05008 320.50522 178.48758 320.91147Q178.92508 321.31772 179.67508 321.31772Q180.45633 321.31772 180.86258 320.91147Q181.28445 320.4896 181.28445 319.72397Q181.28445 318.9896 180.83133 318.59897Q180.3782 318.19272 179.5032 318.1771L178.6907 318.1771L178.6907 317.28647ZM189.47195 318.44272Q189.47195 320.34897 188.8157 321.28647Q188.17508 322.20834 186.78445 322.20834Q185.42508 322.20834 184.76883 321.3021Q184.11258 320.39584 184.08133 318.58334L184.08133 317.14584Q184.08133 315.25522 184.72195 314.34897Q185.3782 313.4271 186.76883 313.4271Q188.14383 313.4271 188.80008 314.31772Q189.45633 315.19272 189.47195 317.03647L189.47195 318.44272ZM188.3782 316.95834Q188.3782 315.58334 187.98758 314.95834Q187.61258 314.31772 186.76883 314.31772Q185.9407 314.31772 185.55008 314.95834Q185.17508 315.58334 185.17508 316.88022L185.17508 318.6146Q185.17508 319.9896 185.5657 320.66147Q185.97195 321.31772 186.78445 321.31772Q187.58133 321.31772 187.97195 320.69272Q188.36258 320.06772 188.3782 318.7396L188.3782 316.95834ZM196.47195 318.44272Q196.47195 320.34897 195.8157 321.28647Q195.17508 322.20834 193.78445 322.20834Q192.42508 322.20834 191.76883 321.3021Q191.11258 320.39584 191.08133 318.58334L191.08133 317.14584Q191.08133 315.25522 191.72195 314.34897Q192.3782 313.4271 193.76883 313.4271Q195.14383 313.4271 195.80008 314.31772Q196.45633 315.19272 196.47195 317.03647L196.47195 318.44272ZM195.3782 316.95834Q195.3782 315.58334 194.98758 314.95834Q194.61258 314.31772 193.76883 314.31772Q192.9407 314.31772 192.55008 314.95834Q192.17508 315.58334 192.17508 316.88022L192.17508 318.6146Q192.17508 319.9896 192.5657 320.66147Q192.97195 321.31772 193.78445 321.31772Q194.58133 321.31772 194.97195 320.69272Q195.36258 320.06772 195.3782 318.7396L195.3782 316.95834Z" fill-rule="nonzero"/><path fill="#757575" d="M265.7719 313.5521L265.7719 314.45834L265.5688 314.45834Q264.30316 314.4896 263.55316 315.22397Q262.80316 315.94272 262.67816 317.25522Q263.36566 316.4896 264.5219 316.4896Q265.6313 316.4896 266.30316 317.27084Q266.97504 318.0521 266.97504 319.3021Q266.97504 320.6146 266.2563 321.41147Q265.53754 322.20834 264.3188 322.20834Q263.10004 322.20834 262.3344 321.27084Q261.5844 320.31772 261.5844 318.83334L261.5844 318.4271Q261.5844 316.06772 262.5844 314.81772Q263.5844 313.56772 265.5688 313.5521L265.7719 313.5521ZM264.35004 317.39584Q263.78754 317.39584 263.3188 317.72397Q262.85004 318.0521 262.66254 318.56772L262.66254 318.95834Q262.66254 320.02084 263.1313 320.66147Q263.61566 321.3021 264.3188 321.3021Q265.05316 321.3021 265.47504 320.77084Q265.8969 320.22397 265.8969 319.34897Q265.8969 318.47397 265.47504 317.94272Q265.05316 317.39584 264.35004 317.39584ZM273.86566 318.44272Q273.86566 320.34897 273.2094 321.28647Q272.5688 322.20834 271.17816 322.20834Q269.8188 322.20834 269.16254 321.3021Q268.5063 320.39584 268.47504 318.58334L268.47504 317.14584Q268.47504 315.25522 269.11566 314.34897Q269.7719 313.4271 271.16254 313.4271Q272.53754 313.4271 273.1938 314.31772Q273.85004 315.19272 273.86566 317.03647L273.86566 318.44272ZM272.7719 316.95834Q272.7719 315.58334 272.3813 314.95834Q272.0063 314.31772 271.16254 314.31772Q270.3344 314.31772 269.9438 314.95834Q269.5688 315.58334 269.5688 316.88022L269.5688 318.6146Q269.5688 319.9896 269.9594 320.66147Q270.36566 321.31772 271.17816 321.31772Q271.97504 321.31772 272.36566 320.69272Q272.7563 320.06772 272.7719 318.7396L272.7719 316.95834ZM280.86566 318.44272Q280.86566 320.34897 280.2094 321.28647Q279.5688 322.20834 278.17816 322.20834Q276.8188 322.20834 276.16254 321.3021Q275.5063 320.39584 275.47504 318.58334L275.47504 317.14584Q275.47504 315.25522 276.11566 314.34897Q276.7719 313.4271 278.16254 313.4271Q279.53754 313.4271 280.1938 314.31772Q280.85004 315.19272 280.86566 317.03647L280.86566 318.44272ZM279.7719 316.95834Q279.7719 315.58334 279.3813 314.95834Q279.0063 314.31772 278.16254 314.31772Q277.3344 314.31772 276.9438 314.95834Q276.5688 315.58334 276.5688 316.88022L276.5688 318.6146Q276.5688 319.9896 276.9594 320.66147Q277.36566 321.31772 278.17816 321.31772Q278.97504 321.31772 279.36566 320.69272Q279.7563 320.06772 279.7719 318.7396L279.7719 316.95834Z" fill-rule="nonzero"/><path fill="#757575" d="M350.0562 318.33334Q349.7281 318.7396 349.2437 318.9896Q348.77496 319.22397 348.21246 319.22397Q347.4781 319.22397 346.9312 318.8646Q346.38434 318.50522 346.08746 317.84897Q345.7906 317.1771 345.7906 316.38022Q345.7906 315.53647 346.1031 314.84897Q346.4312 314.16147 347.02496 313.8021Q347.63434 313.4271 348.4312 313.4271Q349.69684 313.4271 350.4156 314.38022Q351.14996 315.33334 351.14996 316.95834L351.14996 317.27084Q351.14996 319.77084 350.1656 320.91147Q349.1812 322.0521 347.19684 322.08334L346.9781 322.08334L346.9781 321.1771L347.21246 321.1771Q348.5562 321.14584 349.27496 320.47397Q349.9937 319.8021 350.0562 318.33334ZM348.38434 318.33334Q348.9312 318.33334 349.38434 318.00522Q349.8531 317.66147 350.07184 317.1771L350.07184 316.7396Q350.07184 315.6771 349.6031 315.00522Q349.13434 314.33334 348.4312 314.33334Q347.71246 314.33334 347.27496 314.88022Q346.8531 315.4271 346.8531 316.33334Q346.8531 317.20834 347.25934 317.77084Q347.6812 318.33334 348.38434 318.33334ZM358.25934 318.44272Q358.25934 320.34897 357.6031 321.28647Q356.96246 322.20834 355.57184 322.20834Q354.21246 322.20834 353.5562 321.3021Q352.89996 320.39584 352.8687 318.58334L352.8687 317.14584Q352.8687 315.25522 353.50934 314.34897Q354.1656 313.4271 355.5562 313.4271Q356.9312 313.4271 357.58746 314.31772Q358.2437 315.19272 358.25934 317.03647L358.25934 318.44272ZM357.1656 316.95834Q357.1656 315.58334 356.77496 314.95834Q356.39996 314.31772 355.5562 314.31772Q354.7281 314.31772 354.33746 314.95834Q353.96246 315.58334 353.96246 316.88022L353.96246 318.6146Q353.96246 319.9896 354.3531 320.66147Q354.75934 321.31772 355.57184 321.31772Q356.3687 321.31772 356.75934 320.69272Q357.14996 320.06772 357.1656 318.7396L357.1656 316.95834ZM365.25934 318.44272Q365.25934 320.34897 364.6031 321.28647Q363.96246 322.20834 362.57184 322.20834Q361.21246 322.20834 360.5562 321.3021Q359.89996 320.39584 359.8687 318.58334L359.8687 317.14584Q359.8687 315.25522 360.50934 314.34897Q361.1656 313.4271 362.5562 313.4271Q363.9312 313.4271 364.58746 314.31772Q365.2437 315.19272 365.25934 317.03647L365.25934 318.44272ZM364.1656 316.95834Q364.1656 315.58334 363.77496 314.95834Q363.39996 314.31772 362.5562 314.31772Q361.7281 314.31772 361.33746 314.95834Q360.96246 315.58334 360.96246 316.88022L360.96246 318.6146Q360.96246 319.9896 361.3531 320.66147Q361.75934 321.31772 362.57184 321.31772Q363.3687 321.31772 363.75934 320.69272Q364.14996 320.06772 364.1656 318.7396L364.1656 316.95834Z" fill-rule="nonzero"/><path fill="#757575" d="M430.35617 322.08334L429.27805 322.08334L429.27805 314.8646L427.09055 315.66147L427.09055 314.6771L430.19992 313.50522L430.35617 313.50522L430.35617 322.08334ZM439.38742 322.08334L433.79367 322.08334L433.79367 321.3021L436.7468 318.02084Q437.40305 317.27084 437.65305 316.81772Q437.90305 316.34897 437.90305 315.84897Q437.90305 315.1771 437.4968 314.75522Q437.10617 314.31772 436.41867 314.31772Q435.6218 314.31772 435.16867 314.78647Q434.71555 315.2396 434.71555 316.06772L433.63742 316.06772Q433.63742 314.88022 434.38742 314.16147Q435.15305 313.4271 436.41867 313.4271Q437.6218 313.4271 438.3093 314.0521Q438.9968 314.6771 438.9968 315.72397Q438.9968 316.97397 437.38742 318.72397L435.10617 321.19272L439.38742 321.19272L439.38742 322.08334ZM446.15305 318.44272Q446.15305 320.34897 445.4968 321.28647Q444.85617 322.20834 443.46555 322.20834Q442.10617 322.20834 441.44992 321.3021Q440.79367 320.39584 440.76242 318.58334L440.76242 317.14584Q440.76242 315.25522 441.40305 314.34897Q442.0593 313.4271 443.44992 313.4271Q444.82492 313.4271 445.48117 314.31772Q446.13742 315.19272 446.15305 317.03647L446.15305 318.44272ZM445.0593 316.95834Q445.0593 315.58334 444.66867 314.95834Q444.29367 314.31772 443.44992 314.31772Q442.6218 314.31772 442.23117 314.95834Q441.85617 315.58334 441.85617 316.88022L441.85617 318.6146Q441.85617 319.9896 442.2468 320.66147Q442.65305 321.31772 443.46555 321.31772Q444.26242 321.31772 444.65305 320.69272Q445.04367 320.06772 445.0593 318.7396L445.0593 316.95834ZM453.15305 318.44272Q453.15305 320.34897 452.4968 321.28647Q451.85617 322.20834 450.46555 322.20834Q449.10617 322.20834 448.44992 321.3021Q447.79367 320.39584 447.76242 318.58334L447.76242 317.14584Q447.76242 315.25522 448.40305 314.34897Q449.0593 313.4271 450.44992 313.4271Q451.82492 313.4271 452.48117 314.31772Q453.13742 315.19272 453.15305 317.03647L453.15305 318.44272ZM452.0593 316.95834Q452.0593 315.58334 451.66867 314.95834Q451.29367 314.31772 450.44992 314.31772Q449.6218 314.31772 449.23117 314.95834Q448.85617 315.58334 448.85617 316.88022L448.85617 318.6146Q448.85617 319.9896 449.2468 320.66147Q449.65305 321.31772 450.46555 321.31772Q451.26242 321.31772 451.65305 320.69272Q452.04367 320.06772 452.0593 318.7396L452.0593 316.95834Z" fill-rule="nonzero"/><path fill="#757575" d="M514.7499 322.08334L513.67175 322.08334L513.67175 314.8646L511.48425 315.66147L511.48425 314.6771L514.5936 313.50522L514.7499 313.50522L514.7499 322.08334ZM518.6874 317.8021L519.1249 313.5521L523.4999 313.5521L523.4999 314.5521L520.04675 314.5521L519.7811 316.88022Q520.42175 316.50522 521.2186 316.50522Q522.3749 316.50522 523.0624 317.28647Q523.7499 318.0521 523.7499 319.3646Q523.7499 320.6771 523.0311 321.44272Q522.328 322.20834 521.04675 322.20834Q519.92175 322.20834 519.203 321.58334Q518.48425 320.94272 518.3905 319.83334L519.4061 319.83334Q519.5155 320.56772 519.9374 320.94272Q520.35925 321.31772 521.04675 321.31772Q521.79675 321.31772 522.23425 320.8021Q522.67175 320.28647 522.67175 319.38022Q522.67175 318.52084 522.203 318.00522Q521.73425 317.4896 520.953 317.4896Q520.2499 317.4896 519.8436 317.78647L519.5624 318.02084L518.6874 317.8021ZM530.54675 318.44272Q530.54675 320.34897 529.8905 321.28647Q529.2499 322.20834 527.85925 322.20834Q526.4999 322.20834 525.8436 321.3021Q525.1874 320.39584 525.1561 318.58334L525.1561 317.14584Q525.1561 315.25522 525.79675 314.34897Q526.453 313.4271 527.8436 313.4271Q529.2186 313.4271 529.8749 314.31772Q530.5311 315.19272 530.54675 317.03647L530.54675 318.44272ZM529.453 316.95834Q529.453 315.58334 529.0624 314.95834Q528.6874 314.31772 527.8436 314.31772Q527.0155 314.31772 526.6249 314.95834Q526.2499 315.58334 526.2499 316.88022L526.2499 318.6146Q526.2499 319.9896 526.6405 320.66147Q527.04675 321.31772 527.85925 321.31772Q528.6561 321.31772 529.04675 320.69272Q529.4374 320.06772 529.453 318.7396L529.453 316.95834ZM537.54675 318.44272Q537.54675 320.34897 536.8905 321.28647Q536.2499 322.20834 534.85925 322.20834Q533.4999 322.20834 532.8436 321.3021Q532.1874 320.39584 532.1561 318.58334L532.1561 317.14584Q532.1561 315.25522 532.79675 314.34897Q533.453 313.4271 534.8436 313.4271Q536.2186 313.4271 536.8749 314.31772Q537.5311 315.19272 537.54675 317.03647L537.54675 318.44272ZM536.453 316.95834Q536.453 315.58334 536.0624 314.95834Q535.6874 314.31772 534.8436 314.31772Q534.0155 314.31772 533.6249 314.95834Q533.2499 315.58334 533.2499 316.88022L533.2499 318.6146Q533.2499 319.9896 533.6405 320.66147Q534.04675 321.31772 534.85925 321.31772Q535.6561 321.31772 536.04675 320.69272Q536.4374 320.06772 536.453 318.7396L536.453 316.95834Z" fill-rule="nonzero"/><path fill="#4285f4" d="M215.0 339.95C215.0 339.3977 215.44771 338.95 216.0 338.95L226.0 338.95C226.55229 338.95 227.0 339.3977 227.0 339.95L227.0 349.95C227.0 350.5023 226.55229 350.95 226.0 350.95L216.0 350.95C215.44771 350.95 215.0 350.5023 215.0 349.95Z" fill-rule="nonzero"/><path fill="#757575" d="M238.5 345.65314Q237.0625 345.23126 236.39062 344.6219Q235.73438 344.0125 235.73438 343.1219Q235.73438 342.1219 236.53125 341.46564Q237.34375 340.79376 238.64062 340.79376Q239.51562 340.79376 240.20312 341.1375Q240.89062 341.48126 241.26562 342.075Q241.65625 342.66876 241.65625 343.3875L240.51562 343.3875Q240.51562 342.60626 240.01562 342.16876Q239.53125 341.73126 238.64062 341.73126Q237.8125 341.73126 237.34375 342.10626Q236.875 342.46564 236.875 343.10626Q236.875 343.6375 237.3125 343.9969Q237.76562 344.35626 238.82812 344.65314Q239.89062 344.95 240.48438 345.3094Q241.09375 345.66876 241.375 346.15314Q241.67188 346.6375 241.67188 347.27814Q241.67188 348.325 240.85938 348.95Q240.04688 349.575 238.70312 349.575Q237.8125 349.575 237.04688 349.23126Q236.29688 348.8875 235.875 348.3094Q235.46875 347.71564 235.46875 346.98126L236.59375 346.98126Q236.59375 347.7469 237.17188 348.2Q237.75 348.65314 238.70312 348.65314Q239.59375 348.65314 240.0625 348.29376Q240.53125 347.91876 240.53125 347.29376Q240.53125 346.66876 240.09375 346.325Q239.65625 345.98126 238.5 345.65314ZM244.0 349.45L242.92188 349.45L242.92188 343.10626L244.0 343.10626L244.0 349.45ZM242.82812 341.4344Q242.82812 341.16876 242.98438 340.98126Q243.15625 340.79376 243.46875 340.79376Q243.78125 340.79376 243.9375 340.98126Q244.10938 341.16876 244.10938 341.4344Q244.10938 341.6844 243.9375 341.8719Q243.78125 342.04376 243.46875 342.04376Q243.15625 342.04376 242.98438 341.8719Q242.82812 341.6844 242.82812 341.4344ZM246.84375 343.10626L246.875 343.90314Q247.60938 342.9969 248.78125 342.9969Q250.79688 342.9969 250.8125 345.2625L250.8125 349.45L249.71875 349.45L249.71875 345.2469Q249.71875 344.575 249.40625 344.2469Q249.10938 343.91876 248.45312 343.91876Q247.92188 343.91876 247.51562 344.2Q247.125 344.48126 246.90625 344.9344L246.90625 349.45L245.82812 349.45L245.82812 343.10626L246.84375 343.10626ZM252.5625 346.23126Q252.5625 344.7469 253.25 343.8719Q253.9375 342.9969 255.0625 342.9969Q256.21875 342.9969 256.875 343.8094L256.92188 343.10626L257.92188 343.10626L257.92188 349.29376Q257.92188 350.52814 257.1875 351.23126Q256.45312 351.95 255.23438 351.95Q254.54688 351.95 253.89062 351.65314Q253.23438 351.35626 252.89062 350.85626L253.45312 350.2Q254.14062 351.0594 255.15625 351.0594Q255.9375 351.0594 256.375 350.60626Q256.82812 350.16876 256.82812 349.35626L256.82812 348.8094Q256.17188 349.575 255.04688 349.575Q253.9375 349.575 253.25 348.6844Q252.5625 347.77814 252.5625 346.23126ZM253.65625 346.35626Q253.65625 347.41876 254.09375 348.04376Q254.53125 348.65314 255.32812 348.65314Q256.34375 348.65314 256.82812 347.71564L256.82812 344.825Q256.32812 343.91876 255.32812 343.91876Q254.54688 343.91876 254.09375 344.52814Q253.65625 345.1375 253.65625 346.35626ZM261.0 349.45L259.92188 349.45L259.92188 340.45L261.0 340.45L261.0 349.45ZM265.45312 349.575Q264.15625 349.575 263.34375 348.73126Q262.54688 347.8719 262.54688 346.45L262.54688 346.2625Q262.54688 345.3094 262.90625 344.575Q263.26562 343.825 263.90625 343.41876Q264.5625 342.9969 265.3125 342.9969Q266.54688 342.9969 267.23438 343.8094Q267.92188 344.6219 267.92188 346.1375L267.92188 346.59064L263.625 346.59064Q263.65625 347.52814 264.17188 348.10626Q264.70312 348.6844 265.51562 348.6844Q266.07812 348.6844 266.46875 348.45Q266.875 348.21564 267.1875 347.825L267.84375 348.34064Q267.04688 349.575 265.45312 349.575ZM265.3125 343.8875Q264.65625 343.8875 264.20312 344.3719Q263.76562 344.84064 263.67188 345.7L266.84375 345.7L266.84375 345.6219Q266.79688 344.79376 266.39062 344.34064Q266.0 343.8875 265.3125 343.8875ZM272.82812 348.52814L277.71875 348.52814L277.71875 349.45L271.5 349.45L271.5 348.60626L276.1875 341.84064L271.57812 341.84064L271.57812 340.91876L277.53125 340.91876L277.53125 341.7469L272.82812 348.52814ZM278.53125 346.21564Q278.53125 345.29376 278.89062 344.54376Q279.26562 343.79376 279.92188 343.40314Q280.57812 342.9969 281.40625 342.9969Q282.70312 342.9969 283.5 343.8875Q284.3125 344.77814 284.3125 346.27814L284.3125 346.35626Q284.3125 347.27814 283.95312 348.0125Q283.59375 348.7469 282.9375 349.16876Q282.28125 349.575 281.42188 349.575Q280.14062 349.575 279.32812 348.6844Q278.53125 347.77814 278.53125 346.29376L278.53125 346.21564ZM279.625 346.35626Q279.625 347.40314 280.10938 348.04376Q280.60938 348.6844 281.42188 348.6844Q282.25 348.6844 282.73438 348.04376Q283.21875 347.3875 283.21875 346.21564Q283.21875 345.1844 282.71875 344.54376Q282.23438 343.8875 281.40625 343.8875Q280.60938 343.8875 280.10938 344.52814Q279.625 345.15314 279.625 346.35626ZM286.84375 343.10626L286.875 343.90314Q287.60938 342.9969 288.78125 342.9969Q290.79688 342.9969 290.8125 345.2625L290.8125 349.45L289.71875 349.45L289.71875 345.2469Q289.71875 344.575 289.40625 344.2469Q289.10938 343.91876 288.45312 343.91876Q287.92188 343.91876 287.51562 344.2Q287.125 344.48126 286.90625 344.9344L286.90625 349.45L285.82812 349.45L285.82812 343.10626L286.84375 343.10626ZM296.73438 349.45Q296.64062 349.2625 296.57812 348.77814Q295.82812 349.575 294.78125 349.575Q293.84375 349.575 293.23438 349.04376Q292.64062 348.5125 292.64062 347.6844Q292.64062 346.7 293.39062 346.15314Q294.14062 345.60626 295.51562 345.60626L296.5625 345.60626L296.5625 345.10626Q296.5625 344.54376 296.21875 344.21564Q295.89062 343.8719 295.21875 343.8719Q294.64062 343.8719 294.25 344.16876Q293.85938 344.45 293.85938 344.8719L292.76562 344.8719Q292.76562 344.3875 293.09375 343.95Q293.4375 343.5125 294.01562 343.2625Q294.59375 342.9969 295.28125 342.9969Q296.39062 342.9969 297.0 343.54376Q297.625 344.09064 297.65625 345.04376L297.65625 347.96564Q297.65625 348.84064 297.875 349.35626L297.875 349.45L296.73438 349.45ZM294.9375 348.6219Q295.45312 348.6219 295.90625 348.35626Q296.35938 348.09064 296.5625 347.66876L296.5625 346.3719L295.71875 346.3719Q293.71875 346.3719 293.71875 347.54376Q293.71875 348.04376 294.0625 348.34064Q294.40625 348.6219 294.9375 348.6219ZM301.0 349.45L299.92188 349.45L299.92188 340.45L301.0 340.45L301.0 349.45Z" fill-rule="nonzero"/><path fill="#db4437" d="M318.0 339.95C318.0 339.3977 318.44772 338.95 319.0 338.95L329.0 338.95C329.55228 338.95 330.0 339.3977 330.0 339.95L330.0 349.95C330.0 350.5023 329.55228 350.95 329.0 350.95L319.0 350.95C318.44772 350.95 318.0 350.5023 318.0 349.95Z" fill-rule="nonzero"/><path fill="#757575" d="M342.125 345.9969L340.10938 345.9969L340.10938 349.45L338.98438 349.45L338.98438 340.91876L341.8125 340.91876Q343.25 340.91876 344.01562 341.575Q344.79688 342.23126 344.79688 343.48126Q344.79688 344.27814 344.35938 344.8719Q343.9375 345.46564 343.17188 345.7625L345.17188 349.3719L345.17188 349.45L343.96875 349.45L342.125 345.9969ZM340.10938 345.075L341.84375 345.075Q342.6875 345.075 343.17188 344.65314Q343.67188 344.21564 343.67188 343.48126Q343.67188 342.7 343.20312 342.27814Q342.73438 341.85626 341.84375 341.84064L340.10938 341.84064L340.10938 345.075ZM348.45312 349.575Q347.15625 349.575 346.34375 348.73126Q345.54688 347.8719 345.54688 346.45L345.54688 346.2625Q345.54688 345.3094 345.90625 344.575Q346.26562 343.825 346.90625 343.41876Q347.5625 342.9969 348.3125 342.9969Q349.54688 342.9969 350.23438 343.8094Q350.92188 344.6219 350.92188 346.1375L350.92188 346.59064L346.625 346.59064Q346.65625 347.52814 347.17188 348.10626Q347.70312 348.6844 348.51562 348.6844Q349.07812 348.6844 349.46875 348.45Q349.875 348.21564 350.1875 347.825L350.84375 348.34064Q350.04688 349.575 348.45312 349.575ZM348.3125 343.8875Q347.65625 343.8875 347.20312 344.3719Q346.76562 344.84064 346.67188 345.7L349.84375 345.7L349.84375 345.6219Q349.79688 344.79376 349.39062 344.34064Q349.0 343.8875 348.3125 343.8875ZM351.5625 346.23126Q351.5625 344.7469 352.25 343.8719Q352.9375 342.9969 354.0625 342.9969Q355.21875 342.9969 355.875 343.8094L355.92188 343.10626L356.92188 343.10626L356.92188 349.29376Q356.92188 350.52814 356.1875 351.23126Q355.45312 351.95 354.23438 351.95Q353.54688 351.95 352.89062 351.65314Q352.23438 351.35626 351.89062 350.85626L352.45312 350.2Q353.14062 351.0594 354.15625 351.0594Q354.9375 351.0594 355.375 350.60626Q355.82812 350.16876 355.82812 349.35626L355.82812 348.8094Q355.17188 349.575 354.04688 349.575Q352.9375 349.575 352.25 348.6844Q351.5625 347.77814 351.5625 346.23126ZM352.65625 346.35626Q352.65625 347.41876 353.09375 348.04376Q353.53125 348.65314 354.32812 348.65314Q355.34375 348.65314 355.82812 347.71564L355.82812 344.825Q355.32812 343.91876 354.32812 343.91876Q353.54688 343.91876 353.09375 344.52814Q352.65625 345.1375 352.65625 346.35626ZM360.0 349.45L358.92188 349.45L358.92188 343.10626L360.0 343.10626L360.0 349.45ZM358.82812 341.4344Q358.82812 341.16876 358.98438 340.98126Q359.15625 340.79376 359.46875 340.79376Q359.78125 340.79376 359.9375 340.98126Q360.10938 341.16876 360.10938 341.4344Q360.10938 341.6844 359.9375 341.8719Q359.78125 342.04376 359.46875 342.04376Q359.15625 342.04376 358.98438 341.8719Q358.82812 341.6844 358.82812 341.4344ZM361.53125 346.21564Q361.53125 345.29376 361.89062 344.54376Q362.26562 343.79376 362.92188 343.40314Q363.57812 342.9969 364.40625 342.9969Q365.70312 342.9969 366.5 343.8875Q367.3125 344.77814 367.3125 346.27814L367.3125 346.35626Q367.3125 347.27814 366.95312 348.0125Q366.59375 348.7469 365.9375 349.16876Q365.28125 349.575 364.42188 349.575Q363.14062 349.575 362.32812 348.6844Q361.53125 347.77814 361.53125 346.29376L361.53125 346.21564ZM362.625 346.35626Q362.625 347.40314 363.10938 348.04376Q363.60938 348.6844 364.42188 348.6844Q365.25 348.6844 365.73438 348.04376Q366.21875 347.3875 366.21875 346.21564Q366.21875 345.1844 365.71875 344.54376Q365.23438 343.8875 364.40625 343.8875Q363.60938 343.8875 363.10938 344.52814Q362.625 345.15314 362.625 346.35626ZM369.84375 343.10626L369.875 343.90314Q370.60938 342.9969 371.78125 342.9969Q373.79688 342.9969 373.8125 345.2625L373.8125 349.45L372.71875 349.45L372.71875 345.2469Q372.71875 344.575 372.40625 344.2469Q372.10938 343.91876 371.45312 343.91876Q370.92188 343.91876 370.51562 344.2Q370.125 344.48126 369.90625 344.9344L369.90625 349.45L368.82812 349.45L368.82812 343.10626L369.84375 343.10626ZM379.73438 349.45Q379.64062 349.2625 379.57812 348.77814Q378.82812 349.575 377.78125 349.575Q376.84375 349.575 376.23438 349.04376Q375.64062 348.5125 375.64062 347.6844Q375.64062 346.7 376.39062 346.15314Q377.14062 345.60626 378.51562 345.60626L379.5625 345.60626L379.5625 345.10626Q379.5625 344.54376 379.21875 344.21564Q378.89062 343.8719 378.21875 343.8719Q377.64062 343.8719 377.25 344.16876Q376.85938 344.45 376.85938 344.8719L375.76562 344.8719Q375.76562 344.3875 376.09375 343.95Q376.4375 343.5125 377.01562 343.2625Q377.59375 342.9969 378.28125 342.9969Q379.39062 342.9969 380.0 343.54376Q380.625 344.09064 380.65625 345.04376L380.65625 347.96564Q380.65625 348.84064 380.875 349.35626L380.875 349.45L379.73438 349.45ZM377.9375 348.6219Q378.45312 348.6219 378.90625 348.35626Q379.35938 348.09064 379.5625 347.66876L379.5625 346.3719L378.71875 346.3719Q376.71875 346.3719 376.71875 347.54376Q376.71875 348.04376 377.0625 348.34064Q377.40625 348.6219 377.9375 348.6219ZM384.0 349.45L382.92188 349.45L382.92188 340.45L384.0 340.45L384.0 349.45Z" fill-rule="nonzero"/><path fill="#757575" d="M24.39375 31.20625Q21.971874 30.51875 20.878124 29.51875Q19.784374 28.503124 19.784374 27.01875Q19.784374 25.33125 21.128124 24.2375Q22.471874 23.128124 24.6125 23.128124Q26.08125 23.128124 27.221874 23.70625Q28.378124 24.26875 29.003124 25.26875Q29.628124 26.253124 29.628124 27.440624L27.753124 27.440624Q27.753124 26.159374 26.925 25.425Q26.1125 24.675 24.6125 24.675Q23.221874 24.675 22.440624 25.284374Q21.675 25.89375 21.675 26.9875Q21.675 27.846874 22.409374 28.45625Q23.14375 29.05 24.909374 29.55Q26.690624 30.05 27.690624 30.659374Q28.690624 31.253124 29.175 32.05Q29.659374 32.846874 29.659374 33.940624Q29.659374 35.659374 28.315624 36.70625Q26.971874 37.753124 24.70625 37.753124Q23.253124 37.753124 21.971874 37.190624Q20.70625 36.628124 20.01875 35.659374Q19.33125 34.675 19.33125 33.425L21.221874 33.425Q21.221874 34.721874 22.175 35.471874Q23.128124 36.20625 24.70625 36.20625Q26.190624 36.20625 26.9875 35.6125Q27.784374 35.003124 27.784374 33.95625Q27.784374 32.909374 27.05 32.346874Q26.315624 31.76875 24.39375 31.20625ZM33.878124 37.55L32.08125 37.55L32.08125 26.9875L33.878124 26.9875L33.878124 37.55ZM31.925 24.175Q31.925 23.7375 32.190624 23.440624Q32.471874 23.128124 32.9875 23.128124Q33.51875 23.128124 33.784374 23.440624Q34.065624 23.7375 34.065624 24.175Q34.065624 24.6125 33.784374 24.909374Q33.51875 25.20625 32.9875 25.20625Q32.471874 25.20625 32.190624 24.909374Q31.925 24.6125 31.925 24.175ZM38.628124 26.9875L38.690624 28.315624Q39.89375 26.784374 41.846874 26.784374Q45.20625 26.784374 45.221874 30.565624L45.221874 37.55L43.425 37.55L43.425 30.55Q43.409374 29.409374 42.89375 28.8625Q42.39375 28.315624 41.3 28.315624Q40.425 28.315624 39.753124 28.784374Q39.096874 29.253124 38.721874 30.01875L38.721874 37.55L36.925 37.55L36.925 26.9875L38.628124 26.9875ZM47.4875 32.175Q47.4875 29.70625 48.628124 28.253124Q49.76875 26.784374 51.659374 26.784374Q53.596874 26.784374 54.675 28.159374L54.76875 26.9875L56.409374 26.9875L56.409374 37.3Q56.409374 39.346874 55.190624 40.51875Q53.9875 41.70625 51.925 41.70625Q50.784374 41.70625 49.690624 41.221874Q48.596874 40.7375 48.01875 39.878124L48.95625 38.8Q50.128124 40.2375 51.8 40.2375Q53.128124 40.2375 53.8625 39.4875Q54.596874 38.753124 54.596874 37.409374L54.596874 36.4875Q53.51875 37.753124 51.64375 37.753124Q49.784374 37.753124 48.628124 36.253124Q47.4875 34.753124 47.4875 32.175ZM49.3 32.378124Q49.3 34.175 50.034374 35.190624Q50.76875 36.20625 52.08125 36.20625Q53.8 36.20625 54.596874 34.659374L54.596874 29.83125Q53.76875 28.315624 52.1125 28.315624Q50.784374 28.315624 50.034374 29.346874Q49.3 30.378124 49.3 32.378124ZM60.878124 37.55L59.08125 37.55L59.08125 22.55L60.878124 22.55L60.878124 37.55ZM68.3 37.753124Q66.15938 37.753124 64.8 36.346874Q63.45625 34.925 63.45625 32.565624L63.45625 32.221874Q63.45625 30.659374 64.05 29.425Q64.65938 28.190624 65.7375 27.4875Q66.81563 26.784374 68.08125 26.784374Q70.14375 26.784374 71.28438 28.14375Q72.425 29.503124 72.425 32.034374L72.425 32.784374L65.26875 32.784374Q65.3 34.346874 66.175 35.315624Q67.05 36.26875 68.39375 36.26875Q69.3625 36.26875 70.01875 35.878124Q70.69063 35.4875 71.19063 34.846874L72.28438 35.70625Q70.95625 37.753124 68.3 37.753124ZM68.08125 28.26875Q66.9875 28.26875 66.2375 29.065624Q65.50313 29.8625 65.33125 31.3L70.6125 31.3L70.6125 31.159374Q70.53438 29.784374 69.8625 29.034374Q69.20625 28.26875 68.08125 28.26875ZM81.6125 36.01875L89.7375 36.01875L89.7375 37.55L79.39375 37.55L79.39375 36.14375L87.19063 24.878124L79.51875 24.878124L79.51875 23.33125L89.425 23.33125L89.425 24.70625L81.6125 36.01875ZM91.44063 32.175Q91.44063 30.6125 92.05 29.378124Q92.65938 28.128124 93.7375 27.45625Q94.83125 26.784374 96.2375 26.784374Q98.39375 26.784374 99.72188 28.284374Q101.06563 29.76875 101.06563 32.253124L101.06563 32.378124Q101.06563 33.925 100.47188 35.159374Q99.87813 36.378124 98.76875 37.065624Q97.675 37.753124 96.25313 37.753124Q94.1125 37.753124 92.76875 36.253124Q91.44063 34.753124 91.44063 32.3L91.44063 32.175ZM93.25313 32.378124Q93.25313 34.14375 94.06563 35.20625Q94.89375 36.26875 96.25313 36.26875Q97.62813 36.26875 98.44063 35.190624Q99.25313 34.1125 99.25313 32.175Q99.25313 30.425 98.425 29.346874Q97.59688 28.26875 96.2375 28.26875Q94.89375 28.26875 94.06563 29.33125Q93.25313 30.39375 93.25313 32.378124ZM104.62813 26.9875L104.69063 28.315624Q105.89375 26.784374 107.84688 26.784374Q111.20625 26.784374 111.22188 30.565624L111.22188 37.55L109.425 37.55L109.425 30.55Q109.40938 29.409374 108.89375 28.8625Q108.39375 28.315624 107.3 28.315624Q106.425 28.315624 105.75313 28.784374Q105.09688 29.253124 104.72188 30.01875L104.72188 37.55L102.925 37.55L102.925 26.9875L104.62813 26.9875ZM120.44063 37.55Q120.28438 37.2375 120.19063 36.440624Q118.925 37.753124 117.175 37.753124Q115.6125 37.753124 114.6125 36.8625Q113.6125 35.971874 113.6125 34.6125Q113.6125 32.971874 114.8625 32.065624Q116.12813 31.14375 118.39375 31.14375L120.15938 31.14375L120.15938 30.315624Q120.15938 29.3625 119.58125 28.8Q119.01875 28.2375 117.925 28.2375Q116.95625 28.2375 116.3 28.7375Q115.64375 29.221874 115.64375 29.909374L113.83125 29.909374Q113.83125 29.128124 114.39375 28.39375Q114.95625 27.64375 115.90938 27.221874Q116.87813 26.784374 118.03438 26.784374Q119.8625 26.784374 120.89375 27.70625Q121.925 28.6125 121.97188 30.221874L121.97188 35.08125Q121.97188 36.534374 122.33125 37.39375L122.33125 37.55L120.44063 37.55ZM117.44063 36.175Q118.3 36.175 119.05 35.7375Q119.81563 35.3 120.15938 34.596874L120.15938 32.425L118.7375 32.425Q115.425 32.425 115.425 34.3625Q115.425 35.221874 115.9875 35.70625Q116.55 36.175 117.44063 36.175ZM126.87813 37.55L125.08125 37.55L125.08125 22.55L126.87813 22.55L126.87813 37.55ZM138.40938 35.096874L141.01875 26.9875L142.8625 26.9875L139.08125 37.55L137.70625 37.55L133.87813 26.9875L135.72188 26.9875L138.40938 35.096874ZM151.06563 34.753124Q151.06563 34.01875 150.51875 33.6125Q149.97188 33.20625 148.59688 32.909374Q147.22188 32.6125 146.40938 32.20625Q145.6125 31.8 145.22188 31.2375Q144.84688 30.659374 144.84688 29.878124Q144.84688 28.58125 145.94063 27.690624Q147.03438 26.784374 148.75313 26.784374Q150.55 26.784374 151.65938 27.721874Q152.78438 28.64375 152.78438 30.08125L150.95625 30.08125Q150.95625 29.346874 150.33125 28.815624Q149.70625 28.26875 148.75313 28.26875Q147.75313 28.26875 147.19063 28.70625Q146.64375 29.128124 146.64375 29.83125Q146.64375 30.471874 147.15938 30.815624Q147.675 31.14375 149.03438 31.45625Q150.39375 31.753124 151.22188 32.175Q152.06563 32.58125 152.47188 33.175Q152.87813 33.76875 152.87813 34.6125Q152.87813 36.034374 151.7375 36.89375Q150.6125 37.753124 148.8 37.753124Q147.53438 37.753124 146.55 37.3Q145.58125 36.846874 145.01875 36.05Q144.47188 35.2375 144.47188 34.3L146.28438 34.3Q146.33125 35.20625 147.00313 35.7375Q147.69063 36.26875 148.8 36.26875Q149.83125 36.26875 150.44063 35.8625Q151.06563 35.440624 151.06563 34.753124ZM165.40938 31.8L162.08125 31.8L162.08125 37.55L160.19063 37.55L160.19063 23.33125L164.89375 23.33125Q167.3 23.33125 168.59688 24.425Q169.89375 25.51875 169.89375 27.6125Q169.89375 28.940624 169.175 29.925Q168.45625 30.909374 167.175 31.39375L170.51875 37.425L170.51875 37.55L168.50313 37.55L165.40938 31.8ZM162.08125 30.26875L164.95625 30.26875Q166.34688 30.26875 167.175 29.55Q168.00313 28.815624 168.00313 27.6125Q168.00313 26.284374 167.20625 25.58125Q166.425 24.878124 164.94063 24.878124L162.08125 24.878124L162.08125 30.26875ZM176.3 37.753124Q174.15938 37.753124 172.8 36.346874Q171.45625 34.925 171.45625 32.565624L171.45625 32.221874Q171.45625 30.659374 172.05 29.425Q172.65938 28.190624 173.7375 27.4875Q174.81563 26.784374 176.08125 26.784374Q178.14375 26.784374 179.28438 28.14375Q180.425 29.503124 180.425 32.034374L180.425 32.784374L173.26875 32.784374Q173.3 34.346874 174.175 35.315624Q175.05 36.26875 176.39375 36.26875Q177.3625 36.26875 178.01875 35.878124Q178.69063 35.4875 179.19063 34.846874L180.28438 35.70625Q178.95625 37.753124 176.3 37.753124ZM176.08125 28.26875Q174.9875 28.26875 174.2375 29.065624Q173.50313 29.8625 173.33125 31.3L178.6125 31.3L178.6125 31.159374Q178.53438 29.784374 177.8625 29.034374Q177.20625 28.26875 176.08125 28.26875ZM182.4875 32.175Q182.4875 29.70625 183.62813 28.253124Q184.76875 26.784374 186.65938 26.784374Q188.59688 26.784374 189.675 28.159374L189.76875 26.9875L191.40938 26.9875L191.40938 37.3Q191.40938 39.346874 190.19063 40.51875Q188.9875 41.70625 186.925 41.70625Q185.78438 41.70625 184.69063 41.221874Q183.59688 40.7375 183.01875 39.878124L183.95625 38.8Q185.12813 40.2375 186.8 40.2375Q188.12813 40.2375 188.8625 39.4875Q189.59688 38.753124 189.59688 37.409374L189.59688 36.4875Q188.51875 37.753124 186.64375 37.753124Q184.78438 37.753124 183.62813 36.253124Q182.4875 34.753124 182.4875 32.175ZM184.3 32.378124Q184.3 34.175 185.03438 35.190624Q185.76875 36.20625 187.08125 36.20625Q188.8 36.20625 189.59688 34.659374L189.59688 29.83125Q188.76875 28.315624 187.1125 28.315624Q185.78438 28.315624 185.03438 29.346874Q184.3 30.378124 184.3 32.378124ZM195.87813 37.55L194.08125 37.55L194.08125 26.9875L195.87813 26.9875L195.87813 37.55ZM193.925 24.175Q193.925 23.7375 194.19063 23.440624Q194.47188 23.128124 194.9875 23.128124Q195.51875 23.128124 195.78438 23.440624Q196.06563 23.7375 196.06563 24.175Q196.06563 24.6125 195.78438 24.909374Q195.51875 25.20625 194.9875 25.20625Q194.47188 25.20625 194.19063 24.909374Q193.925 24.6125 193.925 24.175ZM198.44063 32.175Q198.44063 30.6125 199.05 29.378124Q199.65938 28.128124 200.7375 27.45625Q201.83125 26.784374 203.2375 26.784374Q205.39375 26.784374 206.72188 28.284374Q208.06563 29.76875 208.06563 32.253124L208.06563 32.378124Q208.06563 33.925 207.47188 35.159374Q206.87813 36.378124 205.76875 37.065624Q204.675 37.753124 203.25313 37.753124Q201.1125 37.753124 199.76875 36.253124Q198.44063 34.753124 198.44063 32.3L198.44063 32.175ZM200.25313 32.378124Q200.25313 34.14375 201.06563 35.20625Q201.89375 36.26875 203.25313 36.26875Q204.62813 36.26875 205.44063 35.190624Q206.25313 34.1125 206.25313 32.175Q206.25313 30.425 205.425 29.346874Q204.59688 28.26875 203.2375 28.26875Q201.89375 28.26875 201.06563 29.33125Q200.25313 30.39375 200.25313 32.378124ZM211.62813 26.9875L211.69063 28.315624Q212.89375 26.784374 214.84688 26.784374Q218.20625 26.784374 218.22188 30.565624L218.22188 37.55L216.425 37.55L216.425 30.55Q216.40938 29.409374 215.89375 28.8625Q215.39375 28.315624 214.3 28.315624Q213.425 28.315624 212.75313 28.784374Q212.09688 29.253124 211.72188 30.01875L211.72188 37.55L209.925 37.55L209.925 26.9875L211.62813 26.9875ZM227.44063 37.55Q227.28438 37.2375 227.19063 36.440624Q225.925 37.753124 224.175 37.753124Q222.6125 37.753124 221.6125 36.8625Q220.6125 35.971874 220.6125 34.6125Q220.6125 32.971874 221.8625 32.065624Q223.12813 31.14375 225.39375 31.14375L227.15938 31.14375L227.15938 30.315624Q227.15938 29.3625 226.58125 28.8Q226.01875 28.2375 224.925 28.2375Q223.95625 28.2375 223.3 28.7375Q222.64375 29.221874 222.64375 29.909374L220.83125 29.909374Q220.83125 29.128124 221.39375 28.39375Q221.95625 27.64375 222.90938 27.221874Q223.87813 26.784374 225.03438 26.784374Q226.8625 26.784374 227.89375 27.70625Q228.925 28.6125 228.97188 30.221874L228.97188 35.08125Q228.97188 36.534374 229.33125 37.39375L229.33125 37.55L227.44063 37.55ZM224.44063 36.175Q225.3 36.175 226.05 35.7375Q226.81563 35.3 227.15938 34.596874L227.15938 32.425L225.7375 32.425Q222.425 32.425 222.425 34.3625Q222.425 35.221874 222.9875 35.70625Q223.55 36.175 224.44063 36.175ZM233.87813 37.55L232.08125 37.55L232.08125 22.55L233.87813 22.55L233.87813 37.55ZM245.675 32.253124L240.90938 32.253124L240.90938 30.76875L245.675 30.76875L245.675 32.253124ZM255.08125 36.01875L261.83124 36.01875L261.83124 37.55L253.20625 37.55L253.20625 23.33125L255.08125 23.33125L255.08125 36.01875ZM270.4406 37.55Q270.28436 37.2375 270.1906 36.440624Q268.925 37.753124 267.175 37.753124Q265.6125 37.753124 264.6125 36.8625Q263.6125 35.971874 263.6125 34.6125Q263.6125 32.971874 264.8625 32.065624Q266.1281 31.14375 268.39374 31.14375L270.15936 31.14375L270.15936 30.315624Q270.15936 29.3625 269.58124 28.8Q269.01874 28.2375 267.925 28.2375Q266.95624 28.2375 266.3 28.7375Q265.64374 29.221874 265.64374 29.909374L263.83124 29.909374Q263.83124 29.128124 264.39374 28.39375Q264.95624 27.64375 265.90936 27.221874Q266.8781 26.784374 268.03436 26.784374Q269.8625 26.784374 270.89374 27.70625Q271.925 28.6125 271.97186 30.221874L271.97186 35.08125Q271.97186 36.534374 272.33124 37.39375L272.33124 37.55L270.4406 37.55ZM267.4406 36.175Q268.3 36.175 269.05 35.7375Q269.8156 35.3 270.15936 34.596874L270.15936 32.425L268.7375 32.425Q265.425 32.425 265.425 34.3625Q265.425 35.221874 265.9875 35.70625Q266.55 36.175 267.4406 36.175ZM277.3625 24.425L277.3625 26.9875L279.34686 26.9875L279.34686 28.378124L277.3625 28.378124L277.3625 34.925Q277.3625 35.565624 277.6281 35.89375Q277.89374 36.20625 278.53436 36.20625Q278.84686 36.20625 279.39374 36.08125L279.39374 37.55Q278.675 37.753124 278.0031 37.753124Q276.8 37.753124 276.175 37.01875Q275.5656 36.284374 275.5656 34.925L275.5656 28.378124L273.64374 28.378124L273.64374 26.9875L275.5656 26.9875L275.5656 24.425L277.3625 24.425ZM286.3 37.753124Q284.15936 37.753124 282.8 36.346874Q281.45624 34.925 281.45624 32.565624L281.45624 32.221874Q281.45624 30.659374 282.05 29.425Q282.65936 28.190624 283.7375 27.4875Q284.8156 26.784374 286.08124 26.784374Q288.14374 26.784374 289.28436 28.14375Q290.425 29.503124 290.425 32.034374L290.425 32.784374L283.26874 32.784374Q283.3 34.346874 284.175 35.315624Q285.05 36.26875 286.39374 36.26875Q287.3625 36.26875 288.01874 35.878124Q288.6906 35.4875 289.1906 34.846874L290.28436 35.70625Q288.95624 37.753124 286.3 37.753124ZM286.08124 28.26875Q284.9875 28.26875 284.2375 29.065624Q283.5031 29.8625 283.33124 31.3L288.6125 31.3L288.6125 31.159374Q288.53436 29.784374 287.8625 29.034374Q287.20624 28.26875 286.08124 28.26875ZM294.6281 26.9875L294.6906 28.315624Q295.89374 26.784374 297.84686 26.784374Q301.20624 26.784374 301.22186 30.565624L301.22186 37.55L299.425 37.55L299.425 30.55Q299.40936 29.409374 298.89374 28.8625Q298.39374 28.315624 297.3 28.315624Q296.425 28.315624 295.7531 28.784374Q295.09686 29.253124 294.72186 30.01875L294.72186 37.55L292.925 37.55L292.925 26.9875L294.6281 26.9875ZM308.15936 36.26875Q309.1281 36.26875 309.84686 35.690624Q310.5656 35.096874 310.64374 34.221874L312.3625 34.221874Q312.3 35.128124 311.72186 35.95625Q311.15936 36.76875 310.1906 37.26875Q309.2375 37.753124 308.15936 37.753124Q306.0031 37.753124 304.72186 36.315624Q303.45624 34.8625 303.45624 32.3625L303.45624 32.065624Q303.45624 30.51875 304.01874 29.315624Q304.58124 28.1125 305.64374 27.45625Q306.70624 26.784374 308.14374 26.784374Q309.925 26.784374 311.09686 27.846874Q312.28436 28.909374 312.3625 30.6125L310.64374 30.6125Q310.5656 29.596874 309.8625 28.940624Q309.175 28.26875 308.14374 28.26875Q306.76874 28.26875 306.0031 29.26875Q305.2531 30.253124 305.2531 32.128124L305.2531 32.471874Q305.2531 34.3 306.0031 35.284374Q306.7531 36.26875 308.15936 36.26875ZM317.3781 34.909374L319.83124 26.9875L321.76874 26.9875L317.51874 39.175Q316.53436 41.815624 314.39374 41.815624L314.05 41.784374L313.3781 41.659374L313.3781 40.190624L313.8625 40.2375Q314.78436 40.2375 315.28436 39.8625Q315.8 39.4875 316.1281 38.503124L316.53436 37.425L312.76874 26.9875L314.7375 26.9875L317.3781 34.909374Z" fill-rule="nonzero"/></svg>