<svg version="1.1" viewBox="0.0 0.0 600.0 371.0" fill="none" stroke="none" stroke-linecap="square" stroke-miterlimit="10" width="600" height="371" xmlns:xlink="http://www.w3.org/1999/xlink" xmlns="http://www.w3.org/2000/svg"><path fill="#ffffff" d="M0 0L600.0 0L600.0 371.0L0 371.0L0 0Z" fill-rule="nonzero"/><path stroke="#333333" stroke-width="1.0" stroke-linecap="butt" d="M66.5 304.5L581.5 304.5" fill-rule="nonzero"/><path stroke="#cccccc" stroke-width="1.0" stroke-linecap="butt" d="M66.5 223.5L581.5 223.5" fill-rule="nonzero"/><path stroke="#cccccc" stroke-width="1.0" stroke-linecap="butt" d="M66.5 142.5L581.5 142.5" fill-rule="nonzero"/><path stroke="#cccccc" stroke-width="1.0" stroke-linecap="butt" d="M66.5 62.5L581.5 62.5" fill-rule="nonzero"/><clipPath id="id_0"><path d="M66.55 62.416668L581.45 62.416668L581.45 304.08334L66.55 304.08334L66.55 62.416668Z" clip-rule="nonzero"/></clipPath><path stroke="#000000" stroke-width="0.0" stroke-linecap="butt" stroke-opacity="0.0" clip-path="url(#id_0)" d="M120.0 304.0L95.0 304.0L95.0 142.0C95.0 140.89543 95.89543 140.0 97.0 140.0L118.0 140.0C119.10457 140.0 120.0 140.89543 120.0 142.0Z" fill-rule="nonzero"/><path fill="#4285f4" clip-path="url(#id_0)" d="M120.0 304.0L95.0 304.0L95.0 142.0C95.0 140.89543 95.89543 140.0 97.0 140.0L118.0 140.0C119.10457 140.0 120.0 140.89543 120.0 142.0Z" fill-rule="nonzero"/><path stroke="#000000" stroke-width="0.0" stroke-linecap="butt" stroke-opacity="0.0" clip-path="url(#id_0)" d="M201.0 304.0L176.0 304.0L176.0 87.0C176.0 85.89543 176.89543 85.0 178.0 85.0L199.0 85.0C200.10457 85.0 201.0 85.89543 201.0 87.0Z" fill-rule="nonzero"/><path fill="#4285f4" clip-path="url(#id_0)" d="M201.0 304.0L176.0 304.0L176.0 87.0C176.0 85.89543 176.89543 85.0 178.0 85.0L199.0 85.0C200.10457 85.0 201.0 85.89543 201.0 87.0Z" fill-rule="nonzero"/><path stroke="#000000" stroke-width="0.0" stroke-linecap="butt" stroke-opacity="0.0" clip-path="url(#id_0)" d="M282.0 304.0L257.0 304.0L257.0 74.0C257.0 72.89543 257.89542 72.0 259.0 72.0L280.0 72.0C281.10458 72.0 282.0 72.89543 282.0 74.0Z" fill-rule="nonzero"/><path fill="#4285f4" clip-path="url(#id_0)" d="M282.0 304.0L257.0 304.0L257.0 74.0C257.0 72.89543 257.89542 72.0 259.0 72.0L280.0 72.0C281.10458 72.0 282.0 72.89543 282.0 74.0Z" fill-rule="nonzero"/><path stroke="#000000" stroke-width="0.0" stroke-linecap="butt" stroke-opacity="0.0" clip-path="url(#id_0)" d="M364.0 304.0L339.0 304.0L339.0 68.0C339.0 66.89543 339.89542 66.0 341.0 66.0L362.0 66.0C363.10458 66.0 364.0 66.89543 364.0 68.0Z" fill-rule="nonzero"/><path fill="#4285f4" clip-path="url(#id_0)" d="M364.0 304.0L339.0 304.0L339.0 68.0C339.0 66.89543 339.89542 66.0 341.0 66.0L362.0 66.0C363.10458 66.0 364.0 66.89543 364.0 68.0Z" fill-rule="nonzero"/><path stroke="#000000" stroke-width="0.0" stroke-linecap="butt" stroke-opacity="0.0" clip-path="url(#id_0)" d="M445.0 304.0L420.0 304.0L420.0 69.0C420.0 67.89543 420.89542 67.0 422.0 67.0L443.0 67.0C444.10458 67.0 445.0 67.89543 445.0 69.0Z" fill-rule="nonzero"/><path fill="#4285f4" clip-path="url(#id_0)" d="M445.0 304.0L420.0 304.0L420.0 69.0C420.0 67.89543 420.89542 67.0 422.0 67.0L443.0 67.0C444.10458 67.0 445.0 67.89543 445.0 69.0Z" fill-rule="nonzero"/><path stroke="#000000" stroke-width="0.0" stroke-linecap="butt" stroke-opacity="0.0" clip-path="url(#id_0)" d="M526.0 304.0L501.0 304.0L501.0 66.0C501.0 64.89543 501.89542 64.0 503.0 64.0L524.0 64.0C525.10455 64.0 526.0 64.89543 526.0 66.0Z" fill-rule="nonzero"/><path fill="#4285f4" clip-path="url(#id_0)" d="M526.0 304.0L501.0 304.0L501.0 66.0C501.0 64.89543 501.89542 64.0 503.0 64.0L524.0 64.0C525.10455 64.0 526.0 64.89543 526.0 66.0Z" fill-rule="nonzero"/><path stroke="#000000" stroke-width="0.0" stroke-linecap="butt" stroke-opacity="0.0" clip-path="url(#id_0)" d="M146.0 304.0L121.0 304.0L121.0 192.0C121.0 190.89543 121.89543 190.0 123.0 190.0L144.0 190.0C145.10457 190.0 146.0 190.89543 146.0 192.0Z" fill-rule="nonzero"/><path fill="#db4437" clip-path="url(#id_0)" d="M146.0 304.0L121.0 304.0L121.0 192.0C121.0 190.89543 121.89543 190.0 123.0 190.0L144.0 190.0C145.10457 190.0 146.0 190.89543 146.0 192.0Z" fill-rule="nonzero"/><path stroke="#000000" stroke-width="0.0" stroke-linecap="butt" stroke-opacity="0.0" clip-path="url(#id_0)" d="M227.0 304.0L202.0 304.0L202.0 129.0C202.0 127.89543 202.89543 127.0 204.0 127.0L225.0 127.0C226.10457 127.0 227.0 127.89543 227.0 129.0Z" fill-rule="nonzero"/><path fill="#db4437" clip-path="url(#id_0)" d="M227.0 304.0L202.0 304.0L202.0 129.0C202.0 127.89543 202.89543 127.0 204.0 127.0L225.0 127.0C226.10457 127.0 227.0 127.89543 227.0 129.0Z" fill-rule="nonzero"/><path stroke="#000000" stroke-width="0.0" stroke-linecap="butt" stroke-opacity="0.0" clip-path="url(#id_0)" d="M308.0 304.0L283.0 304.0L283.0 104.0C283.0 102.89543 283.89542 102.0 285.0 102.0L306.0 102.0C307.10458 102.0 308.0 102.89543 308.0 104.0Z" fill-rule="nonzero"/><path fill="#db4437" clip-path="url(#id_0)" d="M308.0 304.0L283.0 304.0L283.0 104.0C283.0 102.89543 283.89542 102.0 285.0 102.0L306.0 102.0C307.10458 102.0 308.0 102.89543 308.0 104.0Z" fill-rule="nonzero"/><path stroke="#000000" stroke-width="0.0" stroke-linecap="butt" stroke-opacity="0.0" clip-path="url(#id_0)" d="M390.0 304.0L365.0 304.0L365.0 98.0C365.0 96.89543 365.89542 96.0 367.0 96.0L388.0 96.0C389.10458 96.0 390.0 96.89543 390.0 98.0Z" fill-rule="nonzero"/><path fill="#db4437" clip-path="url(#id_0)" d="M390.0 304.0L365.0 304.0L365.0 98.0C365.0 96.89543 365.89542 96.0 367.0 96.0L388.0 96.0C389.10458 96.0 390.0 96.89543 390.0 98.0Z" fill-rule="nonzero"/><path stroke="#000000" stroke-width="0.0" stroke-linecap="butt" stroke-opacity="0.0" clip-path="url(#id_0)" d="M471.0 304.0L446.0 304.0L446.0 98.0C446.0 96.89543 446.89542 96.0 448.0 96.0L469.0 96.0C470.10458 96.0 471.0 96.89543 471.0 98.0Z" fill-rule="nonzero"/><path fill="#db4437" clip-path="url(#id_0)" d="M471.0 304.0L446.0 304.0L446.0 98.0C446.0 96.89543 446.89542 96.0 448.0 96.0L469.0 96.0C470.10458 96.0 471.0 96.89543 471.0 98.0Z" fill-rule="nonzero"/><path stroke="#000000" stroke-width="0.0" stroke-linecap="butt" stroke-opacity="0.0" clip-path="url(#id_0)" d="M552.0 304.0L527.0 304.0L527.0 80.0C527.0 78.89543 527.89545 78.0 529.0 78.0L550.0 78.0C551.10455 78.0 552.0 78.89543 552.0 80.0Z" fill-rule="nonzero"/><path fill="#db4437" clip-path="url(#id_0)" d="M552.0 304.0L527.0 304.0L527.0 80.0C527.0 78.89543 527.89545 78.0 529.0 78.0L550.0 78.0C551.10455 78.0 552.0 78.89543 552.0 80.0Z" fill-rule="nonzero"/><path fill="#757575" d="M59.6125 304.94272Q59.6125 306.84897 58.95625 307.78647Q58.315624 308.70834 56.925 308.70834Q55.565624 308.70834 54.909374 307.8021Q54.253124 306.89584 54.221874 305.08334L54.221874 303.64584Q54.221874 301.75522 54.8625 300.84897Q55.51875 299.9271 56.909374 299.9271Q58.284374 299.9271 58.940624 300.81772Q59.596874 301.69272 59.6125 303.53647L59.6125 304.94272ZM58.51875 303.45834Q58.51875 302.08334 58.128124 301.45834Q57.753124 300.81772 56.909374 300.81772Q56.08125 300.81772 55.690624 301.45834Q55.315624 302.08334 55.315624 303.38022L55.315624 305.1146Q55.315624 306.4896 55.70625 307.16147Q56.1125 307.81772 56.925 307.81772Q57.721874 307.81772 58.1125 307.19272Q58.503124 306.56772 58.51875 305.2396L58.51875 303.45834Z" fill-rule="nonzero"/><path fill="#757575" d="M22.815624 228.02777L21.7375 228.02777L21.7375 220.80902L19.55 221.6059L19.55 220.62152L22.659374 219.44965L22.815624 219.44965L22.815624 228.02777ZM31.6125 224.38715Q31.6125 226.2934 30.95625 227.2309Q30.315624 228.15277 28.925 228.15277Q27.565624 228.15277 26.909374 227.24652Q26.253124 226.34027 26.221874 224.52777L26.221874 223.09027Q26.221874 221.19965 26.8625 220.2934Q27.51875 219.37152 28.909374 219.37152Q30.284374 219.37152 30.940624 220.26215Q31.596874 221.13715 31.6125 222.9809L31.6125 224.38715ZM30.51875 222.90277Q30.51875 221.52777 30.128124 220.90277Q29.753124 220.26215 28.909374 220.26215Q28.08125 220.26215 27.690624 220.90277Q27.315624 221.52777 27.315624 222.82465L27.315624 224.55902Q27.315624 225.93402 27.70625 226.6059Q28.1125 227.26215 28.925 227.26215Q29.721874 227.26215 30.1125 226.63715Q30.503124 226.01215 30.51875 224.68402L30.51875 222.90277ZM38.6125 224.38715Q38.6125 226.2934 37.95625 227.2309Q37.315624 228.15277 35.925 228.15277Q34.565624 228.15277 33.909374 227.24652Q33.253124 226.34027 33.221874 224.52777L33.221874 223.09027Q33.221874 221.19965 33.8625 220.2934Q34.51875 219.37152 35.909374 219.37152Q37.284374 219.37152 37.940624 220.26215Q38.596874 221.13715 38.6125 222.9809L38.6125 224.38715ZM37.51875 222.90277Q37.51875 221.52777 37.128124 220.90277Q36.753124 220.26215 35.909374 220.26215Q35.08125 220.26215 34.690624 220.90277Q34.315624 221.52777 34.315624 222.82465L34.315624 224.55902Q34.315624 225.93402 34.70625 226.6059Q35.1125 227.26215 35.925 227.26215Q36.721874 227.26215 37.1125 226.63715Q37.503124 226.01215 37.51875 224.68402L37.51875 222.90277ZM45.6125 224.38715Q45.6125 226.2934 44.95625 227.2309Q44.315624 228.15277 42.925 228.15277Q41.565624 228.15277 40.909374 227.24652Q40.253124 226.34027 40.221874 224.52777L40.221874 223.09027Q40.221874 221.19965 40.8625 220.2934Q41.51875 219.37152 42.909374 219.37152Q44.284374 219.37152 44.940624 220.26215Q45.596874 221.13715 45.6125 222.9809L45.6125 224.38715ZM44.51875 222.90277Q44.51875 221.52777 44.128124 220.90277Q43.753124 220.26215 42.909374 220.26215Q42.08125 220.26215 41.690624 220.90277Q41.315624 221.52777 41.315624 222.82465L41.315624 224.55902Q41.315624 225.93402 41.70625 226.6059Q42.1125 227.26215 42.925 227.26215Q43.721874 227.26215 44.1125 226.63715Q44.503124 226.01215 44.51875 224.68402L44.51875 222.90277ZM52.6125 224.38715Q52.6125 226.2934 51.95625 227.2309Q51.315624 228.15277 49.925 228.15277Q48.565624 228.15277 47.909374 227.24652Q47.253124 226.34027 47.221874 224.52777L47.221874 223.09027Q47.221874 221.19965 47.8625 220.2934Q48.51875 219.37152 49.909374 219.37152Q51.284374 219.37152 51.940624 220.26215Q52.596874 221.13715 52.6125 222.9809L52.6125 224.38715ZM51.51875 222.90277Q51.51875 221.52777 51.128124 220.90277Q50.753124 220.26215 49.909374 220.26215Q49.08125 220.26215 48.690624 220.90277Q48.315624 221.52777 48.315624 222.82465L48.315624 224.55902Q48.315624 225.93402 48.70625 226.6059Q49.1125 227.26215 49.925 227.26215Q50.721874 227.26215 51.1125 226.63715Q51.503124 226.01215 51.51875 224.68402L51.51875 222.90277ZM59.6125 224.38715Q59.6125 226.2934 58.95625 227.2309Q58.315624 228.15277 56.925 228.15277Q55.565624 228.15277 54.909374 227.24652Q54.253124 226.34027 54.221874 224.52777L54.221874 223.09027Q54.221874 221.19965 54.8625 220.2934Q55.51875 219.37152 56.909374 219.37152Q58.284374 219.37152 58.940624 220.26215Q59.596874 221.13715 59.6125 222.9809L59.6125 224.38715ZM58.51875 222.90277Q58.51875 221.52777 58.128124 220.90277Q57.753124 220.26215 56.909374 220.26215Q56.08125 220.26215 55.690624 220.90277Q55.315624 221.52777 55.315624 222.82465L55.315624 224.55902Q55.315624 225.93402 55.70625 226.6059Q56.1125 227.26215 56.925 227.26215Q57.721874 227.26215 58.1125 226.63715Q58.503124 226.01215 58.51875 224.68402L58.51875 222.90277Z" fill-rule="nonzero"/><path fill="#757575" d="M24.846874 147.47223L19.253124 147.47223L19.253124 146.69098L22.20625 143.40973Q22.8625 142.65973 23.1125 142.2066Q23.3625 141.73785 23.3625 141.23785Q23.3625 140.56598 22.95625 140.1441Q22.565624 139.7066 21.878124 139.7066Q21.08125 139.7066 20.628124 140.17535Q20.175 140.62848 20.175 141.4566L19.096874 141.4566Q19.096874 140.2691 19.846874 139.55035Q20.6125 138.81598 21.878124 138.81598Q23.08125 138.81598 23.76875 139.44098Q24.45625 140.06598 24.45625 141.11285Q24.45625 142.36285 22.846874 144.11285L20.565624 146.5816L24.846874 146.5816L24.846874 147.47223ZM31.6125 143.8316Q31.6125 145.73785 30.95625 146.67535Q30.315624 147.59723 28.925 147.59723Q27.565624 147.59723 26.909374 146.69098Q26.253124 145.78473 26.221874 143.97223L26.221874 142.53473Q26.221874 140.6441 26.8625 139.73785Q27.51875 138.81598 28.909374 138.81598Q30.284374 138.81598 30.940624 139.7066Q31.596874 140.5816 31.6125 142.42535L31.6125 143.8316ZM30.51875 142.34723Q30.51875 140.97223 30.128124 140.34723Q29.753124 139.7066 28.909374 139.7066Q28.08125 139.7066 27.690624 140.34723Q27.315624 140.97223 27.315624 142.2691L27.315624 144.00348Q27.315624 145.37848 27.70625 146.05035Q28.1125 146.7066 28.925 146.7066Q29.721874 146.7066 30.1125 146.0816Q30.503124 145.4566 30.51875 144.12848L30.51875 142.34723ZM38.6125 143.8316Q38.6125 145.73785 37.95625 146.67535Q37.315624 147.59723 35.925 147.59723Q34.565624 147.59723 33.909374 146.69098Q33.253124 145.78473 33.221874 143.97223L33.221874 142.53473Q33.221874 140.6441 33.8625 139.73785Q34.51875 138.81598 35.909374 138.81598Q37.284374 138.81598 37.940624 139.7066Q38.596874 140.5816 38.6125 142.42535L38.6125 143.8316ZM37.51875 142.34723Q37.51875 140.97223 37.128124 140.34723Q36.753124 139.7066 35.909374 139.7066Q35.08125 139.7066 34.690624 140.34723Q34.315624 140.97223 34.315624 142.2691L34.315624 144.00348Q34.315624 145.37848 34.70625 146.05035Q35.1125 146.7066 35.925 146.7066Q36.721874 146.7066 37.1125 146.0816Q37.503124 145.4566 37.51875 144.12848L37.51875 142.34723ZM45.6125 143.8316Q45.6125 145.73785 44.95625 146.67535Q44.315624 147.59723 42.925 147.59723Q41.565624 147.59723 40.909374 146.69098Q40.253124 145.78473 40.221874 143.97223L40.221874 142.53473Q40.221874 140.6441 40.8625 139.73785Q41.51875 138.81598 42.909374 138.81598Q44.284374 138.81598 44.940624 139.7066Q45.596874 140.5816 45.6125 142.42535L45.6125 143.8316ZM44.51875 142.34723Q44.51875 140.97223 44.128124 140.34723Q43.753124 139.7066 42.909374 139.7066Q42.08125 139.7066 41.690624 140.34723Q41.315624 140.97223 41.315624 142.2691L41.315624 144.00348Q41.315624 145.37848 41.70625 146.05035Q42.1125 146.7066 42.925 146.7066Q43.721874 146.7066 44.1125 146.0816Q44.503124 145.4566 44.51875 144.12848L44.51875 142.34723ZM52.6125 143.8316Q52.6125 145.73785 51.95625 146.67535Q51.315624 147.59723 49.925 147.59723Q48.565624 147.59723 47.909374 146.69098Q47.253124 145.78473 47.221874 143.97223L47.221874 142.53473Q47.221874 140.6441 47.8625 139.73785Q48.51875 138.81598 49.909374 138.81598Q51.284374 138.81598 51.940624 139.7066Q52.596874 140.5816 52.6125 142.42535L52.6125 143.8316ZM51.51875 142.34723Q51.51875 140.97223 51.128124 140.34723Q50.753124 139.7066 49.909374 139.7066Q49.08125 139.7066 48.690624 140.34723Q48.315624 140.97223 48.315624 142.2691L48.315624 144.00348Q48.315624 145.37848 48.70625 146.05035Q49.1125 146.7066 49.925 146.7066Q50.721874 146.7066 51.1125 146.0816Q51.503124 145.4566 51.51875 144.12848L51.51875 142.34723ZM59.6125 143.8316Q59.6125 145.73785 58.95625 146.67535Q58.315624 147.59723 56.925 147.59723Q55.565624 147.59723 54.909374 146.69098Q54.253124 145.78473 54.221874 143.97223L54.221874 142.53473Q54.221874 140.6441 54.8625 139.73785Q55.51875 138.81598 56.909374 138.81598Q58.284374 138.81598 58.940624 139.7066Q59.596874 140.5816 59.6125 142.42535L59.6125 143.8316ZM58.51875 142.34723Q58.51875 140.97223 58.128124 140.34723Q57.753124 139.7066 56.909374 139.7066Q56.08125 139.7066 55.690624 140.34723Q55.315624 140.97223 55.315624 142.2691L55.315624 144.00348Q55.315624 145.37848 55.70625 146.05035Q56.1125 146.7066 56.925 146.7066Q57.721874 146.7066 58.1125 146.0816Q58.503124 145.4566 58.51875 144.12848L58.51875 142.34723Z" fill-rule="nonzero"/><path fill="#757575" d="M20.83125 62.11979L21.64375 62.11979Q22.425 62.104164 22.8625 61.71354Q23.3 61.322914 23.3 60.65104Q23.3 59.15104 21.8 59.15104Q21.096874 59.15104 20.675 59.55729Q20.26875 59.96354 20.26875 60.61979L19.175 60.61979Q19.175 59.604164 19.909374 58.93229Q20.659374 58.260414 21.8 58.260414Q23.003124 58.260414 23.690624 58.90104Q24.378124 59.541664 24.378124 60.68229Q24.378124 61.24479 24.01875 61.760414Q23.659374 62.27604 23.034374 62.541664Q23.7375 62.760414 24.1125 63.27604Q24.503124 63.791664 24.503124 64.541664Q24.503124 65.68229 23.753124 66.36979Q23.003124 67.041664 21.8 67.041664Q20.6125 67.041664 19.846874 66.385414Q19.096874 65.729164 19.096874 64.666664L20.190624 64.666664Q20.190624 65.33854 20.628124 65.74479Q21.065624 66.15104 21.815624 66.15104Q22.596874 66.15104 23.003124 65.74479Q23.425 65.322914 23.425 64.55729Q23.425 63.822914 22.971874 63.43229Q22.51875 63.02604 21.64375 63.010414L20.83125 63.010414L20.83125 62.11979ZM31.6125 63.27604Q31.6125 65.18229 30.95625 66.11979Q30.315624 67.041664 28.925 67.041664Q27.565624 67.041664 26.909374 66.135414Q26.253124 65.229164 26.221874 63.416664L26.221874 61.979164Q26.221874 60.08854 26.8625 59.18229Q27.51875 58.260414 28.909374 58.260414Q30.284374 58.260414 30.940624 59.15104Q31.596874 60.02604 31.6125 61.86979L31.6125 63.27604ZM30.51875 61.791664Q30.51875 60.416664 30.128124 59.791664Q29.753124 59.15104 28.909374 59.15104Q28.08125 59.15104 27.690624 59.791664Q27.315624 60.416664 27.315624 61.71354L27.315624 63.447914Q27.315624 64.822914 27.70625 65.49479Q28.1125 66.15104 28.925 66.15104Q29.721874 66.15104 30.1125 65.52604Q30.503124 64.90104 30.51875 63.572914L30.51875 61.791664ZM38.6125 63.27604Q38.6125 65.18229 37.95625 66.11979Q37.315624 67.041664 35.925 67.041664Q34.565624 67.041664 33.909374 66.135414Q33.253124 65.229164 33.221874 63.416664L33.221874 61.979164Q33.221874 60.08854 33.8625 59.18229Q34.51875 58.260414 35.909374 58.260414Q37.284374 58.260414 37.940624 59.15104Q38.596874 60.02604 38.6125 61.86979L38.6125 63.27604ZM37.51875 61.791664Q37.51875 60.416664 37.128124 59.791664Q36.753124 59.15104 35.909374 59.15104Q35.08125 59.15104 34.690624 59.791664Q34.315624 60.416664 34.315624 61.71354L34.315624 63.447914Q34.315624 64.822914 34.70625 65.49479Q35.1125 66.15104 35.925 66.15104Q36.721874 66.15104 37.1125 65.52604Q37.503124 64.90104 37.51875 63.572914L37.51875 61.791664ZM45.6125 63.27604Q45.6125 65.18229 44.95625 66.11979Q44.315624 67.041664 42.925 67.041664Q41.565624 67.041664 40.909374 66.135414Q40.253124 65.229164 40.221874 63.416664L40.221874 61.979164Q40.221874 60.08854 40.8625 59.18229Q41.51875 58.260414 42.909374 58.260414Q44.284374 58.260414 44.940624 59.15104Q45.596874 60.02604 45.6125 61.86979L45.6125 63.27604ZM44.51875 61.791664Q44.51875 60.416664 44.128124 59.791664Q43.753124 59.15104 42.909374 59.15104Q42.08125 59.15104 41.690624 59.791664Q41.315624 60.416664 41.315624 61.71354L41.315624 63.447914Q41.315624 64.822914 41.70625 65.49479Q42.1125 66.15104 42.925 66.15104Q43.721874 66.15104 44.1125 65.52604Q44.503124 64.90104 44.51875 63.572914L44.51875 61.791664ZM52.6125 63.27604Q52.6125 65.18229 51.95625 66.11979Q51.315624 67.041664 49.925 67.041664Q48.565624 67.041664 47.909374 66.135414Q47.253124 65.229164 47.221874 63.416664L47.221874 61.979164Q47.221874 60.08854 47.8625 59.18229Q48.51875 58.260414 49.909374 58.260414Q51.284374 58.260414 51.940624 59.15104Q52.596874 60.02604 52.6125 61.86979L52.6125 63.27604ZM51.51875 61.791664Q51.51875 60.416664 51.128124 59.791664Q50.753124 59.15104 49.909374 59.15104Q49.08125 59.15104 48.690624 59.791664Q48.315624 60.416664 48.315624 61.71354L48.315624 63.447914Q48.315624 64.822914 48.70625 65.49479Q49.1125 66.15104 49.925 66.15104Q50.721874 66.15104 51.1125 65.52604Q51.503124 64.90104 51.51875 63.572914L51.51875 61.791664ZM59.6125 63.27604Q59.6125 65.18229 58.95625 66.11979Q58.315624 67.041664 56.925 67.041664Q55.565624 67.041664 54.909374 66.135414Q54.253124 65.229164 54.221874 63.416664L54.221874 61.979164Q54.221874 60.08854 54.8625 59.18229Q55.51875 58.260414 56.909374 58.260414Q58.284374 58.260414 58.940624 59.15104Q59.596874 60.02604 59.6125 61.86979L59.6125 63.27604ZM58.51875 61.791664Q58.51875 60.416664 58.128124 59.791664Q57.753124 59.15104 56.909374 59.15104Q56.08125 59.15104 55.690624 59.791664Q55.315624 60.416664 55.315624 61.71354L55.315624 63.447914Q55.315624 64.822914 55.70625 65.49479Q56.1125 66.15104 56.925 66.15104Q57.721874 66.15104 58.1125 65.52604Q58.503124 64.90104 58.51875 63.572914L58.51875 61.791664Z" fill-rule="nonzero"/><path fill="#757575" d="M115.04909 322.08334L113.97096 322.08334L113.97096 314.8646L111.78346 315.66147L111.78346 314.6771L114.89284 313.50522L115.04909 313.50522L115.04909 322.08334ZM118.98659 317.8021L119.42409 313.5521L123.79909 313.5521L123.79909 314.5521L120.34596 314.5521L120.08034 316.88022Q120.72096 316.50522 121.51784 316.50522Q122.67409 316.50522 123.36159 317.28647Q124.04909 318.0521 124.04909 319.3646Q124.04909 320.6771 123.33034 321.44272Q122.62721 322.20834 121.34596 322.20834Q120.22096 322.20834 119.50221 321.58334Q118.78346 320.94272 118.68971 319.83334L119.70534 319.83334Q119.81471 320.56772 120.23659 320.94272Q120.65846 321.31772 121.34596 321.31772Q122.09596 321.31772 122.53346 320.8021Q122.97096 320.28647 122.97096 319.38022Q122.97096 318.52084 122.50221 318.00522Q122.03346 317.4896 121.25221 317.4896Q120.54909 317.4896 120.14284 317.78647L119.86159 318.02084L118.98659 317.8021ZM130.84596 318.44272Q130.84596 320.34897 130.18971 321.28647Q129.54909 322.20834 128.15846 322.20834Q126.79909 322.20834 126.14284 321.3021Q125.48659 320.39584 125.45534 318.58334L125.45534 317.14584Q125.45534 315.25522 126.09596 314.34897Q126.75221 313.4271 128.14284 313.4271Q129.51784 313.4271 130.17409 314.31772Q130.83034 315.19272 130.84596 317.03647L130.84596 318.44272ZM129.75221 316.95834Q129.75221 315.58334 129.36159 314.95834Q128.98659 314.31772 128.14284 314.31772Q127.31471 314.31772 126.92409 314.95834Q126.54909 315.58334 126.54909 316.88022L126.54909 318.6146Q126.54909 319.9896 126.93971 320.66147Q127.34596 321.31772 128.15846 321.31772Q128.95534 321.31772 129.34596 320.69272Q129.73659 320.06772 129.75221 318.7396L129.75221 316.95834Z" fill-rule="nonzero"/><path fill="#757575" d="M194.15132 317.28647L194.96382 317.28647Q195.74507 317.27084 196.18257 316.88022Q196.62007 316.4896 196.62007 315.81772Q196.62007 314.31772 195.12007 314.31772Q194.41695 314.31772 193.99507 314.72397Q193.58882 315.13022 193.58882 315.78647L192.49507 315.78647Q192.49507 314.77084 193.22945 314.09897Q193.97945 313.4271 195.12007 313.4271Q196.3232 313.4271 197.0107 314.06772Q197.6982 314.70834 197.6982 315.84897Q197.6982 316.41147 197.33882 316.9271Q196.97945 317.44272 196.35445 317.70834Q197.05757 317.9271 197.43257 318.44272Q197.8232 318.95834 197.8232 319.70834Q197.8232 320.84897 197.0732 321.53647Q196.3232 322.20834 195.12007 322.20834Q193.93257 322.20834 193.16695 321.5521Q192.41695 320.89584 192.41695 319.83334L193.5107 319.83334Q193.5107 320.50522 193.9482 320.91147Q194.3857 321.31772 195.1357 321.31772Q195.91695 321.31772 196.3232 320.91147Q196.74507 320.4896 196.74507 319.72397Q196.74507 318.9896 196.29195 318.59897Q195.83882 318.19272 194.96382 318.1771L194.15132 318.1771L194.15132 317.28647ZM204.93257 318.44272Q204.93257 320.34897 204.27632 321.28647Q203.6357 322.20834 202.24507 322.20834Q200.8857 322.20834 200.22945 321.3021Q199.5732 320.39584 199.54195 318.58334L199.54195 317.14584Q199.54195 315.25522 200.18257 314.34897Q200.83882 313.4271 202.22945 313.4271Q203.60445 313.4271 204.2607 314.31772Q204.91695 315.19272 204.93257 317.03647L204.93257 318.44272ZM203.83882 316.95834Q203.83882 315.58334 203.4482 314.95834Q203.0732 314.31772 202.22945 314.31772Q201.40132 314.31772 201.0107 314.95834Q200.6357 315.58334 200.6357 316.88022L200.6357 318.6146Q200.6357 319.9896 201.02632 320.66147Q201.43257 321.31772 202.24507 321.31772Q203.04195 321.31772 203.43257 320.69272Q203.8232 320.06772 203.83882 318.7396L203.83882 316.95834ZM211.93257 318.44272Q211.93257 320.34897 211.27632 321.28647Q210.6357 322.20834 209.24507 322.20834Q207.8857 322.20834 207.22945 321.3021Q206.5732 320.39584 206.54195 318.58334L206.54195 317.14584Q206.54195 315.25522 207.18257 314.34897Q207.83882 313.4271 209.22945 313.4271Q210.60445 313.4271 211.2607 314.31772Q211.91695 315.19272 211.93257 317.03647L211.93257 318.44272ZM210.83882 316.95834Q210.83882 315.58334 210.4482 314.95834Q210.0732 314.31772 209.22945 314.31772Q208.40132 314.31772 208.0107 314.95834Q207.6357 315.58334 207.6357 316.88022L207.6357 318.6146Q207.6357 319.9896 208.02632 320.66147Q208.43257 321.31772 209.24507 321.31772Q210.04195 321.31772 210.43257 320.69272Q210.8232 320.06772 210.83882 318.7396L210.83882 316.95834Z" fill-rule="nonzero"/><path fill="#757575" d="M277.92545 313.5521L277.92545 314.45834L277.72232 314.45834Q276.4567 314.4896 275.7067 315.22397Q274.9567 315.94272 274.8317 317.25522Q275.5192 316.4896 276.67545 316.4896Q277.78482 316.4896 278.4567 317.27084Q279.12857 318.0521 279.12857 319.3021Q279.12857 320.6146 278.40982 321.41147Q277.69107 322.20834 276.47232 322.20834Q275.25357 322.20834 274.48795 321.27084Q273.73795 320.31772 273.73795 318.83334L273.73795 318.4271Q273.73795 316.06772 274.73795 314.81772Q275.73795 313.56772 277.72232 313.5521L277.92545 313.5521ZM276.50357 317.39584Q275.94107 317.39584 275.47232 317.72397Q275.00357 318.0521 274.81607 318.56772L274.81607 318.95834Q274.81607 320.02084 275.28482 320.66147Q275.7692 321.3021 276.47232 321.3021Q277.2067 321.3021 277.62857 320.77084Q278.05045 320.22397 278.05045 319.34897Q278.05045 318.47397 277.62857 317.94272Q277.2067 317.39584 276.50357 317.39584ZM286.0192 318.44272Q286.0192 320.34897 285.36295 321.28647Q284.72232 322.20834 283.3317 322.20834Q281.97232 322.20834 281.31607 321.3021Q280.65982 320.39584 280.62857 318.58334L280.62857 317.14584Q280.62857 315.25522 281.2692 314.34897Q281.92545 313.4271 283.31607 313.4271Q284.69107 313.4271 285.34732 314.31772Q286.00357 315.19272 286.0192 317.03647L286.0192 318.44272ZM284.92545 316.95834Q284.92545 315.58334 284.53482 314.95834Q284.15982 314.31772 283.31607 314.31772Q282.48795 314.31772 282.09732 314.95834Q281.72232 315.58334 281.72232 316.88022L281.72232 318.6146Q281.72232 319.9896 282.11295 320.66147Q282.5192 321.31772 283.3317 321.31772Q284.12857 321.31772 284.5192 320.69272Q284.90982 320.06772 284.92545 318.7396L284.92545 316.95834ZM293.0192 318.44272Q293.0192 320.34897 292.36295 321.28647Q291.72232 322.20834 290.3317 322.20834Q288.97232 322.20834 288.31607 321.3021Q287.65982 320.39584 287.62857 318.58334L287.62857 317.14584Q287.62857 315.25522 288.2692 314.34897Q288.92545 313.4271 290.31607 313.4271Q291.69107 313.4271 292.34732 314.31772Q293.00357 315.19272 293.0192 317.03647L293.0192 318.44272ZM291.92545 316.95834Q291.92545 315.58334 291.53482 314.95834Q291.15982 314.31772 290.31607 314.31772Q289.48795 314.31772 289.09732 314.95834Q288.72232 315.58334 288.72232 316.88022L288.72232 318.6146Q288.72232 319.9896 289.11295 320.66147Q289.5192 321.31772 290.3317 321.31772Q291.12857 321.31772 291.5192 320.69272Q291.90982 320.06772 291.92545 318.7396L291.92545 316.95834Z" fill-rule="nonzero"/><path fill="#757575" d="M358.90268 318.33334Q358.57455 318.7396 358.09018 318.9896Q357.62143 319.22397 357.05893 319.22397Q356.32455 319.22397 355.77768 318.8646Q355.2308 318.50522 354.93393 317.84897Q354.63705 317.1771 354.63705 316.38022Q354.63705 315.53647 354.94955 314.84897Q355.27768 314.16147 355.87143 313.8021Q356.4808 313.4271 357.27768 313.4271Q358.5433 313.4271 359.26205 314.38022Q359.99643 315.33334 359.99643 316.95834L359.99643 317.27084Q359.99643 319.77084 359.01205 320.91147Q358.02768 322.0521 356.0433 322.08334L355.82455 322.08334L355.82455 321.1771L356.05893 321.1771Q357.40268 321.14584 358.12143 320.47397Q358.84018 319.8021 358.90268 318.33334ZM357.2308 318.33334Q357.77768 318.33334 358.2308 318.00522Q358.69955 317.66147 358.9183 317.1771L358.9183 316.7396Q358.9183 315.6771 358.44955 315.00522Q357.9808 314.33334 357.27768 314.33334Q356.55893 314.33334 356.12143 314.88022Q355.69955 315.4271 355.69955 316.33334Q355.69955 317.20834 356.1058 317.77084Q356.52768 318.33334 357.2308 318.33334ZM367.1058 318.44272Q367.1058 320.34897 366.44955 321.28647Q365.80893 322.20834 364.4183 322.20834Q363.05893 322.20834 362.40268 321.3021Q361.74643 320.39584 361.71518 318.58334L361.71518 317.14584Q361.71518 315.25522 362.3558 314.34897Q363.01205 313.4271 364.40268 313.4271Q365.77768 313.4271 366.43393 314.31772Q367.09018 315.19272 367.1058 317.03647L367.1058 318.44272ZM366.01205 316.95834Q366.01205 315.58334 365.62143 314.95834Q365.24643 314.31772 364.40268 314.31772Q363.57455 314.31772 363.18393 314.95834Q362.80893 315.58334 362.80893 316.88022L362.80893 318.6146Q362.80893 319.9896 363.19955 320.66147Q363.6058 321.31772 364.4183 321.31772Q365.21518 321.31772 365.6058 320.69272Q365.99643 320.06772 366.01205 318.7396L366.01205 316.95834ZM374.1058 318.44272Q374.1058 320.34897 373.44955 321.28647Q372.80893 322.20834 371.4183 322.20834Q370.05893 322.20834 369.40268 321.3021Q368.74643 320.39584 368.71518 318.58334L368.71518 317.14584Q368.71518 315.25522 369.3558 314.34897Q370.01205 313.4271 371.40268 313.4271Q372.77768 313.4271 373.43393 314.31772Q374.09018 315.19272 374.1058 317.03647L374.1058 318.44272ZM373.01205 316.95834Q373.01205 315.58334 372.62143 314.95834Q372.24643 314.31772 371.40268 314.31772Q370.57455 314.31772 370.18393 314.95834Q369.80893 315.58334 369.80893 316.88022L369.80893 318.6146Q369.80893 319.9896 370.19955 320.66147Q370.6058 321.31772 371.4183 321.31772Q372.21518 321.31772 372.6058 320.69272Q372.99643 320.06772 373.01205 318.7396L373.01205 316.95834Z" fill-rule="nonzero"/><path fill="#757575" d="M435.89554 322.08334L434.8174 322.08334L434.8174 314.8646L432.6299 315.66147L432.6299 314.6771L435.7393 313.50522L435.89554 313.50522L435.89554 322.08334ZM444.9268 322.08334L439.33304 322.08334L439.33304 321.3021L442.28616 318.02084Q442.9424 317.27084 443.1924 316.81772Q443.4424 316.34897 443.4424 315.84897Q443.4424 315.1771 443.03616 314.75522Q442.64554 314.31772 441.95804 314.31772Q441.16116 314.31772 440.70804 314.78647Q440.2549 315.2396 440.2549 316.06772L439.1768 316.06772Q439.1768 314.88022 439.9268 314.16147Q440.6924 313.4271 441.95804 313.4271Q443.16116 313.4271 443.84866 314.0521Q444.53616 314.6771 444.53616 315.72397Q444.53616 316.97397 442.9268 318.72397L440.64554 321.19272L444.9268 321.19272L444.9268 322.08334ZM451.6924 318.44272Q451.6924 320.34897 451.03616 321.28647Q450.39554 322.20834 449.0049 322.20834Q447.64554 322.20834 446.9893 321.3021Q446.33304 320.39584 446.3018 318.58334L446.3018 317.14584Q446.3018 315.25522 446.9424 314.34897Q447.59866 313.4271 448.9893 313.4271Q450.3643 313.4271 451.02054 314.31772Q451.6768 315.19272 451.6924 317.03647L451.6924 318.44272ZM450.59866 316.95834Q450.59866 315.58334 450.20804 314.95834Q449.83304 314.31772 448.9893 314.31772Q448.16116 314.31772 447.77054 314.95834Q447.39554 315.58334 447.39554 316.88022L447.39554 318.6146Q447.39554 319.9896 447.78616 320.66147Q448.1924 321.31772 449.0049 321.31772Q449.8018 321.31772 450.1924 320.69272Q450.58304 320.06772 450.59866 318.7396L450.59866 316.95834ZM458.6924 318.44272Q458.6924 320.34897 458.03616 321.28647Q457.39554 322.20834 456.0049 322.20834Q454.64554 322.20834 453.9893 321.3021Q453.33304 320.39584 453.3018 318.58334L453.3018 317.14584Q453.3018 315.25522 453.9424 314.34897Q454.59866 313.4271 455.9893 313.4271Q457.3643 313.4271 458.02054 314.31772Q458.6768 315.19272 458.6924 317.03647L458.6924 318.44272ZM457.59866 316.95834Q457.59866 315.58334 457.20804 314.95834Q456.83304 314.31772 455.9893 314.31772Q455.16116 314.31772 454.77054 314.95834Q454.39554 315.58334 454.39554 316.88022L454.39554 318.6146Q454.39554 319.9896 454.78616 320.66147Q455.1924 321.31772 456.0049 321.31772Q456.8018 321.31772 457.1924 320.69272Q457.58304 320.06772 457.59866 318.7396L457.59866 316.95834Z" fill-rule="nonzero"/><path fill="#757575" d="M516.9822 322.08334L515.90405 322.08334L515.90405 314.8646L513.71655 315.66147L513.71655 314.6771L516.8259 313.50522L516.9822 313.50522L516.9822 322.08334ZM520.9197 317.8021L521.3572 313.5521L525.7322 313.5521L525.7322 314.5521L522.27905 314.5521L522.0134 316.88022Q522.65405 316.50522 523.4509 316.50522Q524.6072 316.50522 525.2947 317.28647Q525.9822 318.0521 525.9822 319.3646Q525.9822 320.6771 525.2634 321.44272Q524.5603 322.20834 523.27905 322.20834Q522.15405 322.20834 521.4353 321.58334Q520.71655 320.94272 520.6228 319.83334L521.6384 319.83334Q521.7478 320.56772 522.1697 320.94272Q522.59155 321.31772 523.27905 321.31772Q524.02905 321.31772 524.46655 320.8021Q524.90405 320.28647 524.90405 319.38022Q524.90405 318.52084 524.4353 318.00522Q523.96655 317.4896 523.1853 317.4896Q522.4822 317.4896 522.0759 317.78647L521.7947 318.02084L520.9197 317.8021ZM532.77905 318.44272Q532.77905 320.34897 532.1228 321.28647Q531.4822 322.20834 530.09155 322.20834Q528.7322 322.20834 528.0759 321.3021Q527.4197 320.39584 527.3884 318.58334L527.3884 317.14584Q527.3884 315.25522 528.02905 314.34897Q528.6853 313.4271 530.0759 313.4271Q531.4509 313.4271 532.1072 314.31772Q532.7634 315.19272 532.77905 317.03647L532.77905 318.44272ZM531.6853 316.95834Q531.6853 315.58334 531.2947 314.95834Q530.9197 314.31772 530.0759 314.31772Q529.2478 314.31772 528.8572 314.95834Q528.4822 315.58334 528.4822 316.88022L528.4822 318.6146Q528.4822 319.9896 528.8728 320.66147Q529.27905 321.31772 530.09155 321.31772Q530.8884 321.31772 531.27905 320.69272Q531.6697 320.06772 531.6853 318.7396L531.6853 316.95834ZM539.77905 318.44272Q539.77905 320.34897 539.1228 321.28647Q538.4822 322.20834 537.09155 322.20834Q535.7322 322.20834 535.0759 321.3021Q534.4197 320.39584 534.3884 318.58334L534.3884 317.14584Q534.3884 315.25522 535.02905 314.34897Q535.6853 313.4271 537.0759 313.4271Q538.4509 313.4271 539.1072 314.31772Q539.7634 315.19272 539.77905 317.03647L539.77905 318.44272ZM538.6853 316.95834Q538.6853 315.58334 538.2947 314.95834Q537.9197 314.31772 537.0759 314.31772Q536.2478 314.31772 535.8572 314.95834Q535.4822 315.58334 535.4822 316.88022L535.4822 318.6146Q535.4822 319.9896 535.8728 320.66147Q536.27905 321.31772 537.09155 321.31772Q537.8884 321.31772 538.27905 320.69272Q538.6697 320.06772 538.6853 318.7396L538.6853 316.95834Z" fill-rule="nonzero"/><path fill="#4285f4" d="M215.0 339.95C215.0 339.3977 215.44771 338.95 216.0 338.95L226.0 338.95C226.55229 338.95 227.0 339.3977 227.0 339.95L227.0 349.95C227.0 350.5023 226.55229 350.95 226.0 350.95L216.0 350.95C215.44771 350.95 215.0 350.5023 215.0 349.95Z" fill-rule="nonzero"/><path fill="#757575" d="M238.5 345.65314Q237.0625 345.23126 236.39062 344.6219Q235.73438 344.0125 235.73438 343.1219Q235.73438 342.1219 236.53125 341.46564Q237.34375 340.79376 238.64062 340.79376Q239.51562 340.79376 240.20312 341.1375Q240.89062 341.48126 241.26562 342.075Q241.65625 342.66876 241.65625 343.3875L240.51562 343.3875Q240.51562 342.60626 240.01562 342.16876Q239.53125 341.73126 238.64062 341.73126Q237.8125 341.73126 237.34375 342.10626Q236.875 342.46564 236.875 343.10626Q236.875 343.6375 237.3125 343.9969Q237.76562 344.35626 238.82812 344.65314Q239.89062 344.95 240.48438 345.3094Q241.09375 345.66876 241.375 346.15314Q241.67188 346.6375 241.67188 347.27814Q241.67188 348.325 240.85938 348.95Q240.04688 349.575 238.70312 349.575Q237.8125 349.575 237.04688 349.23126Q236.29688 348.8875 235.875 348.3094Q235.46875 347.71564 235.46875 346.98126L236.59375 346.98126Q236.59375 347.7469 237.17188 348.2Q237.75 348.65314 238.70312 348.65314Q239.59375 348.65314 240.0625 348.29376Q240.53125 347.91876 240.53125 347.29376Q240.53125 346.66876 240.09375 346.325Q239.65625 345.98126 238.5 345.65314ZM244.0 349.45L242.92188 349.45L242.92188 343.10626L244.0 343.10626L244.0 349.45ZM242.82812 341.4344Q242.82812 341.16876 242.98438 340.98126Q243.15625 340.79376 243.46875 340.79376Q243.78125 340.79376 243.9375 340.98126Q244.10938 341.16876 244.10938 341.4344Q244.10938 341.6844 243.9375 341.8719Q243.78125 342.04376 243.46875 342.04376Q243.15625 342.04376 242.98438 341.8719Q242.82812 341.6844 242.82812 341.4344ZM246.84375 343.10626L246.875 343.90314Q247.60938 342.9969 248.78125 342.9969Q250.79688 342.9969 250.8125 345.2625L250.8125 349.45L249.71875 349.45L249.71875 345.2469Q249.71875 344.575 249.40625 344.2469Q249.10938 343.91876 248.45312 343.91876Q247.92188 343.91876 247.51562 344.2Q247.125 344.48126 246.90625 344.9344L246.90625 349.45L245.82812 349.45L245.82812 343.10626L246.84375 343.10626ZM252.5625 346.23126Q252.5625 344.7469 253.25 343.8719Q253.9375 342.9969 255.0625 342.9969Q256.21875 342.9969 256.875 343.8094L256.92188 343.10626L257.92188 343.10626L257.92188 349.29376Q257.92188 350.52814 257.1875 351.23126Q256.45312 351.95 255.23438 351.95Q254.54688 351.95 253.89062 351.65314Q253.23438 351.35626 252.89062 350.85626L253.45312 350.2Q254.14062 351.0594 255.15625 351.0594Q255.9375 351.0594 256.375 350.60626Q256.82812 350.16876 256.82812 349.35626L256.82812 348.8094Q256.17188 349.575 255.04688 349.575Q253.9375 349.575 253.25 348.6844Q252.5625 347.77814 252.5625 346.23126ZM253.65625 346.35626Q253.65625 347.41876 254.09375 348.04376Q254.53125 348.65314 255.32812 348.65314Q256.34375 348.65314 256.82812 347.71564L256.82812 344.825Q256.32812 343.91876 255.32812 343.91876Q254.54688 343.91876 254.09375 344.52814Q253.65625 345.1375 253.65625 346.35626ZM261.0 349.45L259.92188 349.45L259.92188 340.45L261.0 340.45L261.0 349.45ZM265.45312 349.575Q264.15625 349.575 263.34375 348.73126Q262.54688 347.8719 262.54688 346.45L262.54688 346.2625Q262.54688 345.3094 262.90625 344.575Q263.26562 343.825 263.90625 343.41876Q264.5625 342.9969 265.3125 342.9969Q266.54688 342.9969 267.23438 343.8094Q267.92188 344.6219 267.92188 346.1375L267.92188 346.59064L263.625 346.59064Q263.65625 347.52814 264.17188 348.10626Q264.70312 348.6844 265.51562 348.6844Q266.07812 348.6844 266.46875 348.45Q266.875 348.21564 267.1875 347.825L267.84375 348.34064Q267.04688 349.575 265.45312 349.575ZM265.3125 343.8875Q264.65625 343.8875 264.20312 344.3719Q263.76562 344.84064 263.67188 345.7L266.84375 345.7L266.84375 345.6219Q266.79688 344.79376 266.39062 344.34064Q266.0 343.8875 265.3125 343.8875ZM272.82812 348.52814L277.71875 348.52814L277.71875 349.45L271.5 349.45L271.5 348.60626L276.1875 341.84064L271.57812 341.84064L271.57812 340.91876L277.53125 340.91876L277.53125 341.7469L272.82812 348.52814ZM278.53125 346.21564Q278.53125 345.29376 278.89062 344.54376Q279.26562 343.79376 279.92188 343.40314Q280.57812 342.9969 281.40625 342.9969Q282.70312 342.9969 283.5 343.8875Q284.3125 344.77814 284.3125 346.27814L284.3125 346.35626Q284.3125 347.27814 283.95312 348.0125Q283.59375 348.7469 282.9375 349.16876Q282.28125 349.575 281.42188 349.575Q280.14062 349.575 279.32812 348.6844Q278.53125 347.77814 278.53125 346.29376L278.53125 346.21564ZM279.625 346.35626Q279.625 347.40314 280.10938 348.04376Q280.60938 348.6844 281.42188 348.6844Q282.25 348.6844 282.73438 348.04376Q283.21875 347.3875 283.21875 346.21564Q283.21875 345.1844 282.71875 344.54376Q282.23438 343.8875 281.40625 343.8875Q280.60938 343.8875 280.10938 344.52814Q279.625 345.15314 279.625 346.35626ZM286.84375 343.10626L286.875 343.90314Q287.60938 342.9969 288.78125 342.9969Q290.79688 342.9969 290.8125 345.2625L290.8125 349.45L289.71875 349.45L289.71875 345.2469Q289.71875 344.575 289.40625 344.2469Q289.10938 343.91876 288.45312 343.91876Q287.92188 343.91876 287.51562 344.2Q287.125 344.48126 286.90625 344.9344L286.90625 349.45L285.82812 349.45L285.82812 343.10626L286.84375 343.10626ZM296.73438 349.45Q296.64062 349.2625 296.57812 348.77814Q295.82812 349.575 294.78125 349.575Q293.84375 349.575 293.23438 349.04376Q292.64062 348.5125 292.64062 347.6844Q292.64062 346.7 293.39062 346.15314Q294.14062 345.60626 295.51562 345.60626L296.5625 345.60626L296.5625 345.10626Q296.5625 344.54376 296.21875 344.21564Q295.89062 343.8719 295.21875 343.8719Q294.64062 343.8719 294.25 344.16876Q293.85938 344.45 293.85938 344.8719L292.76562 344.8719Q292.76562 344.3875 293.09375 343.95Q293.4375 343.5125 294.01562 343.2625Q294.59375 342.9969 295.28125 342.9969Q296.39062 342.9969 297.0 343.54376Q297.625 344.09064 297.65625 345.04376L297.65625 347.96564Q297.65625 348.84064 297.875 349.35626L297.875 349.45L296.73438 349.45ZM294.9375 348.6219Q295.45312 348.6219 295.90625 348.35626Q296.35938 348.09064 296.5625 347.66876L296.5625 346.3719L295.71875 346.3719Q293.71875 346.3719 293.71875 347.54376Q293.71875 348.04376 294.0625 348.34064Q294.40625 348.6219 294.9375 348.6219ZM301.0 349.45L299.92188 349.45L299.92188 340.45L301.0 340.45L301.0 349.45Z" fill-rule="nonzero"/><path fill="#db4437" d="M318.0 339.95C318.0 339.3977 318.44772 338.95 319.0 338.95L329.0 338.95C329.55228 338.95 330.0 339.3977 330.0 339.95L330.0 349.95C330.0 350.5023 329.55228 350.95 329.0 350.95L319.0 350.95C318.44772 350.95 318.0 350.5023 318.0 349.95Z" fill-rule="nonzero"/><path fill="#757575" d="M342.125 345.9969L340.10938 345.9969L340.10938 349.45L338.98438 349.45L338.98438 340.91876L341.8125 340.91876Q343.25 340.91876 344.01562 341.575Q344.79688 342.23126 344.79688 343.48126Q344.79688 344.27814 344.35938 344.8719Q343.9375 345.46564 343.17188 345.7625L345.17188 349.3719L345.17188 349.45L343.96875 349.45L342.125 345.9969ZM340.10938 345.075L341.84375 345.075Q342.6875 345.075 343.17188 344.65314Q343.67188 344.21564 343.67188 343.48126Q343.67188 342.7 343.20312 342.27814Q342.73438 341.85626 341.84375 341.84064L340.10938 341.84064L340.10938 345.075ZM348.45312 349.575Q347.15625 349.575 346.34375 348.73126Q345.54688 347.8719 345.54688 346.45L345.54688 346.2625Q345.54688 345.3094 345.90625 344.575Q346.26562 343.825 346.90625 343.41876Q347.5625 342.9969 348.3125 342.9969Q349.54688 342.9969 350.23438 343.8094Q350.92188 344.6219 350.92188 346.1375L350.92188 346.59064L346.625 346.59064Q346.65625 347.52814 347.17188 348.10626Q347.70312 348.6844 348.51562 348.6844Q349.07812 348.6844 349.46875 348.45Q349.875 348.21564 350.1875 347.825L350.84375 348.34064Q350.04688 349.575 348.45312 349.575ZM348.3125 343.8875Q347.65625 343.8875 347.20312 344.3719Q346.76562 344.84064 346.67188 345.7L349.84375 345.7L349.84375 345.6219Q349.79688 344.79376 349.39062 344.34064Q349.0 343.8875 348.3125 343.8875ZM351.5625 346.23126Q351.5625 344.7469 352.25 343.8719Q352.9375 342.9969 354.0625 342.9969Q355.21875 342.9969 355.875 343.8094L355.92188 343.10626L356.92188 343.10626L356.92188 349.29376Q356.92188 350.52814 356.1875 351.23126Q355.45312 351.95 354.23438 351.95Q353.54688 351.95 352.89062 351.65314Q352.23438 351.35626 351.89062 350.85626L352.45312 350.2Q353.14062 351.0594 354.15625 351.0594Q354.9375 351.0594 355.375 350.60626Q355.82812 350.16876 355.82812 349.35626L355.82812 348.8094Q355.17188 349.575 354.04688 349.575Q352.9375 349.575 352.25 348.6844Q351.5625 347.77814 351.5625 346.23126ZM352.65625 346.35626Q352.65625 347.41876 353.09375 348.04376Q353.53125 348.65314 354.32812 348.65314Q355.34375 348.65314 355.82812 347.71564L355.82812 344.825Q355.32812 343.91876 354.32812 343.91876Q353.54688 343.91876 353.09375 344.52814Q352.65625 345.1375 352.65625 346.35626ZM360.0 349.45L358.92188 349.45L358.92188 343.10626L360.0 343.10626L360.0 349.45ZM358.82812 341.4344Q358.82812 341.16876 358.98438 340.98126Q359.15625 340.79376 359.46875 340.79376Q359.78125 340.79376 359.9375 340.98126Q360.10938 341.16876 360.10938 341.4344Q360.10938 341.6844 359.9375 341.8719Q359.78125 342.04376 359.46875 342.04376Q359.15625 342.04376 358.98438 341.8719Q358.82812 341.6844 358.82812 341.4344ZM361.53125 346.21564Q361.53125 345.29376 361.89062 344.54376Q362.26562 343.79376 362.92188 343.40314Q363.57812 342.9969 364.40625 342.9969Q365.70312 342.9969 366.5 343.8875Q367.3125 344.77814 367.3125 346.27814L367.3125 346.35626Q367.3125 347.27814 366.95312 348.0125Q366.59375 348.7469 365.9375 349.16876Q365.28125 349.575 364.42188 349.575Q363.14062 349.575 362.32812 348.6844Q361.53125 347.77814 361.53125 346.29376L361.53125 346.21564ZM362.625 346.35626Q362.625 347.40314 363.10938 348.04376Q363.60938 348.6844 364.42188 348.6844Q365.25 348.6844 365.73438 348.04376Q366.21875 347.3875 366.21875 346.21564Q366.21875 345.1844 365.71875 344.54376Q365.23438 343.8875 364.40625 343.8875Q363.60938 343.8875 363.10938 344.52814Q362.625 345.15314 362.625 346.35626ZM369.84375 343.10626L369.875 343.90314Q370.60938 342.9969 371.78125 342.9969Q373.79688 342.9969 373.8125 345.2625L373.8125 349.45L372.71875 349.45L372.71875 345.2469Q372.71875 344.575 372.40625 344.2469Q372.10938 343.91876 371.45312 343.91876Q370.92188 343.91876 370.51562 344.2Q370.125 344.48126 369.90625 344.9344L369.90625 349.45L368.82812 349.45L368.82812 343.10626L369.84375 343.10626ZM379.73438 349.45Q379.64062 349.2625 379.57812 348.77814Q378.82812 349.575 377.78125 349.575Q376.84375 349.575 376.23438 349.04376Q375.64062 348.5125 375.64062 347.6844Q375.64062 346.7 376.39062 346.15314Q377.14062 345.60626 378.51562 345.60626L379.5625 345.60626L379.5625 345.10626Q379.5625 344.54376 379.21875 344.21564Q378.89062 343.8719 378.21875 343.8719Q377.64062 343.8719 377.25 344.16876Q376.85938 344.45 376.85938 344.8719L375.76562 344.8719Q375.76562 344.3875 376.09375 343.95Q376.4375 343.5125 377.01562 343.2625Q377.59375 342.9969 378.28125 342.9969Q379.39062 342.9969 380.0 343.54376Q380.625 344.09064 380.65625 345.04376L380.65625 347.96564Q380.65625 348.84064 380.875 349.35626L380.875 349.45L379.73438 349.45ZM377.9375 348.6219Q378.45312 348.6219 378.90625 348.35626Q379.35938 348.09064 379.5625 347.66876L379.5625 346.3719L378.71875 346.3719Q376.71875 346.3719 376.71875 347.54376Q376.71875 348.04376 377.0625 348.34064Q377.40625 348.6219 377.9375 348.6219ZM384.0 349.45L382.92188 349.45L382.92188 340.45L384.0 340.45L384.0 349.45Z" fill-rule="nonzero"/><path fill="#757575" d="M24.39375 31.20625Q21.971874 30.51875 20.878124 29.51875Q19.784374 28.503124 19.784374 27.01875Q19.784374 25.33125 21.128124 24.2375Q22.471874 23.128124 24.6125 23.128124Q26.08125 23.128124 27.221874 23.70625Q28.378124 24.26875 29.003124 25.26875Q29.628124 26.253124 29.628124 27.440624L27.753124 27.440624Q27.753124 26.159374 26.925 25.425Q26.1125 24.675 24.6125 24.675Q23.221874 24.675 22.440624 25.284374Q21.675 25.89375 21.675 26.9875Q21.675 27.846874 22.409374 28.45625Q23.14375 29.05 24.909374 29.55Q26.690624 30.05 27.690624 30.659374Q28.690624 31.253124 29.175 32.05Q29.659374 32.846874 29.659374 33.940624Q29.659374 35.659374 28.315624 36.70625Q26.971874 37.753124 24.70625 37.753124Q23.253124 37.753124 21.971874 37.190624Q20.70625 36.628124 20.01875 35.659374Q19.33125 34.675 19.33125 33.425L21.221874 33.425Q21.221874 34.721874 22.175 35.471874Q23.128124 36.20625 24.70625 36.20625Q26.190624 36.20625 26.9875 35.6125Q27.784374 35.003124 27.784374 33.95625Q27.784374 32.909374 27.05 32.346874Q26.315624 31.76875 24.39375 31.20625ZM33.878124 37.55L32.08125 37.55L32.08125 26.9875L33.878124 26.9875L33.878124 37.55ZM31.925 24.175Q31.925 23.7375 32.190624 23.440624Q32.471874 23.128124 32.9875 23.128124Q33.51875 23.128124 33.784374 23.440624Q34.065624 23.7375 34.065624 24.175Q34.065624 24.6125 33.784374 24.909374Q33.51875 25.20625 32.9875 25.20625Q32.471874 25.20625 32.190624 24.909374Q31.925 24.6125 31.925 24.175ZM38.628124 26.9875L38.690624 28.315624Q39.89375 26.784374 41.846874 26.784374Q45.20625 26.784374 45.221874 30.565624L45.221874 37.55L43.425 37.55L43.425 30.55Q43.409374 29.409374 42.89375 28.8625Q42.39375 28.315624 41.3 28.315624Q40.425 28.315624 39.753124 28.784374Q39.096874 29.253124 38.721874 30.01875L38.721874 37.55L36.925 37.55L36.925 26.9875L38.628124 26.9875ZM47.4875 32.175Q47.4875 29.70625 48.628124 28.253124Q49.76875 26.784374 51.659374 26.784374Q53.596874 26.784374 54.675 28.159374L54.76875 26.9875L56.409374 26.9875L56.409374 37.3Q56.409374 39.346874 55.190624 40.51875Q53.9875 41.70625 51.925 41.70625Q50.784374 41.70625 49.690624 41.221874Q48.596874 40.7375 48.01875 39.878124L48.95625 38.8Q50.128124 40.2375 51.8 40.2375Q53.128124 40.2375 53.8625 39.4875Q54.596874 38.753124 54.596874 37.409374L54.596874 36.4875Q53.51875 37.753124 51.64375 37.753124Q49.784374 37.753124 48.628124 36.253124Q47.4875 34.753124 47.4875 32.175ZM49.3 32.378124Q49.3 34.175 50.034374 35.190624Q50.76875 36.20625 52.08125 36.20625Q53.8 36.20625 54.596874 34.659374L54.596874 29.83125Q53.76875 28.315624 52.1125 28.315624Q50.784374 28.315624 50.034374 29.346874Q49.3 30.378124 49.3 32.378124ZM60.878124 37.55L59.08125 37.55L59.08125 22.55L60.878124 22.55L60.878124 37.55ZM68.3 37.753124Q66.15938 37.753124 64.8 36.346874Q63.45625 34.925 63.45625 32.565624L63.45625 32.221874Q63.45625 30.659374 64.05 29.425Q64.65938 28.190624 65.7375 27.4875Q66.81563 26.784374 68.08125 26.784374Q70.14375 26.784374 71.28438 28.14375Q72.425 29.503124 72.425 32.034374L72.425 32.784374L65.26875 32.784374Q65.3 34.346874 66.175 35.315624Q67.05 36.26875 68.39375 36.26875Q69.3625 36.26875 70.01875 35.878124Q70.69063 35.4875 71.19063 34.846874L72.28438 35.70625Q70.95625 37.753124 68.3 37.753124ZM68.08125 28.26875Q66.9875 28.26875 66.2375 29.065624Q65.50313 29.8625 65.33125 31.3L70.6125 31.3L70.6125 31.159374Q70.53438 29.784374 69.8625 29.034374Q69.20625 28.26875 68.08125 28.26875ZM81.6125 36.01875L89.7375 36.01875L89.7375 37.55L79.39375 37.55L79.39375 36.14375L87.19063 24.878124L79.51875 24.878124L79.51875 23.33125L89.425 23.33125L89.425 24.70625L81.6125 36.01875ZM91.44063 32.175Q91.44063 30.6125 92.05 29.378124Q92.65938 28.128124 93.7375 27.45625Q94.83125 26.784374 96.2375 26.784374Q98.39375 26.784374 99.72188 28.284374Q101.06563 29.76875 101.06563 32.253124L101.06563 32.378124Q101.06563 33.925 100.47188 35.159374Q99.87813 36.378124 98.76875 37.065624Q97.675 37.753124 96.25313 37.753124Q94.1125 37.753124 92.76875 36.253124Q91.44063 34.753124 91.44063 32.3L91.44063 32.175ZM93.25313 32.378124Q93.25313 34.14375 94.06563 35.20625Q94.89375 36.26875 96.25313 36.26875Q97.62813 36.26875 98.44063 35.190624Q99.25313 34.1125 99.25313 32.175Q99.25313 30.425 98.425 29.346874Q97.59688 28.26875 96.2375 28.26875Q94.89375 28.26875 94.06563 29.33125Q93.25313 30.39375 93.25313 32.378124ZM104.62813 26.9875L104.69063 28.315624Q105.89375 26.784374 107.84688 26.784374Q111.20625 26.784374 111.22188 30.565624L111.22188 37.55L109.425 37.55L109.425 30.55Q109.40938 29.409374 108.89375 28.8625Q108.39375 28.315624 107.3 28.315624Q106.425 28.315624 105.75313 28.784374Q105.09688 29.253124 104.72188 30.01875L104.72188 37.55L102.925 37.55L102.925 26.9875L104.62813 26.9875ZM120.44063 37.55Q120.28438 37.2375 120.19063 36.440624Q118.925 37.753124 117.175 37.753124Q115.6125 37.753124 114.6125 36.8625Q113.6125 35.971874 113.6125 34.6125Q113.6125 32.971874 114.8625 32.065624Q116.12813 31.14375 118.39375 31.14375L120.15938 31.14375L120.15938 30.315624Q120.15938 29.3625 119.58125 28.8Q119.01875 28.2375 117.925 28.2375Q116.95625 28.2375 116.3 28.7375Q115.64375 29.221874 115.64375 29.909374L113.83125 29.909374Q113.83125 29.128124 114.39375 28.39375Q114.95625 27.64375 115.90938 27.221874Q116.87813 26.784374 118.03438 26.784374Q119.8625 26.784374 120.89375 27.70625Q121.925 28.6125 121.97188 30.221874L121.97188 35.08125Q121.97188 36.534374 122.33125 37.39375L122.33125 37.55L120.44063 37.55ZM117.44063 36.175Q118.3 36.175 119.05 35.7375Q119.81563 35.3 120.15938 34.596874L120.15938 32.425L118.7375 32.425Q115.425 32.425 115.425 34.3625Q115.425 35.221874 115.9875 35.70625Q116.55 36.175 117.44063 36.175ZM126.87813 37.55L125.08125 37.55L125.08125 22.55L126.87813 22.55L126.87813 37.55ZM138.40938 35.096874L141.01875 26.9875L142.8625 26.9875L139.08125 37.55L137.70625 37.55L133.87813 26.9875L135.72188 26.9875L138.40938 35.096874ZM151.06563 34.753124Q151.06563 34.01875 150.51875 33.6125Q149.97188 33.20625 148.59688 32.909374Q147.22188 32.6125 146.40938 32.20625Q145.6125 31.8 145.22188 31.2375Q144.84688 30.659374 144.84688 29.878124Q144.84688 28.58125 145.94063 27.690624Q147.03438 26.784374 148.75313 26.784374Q150.55 26.784374 151.65938 27.721874Q152.78438 28.64375 152.78438 30.08125L150.95625 30.08125Q150.95625 29.346874 150.33125 28.815624Q149.70625 28.26875 148.75313 28.26875Q147.75313 28.26875 147.19063 28.70625Q146.64375 29.128124 146.64375 29.83125Q146.64375 30.471874 147.15938 30.815624Q147.675 31.14375 149.03438 31.45625Q150.39375 31.753124 151.22188 32.175Q152.06563 32.58125 152.47188 33.175Q152.87813 33.76875 152.87813 34.6125Q152.87813 36.034374 151.7375 36.89375Q150.6125 37.753124 148.8 37.753124Q147.53438 37.753124 146.55 37.3Q145.58125 36.846874 145.01875 36.05Q144.47188 35.2375 144.47188 34.3L146.28438 34.3Q146.33125 35.20625 147.00313 35.7375Q147.69063 36.26875 148.8 36.26875Q149.83125 36.26875 150.44063 35.8625Q151.06563 35.440624 151.06563 34.753124ZM165.40938 31.8L162.08125 31.8L162.08125 37.55L160.19063 37.55L160.19063 23.33125L164.89375 23.33125Q167.3 23.33125 168.59688 24.425Q169.89375 25.51875 169.89375 27.6125Q169.89375 28.940624 169.175 29.925Q168.45625 30.909374 167.175 31.39375L170.51875 37.425L170.51875 37.55L168.50313 37.55L165.40938 31.8ZM162.08125 30.26875L164.95625 30.26875Q166.34688 30.26875 167.175 29.55Q168.00313 28.815624 168.00313 27.6125Q168.00313 26.284374 167.20625 25.58125Q166.425 24.878124 164.94063 24.878124L162.08125 24.878124L162.08125 30.26875ZM176.3 37.753124Q174.15938 37.753124 172.8 36.346874Q171.45625 34.925 171.45625 32.565624L171.45625 32.221874Q171.45625 30.659374 172.05 29.425Q172.65938 28.190624 173.7375 27.4875Q174.81563 26.784374 176.08125 26.784374Q178.14375 26.784374 179.28438 28.14375Q180.425 29.503124 180.425 32.034374L180.425 32.784374L173.26875 32.784374Q173.3 34.346874 174.175 35.315624Q175.05 36.26875 176.39375 36.26875Q177.3625 36.26875 178.01875 35.878124Q178.69063 35.4875 179.19063 34.846874L180.28438 35.70625Q178.95625 37.753124 176.3 37.753124ZM176.08125 28.26875Q174.9875 28.26875 174.2375 29.065624Q173.50313 29.8625 173.33125 31.3L178.6125 31.3L178.6125 31.159374Q178.53438 29.784374 177.8625 29.034374Q177.20625 28.26875 176.08125 28.26875ZM182.4875 32.175Q182.4875 29.70625 183.62813 28.253124Q184.76875 26.784374 186.65938 26.784374Q188.59688 26.784374 189.675 28.159374L189.76875 26.9875L191.40938 26.9875L191.40938 37.3Q191.40938 39.346874 190.19063 40.51875Q188.9875 41.70625 186.925 41.70625Q185.78438 41.70625 184.69063 41.221874Q183.59688 40.7375 183.01875 39.878124L183.95625 38.8Q185.12813 40.2375 186.8 40.2375Q188.12813 40.2375 188.8625 39.4875Q189.59688 38.753124 189.59688 37.409374L189.59688 36.4875Q188.51875 37.753124 186.64375 37.753124Q184.78438 37.753124 183.62813 36.253124Q182.4875 34.753124 182.4875 32.175ZM184.3 32.378124Q184.3 34.175 185.03438 35.190624Q185.76875 36.20625 187.08125 36.20625Q188.8 36.20625 189.59688 34.659374L189.59688 29.83125Q188.76875 28.315624 187.1125 28.315624Q185.78438 28.315624 185.03438 29.346874Q184.3 30.378124 184.3 32.378124ZM195.87813 37.55L194.08125 37.55L194.08125 26.9875L195.87813 26.9875L195.87813 37.55ZM193.925 24.175Q193.925 23.7375 194.19063 23.440624Q194.47188 23.128124 194.9875 23.128124Q195.51875 23.128124 195.78438 23.440624Q196.06563 23.7375 196.06563 24.175Q196.06563 24.6125 195.78438 24.909374Q195.51875 25.20625 194.9875 25.20625Q194.47188 25.20625 194.19063 24.909374Q193.925 24.6125 193.925 24.175ZM198.44063 32.175Q198.44063 30.6125 199.05 29.378124Q199.65938 28.128124 200.7375 27.45625Q201.83125 26.784374 203.2375 26.784374Q205.39375 26.784374 206.72188 28.284374Q208.06563 29.76875 208.06563 32.253124L208.06563 32.378124Q208.06563 33.925 207.47188 35.159374Q206.87813 36.378124 205.76875 37.065624Q204.675 37.753124 203.25313 37.753124Q201.1125 37.753124 199.76875 36.253124Q198.44063 34.753124 198.44063 32.3L198.44063 32.175ZM200.25313 32.378124Q200.25313 34.14375 201.06563 35.20625Q201.89375 36.26875 203.25313 36.26875Q204.62813 36.26875 205.44063 35.190624Q206.25313 34.1125 206.25313 32.175Q206.25313 30.425 205.425 29.346874Q204.59688 28.26875 203.2375 28.26875Q201.89375 28.26875 201.06563 29.33125Q200.25313 30.39375 200.25313 32.378124ZM211.62813 26.9875L211.69063 28.315624Q212.89375 26.784374 214.84688 26.784374Q218.20625 26.784374 218.22188 30.565624L218.22188 37.55L216.425 37.55L216.425 30.55Q216.40938 29.409374 215.89375 28.8625Q215.39375 28.315624 214.3 28.315624Q213.425 28.315624 212.75313 28.784374Q212.09688 29.253124 211.72188 30.01875L211.72188 37.55L209.925 37.55L209.925 26.9875L211.62813 26.9875ZM227.44063 37.55Q227.28438 37.2375 227.19063 36.440624Q225.925 37.753124 224.175 37.753124Q222.6125 37.753124 221.6125 36.8625Q220.6125 35.971874 220.6125 34.6125Q220.6125 32.971874 221.8625 32.065624Q223.12813 31.14375 225.39375 31.14375L227.15938 31.14375L227.15938 30.315624Q227.15938 29.3625 226.58125 28.8Q226.01875 28.2375 224.925 28.2375Q223.95625 28.2375 223.3 28.7375Q222.64375 29.221874 222.64375 29.909374L220.83125 29.909374Q220.83125 29.128124 221.39375 28.39375Q221.95625 27.64375 222.90938 27.221874Q223.87813 26.784374 225.03438 26.784374Q226.8625 26.784374 227.89375 27.70625Q228.925 28.6125 228.97188 30.221874L228.97188 35.08125Q228.97188 36.534374 229.33125 37.39375L229.33125 37.55L227.44063 37.55ZM224.44063 36.175Q225.3 36.175 226.05 35.7375Q226.81563 35.3 227.15938 34.596874L227.15938 32.425L225.7375 32.425Q222.425 32.425 222.425 34.3625Q222.425 35.221874 222.9875 35.70625Q223.55 36.175 224.44063 36.175ZM233.87813 37.55L232.08125 37.55L232.08125 22.55L233.87813 22.55L233.87813 37.55ZM245.675 32.253124L240.90938 32.253124L240.90938 30.76875L245.675 30.76875L245.675 32.253124ZM264.0656 30.89375Q264.0656 32.95625 263.40936 34.45625Q262.7531 35.940624 261.5656 36.784374L264.1125 38.76875L262.83124 39.95625L259.83124 37.565624Q259.1281 37.753124 258.34686 37.753124Q256.675 37.753124 255.3625 36.925Q254.06563 36.096874 253.34688 34.565624Q252.62813 33.034374 252.6125 31.01875L252.6125 30.003124Q252.6125 27.95625 253.31563 26.378124Q254.03438 24.8 255.33125 23.971874Q256.64374 23.128124 258.33124 23.128124Q260.05 23.128124 261.34686 23.971874Q262.65936 24.8 263.3625 26.3625Q264.0656 27.909374 264.0656 29.9875L264.0656 30.89375ZM262.1906 29.9875Q262.1906 27.471874 261.1906 26.1125Q260.1906 24.753124 258.33124 24.753124Q256.5656 24.753124 255.53438 26.1125Q254.51875 27.45625 254.4875 29.846874L254.4875 30.89375Q254.4875 33.346874 255.50313 34.753124Q256.53436 36.159374 258.34686 36.159374Q260.15936 36.159374 261.15936 34.83125Q262.15936 33.503124 262.1906 31.034374L262.1906 29.9875ZM269.08124 31.9875L269.08124 37.55L267.20624 37.55L267.20624 23.33125L272.4406 23.33125Q274.78436 23.33125 276.09686 24.51875Q277.425 25.70625 277.425 27.675Q277.425 29.753124 276.1281 30.878124Q274.83124 31.9875 272.425 31.9875L269.08124 31.9875ZM269.08124 30.45625L272.4406 30.45625Q273.95624 30.45625 274.7531 29.753124Q275.55 29.034374 275.55 27.690624Q275.55 26.425 274.7531 25.675Q273.95624 24.909374 272.55 24.878124L269.08124 24.878124L269.08124 30.45625ZM284.39374 31.20625Q281.97186 30.51875 280.8781 29.51875Q279.78436 28.503124 279.78436 27.01875Q279.78436 25.33125 281.1281 24.2375Q282.47186 23.128124 284.6125 23.128124Q286.08124 23.128124 287.22186 23.70625Q288.3781 24.26875 289.0031 25.26875Q289.6281 26.253124 289.6281 27.440624L287.7531 27.440624Q287.7531 26.159374 286.925 25.425Q286.1125 24.675 284.6125 24.675Q283.22186 24.675 282.4406 25.284374Q281.675 25.89375 281.675 26.9875Q281.675 27.846874 282.40936 28.45625Q283.14374 29.05 284.90936 29.55Q286.6906 30.05 287.6906 30.659374Q288.6906 31.253124 289.175 32.05Q289.65936 32.846874 289.65936 33.940624Q289.65936 35.659374 288.3156 36.70625Q286.97186 37.753124 284.70624 37.753124Q283.2531 37.753124 281.97186 37.190624Q280.70624 36.628124 280.01874 35.659374Q279.33124 34.675 279.33124 33.425L281.22186 33.425Q281.22186 34.721874 282.175 35.471874Q283.1281 36.20625 284.70624 36.20625Q286.1906 36.20625 286.9875 35.6125Q287.78436 35.003124 287.78436 33.95625Q287.78436 32.909374 287.05 32.346874Q286.3156 31.76875 284.39374 31.20625Z" fill-rule="nonzero"/></svg>